<?xml version="1.0" encoding="UTF-8"?>
<svg id="Layer_2" data-name="Layer 2" xmlns="http://www.w3.org/2000/svg" viewBox="0 0 259.11 216.37">
  <defs>
    <style>
      .cls-1 {
        fill: #140f24;
      }
    </style>
  </defs>
  <g id="Layer_1-2" data-name="Layer 1">
    <path class="cls-1" d="M59.3,197.34c-12.72-1.39-24.22-5.29-32.79-14.63-9.78-10.65-12.02-22.59-6.07-35.62,.61-1.33,.36-1.98-.62-2.89-8.25-7.65-14.86-16.29-18.04-26.88-2.45-8.15-2.82-16.28,1.72-23.99,4.54-7.72,11.47-12.52,20.95-13.36,8.72-.77,15.55,2.81,20.73,9.25,.74,.92,1.63,1.84,1.98,2.9,.91,2.77,2.7,2.3,4.81,1.48,7.75-3.02,10.76-9.19,10.26-18.53-.22-4.03-1.05-8.03-1.33-12.05-1.16-16.82,5.59-30.76,18.23-42.37C91.57,9.25,106.64,2.93,123.92,.87c15.97-1.9,31.61-.9,46.45,5.1,18.3,7.4,32.13,19.18,38.86,37.24,3.38,9.06,3.12,18.22,1.18,27.55-2.56,12.35-3.01,24.73,1.24,36.93,.63,1.8,1.39,3.54,2.61,5.09,3.25,4.12,7.66,5.25,12.52,3.01,3.42-1.58,6.81-3.04,10.76-3,10.54,.11,23.37,11.25,14.72,24.57-.8,1.24-.68,1.85,.19,2.91,7.47,9.19,8.87,19.14,3.05,29.39-5.88,10.35-15.93,14.12-28.03,13.93-4.62-.07-9.07-1.02-13.43-2.39-.91-.29-1.51-.69-1.88,.67-1.48,5.5-4.46,10.33-8.01,14.88-3.78,4-8.33,7.05-13.43,9.41-.17,0-.37-.05-.52,.01-12.5,4.88-25.04,4.14-37.41-.21-3.19-1.12-5.08-.99-7.82,1.07-10.59,7.99-22.76,10.88-36.25,8.55-7.76-1.34-14.33-4.87-20.37-9.44-3.04-2.96-6.07-5.93-8.39-9.44-.53-.79-1.06-1.18-2.12-.92-6.08,1.51-12.3,1.75-18.55,1.56Zm132.77,.93l.03,.1c10.18-5.69,14.05-14.82,15.24-25.15,1.19-10.37-1.72-19.99-7.11-29.07-1.6-2.69-3.9-4.96-5.1-7.85,.83-.05,1.24,.59,1.72,1.01,10.79,9.41,17.5,20.59,16.92,34.81-.07,1.8,.53,2.62,2.32,3.18,4.99,1.57,10.06,2.5,15.34,2.13,16.11-1.14,23.82-14.55,20.34-24.8-.81-3.66-2.43-6.91-5.49-9.43-1.96-1.19-3.63,.35-5.42,.58-12.28,1.62-21.95-3.19-30.63-10.55-.26-.22-.76-.55-.13-.94,1.94,1.02,3.87,2.03,5.81,3.05,1.14,.6,2.22,1.31,3.42,1.77,6.63,2.56,13.4,4.13,20.57,2.13,5.11-1.43,8.3-5.24,8.41-9.88,.25-1.22,.27-2.41-.57-3.48-3.06-6.24-9.68-8.53-16.14-5.41-4.19,2.02-8.45,3.2-13.18,2.17-6.75-1.47-10.32-6.04-12.56-11.62-4.67-11.65-4.63-23.7-2.97-35.84,.67-4.9,2.2-9.68,2.37-14.63,.45-13.03-4.54-24.21-14.01-33.56-16.22-16.02-36.66-21.61-59.7-20.43-9.29,.27-18.22,2.01-26.73,5.56-10.57,3.96-19.26,10.3-26.31,18.56-8.26,9.69-12.04,20.72-10.79,33.17,.52,5.24,1.72,10.45,1.22,15.77-.77,8.15-4.26,14.7-12.33,18.65-.53,.26-1.42,.32-1.48,1.09,4.93,.95,9.86,.45,14.79,.33-.4,.64-1.14,.69-1.78,.89-7.32,2.38-14.78,2.96-22.4,1.46-1.84-2.97-3.48-6.07-5.57-8.87-6.31-8.46-18.23-9.54-25.99-2.49-1.33,.94-2.58,1.96-3.22,3.47-1.63,1.47-2.51,3.35-3.13,5.31-1.88,5.91-1.27,11.78,.78,17.5,4.27,11.92,12.77,20.87,23.01,28.7,12.02,9.19,25.64,11.32,40.36,8.31,16.98-3.47,30.76-12.01,42.14-24.14,2.4-2.56,4.16-5.59,6.87-7.91,.12,.55-.27,.92-.52,1.35-7.8,13.16-18.67,23.34-33.21,30.01-10.75,4.93-22.02,6.41-33.87,4.95-4.22-.52-8.01-2.21-12.08-3.08-.81,.12-.81-.78-1.35-.95-4.34-1.36-8.46-3.16-12.41-5.3-1.1-.39-1.05,.56-1.29,1.04-1.5,3.02-2.33,6.2-2.43,9.53-.35,11.77,7.49,22.58,20.39,27.85,16.76,6.85,33.07,4.04,49.16-2.28,8.67-2.99,16.46-7.41,23.76-12.64,.81-.58,1.4-1.65,2.71-1.45,.17,.5-.23,.75-.53,1.03-9.27,8.52-19.78,15.33-31.91,19.8-2.29,.84-2.21,1.43-.92,3.05,2.65,3.32,5.79,6.07,9.35,8.56,9.04,6.35,18.91,8.32,29.85,5.81,.18-.02,.35-.05,.53-.07,.6,.09,1.14-.01,1.59-.42,.3-.04,.7,.08,.68-.41l.11,.02c1.73,.04,3.18-.66,4.57-1.5,.4-.15,.83-.28,1.21-.47,13.71-6.8,21.85-17.85,26.82-31.15,4.5-12.02,4.92-24.5,4.04-37.08-.2-2.79-1.05-5.53-.82-8.35,1.51,2.13,1.44,4.65,1.88,7.02,2.54,13.63,2.6,27.22-1.3,40.68-2.33,8.02-6.41,15.28-11.59,22.05,2.54,1.29,5.19,1.95,7.83,2.51,10.27,2.18,20.3,2.01,29.76-2.97,.38-.24,.95-.25,1.1-.77Zm-63.61,10.01c-.23,.14-.45,.28-.68,.42,.3-.04,.7,.08,.68-.42Zm-2.27,.83c-.24-.41-.39-.2-.53,.07,.18-.02,.35-.05,.53-.07Zm-4.88-124.39c-.81-6.12-.96-12.18,1.45-18.09,.7-1.72,1.07-2.22,2.79-.63,9.36,8.67,22.27,9.59,31.78,2.42,1.16-.88,2.26-1.83,3.43-2.78,2.7,4.94,2.75,10.51,2.63,16.11-1.07,6.11-2.64,12.05-6.33,17.35-8.16,11.73-21.61,11.73-30.31-.47-3-4.21-4.29-9.05-5.45-13.91Zm21.15,4.53c-2.88-.06-5.59,.64-8.2,1.69-6.34,2.55-6.65,4.06-1.95,8.76,5.7,5.7,12.04,6.35,18.02,1.81,1.73-1.31,3-2.99,4.26-4.7,1.13-1.53,.98-2.63-.64-3.73-3.44-2.34-7.16-3.87-11.49-3.84Zm-35.99-45.43c-.05-4.99,1.16-9.1,4.31-12.6,4.24-4.7,9.98-4.69,14.22-.02,6.19,6.82,4.65,20.03-2.8,25.44-3.45,2.51-8.94,2.53-12.26-2.41-2.27-3.38-3.59-6.91-3.47-10.41Zm17.16-4.8c.01-2.24-1.29-3.84-3.12-3.84-1.69,0-3.18,1.66-3.07,3.63,.1,1.83,.77,3.45,3.04,3.72,1.73,.2,3.13-1.45,3.14-3.51Zm54.46,3.5c-.14,4.54-1.52,8.79-4.61,12.49-3.66,4.38-9.09,4.53-13.17,.55-6.85-6.68-5.4-19.22,.12-24.63,4.61-4.52,10.48-4.14,14.3,1.01,2.34,3.16,3.23,6.7,3.37,10.58Zm-5.69-3.1c.02-2.65-1.45-4.54-3.09-4.54-1.79,0-3.29,1.75-3.27,3.81,.03,2.1,1.57,4,3.26,3.8,2.21-.26,3.03-1.72,3.1-3.08Zm-51.46,130.18c-.41,.03-1.01,.21-.61,.87,.36-.01,.72-.02,1.08-.03-.01-.36,.18-.89-.47-.84Zm-1.14,1.36c.47,.1,.64-.1,.57-.52-.6-.22-.86-.11-.57,.52Zm88.53-39.65c-.68,.25,.2,.6,.17,.94,.54-.14,1.04,.72,1.61,.07-.44-.58-.9-1.34-1.78-1.02Zm-14.66,4.54c-.04,.13-.05,.25-.03,.38,.53,.03,1.05,.06,1.58,.1-.23-.97-1-.4-1.55-.48Zm-72.74-13.9c.68-.11,.53-.64,.61-1.05-.7,.1-.79,.51-.61,1.05Z"/>
  </g>
</svg>