<?xml version="1.0" encoding="UTF-8"?>
<svg id="Layer_2" data-name="Layer 2" xmlns="http://www.w3.org/2000/svg" viewBox="0 0 255.07 232.66">
  <g id="Layer_1-2" data-name="Layer 1">
    <path d="M252.34,155.8c-4,.29-6.14-1.94-7.64-4.84-2.48-4.79-3.53-9.78-1.61-15.04,.67-1.85,1.19-3.75,1.73-5.64,1.31-4.64,1.74-9.33,.6-14.06-1.16-4.8-3.48-9.02-7.39-12.36-2.02-1.73-3.99-1.31-5.18,.98-.5,.96-.97,1.94-1.53,2.88-6.88,11.51-22.22,12.19-29.98,1.22-1.76-2.48-3.04-5.36-4.01-8.21-3.48-10.26-4.15-20.94-4.94-31.59-.6-8.07-.89-16.18-2.1-24.17-1.94-12.79-7.7-23.99-17.8-33.01-15.2-13.59-37.17-15.83-54.51-5.44-10.88,6.52-17.39,16.13-21.47,27.4-3.51,9.7-4.31,19.88-6.1,29.89-1.73,9.66-3.89,19.22-8.07,28.25-3.95,8.54-9.3,16.1-17.77,21.36-3.9,2.43-8.02,3.34-12.67,2.18-5.5-1.37-11.06-2.07-16.77-.85-10.19,2.19-16.36,9.86-15.61,19.63,.3,3.88,1.9,7.32,4.33,10.7-.56,.29-.89,.49-1.24,.64-5.78,2.46-11.76,2.98-17.96,1.68-2.79-.58-4.25,.45-4.5,3.12-.9,9.35,2.46,17.11,9.97,23.3,5.64,4.66,12.36,6.42,19.73,6.61,8.97,.23,13.59,3.47,16.53,11.38,.24,.65,.53,1.3,.69,1.97,1.12,4.79,4.03,8.47,8.03,11.5,7.54,5.72,16.28,9.22,25.61,11.1,10.71,2.16,21.59,3.63,32.39,5.43,6.11,1.02,12.08,1.98,17.51,5.49,6.02,3.9,13.31,4.95,20.61,5.28,11.64,.53,22.65-1.41,32.77-7.07,1.38-.77,2.84-1.47,4.34-1.99,7.24-2.53,13.97-5.96,20.27-10.11,5.95-3.93,10.58-8.96,13.65-15.19,.81-1.64,.92-3.17-.79-4.42-3.43-2.5-5.1-6-6-9.81-.36-1.5-.06-3.14-.06-4.9,1.33,.32,2.17,.52,3.01,.72,4.3,1,8.64,1.41,13,.36,10.83-2.6,17.5-9.69,22.49-18.52,.47-.83,.84-1.73,1.08-2.64,.46-1.71-.77-3.34-2.63-3.2Zm-17.61,18.8c-5.19,2.44-10.43,2.11-15.6-.1-9.23-3.96-15.93-10.47-20.96-18.59-6.95-11.22-10.74-23.48-13.43-36.13-2.75-12.97-3.7-26.03-3.01-39.23,.09-1.7,.01-3.41-.05-5.12-1.67,13.41-2.3,26.78-.03,40.23,1.8,10.64,4.06,21.12,8.37,31.13,4.18,9.7,9.56,18.69,18.27,25.55,1.17,.92,2.48,1.7,3.73,2.54l-.12,.29-.61-.18c.3,.71,.28,1.53-.06,2.2-.05,.25-.1,.49-.17,.74,0,.02,0,.03-.01,.05,0,.21-.01,.42-.04,.64-.01,.07-.03,.14-.04,.2-.11,3.76-.32,7.62-.3,11.47,.01,4.94-2.03,8.78-6.75,11.03-4.89,2.33-8.17,5.83-10.17,10.57-1.52,3.6-4.2,6.28-7.81,7.81-.14,.09-.28,.17-.42,.26-.18,.25-.43,.48-.75,.68-1.46,.89-3.09,1.49-4.65,2.2-.16,.18-.35,.33-.58,.45-.73,.39-1.48,.72-2.25,1.02-1.02,.53-2.15,1.02-3.28,1.26-.24,.11-.5,.21-.77,.26-3.35,.69-6.73,1.29-10.07,2.02-5.11,1.1-9.3-.57-12.94-3.74-3.43-2.98-7.27-5.07-12.02-5.19-2.48-.06-4.97,.36-7.46,.35-2.95,0-5.94,.02-8.85-.4-5.12-.74-8.96-3.51-12.04-7.36-5.23-6.51-12.02-10.99-20.32-13.42-1.98-.58-4.03-.99-6.29-1.54,13.75-4.38,23.77-13.05,32.92-23.03,9.24-10.07,15.43-21.3,17.36-34.52-1.26,3.25-2.35,6.56-3.81,9.72-7.97,17.32-20.23,31.24-37.67,40.86-4.92,2.72-10.3,4.37-16.17,4.13-7.58-.3-11.99-3.25-13.53-10.15-2.05-9.18-8.46-14.65-16.73-18.8-2.42-1.22-4.85-2.42-7.69-3.83,2.89-.2,5.32-.37,7.76-.54,14.68-1.06,26.54-7.33,36.42-17.29,11.23-11.33,17.98-24.9,22.42-39.61,.03-.1-.06-.24-.02-.09-2.74,5.31-5.39,10.9-8.44,16.28-5.95,10.48-13.53,19.78-23.45,27.29-7.86,5.96-16.94,9.04-26.91,9.79-12.49,.95-24.74-.55-36.76-3.78-.32-.08-.61-.23-1.18-.45,2.94-.21,5.63-.25,8.27-.63,7.34-1.07,13.6-4.1,18.12-9.72,3.01-3.73,4.38-7.98,2.8-12.66-1.46-4.29-4.82-6.44-9.7-6.23,3.23-3.09,7.03-5.02,11.49-5.1,4.01-.08,8.16,0,12.01,.9,5.67,1.33,10.66,.37,15.5-2.26,8.21-4.47,13.83-11.15,18.14-18.92,5.06-9.12,7.72-18.96,9.69-28.98,1.78-9.06,3.04-18.21,4.95-27.24,1.88-8.85,5.64-17.05,12.03-23.9,9.02-9.67,20.37-14.65,34.21-13.46,8.91,.77,16.64,4.39,23.25,10.08,10.14,8.73,15.58,19.76,17.34,32.33,1.15,8.2,1.42,16.5,2.13,24.75,.92,10.7,1.59,21.44,5.31,31.72,2.32,6.41,6.05,11.86,12.54,15.24,10.2,5.33,22.68,1.88,29.03-7.99,.52-.8,.97-1.64,1.56-2.63,4.11,5.18,5.78,10.89,4.74,17.06-.77,4.59-2.67,9.02-3.42,13.61-1.16,7.15,1.23,13.51,6.52,18.74,1.37,1.35,3.49,2.03,5.4,3.1-3.56,5.86-8.13,11.07-14.9,14.25ZM113.72,62.67c17.63,8.43,34.6,10.38,51.22-2.11-1.16,3.31-3.23,5.93-6.28,7.82-1.05,.65-1.32,1.26-1.24,2.43,.48,7.11-.84,13.77-5.5,19.69-5.5,6.99-17.12,7.6-23.21,.27-3.65-4.39-5.36-9.41-5.9-14.86-.1-1.01-.25-2.04-.11-3.03,.33-2.23-.41-3.56-2.62-4.81-2.4-1.36-4.27-3.56-6.36-5.4Zm33.37-16.89c.05-2.37,.76-5.78,3.17-8.71,2.73-3.32,6.44-3.45,9.4-.35,5.03,5.26,5.07,15.97,.09,20.82-2.92,2.85-6.51,2.75-9.22-.3-2.63-2.96-3.47-6.47-3.44-11.46Zm-30.99,1.52c.02-3.06,.59-6.71,3.04-9.87,2.92-3.78,6.99-3.88,10.07-.26,4.37,5.13,4.22,15.23-.3,20.21-2.67,2.95-6.53,2.98-9.25,.09-2.54-2.7-3.36-5.97-3.56-10.17Zm42.38,70.49c1.01,7.82-.02,15.44-1.45,23.05-2.08,11.05-5.43,21.73-10.33,31.96-4.39,9.17-5.98,18.66-4.43,28.69-.32-.82-.67-1.64-.94-2.48-.29-.9-.54-1.82-.75-2.75-1.78-7.8-.1-15.24,3.13-22.37,5.28-11.66,9.62-23.58,11.99-36.06,1.16-6.08,1.77-12.25,2.62-18.38,.08-.56,.1-1.12,.16-1.68Zm12.69,22.39c0,4.78,.18,9.58-.04,14.35-.4,8.46-1.01,16.93,1.09,25.28,1.49,5.91,4.66,11.12,8.18,16.26-.42-.33-.86-.63-1.25-.98-6.67-5.91-9.81-13.31-10.21-21.79-.4-8.42,.23-16.79,1.45-25.14,.38-2.62,.47-5.28,.69-7.92,.03-.02,.06-.04,.09-.06Zm-114.51-3.96c15.64-8.52,26.84-21.09,36.77-35.05-.35,3.04-9.21,15.87-14.54,21.13-6.28,6.2-13.65,10.92-22.23,13.92Z"/>
  </g>
</svg>