<?xml version="1.0" encoding="UTF-8"?>
<svg id="Layer_2" data-name="Layer 2" xmlns="http://www.w3.org/2000/svg" viewBox="0 0 292.75 290.93">
  <g id="Layer_1-2" data-name="Layer 1">
    <path d="M146.27,171.37c1.54,10.9,1.86,21.79,1.26,32.7-.62,11.27-1.84,22.46-4.64,33.46-2.69,10.57-7.32,20.33-13.19,29.6-2.21,3.49-2.12,4.86,.57,8,5.18,6.05,15.25,8.6,22.87,2.38,1.23-1,2.49-1.97,3.61-3.08,8.31-8.24,19.13-6.8,27.22-1.02,2.78,1.98,5.82,3.82,9.02,5,4.5,1.67,7.84,.39,10.81-3.26,1.17-1.44,2.22-2.96,3.44-4.36,5.12-5.85,11.65-6.61,18-2,2.27,1.65,4.21,3.73,6.52,5.3,1.87,1.27,3.98,2.57,6.16,2.98,4.91,.94,8.58-2.11,9.52-7.35,1.12-6.25-.55-12.09-2.92-17.8-2.62-6.31-6.39-12.01-11.25-16.91-10.8-10.88-16.86-24.04-20.98-38.24-3.86-13.29-5.94-26.72-5.65-40.61,.46-21.87-2.08-43.51-8.98-64.47-2.31-7.03-5.77-13.71-8.71-20.55-.15-.36-.32-.71-.09-1.29,1.08,1.44,2.21,2.84,3.22,4.32,9.33,13.53,15.36,28.45,19.65,44,2.59,9.38,4.46,18.95,6.56,28.45,1.98,9.02,5.04,17.64,9.39,25.88,3.29,6.24,6.44,12.56,9.45,18.93,.92,1.95,1.16,4.2,1.36,6.44-9.39-5.96-13.31-16.12-20.4-23.74-.19,.1-.39,.2-.58,.3,.3,1.75,.54,3.52,.92,5.26,2.62,12.08,5.68,24.01,11.84,35,3.25,5.79,7.59,10.77,12.01,15.74,7.72,8.68,13.37,18.44,14.97,29.87,.57,4.09,.55,8.47-.34,12.49-3.05,13.68-18.06,18.72-29.88,10.23-2.57-1.84-4.8-4.1-7.25-6.1-2.34-1.92-3.39-1.74-5.12,.68-.45,.64-.88,1.29-1.33,1.93-6.22,8.73-14.64,11.51-25,7.78-3.49-1.26-6.61-3.49-9.87-5.31-1.26-.7-2.39-1.63-3.7-2.23-3.39-1.57-6.67-1.35-9.64,.98-2.49,1.95-4.79,4.16-7.44,5.88-16.69,10.86-35.98-.86-39.23-12.97-.23-.87-.41-1.75-.69-2.98-.98,.8-1.75,1.48-2.57,2.09-11.78,8.83-24.65,11.78-38.75,5.91-3.35-1.39-5.98-1.9-9.66-.88-6.81,1.88-13.66,.84-19.92-2.58-4.18-2.28-8.62-3.23-13.69-2.94,4.16-2.93,8.13-5.63,12-8.47,11.59-8.52,21.95-18.13,29.12-30.51,4.88-8.42,8.15-17.47,10.98-26.68,.15-.5,.23-1.13,.04-1.59-1.18-3.01-2.38-6.01-3.7-8.96-.99-2.22-2.43-4.12-5.15-5.27-.47,1.79-.91,3.45-1.34,5.12-2.76,10.79-7.91,20.16-17.6,26.75-4.44,3.02-9.29,5.02-14.92,4.63-8.46-.58-14.86-6.45-15.87-14.53-.92-7.34,1.5-13.83,5.63-19.82,2.62-3.8,5.56-7.38,8.23-11.15,.84-1.19,1.74-2.64,1.75-3.98,.01-1.44-.58-3.42-1.66-4.18-1.07-.74-3.44-.82-4.61-.16-1.8,1.01-3.12,2.84-4.55,4.41-2.16,2.36-3.98,5.06-6.41,7.11-3.04,2.56-6.8,3.63-11.34,2.63,3.65-2.71,5.47-6.21,7.24-9.75,1.94-3.89,4.25-7.52,7.85-10.24,3.92-2.95,8.41-4.03,13.22-2.97,7.52,1.66,11.36,8.93,8.47,16.59-1.31,3.48-3.65,6.64-5.72,9.83-2.31,3.56-5.01,6.89-7.23,10.5-1.76,2.87-2.4,6.14-2.11,9.52,.48,5.53,5.37,8.94,10.85,7.15,2.69-.88,5.26-2.43,7.53-4.12,4.79-3.55,7.77-8.41,10.05-13.69-4.79,3.02-9.52,6-14.24,8.98-.16-.21-.32-.42-.48-.62,.35-.39,.71-.77,1.04-1.17,2.77-3.34,5.76-6.55,8.25-10.07,3.06-4.32,6.47-8.26,10.43-11.86,9.15-8.35,15.36-18.66,20.72-29.46,7.72-15.58,12.96-32.04,18.45-48.41,1.38-4.1,2.7-8.22,4.45-12.25-.65,3.52-1.4,7.03-1.93,10.57-1.77,11.77-3.6,23.54-5.14,35.34-2.18,16.74-3.73,33.56-6.26,50.24-2.49,16.41-7.21,32.31-15.93,46.81-6.79,11.28-15.82,20.82-26.5,28.9-.22,.17-.43,.35-.66,.55,3.24,1.75,10.98,.35,16.29-2.68,3.53,1.9,6.71,4.15,10.27,5.41,9.35,3.32,17.71,.62,25.22-4.95,9.76-7.24,16.59-16.72,22-27.18,7.45-14.41,12.05-29.68,14.26-45.59,.85-6.1,1.24-12.25,1.84-18.38,.11-1.09,.21-2.19,.32-3.28Zm101.16-9.01c.92,5.75,2.07,11.44,4.62,16.78,5.35,11.23,16.32,16.99,29.08,15.24,6.35-.87,11.69-6.88,11.61-13.2-7.6-1.37-10.9-6.82-13.23-13.13-.51-1.38-1.06-2.78-1.32-4.21-1.37-7.58-2.76-15.15-3.93-22.76-1.95-12.71-7.36-23.77-17.39-32.37-5.76-4.93-11.89-9.58-18.35-13.63-14.28-8.94-24.62-20.86-30.78-35.96-3.07-7.54-5.32-15.39-7.81-23.13-2.77-8.6-6.6-16.66-13.29-23.14C175.54,2.08,161.95-1.71,146.5,.69c-11.22,1.74-21.61,5.53-30.29,12.83-9.61,8.08-14.53,18.62-16.91,30.36-1.93,9.54-3.11,19.23-5.4,28.68-6.88,28.51-23.16,50.26-51.06,63.37-4.39,2.06-8.79,4.14-13.08,6.38-14.23,7.43-23.67,18.84-29.76,33.24,.85-.14,1.69-.21,2.51-.41,5.28-1.26,9.41-4.32,12.66-8.25,8.22-9.9,18.67-16.73,30.61-21.88,9.71-4.18,18.59-9.74,26.44-16.7,16.62-14.72,26.61-33.01,31.36-53.99,2.15-9.49,3.48-19.15,5.38-28.7,3.37-17,13.29-28.59,30.89-33.71,9.55-2.78,19.11-3.59,28.57,.19,10.98,4.39,17.34,12.75,20.94,23.23,2.8,8.16,4.96,16.54,8.07,24.59,6.67,17.25,17.53,31.5,33.8,41.77,5.79,3.65,11.32,7.73,16.67,11.95,7.38,5.82,13,12.98,15.2,22.05,1.3,5.37,1.8,10.91,2.83,16.35,1.11,5.84,2.16,11.71,3.69,17.46,1.67,6.32,4.97,11.9,10.25,16.71-4.32,1.25-8,.74-11.48-1.18-5.13-2.83-7.58-7.54-8.98-12.7-1.35-5-2.17-10.13-3.17-15.21-.67-3.41-1.64-6.68-4.32-9.23-5.94-5.64-15.85-3.93-17.86,3.22-.63,2.24-.65,4.72-.5,7.07,.39,5.94,.97,11.86,1.62,17.78,.5,4.58,1.2,9.13,1.81,13.7,.18,0,.36-.01,.54-.02,.23-4.03,.3-8.08,.72-12.09,.59-5.63,1.3-11.26,2.22-16.85,.39-2.39,1.47-4.66,3.62-6.3,2.3,2.29,2.91,5.1,3.37,7.95Zm-19.12,82.31c-8.94-9.57-16.46-20.1-22.03-31.74-4.5-9.39-8.09-19.18-12.12-28.78-8.37-19.95-14.19-40.54-17.16-61.86-.58-4.16-1.18-8.31-1.78-12.47-1.04,20.83,.67,41.44,4.98,61.86,5.4,25.59,18.25,47.32,37.19,65.89,3.31,3.24,7.07,5.96,11.5,7.85-.19-.25-.37-.52-.58-.76Zm-96.99-111.91c-.04,.27-.11,.54-.12,.81-.06,.98-.12,1.96-.14,2.94-.28,14.53-1.57,28.99-5.97,42.94-3.29,10.42-7.48,20.57-11.31,30.83-5.92,15.88-13.3,31.06-23.83,44.69-1.67,2.16-3.44,4.24-5.16,6.36,19.83-14.5,33.36-33.35,41.44-55.75,8.59-23.8,10.74-48.12,5.65-72.87l-.56,.05Zm46.61-76.22c-.98-5.05-2.81-9.73-7.13-13.12-3.82-2.99-8.5-2.52-10.88,1.57-1.51,2.6-2.5,5.72-2.75,8.69-.59,7.04,.84,13.7,6.31,18.96,3.93,3.79,8.71,3.27,11.87-1.16,2.23-3.12,2.95-6.65,3.05-10.87-.12-1.02-.19-2.57-.48-4.07Zm-37.22-11.98c-2.9-3.41-7.19-3.96-10.56-.98-1.78,1.57-3.42,3.55-4.4,5.65-3.27,7.03-4.17,14.31-.43,21.44,3.04,5.8,8.56,6.36,13.09,1.56,4.28-4.54,5.7-10.1,5.88-15.43-.05-5.7-1.21-9.43-3.59-12.24Zm.66,58.51c0,5.43,1.24,9.77,3.69,12.93,3.89,5.02,9.18,4.98,12.93-.18,3.37-4.63,4.28-9.91,3.89-15.4-.32-4.61-1.47-9.01-4.87-12.54-3.21-3.33-7.34-3.36-10.5-.02-1.16,1.22-2.32,2.65-2.83,4.19-1.18,3.56-1.95,7.24-2.89,10.88,.2,.05,.39,.09,.59,.14Z"/>
  </g>
</svg>