<?xml version="1.0" encoding="UTF-8"?>
<svg id="Layer_2" data-name="Layer 2" xmlns="http://www.w3.org/2000/svg" viewBox="0 0 228.88 246.85">
  <g id="Layer_1-2" data-name="Layer 1">
    <path d="M150.79,246.85c-11.87-.12-22.63-2.83-32.47-8.12-1.3-.7-3.24-1.09-4.77-.94-11.13,1.11-21.61,.04-31.48-4.62-3.38-1.6-7.42-2.31-11.18-3.38-3.35-.95-6.5-.67-9.8,.56-7.04,2.63-14.3,4.74-22.29,4.55-19.97-.48-34.74-15.51-30.27-30.84,.02-.07,0-.15,.05-.21,2.97-3.83,.38-6.87-2.14-9.94-1.29-1.57-2.55-3.17-3.7-4.81-3.93-5.59-3.62-11.15,.82-16.41,2.19-2.59,4.63-5.13,7.47-7.26,5.92-4.43,7.02-9.84,6.2-15.91-.7-5.21-1.19-10.45-1.51-15.68-.43-7.02,1.68-13.59,6.21-19.62,5.08-6.76,10.43-13.39,15.24-20.28,7.86-11.26,12.08-23.57,15.28-36.13,2.44-9.58,4.91-19.16,9.99-28.12,7.09-12.5,17.85-22.18,34.18-27.11,22.13-6.69,45.98-.03,59.53,16.37,6.71,8.12,9.89,17.33,12.95,26.6,3.34,10.12,6.42,20.31,10.5,30.24,6.29,15.3,17.5,28.36,30.49,40.48,2.67,2.49,5.44,4.92,8.01,7.48,7.53,7.53,5.79,15.73-4.35,20.93-5.55,2.84-5.87,2.95-3.33,7.92,1.86,3.64,4.54,7.05,7.19,10.39,2.53,3.18,5.65,6.04,8.24,9.19,5.33,6.5,3.57,11.95-4.86,15.74-.61,.27-1.19,.57-1.82,.82-3.66,1.43-5.84,3.37-5.15,7.03,.61,3.21-.79,6.29-3.01,8.94-3.31,3.93-3.89,7.93-1.62,12.29,.53,1.02,.81,2.15,.98,3.25,.96,6.14-1.75,10.1-9.16,12.93-8,3.06-16.04,6.09-24.22,8.81-5.02,1.67-10.3,2.93-15.58,3.97-3.43,.68-7.07,.64-10.62,.92Zm53.85-104.69c1.15-.57,2.72-1.4,4.35-2.15,6.81-3.14,8-7.32,3.24-12.31-2.7-2.83-5.71-5.46-8.59-8.18-11.63-10.97-21.63-22.76-28.66-36.08-6.1-11.56-9.44-23.78-13.19-35.9-2.71-8.76-5.74-17.39-11.93-25.11-9.63-12.01-29.55-20.2-49.56-14.41-15.39,4.45-25.26,13.46-31.57,25.27-4.49,8.4-6.68,17.31-8.96,26.21-3.6,14.03-8.72,27.62-17.83,40.05-4.46,6.08-9.23,12.02-13.77,18.07-5.07,6.75-5.78,14.12-4.86,21.58,8.24-9.96,16.5-19.93,24.76-29.91-3.41,7.67-8.33,14.72-13.55,21.65-5.17,6.87-9.71,13.91-9.38,22.3,.25,6.2-2.38,11.46-7.95,15.85-2.66,2.1-5.01,4.47-7.22,6.89-3.02,3.3-3.2,6.87-.55,10.42,1.87,2.5,3.87,4.93,6.15,7.81,5.82-7.14,11.9-13.89,17-21.08,5.07-7.15,9.4-14.66,13.63-22.17,4.2-7.47,7.87-15.14,11.78-22.72-1.1,3.96-2.48,7.84-3.96,11.69-6.94,18.1-15.59,35.56-29.02,51.31-3.03,3.55-5.63,7.41-7.78,11.35-2.95,5.4-2.69,10.89,1.08,16.12,5.92,8.21,17.1,12,29.23,9.14,7.04-1.66,13.75-4.27,20.51-6.64,6.01-2.12,12.11-3.97,18.7-4.3,10.27-.51,18.65,2.65,25.25,8.94,9.38,8.94,21.21,14.04,35.87,14.7,6.9,.31,13.62-.32,20.4-2.05-10.86-3.81-24.77-14.73-26.15-20.62,1.09,1.01,1.97,1.87,2.91,2.69,6.72,5.85,13.91,11.18,23.38,14.08,3.93,1.21,7.75,1.25,11.61-.25,6.34-2.47,12.75-4.81,19.07-7.31,3.61-1.43,4.75-3.6,3.88-6.77-.24-.88-.56-1.76-.96-2.61-2.52-5.28-1.86-10.25,2.01-15,2.11-2.59,3-5.45,2.7-8.58-.69-7.24-2.85-13.95-8.57-19.87-10.21-10.57-17.77-22.33-22.95-35.06-.7-1.73-1.35-3.47-2.02-5.21,.9,.55,1.32,1.23,1.68,1.93,5.18,10.15,12.04,19.53,19.93,28.45,6.05,6.84,13.82,12.83,16.11,21.41,2.38-1.13,4.54-2.16,6.69-3.19,4.2-2.01,4.83-3.89,2.15-7.26-1.63-2.06-3.44-4.04-5.33-5.96-6.17-6.25-11.33-12.91-13.21-20.9-1.25-5.32-4-10.09-7.85-14.49-6.9-7.89-12.11-16.46-15.63-25.68-1.67-4.38-3.14-8.8-4.7-13.21,.81,.42,1.11,.97,1.31,1.53,4.38,12.15,11.46,23.2,20.74,33.41,3.57,3.93,6.52,8.21,9.58,12.11ZM76.3,224.87c6.22,2.15,12.32,4.33,18.49,6.35,4.5,1.48,9.21,1.17,14.17,.89-9.78-10.29-20.94-11.23-32.65-7.24ZM143.38,37.83c-1.45-2.85-3.5-5.66-6.02-7.96-3.35-3.05-8.3-2.46-10.98,1-1.07,1.39-1.81,3.04-2.22,4.65-1.38,5.48-.24,10.85,1.53,16.15,1.61,4.83,3.93,9.4,8.03,13.26,4.52,4.26,10.1,3.51,12.22-1.82,1.02-2.55,1.18-5.33,1.72-8-.47-5.97-1.5-11.8-4.28-17.27Zm-60.95,27.02c1.38,2.97,4.85,3.73,8.08,1.87,2.13-1.23,4.06-2.89,5.51-4.65,4.64-5.63,7.06-11.95,8.18-18.6,.64-3.84,.82-7.68-1.08-11.37-2.42-4.68-7.94-5.58-12.24-1.9-1.58,1.36-2.97,2.95-4,4.62-4.2,6.81-5.91,14.11-6.8,21.76,.75,2.77,1.12,5.65,2.35,8.27Zm39.07,.57c-1.13-2.78-3.42-5.15-7.38-5.19-4.12-.05-6.23,2.52-7.71,5.22-2.53,4.62-2.8,9.48-1.81,14.4,.61,3.01,1.88,5.83,4.67,8.02,2.66,2.09,5.95,2.25,8.61,.19,1.46-1.14,2.91-2.55,3.54-4.06,1.25-3.01,1.93-6.18,2.87-9.38-.93-3.15-1.59-6.25-2.78-9.21Zm25.76,73.25c.46,4.45,.93,8.91,1.39,13.36,1.35,13.2,4.32,26.15,9.47,38.75,5.02,12.29,11.86,23.73,23.75,32.81,1.15,.88,2.36,1.71,4.04,2.93-4.42-5.87-8.65-11.14-12.44-16.61-11.38-16.44-16.94-34.45-21.61-52.67-1.58-6.18-2.91-12.4-4.35-18.6-.08,0-.17,.02-.25,.03ZM29.62,211.55c1.07-.65,1.98-1.38,2.8-2.17,8.09-7.66,14.94-15.98,20.53-24.96,8.31-13.34,14.69-27.28,20.01-41.54,2.39-6.4,4.62-12.85,6.92-19.27-15.67,29.68-27.46,60.81-50.26,87.94Z"/>
  </g>
</svg>