<?xml version="1.0" encoding="UTF-8"?>
<svg id="Layer_2" data-name="Layer 2" xmlns="http://www.w3.org/2000/svg" viewBox="0 0 236.49 277.02">
  <g id="Layer_1-2" data-name="Layer 1">
    <path d="M189.28,265.74c4.11,2.29,8.05,1.56,11.89-.13,5.18-2.28,10.59-2.92,16.21-2.27,4.06,.47,8.11,1.06,12.16,1.58,.71,.09,1.45,.24,2.15,.16,.64-.08,1.24-.44,1.86-.67-.27-.59-.36-1.45-.84-1.71-2.37-1.29-4.75-2.63-7.29-3.57-4.52-1.67-9.23-2.9-13.73-4.6-13.04-4.94-21.37-14.13-26.72-25.92-4.43-9.77-6.79-19.96-7.59-30.51-.69-9.06-.53-18.1,1.19-27.05,.54-2.82,1.46-5.66,2.77-8.25,1.85-3.66,4.61-4.31,8.5-2.45,4.37,2.09,6.97,5.59,8.57,9.77,1.9,4.95,2.31,10.01,.93,15.15-.07,.25-.1,.51-.03,.78,1.66-3.67,2.13-7.51,1.81-11.45-.77-9.58-3.7-18.68-8.02-27.3-6.12-12.24-12.72-24.28-19.23-36.34-8.92-16.51-17.75-33.04-24.13-50.59-3.52-9.7-5.93-19.64-8.14-29.64-1.55-7.02-4.54-13.38-9.96-18.64-10.48-10.17-27.62-9.19-37.54-.57-6.16,5.35-9.17,12.09-10.83,19.61-3.24,14.63-6.68,29.22-11.46,43.52-4.26,12.74-11.42,23.75-21.56,33.22-4.4,4.11-8.51,8.53-12.27,13.16-3.75,4.61-5.42,10.14-6.41,16.01,1.69-1.19,3.24-2.29,4.8-3.38,.09,.06,.19,.12,.28,.18-.27,.51-.47,1.05-.81,1.52-2.22,3.06-4.61,6.01-6.67,9.16-5.54,8.45-8.94,17.53-8.84,27.54,.05,4.85,2,10.36,4.48,13.03-.93-2.48-2.21-4.97-2.79-7.59-1.49-6.76-.79-13.15,4.92-18.3,4.95-4.47,10-4.24,14.44,.7,2.94,3.28,4.71,7.14,6.07,11.14,4.32,12.8,6.49,25.89,5.38,39.3-1.03,12.48-5.14,24.02-14.57,33.33-9.11,9-20.36,13.07-33.78,11.05-1.03-.15-2-.67-3-1.02l.12-.56c2.83-.34,5.65-.67,8.48-1.01,10.31-1.23,18.45-6.09,24.88-13.36,10.15-11.47,13.9-24.89,13.04-39.53-.26-4.53-.83-9.06-2.8-13.23-1.19-2.5-2.87-4.88-4.75-7-1.87-2.11-4.63-2.9-7.63-2.8-3.89,.14-6.32,2.79-5.34,6.31,.62,2.24,1.86,4.33,2.85,6.48,.44,.95,.95,1.87,1.27,2.93-3.94-1.2-7.28-3.16-9.78-6.19-4.1-4.95-5.58-10.7-5.61-16.8-.06-9.68,2.96-18.46,9.18-26.27,.44-.56,.95-1.26,.95-1.89,.01-10.06,4.15-18.7,10.68-26.46,3.19-3.78,6.46-7.55,10.13-10.93,7.04-6.47,11.79-14.2,15.52-22.57,4.8-10.75,8.01-21.95,10.84-33.25,1.97-7.87,3.55-15.83,5.85-23.62C83.53,9.84,96.27,.51,112.02,.02c14.43-.45,24.46,6.11,31.03,17.71,2.78,4.91,3.95,10.27,5.25,15.6,6.54,26.96,17.47,52.35,31.42,76.71,5.59,9.75,11.14,19.54,16.3,29.48,4.37,8.42,7.45,17.3,8.75,26.62,1.09,7.8,.67,15.41-4.15,22.27-1.78,2.53-4,4.66-7.19,6.06,1.04-3.07,2.01-5.92,2.96-8.77,.16-.47,.21-.98,.27-1.48,.32-2.81-.49-4.34-2.74-5.23-2.51-.99-5.31-.39-7.05,1.56-1.87,2.1-2.65,4.63-2.91,7.27-1.19,11.98,1.2,23.45,6.01,34.53,3.1,7.15,7.15,13.76,13.04,19.32,5.15,4.86,11.6,7.67,18.18,10.37,3.72,1.53,7.3,3.41,10.78,5.38,1.48,.84,2.77,2.19,3.75,3.55,1.64,2.29,.67,4.66-2.24,5.08-2.94,.42-5.98,.26-8.98,.25-4.51-.02-9.06-.53-13.5-.08-2.85,.29-5.71,1.68-8.27,3.04-3.74,1.99-7.5,2.91-11.75,2.02-.56-.12-1.32,.08-1.84,.36-5.5,2.93-11.28,3.51-17.23,1.57-4.62-1.51-9.06-1.78-13.7-.02-5.57,2.12-10.98,1.37-16.07-1.51-1.49-.84-2.99-1.67-4.44-2.57-3.18-1.99-6.44-2.01-9.71-.31-1.99,1.03-3.9,2.21-5.81,3.37-4.45,2.71-9.23,4.58-14.61,4.85-4.75,.23-8.61-1.32-11.29-5.07-.63-.88-1.19-1.81-1.73-2.74-2.67-4.55-6.12-6.21-11.52-4.84-4.44,1.13-8.65,3.02-13.06,4.29-4.52,1.3-9.11,2.53-13.76,3.24-2.43,.37-5.12-.26-7.59-.82-1.26-.28-2.3-1.4-3.68-2.3,2.32-.64,4.19-1.04,5.95-1.68,1.12-.41,2.71-.93,2.31-2.37-.44-1.58-2.13-.94-3.27-.84-9.32,.82-18.48,.52-27.56-1.98-3.99-1.1-8.35-1.05-12.45-1.88-2.66-.54-5.27-1.54-7.7-2.69-2.08-.98-2.51-2.41-1.96-4,5.84,4.59,12.77,3.65,19.48,2.93,5.63-.6,11.19-1.94,15.84-5.18,2.04-1.43,3.73-3.3,5.53-5.01,1.11-1.05,1.92-2.48,3.93-2.17,.4,.06,1.02-.19,1.28-.49,1.07-1.24,2.04-.83,3.11,.13,1.42-.81,2.82-1.62,4.66-2.68-1.62,5.22-4.95,8.89-8.64,12.27-3.76,3.45-8.62,5.18-13.49,6.89,5.1,.68,10.1,.36,14.97-1.13,8.93-2.73,15.97-8.02,21.93-14.53,2.98-3.26,5.71-6.8,7.96-10.52,1.64-2.71,2.29-5.92,3.39-8.91,.48-1.31,1-2.61,1.57-4.08,.8,.39,1.47,.72,2.22,1.09,1.84-3.6,3.76-7.3,4.33-11.5,.29,.09,.58,.18,.87,.26-1.22,4.67-2.3,9.38-3.7,14-2.91,9.62-6.26,19.11-11.53,27.89-2.9,4.83-6.33,9.29-11.35,12.41-2.41,1.5-5.13,2.58-7.49,3.75,.16,0,.7,.04,1.22-.01,.6-.06,1.19-.18,1.78-.3,8.58-1.69,16.11-5.22,22.31-11.03,1.87-1.75,3.59-3.63,5.52-5.31,1.34-1.17,2.79-2.36,4.42-3.12,3.46-1.61,6.91-.29,7.8,3.17,.55,2.14,.76,4.66,.1,6.72-3.03,9.43,7.09,15.68,15.24,13.66,4.86-1.2,8.64-3.87,11.79-7.37,1.16-1.28,2.13-2.71,3.26-4.01,.86-1,1.73-2.03,2.8-2.83,3.1-2.32,6.67-1.51,8.35,1.83,.53,1.06,.91,2.18,1.41,3.26,2.78,5.95,9.61,7.96,15.63,4.61,.21-.12,.42-.23,.61-.37,2.75-2.02,5.62-1.98,8.59-.44,3.79,1.97,7.74,3.26,12.2,3.06,4.33-.2,8.19-1.26,11.17-4.53ZM127.92,30.98c-.97-1.95-2.11-4.03-4.8-4-2.72,.02-3.77,2.17-4.68,4.13-1.71,3.7-1.78,7.6-1.29,11.52,.41,3.31,1.37,6.46,3.68,9.12,2.08,2.4,4.39,2.35,6.38-.13,.57-.71,1.14-1.5,1.36-2.33,.71-2.63,1.25-5.29,1.86-7.94-.41-3.63-.89-7.11-2.5-10.36Zm-20.63,7.72c-.68-2.69-1.18-5.43-2.09-8.05-.65-1.88-1.97-3.7-4.39-3.71-2.33,0-3.52,1.79-4.41,3.53-2.3,4.45-2.98,9.21-2.3,14.03,.33,2.37,1.11,4.81,2.29,6.93,1.49,2.65,4.02,2.75,6.17,.54,.87-.89,1.57-1.98,2.11-3.08,1.57-3.19,2.19-6.59,2.18-10.08,.15-.03,.3-.07,.45-.1Zm95.22,221.67c6.14,.75,13.52,.17,14.52-1.01-.82-.07-1.73-.05-2.57-.25-4.79-1.12-9.62-2.11-14.32-3.5-8.54-2.51-16.11-6.58-21.87-13.08-2.49-2.82-4.7-5.85-6.93-8.65-.27,.39-.65,.96-1.01,1.51,5.51,14.04,15.76,22.98,32.19,24.98Z"/>
  </g>
</svg>