<?xml version="1.0" encoding="UTF-8"?>
<svg id="Layer_2" data-name="Layer 2" xmlns="http://www.w3.org/2000/svg" viewBox="0 0 285.98 228.68">
  <g id="Layer_1-2" data-name="Layer 1">
    <path d="M274.85,109.53c-.4-.21-.59-.93-.56-1.4,.13-2.51,.78-5.05,.47-7.52-1.05-8.28-9.74-13.88-20.1-10.55-1.76,.57-3.46,1.26-5.23,1.81-2.8,.87-5.59,1.78-8.47,2.46-2.15,.51-3.75-.67-3.28-2.46,.27-1.04,1.21-2.09,2.17-2.86,1.4-1.11,3.19-1.87,4.63-2.95,1.51-1.13,2.49-2.63,1.66-4.34-.82-1.68-2.65-2.41-4.77-2.71-3.29-.47-5.8,.87-8.23,2.38-2.55,1.58-3.54,1.34-4.7-1.14-1.41-3.04-4.58-3.54-7.31-1.13-1.15,1.02-2.15,2.17-3.35,3.16-.87,.71-1.89,1.32-2.95,1.83-1.44,.7-2.61,.51-3.06-1-1.47-5-3.19-9.96-4.34-15-1.56-6.86-2.35-13.84-4.06-20.66-3.5-13.93-11.39-25.9-24.76-35.15C165.6,3.31,150.7-1.29,133.55,.32c-18.1,1.7-31.29,9.55-39.81,22.7-4.55,7.02-5.89,14.71-6.35,22.56-.36,6.12-.62,12.26-1.47,18.33-1.39,9.96-5.41,19.32-10.73,28.3-5.8,9.78-12.79,18.87-22.82,26.14-5.31,3.85-11.22,6.85-18.29,7.99-2.89,.47-5.85,.82-8.6-.47-2.34-1.1-4.53-.86-6.58,.4-1.62,1-3.17,2.08-4.68,3.19-6.13,4.53-5.83,10.42,.79,14.49,2.09,1.28,4.37,2.35,6.58,3.49,5.18,2.65,8.7,6.22,9.79,11.3,.68,3.18,1.84,6.23,4.11,8.97,.64,.77,.89,2.05,.64,2.96-1.15,4.22-4.71,6.85-9.25,8.61-5.1,1.98-7.49,1.55-11.2-1.67,.61,3.51,3.48,5.66,7.6,5.8,4.12,.15,7.26-1.54,10.14-3.63,3.02-2.19,5.31-4.82,6.18-8.24,2.56,1.63,4.95,3.13,7.3,4.66,4.12,2.68,7.31,5.92,7.94,10.36,.31,2.2,.05,4.45,.05,6.68,.16,.02,.33,.03,.49,.05,.22-.42,.49-.82,.66-1.25,2.29-5.66,1.06-10.76-3.97-15.05-2.3-1.96-4.93-3.69-7.58-5.33-6.56-4.08-10.46-9.23-10.91-16.17-.36-5.62-4.09-9.49-10.47-11.56-1.76-.57-3.6-1-5.28-1.69-2.94-1.21-5.13-3-5.37-5.89-.23-2.87,1.76-4.68,4.46-6.18,.93-.52,1.73-1.25,2.44-1.98,1.07-1.11,1.96-2.37,4.05-2.63-2.13,2.16-2.4,3.85-1.06,6.04,1.3,2.14,4.17,3.85,6.36,3.79-4.96-3.88-6.33-6.56-4.59-8.86,1.55,.75,3.01,1.68,4.67,2.2,4.01,1.26,8.09,.97,12.09-.15,9.79-2.74,17.4-8.01,23.81-14.46,16.74-16.85,25.05-36.33,26.22-57.98,.4-7.4,.42-14.83,2.71-22.08C101.41,9.45,131.01-3.12,159.23,6.51c18.57,6.33,30.29,18.03,36.77,33.47,3.89,9.25,5.03,18.95,6.68,28.56,1.35,7.85,3.59,15.5,7.92,22.64,4.21,6.95,10.43,12.13,19.47,14.83,6.34,1.9,12.95,2.36,19.6,2.74,5.2,.3,10.45,.56,15.56,1.33,9.05,1.36,15.05,6.29,16.28,12.8,.89,4.71,.35,9.33-1.57,13.81-2.56,5.98-7.01,10.49-14.64,12.49-1.92,.5-3.77,1.2-5.62,1.88-4.16,1.53-7.95,3.46-10.84,6.46-5.48,5.67-7.39,15.66-1.34,22.77,2.82,3.31,2.6,3.81-1.43,5.97-3.09,1.66-4.42,4.08-4.97,6.98-.86,4.56-4.28,7.43-9.51,8.71-5.59,1.37-10.98,.8-15.92-1.92-8.76-4.83-17.92-5.07-27.05-1.03-4.97,2.2-9.6,4.97-14.2,7.7-6.41,3.79-12.46,8.01-19.03,11.61-6.35,3.48-13.58,4.62-21.19,3.38-4.01-.66-7.64-2.07-10.92-4.09,1.05,.12,2.03,.38,3,.65,10.31,2.91,19.74,1.46,27.74-4.5,4.81-3.59,8.87-7.86,13.26-11.83,.02-.02-.11-.14-.29-.37-2.69,2.23-5.25,4.53-8.03,6.62-2.68,2.02-5.58,3.83-8.4,5.74-2.05-1.88-2.2-2.13-2.86-4.66-.07-.26-.14-.52-.24-.78-1.71-4.52-5.22-7.63-10.63-9.26,3.62,1.67,6.27,4.09,8.19,7.1,1.58,2.47,1.59,4.97-.18,7.35-1.7,2.29-5.35,2.65-7.81,.86-.44-.32-.83-.69-1.2-1.06-2.89-2.91-6.6-4.22-11.18-4.06-6.12,.21-11.34,2.27-16.27,5.02-2.38,1.33-4.68,2.74-7.09,4.03-4.95,2.65-10.4,4-16.22,2.9-4.79-.91-9.49-2.28-14.07-3.76-5.81-1.88-11.67-3.08-17.95-2.36-2.26,.26-4.52,.61-6.79,.71-2.66,.12-4.2-1.05-4.36-3.24-.09-1.28,0-2.58,.24-3.85,1.06-5.7-1.42-9.32-7.82-11.24-.61-.18-1.24-.39-1.88-.43-4.87-.34-9.74-.66-14.62-.95-3.43-.21-6.72-.8-9.7-2.26-5.85-2.86-6.63-7.35-1.9-11.37,1.26-1.07,2.75-1.98,4.2-2.9,1.32-.84,2.73-1.6,4.1-2.39-5.35,1.29-10.29,3.11-13.24,7.29-2.06,2.92-1.65,6.21,.92,8.9,3.11,3.25,7.48,4.6,12.19,5.25,4.31,.59,8.72,.7,13,1.39,7.76,1.24,11.75,4.12,11.29,11.11-.02,.27-.04,.54-.02,.81,.12,2.82,1.58,5.1,3.84,6.38,.11,.04,.21,.09,.32,.14,1.18,.23,2.47,.2,3.65,.17,1.1-.03,2.22-.07,3.34-.08,3.31-.87,7.02-.51,10.45-.51,.24,0,.45,.02,.66,.07,.97,0,1.94,.02,2.9,.09,2,.14,4.46,.62,6.18,1.53,.31,.16,.57,.35,.81,.54,.04,.02,.08,.05,.12,.08,.06,.03,.12,.05,.17,.08,1.28,.33,2.49,.78,3.41,1.5,.43,.16,.86,.33,1.26,.51,.91,.29,1.83,.56,2.76,.81,13.35,3.5,27.1,5.11,41.07,5.3,15.95,.21,31.84-.9,47.72-2.06,14.4-1.05,28.69-2.65,42.43-6.57,4.99-1.43,9.9-3.06,14.73-4.81,1.13-.41,2.49-1.68,2.5-2.56,0-.86-1.51-1.79-2.49-2.57-.49-.39-1.25-.6-1.94-.74-6.12-1.29-12.24-2.62-18.39-3.8-2.43-.47-4.96-.6-7.8-.93,3.14-2.17,6.24-3.69,10.05-2.95,3.27,.64,6.48,1.59,9.61,2.61,5.08,1.65,10.22,2.56,15.67,1.61,7.01-1.23,12.4-5.97,13.7-12.29,.56-2.71,1.87-4.72,4.39-6.16,.48-.42,1.02-.72,1.72-1.02,.68-.29,1.8-.58,2.33-1.06,.36-.33,.59-.78,.75-1.27-.03-.12-.06-.23-.07-.3-.13-.64-.29-1.27-.47-1.9-.11-.15-.21-.31-.29-.47-2.74-3.33-4.85-6.43-4.12-10.47,0-.08,.03-.15,.04-.23-.07-.7,0-1.41,.22-2.06,.11-.33,.25-.69,.43-1.04,.15-1.58,.63-3.29,1.66-4.55,.42-.75,.99-1.45,1.7-2.02,1.34-1.08,3.09-1.87,4.97-2.49,1.51-.74,3.05-1.4,4.68-1.94,.41-.14,.82-.29,1.23-.44,1.93-1.45,3.95-2.83,6.01-4.17,8.34-5.41,13.49-12.39,15-21,1.54-8.78-1.15-16.32-10.73-21.46Zm-3.78-1.72c-4.77-1.78-9.49-2.1-14.24-2.39-6.94-.42-13.92-.63-20.67-2.26-10.04-2.42-16.91-7.74-21.2-15.67,3.71-1.35,5.98-3.74,7.83-6.53,1.22-1.83,3.06-1.79,3.98,.12,2.12,4.42,5.15,3.78,8.89,1.77,1.39-.75,3-1.31,4.6-1.65,1.38-.3,3.04,.09,3.38,1.29,.21,.76-.54,1.92-1.28,2.58-.9,.8-2.39,1.14-3.35,1.91-1.26,1.02-2.73,2.12-3.28,3.43-1.52,3.56,.48,5.96,5,6.56,3.25,.43,6.23-.17,8.98-1.57,1.61-.82,3.1-1.79,4.72-2.59,4.96-2.47,10.65-1.6,14.09,2.22,3.44,3.83,3.37,8.16,2.55,12.78ZM123.13,66.02c4.12,5.79,9.05,10.25,17.82,9.22,7.18-.84,13.33-6.15,14.96-12.66,.49,1.02,.91,1.7,1.15,2.43,3.2,9.55,2.06,18.6-4.69,26.97-.75,.93-1.75,1.75-2.77,2.49-4.45,3.25-9.61,3.5-14.54,.75-3.73-2.08-6.32-4.96-8.26-8.24-3.87-6.57-5.07-13.49-3.67-20.97Zm24.51-22.1c.94-2.42,1.51-5,2.89-7.24,2.92-4.74,9.16-5.7,14.14-2.32,4.13,2.8,6.02,6.55,6.12,10.89,.08,3.48-.66,6.84-3.02,9.84-3.33,4.22-8.58,4.76-13.1,1.35-3.89-2.93-6.47-7.85-6.49-12.38-.18-.05-.36-.09-.54-.14Zm2.81,.91c.02,1.91,1.52,3.23,3.67,3.25,2.16,.02,3.83-1.37,3.81-3.17-.02-1.78-1.91-3.32-4.01-3.27-2.16,.05-3.49,1.27-3.47,3.19Zm1.01-4.97c1.71-1.88,3.42-3.77,5.13-5.66-3.19,.26-6.48,3.91-5.13,5.66Zm-45.4,5.54c.06-2.16,.83-4.68,2.63-6.95,3.26-4.12,8.74-4.84,13.24-1.59,4.49,3.24,6.37,7.5,5.65,12.29-.4,2.65-1.36,5.4-2.9,7.75-3.06,4.67-8.24,5.11-12.88,1.47-3.58-2.82-6-8.04-5.74-12.96Zm2.1,1.79c0,1.8,1.64,3.12,3.85,3.11,2.04,0,3.61-1.38,3.6-3.14,0-1.76-1.59-3.1-3.65-3.1-2.27,0-3.8,1.26-3.8,3.13Zm5.72-10.61c-2.15,.46-5.13,3.02-5.35,4.72-.04,.3,.23,.63,.36,.95,.32-.1,.79-.13,.95-.33,1.38-1.76,2.71-3.56,4.05-5.34Zm79.59,32.65c-.56,4.03-1,8.06-1.7,12.07-1.78,10.22-4.21,20.33-8.58,30.05-11.34,25.25-29.34,46.55-55.55,62.89-15.23,9.49-32.29,15.69-51.18,18.36-1.53,.22-3.09,.3-4.66,.31,4.09-.8,8.23-1.48,12.27-2.43,19.86-4.69,36.98-13.36,52.16-24.71,18.69-13.97,33.01-30.56,43.05-49.62,5.71-10.85,9.31-22.22,11.58-33.88,.84-4.34,1.58-8.7,2.36-13.05,.08,0,.17,.01,.25,.02Zm-40.39,59.02c-1.89,3.57-3.61,7.21-5.7,10.7-7.04,11.75-15.62,22.61-27.54,31.48-13.57,10.11-29.12,16.95-47.27,19.55-1.35,.19-2.72,.28-4.08,.4-.37,.03-.76-.03-1.15-.12,13.23-1.77,25.36-5.81,36.62-11.7,14.92-7.79,26.57-18.22,35.62-30.58,4.47-6.11,8.25-12.56,12.34-18.86,.23-.35,.46-.7,.68-1.05l.46,.18Zm-96.36,42.27c8.51,9.1,8.16,17.76-1.3,23.9,.59-.97,.94-1.57,1.31-2.17,5.22-8.42,3.91-15.13-4.27-21.77-2.23-1.81-4.51-3.58-6.66-5.44-.82-.71-1.36-1.62-2.03-2.45,.17-.12,.33-.23,.5-.35,1.35,1.18,2.64,2.42,4.07,3.54,3.97,3.12,8.36,3.71,13.45,1.75,6.5-2.51,11.69-6.21,15.92-10.91,.38-.43,.76-.86,1.23-1.4-.75,5.01-13.55,13.78-22.21,15.29Zm205.82-45.3c.57,5.11-2.67,8.43-7.64,10.72-2.59,1.19-5.42,2.22-8.3,2.77-11.73,2.26-19.48,8.29-24.6,16.97-.31,.52-.64,1.04-1.25,1.48,.11-.37,.13-.77,.34-1.1,2.19-3.46,4.1-7.08,6.69-10.33,3.41-4.27,8.47-6.91,14.48-8.3,3.26-.76,6.54-1.5,9.73-2.44,5.65-1.65,9.75-4.53,10.54-9.77Zm-167.79-4.31c0-2.57,.02-5.15,0-7.72-.1-11.39-.3-22.79-.29-34.18,0-9.28,1.71-18.4,4.34-27.41,.12-.41,.31-.81,.63-1.62,.05,.67,.14,.93,.08,1.17-2.84,11.05-3.3,22.27-3.41,33.51-.09,8.87-.2,17.74-.43,26.6-.08,3.21-.55,6.42-.84,9.63-.02,0-.05,.02-.07,.03Zm104.31-59.88c-.1,24.29,5.71,47.62,16.67,70.1-13.62-22.05-18.42-45.53-16.67-70.1ZM44.01,208.92c.51-1.71,1.14-3.4,1.49-5.14,1.03-5.02-1.21-9.04-6.9-11.07-4.05-1.45-8.5-2.15-11.96-2.98,5.31-1.06,15.36,1.39,19.36,5.35,2.67,2.64,3.17,5.73,1.48,8.9-.94,1.76-2.16,3.41-3.26,5.1-.07-.05-.14-.11-.21-.16Zm25.44,.5c-.84,1.53,.21,2.44,1.58,2.82,2.64,.72,5.35,1.44,8.09,1.66,7.64,.59,11.72-.05,20.82-2.69,.06,.12,.12,.25,.18,.37-2.52,.82-4.97,1.81-7.56,2.44-7.32,1.77-14.68,1.69-22.01-.1-.81-.2-1.62-.44-2.37-.74-1.14-.46-2.35-1.02-1.95-2.28,.39-1.26,1.73-1.44,3.21-1.47ZM154.13,13.92c11.45,1.29,25,13.66,28.41,25.39-5.66-11.33-14.11-20.52-28.41-25.39Z"/>
  </g>
</svg>