<?xml version="1.0" encoding="UTF-8"?>
<svg id="Layer_2" data-name="Layer 2" xmlns="http://www.w3.org/2000/svg" viewBox="0 0 238.75 242.7">
  <g id="Layer_1-2" data-name="Layer 1">
    <path d="M167.54,231.6c-2.55,3.97-6.61,7.2-12.17,9.1-7.55,2.58-15.25,2.48-22.96,.72-4.05-.92-8.03-2.1-11.93-3.39-3.2-1.05-6.19-1.1-9.38,0-6.58,2.28-13.4,3.93-20.59,4.12-10.35,.27-18.94-2.5-24.5-10.1-.86-1.18-1.34-2.54-2.02-3.81-1.02-1.89-2.72-2.72-5.23-2.47-1.81,.18-3.61,.45-5.41,.72-4.11,.63-6.7-.73-8.05-4.03-.73-1.79-1.5-3.65-2.79-5.17-2.38-2.82-6.02-3.25-9.68-1.59-3,1.36-5.89,3.11-9.11,3.87-10.49,2.48-21.87-3.82-23.46-12.76-1.25-7.03,2.02-12.75,8.15-17.4,6.32-4.8,12.73-9.5,17.95-15.17,8.27-9,13.95-19.11,18.86-29.56,7.73-16.45,13.2-33.43,16.7-50.79,3.23-15.98,5.68-32.06,8.58-48.08,1.91-10.54,4.87-20.84,12.67-29.66C93.46,4.5,107.38-1.21,124.91,.21c14.15,1.15,24.77,7.36,32.39,17.11,5.86,7.5,8.76,15.87,10.36,24.57,2.91,15.85,5.26,31.77,8.59,47.56,3.97,18.85,10.19,37.21,20.14,54.62,6.99,12.23,16.6,22.73,30.11,30.56,8.66,5.03,11.55,12.24,12.17,20.41,.3,3.96-.14,7.87-1.94,11.61-3.66,7.58-13.5,12.51-23.3,11.4-3.58-.4-7.05-1.45-10.59-2.13-1.1-.21-2.26-.2-3.4-.29,.06,.83-.01,1.69,.2,2.49,1.11,4.18,.89,8.25-2.01,11.88-3.94,4.94-10.03,6.08-16.55,5.12-4.49-.66-8.78-2.26-13.54-3.55Zm-115.91-9.88c1.11-.2,2.06-.38,3.03-.53,7.63-1.22,12.65,.67,15.14,5.7,3.7,7.47,11.71,11.24,21.5,10.36,6.65-.6,12.92-2.21,19.11-4.17,3.72-1.18,7.42-1.16,11.12,.02,1.44,.46,2.87,.94,4.32,1.39,6.07,1.9,12.21,3.5,18.84,3.3,9.22-.28,15.89-4.19,19.14-11.28,.4-.86,.77-1.75,1.3-2.56,1.56-2.35,4.52-3.65,7.63-2.89,2.06,.51,4.05,1.55,5.72,2.7,1.82,1.25,3.13,2.98,4.83,4.35,3.57,2.87,8.02,2.09,10.06-1.66,1.34-2.47,1.16-4.96,.27-7.47-.89-2.51-.69-4.84,1.66-6.77,2.51-2.06,5.55-2,8.67-1.22,1.88,.47,3.7,1.12,5.59,1.55,10.95,2.53,20.21-1.44,22.55-9.83,.65-2.34,.72-4.84,.62-7.25-.31-7.22-3.17-13.28-10.77-17.73-13.36-7.82-23.06-18.25-30.18-30.35-8.35-14.19-13.87-29.17-18.18-44.48-5.46-19.38-8.11-39.13-11.43-58.79-1.53-9.08-4.56-17.75-10.86-25.49-8.51-10.47-23.45-15.76-38.28-13.35-13.55,2.2-22.85,8.96-29.05,18.86-4.67,7.46-6.59,15.57-8.03,23.78-2.52,14.37-4.85,28.77-7.62,43.12-3.65,18.88-9.45,37.31-17.66,55.23-8.17,17.83-19.31,33.96-37.66,46.14-3.85,2.55-6.39,5.89-7.05,9.98-.76,4.69,1.48,8.44,6.14,11.07,4.46,2.52,9.17,2.7,13.83,.18,1.29-.7,2.53-1.53,3.93-2.02,1.97-.7,4.05-1.51,6.14-1.63,6.71-.37,10.9,2.75,13.68,7.41,.8,1.34,1.29,2.79,1.98,4.32Zm118.25,4.45c2.24,1.03,4.13,1.91,6.56,3.02-2.74-3.01-4.23-3.73-6.56-3.02ZM113.11,90.34c4.45,4.81,11.08,4.89,15.69,.2,2.9-2.96,4.02-6.47,4.43-10.14,.6-5.38-.38-10.52-4.2-15.08-1.47-1.75-3.38-3.11-5.97-3.65-4.26-.9-8.53,1-11.15,4.99-2.3,3.5-3.16,7.28-3.11,11.22,.09,5.43,1.46,9.37,4.32,12.47Zm29.24-59.35c-3.7-4.06-9.02-3.74-11.73,.82-1.12,1.88-1.76,4.05-2.02,6.14-.57,4.7,.13,9.28,3.62,13.25,3.7,4.2,9.67,3.89,12.52-.75,1.23-2.01,1.67-4.36,2.11-5.58-.17-5.66-1.06-10.09-4.5-13.87Zm-45.02,18.87c1.03,2.2,2.86,4.01,6.09,4.24,3.39,.24,5.7-1.25,7.17-3.5,3.73-5.68,4.39-11.64,1.63-17.73-1.07-2.35-2.95-4.34-6.3-4.54-3.33-.2-5.24,1.69-6.73,3.8-2.42,3.43-3.26,7.22-3.77,11.22,.61,2.17,.94,4.44,1.91,6.5Zm56.05,70.69c-.81,17.79-.82,35.57,1.09,53.32,1.37,12.79,4.26,25.31,8.98,37.55,.92,2.37,1.99,4.71,3,7.06-6.4-32.71-10.3-65.58-12.98-98.61-.03,.23-.07,.46-.08,.69Zm-73.78,18.14c-1.94,26.95-5.94,53.65-13.7,79.93,15.05-25.44,16.72-52.42,13.7-79.93Z"/>
  </g>
</svg>