<?xml version="1.0" encoding="UTF-8"?>
<svg id="Layer_2" data-name="Layer 2" xmlns="http://www.w3.org/2000/svg" viewBox="0 0 270.47 287.21">
  <g id="Layer_1-2" data-name="Layer 1">
    <path d="M16.91,260.93c-1.19-.87-2.58-1.86-3.94-2.89-6.29-4.74-10.86-10.33-12.39-17.29-1.29-5.86-.74-11.44,4.89-15.98,.45-.36,.43-1.44,.15-2.03-2.05-4.23-3.15-8.53-1.95-13.08,.98-3.68,4.68-6.83,10.79-4.83,13.23,4.34,21.82-3.41,22.75-12.19,.87-8.22-1.55-15.71-7.34-22.48-.33-.38-.72-.72-1.06-1.1-.19-.22-.33-.47-.52-.74-5.9,4.55-12.62,4.51-19.58,3.26-2.91-.52-4.09-1.88-3.33-4.24,.76-2.35,1.8-4.71,3.26-6.82,1.52-2.21,1.88-4.14,.25-6.34-3.91-5.31-1.2-11.26,4.66-14.48,5.84-3.22,12.3-4.21,18.91-2.12,5.63,1.78,10.59,.84,15.45-1.39,9.09-4.16,15.31-10.55,20.17-17.86,8.23-12.38,10.97-25.71,9.57-39.61-.62-6.09-2.32-12.12-2.8-18.22-1.18-14.97,1.35-29.35,12.95-41.67C101.08,4.74,119.09-1.2,140.54,.2c26.34,1.71,42.95,17.7,49,35.41,2.75,8.05,2.94,16.3,3.51,24.55,.82,11.74,4.17,22.93,12.84,32.64,5.7,6.39,13.06,9.93,23.22,9.45,4.38-.21,9.06,.28,13.24,1.38,8.67,2.27,12.73,7.83,13.45,14.98,.27,2.68,1.27,4.62,4.05,6.19,7.03,3.97,6.62,11.48,.78,14.55-2.6,1.37-3,3.69-2.51,6.08,1.05,5.15,.52,5.75-5.97,5.04-3.05-.33-5.97-1.47-9.35-2.34-6.29,7.08-9.77,15.25-7.02,24.51,1.69,5.7,6.4,9.09,13.73,9.91,7.41,.83,12.83,4.61,13.96,9.68,.78,3.51-.86,6.54-3.17,9.38-.31,.38-.69,.73-1.08,1.13,2.48,3.48,2.63,7.25,2.4,11.08-.09,1.47-.19,2.93-.26,4.4-.1,2,.82,3.54,2.78,4.84,6.19,4.09,7.92,9.57,4.88,14.92-3.15,5.55-10.89,8.8-18.27,7.68-1.12-.17-2.22-.43-3.35-.61-2.93-.45-3.82,.4-2.98,2.72,.46,1.27,1.25,2.59,1.13,3.84-.22,2.32-1,4.61-1.62,7.2,.43,.12,1.59,.36,2.67,.74,4.18,1.47,8.55,2.69,12.44,4.58,3.84,1.86,4.63,4.63,2.36,6.66-1.7,1.52-3.84,2.88-6.1,3.81-8.29,3.45-17.28,5.2-26.34,6.66-16.05,2.6-32.26,4.27-48.6,4.81-17.82,.6-35.67,1.06-53.5,1.12-11.86,.04-23.74-.49-35.57-1.19-21.1-1.25-42.13-3-62.65-7.52-5.68-1.25-11.4-2.49-16.22-5.44-1.36-.83-2.6-1.83-3.76-2.85-1.46-1.3-1.24-3.57,.83-5.01,2.25-1.57,4.86-2.81,7.44-4.27ZM255.84,132.45c-1.18-2.02-2.62-2.88-5.17-2.73-5.54,.33-9.27-2.13-10.06-6.62-.37-2.1-.15-4.26-.34-6.38-.38-4.26-4.37-7.2-9.58-7.14-1.97,.02-3.93,.07-5.9,.04-8.29-.15-15.44-2.48-21.39-7.27-5.21-4.2-8.93-9.18-11.87-14.56-5.4-9.89-7.56-20.37-7.76-31.1-.13-7.11-.76-14.13-3.57-20.88-5.76-13.86-16.29-24.05-34.35-27.55-10.8-2.1-21.33-1.88-31.01,4.1-14.6,9.01-21.64,20.94-23.16,35.5-.87,8.28,1.34,16.33,2.16,24.48,1.25,12.38-.22,24.5-5.14,36.27-1.91,4.55-4.37,8.95-6.58,13.42-.23-.07-.47-.15-.7-.22,.9-2.18,1.82-4.35,2.69-6.53,5.8-14.66,7.8-29.61,5.27-44.93-1.23-7.45-2.65-14.89-2.13-22.48,.71-10.37,4.4-19.84,11.81-28.32,.38-.44,.71-.91,1.06-1.37l-.56-.31c-2.16,2.33-4.52,4.55-6.44,7-9.78,12.49-11.1,26.32-8.49,40.45,1.8,9.75,3.05,19.43,1.7,29.25-1.67,12.16-6.1,23.57-14.89,33.61-8.18,9.34-18.07,16.82-32.96,18.18,1.05,2.02,2.68,2.88,5.33,2.47,2.17-.34,4.27-.99,6.8-1.61-3.12,3.18-6.62,4.8-11.32,4.11-3.29-.48-5.01-2.5-6.72-4.6-3.37-4.17-12.14-4-15.27,.23,4.61-.32,7.07,.82,8.72,4.34,.69,1.47,1.11,3.08,1.28,4.65,.43,3.88,2.25,6.75,6.92,8.45,2.85,1.04,5.55,2.62,7.86,4.36,15.76,11.87,18.54,33.75,6.26,48.2-5.17,6.09-11.76,10.34-21.23,10.82-5.07,.26-9.1,2.82-10.6,6.79-3.17,8.39,2.13,18.52,12,22.81,4.76,2.07,9.88,3.4,15.27,3.22,5.78-.2,11.55-.81,17.29-1.42,8.38-.9,14.53,1.02,17.72,6.4,3.27,5.52,8.63,8.78,15.44,10.66,18.61,5.15,36.9,3.74,54.85-2.18,8.81-2.91,16.73-6.96,23.44-12.52,1.25-1.03,2.7-1.98,4.26-2.66,5.31-2.28,10.47-.27,11.84,4.51,1.34,4.66,4.79,6.9,10.2,5.93,3.93-.71,7.99-1.73,11.41-3.39,9.95-4.84,14.86-12.38,16.21-21.66,.89-6.16,8.01-10.3,15.43-8.98,2.99,.53,5.8,1.7,8.68,2.62,4.84,1.55,10.29-.36,11.33-3.98,.77-2.68-1.05-4.56-4.37-4.51-7.36,.1-14.14-3.49-16.23-9.04-.89-2.36-1.1-4.99-1-7.48,.21-5.57-2.24-9.75-8.14-12.74-6.47-3.27-10.89-8.05-13.52-13.83-4.56-10.06-3.74-20.15,.34-30.15,3.57-8.76,9.4-16.27,19.12-21.38,5.34-2.81,11.1-4.18,17.77-2.3ZM44.25,180.29c1.6,5.17,1.81,9.84,.91,14.58-1.62,8.54-9.33,15.76-18.95,17.53-4.41,.81-8.78,.52-13.04-.72-1.61-.47-2.82-.53-3.12,1.3-.49,3.01,.11,5.85,1.89,8.47,.31,.45,1.52,.69,2.31,.68,2.68-.03,5.39-.47,8.03-.27,8.89,.67,16.08-1.83,21.62-7.41,9.18-9.25,9.43-23.88,.35-34.15Zm187.23-29.95c-4.39,3.4-7.18,7.49-9.08,13.23-2.58,7.79-2.49,15.42,2.71,22.56,3.16,4.34,7.51,7.8,13.98,8.2,6,.37,11.64,1.16,16.31,4.49,3.1-3.62,1.45-9-4.63-9.42-1.7-.12-3.42-.26-5.09-.57-10.39-1.9-18.34-9.96-18.9-18.93-.43-6.85,1.12-13.34,4.71-19.56Zm9.81,50.84c2.91,3.93,3.84,6.46,3.89,10.48,.03,1.8-.01,3.6,.06,5.4,.16,3.89,3.52,7.65,7.9,8.82,.83,.22,1.76,.2,3.2,.35-2.87-3.15-3.13-6.29-2.94-9.54,.13-2.26,.21-4.54,.05-6.8-.36-4.97-6.5-9.39-12.17-8.71ZM11.58,167.19c2.05,0,3.2,.09,4.33-.02,3.31-.33,6.97-3.31,6.73-5.8-.26-2.7-.87-5.41-1.63-8.05-.41-1.42-1.59-2.5-4.19-1.54,3.33,5.97,.66,10.84-5.24,15.41Zm227.85,72.77c-4.31,.52-5.89,1.68-6.38,4.73-.63,3.9-1.08,7.83-1.59,11.66,4.94-.43,6.76-2.54,5.33-6.72-1.18-3.45-1.24-6.72,2.65-9.67Zm12.77-103.93c-2.28-.65-5-.13-7.54,1.01-.5,.23-.85,1.12-.78,1.67,.41,3.48,2.93,5.69,6.12,7.03,.72-3.2,1.44-6.37,2.19-9.71ZM14.19,229.15c-2.15-.03-3.41,.56-4.52,2.18-2.48,3.62-.92,11.67,2.57,14.45-.21-2.61-.86-5.48-.54-8.27,.33-2.84,1.62-5.6,2.49-8.36ZM249.47,126.38c-.64-2.69-1.36-5.25-1.84-7.83-.5-2.65-1.75-4.89-3.72-6.34,.45,2.34,.99,4.91,1.44,7.48,.18,1.05,.07,2.14,.3,3.18,.42,1.9,1.56,3.3,3.82,3.5Zm-66.49,136.36c-3-1.51-5.07,.71-8.71,5.38,2.59-.48,5.09-.95,7.61-1.42,.37-1.33,.74-2.66,1.1-3.95Zm-32.81-175.77c-1.25-2.47-3.05-4.91-5.25-6.87-3.34-2.97-7.94-2.72-11.1,.39-1.53,1.51-2.82,3.31-3.62,5.15-4,9.21-5.52,18.75-4.93,28.48,.24,3.89,1.56,7.58,4.72,10.72,5.59,5.55,15.83,5.53,21.34-.09,3.93-4.01,4.53-8.72,4.42-13.6-.23-8.31-1.66-16.47-5.57-24.19Zm-20.24-21.56c-.63,2.01-1.02,4.71-2.32,7.08-3.13,5.68-11.22,6.86-16.95,2.73-2.9-2.09-4.84-4.7-6.01-7.65-2.2-5.56-2.69-11.23-1.05-16.94,.42-1.46,1.17-2.93,2.15-4.21,3.3-4.34,9.24-5.14,14.1-1.91,5.16,3.43,7.26,8.27,8.66,13.33,.63,2.26,.88,4.59,1.43,7.57Zm-15.72-1.47c-.13,.05-.26,.11-.39,.16,.85,1.83,1.55,3.73,2.63,5.47,.37,.59,1.71,1.14,2.54,1.08,.64-.04,1.54-.99,1.72-1.64,.77-2.74-.05-5.3-2.04-7.54-1.18-1.33-3.33-1.01-4.05,.53-.28,.6-.29,1.29-.42,1.94Zm55.39-10.21c-.05,5.64-.95,10.48-4.58,14.69-5.34,6.19-14.26,5.68-18.45-1.06-.73-1.18-1.37-2.45-1.65-3.74-1.44-6.64-.75-13.16,2.52-19.37,1-1.9,2.68-3.69,4.54-5.12,3.87-2.98,9.07-2.54,12.54,.77,3.03,2.9,4.26,6.4,4.83,10.08,.23,1.45,.2,2.93,.25,3.75Zm-16.19,7.24c.11,1.2-.04,1.94,.29,2.5,.45,.77,1.12,1.73,1.98,1.99,.54,.17,1.88-.64,2.37-1.27,1.67-2.1,1.9-4.52,1.33-6.9-.16-.68-1.25-1.68-1.95-1.7-.88-.02-2.25,.64-2.62,1.3-.79,1.42-1.07,3.02-1.4,4.07Zm27.93,44.98c-.07,.17-.19,.34-.2,.52-.97,13.13-.95,26.26,1.04,39.33,1.73,11.34,3.97,22.63,5.89,33.95,1.5,8.86,2.13,17.75,.94,26.69-1.96,14.7-9.74,26.77-24.14,35.9-2.28,1.45-4.5,2.96-6.74,4.44,.63,.16,1.1,.11,1.52-.04,12.09-4.25,21.7-10.79,28.1-20.27,7.67-11.37,9.17-23.71,7.47-36.27-1.41-10.37-4.1-20.62-5.92-30.95-2.23-12.65-4.23-25.32-6.13-38-.76-5.07-1.02-10.19-1.51-15.29-.1,0-.2,0-.31,0Zm-76.71,151.72c.8-.31,1.61-.61,2.4-.95,28.51-12.07,45.87-31.23,54.04-56.27,3.4-10.41,4.94-21.05,5.8-31.76,.26-3.25,.04-6.53,.04-9.56-.8,3.7-1.61,7.68-2.53,11.64-2.8,12.09-6.11,24.06-11.28,35.67-8.22,18.44-21.55,33.86-40.4,46.09-2.68,1.74-5.56,3.27-8.35,4.89,.09,.08,.19,.16,.28,.24Zm-39.12-17.17c16.76-8.28,26.95-20.72,33.08-35.5,6.47-15.6,7.65-31.8,7.14-48.12-.11-3.37-.38-6.74-.58-10.11-.21,0-.41,0-.62,0-.52,5.41-1.05,10.81-1.55,16.22-.95,10.29-2.92,20.45-5.96,30.45-4.01,13.17-10.02,25.65-20.71,36.24-4.49,4.45-9.71,8.4-14.4,12.41,.96-.42,2.32-.96,3.6-1.59Zm136.82-82.54c-1.58,11.66,4.27,31.08,11.09,35.63-10.26-24.06-7.66-47.21,5.41-69.84-9.98,10.03-14.8,21.62-16.5,34.22Zm-128.44,23.83c.44,12.52-4.1,24-11.53,34.82-.4,.58-.79,1.17-1.19,1.76,4.83-3.68,8.6-7.93,11.54-12.64,7.25-11.61,8.58-23.62,3.26-35.97-2.07-4.81-5.47-8.88-11.07-11.55,6.78,6.93,8.69,15.09,8.99,23.59Z"/>
  </g>
</svg>