<?xml version="1.0" encoding="UTF-8"?>
<svg id="Layer_2" data-name="Layer 2" xmlns="http://www.w3.org/2000/svg" viewBox="0 0 250.61 231.52">
  <g id="Layer_1-2" data-name="Layer 1">
    <path d="M233.46,153.84c.09-.02,.2,0,.26-.05,6.6-5.08,8.49-2.05,11.59,2.53,12.99,19.15,.88,45.02-23.54,50.25-3.33,.71-6.82,.9-10.24,1.1-1.6,.1-2.48,.41-3.17,1.89-3.38,7.22-9.19,11.73-17.87,12.83-.75,.09-1.52,.24-2.19,.53-16.88,7.25-33.49,5.71-50-1.13-1.22-.5-2.71-.49-4.08-.64-7.4-.8-13.15,2.43-19.31,5.69-15.28,8.09-37.01,5.35-50.46-5.74-1.74-1.43-3.32-1.84-5.62-1.62-13.5,1.26-26.46-.62-38.27-6.9-13.75-7.31-24.37-18.69-19.23-38.35,1.38-5.27,2.3-5.7,8.08-4.52,5.85,1.2,11.81,2.31,17.77,2.57,6.77,.3,11.94-4.2,13.23-10.34,.75-3.57-.73-6.53-4.37-7.96-2.45-.96-5.07-1.56-7.65-2.2-11.19-2.75-18-9.61-19.48-19.76-.16-1.12-.22-2.29-.08-3.41,.48-3.9,3.07-5.13,6.83-3.32,1.02,.49,2.01,1.03,3.02,1.53,8.1,4.03,13.21,3.21,19.22-3.27,7.81-8.42,12.33-18.32,15.03-28.96,2.34-9.2,2.74-18.58,3.02-27.99,.27-8.85,.16-17.82,1.81-26.49C61.7,19.31,82.46,2.65,104.82,.34c29.36-3.03,53.84,14.34,60.3,40.49,1.51,6.12,1.66,12.53,2.42,18.8,1.13,9.35,2.77,18.59,6.84,27.33,6.74,14.46,18.99,22.32,35.61,24.72,5.28,.76,10.7,.65,16.03,1.2,1.62,.17,3.91,.85,4.49,1.93,.58,1.08-.06,3.44-1.09,4.39-3.29,3.02-6.98,5.68-10.58,8.41-1.1,.83-2.44,1.39-3.63,2.12-4.96,3.03-7.02,8.2-5.15,12.81,2.01,4.95,6.96,7.57,13.09,6.93,.19-.02,.38-.06,.57-.09,6.29-.77,6.84-.52,9.77,4.46ZM6.51,174.08c-3.53,10.53-2,19.88,6.7,27.79,6.42,5.83,14.08,9.58,22.77,11.72,6.71,1.66,13.49,1.82,20.59,1.37-5.77-5.96-12.95-9.09-20.87-11.3,1.67-.56,3.14-.67,4.59-.54,7.26,.66,13.24,3.78,18.67,8.06,4,3.15,7.83,6.56,12.23,9.17,14.52,8.6,29.53,8.9,44.53,1.01,3.77-1.98,7.05-4.78,12.49-4.8-13.67-10.6-21.73-23.5-26.06-38.45,1.08,.56,1.71,1.38,2.21,2.26,2.14,3.73,4.05,7.58,6.4,11.19,7.84,12.02,17.89,21.92,32.35,27.43,12.05,4.59,24.36,5.2,37.64,2.16-15.24-5.74-24.39-16.16-30.81-28.86-6.16-12.18-9.07-35.48-4.75-40.04,0,1.56-.04,2.66,0,3.77,.61,16.61,5.19,32.09,16,45.66,5.38,6.76,11.87,12.47,20.87,15.1,9.94,2.91,19.03-1.1,21.69-9.43-2.65-.73-5.35-1.32-7.93-2.21-6.02-2.06-5.99-2.12-6.35-3.97,1.19,.17,2.31,.27,3.4,.49,8.1,1.67,16.25,2.47,24.54,1.3,17.01-2.4,29.11-15.54,28.45-31.12-.25-5.95-2.57-11.22-6.65-15.61-4.96,2.76-9.52,5.71-14.45,7.97-11.35,5.2-22.79,5.94-33.85-.79-8.53-5.19-14.62-12.31-18.92-20.77-.26-.52-.26-1.15-.38-1.73,1.33,.56,2.09,1.32,2.7,2.17,4.04,5.64,8.96,10.52,14.87,14.55,12.65,8.63,25.98,7.24,38.09,.22,.77-.45,1.45-1.79,1.33-2.61-.22-1.47-1.33-1.8-3.17-1.57-2.8,.35-5.79,.36-8.55-.16-6.37-1.2-10.16-5.23-11.69-10.78-1.64-5.94,.29-11.16,5.35-15.2,2.16-1.72,4.69-3.04,7-4.6,2.38-1.6,4.69-3.28,7.42-5.2-5.28-.47-9.78-.75-14.24-1.29-20.25-2.41-34.18-12.33-41.63-29.75-4.38-10.24-5.9-21.02-6.67-31.89-.51-7.31-1.69-14.45-4.7-21.28-7.68-17.43-25.23-28.68-45.3-29-20.44-.32-38.73,10.42-47.07,27.53-3.52,7.22-4.52,14.78-4.51,22.6,.01,12.65-.13,25.3-2.73,37.8-2.59,12.44-7.55,23.9-16.34,33.81-4.46,5.03-9.85,8.63-17.29,7.5-3.75-.57-7.29-2.25-10.96-3.44,0-.02-.03,.31,0,.63,.99,8.56,6.69,14.17,16.69,16.59,2.85,.69,5.71,1.5,8.4,2.59,3.55,1.43,5.6,4.1,6.44,7.6,1.95,8.12-5.41,17.39-14.92,18.88-8.12,1.28-15.78-.71-23.64-2.5Zm121.85-98.38c-.03-.34-.17-.68-.32-1-.88-1.84-2.26-2.05-3.67-.51-.8,.87-1.45,1.86-2.24,2.74-4.87,5.43-12.72,5.78-18.14,.8-.94-.87-1.63-1.97-2.62-2.78-.85-.69-1.96-1.11-2.95-1.65-.57,.94-1.57,1.85-1.65,2.83-.54,6.21,.78,12.09,4.64,17.28,5.65,7.59,16.83,7.49,22.43-.14,3.13-4.26,4.52-9.05,4.75-14.71-.04-.58-.11-1.72-.22-2.85Zm17.35-22.27c-.03-3.83-.77-7.52-3.26-10.69-3.12-3.98-7.88-3.84-10.83,.22-3.9,5.36-3.9,15.18,0,20.54,3.05,4.19,8.15,4.44,10.91,.1,1.9-2.99,2.68-6.58,3.96-9.9-.26-.09-.52-.18-.78-.26Zm-52.3-9.25c-2.92-4.79-8.61-4.7-11.28,.17-3.67,6.67-3.7,13.59,.56,20.13,2.77,4.25,8.3,4.28,10.89-.08,1.78-2.99,2.51-6.5,3.78-10-1.33-3.56-2.1-7.16-3.95-10.21Z"/>
  </g>
</svg>