<?xml version="1.0" encoding="UTF-8"?>
<svg id="Layer_2" data-name="Layer 2" xmlns="http://www.w3.org/2000/svg" viewBox="0 0 366.34 286.15">
  <g id="Layer_1-2" data-name="Layer 1">
    <path d="M324.51,275.12c7.21,.83,14.27,1.65,21.33,2.47-.02,.25-.04,.49-.06,.74-6.48,0-12.96-.08-19.44,.03-3.19,.05-6.39,.38-9.55,.73-3.58,.39-6.99,.84-10.41-.63-2.09-.9-4.39-.38-6.53,.65,5.47,.64,10.7,1.26,15.94,1.88-.03,.14-.05,.28-.08,.42-2.04,0-4.08,.03-6.11,0-5.92-.09-11.85-.28-17.77-.28-6.93,0-13.74-.33-20.63-1.06-6.56-.7-13.39-.38-20.1-.37-13.95,.03-27.89,.16-41.83,.21-1.49,0-3.05-.1-4.47-.38-8.28-1.63-15.83,.42-23.7,1.62-21.55,3.28-43.41,5.23-65.61,5-11.19-.12-22.16-1.38-32.97-3.17-9.61-1.6-19.38-2.03-29.25-1.93-1.37,.01-2.74,0-4.13-.19,7.8-2.65,16.34-1.37,25.23-1.93-19.92-1.7-39.22-1.18-58.59-1.05,3.95-.26,7.9-.59,11.86-.77,4.11-.19,8.23-.28,12.34-.33,4.06-.05,8.12-.01,12.18-.01,0-.25,0-.5,0-.75-7-.2-14.01-.4-21.35-.61,3.08-.25,5.84-.47,8.61-.69-13.05-1.58-26.24-.95-39.4-1.09,14.16-1.76,28.56-1.73,43.25-2.27-4.13-4.25-5.25-8.61-3.36-13.25,.31-.75,.72-1.49,1.2-2.2,3.88-5.67,10.54-7.25,19.12-4.52,1.62,.52,3.21,1.08,4.74,1.7,2.6,1.07,4.88,.78,7.15-.44,10.11-5.43,16.48-12.33,19.3-20.61,1.31-3.85-1.03-7.04-6.7-8.33-8.77-2-16.1-5.14-22.08-9.76-1.97-1.52-4.86-2.53-7.04-3.96-3.57-2.35-6.92-4.85-10.31-7.32-1.73-1.26-3.31-2.6-5.01-3.88-.72-.54-1.58-1-2.32-1.53-5.37-3.82-5.36-7.44,0-11.12-.44-.79-.99-1.55-1.3-2.36-1.22-3.15,1.64-5.16,6.54-4.6,2.47,.28,4.94,.92,7.37,.84,3.64-.11,7.42-.4,10.81-1.19,4.31-1.01,7.19-3.31,7.44-6.33,.26-3.14,.05-6.33-.62-9.44-.53-2.47-3.07-4.21-6.7-5.39-8.91-2.9-10.09-9.81-2.48-14.02,1.5-.83,3.27-1.61,5.12-1.99,11.54-2.4,21.11-6.86,30.1-11.93,5.38-3.03,10.62-6.17,15.92-9.26,11.7-6.84,19.21-15.24,23.96-25,6.52-13.39,9.89-27.03,10.68-41,.52-9.18,1.64-18.3,6.6-27.04,4.46-7.85,11.08-14.72,21.29-19.97,20.34-10.46,47.66-9.81,67.62,1.59,13.64,7.78,21.52,17.82,25.49,29.04,2.75,7.76,4.5,15.74,5.46,23.68,2.94,24.27,19.12,44,47.34,59.76,3.17,1.77,6.83,3.2,10.42,4.62,4.09,1.62,8.51,2.03,13.31,1.36,8.24-1.15,13.78,1.05,15.86,6.31,2.11,5.36,2.02,10.82,1.29,16.3-.67,5.11-3.32,9.75-7.67,13.99-3.17,3.1-7.37,5.37-13.09,6.1-8.06,1.03-11.16,8.32-7.67,12.17,2.64,2.91,7.46,4.4,12.52,3.6,1.74-.28,3.46-.69,5.09-1.18,4.95-1.49,9.58-1.33,13.68,1.11,4.18,2.49,4.82,5.69,3.15,8.98-3.19,6.27-10.84,9.61-19.79,11.93-1.85,.48-3.8,.85-5.76,1.1-11.4,1.48-17.1,6.48-18.95,13.43-.84,3.14-.8,6.52,0,9.67,1.37,5.33-2.1,8.8-8.26,11.83-3.55,1.75-6.59,3.94-9.76,6-.74,.48-1.08,1.23-1.56,1.87-.85,1.13-.41,1.85,1.62,2.07,1.18,.13,2.33,.38,3.5,.54,11.02,1.52,16.31,5.36,17.29,12.73,.39,2.97,.46,5.95,.69,9.09Zm-116.6-20.79c.11,.57,.23,1.13,.34,1.7,1.5,7.14,5.63,13.46,14.41,18.09,5.14,2.72,11.31,3.63,17.86,2.66,5.39-.8,6.71-3.51,3.19-6.17-.85-.64-1.75-1.26-2.6-1.9-4.17-3.13-6.28-6.82-6.33-10.91-.01-1.3,1.12-2.6,1.72-3.9,1.54,.82,3.52,1.45,4.53,2.49,4.06,4.14,9.34,7.42,16.33,9.21,11.83,3.04,23.87,5.74,34.51,10.42,1.57,.69,3.07,.57,4.75-.08,3.39-1.3,6.95-1.83,10.92-.9,4.65,1.1,9.06-.31,10.17-3.48,.69-1.96,.55-4.14,.11-6.16-1.16-5.32-4.5-7.45-12.58-8.52-1.77-.23-3.53-.48-5.28-.77-6.21-1.02-10.14-3.47-10.53-7.72-.77-8.35-4.6-16.17-9.03-23.94-3.85-6.76-4.97-13.78-2.96-20.93,.87-3.11,2.25-6.07,5.58-8.65,0,3.07,.11,5.92-.02,8.75-.28,5.84,1.82,11.15,7.12,16,2.93,2.69,5.33,5.67,7.44,8.67,2.46,3.49,3.67,7.24,3.78,11.15-2.34-4.58-4.7-9.1-13.67-9.87,2.02,5.46,3.93,10.62,5.86,15.84,2.3-3.54,.64-7.27,1.15-10.91,3.43,3.65,2.82,7.72,3.15,11.94,4.74-2.69,9.2-5.28,13.75-7.79,3.37-1.86,4.7-4.12,3.78-6.95-1.75-5.42-1.21-10.71,2.18-15.87,2.05-3.13,1.94-6.34-.01-9.51-.97-1.57-1.81-3.18-3.01-4.67-15.99-19.9-27.25-40.87-33.63-62.91-1.75-6.05-2.58-12.22-3.64-18.35-.26-1.53,.23-3.12,.37-4.68,.41-.08,.82-.15,1.22-.23,1.23,.95,2.82,1.8,3.61,2.88,3.1,4.29,5.97,8.64,8.89,12.99,3.84,5.71,7.05,11.65,11.61,17.11,6.07,7.26,15.32,12.13,28.69,12.83,11.64,.61,17.73-2.03,21.2-9.2,2.82-5.84,2.27-11.7-.09-17.51-1.32-3.25-3.95-4.32-8.93-3.62-7.22,1.01-13.97,.19-19.8-2.52-7.31-3.4-14.16-7.23-21.19-10.88-.91-.47-1.71-1.03-2.55-1.54,2.28,7.38,7.44,13.62,15.99,18.6,8.8,5.12,19.46,6.36,30.89,5.98-5.91,1.35-11.91,1.5-17.86,.8-10.43-1.23-17.85-5.37-23.59-10.91-10.69-10.31-18.3-21.64-25.89-32.98-7.85-11.74-12.94-23.84-14.05-36.69-.73-8.49-2.81-16.93-7.04-25.06-4.99-9.6-12.34-18.19-24.87-24.61-17.86-9.14-40.29-9.2-57.9,0-9.24,4.83-15.14,11.17-19.05,18.39-4.6,8.48-5.13,17.33-5.95,26.15-1.35,14.51-4.26,28.86-10.42,42.88-3.65,8.32-7.14,16.76-14.46,24.06-10.28,10.27-23.67,18.67-39.69,25.24-.51,.21-1.02,.42-1.56,.59-.49,.15-1.02,.26-1.53,.38,14.49-6.72,25.9-14.93,31.94-25.61-7.11,3.93-14.47,8.05-21.91,12.1-7.12,3.88-14.97,6.97-23.79,8.98-2.06,.47-4.07,1.11-5.89,1.89-2.56,1.09-4.22,2.66-3.76,4.77,.44,2.01,2.56,3.45,5.37,3.82,3.95,.52,8.07,.6,12.13,.66,5.11,.08,10.23-.11,15.34-.05,1.7,.02,3.38,.46,5.62,.79-1.48,1.62-2.48,2.97-3.83,4.15-6.96,6.05-14.11,12.01-20.99,18.1-3.85,3.41-8.54,6.14-14.59,7.58-5.22,1.24-10.73,2.03-16.17,2.82-3.49,.51-4.52,1.22-2.85,3.29,1.16,1.44,2.94,2.86,5,3.75,9.06,3.92,19.06,5.7,29.99,4.77,3.24-.28,6.44-.76,9.65-1.14-2.35,1-4.84,1.77-7.46,2.24-2.59,.47-5.3,.75-7.98,.9-2.66,.15-5.36,.03-8.68,.03,6.12,1.49,15.5,1.94,21.73,1.19,13.86-1.68,25.64-6.01,35.63-12.29,5.57-3.5,10.42-7.48,15.51-11.19-.24-.23-.12-.16-.14-.13-.23,.36-.45,.72-.73,1.06-6.68,8.01-15.82,14.6-27.71,19.43-12.29,5-25.55,7.53-40.16,5.31-3.85-.59-7.58-1.51-11.36-2.28,.44,.74,1.27,1.2,2.11,1.65,3.68,2.01,7.76,3.79,10.97,6.09,6.15,4.41,13.37,7.57,21.98,9.57,4.44,1.03,7.45,3.24,7.95,6.34,.42,2.66,.09,5.36,.09,7.54,2.03-2.09,3.07-6.38,1.79-10.01-2.5-7.09-9.46-11.69-19.75-14.37,11.01,.27,23.16,7.16,24.06,17.34,.08-.03,.2-.04,.24-.08,2.04-2.61,4.14-5.2,6.09-7.83,3.19-4.3,1.72-6.89-5-8.72-6.31-1.72-12.97-2.13-19.78-1.97,1.82-.33,3.66-.74,5.5-.74,8.89,0,18.19-.92,25.25,4.46,4.06-3.95,8.55-7.66,11.96-11.75,9.18-11.01,15.09-22.82,17.95-35.17,3.12-13.48,5.99-27.01,8.02-40.58,2.03-13.53,3.03-27.13,4.2-40.71,.68-7.86,.8-15.74,1.15-23.29,.08,.28,.33,.91,.42,1.54,.15,1.04,.22,2.08,.29,3.12,1.19,18.17,.49,36.32-1.7,54.45-1.94,16.03-4.7,31.98-9.18,47.8-3.63,12.81-10.11,24.98-19.75,36.44-7,8.33-14.12,16.63-20.39,25.19-7.23,9.87-18.64,17.32-30.98,24.36-1.04,.59-2.32,1.03-3.54,1.46-3.89,1.39-7.74,1.66-11.59-.12-1.05-.48-2.3-.79-3.5-1.11-6.04-1.62-10.77-.05-12.33,4.06-1.11,2.93,.15,5.42,4.3,7.07,2.68,1.06,5.75,1.99,8.82,2.33,10.49,1.17,19.61,4,27.6,8.53,4.01,2.27,8.74,3.48,14.04,4.14,4.4,.54,7.25-.53,10.21-2.52-7.13-1.43-14.12-2.71-19.33-6.5,3.01,.97,5.68,2,8.52,2.72,7.75,1.97,15.9,2.01,24.06,1.75,11.03-.36,21.28-2.45,29.68-7.11,5.98-3.31,11.15-7.27,16.45-11.07,2.19-1.57,3.77-3.49,5.63-5.25-2.02,3.08-4.4,6.01-7.26,8.73-8.79,8.35-20.36,14.21-35.74,16.79-4.23,.71-8.12,2.24-12.17,3.4l.27,.66c8.03-.6,16.09-1.06,24.07-1.85,12.51-1.24,23.21-4.73,31.66-11.02,7.38-5.5,13.3-11.57,18.07-18.14,.5-.69,1.06-1.35,1.6-2.02l1.13,.36c-3.62,4.97-6.68,10.16-11.03,14.85-4.38,4.72-10.04,8.94-15.17,13.4,8.56-.53,16.76-2.23,24.79-4.74-2.59-4.73-2.87-9.52-1.31-14.16,3.01-8.94,5.92-17.95,10.32-26.62,12.43-24.49,17.19-49.51,14.85-75.19-.38-4.16-.05-8.35-.05-11.01,1.84,8.86,3.15,19.28,3.14,29.77-.02,15.37-2.84,30.5-9.3,45.32-4.3,9.88-8.77,19.74-12.81,29.66-2.36,5.8-3.92,11.72-2.24,17.76,.73,2.6,1.84,5.08,5.79,6.51,4.82,1.75,9.83,1.22,15.46,.75-8.99-6.31-13.21-13.43-11.85-21.72Zm117.17-45.71c4.19-2.72,9.68-3.53,15.17-4.38,1.55-.24,3.11-.55,4.57-.98,6.28-1.81,11.72-4.31,14.99-8.37,1.82-2.26,1.28-4.94-1.03-6.36-2.77-1.7-5.76-1.44-8.9-.44-7.6,2.41-15.24,2.02-22.66-.25-15.3-4.68-24.09-13.02-29.97-22.91-.54-.91-.97-1.85-1.38-2.79-.37-.85-.62-1.73-.93-2.59,4.54,7.28,10.05,14.02,19.41,19.3,1.11-1.04,2-1.87,2.79-2.62-3.23-1.94-6.26-3.76-9.28-5.57,4.14,1.04,7.78,2.51,11.66,3.63,4.86,1.41,6.02,.91,7.46-2.77-8.66-.49-15.01-3.94-21.66-7.17,12.29,3.12,24.35,3.43,36.66-.59-4.4,0-8.39,.26-12.28-.05-13.52-1.08-23.17-6.09-29.54-13.56-4.59-5.38-7.98-11.2-11.96-16.8-1.22-1.71-2.62-3.37-3.95-5.06l-.87,.21c.47,2.24,.92,4.48,1.41,6.72,3.36,15.38,9.52,30.21,20.29,44.18,4.76,6.18,9.41,12.38,16.25,17.74,3.59,2.81,7.99,4.76,13.86,4.82,1.7,.02,3.41-.15,5.11-.23-3.18,1.41-6.67,1.53-10.14,1.1-8.2-1-12.15-5.31-16.58-9.21,3.77,4.91,7.54,9.81,11.5,14.98Zm-86.37,50.53c-.08,.18-.25,.35-.22,.51,.06,.45,.17,.9,.3,1.34,.94,3.27,4.14,5.55,7.87,7.61,3.29,1.82,5.85,3.84,2.92,7.37,11.21-1.85,21.32,.26,31.59,1.25,1.37,.13,2.8,.02,4.82,.02-4.73-3.3-10.25-4.66-15.87-5.85-11.74-2.48-23.11-5.32-30.79-12.12-.09-.08-.34-.08-.6-.13Zm-189.04,9.83c2.32,2.75,6.02,4.33,10.57,4.92,5.17,.67,10.42,1.07,16.29,1.65-8.13-4.35-18.24-4.16-26.87-6.57Zm22.52-110.09c1.12,2.83,2.19,5.54,3.21,8.11,2.8-2.81,5.71-5.73,8.64-8.68-3.7,.18-7.76,.37-11.85,.56Zm-30.83,23.56c.37,2.13,2.01,3.59,4.37,3.3,3.65-.45,7.18-1.34,10.76-2.04-.11-.11-.22-.21-.33-.32-4.85-.31-9.7-.61-14.8-.94Zm239.9,75.03c-3.33-2.52-7.02-4.88-9.91-7.6-6.2-5.85-8.8-12.68-10.8-19.49-2.93-9.94-4.95-19.99-7.59-29.97-.27-1.02-2.09-1.87-4.05-2.8-1.26,4.5-3.23,8.98-3.66,13.51-1.85,19.82,7.93,36.75,31.39,49.89,7.61,4.26,16.56,6.87,26.94,6.66,2.56-.05,5.1-.47,7.95-.74-4.45,2.12-9.34,2.53-14.43,2.23-10.4-.62-18.73-4.08-26.14-8.5-17.38-10.38-26.16-23.57-29.17-38.55-2.01-9.98,.82-19.57,5.88-28.92,4.65-8.58,5.9-17.41,4.57-26.35-1.53-10.35-4.22-20.65-5.42-31.01-1.42-12.32-2.33-24.7-2.44-37.05-.08-9.21,1.29-18.44,2.36-27.65,.35-2.97,1.83-5.88,3.03-8.77-3.84,18.59-1.98,37.19-.46,55.75,.96,11.69,3.42,23.32,4.75,34.99,1.06,9.34,1.64,18.71,2.04,28.07,.78,18.05,2.78,35.99,9.25,53.62,2.98,8.12,7.26,15.85,16.51,22,.09,.06,.04,.21,.06,.31-.23,.13-.46,.26-.68,.38Zm-28.65-61.11c-.23-1.34-.42-2.47-.64-3.78-.91,1.39-2.24,2.61,.64,3.78Zm-48.83-119.49c-.84-2.83-2.23-5.69-4.2-8.26-2.68-3.51-6.86-3.41-9.83,.03-1.16,1.35-2.06,2.83-2.7,4.32-3.6,8.33-4.19,16.83-2.2,25.33,.67,2.86,2.59,5.73,4.8,8.29,2.16,2.5,6.14,2.48,8.95,.22,1.47-1.19,2.62-2.63,3.43-4.07,2.76-4.9,3.2-10.03,3.56-15.21-.56-3.55-.76-7.15-1.8-10.64Zm3.65-18.96c1.57,1.49,3.43,2.91,6.49,2.65,3.14-.27,4.58-1.91,5.6-3.68,.21-.36,.43-.74,.52-1.12,1.61-6.81-.69-13.05-6.93-18.59-3.12-2.77-7.01-2.35-8.55,.95-1.15,2.46-1.46,5.08-2.15,7.62,.4,4.91,2.1,9.4,5.01,12.16Zm-23.78-19.08c-.48-1.51-1.24-3.47-4.05-3.39-1.91,.05-3.83,1.3-5.57,2.16-.82,.41-1.31,1.14-1.83,1.77-3.74,4.52-5.48,9.35-5.01,14.46,.13,1.45,.8,2.96,1.76,4.29,2.11,2.9,6.11,3.32,9.38,.95,1.63-1.18,3.16-2.62,3.82-4.12,1.4-3.15,2.2-6.42,3.01-8.92-.61-2.95-.88-5.1-1.53-7.19Zm-18.29,112.16c-1.86,12.23-6.04,24.17-13.21,35.51-7.56,11.95-16.22,23.61-24.41,35.39-.99,1.42-2.04,2.83-3.06,4.24,23.4-23.01,38.54-47.91,40.91-75.67-.08,.18-.21,.36-.24,.54Z"/>
  </g>
</svg>