<?xml version="1.0" encoding="UTF-8"?>
<svg id="Layer_2" data-name="Layer 2" xmlns="http://www.w3.org/2000/svg" viewBox="0 0 216.57 241.04">
  <g id="Layer_1-2" data-name="Layer 1">
    <path d="M5.59,198.01c-2.57-4.15-3.62-8.58-4.08-13.23-1.04-10.49,1.22-20.38,4.6-30.08,2.16-6.2,4.67-12.35,5.06-19.02,.23-3.92,.07-8.03-.78-11.83-1.47-6.51-4.78-8.05-10.38-5.63,.57-15.58,9.17-27.71,20.78-30.29,3.45-.77,6.82-.53,10.21,.36,.7,.18,1.62,.26,2.21-.08,7.08-4.02,14.53-4.45,22.2-2.82,3.3,.7,6.55,1.65,9.84,2.4,6.29,1.42,11.59-.7,16.16-5.37,4.82-4.93,7.98-11.03,10.22-17.62,2.5-7.34,4.51-14.88,6.84-22.29,4.15-13.2,10.7-24.64,21.42-32.87,20.56-15.8,48.32-11.72,63.23,9.27,7.64,10.76,10.5,23.11,9.65,36.4-.44,6.87-1.96,13.65-2.65,20.51-1.15,11.31-1.36,22.64,.92,33.86,1.41,6.95,5.09,11.75,11.37,14.19,1.86,.72,3.69,1.58,5.44,2.56,8.95,5.03,11.37,15.7,5.61,24.67-3.72,5.8-8.95,9.22-15.26,10.67-2.3,.53-4.78,.19-7.07,.75-6.35,1.56-10.89,6.09-13.86,11.95-3.88,7.67-7.13,15.71-10.42,23.71-3.69,8.97-7.82,17.61-14.02,24.93-8.19,9.66-18.45,15.16-30.32,17.07-24.57,3.95-44.75-5.46-61.77-24.11-2.64-2.9-5.13-5.99-7.96-8.66-4.16-3.93-9.15-5.87-14.69-6.15-.63-.03-1.47-.35-1.82-.85-7.29-10.74-20.16-11.7-29.73-3.13-.25,.23-.53,.42-.96,.75Zm80.24-58.57c-2.24-.42-4.33-.76-6.4-1.21-13.14-2.89-24.16-9.53-32.02-21.49-2.86-4.36-5.4-8.96-8.07-13.46-2.53-4.25-5.66-7.71-10.31-9.18-6.6-2.09-12.23,.43-17.44,4.47-2.23,1.73-4.18,3.88-6.48,6.06,4-.83,7.45-1.94,10.96-2.2,7.94-.6,14.15,3.33,18.72,10.01,3.4,4.98,6.33,10.35,9.23,15.7,4.74,8.73,10.03,16.96,17.17,23.66,17.68,16.58,41.57,20.53,62.44,7.68,.41-.25,.87-.41,1.31-.61-7.64,8.68-16.7,14.86-27.08,18.86-12.39,4.76-24.21,3.43-35.41-3.86-4.69-3.05-9.06-6.68-13.72-9.79-5.27-3.51-10.46-7.32-16.11-9.94-8.97-4.17-16.33-.96-21.11,8.21-2.78,5.34-4.64,11.07-5.48,17.09-.57,4.07-.53,8.23-.77,12.36,.23,.03,.45,.06,.68,.09,.18-.36,.36-.71,.52-1.07,2.31-5.23,5.55-9.72,9.57-13.52,5.36-5.07,11.41-8.27,18.8-7.34,5,.62,9.32,3.08,12.76,6.8,4.23,4.58,8.14,9.55,11.87,14.61,3.67,4.97,7.04,10.18,11.67,14.23,11.87,10.38,25.59,12.67,40.22,10.49,15.78-2.36,29.4-9.88,41.48-20.88,8.71-7.94,15.18-17.83,21.24-28.09,4.3-7.28,8.67-14.53,14.6-20.47,2.83-2.84,5.89-5.32,9.69-6.48,2.55-.78,5.18-1.16,7.28,1.1,2.15,2.32,1.54,5.16,.65,7.83-.65,1.96-1.6,3.8-2.65,6.25,3.09-3.11,5.43-6.03,6.65-9.84,2.02-6.31,.18-11.09-5.4-13.94-1.37-.7-2.79-1.3-4.21-1.87-8.29-3.35-13.44-9.66-15.17-19.01-2.5-13.51-2.49-27.09-.13-40.61,1.55-8.87,2.61-17.69,1.41-26.75-3.4-25.63-25.93-42.17-49.16-35.8-15.01,4.12-24.99,14.7-31.08,29.62-2.62,6.42-4.39,13.26-6.44,19.94-2.98,9.72-6.25,19.27-12.63,27.12-6.62,8.16-14.7,11.81-24.82,9.19-5.25-1.36-10.52-2.86-15.86-3.6-3.56-.49-7.27,.24-10.91,.42l-.09,.75c5.34,3.61,8.32,9.27,11.35,14.89,.8,1.48,1.66,2.92,2.43,4.42,5.1,9.93,12.55,17.24,21.88,22.29,4.63,2.51,9.47,4.57,14.38,6.91Zm-23.03-27.77c.41,.75,.84,1.25,1.34,1.67,5.58,4.84,11.52,9.03,17.97,12.43,10.06,5.29,20.12,5.74,30.33,.51,6.94-3.56,12.85-8.52,18.05-14.71-22.55,14.14-45.08,14.42-67.69,.1Zm74.14,68.37c8.28-6.95,15.26-15.14,20.56-24.96,5.35-9.92,8.55-20.66,10.47-31.86,1.07-6.23,1.76-12.54,2.62-18.82-8.59,26.73-16.81,53.51-34.01,75.68,.14-.01,.29,.03,.36-.04Zm5.4-96.83c1.07,2.67,3.69,2.94,5.5,.76,1.11-1.34,2.04-3,2.65-4.68,1.82-5.05,2.41-10.35,1.97-15.73-.14-1.66-.62-3.38-1.33-4.86-1.27-2.67-3.83-3.01-5.7-.79-.96,1.13-1.9,2.5-2.27,3.94-1.1,4.28-1.91,8.65-2.83,12.94,.69,3.02,.99,5.89,2.02,8.43Zm20.58,2.01c.41,1.73,1.22,3.42,3.13,3.73,2,.32,3.18-1.11,4.14-2.72,.53-.89,.97-1.87,1.31-2.86,1.87-5.52,2.45-11.22,1.6-17.02-.21-1.43-.8-2.88-1.51-4.12-1.31-2.3-3.45-2.6-5.14-.65-1.01,1.16-1.97,2.63-2.32,4.13-.99,4.25-1.66,8.59-2.34,12.27,.44,2.92,.63,5.12,1.14,7.24Z"/>
  </g>
</svg>