<?xml version="1.0" encoding="UTF-8"?>
<svg id="Layer_2" data-name="Layer 2" xmlns="http://www.w3.org/2000/svg" viewBox="0 0 270.91 278.16">
  <g id="Layer_1-2" data-name="Layer 1">
    <path d="M258.74,260.09c2.02,.67,3.91,1.15,5.6,1.9,2.28,1.01,2.44,2.59,.17,3.58-2.66,1.16-5.53,2.28-8.49,2.74-5.85,.91-11.84,1.31-17.74,2.03-2.26,.28-4.44,.89-6.67,1.3-5.54,1.02-11.12,.81-16.78,.63-11.4-.37-22.83-.3-34.24-.35-3.7-.02-7.4,.13-11.09,.29-.83,.03-1.66,.37-2.44,.64-7.46,2.58-15.18,4.21-23.43,4.29-6.27,.06-12.32-.61-18.12-2.5-6.66-2.17-13.26-2.05-19.8,.33-13.71,4.98-27.05,3.88-40.23-1.33-1.49-.59-3.51-.84-5.17-.65-7.9,.92-15.3-.09-22.4-2.83-2.05-.79-4.18-1.47-6.3-2.15-9.55-3.04-11.55-11.9-3.88-17.28,1.76-1.23,3.66-2.37,5.32-3.68,5.2-4.07,5.64-9.33,.93-13.77-2.04-1.93-4.56-3.57-7.01-5.22-2.81-1.89-5.78-3.64-8.69-5.45-5.13-3.18-7.55-7.39-7.47-12.39,.05-3.24-1.06-6.1-2.97-8.96-4.51-6.74-2.56-11.68,6.02-15.42,2.96-1.29,6.15-2.27,9.29-3.29,4.31-1.41,6.79-3.91,7.7-7.4,.86-3.29-.92-6.05-4.99-7.25-3.62-1.07-7.41-1.8-11.05-2.83-2.67-.75-5.32-1.63-7.8-2.69-1.63-.7-3.17-1.68-4.37-2.78-4.39-4.03-3.22-9.72,3.03-11.73,6.64-2.14,11.52-5.25,15.01-10.11,2.43-3.39,7.02-5.22,11.07-7.4,6.18-3.32,12.64-6.43,18.25-10.26,16.69-11.38,26.55-25.83,30.19-42.74,2.21-10.28,3.66-20.66,5.81-30.94,2.23-10.66,6.74-20.72,15.29-29.42C112.17,5.93,126.43-.35,144.76,.01c17.31,.34,31.01,6.36,41.55,16.8,10.13,10.03,14.32,21.71,15.49,34.2,.75,7.95,.73,16.01,2.52,23.81,4.78,20.78,18.81,36.66,43.57,46.4,4.59,1.8,9.12,3.73,13.42,5.91,5.56,2.81,6.84,5.75,5.36,10.77-.23,.78-.46,1.56-.78,2.31-2.04,4.74-1.68,9.39,.54,14.06,1.55,3.27,2.99,6.6,4.08,9.97,1.06,3.3,.03,6.54-3.18,8.83-4.76,3.4-9.98,6.41-14.97,9.63-2.43,1.57-4.87,3.15-7.11,4.88-2.52,1.95-3.74,4.36-2.24,7.05,2.16,3.87,1.4,7.54-.7,11.21-.71,1.23-1.22,2.55-2.08,3.71-4.29,5.77-4.2,11.81-1.96,17.98,.75,2.06,1.61,4.11,2.65,6.09,1.75,3.33,4.73,5.74,9.25,6.96,1.63,.44,3.22,1.05,4.7,1.75,8.06,3.8,9.96,10.81,4.62,16.84-.22,.25-.43,.51-.75,.9Zm-22.7-48.38c1.29-2.37,2.54-4.75,3.89-7.09,1.75-3.05,2.14-6.06,.43-9.25-1.67-3.12-.8-6.1,2-8.59,2.02-1.79,4.34-3.41,6.72-4.92,4.78-3.03,9.8-5.85,14.54-8.92,4.04-2.62,5.21-6.05,3.72-9.97-.58-1.52-1.19-3.05-2-4.51-3.65-6.59-4.77-13.2-1.78-20.22,2.1-4.94,.63-7.32-5.16-10-4.55-2.11-9.27-4-13.97-5.91-9.84-3.99-18.29-9.27-25.16-16.02-12.45-12.23-18.33-26.27-19.41-41.69-.48-6.86-.78-13.75-1.99-20.54-2.23-12.52-8.91-23.45-21.25-32.04-17.93-12.47-43.95-13.2-62.89-1.72-10.82,6.56-17.27,15.4-21.45,25.31-4.26,10.09-5.5,20.62-7.24,31.07-1.23,7.42-2.47,14.84-5.48,21.99-7.48,17.72-21.45,31.54-41.88,41.42-7.32,3.54-14.34,7.18-18.52,13.36-1.7,2.51-4.97,3.88-8.32,4.98-1.6,.53-3.23,1.04-4.69,1.75-2.75,1.34-3.54,3.12-2.8,5.54,.7,2.27,2.67,3.75,5.18,4.79,2.16,.89,4.43,1.64,6.74,2.27,3.81,1.04,7.74,1.81,11.51,2.93,5.73,1.7,8.19,5.41,6.88,10.02-1.18,4.16-4.14,7.15-9.35,8.86-3.84,1.26-7.71,2.62-11.19,4.38-5,2.53-5.89,5.7-3.51,9.91,.54,.95,1.32,1.85,1.69,2.84,.86,2.33,2.14,4.7,2.16,7.06,.06,5.6,2.73,9.93,8.5,13.29,3.93,2.28,7.7,4.74,11.4,7.25,3.21,2.18,5.65,4.82,6.44,8.18,1.29,5.46-1.87,9.49-6.95,12.91-1.49,1-3.07,1.98-4.31,3.16-4.63,4.38-2.46,10.39,4.44,12.24,1.84,.49,3.87,.75,5.82,.8,5.3,.14,10.32,1.01,15.28,2.49,2.42,.72,5.37,1.2,7.83,.82,6.09-.94,11.16,0,15.95,3.05,4.12,2.63,9.11,3.19,14.39,2.69,7.04-.67,13.42-2.76,19.03-5.9,8.15-4.56,16.06-9.4,23.76-14.42,7.53-4.91,13.11-10.99,16.01-18.38,.87-2.21,1.61-4.45,2.42-6.67-.11,4.03-1.4,7.84-3.33,11.54-4.03,7.75-11.33,13.52-19.28,18.88-2.45,1.65-4.96,3.27-7.23,5.06-2.43,1.91-2.13,3.93,.74,5.41,1.63,.84,3.41,1.67,5.27,2.06,17.21,3.59,32.64,.96,46.1-8.15,2.15-1.45,4.09-3.09,6.24-4.55,6.17-4.17,9.53-3.94,15.62,.28,3.99,2.77,8.16,5.55,12.82,7.51,7.06,2.97,14.79,2.17,22.31,.72,5.29-1.02,9.59-2.83,10.41-7.64,.33-1.93,1.88-2.46,4.4-2.04,.93,.15,1.82,.42,2.75,.59,2.16,.4,4.04,.05,5.68-1.19,4.54-3.43,4.86-9.33,.31-12.74-1.76-1.32-4.08-2.37-6.38-3.06-5.6-1.68-9.8-4.47-11.62-8.86-1.73-4.17-3.47-8.47-3.95-12.79-.9-8.11-1.92-16.1-6.43-23.59-2.87-4.77-5.65-9.59-8.24-14.46-2.18-4.11-4.02-8.33-6.01-12.5,4.16,6.51,7.88,13.15,11.86,19.68,4.18,6.87,9.19,13.48,10.55,21.23ZM115.29,45.79c.97,2.8,1.72,5.67,3,8.38,.96,2.03,3.05,3.52,6.1,3.53,2.89,.01,4.71-1.51,5.81-3.32,3.6-5.93,3.64-11.97,.02-17.91-1.11-1.81-2.95-3.27-5.85-3.28-3.01-.01-4.72,1.52-6.01,3.38-1.97,2.83-2.46,5.92-2.42,9.08-.22,.05-.43,.09-.65,.14Zm45.2,9.6c2.78,3.05,7.17,3.1,10.08,.11,.47-.48,.91-1.01,1.22-1.57,3.15-5.77,3.2-11.55-.17-17.25-1.16-1.96-3.05-3.51-6.16-3.48-3.02,.03-4.94,1.56-5.85,3.49-1.29,2.72-2.02,5.6-2.98,8.42,.63,3.7,1.09,7.22,3.87,10.27Zm-20.9,22.23c2.91,3.36,7.62,3.47,10.09-.06,1.45-2.08,1.93-4.6,2.6-6.96,.27-.96-.12-2.03-.25-3.4-5.08,4.49-8.79,4.44-14.27,.05-1.29,3.66-.56,7.61,1.83,10.36Zm-47.36,100.62c-1.05,2.16-2.11,4.31-3.16,6.47-3.94,8.07-8.63,15.98-11.63,24.26-3.87,10.67-10.33,20.09-19.12,28.68-.51,.5-.95,1.04-1.55,1.7,.44-.05,.62-.03,.7-.09,8.68-6.96,15.73-14.69,19.51-24.04,2.97-7.35,6.13-14.66,9.26-21.97,2.12-4.97,4.33-9.92,6.5-14.88-.17-.05-.34-.09-.51-.14Zm86.37,53.63c1.53,9.77,7.34,17.99,15.39,25.39-6.49-7.97-11.52-16.47-15.39-25.39Z"/>
  </g>
</svg>