<?xml version="1.0" encoding="UTF-8"?>
<svg id="Layer_2" data-name="Layer 2" xmlns="http://www.w3.org/2000/svg" viewBox="0 0 261.02 285.77">
  <g id="Layer_1-2" data-name="Layer 1">
    <path d="M242.65,172.02h-3.25c.07,1.03,.12,1.99,.21,2.95,.65,7.14-.24,13.94-5.64,19.73-.36,.39-.61,.93-.71,1.43-1.24,6.26-5,11.31-9.68,15.92-4.58,4.52-8.94,9.18-11.06,15.1-2.35,6.56-2.41,12.94,2.37,18.81,1.86,2.28,4.22,3.68,7.51,4.05,4.06,.45,7.58,2.11,10.61,4.6,2.22,1.83,4.59,3.51,6.92,5.23,4.93,3.63,8.6,7.98,10,13.63,.52,2.09,.2,4.05-1.89,5.7,2.01,.72,3.9,1.39,5.85,2.08-4.57,0-9.03-.15-13.49,.03-13.94,.57-27.88,1.19-41.82,1.94-8.96,.48-17.88,1.52-26.84,1.77-16.18,.47-32.37,.65-48.56,.74-15.23,.09-30.47,.04-45.7-.19-14.26-.21-28.51-.68-42.76-1.16-9.58-.32-19.16-.82-28.73-1.29-1.31-.07-2.59-.49-4.32-.83,.97-.29,1.57-.47,2.16-.65-.03-.21,0-.4-.08-.44-3.4-2.04-4.43-4.97-3.37-8.28,1.12-3.5,3.76-5.98,7.97-6.7,2.03-.35,4.13-.35,6.19-.56,6.42-.64,10.55-4.28,13.9-8.7,5.74-7.58,7.3-15.86,5.32-24.86-.93-4.22-1.18-8.6-1.22-12.91-.03-2.72-.62-5.13-2.55-7.12-2.02-2.08-4.13-4.21-6.62-5.81-8.03-5.13-12.68-11.72-13.11-20.67-.16-3.23-1.28-6.45-2.27-9.6-1.47-4.71-1.25-9.38,.06-14.03,1.74-6.19,1.37-12.4,.59-18.63-1.02-8.19-2.15-16.45,1.17-24.4,1.44-3.46,3.44-6.88,5.95-9.81,4.52-5.29,10.3-6.42,17.24-3.95,2.95,1.05,5.82,2.31,8.67,3.57,7.09,3.13,13.39,2.33,19.12-2.61,8.91-7.68,14.91-16.97,19.37-27.12,3.91-8.88,5.56-18.22,6.77-27.64,1.05-8.14,1.25-16.42,4.45-24.25,4.52-11.05,12.14-19.79,24.64-24.39,19.27-7.1,40.08,.19,50.3,17.27,4.25,7.1,5.93,14.81,7.08,22.65,2.13,14.53,3.98,29.1,6.33,43.61,1.37,8.44,4.15,16.55,10.2,23.46,.5,.57,1.07,1.09,1.61,1.64,2.73,2.76,5.81,3.46,9.74,1.86,2.87-1.17,5.96-2.02,9.04-2.66,6.26-1.28,11.54,.43,15.9,4.57,1.72,1.63,3.42,3.35,5.44,4.63,1.25,.79,3.09,1.09,4.69,1.14,2.72,.09,5.51-.52,8.19-.25,4.73,.47,8.1,3.12,10.74,6.44,5.58,7.03,6.7,14.82,5.02,23.14-.68,3.34-1.28,6.78-1.16,10.15,.27,7.38-4.24,12.38-9.94,16.84-2.28,1.78-4.77,1-5.71-1.58-.4-1.11-.55-2.29-.84-3.6Zm-2.76,102.08c-2.6-1.38-5.05-3.11-7.83-4.09-8.51-3-16.79-4.48-25.81-.19-10.58,5.03-23.18,1.67-30.27-6.94-5.09-6.18-6.63-13.38-7.43-20.77-.11-.98-.12-1.97-.15-2.96-.02-.91,0-1.81,0-2.72,1.13,6.36,2.37,12.63,5.07,18.58,2.23,4.91,5.42,9.26,10.71,12.03,7.46,3.9,15.12,3.57,22.84,.55,3.46-1.35,6.87-2.84,10.44-3.89,2.3-.68,4.86-.67,7.3-.97,.02,.14,.04,.29,.06,.43-2.46,.46-4.91,.93-7.37,1.39,.02,.18,.03,.35,.05,.53,5.85,.19,11.5,1.03,16.81,3.31,5.36,2.31,9.97,5.34,13.03,10.05,1.59-2.17,1.14-4.75-1.97-9.19-6.89-9.83-16.19-15.44-30-12.97,2.73-.73,5.45-1.46,8.2-1.56,2.79-.1,5.61,.44,8.23,.68-3.33-2.3-7.43-3.43-11.85-3.87-4.52-.46-8.95-1.1-12.57-3.94-5.01-3.94-7.89-9.02-9.81-14.53-3.8-10.9-3.88-22.02-1.9-33.2,3.63-20.47,9.89-40.3,18.8-59.45,1.66-3.56,3.76-6.95,5.66-10.41,.22,.08,.44,.17,.66,.25-.37,.83-.74,1.66-1.12,2.48-1.12,2.44-2.32,4.84-3.35,7.31-6.49,15.48-11.16,31.43-15.18,47.52-3.13,12.56-5.28,25.23-3.13,38.14,1.13,6.77,3.35,13.21,8.31,18.66,1.95,2.14,4.29,3.76,7.63,4.34-.28-.35-.43-.56-.6-.75-4.44-4.99-5.92-10.63-4.82-16.87,1.26-7.14,5.26-13.04,10.44-18.43,2.6-2.7,5.3-5.35,7.6-8.24,1.55-1.94,2.5-4.26,3.71-6.42-3.81,1.57-7.29,3.1-10.43,5.06-3.13,1.95-6.25,4.06-8.79,6.57-2.48,2.44-4.23,5.46-6.3,8.23,2.18-6.78,5.87-12.63,12.83-16.45,2.46-1.35,4.99-2.6,7.5-3.89,3.84-1.96,7.73-4.04,9.37-7.84,1.33-3.07,2.5-6.41,2.57-9.66,.14-5.84-.67-11.68-.94-17.53-.36-7.69,.25-15.29,4.4-22.26,1.04-1.74,2.59-3.44,4.37-4.61,3.17-2.1,7.08-.91,8.03,2.32-.27-.08-.29-.36-.46-.54-1.25-1.32-3.07-1.79-4.59-1.05-.92,.44-1.22,1.99-1.64,3.08-.21,.53-.11,1.18-.06,1.77,.27,3.35,.5,6.69,.87,10.03,.71,6.4-.8,12.54-2.32,18.73-.41,1.68,.15,3.59,.53,5.35,.18,.83,1.07,1.33,2.04,.53,5.13-4.23,9.81-8.59,9.57-15.53-.12-3.32,.22-6.72,.94-9.98,1.79-8.05,.71-15.56-4.56-22.42-2.25-2.93-5.23-5.44-9.34-5.41-5.43,.04-10.99-.58-16.5,.78,1.52-.79,3.04-1.58,4.26-2.21-1.86-1.37-3.91-2.77-5.82-4.3-5.36-4.27-11.4-5.34-18.18-3.2-2.23,.71-4.45,1.43-6.66,2.2-3.78,1.33-7.32,.92-9.99-1.76-2.68-2.69-5.27-5.55-7.21-8.68-5.51-8.86-7.07-18.74-8.53-28.58-1.94-13.03-3.52-26.11-5.47-39.14-1.1-7.36-3.77-14.3-8.55-20.51-10.79-14.02-31.3-18.73-47.34-10.82-10.64,5.25-17.51,13.36-20.51,23.58-2.09,7.14-2.75,14.63-3.76,21.99-1.48,10.81-3.48,21.48-8.52,31.52-4.59,9.15-10.32,17.6-18.99,24.3-6.4,4.95-13.25,5.99-20.96,2.63-3.32-1.45-6.73-2.76-10.21-3.87-4.52-1.45-8.65-.54-12.12,2.4-4.64,3.93-6.89,8.97-8.2,14.39-1.69,6.99-.74,14.02-.23,21.05,.48,6.51,.36,12.98-.85,19.47-.64,3.44-.55,7.08-.06,10.55,.68,4.8,2.29,9.5,3.08,14.29,.98,6,4.07,10.77,9.42,14.47,4.16,2.88,8.27,5.8,10.68,10.5-.13-8.82-2.1-16.9-5.93-24.66,.67,.47,1.09,1,1.46,1.55,5.26,7.92,7.21,16.49,6.32,25.59-.51,5.22-.3,10.38,.92,15.51,1.82,7.63,1.21,15.05-2.57,22.15-4.32,8.1-10.48,13.96-21.54,14.21-2.05,.05-4.42,.95-6.03,2.12-3.76,2.71-3.04,8.03,.99,9.51,3.09,1.14,12.28,1.22,15.45,.17-2.32-1.04-4.7-2.1-7.08-3.18-2.59-1.17-5.19-1.82-8.08-.07,1.18-1.96,3.25-2.85,5.74-2.28,2.28,.52,4.43,1.48,6.7,2.05,3.76,.94,7.52,2.08,11.37,2.5,10.88,1.2,20.67-1.8,29.81-6.82,.64-.35,1.3-.69,1.95-1.04-5.09,4.48-11.2,7.42-18.36,9.52,8.33,2.17,16.09,2.36,23.03-1.93,4.16-2.57,7.94-5.73,11.42-9.02,4.86-4.58,11.15-6.46,17.69-8.16-10.17,2.94-17.29,9.2-23.34,16.72,6.11,1.35,12.44,1.57,18.81,.96,6.57-.63,12.26-2.89,16.8-7.3,3.28-3.18,7.49-4.83,12.83-5.21-11.2-4.6-20.92-.54-30.76,2.64,4.89-2.72,10.15-4.6,15.73-5.77,8.2-1.72,15.46-.35,21.35,5.31,.85,.82,1.81,1.56,2.74,2.32,4.2,3.43,11.42,4.98,18.09,4.31-8.46-3.38-15.41-7.9-21.46-13.53-.66-.62-1.45-1.13-2.23-1.64-5.41-3.51-11.25-6.25-18.06-6.62-4.52-.24-9.08,.07-12.69,.13,1.39-.2,3.71-.67,6.07-.83,11.14-.79,20.67,2.67,29.08,8.91,2.84,2.11,5.36,4.71,8.52,6.32,8.15,4.16,16.5,8.06,24.95,11.72,2.92,1.26,6.35,1.82,9.62,2.16,7.86,.82,15.32-1.03,22.63-3.36,8.91-2.83,18.03-4.49,27.51-3.68,5.75,.49,11.45,1.42,17.19,2.05,.91,.1,1.88-.3,2.83-.48-.75-.77-1.5-1.55-2.25-2.32Zm-87.97,4.21c-.03-.07-.05-.14-.08-.21-1.85,0-3.7,0-5.55,0-8.01-.04-15.22-1.75-20.54-7.57-.43-.47-1.14-.97-1.77-1.03-4.13-.38-8.22-.18-11.62,2.24-2.28,1.62-4.35,3.49-6.27,5.05,6.42,.66,12.92,1.35,19.43,1.97,4.4,.42,8.83,1.07,13.22,.99,4.4-.08,8.78-.93,13.17-1.44Zm92.08-139.32c-.16-.06-.31-.12-.47-.18-1.03,2.16-2.26,4.26-3.04,6.48-2.71,7.7-2.09,15.58-1.37,23.46,.12,1.34,1.06,1.62,2.11,1.1,.81-.4,1.74-1.19,1.92-1.95,.79-3.25,1.84-6.56,1.84-9.84,0-6.36-.63-12.72-1-19.07Zm-4.11,135.11c-.26,.36-.52,.73-.78,1.09,1.01,.41,2.02,.82,3.03,1.23-.75-.77-1.5-1.55-2.25-2.32ZM120.76,79.93c2.6,5.94,8.86,6.95,13.31,1.94,5.75-6.48,7.1-13.97,4.14-21.77-1.99-5.25-7.56-6.22-12.21-2.5-.82,.66-1.56,1.42-2.19,2.22-3.09,3.96-4.43,8.41-4.86,13.26,.58,2.29,.86,4.68,1.8,6.84Zm-52.27,180.6c13.13-9.37,24.17-20.48,33.37-32.91,26.59-35.89,42.06-75.15,44.6-118.18,.34-5.79,.05-11.62,.05-17.43-2.28,66.7-28.41,124.21-82.31,171.36,1.39-.92,2.87-1.85,4.28-2.85Zm-27.88-13.83c3.1-3.87,4.96-8.21,6.17-12.79,2.98-11.26,2.26-22.53-.71-33.64-4.79-17.93-8.37-36.02-10.55-54.35-.82-6.92-2.19-13.85-5.82-20.14-1.46-2.53-3.43-4.94-5.67-6.96-2.26-2.04-5.09-1.53-6.72,.98-3.64,5.61-3.51,11.61-1.88,17.68,.22-1.36,.16-2.74,.23-4.11,.2-3.83,.7-7.6,2.77-11.07,1.73-2.9,3.75-3.22,5.8-.48,1.98,2.65,3.72,5.56,4.87,8.56,3.41,8.95,4.08,18.38,5.48,27.67,.97,6.43,1.63,12.92,2.98,19.29,2.27,10.69,5.16,21.27,7.46,31.95,1.38,6.41,1.38,12.94,.46,19.45-.99,6.98-3.11,13.62-6.82,20.02,.65-.69,1.36-1.35,1.94-2.08ZM120.68,34.51c-1.71-3.7-5.47-4.21-8.68-1.37-4.5,3.97-6.53,13.06-4.1,18.29,2.08,4.47,6.58,5.04,9.95,1.21,3.09-3.52,3.98-7.68,4.33-12.89-.33-1.21-.62-3.33-1.5-5.24Zm-59.04,225.75c12.04-9.77,20-21.91,25.66-35.32,4.7-11.14,7.54-22.71,8.87-34.5,1.02-9.08,1.27-18.22,1.87-27.34-.29-.02-.58-.05-.87-.07-.13,.88-.32,1.76-.39,2.64-.34,4.46-.54,8.93-.98,13.39-1.43,14.45-4.35,28.63-9.87,42.33-5.86,14.56-14.35,27.69-27.09,38.47-5.38,4.54-11.54,8.03-18.3,10.78,6.51-1.03,14.32-4.86,21.11-10.37ZM154.94,35.96c-1.67-3.61-5.63-4.1-8.14-.93-4.29,5.42-5.36,11.44-2.89,17.78,.7,1.81,2.02,3.32,4.37,3.49,2.24,.16,3.74-1.09,4.91-2.6,2.48-3.21,3.21-6.86,3.71-10.75-.63-2.34-.94-4.8-1.95-7ZM43.85,253.71c14.37-17,19.76-36.36,19.2-57.28-.34-12.59-2.41-25.01-5.16-37.34-.85-3.78-1.97-7.51-2.97-11.26-.14,1.98,.11,3.87,.48,5.74,3.21,16.22,5.61,32.52,5.12,49.03-.38,12.72-2.88,25.1-8.91,36.75-2.74,5.3-5.94,10.41-9.03,15.78,.46-.52,.88-.96,1.27-1.42Zm154.24-101.57c-.34,.77-.73,1.53-1,2.32-4.77,13.72-8.44,27.64-9.97,41.96-1.63,15.28-.59,30.35,4.59,45.08,1.58,4.5,3.75,8.77,6.95,12.59,.07-.28,.03-.52-.09-.72-6.27-10.01-8.4-21-9.45-32.19-1.55-16.52,.39-32.85,4.16-49.02,1.55-6.67,3.4-13.3,5.12-19.94-.1-.03-.2-.05-.3-.08Zm-36.58,31.02c-4.3,12.97-7.71,26.08-7.92,39.68-.16,10.74,1.47,21.25,5.98,31.29,2.98,6.64,7.22,12.51,13.76,16.9,.63,.42,1.35,.74,2.03,1.11-8.24-6.55-12.79-14.88-15.71-24-5.39-16.76-4.86-33.66-1.14-50.59,1.13-5.14,2.41-10.25,3.73-15.85-.39,.77-.61,1.09-.73,1.45Zm61.01-17.02c.74-5.34,1.57-10.68,2.82-15.94,1.51-6.35,4.22-12.33,8.78-17.58-2.2,1.86-4.31,3.79-5.84,6.03-4.43,6.48-6.01,13.77-7.14,21.14-.69,4.55-1.09,9.15-2.02,13.66-1.19,5.76-4.42,10.79-7.98,15.65,7.32-6.3,10.17-14.29,11.38-22.97Zm-94.93,52.06c23.8-32.62,35.77-68.44,37.2-107.07-2.64,38.36-14.81,74.1-37.2,107.07Z"/>
  </g>
</svg>