<?xml version="1.0" encoding="UTF-8"?>
<svg id="Layer_2" data-name="Layer 2" xmlns="http://www.w3.org/2000/svg" viewBox="0 0 240.51 257.91">
  <g id="Layer_1-2" data-name="Layer 1">
    <path d="M227.82,204.79c-.32,14.71-7.04,25.95-19.27,33.75-11.38,7.26-23.85,8.31-36.78,5.12-2.15-.53-4.29-1.13-6.35-1.94-1.4-.55-2.39-.37-3.46,.63-3.57,3.32-7.77,5.58-12.6,6.05-3.32,.32-6.73-.02-10.07-.36-1.35-.14-2.22-.06-3.23,.93-3.83,3.73-8.08,6.86-13.38,8.22-7.26,1.86-13.77-.03-19.73-4.19-2.57-1.8-5.01-3.8-7.34-5.9-3.92-3.54-8.24-4.13-13-2.14-2.78,1.16-5.49,2.5-8.29,3.6-4.27,1.68-8.71,2.2-13.22,1.2-5.23-1.16-9.23-3.99-11.39-9.03-.46-1.06-1.12-1.2-2.13-1.51-4.59-1.4-8.67,1.05-13,1.5-9.31,.98-19.84-5.63-22.04-14.15-1.09-4.21,.19-8.19,1.26-12.16,.32-1.18,1.32-1.44,2.54-1.07,3.76,1.13,5.74,.32,7.58-3.18,2.27-4.33,2.65-8.78,.6-13.34-.83-1.85-1.99-2.76-4.23-2.76-7.02-.01-13.07-2.37-17.23-8.34-4.34-6.23-4.01-15.26,.64-21.92,2.34-3.35,5.43-5.87,8.94-7.89,1.87-1.08,3.04-.41,3.32,1.77,.54,4.27,2.97,6.14,7.23,5.55,5.37-.75,9.41-3.83,12.93-7.66,5.97-6.5,9.41-14.39,11.99-22.69,4.23-13.58,5.79-27.59,6.29-41.73,.36-10.17,.3-20.36,.84-30.51,.72-13.54,4.17-26.29,12.48-37.3C77.74,10.03,91.16,2.56,107.64,.58c11.82-1.42,23.41-.32,34.46,4.23,16.32,6.73,26.73,19.06,32.56,35.5,3.47,9.79,4.65,19.99,5.54,30.26,1.14,13.13,2.09,26.3,3.76,39.37,1.45,11.34,4.68,22.29,9.99,32.51,3.07,5.92,6.95,11.22,12.62,14.96,3.25,2.14,6.79,3.48,10.75,3.42,4.03-.06,6.26-2.15,6.67-6.15,.28-2.72,1.16-3.23,3.62-2.03,4.17,2.04,7.74,4.8,10.21,8.82,5.07,8.25,2.84,18.6-5.36,24.79-4.92,3.71-10.57,5.42-16.62,6.04-3.25,.34-5.66,4.47-4.08,7.3,.52,.94,1.95,1.69,3.08,1.9,3.29,.6,6.25-.63,8.79-2.59,2.58-2,4.17-.77,4.21,2.17,.02,1.23,0,2.47,0,3.7Zm-18.87-2.13l.04,.03c-.59-2.3-1.18-4.6-1.86-7.22-1.21,2.01-2.48,4.12-3.92,6.52-.43-5.04,1.93-8.38,6.08-11.29-2.15,.18-3.76,.31-5.37,.44-.07-.18-.15-.37-.22-.55,1.22-.54,2.4-1.39,3.67-1.57,2.92-.42,5.89-.45,8.82-.74,4.85-.49,9.44-1.88,13.41-4.77,10.95-7.99,8.12-21.04-2.01-26.29-1.12,4.2-3.95,6.62-8.13,7.28-3.13,.5-6.24,.18-9.27-.92-6.77-2.46-11.73-7.13-15.76-12.89-6.68-9.55-10.21-20.4-12.8-31.62-3.41-14.78-4.02-29.89-5.17-44.94-.72-9.4-1.51-18.79-4.1-27.91-3.57-12.54-9.71-23.45-20.4-31.28-14.54-10.66-31.03-12.73-48.21-9.65-21.92,3.93-39.36,20.81-43.29,45.67-1.23,7.81-1.33,15.83-1.51,23.76-.35,15.42-.72,30.82-3.78,46.01-2.21,10.99-5.31,21.66-11.42,31.22-3.5,5.48-7.75,10.24-13.7,13.13-1.96,.95-4.13,1.71-6.27,2.02-5.24,.76-9.32-1.05-11.49-6.26-3.46,2.2-5.84,5.11-7.25,8.77-3.5,9.07,1.08,17.92,10.46,19.95,2.5,.54,5.13,.44,7.71,.58,2.53,.13,4.77,.78,6.58,3.2-1.2-.27-2.05-.45-3.28-.73,2.67,3.69,3.4,7.51,3.13,11.54-.47,7-4.76,14.58-12.53,13.69-2.04,5.01-1.28,9.28,2.38,13.09,5.24,5.45,11.57,6.85,18.79,5.16,1.3-.31,2.05-.92,2.51-2.12,1-2.59,.83-5.18,.21-7.81-1.11-4.72-.03-7.31,4.14-9.77,2.44-1.44,4.97-2.72,7.45-4.07,7.42-4.06,14.23-8.87,19.22-15.86,8.33-11.67,10.42-24.92,8.94-38.75-.96-8.97-3.07-17.82-4.65-26.73-.63-3.53-1.25-7.06-1.87-10.59,1.91,6.01,3.51,12.07,5.1,18.13,2.99,11.38,4.98,22.87,3.56,34.71-1.4,11.75-5.72,22.13-14.31,30.49-5.28,5.14-11.61,8.65-18.29,11.64-2.07,.92-4.12,1.97-6,3.21-1.94,1.28-2.81,3.25-2.28,5.63,.72,3.24,1.59,6.46,.21,10.16,2.2,.31,4.12,.76,6.04,.79,1.6,.03,3.14-.52,4.08-2.1,2.07-3.51,.91-8.63-2.51-10.85-2.94-1.92-5.41-1.16-6.74,2.05-.05,.12-.24,.18-.39,.29-.34-3.15,1.1-5,4.08-4.76,1.62,.13,3.43,.71,4.72,1.67,3.74,2.82,4.55,8.12,2.01,12.71-1.45,2.62-.98,4.84,.69,7,3.16,4.09,7.54,5.32,12.46,5.04,4.4-.25,8.33-2.01,12.22-3.92,8.1-3.99,13.52-3.16,20.33,2.66,2.88,2.47,5.99,4.74,9.26,6.66,3.7,2.18,7.93,2.97,12.14,1.9,7.92-2.01,13.95-6.6,17.39-14.17,2.37-5.21,6.2-7.78,11.88-6.99,3.18,.44,6.37,1.45,9.33,2.72,8.86,3.8,17.87,6.72,27.66,6.18,15.92-.88,27.48-8.47,34.44-22.85,2.24-4.63,3.19-9.61,2.75-14.93-5.3,2.44-10.37,3.49-15.11-.79Zm-48.79,35.91c-1.74-.75-3.35-1.73-5.1-2.13-2.6-.6-5.3-1.11-7.95-1.06-4.04,.07-6.57,3.13-7.55,8.39,5.89,2.61,15.55,.22,20.6-5.2ZM93.34,100.36c.42-1.58,.64-3.25,1.32-4.71,1.02-2.17,3.4-2.8,5.49-1.65,.97,.53,1.85,1.21,2.74,1.87,7.29,5.38,17.88,5.44,25.22,.13,.7-.5,1.36-1.06,2.08-1.53,3.11-2.04,6.29-.83,6.97,2.87,.36,1.96,.32,4.06,.06,6.05-.88,6.89-3.25,13.21-8.54,17.94-9.12,8.15-22.77,6.23-29.76-4.03-3.46-5.07-5.02-10.75-5.58-16.93Zm21.42,23.88c4.47,.07,7.17-.81,10.91-2.89,1.69-.94,1.8-2.1,1.29-3.66-1.41-4.34-5.43-5.98-9.78-4.07-.74,.32-1.82,.52-2.49,.22-5.03-2.26-8.75-.7-10.64,4.46-.49,1.34-.13,2.06,.94,2.75,3.17,2.03,6.57,3.28,9.78,3.2Zm-12.07-25.91c.07,2.27,.53,4.29,2.78,5.36,2.39,1.14,3.85,.21,3.9-2.39-2.22-.99-4.42-1.97-6.69-2.97Zm25.65,.05c-2.25,.98-4.42,1.92-6.67,2.9,.18,1.33,.28,2.76,2.15,2.78,2.56,.03,4.46-2.38,4.52-5.68Zm24.24-28.3c-.06,5.08-1.1,9.9-4.19,14.08-4.3,5.81-10.6,5.82-14.92,.06-2.75-3.67-3.93-7.93-4.12-12.43-.25-5.57,.52-10.97,3.87-15.65,1.9-2.65,4.3-4.6,7.82-4.45,3.02,.13,5.18,1.8,6.94,4.04,3.29,4.2,4.46,9.1,4.59,14.35Zm-21.15-2.34c.22,1.19,.33,2.36,.66,3.46,.4,1.34,1.42,2.45,2.79,2.19,1.03-.2,2.27-1.11,2.73-2.04,1.15-2.34,1.25-4.92-.09-7.24-.46-.8-1.69-1.67-2.52-1.63-.95,.05-2.15,.9-2.68,1.75-.61,.97-.61,2.32-.88,3.52Zm-29.74,2.47c-.22,4.9-1.16,9.8-4.3,14.04-4.18,5.65-10.33,5.73-14.67,.19-5.95-7.6-5.74-21.57,.45-29.02,4.28-5.15,10.16-5.01,14.15,.35,3.14,4.22,4.22,9.08,4.37,14.44Zm-2.27-2.07c-.39-1.47-.5-2.9-1.15-4.01-.47-.8-1.66-1.61-2.54-1.62-.89-.01-2.21,.73-2.63,1.52-1.41,2.66-1.28,5.49,.26,8.08,1.18,1.99,3.65,1.96,4.79-.06,.66-1.18,.87-2.62,1.26-3.9Zm109.58,134.56c-6.34,7.74-14.56,8.69-23.57,6.35-5.78-1.51-10.39-5-14.35-9.36-6.41-7.05-10.65-15.32-13.51-24.37-5.97-18.9-6.18-38.06-2.71-57.4,.7-3.92,1.56-7.81,2.34-11.72-.32,.35-.52,.73-.62,1.14-4.97,19.21-7.37,38.6-3.73,58.35,2.35,12.78,6.85,24.67,15.43,34.68,5.48,6.4,12.07,11.13,20.69,12.12,7.1,.81,13.48-.87,18.35-6.48,.79-.91,1.11-2.22,1.65-3.35,0,0,.04,.03,.04,.03Zm-52.39,25.55c-17.88-17.18-23.11-39.24-24.43-62.84-.15,1.12-.21,2.23-.14,3.32,.37,5.41,.58,10.83,1.21,16.21,1.14,9.79,3.79,19.18,8.49,27.91,3.15,5.86,7,11.17,12.55,15.03,.58,.4,1.27,.64,1.91,.96,.14-.19,.27-.39,.41-.58Zm14.35-76.25c1.15,8.02,3.01,15.84,7.11,22.95,1.56,2.7,3.46,5.1,6.15,6.77,.4,.25,.86,.38,1.49,.66-12.04-15.18-13.63-33.12-15.46-51.01-.45,6.89-.27,13.78,.71,20.63Zm-85.8,67.19c.56-.45,1.29-.78,1.64-1.36,1.47-2.4,3.1-4.76,4.18-7.34,3.39-8.09,4.91-16.65,5.13-25.37,.17-6.72-.24-13.46-.39-20.19l-.68-.02c1.01,18.8-1.09,37-10.25,53.82l.36,.47Zm-50.91-30.11c.75-.13,1.52-.18,2.24-.41,3.28-1.02,5.77-3.19,8.01-5.69,5.66-6.33,8.9-13.92,11.38-21.91,.05-.17-.02-.38-.07-1-4.79,11.72-10.88,21.95-21.76,28.5,.07,.17,.13,.35,.2,.52Z"/>
  </g>
</svg>