<?xml version="1.0" encoding="UTF-8"?>
<svg id="Layer_2" data-name="Layer 2" xmlns="http://www.w3.org/2000/svg" viewBox="0 0 306.28 280.05">
  <g id="Layer_1-2" data-name="Layer 1">
    <path d="M303.1,147.7c-.98-1.62-1.22-3.15-.59-4.96,.35-1.01,.38-2.19,.29-3.28-.43-5.61-6.07-10.4-12.48-10.71-5-.24-8.89,1.92-12.3,5.29-.53,.52-1.45,1.1-2.08,1-8.5-1.42-16.66-3.87-23.18-9.69-10.33-9.22-20.42-18.7-30.57-28.11-4.72-4.37-8.02-9.61-9.58-15.87-1.38-5.55-3.01-11.04-4.26-16.61-1.94-8.63-3.62-17.31-7.2-25.48C189.49,12.62,163.93-3.35,135.13,.6c-16.27,2.23-29.7,9.59-39.89,22.39-8.86,11.13-12.93,24.17-14.91,37.9-1.26,8.75-1.8,17.6-2.88,26.38-1.07,8.8-3.79,17.07-9.91,23.8-4.36,4.79-9.18,9.17-13.62,13.9-1.9,2.02-4.03,2.76-6.71,3.04-10.36,1.11-20.18,3.93-28.75,10.05C8.16,145.42,1.44,155.08,.18,167.78c-.43,4.35-.01,8.83,.44,13.2,.62,5.89,1.65,11.74,2.5,17.61,1.35-4.19,2.4-8.38,3.29-12.6,1.18-5.57,4.8-9.05,9.85-11.64,2.78,5.46,6.62,9.96,11.8,13.01,3.75,2.21,5.33,5.08,5.92,9.29,1.17,8.43,2.82,16.81,6.21,24.71,5.31,12.37,13.98,20.98,27.76,23.69,1.29,.25,1.31,1.04,1.55,1.87,.96,3.31,1.6,6.74,2.91,9.9,4.81,11.62,16.52,17.6,27.97,14.48,4.98-1.35,8.93-4.32,12.64-7.73,2.5-2.3,5.04-4.62,7.85-6.53,3.77-2.57,7.34-2.23,10.61,.91,1.91,1.84,3.69,3.96,4.98,6.25,5.57,9.97,14.41,14.61,25.53,15.76,.12,.01,.24,.03,.36,.06,2.58-.11,5.16,0,7.75,.03,1.16-.17,2.32-.38,3.48-.58,4.16-1.42,8.24-2.82,12.33-4.18,3.02-1.39,6.04-2.87,8.75-4.67,.13-.09,.26-.16,.39-.21,.26-.19,.49-.36,.74-.51,6.71-4.29,12.41-9.67,17.54-15.68,8.96-10.5,16.14-22.19,23.06-34.03,1.23-2.11,2.63-2.97,5.05-3.15,7.74-.59,14.11-3.99,19.16-9.77,5.86-6.7,9.31-14.57,11.59-23.03,.21-.77,.72-1.84,1.35-2.06,6.61-2.32,9.88-7.25,11.33-13.68,.31-1.39,.51-2.81,.8-4.22,.65-3.18,2.35-4.62,5.6-4.05,2.34,.41,4.7,1.27,6.77,2.43,3.24,1.81,4.91,4.97,6.03,8.63,2.64-8.16,3.61-16-.96-23.59Zm-11.35,6.03c-6.95-.6-11.09,2.62-12.48,9.42-.39,1.91-.68,3.85-1.21,5.72-1.39,4.92-4.82,7.48-9.99,7.54-1.85,.02-3.71,.07-5.54-.14-6.22-.71-11.58,1.06-16.25,5.12-2.33,2.02-4.58,4.19-7.15,5.87-4.16,2.72-8.53,5.13-12.84,7.62-1.28,.73-2.67,1.27-3.95,2.06,5.6,.56,10.97-.47,15.86-2.93,4.73-2.39,9.27-5.22,13.63-8.22,4.14-2.84,8.49-3.67,13.5-2.72-.08,.48-.08,.99-.27,1.43-1.96,4.6-3.59,9.38-6.01,13.73-4.81,8.65-12.41,13-22.55,12.91-3.89-.03-7.82-.07-11.66,.42-8.51,1.08-14.1,6.07-17.27,13.73-1.09,2.63-1.76,5.43-2.51,8.19-1.56,5.74-2.42,11.69-5.61,17.11,2.07-.79,4.54-2.85,6.24-5.63,1.83-3,3.38-6.17,5.04-9.27,2.17-4.07,3.99-8.38,6.59-12.18,2.88-4.21,7.23-6.32,12.7-5.99-.1,.33-.13,.59-.26,.79-6.97,11.82-14.15,23.51-23.37,33.82-9.03,10.09-19.77,17.55-33.31,20.57-8.9,1.99-17.41,1.18-24.82-4.45-2.38-1.81-4.28-4.39-5.95-6.92-2.32-3.52-4.65-6.95-8.2-9.4-5.31-3.66-10.88-4.04-16.31-.64-3.2,2-6.02,4.63-8.86,7.15-3.21,2.84-6.36,5.66-10.7,6.75-6.65,1.67-13.93-1.04-17.64-6.74-2.49-3.84-3.66-8.14-4.48-12.74,5.63-.26,10.92-1.32,15.9-3.51,14.4-6.33,25.04-16.75,32.8-30.05,6.78-11.64,10.45-24.37,12.47-37.58,.72-4.75,1.14-9.55,1.53-14.33-1.82,6.33-3.42,12.72-5.51,18.96-5.5,16.42-13.46,31.53-25.64,44.2-6.88,7.16-14.95,12.54-24.85,14.92-14.56,3.5-28.07-2.65-34.75-15.81-3.89-7.67-5.5-15.96-7.06-24.28-.14-.76-.26-1.52-.44-2.6,5.47,3.5,10.36,7.2,13.55,12.61,2.22,3.76,4.03,7.76,6.31,11.48,2.03,3.32,4.06,6.77,6.78,9.51,4.65,4.69,10.64,5.58,17.41,4.21-.55-.33-.76-.54-1.02-.6-5.91-1.45-10.26-5.09-13.48-9.94-3.14-4.73-5.79-9.76-8.68-14.65-3.95-6.71-9.29-12.09-15.89-16.33-5.3-3.41-10.65-6.78-15.66-10.58-2.8-2.12-4.96-5.06-7.21-7.84,3.71-.43,6.82,.76,9.8,2.28,7.42,3.81,13.39,9.44,19.36,15.06,.52,.49,.94,1.08,1.73,1.99,0-.76,.07-1,0-1.17-5.47-11.85-14.03-20.41-27.02-23.9-7.02-1.88-13.45-.18-19.06,4.42-.38,.31-.76,.64-1.36,1.15-.25-3.9,.2-7.41,1.38-10.79,4.7-13.39,14.49-21.54,27.78-25.98,7.99-2.67,16.29-3.76,24.67-4.31,5.94-.39,11.81-1,17.42-3.18,10.92-4.24,16.54-12.54,18.24-23.58,1.54-10.07,.12-19.97-2.77-29.69-.07-.23-.25-.44-.55-.97,.68,9.17,.63,18-1.07,26.69-.92,4.68-2.31,9.36-4.23,13.73-3.09,7.01-8.59,11.21-16.63,11.66-2.9,.16-5.79,.4-9.18,.64,.73-.8,1.16-1.3,1.62-1.78,3.02-3.1,6.11-6.13,9.04-9.31,7.06-7.67,10.96-16.81,12.28-26.98,1.11-8.51,1.78-17.08,2.83-25.61,1.53-12.46,4.65-24.47,12.27-34.8,12.07-16.37,28.7-23.69,48.95-21.94,23.41,2.02,38.18,15.62,47.02,36.31,3.66,8.57,5.05,17.74,7.11,26.73,3.32,14.47,7.91,28.45,16.15,41.03,3.82,5.83,8.31,11.1,13.96,15.33,2.95,2.2,6.09,4.01,9.79,4.85-8.88-6.48-15.63-14.58-20.28-25.07,6.3,5.7,12.14,11.03,18.03,16.29,3.96,3.53,7.81,7.23,12.07,10.38,5.66,4.19,12.3,6.45,19.64,8.14-3.01,3.77-4.3,8.42-8.14,11.3-2.88,2.16-6.44,2.3-9.85,2.37-4.07,.08-8.15-.23-12.42-.38,.94,.54,1.8,1.09,2.7,1.55,5.7,2.9,11.66,4.56,18.13,3.29,3.56-.7,6.55-2.47,8.61-5.45,1.74-2.52,3.27-5.19,4.88-7.8,2.33-3.76,5.02-7.19,8.84-9.61,3.31-2.1,6.85-2.13,9.65-.13,1.57,1.12,2.58,2.68,2,4.54-1.27,4.06-.39,7.67,1.75,11.18,.63,1.03,.98,2.22,1.44,3.3-2.6-.55-5.05-1.34-7.54-1.56ZM132.92,86.55c1.53,2.34,2.7,4.47,4.18,6.35,5.07,6.42,12.36,8.04,19.78,4.47,4.71-2.26,8.48-5.72,12.03-9.42,1.54-1.61,3.03-3.26,4.6-4.95,.13,.18,.3,.31,.3,.45,.12,13.84-1.56,27.41-6.85,40.32-1.41,3.44-3.4,6.82-5.8,9.66-4.07,4.82-9.63,5.39-15.11,2.08-6.42-3.88-10.24-9.81-13.04-16.48-2.94-7.02-3-14.32-1.86-21.69,.54-3.52,1.14-7.03,1.75-10.79Zm-21.68-32.18c.64-2.88,1.35-6.63,2.37-10.29,.4-1.45,1.33-2.84,2.28-4.06,2.61-3.34,6.16-4.06,9.77-1.8,1.8,1.13,3.57,2.6,4.75,4.31,6.41,9.3,7.91,19.37,4.15,30.06-.53,1.51-1.41,2.96-2.39,4.24-3.12,4.09-7.54,4.52-11.51,1.2-4.64-3.88-6.96-9.07-8.21-14.77-.57-2.59-.74-5.27-1.22-8.88Zm4.71-.84c.14,.05,.29,.11,.43,.16,0,.39-.14,.86,.03,1.15,.49,.85,.95,2.01,1.71,2.31,.58,.23,1.85-.48,2.41-1.12,1.63-1.89,2.38-4.22,2.04-6.67-.13-.93-.92-2.31-1.65-2.47-.77-.17-2.18,.64-2.66,1.41-1,1.61-1.56,3.47-2.3,5.23Zm68.25,3.86c.03,5.71-.86,10.51-3.76,14.77-1.8,2.63-4.23,4.55-7.61,3.76-1.82-.42-3.73-1.44-5.09-2.72-4.91-4.6-6.91-10.6-7.76-17.05-.63-4.77-.42-9.51,1.25-14.03,.77-2.08,2.01-4.1,3.47-5.79,2.19-2.53,5.22-2.92,8.26-1.43,4.19,2.06,6.58,5.71,8.39,9.75,1.91,4.26,2.95,8.73,2.85,12.75Zm-19.99-7.39l.33,.14c.02,.39-.07,.84,.09,1.15,.48,.92,1.06,1.79,1.61,2.67,.86-.51,2.16-.83,2.48-1.57,.86-1.97,1.5-4.09,1.81-6.21,.12-.82-.84-2.49-1.42-2.54-.93-.08-2.33,.63-2.85,1.43-.95,1.48-1.4,3.27-2.06,4.93Zm21.23,89.44c2.61,6.02,5.35,11.99,7.8,18.07,4.79,11.89,8.13,24.17,9.39,36.93,1.12,11.33,.85,22.52-4.21,33.08-4.55,9.51-11.45,16.46-22.17,19.03-.26,.06-.51,.13-.77,.16-.78,.11-1.56,.2-2.58,.32,.3-.32,.42-.54,.61-.64,11.05-5.4,16.97-14.66,20.12-25.99,2.51-9.03,2.72-18.25,2.18-27.51-1.02-17.46-5.37-34.27-10.25-50.97-.22-.74-.44-1.48-.65-2.21,.18-.09,.36-.18,.54-.27Zm-76.92-28.86c-1.57,17.08-6.67,32.83-19.15,45.44-12.76,12.9-31.99,15.85-47,7.35-1.99-1.13-3.75-2.65-5.61-3.99-.57-.41-1.13-.83-1.39-1.56,3.07,1.1,6.09,2.37,9.21,3.27,15.35,4.44,28.67,.48,40.28-9.85,11.45-10.19,18.58-22.99,22.75-37.5,.3-1.05,.61-2.11,.91-3.16Zm46.74,150.4c-4.73-1.71-8.41-4.41-11.92-7.36-2.66-2.23-5.22-4.61-8.04-6.63-6.32-4.53-12.81-4.71-19.31-.43-3.16,2.08-5.98,4.65-9.08,7.1,.62-4.1,2.24-7.64,5.09-10.61,7.08-7.39,17.18-7.89,25.81-1.11,2.35,1.85,4.38,4.13,6.38,6.36,1.83,2.05,3.32,4.38,5.12,6.45,1.79,2.06,3.78,3.96,5.95,6.22Z"/>
  </g>
</svg>