<?xml version="1.0" encoding="UTF-8"?>
<svg id="Layer_2" data-name="Layer 2" xmlns="http://www.w3.org/2000/svg" viewBox="0 0 421.5 271.89">
  <g id="Layer_1-2" data-name="Layer 1">
    <path d="M28.86,144.02c-7.96,3.51-15.54,3.74-23.32,1.75-1.26-.32-2.5-.87-3.54-1.52-2.76-1.72-2.67-4.17,.34-5.61,4.56-2.17,8.81-4.61,11.69-8.18,2.08-2.58,3.91-5.31,5.65-8.04,1.67-2.62,2.95-5.4,4.64-8.01,4.64-7.15,10.96-12.88,21.36-14.94,9.22-1.83,17.67,.11,25.72,3.52,5.23,2.22,10.27,4.7,15.52,6.89,9.1,3.8,15.45,4.69,26.65-2.96,8.79-6.01,13.91-14.05,18.27-22.38,4.75-9.07,6.93-18.65,9.25-28.22,2.34-9.63,4.57-19.3,10.24-28.17,9.32-14.61,23.77-24.22,44.47-27.25,18.33-2.68,35.07,.94,50.25,9.14,16.95,9.16,26.86,22.15,32.3,37.49,2.77,7.83,5.46,15.69,8.73,23.39,2.63,6.18,6.89,11.76,13.08,16.27,14.15,10.3,32.37,8.33,42.37-4.59,2.51-3.25,4.72-6.64,7.24-9.89,3.37-4.33,7.49-8.14,13.52-10.31,10.13-3.65,22.06-1.51,29.57,5.85,3.94,3.87,6.61,8.52,10.14,12.67,2.19,2.58,4.81,4.95,7.44,7.26,1.19,1.04,2.95,1.14,4.73,.58,1.88-.59,3.85-.93,5.36,.55,1.48,1.45,1.08,3.05,.07,4.52-3.71,5.45-9.56,8.89-16.84,11.01-.85,.25-1.86,.95-2.07,1.59-1.62,4.82-4.43,9.11-8.86,12.67-7.98,6.41-11.84,14.36-14.03,22.93-1.07,4.18-1.91,8.41-3.01,12.59-3.38,12.9-17.23,22.12-33.92,22.43-4.39,.08-8.81-.39-13.21-.6-1.1-.05-2.19-.12-3.29-.13,14.69,2.54,23.52,10.01,27.05,21.05,4.65,14.54-.25,27.22-15.03,36.9-11.26,7.38-24.44,9.16-38.57,6.09-2.03-.44-2.83-.17-3.85,1.3-2.06,2.94-4.58,5.68-6.96,8.56,4.12,.28,8.58,.46,13,.93,7.98,.84,15.94,1.8,23.89,2.82,1.47,.19,2.93,.72,4.23,1.32,1.75,.81,1.8,1.89-.03,2.53-2.69,.94-5.52,1.84-8.4,2.21-8.63,1.09-17.28,2.19-25.98,2.76-18.48,1.22-36.76,3.34-54.92,6.24-25.5,4.06-50.89,3.65-76.42-.19-15.4-2.32-31.03-3.72-46.55-5.56-9.81-1.16-19.62-2.34-29.41-3.62-1.72-.22-3.42-.84-4.96-1.51-2.33-1.02-2.38-2.47,.1-3.17,3.96-1.12,8.09-1.98,12.24-2.58,5.42-.78,10.92-1.2,16.61-1.79-.38-.39-.66-.76-1.03-1.07-10.41-8.58-13.51-20.61-5.54-31.44,7.01-9.53,.23-24.26-12.62-28.55-8.1-2.7-16.29-5.1-25.37-4.1-2.94,.33-5.92,.51-8.85,.9-13.22,1.77-23.23-6-25.54-14.56-.69-2.58-.6-5.29-.71-7.95-.2-4.92-.08-9.86-.5-14.77-.14-1.67-1.53-3.27-2.42-5.03Zm222.47,105.88c3.9,1.74,9.39,2.59,13.54,2.34,16.88-1.02,33.46-15.93,25.42-31.84-2.87-5.67-5.54-11.53-7.03-17.49-2.69-10.77,.91-20.19,12.66-26.9,9.43-5.38,20.28-5.95,31.44-5.2,4.65,.31,9.32,.69,13.98,.67,11.93-.05,20.73-4.57,25.93-12.79,2.6-4.11,4.21-8.73,5.34-13.26,2.78-11.14,7.24-21.53,18.07-29.6,.67-.5,1.31-1.11,1.66-1.76,1.36-2.56,2.68-5.13,3.81-7.75,.18-.41-.5-1.42-1.08-1.62-4.41-1.47-6.59-4.27-7.73-7.72-.31-.92-.37-1.9-.54-2.85,1.03,1.1,1.56,2.23,2.26,3.29,2.82,4.27,7,5.62,12.72,4.05,5.34-1.47,9.73-4.06,13.39-7.41,.65-.6,1.05-1.36,1.88-2.47-5.33,1.28-9.95,2.33-14.78,.65-4.36-1.52-8.69-5.11-9.26-8.06,3.56,2.86,7.54,5.01,12.24,5.72-2.69-3.46-5.28-6.96-8.06-10.35-2.38-2.9-4.57-6-7.58-8.47-7.88-6.45-21.23-7.69-30.11,.38-2.1,1.9-3.85,4.07-5.55,6.21-2.74,3.45-5.04,7.14-8.02,10.45-7.73,8.6-18.26,12.57-31.72,10.75-11.73-1.59-20.07-7.17-26.49-14.69-6.57-7.69-10.13-16.38-12.96-25.27-2.78-8.73-5.3-17.55-11.21-25.4-13.76-18.29-33.63-28.55-61.28-27.58-14.69,.52-26.89,5.78-36.42,14.58-7.72,7.13-11.97,15.63-14.52,24.65-2.56,9.05-4.36,18.24-7.24,27.22-5.28,16.48-13.17,31.9-31.86,42.49,7.45-1.23,14.1-3.34,19.53-7.54-.68,1.1-1.38,2.13-2.41,2.89-8.4,6.24-18.39,9.17-29.95,8.53-8.38-.47-15.58-3.45-22.63-6.75-3.86-1.81-7.73-3.62-11.75-5.21-4.75-1.87-9.79-3.04-15.22-2.49-9.12,.93-15.63,4.97-20.2,10.98-2.56,3.37-4.69,6.96-6.72,10.55-3.37,5.96-8.51,10.55-15.84,13.64-.89,.37-1.6,.99-2.75,1.71,5.51,2.09,10.66,2.19,15.87,1.06,7.6-1.64,12.15-5.98,15.14-11.35,1.67-2.99,2.55-6.24,3.79-9.36,1.16,3.22,.62,6.56-.74,9.68-1.37,3.16-3.52,6.1-5.4,9.27,2.95,1.88,4.62,4.71,5.09,7.91,.46,3.1,.55,6.24,.68,9.37,.18,4.26-.34,8.59,.51,12.76,1.16,5.73,7.34,10.41,13.6,10.41,6.1,0,12.19-.83,18.62-1.31-6.07-3.89-10.29-8.49-13.22-13.87-4.51-8.29-4.93-16.96-4.17-25.76,.45-5.16,.39-10.28-1.61-15.27-3.12-7.81-8.14-10.61-18.25-10.25,4.51-2.84,10.09-3.29,14.44-.53,2.68,1.7,5.01,4.02,6.62,6.42,3.38,5.04,3.47,10.63,3.4,16.22-.07,5.27-.43,10.58,.33,15.79,2.17,14.72,12.07,24.67,30.38,29.25,7.34,1.83,14.58,3.98,21.69,6.31,5.16,1.69,9.48,4.45,12.43,8.31,.78,1.02,1.33,2.16,1.99,3.24-6.41-5.21-14.39-9.06-20.02-9.24,.37,.37,.65,.69,.99,.98,7.13,6.21,11.53,20.89,4.12,30.44-5.73,7.38-4.27,14.88,2.63,21.59,7.52,7.31,17.11,11.93,29.1,13.04,8.01,.74,15.62-.19,22.01-4.53,5.04-3.43,7.92-7.98,10.38-12.69,5.29-10.11,8.08-20.77,10.79-31.43,1.28-5.06,2.47-10.14,3.7-15.21,.41,.77,.41,1.49,.29,2.2-1.13,6.48-2.1,12.98-3.48,19.43-2.99,13.95-5.99,27.93-16.57,40.6,4.24,2.06,8.2,4.61,12.72,6.08,16.03,5.22,32.07,4.03,47.84-.94,7.94-2.5,13.28-7.01,15.86-13.49,1.41-3.55,3.74-6.69,7.06-9.39,5-4.07,6.69-8.87,4.77-14.38-.65-1.86-1.28-3.73-2.06-5.56-6.71-15.85-12.69-31.82-13.78-48.65-.72-11.02-.06-22,1.55-33.41,.18,.64,.28,.83,.28,1.01-.06,2.27-.07,4.54-.22,6.81-1.17,18.64,1.72,36.91,8.47,54.78,3.02,7.98,6.55,15.84,9.81,23.77,2.28,5.56,1.86,10.99-2.98,15.53-4.1,3.85-6.17,8.21-7.41,13.11Zm52.22-21.45c3.85,3.32,8.59,4.7,14.33,4.24,7.82-.62,13.87-3,17.03-9.1,4.82-9.31,4.87-18.65,1.14-28.14-.95-2.41-2.4-4.54-4.86-6.21-3.48-2.35-7.36-3.4-12.02-2.64-4.15,.67-8.4,.94-12.54,1.64-4.14,.69-7.66,2.8-8.82,5.76-1.81,4.6-2.48,9.48-3.39,14.28-.44,2.34,.34,4.17,3.55,5.49,6.68,2.74,13.53,4.57,20.99,3.17,4.39-.82,8.51-2.5,12.77-3.75,.74-.22,2-.5,2.31-.24,.51,.44,.68,1.32,.55,1.96-.18,.9-.56,1.86-1.22,2.59-2.26,2.48-4.37,5.12-7.1,7.25-6.43,5-14.03,6.46-22.7,3.72Zm33.83-38.4c.67,1.71,1.23,3.3,1.91,4.86,1.86,4.25,3.15,8.57,2.91,13.11-.09,1.72-.51,3.28-1.3,4.96-1.39,2.95-1.83,6.19-2.68,9.3-.27,.98-1.22,1.95,.64,2.73,2,.84,2.84-.01,3.78-1.16,3.46-4.22,5.48-8.79,6.14-13.8,.87-6.65-.78-12.84-5.08-18.58-1.48-1.98-2.92-2.26-6.32-1.43Zm-85.09-117.14c-.26-2.13-.35-4.53-3.29-5.47-2.97-.95-4.91,.93-6.74,2.37-2.51,1.99-4.74,4.2-7.3,6.15-6.86,5.24-14.96,7.75-24.61,6.44-6.8-.92-12.48-3.71-17.93-6.85-2.05-1.18-4.08-2.43-6.33-3.34-3.38-1.37-6.37-.22-7.14,2.71-.44,1.68-.61,3.46-.46,5.17,.85,9.58,4.69,18.41,11.48,26.39,2.11,2.48,4.55,4.87,7.32,6.9,11.72,8.63,26.04,8.35,36.95-.92,12.2-10.37,17.03-23.12,18.07-36.94,0-.87,.09-1.74-.02-2.6Zm-69.03-11.55c4.57,4.59,10.75,4.33,14.78-.58,5.23-6.37,4.6-17.27-1.34-23.26-4.36-4.4-10.53-4.22-14.52,.41-2.82,3.28-3.53,7.01-3.77,10.7,.22,4.67,1.17,9.04,4.85,12.73Zm50.35-4.89c4.5,4.6,10.58,4.37,14.56-.47,5.18-6.29,4.35-17.44-1.73-23.22-4.77-4.53-10.88-4.16-14.66,.92-2.34,3.14-3.04,6.61-3.04,10.19,.03,4.57,1.25,8.88,4.87,12.57Zm-69.61,96.52c-3.74,12.59-7.28,25.22-11.28,37.76-3.02,9.46-7.04,18.69-13.64,27.06-6.3,7.99-14.49,13.95-27.03,15.07-.26,.02-.49,.24-.9,.46,6,.41,11.45-.72,16.71-3.35,8.08-4.03,13.73-9.72,17.82-16.38,11.96-19.47,16.4-40.39,18.76-61.71-.15,.36-.32,.72-.43,1.08Zm110.75-69.74c1.94,13.3,6.34,26.02,14.92,37.71,6.54,8.89,14.59,16.71,25.82,22.25,.73,.36,1.52,.66,2.28,.99-.45-.8-1.22-1.22-1.87-1.73-4.2-3.29-8.74-6.37-12.48-9.96-10.24-9.84-16.89-21.23-21.44-33.34-3.17-8.45-5.69-17.06-8.29-24.98,.29,2.57,.57,5.83,1.05,9.07Zm36.63,124.01c-2.28-4.73-4.41-9.15-6.55-13.57-.26-.02-.53-.04-.79-.06-2.28,4.44-4.57,8.88-7.01,13.63h14.35Zm13.49-12.86c-2.19,4.24-4.38,8.48-6.64,12.83h14.14c-2.3-4.51-4.43-8.68-6.55-12.84-.32,0-.63,0-.95,0Z"/>
  </g>
</svg>