<?xml version="1.0" encoding="UTF-8"?>
<svg id="Layer_2" data-name="Layer 2" xmlns="http://www.w3.org/2000/svg" viewBox="0 0 266.41 282.26">
  <g id="Layer_1-2" data-name="Layer 1">
    <path d="M134.72,272.83c-8.95,3.13-17.79,5.84-27.24,6.34-5.33,.28-10.58-.11-15.6-1.84-9.43-3.24-13.95-9.9-15.32-18.67-.13-.85-.33-1.7-.48-2.55-.88-4.87-3.45-8.31-8.9-9.99-8.08-2.49-15.22-6.48-20.51-12.74-2.06-2.43-3.96-5.02-5.57-7.72-2.48-4.15-5.7-7.37-10.52-9.37-4.4-1.82-5.07-6.38-1.65-9.5,.57-.52,1.18-1.04,1.85-1.44,6.71-3.88,9.42-9.7,9.47-16.65,.09-11.01-4.49-20.33-13.08-27.96-4.41-3.92-9.02-7.68-13.77-11.25-7.52-5.66-11.55-12.97-12.83-21.6-1.8-12.17,.64-23.61,8.05-33.97,3.46-4.85,7.74-9,14.17-10.49,2.17-.5,4.6-.67,6.8-.34,4.98,.74,6.81,3.1,6.87,7.7,.03,2.58-.05,5.25,.62,7.71,2.76,10.13,15.12,13.23,23.32,5.93,5.15-4.58,7.98-10.38,10.01-16.51,4.17-12.63,7.86-25.35,10.26-38.39,1.78-9.68,5.49-18.83,11.51-27.05C101.3,10.05,114.06,2.66,130.33,.61c15.66-1.97,30.22,.77,43.03,9.53,10.62,7.26,17.1,17.16,20.24,28.73,1.94,7.16,3.01,14.53,4.16,21.85,1.6,10.19,2.51,20.48,5.78,30.4,1.45,4.39,3.68,8.37,7.76,11.26,3.37,2.39,7.23,3.04,11.33,2.23,3.81-.75,6.84-3.97,7.31-7.82,.26-2.13,.24-4.32,.11-6.46-.44-7.47,4.52-11.68,12.73-10.67,10.94,1.34,17.35,7.66,20.89,16.55,5.87,14.7,2.94,32.44-15.12,44.23-8.6,5.61-15.76,12.45-20.43,21.23-4.92,9.25-6.77,18.83-3.57,28.91,2.56,8.05,7.65,14.41,15.66,18.62,6.42,3.37,11.75,7.67,14.2,14.17,1.14,3.03,1.73,6.36,1.82,9.57,.13,4.62-3.72,6.33-7.97,3.86-3.17-1.84-5.86-1.88-8.29,.74-2.23,2.4-3.86,5.31-5.48,8.12-1.18,2.06-1.92,4.34-2.85,6.52-4.1,9.64-12.08,14.16-23.17,14.57-5.55,.2-11.12,.18-16.64,.67-9.02,.81-16.95,4.3-24.56,8.65-3.69,2.11-7.64,4.07-11.75,5.29-8.29,2.47-15.27-.25-19.78-7.05-.31-.47-.64-.92-1.02-1.47Zm-96.33-62.04c4.53,2.23,7.61,6.14,10.11,10.56,4.62,8.19,11.61,13.93,21.06,17.35,8.86,3.21,17.62,6.67,26.31,10.24,3.37,1.38,6.67,3.08,9.61,5.11,4.98,3.43,4.17,7.32-1.71,9.34-3.47,1.19-7.09,1.39-10.79,.91,.73-.28,1.52-.33,2.26-.56,1.91-.59,3.97-1,5.62-1.97,1.23-.72,2.36-2.12,2.64-3.38,.13-.57-1.78-1.86-3-2.28-4.35-1.52-8.81-2.8-13.22-4.18-1.1-.34-2.19-.71-3.43-1.12,.7,3.08,1.35,5.84,1.96,8.61,1.41,6.42,5.77,10.14,12.7,11.45,6.83,1.29,13.55,.36,20.05-1.45,8.41-2.34,16.66-5.12,24.99-7.7,6.59-2.04,13.26-3.59,20.31-2.39,1.1,.19,2.21,.3,3.61,.49-1.42-4.04-2.43-7.75,2.33-10.16-17.05-25.38-20.86-62.98-17.62-73.79,.24,11.57,2.38,22.53,5.78,33.32,3.46,11,7.81,21.68,13.45,31.9,1.24,2.26,2.84,4.35,4.2,6.55,1.31,2.12,1.36,3.61-.49,4.8-2.76,1.77-3.67,3.91-2.93,6.8,.07,.29,.03,.62,.02,.92-.09,2.34-1.24,3.89-3.77,4.45-1.62,.36-3.36,.46-5.03,.36-7.37-.44-13.88,2.08-20.41,4.67,1.96,3.47,4.89,4.8,8.84,4.3,4.07-.51,7.28-2.57,10.54-4.57,11.41-7,24.06-10.27,37.73-10.49,3.59-.06,7.19-.05,10.77-.31,4.68-.33,8.38-2.38,10.84-6.03,1.02-1.51,1.75-3.19,2.54-4.82,1.63-3.32,2.98-6.77,4.87-9.95,3.74-6.31,8.9-10.91,17.93-10.41-.7-1.27-1.18-2.35-1.84-3.32-2.23-3.26-5.3-5.73-8.93-7.68-14.71-7.89-21.83-19.89-22.21-35.2-.26-10.28,3.56-19.62,9.36-28.33,.43-.64,.87-1.27,1.1-1.61-6.52,1.03-13.1,2.06-19.67,3.12-4.59,.74-9.29,1.14-13.72,2.36-6.64,1.82-9.94,6.4-9.98,12.69-.02,4.52,1.2,8.81,3.12,12.92,7.02,15.02,19.49,25.15,35.31,32.08,5.72,2.51,11.74,4.43,17.6,6.67,1.35,.52,2.6,1.25,3.89,1.88-6.68-1.34-13.26-2.77-19.74-4.49-22.31-5.93-36.83-19.05-43.26-39.45-1.43-4.54-2.07-9.22-.9-13.92,2.09-8.38,8.45-12.86,17.16-14.73,5.58-1.2,11.34-1.71,16.99-2.67,14.57-2.49,27.19-8.43,37.75-17.95,11.21-10.11,10.19-26.87,3.89-35.68-2.93-4.1-6.85-6.76-12.5-6.81-1.55-.01-1.88,.46-1.87,1.85,.04,3.14,.32,6.38-.42,9.4-3.42,14.13-20.46,17.25-31.21,10.63-6-3.69-9.43-9.09-11.64-15.21-3.08-8.56-3.87-17.52-5.33-26.36-1.37-8.29-2.29-16.67-4.16-24.86-2.26-9.88-7.41-18.5-16-25.16-7.67-5.95-16.69-9.02-26.58-10.09-14.4-1.56-27.12,1.84-37.81,10.92-7.98,6.78-12.78,15.33-15.42,24.8-1.79,6.44-2.37,13.15-4.02,19.62-2.5,9.78-5.36,19.49-8.25,29.19-1.45,4.85-3.92,9.32-7.15,13.42-6.62,8.42-15.96,11.87-26.38,9.25-3.52-.89-6.69-2.9-9.5-4.17,.51,.55,1.47,1.63,2.47,2.68,8.56,8.96,24.48,10.47,33.72-1.86,3.32-4.43,5.44-9.33,7.05-14.77,.2,.71,.41,1.12,.4,1.52-.05,1.73-.02,3.47-.28,5.17-1.65,10.84-10.48,24.08-29.3,21.19-8.79-1.35-16.45-7.41-18.05-15.28-.68-3.36-1.38-6.7-2.22-10.04-.71-2.83-.57-5.85-.82-8.99-.97,.24-2.03,.41-3.01,.76-4.96,1.78-7.93,5.44-10.47,9.45-5.01,7.92-6.06,16.53-5.18,25.44,.9,9.07,5.64,15.97,14.32,20.55,2.87,1.51,5.75,3.04,8.78,4.25,8.23,3.3,16.78,5.17,25.87,4.25,4.91-.5,9.48-1.94,13.84-4.01,3.26-1.55,6.49-1.29,8.97,1.08,2,1.92,3.77,4.22,4.95,6.63,2.17,4.45,2.38,9.32,1.55,14.03-3.35,19.04-14.5,33.17-33.07,42.4-2.13,1.06-4.53,1.68-6.8,2.5-.06-.14-.13-.28-.19-.42,1.1-.58,2.23-1.12,3.29-1.75,14.75-8.69,24.05-21.12,29.59-36.05,2.32-6.26,2.82-12.72,.69-19.13-1.56-4.7-3.8-6.88-9.66-3.94-7.16,3.6-15,4.91-23.17,3.94-3.52-.42-7-1.06-10.61-1.62,.61,.78,1.19,1.53,1.77,2.28,6.69,8.7,10.38,18.25,9.71,28.99-.37,5.9-2.01,11.45-6.04,16.22-1.4,1.65-2.94,3.2-4.48,4.85ZM118.18,99.26c3.12,4.67,6.75,8.97,11.85,12.02,5.62,3.37,10.98,3.18,16.05-.77,7.95-6.2,12.47-14.3,15.14-23.36,1.37-4.66,1.81-9.37-.26-13.99-1.18-2.65-2.18-2.89-4.87-1.49-13.87,7.21-27.61,8.05-41.13-.78-1.65-1.08-2.79-.93-3.5,.83-.85,2.1-1.21,4.36-1.78,6.55,1.07,7.72,4.2,14.55,8.5,20.99Zm44.78-63.26c-3.87-4.85-8.99-4.81-12.73,.13-3.84,5.07-4.38,10.78-3.47,16.68,.6,3.88,2.26,7.36,5.42,10.11,2.65,2.3,6.04,2.42,8.78,.21,1.15-.93,2.18-2.05,3-3.23,2.23-3.22,3-6.83,3.1-10.6,0-4.78-.95-9.33-4.1-13.29Zm-53.51,26.23c3.2,3.22,7.07,3.26,10.39,.14,.7-.66,1.31-1.42,1.85-2.19,4.6-6.55,4.38-17.5-.46-23.91-3.88-5.13-9.23-5.1-13.03,.12-.78,1.07-1.56,2.22-1.91,3.44-.85,2.89-1.44,5.85-2.13,8.77,.48,5.06,1.48,9.79,5.29,13.63Zm-16.26,15.49c-.77,5.44-1.74,10.87-2.19,16.34-.89,10.68-.77,21.37,.84,31.99,1.26,8.31,3,16.56,4.29,24.86,2.71,17.49-1.37,33.6-12.31,48.23-.34,.45-.61,.95-.91,1.42,.15,.11,.3,.21,.45,.32,.22-.32,.39-.67,.65-.94,12.07-12.48,17.75-27.01,17.2-43.65-.28-8.56-2.1-16.9-3.69-25.29-2.12-11.2-3.82-22.44-3.91-33.83-.06-7.15-.01-14.31-.01-21.04-.05,.18-.31,.88-.41,1.6Zm144.43,30.73c-3.93,3.98-8.64,6.79-14.58,7.37-10.31,1-18.51-2.7-24.98-9.81-6.36-6.98-9.2-15.27-10.4-24.12-.12-.88-.29-1.75-.44-2.63-.27,.02-.55,.05-.82,.07,.27,4.11,.14,8.28,.9,12.3,2.08,10.98,7.78,19.97,18.81,25.45,7.26,3.61,15,4.71,22.85,1.69,5.55-2.14,8.96-6.1,9.96-11.67-.44,.45-.87,.9-1.31,1.34Z"/>
  </g>
</svg>