<?xml version="1.0" encoding="UTF-8"?>
<svg id="Layer_2" data-name="Layer 2" xmlns="http://www.w3.org/2000/svg" viewBox="0 0 252.48 263.57">
  <g id="Layer_1-2" data-name="Layer 1">
    <path d="M202.22,85.57c-.78,5.64,2.79,8.56,6.02,11.67,3.59,3.44,6.92,7.09,7.98,12.34,1.48,7.29-.05,13.69-5.31,18.83-4.16,4.06-4.31,4.8-1.75,10.15,3.09,6.45,1.41,12.22-4.57,15.7-.77,.45-1.56,.86-3.13,1.73,5.94,4.03,11.28,8,16.93,11.39,9.26,5.56,19.26,9.21,29.56,11.87,2.62,.68,3.78,2.12,4.18,4.84,1.28,8.54-1.09,15.56-7.66,20.68-3.05,2.38-6.46,4.23-9.61,6.47-1.8,1.27-3.68,2.61-5.04,4.34-1.05,1.34-1.5,3.31-1.96,5.07-.37,1.39-.26,2.92-.51,4.35-.9,5.17-4.44,8.32-9.36,8.27-2.01-.02-4.02-.31-6.03-.52-4-.41-5.6,.71-6.87,4.79-.46,1.47-.77,3.05-1.5,4.35-.93,1.67-1.93,3.79-3.41,4.53-3.31,1.66-4.98,4.56-6.85,7.58-2.87,4.63-7.58,6.45-12.33,7.51-22.15,4.94-42.75,1.25-60.92-13.75-3.09-2.55-5.53-2.82-8.6-.72-1.83,1.26-3.75,2.36-5.61,3.57-8.83,5.77-17.98,4.8-25.03-3.34-3.36-3.88-5.9-8.59-8.71-13-2.18-3.42-4.01-7.1-6.31-10.41-5.84-8.42-13.89-12.5-23.56-13.55-7.13-.77-14.34-1.45-21.27-3.22-7.86-2.01-14.11-7.12-18.3-14.7-3.96-7.16-3.55-12.34,1.26-18.78,2.72-3.63,2.72-4.93,.78-9.15-1.16-2.52-2.42-5.18-2.74-7.9-.8-6.75,2.35-11.58,7.63-14.93,6.16-3.91,7.03-6.35,4.94-13.81-1.45-5.19-3.09-10.34-4.1-15.63-.98-5.15-.36-10.34,1.83-15.15,3.39-7.43,9.47-10.46,16.76-11.43,1.52-.2,3.06-.3,4.57-.6,4.21-.84,7.24-3.23,8.58-7.73,.19-.64,.43-1.26,.79-2.3,2.09,2.92,2.56,5.97,1.66,8.93-.88,2.9-2.29,5.68-3.82,8.28-2.94,4.98-2.54,10.22,1.4,14.52,3.59,3.91,8.47,4.48,13.03,1.34,5.12-3.52,8.02-8.86,10.18-14.74,3.34-9.1,3.9-18.63,3.68-28.25-.2-8.71,.79-17.24,3.6-25.42C79.24,20.69,90.86,7.1,109.51,1.75c20.45-5.87,41.55,3.34,53.87,23.02,9.19,14.69,12.32,30.89,10.24,48.33-1.25,10.46-2.41,20.9-.21,31.4,.41,1.97,1.21,2.91,2.99,3.43,7.64,2.2,13.3-.68,16.59-8.4,1.5-3.52,3.09-7.01,4.94-10.32,.85-1.52,2.44-2.57,3.69-3.83l.59,.19Zm-165.47,3.94c-4.04,.73-7.41,1.14-10.69,1.97-6.77,1.71-11.06,7.2-11.02,14.73,.02,4.07,.87,8.18,1.72,12.18,.86,4.02,2.42,7.87,3.25,11.89,1.25,5.99-.85,10.85-5.69,14.18-1.15,.79-2.35,1.52-3.5,2.3-3.48,2.37-4.7,5.87-3.98,10.04,.31,1.81,1.11,3.62,2.03,5.21,2.99,5.17,2.55,9.78-1.11,14.46-3.93,5.02-3.96,8.27-.63,13.85,4.14,6.94,10.28,11.04,17.63,12.66,5.66,1.25,11.51,1.64,17.29,2.17,9.34,.85,17.85,3.89,24.13,11.55,3.91,4.76,6.95,10.33,10.42,15.5,2.77,4.12,5.21,8.59,8.48,12.2,5.28,5.84,11.88,6.17,18.3,1.8,2.24-1.53,4.58-2.91,6.84-4.41,3.88-2.57,7.44-2.41,11.1,.75,11.56,10,24.95,14.97,39.72,15.8,7.8,.43,15.49-.25,22.89-3.24,3.09-1.25,5.49-3.22,6.7-6.64,.87-2.45,2.51-3.95,4.79-5.12,1.59-.82,2.88-2.6,3.95-4.22,.76-1.14,.91-2.74,1.35-4.12,1.83-5.73,5.41-8.03,11-7.26,2,.28,4.03,.4,6.04,.38,3.28-.03,5.09-1.66,5.09-5.19,0-7.75,3.73-12.68,9.76-16.28,3.45-2.06,6.85-4.27,10-6.8,4.07-3.26,5.42-7.97,5.15-13.29-.08-1.58-.64-2.5-2.21-2.85-2.29-.51-4.54-1.21-6.78-1.92-25.07-7.97-45.48-22.52-59.08-47.04-10.22-18.43-14.48-37.95-11.13-59.26,2.78-17.69-.08-34.26-9.94-48.97C140.98,.21,109.3-1.84,89.33,20.14c-11.31,12.45-15.54,27.81-15.65,44.88-.05,7.38-.45,14.86-1.67,22.11-1.54,9.12-5.16,17.42-12.06,23.6-8.81,7.89-20.79,4.72-24.83-6.57-1.75-4.89-1.49-9.62,1.62-14.66Zm138.93,23.66c.1,.44,.16,.85,.29,1.23,4.35,12.79,10.95,24.16,18.96,34.68,1.77,2.32,3.65,2.57,5.93,1.29,1.06-.6,2.13-1.25,3.06-2.06,2.3-2.01,2.63-3.73,1.46-6.61-.8-1.97-1.67-3.92-2.32-5.95-1.12-3.48-.18-6.42,2.35-8.85,1.2-1.15,2.46-2.26,3.5-3.58,3.48-4.44,4.28-9.43,2-14.71-2.4-5.58-7.3-8.72-11.21-13.13-4.32,13.62-10.89,20.08-24.02,17.68Zm-54.58-5.15c2.35-1.16,5.07-1.85,6.98-3.57,4.85-4.37,6.09-10.54,6.13-17.01,.01-1.68-1.11-2.24-2.54-1.57-6.97,3.27-13.89,3.16-20.85-.11-1.86-.87-2.96-.09-2.76,2.03,.33,3.49,.62,7.08,1.66,10.36,1.86,5.86,6.23,9.18,11.07,9.19,.1,.23,.2,.45,.3,.68Zm11.2-35.64c3.27,5.32,8.98,5.6,12.69,.62,4.04-5.43,4.08-15.56,.08-21.34-3.58-5.17-9.26-5.04-12.59,.35-1.97,3.19-2.7,6.77-2.6,10.21-.02,4.48,.68,7.33,2.42,10.16Zm-17.19-9.98c.02-3.91-1.26-8.34-3.15-10.94-3.38-4.65-8.29-4.82-11.72-.42-4.37,5.6-4.38,16.67-.02,22.24,3.58,4.57,9.38,4.34,12.13-.87,1.58-2.98,2.27-6.5,3.37-9.77-.2-.08-.41-.16-.61-.24Z"/>
  </g>
</svg>