<?xml version="1.0" encoding="UTF-8"?>
<svg id="Layer_2" data-name="Layer 2" xmlns="http://www.w3.org/2000/svg" viewBox="0 0 245.53 277.05">
  <g id="Layer_1-2" data-name="Layer 1">
    <path d="M19.63,261.33c-2.45-2.3-4.32-4.66-4.36-7.72-.04-3.25,1.97-5.24,5.79-5.9,2.89-.5,5.76-1.1,8.59-1.78,11.78-2.85,19.86-9.42,25.95-17.89,2.22-3.09-1-9.37-5.3-10.7-6.76-2.08-9.83-5.59-7.89-11.23,3.64-10.59,.36-20.24-4.92-29.56-4.45-7.86-9.97-15.29-14.88-22.98-4.73-7.42-9.24-14.94-13.94-22.38-.89-1.41-2.07-2.72-3.33-3.93C.99,123.05-.52,117.94,.16,112.75c.56-4.25,2.85-8.33,6.18-11.85,6.6-6.97,15.39-10.46,25.92-11.01,4.02-.21,8.08,.09,12.13,.16,12.98,.21,24.86-5.69,29.91-16.64,2.59-5.62,2.86-11.5,3.17-17.41,.58-11.1,2.04-22.1,6.8-32.62,2.8-6.19,6.98-11.63,13.03-16.02,15.45-11.2,37.95-9.43,51.13,3.99,6.84,6.96,10.51,15.06,12.11,23.76,1.39,7.53,2.02,15.16,3.13,22.73,1.41,9.64,3.73,19.08,10.71,27.23,6,7.01,14.06,10.83,24.66,10.43,3.59-.14,7.18-.4,10.73-.82,13.45-1.59,28.27,5.16,33.66,15.43,4.95,9.42,1.02,18.94-10.1,24.16-2.56,1.2-5.26,2.3-8.05,3.01-3.11,.8-4.66,2.53-4.76,4.9-.15,3.49-.34,7.1,.55,10.46,3.13,11.87-.14,22.69-6.96,33.05-3.31,5.02-6.69,10.02-9.98,15.05-.57,.87-1.05,1.85-1.25,2.82-1.37,6.59-4.82,12.19-11.57,16.56,2.92,3.63,5.72,7.3,8.76,10.83,5.11,5.95,10.58,11.66,17.45,16.32,1.67,1.13,3.48,2.12,5.3,3.08,2.94,1.54,3.92,3.41,2.46,6.05-.84,1.52-2.37,2.79-3.64,4.14-.42,.45-1.02,.79-1.62,1.24,1.41,.55,2.68,.94,3.83,1.5,2.96,1.43,3,2.85,.13,4.36-1.09,.57-2.25,1.13-3.48,1.42-6.44,1.49-12.82,3.4-19.39,4.19-9.98,1.2-20.09,1.65-30.15,2.35-21.41,1.48-42.88,1.68-64.34,1.29-16.16-.3-32.33-1.12-48.45-2.16-12.13-.78-24.25-2.01-35.98-4.9-2.6-.64-5.18-1.51-7.52-2.63-2.55-1.22-2.44-2.65,.07-3.92,1.46-.74,3.09-1.23,4.9-1.93Zm199.97-8.24c-3.23-2.31-6.56-4.42-9.5-6.85-11.07-9.17-19.5-19.9-26.53-31.4-8.62-14.1-14.32-29.08-19.06-44.32-5.51-17.72-9.46-35.68-12.24-53.84-2.06-13.45-3.45-26.93-2.89-40.5,.21-5.05,.94-10.09,1.44-15.13,.18,.01,.36,.03,.54,.04-.23,3.39-.54,6.78-.67,10.17-.76,19.89,2.04,39.51,6.47,59.02,4.63,20.39,10.59,40.5,18.67,60.16,1.08,2.64,2.3,5.25,3.56,8.1-.16-3.78-.83-7.28-.33-10.66,1.05-7.08,2.16-14.2,4.23-21.11,4.77-15.84,12.89-30.44,25.68-43.07,4.16-4.11,8.88-7.68,15.05-9.69,4-1.3,7.91-1.23,11.67,.56,3.79,1.8,5.51,5.07,3.79,8.39-1.07,2.05-2.72,4.3-4.89,5.49-4.87,2.67-10.23,4.74-15.39,7.06-.15-.2-.29-.4-.44-.6,4.56-2.35,9.12-4.69,13.98-7.19-2.79-2.19-5.4-3.87-8.82-3.85-7.67,.05-13.27,3.58-17.48,8.36-10.27,11.66-16.82,24.8-21.36,38.65-2.59,7.9-4.33,15.92-4.45,24.15-.09,6.03,1.88,11.49,6.02,16.68,8.47-3.33,9.4-9.92,10.52-16.44,1.45,6.18,.55,11.91-4.28,16.93-.98,1.02-2.17,1.91-3.19,2.92-.25,.25-.21,.7-.3,1.06,.45,.04,.95,.19,1.34,.08,.45-.13,.83-.46,1.2-.75,5.12-4.04,8.32-8.98,8.49-14.81,.19-6.67-.19-13.35-.56-20.02-.49-8.85-.22-17.65,1.59-26.39,.46-2.24,1.27-4.43,1.92-6.64,.25,.03,.5,.06,.75,.09-2.65,15.48-1.04,30.92,.2,46.86,5.15-7.99,10.49-15.37,12.96-23.81,1.33-4.52,1.7-9.14-.02-13.61-1.04-2.69-2.75-5.23-4.32-7.76-2.76-4.45-1.81-8.41,3.09-11.33,2.09-1.25,4.41-2.26,6.71-3.25,3.13-1.35,6.48-2.38,9.5-3.88,8.97-4.44,11.67-12.12,7.24-19.93-5.29-9.32-18.93-14.87-31.26-12.82-7.48,1.24-13.34,4.65-18.42,9.13-1.55,1.37-3.04,2.78-4.56,4.17,2.56-4.86,6.16-9.06,11.37-12.49-.59-.12-.78-.18-.98-.19-9.94-.5-17.74-4.24-23.66-10.74-8.07-8.85-10.72-19.24-12.22-29.92-1.06-7.51-1.71-15.08-3.14-22.54-1.54-8.08-4.87-15.68-11.26-22.14-9.84-9.95-25.6-12.98-38.71-7.37-8.76,3.75-14.31,9.87-18.04,17.22-4.6,9.08-6.18,18.68-6.97,28.41-.42,5.17-.51,10.38-1.37,15.5-1.42,8.46-5.87,15.63-14.45,20.8-4.62,2.79-9.86,4.27-15.71,5.24,2.1,.88,3.96,1.5,5.61,2.4,1.64,.88,3.07,2.04,4.59,3.07-8.07-4.67-21.03-7.06-29.72-5.09,16.43,.45,30.88,6.32,33.81,13.83-7.53-6.48-16.32-10.97-27.02-12.47-3.95-.55-8.16-1.26-11.98-.68-11.08,1.69-20.16,10.38-21.22,19.62-.45,3.91,.84,7.48,3.89,10.54-.26-.96-.79-1.85-1.23-2.76-2.68-5.6,.82-10.45,8.03-11.2,5.37-.56,10.13,.7,14.47,3.24,5.64,3.3,9.17,7.94,11.45,13.17,7.85,18.05,10.86,36.73,10.34,55.84-.04,1.65-.19,3.29-.28,4.94,.21,.03,.43,.06,.64,.09,1.56-6.06,3.11-12.12,4.67-18.18,.52,1.28,.72,2.51,.81,3.75,.49,7.07-1.66,13.69-4.96,20.13-.36,.7-.63,1.45-.77,2.2-.17,.93,.06,1.94-.28,2.81-.53,1.34-1.56,2.55-2.07,3.89-.46,1.2-.64,2.51-.64,3.78,0,.22,1.47,.44,2.26,.66,.13,.04,.34,.1,.36,.18,.35,1.55,2.07,1.45,3.33,1.87,2.11,.71,4.25-.47,4.3-2.33,.06-2.39-.05-4.78,.19-7.15,.43-4.2,.75-8.36,3.27-12.27,2.6-4.03,4.84-8.27,6.64-12.59,6.94-16.57,11.66-33.64,15.89-50.8,4.43-17.95,7.68-36.03,8.09-54.39,.06-2.67,0-5.34,0-8.01,.6,.11,.71,.21,.72,.31,.14,1.85,.35,3.69,.38,5.54,.25,15.01-1.49,29.89-4.14,44.71-3.15,17.62-7.21,35.1-13.11,52.24-2.92,8.47-5.79,16.96-11.26,24.66-.92,1.3-1.61,2.87-1.77,4.36-.47,4.62-.64,9.26-.9,13.89-.02,.42,.21,.85,.33,1.28,.23,.04,.46,.09,.69,.13,3.02-6.05,2.93-13.19,9.01-18.62,0,1.03,.08,1.67-.01,2.3-.4,2.54-.82,5.08-1.3,7.61-2.08,11.09-5.73,21.71-13.13,31.32-6.86,8.9-15.85,15.38-28.34,18.21-3.09,.7-6.26,1.17-9.69,1.81,3.58,1.89,5.2,4.76,6.91,7.57,.45,.75,.94,1.47,1.43,2.21,2.13,3.23,5.31,5.44,9.46,6.75,5.73,1.82,11.65,2.19,17.69,1.67,9.19-.79,17.6-3.54,25.83-6.84,3.34-1.34,6.92-2.44,10.53-3.12,4.99-.94,9.1,.56,11.89,4.2,.89,1.16,1.75,2.34,2.48,3.56,1.23,2.08,3.31,3.11,5.96,3.4,1.5,.17,3.06,.31,4.53,.13,2.9-.36,5.76-.96,8.4-1.42-5.01,3.97-15.23,3.93-20.91-.19-1.02-.74-2.28-1.24-3.43-1.86l-.54,.62c1.63,1.1,3.11,2.43,4.92,3.25,10.86,4.92,24.86,1.62,30.99-7.18,3.66-5.26,6.06-5.67,12.31-2.41,3.9,2.03,7.87,4,12.01,5.66,5.66,2.27,11.45,2.71,17.59,.72,2.52-.82,5.67-.73,8.45-.46,3.11,.31,6.11,1.33,9.18,1.97,7.87,1.63,13.65-.9,16.46-7.17,.27-.61,.55-1.23,.81-1.85,1.27-3.09,3.36-5.66,6.6-7.26ZM40.79,139.25c-.56,.94-1.19,1.86-1.66,2.83-.7,1.44-1.85,1.79-3.04,.61-2.1-2.09-3.91-4.38-5.96-6.5-.54-.56-1.52-.82-2.3-1.22-.1,.64-.44,1.33-.28,1.93,2.33,8.71,7.39,16.61,11.03,24.93,2.19,5.02,4.11,10.12,6.12,15.2,.14,.35-.04,.78-.08,1.22-2.36-4.53-4.57-8.91-6.9-13.23-3.93-7.28-8.83-14.08-15-20.23-.56-.56-1.32-.97-1.99-1.45-.15,.1-.3,.2-.45,.3,1.92,2.9,3.84,5.8,5.77,8.7,4.11,6.16,8.36,12.25,12.29,18.48,5.32,8.44,8.61,17.39,9.01,26.98,2.13-19.8-.46-39.24-6.56-58.54Zm177.5,13.2c.12-.04,.24-.07,.36-.11-.4-1.62-.73-3.24-1.24-4.84-.11-.34-.81-.55-1.23-.82-.17,.44-.64,.99-.47,1.32,.77,1.52,1.7,2.97,2.58,4.45ZM125.82,43.95c-.89-2.35-2.34-5-5.98-4.96-3.59,.03-4.91,2.66-6.01,4.99-2.36,5.02-2.73,10.28-1.42,15.49,.7,2.79,2.03,5.59,3.76,8.07,1.85,2.66,4.98,2.57,7.22,.1,1.06-1.18,2.09-2.51,2.53-3.91,1.03-3.2,1.69-6.48,2.54-9.91-.85-3.3-1.43-6.67-2.64-9.88Zm-28.43,78.99c-.06,.46-.11,.92-.17,1.38-.76,5.87-1.19,11.78-2.34,17.59-2.18,11.04-4.51,22.07-7.27,33.03-3.59,14.28-7.6,28.48-13.74,42.21-3.75,8.38-8.24,16.41-15.26,23.31-5.59,5.5-12.04,10.12-20.29,12.76-.86,.28-1.73,.52-2.6,.79,1.16,.22,2.24,.19,3.27-.01,6.9-1.36,12.88-4.11,17.99-8.17,6.7-5.33,11.22-11.83,14.26-18.98,7.78-18.31,14.49-36.89,19.97-55.76,3.71-12.79,5.65-25.78,6.4-38.9,.18-3.06,.03-6.14,.03-9.21-.08,0-.16-.01-.25-.02Zm49.01,122.79c-3.96-7.43-5.38-15.43-6.48-23.42-2.35-17.13-3.5-34.32-3.19-51.58,.09-5.33,.01-10.66,.01-16.07-.12,.61-.31,1.18-.35,1.76-.34,5.36-.64,10.72-.98,16.07-.81,12.65-.36,25.28,1.02,37.88,.99,9.01,2.16,18.02,3.88,26.95,1.66,8.65,6.77,15.96,14.56,21.67-2.81-4.35-6.04-8.67-8.49-13.26ZM105.9,23.15c-1.35-2.33-3.94-2.27-5.84-.17-.39,.43-.75,.89-.99,1.38-2.29,4.79-2.14,9.57,.54,14.2,.48,.83,1.89,1.84,2.82,1.81,1.06-.03,2.62-.97,3.02-1.81,1.27-2.68,2.1-5.49,3.12-8.3-.91-2.53-1.42-4.96-2.67-7.11Zm34.62,1c-.56-1.07-2.32-2.37-3.52-2.36-1.21,.01-2.97,1.33-3.51,2.41-2.5,5-2.07,10.03,.98,14.8,1.55,2.41,4.2,2.41,5.49-.07,1.31-2.52,1.97-5.28,2.89-7.87-.8-2.5-1.24-4.82-2.34-6.9Zm5.29,180.73c.56,3.79,1.31,7.53,2.25,11.24,2.42,9.54,6.58,18.46,13.88,26.26,2.95,3.15,6.56,5.63,10.63,7.72-12.52-13.63-20.6-29.02-26.77-45.22ZM52.33,120.53c2.25,6.38,3.32,12.93,3.67,19.55,.18,3.36,.03,6.73,.03,10.09,.58-.58,.81-1.19,.94-1.81,1.49-7.41,1.57-14.85,.34-22.27-.87-5.22-2.5-10.3-5.94-14.82-3.15-4.16-7.12-7.47-13.51-8.05,8.31,3.8,11.97,10.24,14.47,17.3Zm14.52,.23c7.37,16.96,4.32,33.42-2.44,49.77,11.55-12.29,13.11-43.09,2.44-49.77Zm19.73,133.2c-5.09,1.3-10.12,2.77-15.11,4.32-8.52,2.66-17.05,5.21-26.26,5.8,1.37,.22,2.73,.33,4.09,.33,6.83-.03,13.47-.97,20.04-2.52,9.41-2.21,17.74-6.96,27.66-8.07-3.52-.91-7.04-.72-10.41,.14ZM200.24,113.25c-15.45,11.36-20.15,26.17-20,42.49,3.78-15.1,7.53-30.18,20-42.49Zm-31.29,83.65c.67,12,13.29,32.59,24.99,41-10.91-12.42-19.05-25.96-24.99-41Zm-38.06,68.36c2.37-2.57,3.24-5.09,3.75-7.72,1-5.09-.18-10.08-1.12-15.07-.52-2.74-1.24-5.45-1.87-8.18-.39,10.18,2.02,20.32-.75,30.96Zm40.53-127.52c3.16-8.4,4.11-17.13,9.07-24.84-6.3,5.63-11.81,20.65-9.07,24.84Zm41.44,18.79c-.09,4.71,.49,9.46-.06,14.13-.57,4.8-2.24,9.52-3.34,13.87,5.29-8.73,8.31-18.01,3.39-28Zm-6.03-41.97c5.91-6.51,13.31-10.04,23.29-9.06-8.46-3.63-21,1.27-23.29,9.06Zm-17.12,149.44c-4.5-1.1-8.9-1.23-13.62,.95,.99-.11,1.49-.13,1.95-.23,3.98-.87,7.86-.55,11.69,.58,1.49,.44,2.98,.9,4.5,1.24,2.36,.52,4.75,.91,6.75,.18-3.58-.86-7.43-1.78-11.27-2.72Z"/>
  </g>
</svg>