<?xml version="1.0" encoding="UTF-8"?>
<svg id="Layer_2" data-name="Layer 2" xmlns="http://www.w3.org/2000/svg" viewBox="0 0 274.32 255.86">
  <g id="Layer_1-2" data-name="Layer 1">
    <path d="M169.33,242.62c5.37,.25,10.74,.44,16.1,.76,9.61,.57,19.22,1.09,28.62,3.03,1.12,.23,2.24,.54,3.28,.95,.54,.22,1.24,.73,1.26,1.13,.02,.39-.65,1.01-1.18,1.16-2.13,.61-4.29,1.34-6.5,1.57-10.59,1.1-21.18,2.31-31.82,2.99-22.25,1.42-44.55,1.93-66.86,1.51-15.84-.3-31.67-.98-47.48-1.82-9.53-.51-19.08-1.28-28.4-3.24-.89-.19-1.82-.35-2.6-.71-.75-.35-1.32-.94-1.97-1.43,.65-.48,1.21-1.21,1.97-1.41,2.44-.64,4.93-1.29,7.46-1.58,7.84-.9,15.7-1.64,23.55-2.44-3.61-2.98-7.66-5.71-12.68-7.38-5.02-1.67-9.89-3.6-13.95-6.64-7.57-5.67-11.08-12.95-12.05-21.17-1.31-11.09,2.66-21.18,8.68-30.88,2.07-3.33,4.21-6.63,6.19-9.99,1.43-2.43,2.41-5,2.08-7.75-.11-.94-.38-1.91-.84-2.77-1.1-2.05-2.18-2.39-4.74-1.79-6.45,1.51-12.8,1.09-18.88-1.13-7.68-2.8-13.37-7.58-18.56-13.31,1.61,.42,2.83,.8,4.08,1.07,6.08,1.29,10.46-2.07,9.31-7.15-.42-1.89-1.05-3.74-1.44-5.63-1.41-6.8,3.55-13.04,11.94-14.92-.36,.51-.63,.92-.93,1.32-2.38,3.2-1.92,6.36,1.46,8.89,3.72,2.78,8.05,3.53,12.83,2.24,4.53-1.22,8.33-3.49,11.74-6.13,14.77-11.45,25-25.12,29.24-41.59,1.87-7.25,2.1-14.66,2.38-22.05,.27-7.14,.67-14.27,2.62-21.25,4.15-14.88,14.11-26.07,31.43-32.08,23.15-8.04,47.33,.57,56.67,19.85,2.9,5.99,4.25,12.24,4.76,18.61,.51,6.52,.69,13.05,1.09,19.57,.69,11.4,5.36,21.69,12.76,31.24,9.09,11.73,21.29,20.84,35.14,28.61,7.2,4.03,14.28,8.21,21.33,12.42,1.67,1,2.93,2.45,4.47,3.6,.72,.54,1.61,1.09,2.52,1.26,6.08,1.14,11.66,3.06,16.33,6.57,3.94,2.96,5.45,6.56,4.1,10.83-2.18,6.9-5.5,13.4-10.69,19.16-4.68,5.19-11.22,7.27-18.85,7.53-2.69,.09-5.42,.27-8.03,.75-8.33,1.55-12.54,6.28-14,12.92-.45,2.03-.65,4.11-.85,6.17-.26,2.69,.35,5.19,2.28,7.49,2.87,3.42,3.11,7.1,.77,10.77-4.9,7.7-11.74,13.96-20.89,18.35-4.84,2.33-10.15,2.96-15.78,2.72-4.14-.18-8.33,.32-12.49,.56-2,.11-3.99,.31-5.99,.47,0,.05,.01,.11,.02,.16ZM20.23,123.65l.05,.04c-.74-1.51-1.49-3.02-2.24-4.53-1.3,.98-1.82,2.23-1.54,3.76,.92,5.1,3.41,9.57,7.73,13.32,.45,.39,.9,.79,1.35,1.19-6.44-3.74-10.14-8.67-9.88-15.33-2.51,6.71,1.11,12.66,3.7,19.18-1.29-1.32-2.23-2.29-3.18-3.27-2.21,3.99-2.54,4.22-9.12,6.17,1.85,1.27,3.54,2.5,5.33,3.63,9.73,6.11,21.65,6.57,32.01,1.23,7.98-4.12,14.14-9.78,19.04-16.27,6.68-8.84,12.83-17.96,19.39-26.87,3.25-4.42,5.51-9.13,6.99-14.11,.99-3.32,1.86-6.66,2.78-9.99,.33,.55,.48,1.12,.53,1.7,.53,6.46-1.43,12.56-4.22,18.49-7.07,15.04-17.88,28.19-30.44,40.43-2.06,2-4.14,4.01-5.98,6.14-1.23,1.42-1.63,3.1-1.06,4.92,.43,1.35,.52,2.78,.8,4.36-1.22-1.69-2.12-3.3-3.42-4.65-1.61-1.67-3.46-1.72-5.66-.46,4.14,4.42,3.94,9.23,1.47,14.06-1.64,3.21-3.62,6.3-5.6,9.39-5.02,7.84-9.21,15.9-9.83,24.9-.87,12.63,4.42,25.98,22.6,31.7,4.71,1.48,9.01,3.64,12.73,6.56,4.47,3.51,11.26,4.12,16.84,1.66-2.06-.11-4.08-.22-6.1-.33-7.39-.4-13.22-4.69-14.15-10.63-.19-1.22-.73-1.74-1.99-2.14-4.57-1.46-8-4.07-10.72-7.37-4.52-5.49-6.36-11.67-6.88-18.17-.13-1.63-.02-3.27-.02-4.91,.59,2.59,1.01,5.19,1.55,7.77,1.27,5.97,4.13,11.32,9.33,15.7,2.38,2.01,5.21,3.42,8.57,4.04,.9-2.47,.83-2.42-.95-4.27-.98-1.02-2.03-2.14-2.43-3.36-1.01-3.11-2.06-6.26-2.41-9.45-1.05-9.57,.48-18.99,3.05-28.32,.96-3.48,2.1-6.94,3.15-10.4,.33,.46,.27,.84,.17,1.22-1.88,6.92-3.64,13.86-3.94,20.97-.17,4.04,.03,8.1,.2,12.15,.11,2.47,.32,4.96,.78,7.4,.58,3.11,1.9,6.01,4.26,8.21,2.94-2.65,5.8-5.24,8.4-7.59-1.31-2.76-2.99-5.48-3.91-8.37-2.48-7.81-1.66-15.67,.15-23.48,2.11-9.12,5.7-17.88,9.49-26.59,2.62-6.04,5.19-12.09,7.78-18.14-.41,2.2-1.05,4.34-1.83,6.45-3.62,9.82-7.48,19.58-10.88,29.45-2.94,8.56-4.67,17.3-3.2,26.25,.7,4.27,2.26,8.29,5.58,11.72,.55,.57,1,1.02,2.12,.67,8.24-2.55,16.58-2.47,24.94-.46,3.81,.92,7.53,2.06,10.69,4.16-.63,0-1.21-.13-1.79-.22-5.53-.86-11.02-2.03-16.6-2.48-7.86-.63-15.28,.83-21.65,4.94-4.97,3.2-7.8,7.38-7.7,12.68,.04,2.21,.54,4.39,2.37,6.32,1.48-5.43,3.51-7.87,8.05-9.67,3.81-1.51,7.87-1.81,12.03-1.63,11.22,.48,20.64,5.12,30.45,8.89-3.81-.72-7.54-1.67-11.35-2.37-5.55-1.02-11.13-1.97-16.74-2.75-3.42-.47-7.45,.17-9.05,1.08,5.9,.37,11.46,1.35,16.38,4.34-.32,.09-.45,.17-.54,.15-.65-.14-1.3-.28-1.94-.46-4-1.13-8.1-1.62-12.32-1.38-3.42,.2-6.48,1.16-9,3.08-.87,.66-1.45,1.57-2.37,2.6,3.55,0,6.59-.33,9.49,.07,5.6,.78,10.37,3.28,15.07,5.79,3.57,1.9,7.19,3.67,11.37,4.55,7.76,1.63,15.56,1.56,23.39,.5,8.07-1.09,15.41-3.48,21.82-7.87,3.13-2.14,6.7-3.96,10.36-5.45,6.64-2.71,12.49-1.2,18.38,5h-3.71c5.41-.15,10.81-.06,16.21-.18,3.61-.08,7.02-1.01,10.09-2.6,7.92-4.1,14-9.64,18.51-16.37,1.99-2.97,1.78-5.82-.39-8.75-1.16-1.56-2.05-3.35-2.52-5.14-.97-3.63-.09-7.26,.78-10.83,1.92-7.89,7.28-13.18,17.16-14.74,3-.47,6.1-.57,9.16-.73,6.67-.36,11.98-2.67,15.85-7.21,3.27-3.84,5.8-7.99,7.58-12.43,.94-2.34,1.54-4.77,2.17-7.18,.12-.44-.13-1.21-.54-1.43-1.33-.74-2.81-1.3-4.5-2.05,1.9,5.25,.69,9.94-1.22,14.73,0-2.59,.11-5.01-.03-7.41-.18-3.02-1.3-5.78-4.16-7.85-.54-.39-1.42-.74-2.09-.68-4.39,.43-8.6,1.31-11.76,4.1-.54,.48-.93,1.3-.91,1.95,.08,2.8-.9,5.27-2.79,7.56-.74,.9-1.4,1.9-1.83,2.93-1.4,3.36-3.66,6.19-7.22,8.21-1.27,.72-2.75,1.17-4.14,1.74-.09-.11-.18-.22-.27-.33,5.19-2.35,8.32-5.82,8.96-11.05-5.03,1.54-9.8,3.07-15.04,2.29-5.32-.79-9.4-3.09-12.43-6.71,1.09,.6,2.04,1.35,3.07,2.02,7.78,5.03,19.29,5.31,25.8-3.63,.98-1.34,1.79-2.76,2.71-4.14,3.78-5.68,9.64-8.21,18.78-7.25,2.48,.26,4.86,1.09,7.29,1.65-2.16-1.52-4.46-2.97-6.97-4.08-5.93-2.63-12.4-3.71-19.05-4.21-1.89-.14-3.75-.48-5.62-.72,.02-.17,.04-.34,.07-.51h9.81c.09-.15,.19-.29,.28-.44-2.72-1.85-5.32-3.85-8.2-5.51-5.59-3.21-11.36-6.2-17.01-9.34-12.21-6.79-23.01-14.82-31.71-24.7-10.43-11.86-16.43-24.97-16.95-39.71-.24-6.58-.53-13.16-1.15-19.72-.64-6.76-2.78-13.23-6.89-19.18C157.15,7.21,141.26,.82,125.42,3.35c-16.82,2.69-28.45,10.89-35.49,23.58-4.07,7.34-5.04,15.26-5.64,23.22-.63,8.33-.93,16.71-2.23,24.98-2.92,18.47-14.09,33.5-29.91,46.4-1.52,1.24-3.27,2.28-5.12,3.55,.41-.06,.54-.06,.63-.1,.88-.46,1.78-.9,2.62-1.41,19.53-11.79,31.1-27.57,34.32-47.32,1.26-7.71,1.51-15.53,2.35-23.29,.61-5.58,.9-11.24,2.28-16.7,2.1-8.31,7.23-15.3,15.71-20.4,.28-.17,.61-.27,.92-.4-7.73,5.4-12.75,12.16-14.74,20.23-1.28,5.18-1.71,10.51-2.36,15.79-1.16,9.46-1.88,18.97-3.37,28.39-2.6,16.45-12.12,29.96-27.09,40.91-5.35,3.91-11.14,7.34-18,9.27-6.77,1.91-12.7,.81-17.55-3.64-.93-.85-1.69-1.82-2.53-2.74ZM112.34,29.74c-1.58,1.38-3.16,2.76-4.64,4.06,2.66,1.24,3.17,4.04,3.66,6.77,1.03,5.72,.06,11.21-3.48,16.26-.87,1.25-2.03,2.44-3.33,3.4-2.85,2.09-5.83,1.7-7.98-.89-1.68-2.03-2.34-4.35-2.43-6.75-.28-7.54,2.01-14.32,8.95-19.63,2.47-1.89,5.38-3.11,8.65-3.75,.2,.18,.4,.36,.6,.53Zm-8.84,16.09c-.23,.02-.46,.03-.69,.05-1.32,1.29-2.21,2.75-2.25,4.49-.03,1.47,.84,2.42,2.1,2.41,1.24-.02,2.43-1.05,2.23-2.36-.24-1.55-.91-3.06-1.39-4.59Zm33.88-11.17c-1.48-1.77-2.81-3.37-4.15-4.97,.13-.12,.27-.24,.4-.37,.58,.28,1.17,.55,1.73,.85,7.42,3.98,10.64,9.94,11.64,16.92,.45,3.18,.65,6.36-.7,9.45-.43,.99-.94,1.99-1.62,2.87-2.18,2.84-5.53,3.16-8.51,.85-2.57-2-4.03-4.56-5-7.31-1.68-4.8-1.56-9.6,.42-14.32,.93-2.22,2.24-4.26,5.8-3.97Zm2.53,13.01c-.23,.03-.45,.06-.68,.1-1.24,1.29-2.05,2.71-1.9,4.42,.09,.93,.48,1.77,1.78,1.78,1.35,0,2.08-.82,1.94-1.81-.21-1.51-.75-3-1.15-4.49Zm37.88,69.42c6.19,11.39,15.25,21.09,26.5,29.39,4.55,3.36,9.47,6.28,15.51,7.63,3.25,.73,6.91,.83,9.19,.15-4.87-.47-9-1.95-12.88-3.94-7.52-3.84-13.71-8.87-19.12-14.57-8.26-8.7-15.02-18.12-19.44-28.6-.8-1.89-1.25-3.88-1.86-5.82-1.18,5.44-.61,10.76,2.11,15.75Zm-68.67-7.4c-.17,.48-.35,.96-.51,1.44-4.59,14.15-9.07,28.33-11.95,42.8-1.63,8.16-2.62,16.37-.9,24.62,2.28,10.9,9.18,19.13,21.11,24.36,.38,.17,.83,.25,1.47,.43-.22-.3-.26-.41-.35-.47-.9-.61-1.82-1.2-2.72-1.82-7.22-4.96-12.43-11.01-14.96-18.54-1.74-5.17-2.14-10.45-2.06-15.79,.2-12.57,3.07-24.83,6.18-37.07,1.68-6.62,3.36-13.25,5.04-19.87l-.36-.09Zm16.49-39.05c0-1.11,.23-2.27-.05-3.33-.61-2.34-1.16-4.76-2.33-6.92-1.08-1.98-3.48-1.85-4.87,.02-.54,.72-1.04,1.53-1.22,2.35-.78,3.47-1.66,6.94-2.06,10.44-.43,3.75-.12,7.51,2.31,10.88,1.65,2.29,4.32,2.16,5.8-.2,.28-.44,.52-.93,.62-1.41,.81-3.92,1.59-7.84,2.38-11.77-.19-.02-.38-.04-.57-.06Zm34.06,140.1c1.05-.7,2.15-1.36,3.12-2.13,9.18-7.34,12.89-16.66,14.08-26.83,1.09-9.32-.78-18.41-4.31-27.2-3.62-9.01-7.8-17.88-11.74-26.8-1.07-2.43-2.15-4.85-3.22-7.27-.18,.4-.14,.75-.01,1.07,2.33,6.12,4.62,12.25,7.01,18.36,3.97,10.15,8.1,20.27,9.03,31.02,1.3,14.96-3.05,28.47-15.26,40.39,.7-.32,1.04-.43,1.3-.61Zm35.26-41.46c.08,.28,.16,.57,.25,.85,2.48,7.74,3.74,15.57,2.73,23.59-1.61,12.76-7.74,23.31-21.59,30.12-.83,.41-1.47,1.09-2.19,1.64,.07,.19,.14,.37,.2,.56,1.42,.08,2.84,.29,4.24,.2,4.2-.28,7.55-1.96,10.27-4.54,4.11-3.9,6.47-8.55,8.35-13.4,3.31-8.51,3.71-17.22,2.04-25.96-.85-4.46-2.38-8.84-3.6-13.25-.23,.06-.47,.13-.7,.19Zm-8.79-29.36c.29,.42,.56,.85,.86,1.27,6.2,8.86,11.73,17.97,15.88,27.63,5.36,12.49,7.28,25.24,4.56,38.37-.41,2-.92,3.98-1.38,5.97,.56-.48,.88-1.02,1.11-1.59,4.16-9.95,4.59-20.11,2.36-30.39-2.2-10.12-6.91-19.48-13.06-28.35-3.1-4.47-6.52-8.79-9.79-13.18-.18,.09-.36,.17-.54,.26Zm-39.71,90.74c6.68-2.97,13.41-5.86,20-8.94,3.14-1.47,6.11-3.2,9-4.99,6.75-4.18,9.85-10.19,11.79-16.7,1.13-3.81,1.59-10.75,.94-13.19-.09,.5-.15,.79-.19,1.08-.8,5.89-2.75,11.48-6.27,16.67-4.96,7.32-12.16,12.94-20.34,17.73-4.89,2.86-10.03,5.43-15.07,8.13,.04,.07,.08,.14,.13,.21Zm-35.21-38.75c-.05-.18-.07-.37-.16-.53-3.85-6.83-4.97-14.13-5.3-21.55-.46-10.58,1.32-20.99,3.47-31.37,.73-3.52,1.6-7.03,2.45-10.75-.27,.25-.38,.31-.41,.39-5.15,14.15-8.92,28.49-8.12,43.39,.27,5.12,1.17,10.19,3.71,14.92,1.07,1.99,2.56,3.82,3.86,5.72,.17-.07,.33-.14,.5-.21Zm36.02-17.43c2.06,6.61,3.31,13.24,2.06,20.11-2.6,14.32-14.29,25.14-31.35,28.76-1.64,.35-3.3,.65-4.96,.97,1.75,.06,3.47-.03,5.15-.27,13.63-2.01,23.27-8.49,29.58-18.4,6.84-10.74,4.85-21.5-.74-32.04,.08,.29,.16,.58,.25,.87Zm-5.65,9.5c1.7,4.7,2.02,9.45,.77,14.25-2.08,7.96-7.87,13.67-16.16,17.82-2.38,1.19-4.81,2.3-7.22,3.45,.07,.12,.13,.24,.2,.36,3.49-1.3,7.08-2.44,10.46-3.92,11.16-4.89,17.51-12.19,16.25-23.04-.47-4.03-2.18-7.73-5.07-11.06,.26,.71,.52,1.42,.77,2.14Zm-98.47-8.11c-2.46,4.33-5.39,8.53-7.31,13.02-5.56,12.98-3.44,24.89,8.45,35.08,1.87,1.6,4.06,2.94,6.1,4.4,.14-.13,.28-.26,.42-.39-.41-.32-.81-.65-1.23-.96-8.22-6.01-13.29-13.4-14.39-22.51-.87-7.18,1.08-13.97,4.33-20.55,1.3-2.65,2.81-5.23,4.23-7.84-.2-.08-.4-.17-.6-.25ZM168.05,56.46c.62-8.42,.16-16.82-2.02-25.06-2.35-8.85-7.94-16.03-17.4-20.94-1.07-.56-2.23-1-3.35-1.5,11.59,6.6,17.67,15.9,19.79,27.04,1.31,6.93,1.98,13.95,2.92,20.8,0,.04,.05-.16,.07-.35Zm-82.29,57.55c-3.86,8.7-9.82,16.35-16.75,23.59-3.9,4.08-7.32,8.48-10.93,12.74-.35,.41-.53,.91-.84,1.47,4.21-4.24,8.32-8.31,12.34-12.45,2.72-2.8,5.48-5.59,7.94-8.55,4.41-5.3,7.2-11.2,8.73-17.52-.17,.24-.38,.46-.5,.71ZM20.28,146.85c12.17,2.6,23.08,.97,31.82-6.91,3.46-3.12,6.36-6.66,9.51-10.01-.16-.11-.32-.22-.47-.32-.78,.69-1.6,1.36-2.33,2.08-1.84,1.83-3.58,3.73-5.46,5.53-4.86,4.63-10.66,8.05-18.06,9.35-5.23,.92-10.47,.78-15.84,.02,.28,.09,.55,.21,.84,.27Zm188.64-5.17c-2.35-2.25-4.79-4.43-7.01-6.75-2.24-2.34-4.4-4.75-6.33-7.28-1.95-2.56-3.72-5.24-5.3-7.97-1.52-2.63-2.7-5.39-4.03-8.1,3.2,12.24,10.75,22.29,22.2,30.37,.16-.09,.32-.18,.48-.27ZM75.24,216.41c-2.38,1.16-4.23,2.82-5.51,4.87,9.71-7.12,21.09-8.39,33.37-6.63-9.57-2.37-18.95-2.58-27.86,1.76Zm103.33-87.51c-1.65-3.03-3.04-6.19-4.18-9.38-1.1-3.09-1.74-6.29-2.56-9.35-.74,8.02,6.28,23.67,12.28,27.32-1.85-2.84-3.93-5.63-5.54-8.59Zm-158.29-5.21c-1.37-.43-1.12,.55-1.22,1.04-.81,4.04,4.7,9.12,10.03,9.08-.55-.25-.92-.41-1.29-.57-.37-.17-.76-.33-1.11-.53-3.84-2.2-6.52-4.97-6.47-9.06,0,0,.05,.04,.05,.04ZM145.39,26.48c-2.93-3.68-6.75-6.91-11.36-8.34,3.49,2.56,7.54,5.54,11.36,8.34Z"/>
  </g>
</svg>