<?xml version="1.0" encoding="UTF-8"?>
<svg id="Layer_2" data-name="Layer 2" xmlns="http://www.w3.org/2000/svg" viewBox="0 0 275.91 309.06">
  <g id="Layer_1-2" data-name="Layer 1">
    <path d="M57.83,280.33c-5.68,2.51-11.2,4.47-17.51,4.98-9.58,.77-17.68-1.72-24.9-6.28-6.44-4.07-11.06-9.25-15-14.84-.8-1.14-.41-1.74,.69-2.56,14.96-11.17,26.47-24.18,35.57-38.59,7.13-11.28,4.21-19.85-6.52-28.67-5.68-4.67-11.21-9.4-15.23-15.03-6.8-9.52-10.67-19.69-11.21-30.58-.02-.33,.04-.66,.06-1.04,4.12-.62,8.22-1.07,12.2-1.86,14.81-2.94,25.29-10.13,32.66-20.16,7.82-10.65,12.2-22.24,15.39-34.14,2.96-11.02,3.38-22.16,3.3-33.36-.08-9.87,2.67-19.39,8.51-28.21C86.15,14.41,102,3.77,124.74,.87c28.77-3.67,51.79,4.4,68.71,22.48,9.33,9.97,13.18,21.45,13.71,33.61,.28,6.57-.15,13.19,.71,19.71,2.25,17.13,6.86,33.87,18.05,49.03,9.4,12.73,23.69,20.16,42.92,21.5,2.42,.17,2.55,1.12,2.42,2.59-1.6,17.48-10.42,32.39-26.63,44.76-5.45,4.16-9.02,9.14-10.04,15.09-.59,3.47,.43,6.73,2.17,9.89,8.65,15.66,20.85,29.47,36.67,41.39,.75,.57,1.55,1.1,2.49,1.77-6.99,10.33-15.49,19.23-31.12,22.22-8.49,1.63-16.41,.06-23.97-2.96-1.25-.5-2.46-1.05-4-1.71-1.07,1.74-1.99,3.48-3.18,5.1-3.37,4.58-6.12,9.57-10.44,13.56-8.4,7.77-20.06,10.4-32.93,10.1-11.37-.27-21.64-3.49-31.64-7.28-1.37-.52-2.33-.51-3.62,0-8.29,3.2-16.87,5.72-26.1,6.87-18.42,2.31-35.11-3.96-43.74-16.66-2.56-3.76-4.84-7.64-7.33-11.61Zm205.94-128c-17.81-2.03-31.15-8.99-41.13-19.94-5.14-5.64-8.85-11.85-11.74-18.34-7.54-16.93-11.61-34.31-10.97-52.26,.25-6.96-.46-13.85-3.37-20.46-8.84-20.06-25.91-33.12-54.17-35.42-24.4-1.98-43.02,6.12-56.29,21.56-8.18,9.52-11.76,20.24-11.5,31.62,.26,11.5-.62,22.89-3.63,34.18-3.37,12.66-8.25,24.9-16.64,36.21-7.13,9.61-17.33,16.48-30.82,20.37-3.84,1.11-7.89,1.78-11.88,2.67,0,.58-.11,1.19,.02,1.78,2.56,12.15,8.29,23.2,19.21,32.44,5.66,4.79,12.24,9.06,14.82,15.6,.06-5.62-1.45-10.72-6.53-15.01-10.1-8.53-15.88-18.78-19.56-29.81-.4-1.19-.58-2.42-.85-3.63,.29-.09,.57-.19,.86-.28,6.77,12.51,14.79,24.43,26.96,34.52,.08-.38,.18-.64,.18-.9-.3-10.62-1.64-21.09-7.06-31.03-.33-.6,.02-1.41,.05-2.13,.76,.43,1.84,.73,2.24,1.3,1.31,1.91,2.51,3.88,3.51,5.9,5.53,11.22,7,22.9,6.29,34.77-.71,11.81-3.98,23.14-11.27,33.72-8.59,12.48-19,23.9-31.89,34.15,4.29,5.44,9.26,10.36,16.65,13.58,7.31,3.19,14.78,3.21,22.36,.67,2.26-.76,4.36-1.78,6.59-2.59,4.42-1.6,7.8-.86,10.34,2.39,1.26,1.62,2.14,3.41,3.23,5.11,1.83,2.85,3.46,5.8,5.59,8.51,7.06,9.02,20.26,13.42,33.84,11.7,8.91-1.13,17.2-3.51,25.06-6.79,3.04-1.27,5.72-1.36,8.68-.03,1.97,.89,4.11,1.56,6.2,2.28,8.85,3.07,17.97,5.24,27.85,4.74,10.23-.52,18.82-3.53,24.82-10.09,2.22-2.42,3.95-5.12,5.71-7.77,1.56-2.35,2.74-4.85,4.28-7.2,2.52-3.85,6.45-4.71,11.36-2.67,2.33,.97,4.66,1.94,7.08,2.74,6.13,2.01,12.4,2.05,18.55,.15,8.75-2.71,14.6-7.91,19.34-13.93,.29-.38-.15-1.35-.64-1.79-3.61-3.25-7.5-6.32-10.96-9.66-10.67-10.28-20.11-21.21-25.43-33.78-7.68-18.13-7.52-36.51-.71-54.82,1.22-3.29,3.27-6.41,5.08-9.55,.27-.47,1.31-.67,2-1,.12,.51,.55,1.13,.33,1.52-3.37,5.96-5.08,12.24-6.07,18.63-.71,4.59-.95,9.21-1.42,14.05,12.58-10.27,20.61-22.24,27.92-34.57,.32,.62,.36,1.1,.22,1.54-3.62,11.76-9.42,22.71-20.18,31.78-5.08,4.28-7,9.36-6.88,15.06,2.4-5.12,6.99-9.03,11.72-12.89,2.9-2.37,5.67-4.85,8.17-7.47,8.33-8.72,12.63-18.63,14.51-29.5Zm-115.04-48.27c-1.02-3.71-2.65-7.33-6.31-10.1-3.39-2.57-7.54-2.61-10.66,.13-1.7,1.5-3.32,3.29-4.02,5.16-1.52,4.07-2.92,8.23-3.48,12.43-.91,6.8-.12,13.56,4.04,19.78,1.88,2.81,4.4,5.54,9.08,5.44,4.57-.1,7.02-2.73,8.95-5.6,3.37-5.01,3.97-10.45,4.23-17.49-.41-2.25-.82-6.04-1.83-9.73Zm19.52-52.45c-4.13-3.73-9.49-3.59-13.45,.21-6.84,6.58-7.05,19.66-.42,26.37,4.2,4.25,10.66,4.27,14.89,.03,3.64-3.66,4.64-7.94,4.83-13.02-.29-4.52-1.34-9.5-5.86-13.58Zm-48.62,.69c-4.44-4.55-10.47-4.44-14.8,.21-5.82,6.24-6.07,18.38-.52,24.75,4.85,5.56,11.73,5.53,16.49-.09,3-3.54,3.79-7.52,3.78-12.63-.07-3.77-1.13-8.32-4.95-12.24Zm-37.34,57.36c2.69,6.66,3.85,13.54,3.87,20.44,.04,12.81-.2,25.63-.94,38.43-1.02,17.61-4.58,35.02-8.3,52.4-.56,2.61-1.06,5.23-1.59,7.85,.28,.06,.56,.11,.85,.17,.39-.83,.88-1.65,1.16-2.5,8.39-25.16,13.08-50.73,14.02-76.68,.37-10.11-.35-20.19-3.46-30.08-1.24-3.93-2.57-7.84-5.92-11.19,.1,.39,.15,.79,.3,1.16Zm116.97,119.22c0-.67,.12-1.34-.02-1.99-.92-4.41-1.99-8.8-2.83-13.21-1.73-9.17-3.7-18.33-4.92-27.55-1.38-10.44-2.25-20.94-2.97-31.42-.81-11.86-.47-23.73,1.71-35.52,.64-3.46,1.69-6.87,2.61-10.57-.41,.44-.7,.68-.88,.96-.57,.91-1.17,1.82-1.63,2.77-4.02,8.12-5.36,16.66-6.37,25.21-1.42,11.93-.43,23.87,1.12,35.74,2.09,16.04,5.7,31.9,10.52,47.58,.84,2.72,1.89,5.4,2.84,8.1,.27-.03,.54-.07,.81-.1ZM55.28,144.6c.28,.76,.64,1.51,.84,2.28,1.24,4.9,3.21,9.78,3.52,14.71,1,16.32-1.32,32.46-5.91,48.41-3.87,13.42-10.55,26.05-18.38,38.36-.49,.78-.83,1.61-1.24,2.42,1.05-.25,1.57-.69,1.99-1.18,7.91-9.42,14.3-19.42,18.92-30.05,5.95-13.72,8.68-27.87,9.36-42.27,.37-7.81-.42-15.58-3.01-23.18-1.17-3.44-2.65-6.8-5.43-9.7-.22,.07-.44,.14-.65,.21Zm185.73,106.23c-.54-1.01-1-2.05-1.63-3.04-7.72-12.14-13.71-24.75-17.52-37.95-3.33-11.53-5.26-23.2-5.98-34.98-.6-9.77-.59-19.52,3.87-28.9,.2-.43,.12-.94,.19-1.65-.53,.35-.78,.45-.91,.61-.33,.4-.63,.81-.92,1.23-3.83,5.54-5.31,11.58-6.1,17.72-1.27,9.9-.61,19.75,.96,29.61,3.23,20.27,11.81,39.04,26.05,56.28,.39,.47,.88,.89,1.33,1.33,.22-.09,.44-.18,.66-.27Zm-73.52-72.14c-.54,5.47-1.32,10.93-1.54,16.41-.62,15.56,1.31,31.01,4.85,46.3,1.92,8.3,4.76,16.48,7.24,24.7,.23,.75,.88,1.43,1.33,2.15,.29-.1,.58-.19,.87-.29-2.65-14.99-5.75-29.94-7.82-44.98-2.07-15.08-3.1-30.25-4.59-45.35-.1,.31-.3,.68-.34,1.06Zm-64.32,43.62c-1.95,14.19-5,28.28-7.55,42.42-.2,1.11-.21,2.23-.35,3.87,9.65-7.6,18.29-75.84,12.31-90.5-1.39,14.37-2.37,29.33-4.41,44.21Zm105.14-9.02c.05,.59,0,1.19,.17,1.75,1.14,3.89,2.1,7.82,3.53,11.65,5.26,14.16,12.53,27.6,25.04,39.02,1.8,1.65,3.98,3.05,6.08,4.49,.46,.32,1.33,.28,2.01,.41-17.28-17.4-27.26-37.21-36.02-57.49-.27,.05-.53,.1-.8,.16ZM30.75,271.12c2.33-1.69,4.94-3.21,6.94-5.1,15.9-15.02,24.35-32.57,29.2-51.31,.12-.48-.09-1-.15-1.51-2.14,3.35-3.61,6.72-5.19,10.06-1.59,3.36-3.21,6.72-4.97,10.04-1.76,3.31-3.63,6.6-5.62,9.83-1.99,3.24-4.05,6.46-6.31,9.59-2.26,3.13-4.72,6.18-7.27,9.18-2.46,2.91-5.14,5.7-7.72,8.55,.36,.22,.73,.45,1.09,.67Z"/>
  </g>
</svg>