<?xml version="1.0" encoding="UTF-8"?>
<svg id="Layer_2" data-name="Layer 2" xmlns="http://www.w3.org/2000/svg" viewBox="0 0 287.77 218.84">
  <defs>
    <style>
      .cls-1 {
        fill: #322230;
      }
    </style>
  </defs>
  <g id="Layer_1-2" data-name="Layer 1">
    <path class="cls-1" d="M287.32,124.88c-1.55-10.94-7.71-19.63-19.46-24.81-13.62-6-29.83-1.28-35.53,10.12-1.76,3.52-2.12,7.2-1.85,10.96,.15,2.08-1.07,3.45-3.08,4.41-1.93,.93-3.65,.18-5.19-.72-2.59-1.51-4.32-3.68-5.69-6.05-3.34-5.77-4.58-12.02-5.55-18.3-2.23-14.42-2.49-28.95-3.42-43.44-.83-12.92-5.33-24.87-14.36-35.42C172.77-2.25,135.18-7.13,108.6,10.87c-15.77,10.68-23.8,25.24-27.11,41.88-2.17,10.93-3.52,21.98-6.74,32.75-4.29,14.35-15.24,28.75-39.47,30.11-6.22,.35-12.21,1.98-17.53,4.96-14.84,8.28-21.52,24.96-15.6,39.63,8.47,21,35.96,25.28,51.47,10.82,.97-.9,1.6-.79,2.48-.12,2.65,1.99,5.41,3.89,7.94,5.98,7.26,6.02,12.17,13.56,18.02,20.5,3.44,3.11,6.76,6.32,10.76,8.94,16.82,11.01,35.02,13.4,54.66,6.27,1.55-.56,2.55-.29,3.82,.3,17.6,8.17,35.07,7.87,52.48-.51,7.97-3.84,14.4-9.15,20.3-15,10.4-12.54,22.58-23.15,38.59-30.88,18.49-8.93,27.27-23.18,24.66-41.62Zm-13.03,27.26c-3.82,4.59-8.72,8.37-14.53,10.91-15.29,6.69-26.85,16.71-36.85,28.39-7.78,9.09-17.3,16.54-29.96,20.54-3.04,.96-6.14,1.75-9.39,2.04-3,.55-6.04,.6-9.09,.47-.84-.04-1.9,.26-2.44-.67-.3,.08-.6,.16-.9,.24-7.05-.58-13.4-2.88-19.31-6.05-12.66-6.79-22.63-15.83-30.22-26.81-.61,1.72-.43,3.57-1.25,5.26-.55,1.12,.35,1.95,1.04,2.77,5.46,6.59,12.01,12.3,19.36,17.35,1.07,.74,2.16,1.47,3.59,2.44-5.53,1.95-10.91,3.02-16.56,3.1-5.56,.38-10.94-.39-16.19-1.91-.23-.11-.45-.22-.68-.33h0c-9.14-2.65-16.65-7.32-22.87-13.57-4.12-3.68-7.1-8.07-10.47-12.22-9.01-11.08-20.28-19.81-35.16-24.82-2.95,2.27-2.75,3.71,.69,5.05,1.59,.62,3.22,1.2,4.77,1.89,2.99,1.33,3.01,1.46,.4,3.43-2.23,1.68-4.72,3.03-7.57,3.84-8.76,3.35-19.23,1.52-26.18-4.58-6.93-5.41-9.46-12.3-9.33-20.1,.34-15.78,12.47-27.56,30.94-28.92,25.7-1.89,37.77-16.06,43.07-32.06,3.11-9.39,4.63-19.05,6.16-28.69,2.26-14.21,6.98-27.53,18.47-38.46,12.52-11.91,28.22-17.81,46.89-15.95,20.77,2.07,35.25,12.24,44.46,28.02,5.3,9.07,7.42,18.84,7.79,28.89,.47,12.93,1.18,25.84,2.97,38.68,.86,6.2,1.99,12.38,4.95,18.17,.85,1.66,1.75,3.32,2.91,4.82,2.68,3.46,6.01,6.24,11.12,6.87,.61-.03,1.21-.08,1.81-.15,1.25-.28,2.28-.64,3.34-1.13,.22-.24,.5-.47,.84-.67,1.31-.77,2.86-1.06,3.78-2.22,.45-.56,.8-1.11,1.07-1.69,.07-.2,.16-.39,.24-.59,0-.02,.01-.04,.02-.06-.03-.62-.05-1.25-.06-1.87-1.55-5.73,.8-12.16,6.28-15.91,8.45-5.78,20.07-5.37,28.68,1.03,3.87,2.88,7.14,6.18,8.83,10.42,5.85,12.47,3.53,24.03-5.43,34.78Zm-162.71,58.08l-.68-.33,.68,.33Zm6.13-119.36c0-1.66-.17-3.35,.03-4.99,.52-4.14,5.4-6.11,9.51-3.9,1.18,.63,2.27,1.37,3.4,2.07,9.62,5.92,19.55,5.71,28.85-.63,1.31-.89,2.57-1.85,4.25-2.18,3.98-.78,7.82,1.42,7.99,5.14,.51,11.27-1.31,22.19-8.82,31.82-8.97,11.49-25.71,11.82-35.54,.88-5.41-6.02-7.72-13.04-9.08-20.38-.48-2.59-.73-5.2-.59-7.82Zm27.05,32.51c6.05-.08,14.95-5.64,17.18-10.87,.43-1-.23-1.25-.84-1.7-9.71-7.18-23.08-7.96-33.99-2.08-1.32,.71-.98,1.4-.57,2.14,1.29,2.28,2.81,4.46,4.7,6.41,3.41,3.51,7.96,5.27,13.53,6.1Zm-30.47-63.53c-.05-3.76,.55-7.42,2.8-10.74,3.44-5.07,9.3-5.17,12.99-.27,4.38,5.81,4.1,16.78-.57,22.39-3.3,3.97-8.63,3.94-11.96-.08-2.22-2.68-3.25-6.25-3.26-11.31Zm41.25-.79c-.06-3.18,.65-6.82,2.98-10.11,3.33-4.71,8.94-4.83,12.53-.3,4.58,5.79,4.61,16.42,.06,22.2-3.51,4.47-9.29,4.39-12.62-.22-2.42-3.35-2.98-7.1-2.94-11.56Z"/>
  </g>
</svg>