<?xml version="1.0" encoding="UTF-8"?>
<svg id="Layer_2" data-name="Layer 2" xmlns="http://www.w3.org/2000/svg" viewBox="0 0 258 242.97">
  <g id="Layer_1-2" data-name="Layer 1">
    <path d="M106.3,206.8c6.87,11.26,15.9,19.79,27.79,25.49,9.33,4.47,18.64,4.67,28.06,.63,2.75-1.18,5.4-2.64,7.94-4.19,5.32-3.24,8.83-7.89,10.88-13.64,1.31-3.67,2.54-7.39,4.16-10.93,2.12-4.63,5.37-8.31,10.72-9.66,3.09-.78,6.13-.42,9.1,.47,6.07,1.81,12.16,1.82,18.19,.01,13.08-3.93,20.68-20.16,11.92-32.27-1.8-2.49-3.51-5.05-5.06-7.69-2.48-4.23-2.19-6.51,1.05-10.22-2.78-1.33-5.72-1.77-8.72-1.86-1.39-.04-2.8,.19-4.18,.06-.81-.08-1.58-.62-2.36-.95,.6-.65,1.1-1.71,1.83-1.88,2.4-.57,4.88-1.09,7.34-1.15,5.16-.13,9.96,1.36,14.45,3.8,1.93,1.05,2.33,2.29,1.31,4.22-.47,.9-1.08,1.74-1.67,2.57-1.46,2.04-1.4,4.13-.16,6.2,.76,1.27,1.63,2.47,2.49,3.67,9.64,13.55,4.01,40.5-20.9,44.68-6.22,1.04-12.45,.78-18.44-1.11-5.52-1.74-7.89,.72-9.24,4.81-1.79,5.44-3.99,10.67-6.97,15.63-6.4,10.66-16.32,16.14-28.37,18.61-12.58,2.58-23.76-.66-34.08-7.62-5.81-3.92-10.93-8.56-15.71-13.6-1.42-1.49-2.87-2.97-4.45-4.29-3.41-2.87-5.54-2.85-9.47-.77-3.49,1.85-7.06,3.74-10.82,4.93-13.74,4.34-25.17,.5-33.56-10.97-1.31-1.79-2.47-3.69-3.73-5.51-2.58-3.75-4.37-4.42-8.82-3.26-7.22,1.88-14.47,2.42-21.57-.26C6.14,197.31,.81,190.82,.06,181.28c-.81-10.22,7.4-19.73,18.04-21.13,2.46-.33,5.02-.01,7.46-.4,2.05-.33,4.26-.89,5.95-1.99,2.71-1.77,2.6-4.8-.12-6.6-1.99-1.32-4.26-2.28-6.47-3.24-8.06-3.52-13.42-9.34-15.92-17.56-3.33-10.95,.78-22.37,10.74-30.07,6.01-4.65,12.96-7.13,20.41-8.59,2.95-.58,5.89-1.29,8.75-2.21,8.47-2.73,13.26-8.92,16.26-16.72,2.57-6.7,3.85-13.68,4.88-20.72,2.1-14.26,7.19-27.18,18.17-37.34,24.73-22.9,64.92-19.43,82.52,13.06,3.97,7.32,5.79,15.31,7.8,23.24,.57,2.24,1.26,4.45,1.98,6.65,2.57,7.95,7.95,13.51,15.62,17.05,6.42,2.97,12.6,6.28,18.01,10.83,4.95,4.16,8.68,9.01,10.01,15.44,1.45,7,5.96,11.56,12.72,14.1,2.76,1.04,5.55,1.98,8.31,3.01,10.96,4.06,14.17,14.12,12.37,22.88-.76,3.69-2.95,6.53-6.17,8.46-2.7,1.62-5.61,2.93-8.48,4.25-.53,.24-1.33-.08-2.01-.14,.14-.61,.08-1.39,.45-1.81,1.53-1.69,3.18-3.29,4.82-4.88,4.01-3.88,4.69-8.52,3.3-13.6-1.05-3.83-3.63-6.45-7.44-7.68-5.88-1.91-11.83-3.61-17.75-5.39-7.16-2.15-13.79-5.26-18.67-10.93-2-2.33-3.31-5.24-4.83-7.94-.37-.66-.51-1.54-.44-2.3,.06-.63,.57-1.23,.89-1.84,.55,.34,1.27,.55,1.62,1.03,.83,1.15,1.46,2.43,2.21,3.64,3.77,6.04,9.24,9.97,15.64,12.08-1.21-2.85-2.87-5.82-3.76-8.99-2.46-8.79-8.11-14.78-16.41-18.63-1.99-.92-3.98-1.84-6-2.69-12.67-5.36-20.48-14.59-23.63-27.64-1.43-5.92-2.64-11.93-4.67-17.67-4.62-13.07-13.02-23.01-26.57-28.31-10.49-4.1-20.81-3.23-30.97,1-16.42,6.82-25.77,19.23-29.51,35.88-1.66,7.38-2.85,14.85-4.66,22.19-1,4.08-2.55,8.1-4.36,11.91-4.8,10.1-12.94,16.09-24.32,17.87-6.8,1.07-13.42,2.69-19.31,6.38-5.63,3.53-9.75,8.1-11,14.75-1.45,7.74,2.88,16.36,10.15,19.85,2.55,1.22,5.23,2.18,7.75,3.45,4.47,2.25,7.72,5.56,8.89,10.48,.96,4.02-.43,7.56-3.86,9.95-4.31,3-9.2,3.49-14.3,3.12-3.29-.24-6.51,.1-9.51,1.53-7.87,3.78-10.02,13.35-4.6,20.34,5.37,6.92,16.36,9.23,24.2,5.08,.14-.08,.26-.21,.64-.53-2.1-.33-3.97-.57-5.82-.94-1.12-.22-2.84,.05-2.92-1.5-.07-1.51,1.64-1.53,2.74-1.83,5.89-1.57,11.61-.52,16.98,1.81,4.42,1.92,8.53,4.52,12.76,6.84,.49,.27,.92,.69,1.31,1.1,.79,.83,1.4,1.76,.65,2.88-.74,1.09-1.87,1.12-2.94,.61-2.03-.96-4-2.02-5.99-3.06-.68-.35-1.34-.76-2-1.14-.12,.13-.24,.27-.37,.4,3.55,3.98,6.72,8.35,10.72,11.84,6.03,5.26,13.32,6.3,20.81,3.14,4.28-1.81,8.24-4.35,12.36-6.53,3.66-1.94,7.22-4.12,11.05-5.68,6.47-2.64,13.2-2.81,19.96-.91,1.17,.33,2.35,.61,3.53,.92,4.38,1.16,8.27,.19,11.72-2.6,1.34-1.08,2.6-2.27,4.01-3.25,.61-.42,1.52-.44,2.3-.64,.11,.82,.54,1.76,.29,2.46-1.83,4.99-5.54,8.39-10.26,10.8-1.87,.95-3.89,1.62-6.19,2.57,8.59,.63,16.09-1.23,22.58-6.28,6.9-5.37,10.44-12.73,12.36-20.85,.85-3.59,.95-7.36,1.35-11.05,.09-.78-.06-1.59,.04-2.37,.07-.55,.39-1.07,.59-1.6,.39,.48,1.05,.93,1.13,1.46,.55,3.61,1.45,7.26,1.35,10.87-.36,12.17-5.34,22.28-15.81,29.23-12.31,8.18-24.99,8.28-37.73,.61-2.24-1.35-4.73-2.32-7.13-3.39-.55-.24-1.23-.21-2-.33Zm4.26-103.01c1.16,6.44,3.76,12.19,9.18,16.4,5.2,4.03,11.97,4.55,17.78,1.37,5.08-2.78,8.15-7.16,9.91-12.39,2.9-8.58,2.73-17.31,.84-26.05-1.29-5.93-3.59-11.43-7.9-15.95-6.12-6.41-14.5-6.69-20.89-.56-1.79,1.72-3.33,3.78-4.56,5.92-3.97,6.87-5.08,14.42-5.22,23.7,.17,1.52,.32,4.57,.86,7.56Zm12.93,10.64c-3.58-2.84-5.44-6.54-5.65-10.99-.1-2.17,1.01-3.81,2.96-4.81,1.98-1.01,3.69-.27,5.25,1.04,.98,.82,2.02,2.19,3.03,2.19,.87,0,1.7-1.64,2.58-2.51,2.25-2.23,5.17-2.82,7.59-1.55,2.48,1.29,3.66,3.94,3.05,6.94-.73,3.66-2.47,6.78-5.37,9.25-1.99,1.7-4.31,2.62-6.97,2.6-2.43,.03-4.6-.66-6.47-2.14Zm-8.18-83.63c-3.32-4.14-8.16-4.29-11.59-.43-5.28,5.94-5.37,17.32-.19,23.31,3.39,3.92,8.25,3.91,11.64-.02,2.78-3.22,3.79-7.03,3.94-11.48-.23-3.87-1.04-7.94-3.8-11.38Zm24.79,23.17c3.36,3.62,7.65,3.54,11-.09,5.58-6.04,5.59-17.6-.14-23.56-1.09-1.14-2.66-2.05-4.19-2.54-2.87-.91-5.96,.76-8.02,4.05-2.01,3.21-2.88,6.74-2.91,10.48-.05,4.39,1.2,8.37,4.26,11.66ZM50.63,134.45c14.41-4.39,21.95-14.93,26.27-28.22,.13-.4-.12-.92-.19-1.39-.44,.26-1.05,.41-1.31,.79-1.43,2.12-2.68,4.36-4.17,6.44-4.16,5.83-8.78,11.24-15.24,14.86-7.76,4.36-20.89,6.09-27.11-1.83-.32-.41-1.21-.4-1.83-.58-.2,.66-.65,1.36-.54,1.96,.45,2.37,1.87,4.21,3.79,5.7,3.49,2.71,7.62,3.43,13.21,3.62,1.56-.28,4.43-.53,7.11-1.34Zm38.63,6.38c-.39,.64-.81,1.27-1.17,1.92-2.3,4.17-4.38,8.47-6.91,12.5-5.2,8.28-12.36,14.53-21.79,17.92-3.94,1.41-8.19,1.99-12.27,3.03-.86,.22-1.61,.82-2.41,1.25,.86,.31,1.72,.87,2.59,.9,8.95,.35,17.11-2.02,24.35-7.13,10.07-7.1,15.21-17.21,18.2-28.58,.14-.52-.05-1.12-.09-1.68-.17-.04-.33-.08-.5-.12Zm115.6,39.82c-6.69,.18-12.15,2.66-15.97,8.15-.41,.6-.79,1.27-.95,1.96-.28,1.26,.5,1.86,1.72,1.39,.59-.23,1.12-.59,1.67-.91,2.25-1.27,4.44-2.68,6.77-3.8,3.67-1.76,7.28-1.54,10.73,.73,.76,.5,1.65,1.17,2.46,1.15,1.16-.03,2.52-.36,3.41-1.03,1.07-.8,1.19-2.26,.42-3.4-.62-.91-1.44-1.94-2.42-2.32-2.49-.97-5.11-1.61-7.68-2.39-.05,.15-.1,.3-.16,.45Zm-29.36-73.43c-.16,.43-.41,.84-.48,1.28-.1,.71-.23,1.46-.1,2.15,2.55,12.83,9.63,22.35,21.92,27.99,.52,.24,1.24,.04,1.87,.05-.21-.58-.26-1.33-.67-1.73-1.94-1.86-3.92-3.68-5.98-5.41-5.11-4.32-9.13-9.41-11.75-15.5-.96-2.23-1.86-4.49-2.85-6.7-.28-.63-.79-1.16-1.19-1.73-.26-.13-.52-.26-.78-.39Z"/>
  </g>
</svg>