<?xml version="1.0" encoding="UTF-8"?>
<svg id="Layer_2" data-name="Layer 2" xmlns="http://www.w3.org/2000/svg" viewBox="0 0 276.56 229.99">
  <g id="Layer_1-2" data-name="Layer 1">
    <path d="M153.61,118.4c-.23,3.54-5.47,7.63-13.03,8.34-8.86,.83-16.88-2.48-19.71-8.31,11.08,6.9,21.97,7.52,32.75-.03Zm-80.91,76.83c-3.07-5.91-3.7-12.13-3.15-18.45,.07-.81,.14-1.62,.21-2.44l-.52-.11c-.31,.64-.7,1.26-.91,1.92-2.64,8.31-1.81,16.37,3.1,24.05,2.38,3.72,6.08,6.46,11.11,7.95,3.17,.94,6.4,1.08,10.12,.25-.69-.22-.89-.32-1.1-.35-9.55-1.3-15.36-6.07-18.87-12.82Zm159.99-42.18c11.2,1.27,25.19-4.69,25.69-11.08-7.09,6.38-15.91,9.05-26.35,7.46-10.7-1.63-16.24-7.75-19.76-15.68-2.27,8.27,8.22,17.92,20.41,19.3ZM15.77,128.53c-.24,.04-.48,.07-.73,.11-.27,1.21-.71,2.42-.8,3.64-.43,6.07,1.85,11.55,6.15,16.51,2.19,2.53,5.03,4.59,8.78,5.59,1.7,.45,3.58,.46,5.38,.67,.03-.15,.07-.31,.1-.46-12.94-5.64-17.65-15.05-18.89-26.06ZM118.12,62.15c2.25-3.2,2.85-6.7,2.82-9.83,.04-4.49-.64-7.41-2.4-10.3-1.65-2.7-4.06-4.74-8.13-4.85-4.05-.11-6.94,1.63-8.5,4.38-3.97,6.97-3.96,14.02,.47,20.87,.84,1.3,2.53,2.49,4.2,3.16,4.29,1.73,8.97,.23,11.55-3.43Zm151.7,162.25c.04,.25,.07,.5,.11,.75-1.08,.25-2.14,.64-3.24,.73-11.03,.87-22.05,2.01-33.11,2.47-54.14,2.23-108.32,1.96-162.49,.59-15.65-.4-31.27-1.76-46.9-2.74-1.7-.11-3.36-.58-5.03-.89,.03-.24,.05-.48,.08-.71,18.55-2.57,37.37-2.5,56.51-3.28-.48-.36-.67-.58-.94-.69-8.29-3.38-13.64-8.77-17.12-15.46-.81-1.56-1.36-3.27-2.57-4.61-.96-1.08-2.66-2.3-4.17-2.43-11.15-.95-17.77-7.6-18.97-15.35-1.18-7.6-5.75-13.3-12.75-18.17-7.88-5.49-14.04-11.92-17.07-19.98-2.34-6.24-3.05-12.54-.84-18.9,3.48-9.99,14.45-14.24,26.65-10.33,1.91,.61,3.73,1.4,5.6,2.08,6.09,2.22,10.71,1.66,15.52-2.02,5.55-4.26,9-9.54,11.63-15.2,2.8-6.02,3.76-12.26,3.68-18.65-.11-8.13-.31-16.27,0-24.4,.35-9.19,3.09-18.01,8.21-26.32,7.7-12.5,19.63-21.42,36.28-26.16,20.33-5.79,40.98-6.47,61.41-.76,20.95,5.86,33.94,17.48,37.98,35,2.15,9.31,1.81,18.73,2.53,28.1,.88,11.35,2.88,22.54,7.79,33.31,2.71,5.94,6.15,11.56,11.69,16.24,.88,.75,1.84,1.46,2.86,2.08,4.14,2.51,8.04,2.42,12.52,.31,3.3-1.56,6.79-3.2,10.47-3.87,10.11-1.83,18.32,2.6,19.88,10.66,3.11,16.12-7.32,32.22-30.42,37.43-3.79,.85-7.77,1.2-11.67,1.78,.46,2.33,1.33,4.81,1.32,7.28,0,3.03-.27,6.17-1.29,9.08-1.63,4.7-5.81,7.9-11.64,9.52-3.7,1.03-5.74,2.85-6.59,5.87-1.64,5.79-4.96,10.88-11.04,14.61-12.1,7.43-30.23,7.59-42.63,.3-3.8-2.23-7.34-4.73-11.05-7.05-1.37-.86-2.82-1.67-4.33-2.36-2.99-1.38-6.18-1.52-9.21-.21-2.39,1.04-4.71,2.26-6.8,3.65-8.02,5.35-15.25,11.51-24.98,15.37,27.41,0,54.82-.19,82.23,.05,27.34,.25,54.71,.47,81.87,3.29Zm-173.27-7.14c6.58-1.23,12.15-3.92,17.23-7.28,5.22-3.44,10.12-7.2,15.48-10.48,8.89-5.44,16.06-5.3,25.01,.13,3.51,2.13,6.9,4.4,10.34,6.61,5.96,3.83,12.75,5.5,20.45,5.2,11.27-.44,20.15-5.76,23.42-14.26,.51-1.33,.96-2.67,1.42-4,1.13-3.33,3.69-5.62,7.83-6.79,.79-.22,1.56-.5,2.34-.75,4.93-1.58,7.57-4.53,8.28-8.62,.9-5.18-.64-9.93-4.03-14.35-1.6-2.09-3.23-4.17-5.08-6.57,2.54,.84,4.45,1.63,6.48,2.11,16.09,3.76,39.9-4.21,43.41-22.3,.69-3.53,1-7.09-.42-10.57-1.6-3.92-5.15-5.76-10.23-4.86-2.9,.51-5.8,1.55-8.31,2.82-8.26,4.18-16.31,3.72-23.37-1.64-6.07-4.61-10.1-10.27-13.19-16.36-6.06-11.94-8.63-24.46-9.64-37.21-.67-8.48-.75-17-1.99-25.42-2.62-17.77-15.67-28.94-37-34.31-11.72-2.95-23.76-3.1-35.9-2.02-28.06,2.51-48.1,16.18-55.15,37.7-2.92,8.91-3.16,17.99-2.89,27.11,.21,7.28,.93,14.59-.76,21.83-2.22,9.48-6.67,18.16-14.97,25.4-7.06,6.15-15.95,7.45-25.38,3.84-1.93-.74-3.85-1.5-5.85-2.08-6.53-1.87-12.52,.07-15.01,5.16-1.19,2.43-1.96,5.13-2.03,7.72-.25,8.97,3.9,16.74,11.55,23.31,4.03,3.46,8.45,6.64,12.42,10.14,4.18,3.68,6.55,8.08,7.21,13.05,.22,1.66,.69,3.35,1.4,4.92,1.91,4.24,5.24,7.37,11.32,7.93,6.22,.58,9.74,3.5,11.82,7.95,1.21,2.58,2.65,5.16,4.46,7.5,6.28,8.1,17.6,11.63,29.32,9.43ZM155.25,42.53c-1.95,3.1-2.38,6.45-2.38,9.85,0,3.53,.5,6.99,2.67,10.15,1.7,2.48,4.14,4.18,7.93,4.24,3.78,.06,6.57-1.47,8.13-3.98,4.24-6.83,4.41-13.83,.17-20.71-1.67-2.71-4.65-4.36-8.68-4.2-3.85,.16-6.22,2.08-7.84,4.65Zm-34.9,62.72c-5.82-6.08-8.46-13.16-10.03-20.53-.49-2.3-.85-4.68-.63-6.99,.44-4.65,4.59-6.29,9.83-4.17,3.93,1.59,7.77,3.44,11.92,4.55,7.11,1.91,14.04,.97,20.48-2.09,1.57-.75,3.06-1.59,4.64-2.33,4.49-2.09,8.42-.6,9.18,3.47,.16,.83,.13,1.68,.23,3.02-1.37,8.81-3.78,17.84-11.05,25.56-6,6.37-14.98,8.65-23.68,6.18-4.54-1.29-8.03-3.7-10.88-6.68Zm9.73-.08c4.39,3.1,12.11,3.07,15.85-.02-1.98-3.55-13.89-3.61-15.85,.02Z"/>
  </g>
</svg>