<?xml version="1.0" encoding="UTF-8"?>
<svg id="Layer_2" data-name="Layer 2" xmlns="http://www.w3.org/2000/svg" viewBox="0 0 247.82 294.53">
  <g id="Layer_1-2" data-name="Layer 1">
    <path d="M142.13,262.25c.45,.05,1.07,.13,1.69,.17,14.24,.73,28.51,1.19,42.73,2.26,12.63,.95,25.23,2.52,37.49,5.84,3.24,.88,6.41,2.16,9.4,3.68,4.13,2.1,4.18,5.05,.28,7.48-5.33,3.32-11.38,4.91-17.49,5.81-12.59,1.84-25.22,3.7-37.91,4.65-16.15,1.21-32.37,1.77-48.57,2.16-13.32,.32-26.68,.34-39.99-.14-19.43-.7-38.86-1.8-58.03-5.33-6.87-1.27-13.74-2.59-20.08-5.65-1.27-.61-2.47-1.47-3.5-2.42-1.84-1.7-1.85-3.55,.22-5.01,1.96-1.38,4.13-2.79,6.42-3.34,8.65-2.1,17.39-3.88,26.11-5.71,2.23-.47,4.5-.71,7.11-1.11-3.34-2.3-6.49-4.23-9.37-6.51-3.46-2.74-6.63-5.84-10.03-8.66-1.1-.91-2.47-1.58-3.82-2.12-4.39-1.74-9.04-2.95-13.19-5.11-9.99-5.18-13.84-14.28-10.3-24.77,1.58-4.68,4.32-9,6.69-13.4,2.88-5.35,6.14-10.51,8.85-15.93,2.73-5.46,2.28-10.91-.77-16.35-2.61-4.67-5.3-9.47-6.74-14.54-2.84-10.03,.07-19.33,5.62-27.92,3.85-5.97,8.96-10.83,14.51-15.26,6.41-5.11,12.28-10.67,16.26-17.89,3.32-6.03,5.2-12.51,5.84-19.28,.74-7.98,.87-16.03,1.83-23.98,2.44-20.25,11.35-36.83,29.96-47.28,21.34-11.98,50.64-7.13,67.15,10.68,9.68,10.44,15.33,22.61,16.41,36.6,.67,8.62,.54,17.3,.76,25.95,.19,7.24,.08,14.51,.62,21.73,.92,12.45,6.45,22.76,16.75,30.2,11.15,8.06,23.42,14.07,37.03,17.15,4.88,1.1,9.83,1.25,14.76,0,5.97-1.52,10.91,2.02,11,8.1,.15,10.77-4.52,19.26-13.33,25.63-.75,.54-1.57,1-2.36,1.48-5.53,3.38-6.49,5.89-5.4,12.19,.51,2.92,.72,6.03,.28,8.94-.74,4.93-3.87,8.41-8.85,9.6-4.53,1.08-7.13,3.65-8.32,7.88-.1,.34-.23,.66-.35,1-2.8,7.89-7.77,13.11-16.95,13.07-2.71-.01-4.42,1.38-5.74,3.49-.71,1.14-1.47,2.26-2.22,3.37-4.94,7.3-11.97,9.88-20.58,8.26-4.97-.93-9.03-.29-12.72,3.54-2.6,2.69-6.07,4.58-9.14,6.82ZM27.9,176.15c.77,.44,1,.5,1.11,.64,.35,.45,.68,.91,.98,1.39,3.02,4.83,3.5,9.86,1.38,15.16-2.76,6.9-3.23,13.77,.18,20.67,1.43,2.89,1.11,5.89-.56,8.71-.97,1.64-1.95,3.29-2.85,4.97-4.28,7.94-3.77,13.1,2.55,19.55,13.91,14.18,30.7,23.44,50.54,26.92,12.73,2.23,24.22,.36,31.78-11.53,1.7-2.67,4.41-3.48,7.54-2.99,1,.16,1.98,.37,2.97,.55,6.67,1.18,13.2,.75,19-2.84,3.17-1.96,6.01-4.59,8.52-7.33,2.67-2.91,5.54-4.11,9.38-3.03,1.11,.31,2.22,.61,3.33,.92,7.2,2.04,13.33,0,17.59-6.04,1.26-1.78,2.2-3.79,3.23-5.72,1.75-3.31,3.16-4.02,6.95-3.36,5.63,.98,9.8-.78,12.47-5.74,1.45-2.71,2.44-5.7,3.35-8.65,1.18-3.8,3.38-5.95,7.65-6.18,4.67-.25,8.31-3.33,8.85-7.85,.36-3.06-.14-6.28-.67-9.36-1.17-6.9,.23-10.02,6.51-13.24,8.15-4.17,12.99-10.74,14.82-19.45,.68-3.2,.83-6.46-.69-9.52-1.09-2.19-2.02-2.4-4.12-1.2-.68,.39-1.41,.72-2.14,.99-5.32,1.99-10.81,1.79-16.2,.64-14.51-3.09-27.59-9.38-39.35-18.11-7.97-5.92-14.03-13.52-16.38-23.21-1.42-5.85-2.37-11.92-2.59-17.92-.42-11.33-.04-22.68-.2-34.02-.15-10.81-2.85-20.98-8.45-30.42C141.63,8.08,113.75-1.49,90.43,8.17c-17.66,7.31-27.68,21.04-31.2,39.07-1.75,8.94-2.07,18.16-2.67,27.28-1.07,16.35-7.59,29.94-20.3,40.77-5.47,4.66-11.13,9.33-15.56,14.86-8.97,11.21-10.85,23.52-3.24,36.39,1.05,1.77,2,3.58,3.08,5.33,2.29,3.71,2.78,7.61,1.53,11.77-2.15,7.15-5.56,13.69-9.53,20.02-2.62,4.19-5.12,8.49-7.26,12.93-2.06,4.28-2.71,8.88-1.28,13.58,2.06,6.79,11.78,13.86,20.14,14.55-1.57-3.11-3.02-6.33-1.9-9.75,1.26-3.86,2.89-7.62,4.64-11.3,1.66-3.47,2.08-6.82,.41-10.36-2.59-5.47-2.73-11.09-.52-16.63,2.63-6.6,5.02-13.13,1.14-20.55ZM135.17,63.23c-.73,3-1.54,6.69-2.54,10.31-.31,1.11-1.04,2.16-1.77,3.1-3.03,3.9-7.2,4.02-9.89-.12-1.72-2.66-2.92-5.81-3.61-8.89-1.23-5.49-.95-11.09,1.05-16.41,.77-2.05,2.02-4.07,3.52-5.69,2.15-2.33,5.12-2.15,7.47,.02,2.46,2.27,3.59,5.26,4.31,8.35,.65,2.79,.91,5.67,1.47,9.33Zm-6.03-4.42c2.1,0,3.9-1.71,3.89-3.69,0-2.25-1.64-3.89-3.88-3.91-2.02-.02-3.76,1.73-3.78,3.8-.02,2.08,1.7,3.81,3.77,3.8Zm-32.88,3.34c-.1,3.75-.8,8.73-3.52,13.23-3.44,5.69-8.42,5.64-11.68-.19-3.18-5.7-3.33-11.9-2.29-18.08,.51-3.07,1.48-6.2,2.9-8.98,2.84-5.55,7.87-5.64,11.33-.47,2.15,3.21,3.26,7.67,3.28,14.5Zm-8.32-7.01c.05-2.07-1.6-3.84-3.67-3.92-2.12-.08-3.94,1.65-4.02,3.83-.07,2.01,1.65,3.73,3.78,3.78,2.06,.05,3.85-1.64,3.91-3.69Zm10.31,34.45c-.13,5.6,.37,11.13,3.28,16.11,2.67,4.55,6.94,4.49,9.74,0,.37-.6,.81-1.22,.94-1.88,.89-4.45,1.76-8.91,2.49-13.39,.15-.93-.33-1.95-.47-2.66-2.68,1.57-4.95,3.64-7.59,4.28-3.35,.81-5.05-2.59-7.66-4.77-.34,1.03-.72,1.67-.73,2.31Zm74.04,76.34c5.35,4.19,11.36,7.13,17.98,8.86,9.3,2.43,18.66,3.5,28.09,.66,9.27-2.79,14.74-9.02,17-18.08-.59,.69-1.08,1.45-1.52,2.25-4.7,8.61-12.09,13.11-22,13.79-8.59,.59-16.96-.61-25.1-3.22-5.43-1.74-10.75-3.82-16.34-5.82,.72,.59,1.29,1.08,1.88,1.55Z"/>
  </g>
</svg>