<?xml version="1.0" encoding="UTF-8"?>
<svg id="Layer_2" data-name="Layer 2" xmlns="http://www.w3.org/2000/svg" viewBox="0 0 282.61 270.13">
  <g id="Layer_1-2" data-name="Layer 1">
    <path d="M240.58,200.61c-.56,4.92-2.01,8.99-3.88,12.88-2.24,4.68-5.48,8.35-9.49,11.16-7.65,5.37-15.35,10.66-23,16.04-7.7,5.42-15.84,6.3-24.42,3.13-1.45-.53-2.9-1.03-4.36-1.52-4.9-1.64-9.13-.34-12.82,3.57-1.99,2.11-3.95,4.32-6.18,6.08-6.62,5.21-14.18,6.3-22.04,5.75-2.07-.15-4.14-.4-6.22-.54-4.5-.3-8.56,1.22-12.29,3.93-2.05,1.49-4.06,3.04-6.1,4.54-7.09,5.22-14.58,5.78-22.38,2.35-3.29-1.45-6.46-3.24-9.8-4.53-7.98-3.1-15.28-1.55-21.78,4.51-.69,.64-1.39,1.28-2.08,1.92-.17-.07-.34-.13-.5-.2,.67-2.33,1.12-4.76,2.04-6.96,2-4.78,5.21-8.59,8.81-11.91,3.3-3.03,6.8-5.79,10.21-8.67,.42-.35,.85-.7,1.13-.93-2.65-.52-5.38-.78-7.95-1.63-5.45-1.82-9.36-5.99-12.5-11.14-1.06-1.75-2.07-3.54-3.13-5.29-4.55-7.57-10.02-9.7-17.9-7.19-3.68,1.17-7.4,2.43-11.17,3.01-5.91,.91-10.75-1.77-14.59-6.74-3.74-4.85-6.22-10.49-8.19-16.48,3.42,3.1,7.05,5.74,11.4,6.58,2.24,.44,4.63,.51,6.89,.19,3.32-.47,5.43-3.26,5.64-6.99,.1-1.82,.1-3.71-.2-5.5-1.13-6.59,.67-11.99,5.08-16.38,6.1-6.06,12.79-11.24,19.89-15.69,5.9-3.69,12.05-6.89,18.09-10.31,.26-.14,.5-.3,.56-.34-3.97-1.07-8.08-1.96-12.07-3.29-5.95-1.98-9.92-6.24-11.22-13.24-.15-.8-.43-1.56-.6-2.36-1.96-8.98-7.95-11.13-14.69-9.55-2.59,.61-5.11,1.83-7.52,3.1-2.42,1.27-4.66,2.95-6.92,4.41,.75-15.1,9.32-27.31,22.82-32.39,9.74-3.67,19.54-3.8,29.39-.59,4.74,1.54,9.55,2.53,14.46,1.6,6.94-1.31,11.86-6.13,15.94-12.17,5.91-8.73,8.98-18.8,11.05-29.34,1.46-7.45,2.46-15.05,4.5-22.3,3.75-13.34,11.12-23.59,23.18-28.49,19.33-7.86,40.53,1.53,47.11,27.01,2.14,8.29,3.25,16.91,4.89,25.37,1.43,7.39,2.67,14.88,6.31,21.45,4.15,7.49,9.92,11.8,18.11,10.87,4.79-.54,9.21-2.47,12.89-5.87,3.19-2.94,6.04-6.35,8.97-9.64,3.04-3.42,6.49-6.01,10.77-7,6.78-1.57,12.8,.56,18.34,4.88,3.85,3.01,6.97,6.83,9.67,11.11,4.39,6.97,7.24,14.76,9.9,22.47-2.56-.96-5.05-2.29-7.67-2.8-6.6-1.29-12.22,3.65-13.15,11.09-.92,7.38,1.19,14,3.97,20.46,.6,1.4,1.29,2.76,2.04,4.35-7.56-1.34-11.55,3.54-13.98,10.15-1.75,4.74-2.63,9.89-3.68,14.92-2.16,10.38-7.33,15.47-16.87,16.5-3.89,.42-7.84,.67-11.61,1.67-5.97,1.59-10.57,5.26-12.14,12.42-1.95,8.89,3.2,16.8,11.32,17.49,6.68,.57,12.32-2.1,17.37-6.73,.69-.64,1.36-1.3,2.37-2.27ZM27.21,109.49c2.78-.74,5.4-1.78,8.09-2.1,7.4-.89,15.81,1.53,18.37,12.9,.28,1.25,.75,2.45,1.1,3.68,2,6.89,6.35,10.75,12.59,12.24,11.05,2.64,21.98,2.02,32.8-1.48,.72-.23,1.44-.44,2.68-.81-.7,1.45-1.03,2.43-1.58,3.21-2.87,4.06-6.79,6.54-10.88,8.75,9.27-1.59,17.1-6.16,23.4-13.92,6.22-7.66,10.24-16.61,12.4-26.66,.11,.31,.15,.58,.14,.85-.01,.41-.04,.82-.08,1.23-.92,8.55-3.12,16.66-6.7,24.29-5.33,11.36-12.94,19.92-24.37,23.1-5.18,1.44-10.58,2.02-15.91,2.67-11.15,1.36-21.65,4.79-31.26,11.37-1.22,.84-2.38,1.79-3.88,2.92,7.27-.42,14.02-.59,19.05,6.41-.52,.24-.63,.34-.74,.34-.85-.07-1.7-.19-2.56-.25-7.02-.51-13.96-.06-20.55,2.94-4.45,2.02-6.96,5.65-7.07,11.3-.12,6.61-2.69,11.82-7.93,15.15-1.13,.72-2.38,1.18-3.86,1.9,.68,0,1.04,.02,1.4,0,.36-.03,.72-.12,1.09-.18,4.99-.87,9.01-3.67,12.41-7.72,3.7-4.4,8.16-7.26,13.47-8.6,6.06-1.53,11.91-.5,17.68,1.52,5.31,1.85,10.66,3.1,16.23,2.09,10.9-1.97,19.4-8.4,25.87-18.15,8.68-13.08,15.51-27.42,22.06-41.92,.29-.65,.6-1.28,.9-1.92-.47,2.46-1.17,4.77-1.92,7.06-4.29,13.06-8.85,25.98-15.33,37.95-8.99,16.61-22.1,25.81-39.38,27.5-3.73,.36-7.52,.05-11.28,.05-.05,.23-.1,.45-.16,.68,6.13,3.16,9.84,8.96,13.52,14.85,3.24,5.18,7.91,6.76,13.25,5.43,5.71-1.42,11.33-3.33,17.02-4.85,6.59-1.76,10.72-6.43,13.19-13.23,.25-.69,.52-1.36,.78-2.05-.53,12.99-5.82,22.14-17.04,26.54-1.95,.76-3.87,1.69-5.68,2.8-4.17,2.55-8.3,8.79-8.68,12.71,1.54-1.41,3.05-3.02,4.76-4.32,7.35-5.58,15.62-6.42,24.1-5.21,5.01,.72,9.92,2.24,14.91,3.2,10.53,2.04,17.93-1.86,23.13-12.33,1.95-3.92,3.47-8.11,5.15-12.2,1.49-3.63,3.25-7.04,6.04-9.64,2.05-1.91,4.38-3.16,7.25-3.81-1.1,1.69-2.08,3.01-2.86,4.45-4.76,8.81-.83,18.08,8.25,19.86,5.71,1.12,10.62-.67,15.12-4.43,4.33-3.61,8.89-6.75,14.12-8.49,.99-.33,1.98-.68,2.99-.96,.93-.26,1.87-.45,3.15-.75-.66-.28-.94-.44-1.23-.5-6.21-1.44-9.92-5.91-11.7-12.43-2.98-10.93,1.09-21.87,10.36-27.68,2.96-1.85,6.2-3.21,9.39-4.54,6.03-2.51,10.43-6.96,13.31-13.33,5-11.07,6.52-22.88,6.09-35.14-.22-6.13-.32-12.28-.16-18.41,.11-4.24,.98-8.39,3.08-12.06,.99-1.73,2.27-3.03,4.59-3.53-3.25,7.06-2.27,13.95-1.13,20.88,1.13-5.6,1.98-11.38,6.43-15.08,4.53-3.77,9.77-3.23,15.33-2.3-4.02-7.85-8.55-14.65-16.18-17.91-5.81-2.48-10.92-1.05-15.23,3.92-1.11,1.27-2.14,2.63-3.21,3.94-3.88,4.74-8.32,8.62-13.6,11.24-11.09,5.51-22.52,3.23-30.29-6.14-3.58-4.31-6.16-9.34-7.83-14.89-1.19-3.96-2.15-8.02-3.25-12.19-.05,.43-.1,.7-.1,.97,.01,15.01-.26,30.04,.14,45.04,.27,9.92,2.42,19.57,6.3,28.6,1.51,3.52,3.27,6.91,5.07,10.68-.53-.55-.84-.85-1.14-1.17-6.13-6.59-9.76-14.72-11.83-23.82-2.57-11.27-3.07-22.79-3.05-34.33,.02-14.68,.35-29.36,.47-44.04,.02-2.85-.02-5.79-.57-8.55-4.99-24.99-29.06-30.63-44.48-18.89-7.64,5.82-11.61,14.38-13.62,24.18-1.38,6.71-2.32,13.53-3.76,20.21-2.59,12.06-6.73,23.35-14.23,32.77-4.79,6.01-10.51,10.37-17.73,11.9-5.99,1.27-11.8,.07-17.55-1.73-6.95-2.17-13.95-2.7-21.03-.99-6.2,1.49-11.79,4.31-16.44,9.36Zm131.64-31.46c-.06-4.66-.35-9.29-2.08-13.6-.93-2.31-2-4.85-4.68-4.81-2.66,.04-3.83,2.55-4.59,4.92-2.76,8.64-2.77,17.38-.05,26.02,.78,2.46,1.88,5.19,4.82,5.11,2.87-.07,4.12-2.69,4.76-5.21,1.03-4.02,1.55-8.21,2.29-12.32l-.48-.1Zm-23-38.16c-.06,3.24,.24,6.4,1.82,9.23,1.43,2.55,3.56,2.59,5.13,.15,2.62-4.09,2.64-14.03,.05-18.19-1.84-2.95-4.11-2.95-5.4,.34-1.03,2.61-1.39,5.55-2.05,8.34,.15,.04,.3,.09,.45,.13Zm25.07,8.61c1.31,3.41,4.13,3.53,5.6,.25,2.61-5.83,2.53-11.87-.22-17.62-1.51-3.15-4.02-3.05-5.32,.24-1.06,2.67-1.43,5.67-2.13,8.65,.69,2.93,1.07,5.86,2.08,8.48Z"/>
  </g>
</svg>