<?xml version="1.0" encoding="UTF-8"?>
<svg id="Layer_2" data-name="Layer 2" xmlns="http://www.w3.org/2000/svg" viewBox="0 0 339.35 268.74">
  <g id="Layer_1-2" data-name="Layer 1">
    <path d="M253.71,242.59c-15.94,17.98-58.32,23.87-79.42,9.91-.57,1.14-1.1,2.21-1.72,3.45,1.2,.13,2.13,.23,3.05,.34-.16-.16-.32-.32-.49-.48-1.52,.94-3.31,1.7-4.52,2.86-5.25,5.03-12.08,7.65-19.74,8.92-12.71,2.1-25.24,1.3-37.51-2.12-2.05-.57-4.03-1.35-5.91-2.23-8.09-3.79-12.14-9.58-12.2-17.52-2.48,.69-4.81,1.24-7.05,1.98-7.16,2.37-12.33,.76-15.59-5.02-2.55-4.52-5.99-8.23-12.19-9.58-.42-.09-.84-.2-1.27-.23-6.26-.43-7.22,.28-7.27,4.55-.12,10.5-17.73,15.94-26.18,13.62-5.45-1.49-9.09-5.37-9.05-10.4,0-1.52-.61-2.22-2.21-2.9-5.28-2.26-9.47-5.58-12.6-9.74-3.55-4.71-1.9-8.51,4.46-10.25,3.05-.83,6.18-1.47,9.3-2.11,18.02-3.65,29.19-13.45,36.03-27.16,.16-.33,.38-.68,.37-1.02-.18-4.43,.05-8.92-.71-13.29-.86-4.95-6.95-7.61-12.72-6.01-.68,.19-1.53,.85-1.64,1.38-1.44,7.12-10.01,9.86-16.61,8.21-7.48-1.88-11.59-8.51-9.31-15.47,2.21-6.75,7.34-11.65,14.97-14.65,3.05-1.2,6.25-2.21,9.51-2.92,11.21-2.44,18.32-8.53,21.67-17.31,2.73-7.14,4.89-14.51,6.22-21.9,2.69-14.95,4.64-29.99,6.9-44.99,2.87-19.08,12.46-35.17,30.83-47.44C116.69,2.68,134.6-1.05,154.28,.25c11.34,.75,22.1,3.09,31.58,8.54,12.68,7.29,20.24,17.55,23.65,29.69,2.36,8.41,3.71,17.05,4.8,25.65,2.16,17.02,3.32,34.14,8.43,50.82,5.45,17.77,15.26,33.49,32.31,45.68,11.36,8.12,24.5,13.01,39.58,13.96,10.36,.65,20.02-1.28,28.84-5.93,5.66-2.98,7.84-2.55,11.28,2.21,4.42,6.13,5.89,12.67,3.36,19.6-1.16,3.19-1.89,3.37-5.82,2.89-1.87-.23-3.83-.27-5.72-.1-3.96,.36-7.28,3.13-7.59,6.38-.39,4.16-1.65,8.04-4.76,11.41,.53,.81,1.04,1.56,1.5,2.33,4.06,6.79,.08,12.65-9.06,13.41-4.02,.34-7.74-.46-11.39-1.77-2.78-1-5.59-2.04-8.51-2.61-6.58-1.28-12.09,.91-14.71,6.01-1.26,2.46-1.95,5.21-2.28,7.88-.96,7.71-6.13,10.19-14.74,6.85-.39-.15-.78-.32-1.32-.55Zm-143.28-56.03c2.89,8.37,4.9,16.79,5.26,25.41,.52,12.53-2.9,23.78-15.67,31.93-.8,.51-1.41,1.81-1.25,2.62,.49,2.44,.96,5,2.24,7.19,2.68,4.58,7.7,7.06,13.34,8.72,9.66,2.85,19.65,3.62,29.82,2.89,6.3-.45,12.36-1.66,17.79-4.49,3.91-2.04,7.05-4.62,8.62-8.34,.5-1.18,.37-1.79-.94-2.66-15.18-10.1-25.35-22.89-29.64-38.65-.97-3.55-1.24-7.23-1.83-10.85l.72-.09c.09,.17,.24,.33,.28,.51,2.58,11.26,7.68,21.72,15.27,31.3,7.72,9.74,17.56,17.73,30.88,22.04,16.56,5.36,32.96,3.78,48.85-2.24,11.42-4.33,19.15-10.71,20.29-21.97,.92-9.12,7.73-14.15,18.66-16.15,6.84-1.25,13.66-.81,20.49-.06,13.31,1.45,20.96-3.61,22.22-14.61,.46-3.98,.71-8.05,1.98-11.87,2.06-6.24,8.44-7.25,13.76-2.49,.93,.84,1.65,1.84,2.46,2.77,.37,.42,.73,.85,1.35,1.58,1.75-6.8,0-12.58-4.34-17.94-1.24-1.53-2.4-1.85-4.45-.73-7.69,4.19-16.15,6.63-25.41,6.93-19.7,.64-36.37-5.38-50.6-16.21-15.52-11.82-24.91-26.65-30.39-43.31-5.48-16.69-7-33.84-8.9-50.96-1.07-9.69-1.97-19.42-5.27-28.84-4.12-11.76-11.59-21.57-24.48-28.12-9.99-5.07-21.09-6.76-32.64-7.02-15.53-.35-29.76,2.83-42.37,10.46-19,11.51-29.54,27.1-32.56,46.22-2.2,13.92-4.09,27.88-6.29,41.8-1.41,8.95-3.08,17.87-6.81,26.42-4.25,9.76-11.64,16.81-24.24,19.58-3.25,.72-6.46,1.72-9.5,2.92-8.3,3.26-14.04,10.92-13.24,17.36,.51,4.07,4.67,7.51,9.56,7.88,4.97,.38,8.46-1.81,9.96-6.24,.3-.9,.57-1.8,.92-2.69,2.35-5.81,7.22-9.36,14.43-10.62,8.53-1.5,13.98,2.41,13.55,9.6-.03,.43-.08,.86-.15,1.28-1.73,9.85-4.99,19.31-10.45,28.21-7.22,11.78-18.44,19.55-33.99,22.96-3.52,.77-7.11,1.39-10.56,2.35-3.84,1.07-4.75,3.22-2.61,6.05,3.13,4.15,7.47,7.28,12.12,9.58,2.52-3.15,4.48-6.51,7.44-9.08,3.49-3.03,7.54-5.82,11.91-7.92,10.02-4.81,20.37-9.13,30.59-13.66-4.86,3.16-10.02,5.98-15.21,8.76-7.06,3.78-14.33,7.3-21.15,11.36-5.02,2.99-8.43,7.2-9.83,12.32-1.44,5.26,1.05,9.36,6.49,10.7,7.53,1.86,21.69-3.43,21.75-11.46,.05-6.09,4.88-10.17,12.21-11.14,12.09-1.6,22.85,1.3,32.28,7.61,1.29,.86,2.26,2.05,3.43,3.13,2.44-2.75,2.84-5.58,.91-8.25-1.75-2.43-3.88-4.75-6.28-6.76-1.97-1.65-4.58-2.78-7.55-4.51,4.76,1.1,8.22,2.88,11.46,5.03,3.41,2.26,5.35,5.31,6.61,8.85,7.73-7.45,7.53-15.9,5.89-24.6,3.76,9.65,3.84,18.88-4.45,27.19-2.94,2.95-6.24,5.74-6.83,9.81,.86-.46,1.84-.93,2.74-1.47,6.15-3.66,9.97-8.72,12.57-14.47,4-8.83,3.35-17.88,1.66-26.95-.87-4.65-1.9-9.29-2.85-13.93Zm145.03,53.85c.77,.27,1.77,.69,2.83,.97,4.74,1.26,7.72-.22,7.98-4.11,.19-2.9,.92-5.84,1.93-8.63,2.07-5.7,8.05-9.11,15.27-9.25,4.54-.09,8.44,1.44,12.41,2.91,3.45,1.28,6.98,2.22,10.85,1.68,7.34-1.02,9.64-5.99,4.96-10.99-6.05,3.83-12.98,3.79-20.15,3.27-5.08-.37-10.26-.53-15.32-.17-10.79,.77-17.61,6.52-18.94,15.28-.44,2.89-1.15,5.76-1.82,9.03Zm-198.04-10.78c7.22,.74,12.29,3.78,16.03,8.52,1.13,1.43,1.94,3.04,2.88,4.57,1.54,2.49,4.16,3.7,7.48,3.21,1.6-.24,3.24-.64,4.68-1.25,6.49-2.77,7.08-6.09,1.38-9.79-7.43-4.83-16.1-6.97-25.54-6.63-2.32,.09-4.61,.89-6.91,1.37Zm-18.93-63.49c5.13-1.11,9.76-.72,13.33,2.78,3.38,3.31,2.93,7.38,3.18,11.33,.6-1.37,1.19-2.72,1.47-4.11,.85-4.15,1.82-8.29,2.26-12.48,.3-2.78-1.93-4.66-5.08-5.14-5.95-.9-13.12,2.62-15.17,7.61Zm294,24.62c.21-.16,.42-.32,.63-.48-1.64-1.88-3.07-3.94-4.99-5.6-2.12-1.83-4.64-1.6-6.01,.65-1.43,2.34-2.11,4.99-3.12,7.51,.24,.12,.48,.24,.72,.37,3.8-2.53,8.08-3.28,12.78-2.44ZM134.9,67.22c-.29,7.29-1.33,13.37-5.17,18.86-2.38,3.41-5.4,6.37-10.68,6.26-5.03-.1-7.82-3.07-10.1-6.32-3.1-4.43-4.36-9.32-4.77-14.37-.56-7.02,.24-13.9,3.73-20.4,1.04-1.94,2.41-3.84,4.06-5.46,4.19-4.11,9.75-4.12,14.16-.17,4.51,4.05,6.52,9.08,7.72,14.33,.63,2.73,.81,5.54,1.04,7.25Zm-16.43,2.6c1.73-.06,2.93-.88,3.06-2.61,.13-1.79-1.06-2.96-3.09-3.03-2.03-.08-3.51,1.03-3.6,2.69-.09,1.64,1.32,2.89,3.63,2.95Zm75.71-1.6c-.24,5.66-1.2,11.17-4.3,16.27-1.11,1.83-2.53,3.63-4.23,5.12-4.36,3.82-10.05,3.7-14.37-.15-3.65-3.25-5.53-7.23-6.66-11.49-2.24-8.46-1.83-16.82,1.81-24.96,1.07-2.38,2.6-4.72,4.46-6.74,4.27-4.63,10.16-4.71,14.82-.37,4.72,4.41,6.63,9.83,7.7,15.48,.42,2.26,.52,4.56,.77,6.84Zm-20.19,1.58c1.99,.04,3.45-1.13,3.41-2.82-.04-1.64-.89-2.75-3.06-2.85-2.08-.1-3.47,.94-3.58,2.68-.11,1.68,1.27,2.96,3.23,3Zm3.39,75.49c.85,9.6,2.69,19.06,6.33,28.23,3.87,9.76,9.27,18.83,17.97,26.37,11.65,10.1,26.52,13.14,41.58,8.18,7.14-2.35,14.41-2.99,21.97-2.68,4.86,.2,9.75,.37,14.6,.2,7.22-.26,14.12-1.63,19.99-5.39,1.59-1.02,3.01-2.2,4.97-3.65-5.12,1.98-9.32,4-13.84,5.25-7.73,2.14-15.81,1.31-23.81,1.19-5.45-.08-10.94,.12-16.36,.61-3.06,.27-6.07,1.24-8.99,2.14-14.24,4.37-26.48,1.5-37.07-6.98-9.37-7.5-15.19-16.85-19.58-26.84-4.2-9.54-6.28-19.46-7.79-29.51,0,.96-.07,1.92,.01,2.88Zm5.99,100.29c10.44,3.19,21.33,4.58,32.48,4.34,6.05-.13,11.92-1,17.29-3.48,7.5-3.46,11.92-10.98,10.16-17.36-1.44,9.77-8.64,15.97-20.52,17.5-9.85,1.27-19.55,.3-29.24-1.33-16.94-2.85-28.54-10.89-35.08-24-1.08-2.17-2.1-4.37-3.15-6.55,2.22,14.76,10.81,25.6,28.05,30.88Zm-39.54-137.95c2.71,3.53,7.48,3.77,10.3,.45,3.42-4.03,4.03-8.67,3.84-13.54h-17.63c.15,4.76,.49,9.19,3.49,13.09Zm41.13,87.41c-11.86-24.95-14.45-50.63-8.97-76.94-8.02,26.51-4.96,52.15,8.97,76.94Zm-93.53-22.01c4.3-27.46,2.84-54.66-5.87-81.54,5.91,26.97,8.7,54.12,5.87,81.54Zm198.18,14.43c-18.18,.13-34.99-3.46-49.94-12.29,13.9,11.61,31.27,13.75,49.94,12.29Z"/>
  </g>
</svg>