<?xml version="1.0" encoding="UTF-8"?>
<svg id="Layer_2" data-name="Layer 2" xmlns="http://www.w3.org/2000/svg" viewBox="0 0 264.28 255.07">
  <g id="Layer_1-2" data-name="Layer 1">
    <path d="M255.27,178.2c-.58-.79-.87-1.2-1.18-1.59-2.28-2.86-5.26-2.44-6.28,1.12-.59,2.05-.43,4.36-.51,6.55-.21,5.86-.23,11.74-.61,17.59-.12,1.93-1.09,3.79-1.7,5.77,3.06-.19,5.45-1.91,7.41-4.15,5.29-6.03,7.65-13.28,7.42-21.46-.13-4.57-2.5-7.64-6.25-9.53-1.88-.95-3.89-1.61-5.87-2.32-4.28-1.54-5.36-4.29-3.6-8.69,1.19-2.96,2.31-5.99,3.06-9.1,.38-1.57-.16-3.38-.5-5.1-.82,4.21-2.49,7.98-5.04,11.17-1.75,2.19-3.75,4.34-6.04,5.81-6.29,4.03-12.78,1.06-14.94-6.74,.55,.92,1.07,1.85,1.66,2.74,3.55,5.38,9.33,6.41,14.17,2.34,4.25-3.57,7.19-8.2,8.88-13.67,.24-.78,.39-1.62,.44-2.44,.16-2.38-.85-3.45-3.06-3.32-5.27,.29-9.34,3.41-11.52,8.86-.15-4.61,4.8-8.67,12.69-10.23-1.16-1.36-2.23-2.61-3.29-3.87,3.92,1.84,6.5,5.02,8.36,9.38,1.45-.99,3.04-1.66,4.11-2.85,6.94-7.76,10.19-16.93,8.19-27.56-1.58-8.4-8.74-14.45-16.84-14.83-3.66-.17-7.36,.17-10.99-.21-9.44-.98-16.63-6.27-22.43-13.87-6.97-9.15-10.98-19.88-14.62-30.83-3.06-9.19-5.83-18.55-9.67-27.37-4.96-11.4-12.95-20.1-24.21-24.88-16.81-7.15-35.39-.82-46.34,15.64-5.31,7.98-8.02,17.01-9.9,26.42-2.58,12.92-5.25,25.82-9.97,38.12-4.1,10.69-10.38,19.68-18.66,27.09-6.93,6.2-12.28,13.58-15.72,22.48-.15,.38-.36,.72-.63,1.03,1.22-7.83,4.43-14.6,9.76-20.2,3.62-3.81,7.47-7.38,11.03-11.24,7.89-8.55,12.51-19.1,15.57-30.36,2.85-10.48,5.09-21.15,7.54-31.76,2.43-10.51,6.37-20.21,13.46-28.22C127.39,4.06,138.19-.82,150.98,.11c12.55,.92,22.62,7.2,30.72,17.2,6.39,7.89,10.02,17.27,12.99,26.99,3.31,10.85,6.6,21.71,11.79,31.79,3.77,7.32,8.45,13.83,15.07,18.58,4.99,3.58,10.43,5.28,16.5,4.79,4.93-.4,9.83-.26,14.43,2.05,7.39,3.7,12.26,12.65,11.76,21.82-.38,7.17-2.7,13.63-6.8,19.36-2.43,3.4-4.5,4.61-8.36,4.99,1.27,5.58-.46,10.38-3.43,14.92-1.3,1.98-.83,3.46,1.31,4.53,1.94,.97,4.02,1.63,6.03,2.44,6.48,2.6,9.69,7.64,9.27,14.92-.34,5.89-1.85,11.48-5.06,16.37-1.37,2.07-3.04,4-4.87,5.63-2.65,2.36-4.28,2.56-7.75,1.79-5.15,9.63-13.88,13.44-23.49,15.33-7.2,1.41-13.96,.11-19.31-5.92-2.39-2.7-5.62-3.5-8.95-3.53-1,0-2.14,.87-2.97,1.63-.91,.84-.83,1.97,.19,2.85,.46,.39,.91,.79,1.36,1.19,3.7,3.31,4.44,6.91,2,11.43-4.28,7.91-10.9,12.44-19.31,13.83-9.23,1.53-17.64-.88-25.27-6.59-2.57-1.93-5.36-3.53-8.58-5.62,2.25,.47,4.21,.54,5.9,1.3,2.39,1.08,4.58,2.65,6.85,4.03,9.08,5.5,18.46,6.77,28.15,2,4.38-2.16,7.84-5.5,10.17-10.04,1.91-3.72,1.46-5.79-1.76-8.36-2.44-1.95-2.84-3.63-1.22-6.19,3.72-5.87,15.66-12.42,25.17-7.64-7.82-2.24-14.79-.48-21.53,5.18,5.01-1.07,8.54,1.09,11.91,3.79,6.42,5.15,13.51,5.99,21.01,3.37,2.91-1.01,5.76-2.3,8.49-3.78,7.97-4.33,11.41-11.62,11.73-20.81,.18-5.26,.26-10.52,.42-15.77,.02-.68,.2-1.37,.39-2.02,.79-2.76,2.29-4.2,4.44-4.29,2.21-.1,3.7,1.18,4.89,4.54ZM53.92,232.62c.04-.3,.09-.59,.13-.89,3.69,.43,7.38,.87,11.07,1.3-.43-.43-.9-.66-1.39-.77-3.58-.8-7.17-1.55-10.75-2.38-.66-.15-1.44-.43-1.86-.92-2.02-2.36-4.14-4.66-5.84-7.27-3.92-6.01-6.2-12.36-2.37-19.53-.98,1.87-1.93,3.78-2.19,5.79-.79,5.95,1.6,10.95,4.77,15.6,1.27,1.86,2.69,3.62,4.13,5.55-7.47-1.13-15.22-6.33-18.91-12.57-3.53-5.98-3.04-12.44,1.92-17.11,2.21-2.08,5.15-3.54,8-4.55,5.93-2.11,12.18-1.68,18.32-1.49,8.97,.28,16.67-2.92,23.63-8.6,7.68-6.28,13.2-14.38,17.35-23.53,6.6-14.54,10.61-30,14.14-45.61,.62-2.72,1.13-5.46,1.69-8.18-.45,.6-.62,1.26-.79,1.92-2.77,10.45-5.31,20.97-8.37,31.32-3.29,11.11-7.38,21.92-13.93,31.44-9.41,13.67-21.45,21.9-38.16,20.68-3.83-.28-7.74,.01-11.56,.52-3.03,.4-5.98,1.53-8.8,2.29,.82-2.04,1.79-4.23,2.59-6.49,2.46-6.9,1.6-13.3-3.25-18.68-2.51-2.78-5.41-5.22-8.35-7.5-3.33-2.59-7.16-3.96-11.38-3.93-4.24,.03-7.89,1.44-10.87,4.83,.17-.88,.39-1.69,.85-2.3,1.74-2.33,3.37-4.78,5.36-6.86,7.35-7.67,21.63-7.16,27.72,2.47,1.2,1.9,2.26,3.89,3.5,5.76,1.74,2.61,4.15,4.16,7.18,4.56,3.24,.42,6.3-.37,9.07-2.02,2.9-1.73,5.78-3.58,8.37-5.76,12.63-10.66,21.86-24.12,28.58-39.57,.05-.11-.01-.28-.04-.66-.27,.52-.43,.82-.57,1.13-4.96,10.97-11.41,20.83-19.44,29.54-5.38,5.83-11.07,11.26-18.1,14.78-6.97,3.5-12.06,1.8-15.96-5.18-3.19-5.72-7.42-9.97-13.72-11.53-.23-.06-.44-.26-.73-.45,1.94-2.41,4.44-3.74,7.19-3.99,4.62-.41,9.3-.12,13.91-.57,3.41-.33,6.96-.83,10.1-2.16,9.22-3.91,17.21-9.91,24.3-17.24,.25-.26,.46-.57,.7-.86-5.25,4.15-10.54,8.16-16.03,11.86-7.73,5.22-16.15,7.69-25.42,6.47-2.25-.3-4.59-.14-6.87,.09-3.91,.38-7.3,1.98-9.91,5.25-.45,.57-1.4,.93-2.14,.97-9.4,.43-15.53,5.89-19.61,14.34-1.9,3.94-1.53,7.98,.91,11.6,4.18,6.21,9.65,10,17.24,9.58,.42,3.41,1.3,6.42,5.01,7.3,3.3,.79,5.58-.98,7.73-3.19-1.33,.31-2.58,.89-3.88,1.26-2.88,.82-5.02,.01-6.36-2.27-1.24-2.13-.91-3.25,1.34-4.04,1.7-.6,3.46-1.03,5.2-1.53-2.94-.2-5.82-.08-8.68,.23-6.21,.68-14.01-3.88-16.66-9.85-1.3-2.92-.82-5.5,1.46-7.69,2.23-2.13,4.89-3.19,7.85-3.39,9.05-.62,21.24,8.22,24.01,17.38,.14,.46,.25,.93,.33,1.41,1.22,7.78-2.22,14.05-6.29,19.85-2.96,4.22-5.08,8.35-3.88,13.73,.76,3.38,2.33,6.3,4.52,8.85,4.62,5.36,10.4,8.49,17.08,9.91,.96,.2,2.18,.51,2.72,1.24,7.22,9.64,16.81,14.98,27.99,17.46,3.12,.69,6.29,1.05,9.12,2.87,1.08,.7,2.45,.98,3.72,1.27,6.35,1.44,12.78,1.6,19.14,.38,12.37-2.38,22.55-8.29,28.51-20.65,1.92-3.98,3.66-5.02,7.39-4.57-2.14-1.81-4.86-1.69-6.79,.47-.93,1.04-1.68,2.3-2.4,3.53-3.41,5.84-7.92,10.48-13.57,13.83-8.86,5.25-18.42,6.4-28.33,5.17-2.35-.29-4.66-.9-7-1.37,.02-.18,.03-.37,.05-.55,7.6-.23,14.92-1.72,21.85-5.14-21.35,7.84-40.34,4.4-56.63-12.36ZM166.46,71.72c.06-2.19-1.11-2.86-3.13-2.07-2.32,.91-4.62,1.95-7.01,2.58-4.04,1.06-8.13,1.03-12.24,.1-2.19-.49-2.95,.42-2.49,2.5,1.21,5.49,7.18,10.63,12.41,10.7,7.92,.1,12.28-7.63,12.45-13.81Zm-1.32-8.38c2.26,2.15,5,1.94,6.86-.52,3.43-4.55,1.96-14.18-2.65-17.38-2.09-1.45-3.92-1.21-5.58,.78-1.75,2.1-2.11,4.68-2.18,7.35-.01,3.98,1.32,7.66,3.55,9.77Zm-25.98-13.13c-2.1-2.02-4.65-1.81-6.37,.41-3.28,4.23-2.61,13.41,1.25,17.05,2.54,2.39,5.65,1.98,7.2-1.24,.95-1.97,1.34-4.25,1.98-6.39-.44-3.86-1.38-7.24-4.07-9.83Zm-61.81,179.25c2.36,.27,4.73,.85,7.08,.76,6.23-.23,11.6-3.13,16.67-6.67,9.8-6.84,16.5-16.44,21.56-27.46,4.61-10.04,8.16-20.51,11.17-31.2,.86-3.04,1.6-6.11,2.39-9.17-.5,.57-.69,1.23-.87,1.89-3.12,11.37-6.73,22.56-11.34,33.37-5.21,12.22-11.82,23.34-22.56,31.04-7.24,5.19-14.87,9.13-24.06,6.65-.01,.26-.03,.52-.04,.78Zm155.35-39.05c-.91,0-1.81-.02-2.72,0-3.43,.1-6.62-.79-9.6-2.53-11.8-6.89-19.67-17.4-24.76-30.38-3.56-9.07-5.25-18.66-6.7-28.32,.53,4.78,1.14,9.56,2.03,14.27,2.47,12.98,7.2,24.84,15.96,34.59,4.35,4.85,9.02,9.28,14.99,11.85,3.51,1.51,7.11,2.15,10.82,1.05l-.02-.54Zm19.03-75.64c-3.83-4.15-11.27-5.93-16.01,2.01-2.79,4.68-5.31,9.55-7.84,14.14,2.35-1.56,3.9-4.18,5.3-6.92,1.22-2.37,2.32-4.82,3.72-7.07,2.74-4.41,6.94-5.7,11.46-3.62,1.39,.64,2.64,1.64,4.22,2.64-.4-.56-.59-.9-.85-1.18Z"/>
  </g>
</svg>