<?xml version="1.0" encoding="UTF-8"?>
<svg id="Layer_2" data-name="Layer 2" xmlns="http://www.w3.org/2000/svg" viewBox="0 0 265.14 238.02">
  <g id="Layer_1-2" data-name="Layer 1">
    <path d="M250.19,109.69c-1.99,4.1-4.61,7.04-8.34,8.88-8.4,4.13-16.66,3.09-24.67-1.08-4.86-2.53-8.3-6.5-11.23-10.88-5.11-7.64-8.63-15.98-11.76-24.48-4.51-12.22-8.75-24.54-13.39-36.71-3.74-9.81-9.07-18.75-16.96-26.17-8.11-7.62-17.68-12.09-29.1-12.36-10-.24-19.21,2.68-27.49,7.91-12.65,8-20.17,19.39-23.05,33.55-1.37,6.75-2.28,13.57-3.59,20.33-1.76,9.11-4.78,17.78-11.2,24.98-4.47,5.01-9.85,8.71-16.81,9.98-11.68,2.12-21.15-4.1-22.85-15.33-.59-3.86-.54-7.81-.75-11.72-.02-.36,.12-.72,.27-1.57,.65,1.01,1.12,1.62,1.45,2.28,1.56,3.13,3.07,6.28,4.63,9.41,.43,.86,.94,1.68,1.47,2.48,4.96,7.61,12.34,9.52,20.71,5.45,8.06-3.92,13.69-9.82,15.69-18.33,1.9-8.06,3.53-16.19,4.91-24.34,1.62-9.58,3.92-18.9,9.67-27.06C97.44,11.22,110.76,2.7,127.98,.46c17.32-2.25,31.55,3.91,43.34,15.76,7.02,7.06,11.67,15.54,15.04,24.61,3.78,10.16,7.08,20.48,10.64,30.71,3.37,9.66,6.87,19.27,12.36,28.08,2.53,4.06,5.44,7.81,9.23,10.91,7.13,5.82,14.92,6.73,23.37,3.06,1.81-.79,3.52-1.77,5.29-2.64,.81-.39,1.65-.71,2.94-1.26Zm-103.08-12.65c9.66-8.57,13.05-19.59,13.26-31.78,.04-2.07-1.71-3-3.66-2-1.49,.77-2.86,1.75-4.26,2.66-13.52,8.85-29.1,7.51-39.73-1.63-.73-.63-2.3-1.08-3.08-.75-.78,.33-1.47,1.75-1.47,2.69,0,2.96,.26,5.93,.6,8.87,.66,5.8,1.68,11.52,4.32,16.86,3.6,7.28,9.49,11.3,17.61,11.5,6.67-.07,11.92-2.46,16.4-6.42Zm-3.61-3.81c.24,.53-.46,1.77-1.11,2.3-2.65,2.18-5.71,3.68-9.24,3.98-.81,.07-2.22-.31-2.38-.78-.24-.7,.15-1.88,.71-2.48,2.48-2.65,5.72-3.92,10.05-4.25,.41,.23,1.64,.53,1.96,1.23Zm-17.79-15.62c-1.23-.06-2.17-1.14-2.13-2.43,.05-1.29,1.05-2.25,2.34-2.23,1.32,.02,2.24,.98,2.21,2.31-.03,1.35-1.12,2.41-2.42,2.35Zm38.64,62.21c.27,.87,.48,1.77,.83,2.61,5.22,12.44,13.61,22.76,23.65,31.93,5.61,5.13,11.69,9.65,18.88,12.65,9.8,4.09,17.25,3.02,23.67-3.78,5.35-5.66,11.49-10.06,18.86-13.09,3.37-1.39,6.68-3.39,9.35-5.79,5.02-4.51,5.72-10.65,5.53-16.89,0-.04-.18-.08-.39-.16-.32,.71-.59,1.45-.97,2.13-1.24,2.21-2.33,4.53-3.83,6.57-3.17,4.31-8,6.46-12.94,8.29-7.35,2.72-13.7,6.75-18.89,12.44-1.08,1.18-2.26,2.27-3.42,3.38-2.9,2.78-6.5,3.57-10.36,2.84-2.55-.48-5.14-1.24-7.45-2.36-9.13-4.42-16.82-10.72-24.07-17.52-6.76-6.33-11.8-13.86-16.51-21.63-.4-.65-.88-1.26-1.32-1.88-.21,.08-.41,.17-.62,.25ZM11.91,87.79C-2.14,96.1-1.98,111.69,3.31,120.48c2.53,4.2,5.67,8.06,8.52,12.08,3.12,4.39,5.93,9.02,9.4,13.15,12.4,14.78,37.38,11.65,45.66-5.95-1.95,1.32-3.54,2.53-5.25,3.54-2.97,1.75-5.85,3.82-9.08,4.98-8.19,2.97-18.43,2.41-25.18-5.96-5.75-7.13-11.63-14.18-17.42-21.28-.68-.83-1.26-1.75-1.81-2.67-4.94-8.32-5.11-18.94,4.41-26.28,2.09-1.61,3.95-3.49,5.88-5.29,.93-.87,1.78-1.83,2.66-2.75-3.52,.41-6.36,2.06-9.17,3.73ZM2.87,153.36c-.16,2.06-.36,4.13-.41,6.2-.28,11.96,4.62,21.6,14.74,28.56,10.59,7.28,22.74,9.32,35.4,7.86,10.2-1.18,20.29-3.26,30.43-4.94,1.41-.23,2.82-.45,4.23-.67-.48-.55-.99-.74-1.51-.89-7.74-2.26-15.55-2.17-23.44-.83-5.05,.85-10.13,1.95-15.22,2.12-4.57,.15-9.25-.44-13.75-1.35-11.32-2.3-19.69-8.26-23.91-18.88-1.78-4.47-2.09-9.14-2.04-13.87,.03-2.51,.06-5.05-.24-7.54-.39-3.2-1.71-6-5.06-7.56,1.48,3.9,1.11,7.86,.79,11.82Zm178.68-55.95c-.03,.64-.15,1.28-.07,1.91,.34,2.77,.58,5.57,1.14,8.3,3.39,16.4,10.97,30.47,25.13,40.83,9.76,7.14,20.39,10.68,32.82,7.83,13.38-3.07,21.44-10.98,23.73-23.72,.08-.46,.09-.93,.14-1.4-.86,.93-1.47,1.92-2.04,2.94-8.65,15.45-28.95,21.22-44.82,13.19-12.15-6.14-21.51-15.15-27.63-27.06-3.27-6.36-5.28-13.12-7.01-19.97-.25-.98-.62-1.94-.94-2.91-.15,.02-.29,.04-.44,.06ZM31.39,207.53c8.74-.22,16.01,2.71,21.62,9.2,2.61,3.02,5.09,6.16,7.86,9.03,4.88,5.04,10.96,7.88,18.16,8.52,4.89,.43,9.54-.53,14.14-1.95,8.38-2.59,16.44-1.79,23.63,3.05,6.38,4.29,15.43,2.94,20.25-1.12,2.34-1.97,4.35-4.31,6.67-6.64-1.02,.16-2.03,.15-2.89,.48-2.5,.95-4.98,1.94-7.39,3.07-5.16,2.43-9.94,2.5-15.1-.53-7.72-4.54-16.15-5.56-24.99-3.05-3.07,.87-6.26,1.68-9.42,1.82-8.6,.37-15.71-2.82-21.39-9.01-2.7-2.94-5.42-5.88-8.26-8.7-3.65-3.63-8.03-5.98-13.41-6.23-3.4-.16-6.75,.05-10.12,1.8,.42,.17,.53,.25,.63,.25Zm215.27,9.05c-3.79,1.27-7.63,2.43-11.36,3.84-5.39,2.03-10.77,2.38-16.27,.51-1.71-.58-3.44-1.1-5.16-1.64-11.36-3.56-21.8-1.94-31.3,5.03-2.04,1.5-4.01,3.11-6.13,4.49-4.8,3.14-10.28,2.36-13.89-2-1.45-1.74-2.6-3.71-3.84-5.6-3.12-4.75-7.44-7.89-13.32-8.68-4.75-.63-9.06,.59-12.84,3.48,.94,.08,1.85-.03,2.75-.12,8.76-.81,15.8,1.38,19.67,9.32,1.03,2.11,2.46,4.07,3.95,5.92,1.77,2.21,4.02,3.89,7.01,4.44,5.61,1.04,10.37-.74,14.64-4.06,2.68-2.08,5.2-4.35,7.97-6.31,4.3-3.04,9.15-4.61,14.59-4.46,4.44,.12,8.44,1.65,12.47,3.17,7,2.64,13.98,3.05,20.93-.12,3.8-1.73,7.48-3.65,10.35-6.69-.07-.18-.14-.35-.22-.53Zm16.34-35.87c-1.94,3.69-4.35,7.07-7.86,9.54-4.48,3.16-7.81,7.12-10.43,11.8-1.05,1.87-2.87,3.56-4.75,4.76-6.37,4.07-13.57,4.72-20.92,3.65-6.06-.88-12.05-2.19-18.05-3.38-6.56-1.29-12.91-1.13-18.85,2.22-.97,.55-1.84,1.26-2.76,1.9,.45,.21,.72,.15,.97,.06,4.27-1.65,8.71-2.37,13.23-1.56,3.83,.68,7.63,1.65,11.34,2.79,8.32,2.55,16.7,4.36,25.51,3.22,7.48-.96,14.02-3.57,17.55-10.42,2.61-5.07,6.07-9.34,10.52-13.03,4.09-3.39,5.53-8.02,5.32-13.17-.27,.54-.54,1.08-.82,1.61ZM75.35,117.71c-1.62,1.46-3.21,2.94-4.85,4.36-6.81,5.91-14.74,9.46-23.95,10.08-10.01,.68-16.69-3.11-21.07-11.71-.51-1-.97-2.03-1.41-3.07-1.92-4.5-3.77-9.03-5.74-13.51-.66-1.5-1.59-2.9-2.39-4.34-.15,.06-.29,.12-.44,.18,.39,1.85,.74,3.71,1.17,5.55,1.38,5.94,2.51,11.94,4.26,17.78,1.46,4.88,4.44,9.01,9.08,11.77,6.77,4.02,14.12,5.04,21.76,3.1,9.68-2.46,16.52-8.56,21.82-16.42,.78-1.15,1.43-2.38,2.15-3.57l-.39-.22Zm39.74-60.22c2.37,3.13,6.37,3.31,8.96,.37,.56-.63,1.09-1.35,1.4-2.11,2.61-6.48,2.54-13.03,.05-19.49-.91-2.36-2.55-4.41-5.6-4.39-3.01,.02-4.49,2.06-5.66,4.36-.23,.45-.45,.92-.55,1.41-.56,2.84-1.09,5.69-1.63,8.54,.27,5.01,1.21,8.89,3.04,11.31Zm4.95-10.49c-.46-.56-1.23-1.07-1.32-1.68-.14-.95,.25-2.06,1.56-1.92,.55,.06,1.02,.89,1.87,1.69-.91,.82-1.51,1.36-2.1,1.91Zm34.32-6.66c-.71-2.31-1.62-4.71-3.08-6.64-2.04-2.69-5.49-2.53-7.62,.08-.95,1.16-1.69,2.56-2.17,3.97-1.37,4.05-1.5,8.25-1.03,12.45,.29,2.63,1,5.17,2.72,7.34,2.43,3.07,6.32,3.16,8.75,.11,.76-.96,1.48-2.08,1.77-3.23,.67-2.64,1.06-5.35,1.43-7.32-.28-2.77-.19-4.85-.77-6.75Zm-6.12,6.41c-1.18,.14-1.46-.87-1.48-1.8-.02-.93,.38-1.79,1.46-1.59,.62,.12,1.12,.88,2.06,1.69-.94,.82-1.44,1.63-2.04,1.7Z"/>
  </g>
</svg>