<?xml version="1.0" encoding="UTF-8"?>
<svg id="Layer_2" data-name="Layer 2" xmlns="http://www.w3.org/2000/svg" viewBox="0 0 223.45 230.99">
  <g id="Layer_1-2" data-name="Layer 1">
    <path d="M100.78,0c19.65,1.23,34.94,9.9,45.03,26.24,4.17,6.76,6.01,14.27,7.94,21.75,1.65,6.39,2.92,12.92,6.39,18.77,6.22,10.49,15.37,17.66,28.32,20.02,3.46,.63,7.12,.41,10.69,.41,6.1,0,11.7,1.28,16.41,5.02,4.45,3.54,7.02,8.07,7.82,13.39,.63,4.21-2.12,7.01-6.92,7.03-4.22,.02-7.99,.89-10.97,3.84-3.66,3.63-4.71,9.45-2.39,13.81,1.2,2.25,2.96,3.96,5.89,4.01,2.85,.05,4.44-1.69,5.57-3.8,.85-1.59,1.83-2.9,3.99-2.68,1.92,.19,3.03,1.4,3.39,3.75,.83,5.6-1.31,10.46-4.73,14.89-4.75,6.15-11.62,9.39-19.21,11.67-2.67,.8-5.38,1.8-7.68,3.25-3.75,2.36-5.01,6.16-5.51,10.15-.89,7.04-2.72,13.77-7.01,19.8-4.01,5.64-9.32,9.79-16.25,12.06-1.49,.49-2.43,1.28-3.21,2.49-2.11,3.24-4.08,6.59-6.55,9.59-4.33,5.27-10.01,8.03-17.47,6.84-.71-.11-1.65,.31-2.3,.73-4.74,3.04-9.79,5.26-15.63,5.89-6.97,.75-13.02-.93-18.03-5.44-6.19-5.58-13.27-6.19-20.87-3.16-4.18,1.66-8.14,3.8-12.23,5.68-6.59,3.03-13.47,5.16-20.94,4.97-9.67-.24-18.32-4.03-22.3-13.92-.55-1.37-1.12-2.74-1.83-4.04-1.64-2.97-4.32-4.53-7.96-4.66-.66-.02-1.33-.03-1.99-.04-6.37-.11-9.98-3.28-10.23-9.17-.37-8.86,4.3-15.47,11.66-20.52,4.71-3.23,9.98-5.77,14.87-8.79,6.27-3.87,11.84-8.5,16.14-14.24,1.63-2.18,2.9-4.63,4-7.08,.85-1.89,.28-3.81-1.58-5.07-1.91-1.29-3.95-.92-5.73,.28-1.76,1.19-3.37,2.56-5.03,3.87-1.16,.91-2.25,1.9-3.43,2.79-3.02,2.27-6.37,2.9-10.02,1.5-3.7-1.42-5.38-4.2-5.76-7.71-.83-7.61,2.11-14.09,7.12-19.97,4.76-5.59,11.21-9.27,17.39-13.26,6.17-3.99,11.97-8.35,15.78-14.5,7.15-11.54,7.94-23.68,3.73-36.21-2.88-8.56-4.17-17.19-2.65-26.15C59.51,16.39,74.8,2.64,94.08,.52c1.97-.22,3.96-.31,6.7-.52Zm115.22,137.05c-8.21,5.43-15.89,.44-18.43-5.46-3.1-7.19-.33-16.26,6.45-20.86,3.51-2.38,7.44-3.39,11.76-3.28,1.05,.03,2.21,.14,2-1.47-.87-6.59-6.47-12.13-13.6-13.07-2.8-.37-5.68-.35-8.53-.31-9.88,.13-18.61-2.78-26.43-8.2-9.71-6.74-15.72-15.68-18.68-26.47-1.97-7.2-3.47-14.57-6.13-21.55-6.7-17.58-20.08-28.22-40.41-30.7-17.86-2.17-34.35,7.47-40.27,23.26-3.49,9.32-2.38,18.61,.23,27.92,1.27,4.53,2.69,9.1,3.11,13.73,1.23,13.5-2.71,25.6-12.84,35.72-5.35,5.35-11.95,9.25-18.37,13.38-5.91,3.8-10.89,8.36-13.66,14.65-1.3,2.94-1.78,5.98-1.45,9.14,.17,1.63,.84,2.92,2.59,3.6,1.7,.67,3.09,.2,4.36-.89,1.31-1.13,2.57-2.31,3.95-3.35,1.94-1.47,3.83-3.05,5.99-4.19,3.55-1.87,7.27-1.87,10.67,.42,3.36,2.26,4.56,5.44,4.04,9.18-.51,3.68-2.45,6.81-4.71,9.77-6.54,8.54-15.2,14.89-24.83,20.26-3.17,1.77-6.42,3.48-9.27,5.63-4.6,3.48-7.7,7.91-7.94,13.6-.17,4.14,.92,5.21,5.36,5.36,7.76,.27,12.99,3.65,15.59,10.42,.31,.8,.67,1.59,1.01,2.38,2.52,5.94,7.42,8.96,14.12,9.86,6.35,.86,12.28-.51,17.96-2.91,4.99-2.11,9.82-4.56,14.75-6.79,9.53-4.31,20.75-3.29,28.18,4.05,2.22,2.2,5.07,3.47,8.37,3.85,6.43,.74,12.03-1.18,17.16-4.51,7.7-5,13.29-11.69,17.75-19.23,8.01-13.55,11.3-28.28,12.66-43.47,.33-3.72,.42-7.47,.62-11.2,1.89,8.68,2.33,17.4,.99,26.16-2.61,17.07-8.91,32.7-21.86,45.86,4.23-.34,7.09-2.4,9.23-5.19,2.29-2.98,4.3-6.15,6.24-9.34,1.24-2.03,2.86-3.31,5.29-4.08,7.25-2.29,12.46-6.77,15.89-13.06,2.5-4.59,3.6-9.52,4.3-14.56,.74-5.36,2.55-10.37,7.44-13.68,2.66-1.79,5.88-3.01,9.01-4.08,4.3-1.47,8.64-2.79,12.28-5.47,3.81-2.79,6.55-6.26,8.09-10.83ZM112.64,67.46c-1.73-5.97-4.76-11.28-10.69-14.66-6.27-3.57-12.41-1.16-13.45,5.53-.51,3.3-.33,6.85,.42,10.11,1.69,7.32,5.05,14,11.33,19.06,4.23,3.41,8.62,2.57,11.3-2.01,1.81-3.1,2.18-6.48,2.34-11.1-.27-1.55-.49-4.31-1.25-6.94Zm17.17,20.86c0,.79,.03,1.58,0,2.37-.68,16.84-2.26,33.6-5.95,50.14-3,13.43-7.29,26.44-14.2,38.66-6.3,11.15-14.83,20.3-27.12,26.23-3.57,1.73-6.97,3.78-10.34,5.83-3.28,1.99-6.43,4.16-9.64,6.25,.52,.25,.8,.14,1.07,0,7.44-3.74,14.8-7.62,22.32-11.2,8.05-3.83,14.84-8.92,20.12-15.71,8.74-11.24,13.96-23.88,17.47-37.19,3.29-12.48,4.96-25.2,5.83-37.99,.62-9.13,.74-18.28,1.09-27.43-.21,0-.42,.02-.64,.03ZM112.67,21.95c-3.78-3.62-7.75-2.84-9.49,1.9-1.11,3.03-1.04,6.13-.37,9.22,.76,3.52,2.22,6.78,5.04,9.35,3.58,3.27,7.45,2.38,8.85-2.07,.55-1.73,.7-3.57,1.03-5.37-.21-5.23-2.03-10.14-5.06-13.04Zm-32.29,5.16c-3.22-3.09-6.91-2.55-8.55,1.45-.86,2.1-1.25,4.5-1.22,6.76,.04,4.49,1.47,8.67,4.84,12.06,3.47,3.49,7.56,2.63,8.93-1.9,.55-1.8,.7-3.7,.89-4.78-.18-5.55-1.15-10.03-4.88-13.6Zm72.58,56.79c1.12,2.13,2.11,4.32,3.38,6.37,4.62,7.53,9.45,14.96,13.98,22.55,4.95,8.28,8.28,17,7.6,26.69-.52,7.28-2.03,14.37-4.53,21.28-1.1,3.04-2.24,6.07-3.36,9.1,.51-.28,.81-.66,1-1.07,2.29-4.93,4.78-9.79,6.8-14.81,3.25-8.06,4.55-16.41,3-24.98-1.2-6.67-4.23-12.7-8.14-18.33-4.39-6.32-9.1-12.45-13.62-18.69-1.98-2.73-3.83-5.54-5.75-8.31-.12,.07-.24,.14-.37,.2ZM51.54,210.66c29.92-16.17,47.01-41,56.78-70.76-12.45,27.96-30.96,51.82-56.78,70.76Zm15.91-78.5c12.34-16.21,15.27-34.25,12.19-53.45,.59,18.73-4.63,36.32-12.19,53.45Z"/>
  </g>
</svg>