<?xml version="1.0" encoding="UTF-8"?>
<svg id="Layer_2" data-name="Layer 2" xmlns="http://www.w3.org/2000/svg" viewBox="0 0 295.72 267.69">
  <g id="Layer_1-2" data-name="Layer 1">
    <path d="M5.43,101.39c5.44-1.41,10.81-3.13,16.33-4.15,8.34-1.54,14.68,1.67,18.88,8.2,2.19,3.4,3.79,7.13,5.54,10.76,2.03,4.21,4.11,8.38,7.62,11.77,6.77,6.54,15.58,7.14,23.36,1.62,5.71-4.05,9.36-9.51,12.28-15.41,4.16-8.42,6.57-17.33,8-26.42,1.98-12.59,3.56-25.23,5.31-37.85,1.43-10.29,3.43-20.45,9.21-29.6C121.56,5.13,138.22-1.94,156.46,.46c20.95,2.76,34.62,14.19,42.92,31.51,3.09,6.45,4.23,13.35,4.87,20.33,1.01,10.98,2.01,21.97,6.48,32.36,4.03,9.37,10.11,17.23,20.23,21.9,4.87,2.25,10.11,3.08,15.51,3.11,6.15,.04,12.3-.19,18.44,.05,6.1,.24,11.11,2.83,15.04,7.12,.99,1.08,1.96,2.17,2.88,3.3,2.27,2.77,5.18,4.55,9.01,4.92,.53,.05,1.07,.13,1.56,.28,1.66,.52,1.96,1.58,.56,2.51-1.44,.96-3.06,1.77-4.71,2.38-5.5,2.04-11.13,3.79-16.56,5.98-3.39,1.37-6.65,3.13-9.67,5.09-1.47,.95-2.7,2.63-3.29,4.21-1.19,3.19,.91,6.46,4.87,7.46,3.26,.82,6.7,1,10.05,1.54,3.48,.56,6.99,1.02,10.38,1.87,3.56,.88,6.54,2.75,8.64,5.63,3.01,4.15,2.78,8.65-.9,12.3-1.8,1.78-3.81,3.49-6.01,4.82-9.86,5.94-17.76,13.51-23.35,23.03-3.79,6.46-9.72,9.85-17.55,10.77-1.78,.21-3.54,.62-5.28,1.05-8.14,1.98-12.43,7.41-11.55,15.12,.31,2.75,1.24,5.51,2.33,8.1,3.39,8.04,1.9,13.73-5.68,18.85-9.56,6.45-20.13,9.31-31.64,5.23-4.51-1.6-8.56-4.44-12.55-7.05-4.93-3.22-9.82-6.39-15.95-7.32-4.07-.61-8.14-.6-12.02,.9-3.44,1.33-3.85,3.51-.95,5.66,1.86,1.38,4.02,2.4,6,3.65,1.64,1.03,3.69,2.01,3.5,4.13-.18,2.09-2.25,2.97-4.1,3.62-11.16,3.91-22.18,4.17-32.72-1.68-5.09-2.82-8.35-7.16-10.8-12.02-1.74-3.44-3.13-7.02-4.94-10.42-1.28-2.4-2.8-4.74-4.57-6.85-2.5-2.98-6.09-3.77-9.91-2.74-3.18,.86-6.25,2.09-9.32,3.28-4.59,1.78-9.21,3.25-14.33,2.8-6.43-.56-10.31-3.92-10.87-9.79-.22-2.37-.15-4.77-.07-7.16,.17-5.33-2.34-9.42-6.78-12.67-4.79-3.51-10.48-4.97-16.33-6.1-3.58-.7-7.21-1.33-10.67-2.41-7.76-2.44-10.29-6.9-8.8-14.26,.83-4.13,1.92-8.36,1.7-12.49-.45-8.53-3.89-16.08-11.37-21.63-1.53-1.14-3.43-1.86-5.2-2.72-3.45-1.69-3.95-4.28-1.15-6.78,3.59-3.2,7.92-3.69,12.46-2.21,2.49,.81,4.81,2.1,7.17,3.23,6.07,2.9,10,.79,10.29-5.52,.17-3.85-.97-7.38-3.02-10.69-.72-1.17-1.56-2.28-2.26-3.46-1.31-2.2-.91-4.02,1.34-5.43,1.14-.72,2.47-1.19,3.72-1.77,2.93-1.35,3.52-3.43,1.23-5.57-1.7-1.59-3.74-2.98-5.88-4.05-4.94-2.46-10.34-3.57-15.96-3.77-1.79-.06-3.59,0-5.39,0-.02-.19-.05-.39-.07-.58Zm175.95,16.65c-.04,.36-.04,.73-.11,1.08-2.34,10.95-2.01,21.87,1.41,32.53,6.05,18.88,18.69,31.63,40.72,35.01,5.14,.79,10.31,.67,15.39-.89-9.3-.42-18.11-2.29-25.94-7.08-7.85-4.8-13.43-11.33-17.49-19.33,9.53,2.91,12.68,3.42,16.22,2.65-18.02-2.42-27.4-27.89-21.6-36.89,11.49,23.32,40.91,26.6,59.75,10.48-5.99,1.8-11.8,2.4-17.7,1.97-13.43-.98-23.42-6.59-28.79-18.24-.77-1.68-1.34-3.43-2.01-5.15,.26,8.1,2.64,15.62,7.73,22.92-.87-.45-1.2-.59-1.51-.77-5.52-3.27-9.06-7.89-10.81-13.65-2.21-7.25-2.71-14.72-2.79-22.18-.14-12.92,.18-25.85-.19-38.76-.18-6.39-.98-12.84-2.37-19.09-2.25-10.09-7.19-19.03-15.77-26.01-14.01-11.41-33.38-11.63-47.42-.35-7.16,5.75-11.18,13.31-13.75,21.57-3.57,11.48-4.5,23.34-5.95,35.12-1.77,14.35-3.32,28.72-6.53,42.87-2.05,9.06-4.56,18-9.55,26.15-3.24,5.28-7.61,9.43-14.18,11.21-.72,.2-1.45,.35-2.18,.52,4.19,.72,8.98-.33,12.6-3.05,2.72-2.04,5.07-4.5,7.52-6.82,.52-.49,.77-1.22,1.14-1.84l.98,.74c.24,3.73-2.93,6-4.92,8.82,1.1-.64,2.26-1.27,2.91-2.19,2.16-3.06,4.57-6.07,6.09-9.4,4.32-9.47,5.63-19.57,6.46-29.72,.3-3.6,.41-7.21,.61-10.81,.46,1.05,.77,2.1,.99,3.18,2.57,13.01,3.31,26.13,2.38,39.31-.49,6.86-1.67,13.61-4.76,19.97-5.35,10.98-16.27,17.24-28.83,16.41-9.64-.63-18.29-3.76-26.1-8.91-2.02-1.33-3.94-2.79-5.91-4.19,.02,.49,.19,.86,.45,1.18,5.37,6.8,12.16,11.99,20.69,15.17,16.91,6.3,34.43,1.18,43.94-13.05,2.42-3.63,4.4-7.55,6.15-11.5,1.76-3.98,2.99-8.15,4.47-12.32,.14,.17,.28,.28,.34,.43,.17,.46,.35,.93,.44,1.41,2.04,10.84,1.73,21.57-2.03,32.1-1.89,5.28-5.19,9.72-10.53,12.51-3.16,1.65-6.58,2.97-10.02,4.1-3.86,1.27-7.86,2.15-12.17,3.3,.65,.08,.95,.18,1.23,.14,5.55-.64,11.23-.83,16.63-2.05,11.26-2.54,18.62-9.06,21.01-19.66,.95-4.17,1.64-8.45,1.84-12.7,.33-6.78,.15-13.59,.2-20.38,0-.68,.1-1.36,.16-2.05,.71,.77,1.16,1.54,1.33,2.35,1.22,5.81,2.9,11.6,3.44,17.47,1.07,11.58,1.48,23.22,2.17,34.83,.3,5.09,.61,10.18,.91,15.27,.27-.85,.37-1.7,.39-2.55,.52-17.51,1.07-35.01,1.52-52.52,.23-9.06,.25-18.12,.46-27.19,.05-2.19,.37-4.4,.87-6.53,.17-.71,1.27-1.72,1.96-1.73,.83-.01,1.93,.74,2.44,1.45,.6,.82,.83,1.94,.97,2.95,.75,5.52,1.36,11.06,2.12,16.58,.43,3.12,1.05,6.22,1.59,9.32,.42-3.83,.28-7.62,.46-11.4,.15-3.16,.33-6.4,2.29-9.19,1.45-2.07,3.28-1.98,4.28,.28,.8,1.8,1.32,3.72,1.75,5.62,3.2,14.01,6.66,27.95,12.53,41.27,4.4,9.99,9.76,19.46,17.97,27.35,3.44,3.31,7.19,6.22,12.09,7.59,2.4,.67,4.82,.85,7.31,.22-3.64-.57-6.69-2.19-9.33-4.37-2.13-1.75-4.2-3.62-6-5.65-7.59-8.61-12.3-18.55-15.47-29.14-4.41-14.73-5.74-29.6-2.17-44.65,.98-4.12,2.41-8.1,5.58-11.44Zm82.53-1.75c.03-.24,.05-.47,.08-.71-1.11-.14-2.21-.36-3.33-.42-5.54-.27-11.09-.41-16.62-.75-6.31-.39-12.52-1.41-17.96-4.52-3.24-1.85-6.09-4.29-8.75-6.21-.08-.16,.06,.17,.23,.49,.28,.49,.56,.98,.88,1.44,4.76,6.99,12.01,10.19,20.63,10.59,8.26,.38,16.55,.08,24.83,.08Zm-226.08,7.44c-.07,.11-.15,.22-.22,.34,2.26,2.48,4.57,4.92,6.79,7.44,5.03,5.73,11.54,8.95,19.5,9.68,1.78,.16,3.58,.02,5.38,.02-3.31-.93-6.57-1.5-9.71-2.42-6.45-1.91-11.1-6.13-15.68-10.47-1.81-1.71-4.01-3.07-6.04-4.59Zm118.54-40.34c-.61-2.38-1.85-4.7-3.23-6.82-1.3-2-3.07-1.93-4.7-.1-.79,.89-1.46,1.91-1.96,2.96-3.3,7-4.31,14.35-3.45,21.88,.24,2.12,1.05,4.33,2.21,6.18,2.07,3.3,6.39,3.48,9.05,.53,.95-1.05,1.8-2.36,2.15-3.67,.82-3.06,1.31-6.2,1.93-9.29-.66-3.99-1.05-7.9-2.01-11.68Zm16.25-36.5c-1.31-1.91-2.88-3.74-5.59-3.65-2.87,.09-4.13,2.23-5.22,4.29-.55,1.03-.95,2.16-1.24,3.28-1.17,4.55-1.04,9.11,.12,13.63,.82,3.19,2.18,6.17,4.83,8.5,2.6,2.28,5.8,2.1,7.97-.52,.79-.96,1.52-2.07,1.83-3.22,.69-2.53,1.1-5.12,1.62-7.69-.43-5.2-1.28-10.17-4.32-14.63Zm-31.82,10.44c-.33-3.75-.9-7.44-3.57-10.51-2.01-2.32-4.65-2.57-6.88-.45-1.27,1.21-2.32,2.69-3.14,4.2-1.97,3.62-2.55,7.58-2.72,11.56-.15,3.5,.05,7,1.7,10.24,2.36,4.65,6.42,5.08,9.94,1.09,3.68-4.17,4.52-9.15,4.66-14.3,0-.61,.05-1.23,0-1.84Z"/>
  </g>
</svg>