<?xml version="1.0" encoding="UTF-8"?>
<svg id="Layer_2" data-name="Layer 2" xmlns="http://www.w3.org/2000/svg" viewBox="0 0 251.54 235.72">
  <defs>
    <style>
      .cls-1 {
        fill: #2d212d;
      }
    </style>
  </defs>
  <g id="Layer_1-2" data-name="Layer 1">
    <path class="cls-1" d="M185.91,225.29c-2.29,5.72-7.17,8.15-12.62,9.5-7.88,1.96-15.41,.85-22.34-3.56-1.14-.73-2.35-1.39-3.41-2.22-3.95-3.14-7.76-3.94-12.3-.71-3.59,2.56-7.93,1.87-12.05,.9-.35-.06-.69-.12-1.04-.18-.13-.06-.27-.09-.42-.07-1.91-1.4-3.82-2.79-5.73-4.2-1.2-.89-2.53-1.63-3.99-1.03-7.7,3.15-15.14,1.38-22.56-1.05-8.76-2.86-16.13-7.82-22.08-14.87-.44-.52-.89-1.03-1.35-1.53-2.45-2.64-4.8-2.84-7.45-.4-2.99,2.75-6.1,5.12-10.2,6.02-9.88,2.17-23.66-3.46-29.04-12.03-2.74-4.36-3.71-9.3,.98-13.49,2.72-2.43,1.8-5.49-1.75-6.47-2.25-.62-4.59-.91-6.86-1.47-2.55-.63-4.74-1.95-6.48-3.94-2.74-3.12-2.33-7,1.03-9.46,.91-.67,1.93-1.18,2.86-1.83,2.93-2.05,3.12-5.05,.46-7.4-.85-.75-1.77-1.43-2.66-2.12-5.84-4.57-7.99-10.64-6.4-17.74,1.7-7.57,6.12-12.92,14.08-14.59,4.79-1,9.96,.49,11.88,6.09,1,2.93,3.77,3.69,7.15,2.36,3.38-1.33,5.72-3.92,7.82-6.72,6.06-8.09,9-17.55,11.57-27.13,3.31-12.34,5.22-25,8.68-37.3,3.51-12.47,8.43-24.26,16.69-34.41C89.6,10.44,103.99,2.4,121.69,.42c32.28-3.61,60.34,16.32,71.36,46,5.04,13.58,6.68,27.75,7.26,42.1,.41,10.23,.86,20.46,4.59,30.16,2.3,5.99,5.69,11.19,11.37,14.56,2.6,1.54,5.4,2.37,8.43,2.12,4.08-.33,7.01-2.4,8.32-6.29,1.31-3.88,.21-7.3-2.73-10.12-.65-.62-1.4-1.14-2.1-1.71,3.38-2.31,11.24-1.44,16.03,2.94,7.17,6.54,9.27,16.8,5.38,26.25-2.43,5.93-6.52,10.49-11.35,14.5-2.47,2.06-4.61,4.35-5.37,7.65-.76,3.31-.1,6.22,2.5,8.44,2.61,2.23,5.6,1.93,8.54,.72,2.35-.96,3.97-2.9,5.63-4.92,2.69,10.78-3.43,22.36-12.99,24.95-1.83,.49-3.7,.72-5.6,.76-1.36,.03-2.72,.16-4.07,.34-1.73,.24-2.92,1.26-3.38,2.93-.46,1.67,.08,3.13,1.37,4.31,2.23,2.05,4.91,2.1,7.68,1.71,2.61-.37,5.08-1.21,7.87-2.68-2.5,5.6-6.16,9.43-11.06,12.09-9.14,4.96-18.77,5.09-28.63,2.87-2.35-.53-4.61-1.46-7.04-1.67-4.66-.41-6.71,1.14-7.56,5.74-.07,.37-.16,.74-.25,1.11Zm45.78-13.16c-2.32-.65-4.78-.46-7.07-1.35-3.91-1.53-6.78-5.29-6.49-8.7,.33-3.99,3.08-6.85,7.68-7.74,2.37-.45,4.79-.59,7.19-.91,6.89-.91,12.42-6.1,12.98-12.17-10.52,3.35-15.78,1.42-18.92-6.96-.9-3.77-.19-7.31,1.58-10.67,1.84-3.5,4.77-6.02,7.71-8.54,4.98-4.28,8.52-9.42,9.17-16.14,.45-4.69-.22-9.17-3.38-12.96-.78-2.2-2.49-3.51-4.41-4.62-.17-.07-.34-.13-.51-.2,.01,.19,.03,.38,.04,.57,2.71,8.61-1.25,16.66-9.27,18.74-4.42,1.15-8.74,.63-12.81-1.36-8.76-4.28-13.67-11.73-16.71-20.69-3.07-9.06-3.61-18.49-4.06-27.93-.58-12.27-1.3-24.56-5.07-36.36-8.48-26.58-25.4-43.94-53.87-47.96-8.68-1.23-17.34-.41-25.64,2.81-10.94,3.45-19.71,10.02-26.89,18.83-8.34,10.23-12.93,22.25-16.25,34.85-3.23,12.28-5.18,24.86-8.66,37.07-2.76,9.7-6.04,19.21-12.35,27.28-3.01,3.86-6.52,7.18-11.5,8.41-5.83,1.43-11.15-1.05-12.44-6.08-.77-3.01-2-4.75-6.68-3.37-9.23,2.72-12.28,15.86-5.39,22.92,1.37,1.4,2.97,2.58,4.41,3.92,2.26,2.11,3.61,4.64,3.39,7.84-.61,1.7-1.19,3.4-2.6,4.67-1.42,1.28-3.11,2.12-4.71,3.12-2.25,1.4-2.18,3.16,.15,4.47,1.54,.86,3.25,1.14,4.98,1.39,3.05,.45,6.16,.73,8.94,2.25,5.72,3.14,6,10.63,.52,14.09-.83,.52-1.69,.99-2.3,1.8-.68,.71-.43,1.61-.24,2.34,1.09,4.16,3.49,7.2,7.67,8.62,4.98,3.25,10.46,3.78,16.18,2.96,4.16-.6,6.87-3.58,9.88-6.08,4.01-3.31,8.66-3.2,12.52,.27,1.29,1.16,2.43,2.48,3.57,3.8,3.85,4.45,8.22,8.22,13.63,10.67,2.62,1.73,5.61,2.51,8.57,3.36,5.26,1.27,10.5,2.21,15.78-.06,1.74-.75,3.57-.49,5.29,.3,1.59,.73,2.97,1.79,4.37,2.84,5.06,3.82,10.28,4.7,15.93,1.13,3.4-2.16,6.99-2.1,10.56-.21,2.42,1.28,4.49,3.08,6.78,4.54,7.94,5.06,16.14,6.06,24.67,1.52,2.15-1.14,3.57-2.77,4.24-5.29,1.8-6.76,4.72-8.99,11.7-9.39,.93,.31,1.85,.63,2.78,.92,8.44,2.66,17,3.78,25.77,1.87,3.47-.9,6.87-1.93,9.59-4.45,.11-.06,.23-.11,.34-.17-.09-.04-.17-.08-.26-.13-.02,.1-.04,.2-.06,.31ZM91.24,72.35c6.11,.59,11.57-.8,15.95-5.35,.66-.68,.91-.34,1.36,.18,1.19,1.37,2.34,2.81,3.69,4.01,9.38,8.27,20.57,7.29,28.26-2.6,1.39-1.79,2.03-1.82,3.62-.33,3.29,3.07,7.33,4.4,11.85,4.19,.79-.04,1.58-.07,2.98-.13-3.21,2.39-6.25,3.17-9.53,2.48-2.01-.42-2.46,.05-2.5,2.09-.16,8.11-.62,16.2-3.39,23.95-1.29,3.6-2.94,6.99-5.95,9.48-6.03,4.97-13.6,4.26-20.01-1.76-6.97-6.55-10.36-14.93-12.21-24.05-.7-3.48-1.04-7.03-1.56-10.63-4.44,1.71-8.76,1.94-12.69-1.36l.13-.15Zm37.47,39.02c2.12,.15,3.98-.56,5.76-1.64,3.32-2.02,5.34-5.04,6.71-8.57,1.33-3.4,.33-5.58-3.13-6.86-2.72-1.01-5.99,.03-7.73,2.66-.66,1-.85,1.31-1.83,.24-3.61-3.95-9.18-3.64-12.55,.58-2.26,2.83-2.28,3.5,.16,6.17,1.32,1.45,2.67,2.92,4.2,4.12,2.45,1.92,5.08,3.55,8.41,3.3Zm-19.28-61.68c-.02,2.46-1.05,6.72-4.02,10.34-3.59,4.37-9.02,4.36-12.61,0-5.09-6.2-4.82-18.58,.54-24.53,3.82-4.24,9.15-3.99,12.6,.57,2.22,2.94,3.48,7.09,3.49,13.63Zm-6.97-2.13c1.55,.14,3-1.09,3.01-2.7,.02-1.67-.93-2.78-2.54-2.93-1.63-.15-2.7,.86-3,2.46-.29,1.53,.96,3.02,2.53,3.16Zm38.72-.66c.08-3.17,.94-7.5,3.95-11.11,3.75-4.49,9.15-4.34,12.73,.3,5.02,6.5,4.69,17.9-.7,24.13-3.73,4.3-9.1,4.13-12.59-.4-2.23-2.9-3.44-6.99-3.4-12.92Zm16.18-2.25c-.18-1.69-1.23-2.67-2.81-2.64-1.67,.03-2.79,1.04-2.84,2.85-.05,1.51,1.46,2.98,2.9,2.78,1.69-.23,2.7-1.2,2.75-2.99Zm-66.12,27.71c-.03-.23-.16-.44-.36-.25-.2,.19,.04,.33,.22,.41,0,0,.13-.15,.13-.15Z"/>
  </g>
</svg>