<?xml version="1.0" encoding="UTF-8"?>
<svg id="Layer_2" data-name="Layer 2" xmlns="http://www.w3.org/2000/svg" viewBox="0 0 313.53 258.13">
  <defs>
    <style>
      .cls-1 {
        fill: #170f14;
      }
    </style>
  </defs>
  <g id="Layer_1-2" data-name="Layer 1">
    <path class="cls-1" d="M187.28,184.62c-.51,3.96-2.11,7.66-3.61,11.38-2.27,5.65-5.42,10.92-9.06,15.97-3.81,4.43-7.65,8.81-12.36,12.57-11.58,9.22-25.01,14.44-40.68,14.97-.03-.16-.05-.33-.08-.49,9.73-.7,18.78-3.38,27.15-7.72,16.8-8.71,27.72-21.73,34.74-37.5,1.18-2.65,2.1-5.39,3.13-8.1,.16-.43,.21-.89,.79-1.07Zm-63.22-99.52c.16,1.96,.32,3.92,.39,5.88,.33,9.03-.88,17.94-3.1,26.73-2.06,8.17-5.25,15.95-11.41,22.52-6.19,6.59-13.84,10.84-23.82,11.25-4.25,.18-8.34-.61-12.41-1.53,.23,.83,1.11,1.01,1.8,1.34,2.65,1.24,5.53,1.86,8.43,2.39,11.5,.95,20.21-3.58,27.55-10.83,2.64-3.08,5.08-6.27,6.89-9.81,4.92-9.6,6.66-19.8,7.24-30.19,.34-6.11-.07-12.21-1.2-18.26-.47-.02-.38,.2-.36,.51Zm22.69-44.41c1.48-4.03,3.54-7.79,6.83-10.94,1.35-1.29,2.9-2.35,4.81-2.94,2.44-.76,4.5-.26,6.12,1.54,1.88,2.09,2.71,4.55,3.04,7.13,.64,5.02,.06,9.84-3.2,14.19-.85,1.14-1.89,2.11-3.14,2.9-3.31,2.09-7.21,1.73-9.96-.92-2.72-2.61-3.7-5.8-3.94-9.24,.22-.68,.4-1.34-.55-1.73Zm5.22-2.95c1.02,.79,2.17,.62,3.19,.05,1.81-1.01,2.93-2.45,3.03-4.4,0-1.02-.29-1.98-1.37-2.42-1.04-.43-2.12-.16-3.03,.5-1.26,.91-2.21,2.02-2.73,3.38-.43,1.11-.09,2.12,.91,2.9Zm161.55,48.58c-.02,.16-.05,.32-.05,.48,0,.01,0,.02,0,.04,.01,.09,.02,.18,.04,.28-.13,2.19-1.65,3.18-4.07,2.63-2.15-.49-3.89-1.63-5.59-2.81-2.11-1.45-4.24-2.89-6.81-3.65-.99-.29-2.29-.8-3.06,0-.78,.83,.07,1.82,.62,2.61,.93,1.34,2,2.6,2.93,3.94,2.51,3.59,3.86,7.42,2.99,11.69-.1,.49-.24,.99-.46,1.45-1.2,2.62-3.6,3.01-5.75,.92-1.34-1.3-2.2-2.87-3.02-4.45-1.14-2.18-2.21-4.39-3.4-6.55-.62-1.13-1.55-2.04-3-2.42-1.8-.47-3.49-.49-5,.7-1.49,1.17-1.08,2.54-.55,3.88,1.45,3.7,3.47,7.21,4.7,10.99,3.31,10.21,1.85,19.96-3.24,29.44-2.55,4.74-4.14,9.65-2.85,14.98,.65,2.68,1.31,5.36,1.97,8.04,4.18,16.98-2.62,30.22-17.74,40.65-.7,.48-1.41,.96-2.12,1.43-3.53,2.34-5.51,5.42-6.25,9.28-1.42,7.35-3.97,14.37-8.81,20.6-5.2,6.69-12.14,10.34-21.6,9.93-3.89-.17-7.78-.36-11.6-.91-6.63-.96-12.32,.44-17.17,4.59-4.12,3.52-8.31,6.99-13.43,9.4-11.26,5.3-23.05,6.2-34.78,1.87-6.3-2.33-12.29-2.94-18.9-1.87-17.3,2.81-32.03-1.56-44.23-12.76-4.27-3.92-8.63-7.83-14.15-10.46-7.19-3.43-14.69-4.25-22.45-1.75-5.5,1.77-9.08,5.21-10.63,10.23-.1,.31-.24,.61-.42,1.03-.89-3.04-.28-7.55,1.73-12,3.01-6.67,7.43-12.32,14.63-16.1,4.91-2.57,5.6-6.91,4.93-11.38-1.3-8.71-7.69-13.95-16.11-17.68-4.78-2.12-9.96-3.31-14.91-5.04-2.6-.91-5.13-1.94-7.44-3.35-4.6-2.81-5.89-6.37-4.01-10.99,1.28-3.14,3.32-5.92,5.41-8.67,2.69-3.54,5.64-6.94,7.66-10.83,2.9-5.58,2.92-11.07-.98-16.33-2.47-3.33-2.88-3.35-5.81-.51-2.62,2.54-4.88,5.33-7.21,8.07-.36,.43-.6,1.26-1.25,1.11-.73-.17-.95-1-1.06-1.65-.48-2.83-.07-5.59,.93-8.3,.93-2.52,2.53-4.76,3.75-7.15,.28-.17,.42-.38,.26-.68-.19,.11-.37,.21-.56,.32-5.02,3.48-8.84,7.88-12.31,12.54-.62,.84-.95,2.44-2.27,2.14-1.5-.34-.95-1.92-.89-2.97,.36-6.24,3.09-11.74,7.1-16.78,5.76-7.23,12.99-12.81,22.95-15,10.2-2.25,19.28-.28,27.02,6.1,2.57,2.12,4.79,4.51,7.13,6.81,3.08,3.01,6.23,5.91,10.62,7.51,4.86,1.77,9.33,1.2,13.51-1.47,4.91-3.14,7.88-7.59,10.37-12.29,5.02-9.49,8.23-19.49,10.35-29.78,2.37-11.51,4.27-23.12,8.81-34.2,4.13-10.08,9.92-19.29,18.46-27.02C147.68,4.06,161.34-.62,177.42,.07c9.01,.38,17.62,2.07,25.74,5.53,13.94,5.95,21.69,15.98,24.68,29.16,1.65,7.25,1.92,14.61,2.14,21.96,.26,8.65,.35,17.31,1.31,25.93,.88,7.88,2.26,15.67,5.73,23.06,1.03,2.19,2.27,4.26,4.17,5.98,2.78,2.52,5.7,2.47,8.39-.15,1.9-1.86,3.21-4.06,4.2-6.36,2.52-5.86,4.78-11.8,7.36-17.64,2.66-5.99,6.07-11.63,11.52-16.08,4.4-3.6,9.56-5.56,15.63-5.1,5.03,.38,9.35,2.38,13.3,5.05,3.75,2.54,6.94,5.57,9.98,8.73,.63,1.22,1.26,2.43,1.62,3.77,.22,.81,.26,1.62,.33,2.43,0,0,0,0,0,0ZM59.96,196.54c1.15,4.37,.5,8.64-1.81,12.77,.34,0,.53,.04,.69,0,1.25-.41,2.48-.84,3.72-1.26,2.69-.76,5.53-1.17,7.94-2.6,.82,.33,1.49-.15,2.17-.38,8.67-2.96,16.69-6.92,24.07-11.91,3.64-2.46,3.7-3.13,.2-5.87-1.2-.94-2.54-1.67-3.99-2.29-2.01-.86-4.13-1.44-6.26-2.02-6.21-1.68-12.08-3.84-17.16-7.63-8.89-6.64-14.68-14.94-18.18-24.62-2.34-6.47-3.13-13.15-3.74-19.86-.24-2.63-.69-5.24-1.99-7.66-1.57-2.92-4.63-4.66-7.91-4.49,1.93,2.56,2.79,5.42,3.53,8.32,.31,2.58,.62,5.15,.25,7.75-.02,4.62-1.71,8.92-3.19,13.27-.13,.37-.24,.75-.36,1.13-1.19,2.36-1.96,4.84-2.55,7.36-1.09,4.72,.4,8.64,4.92,11.53,1.76,1.12,3.63,2.06,5.59,2.87,4.15,1.7,8.35,3.29,12.27,5.39,1.19,.8,2.37,1.6,3.56,2.4,.25,.21,.51,.42,.76,.63,4.84,4.23,7.95,9.27,9.02,15.22,.66,3.67,.92,7.34-1.02,10.84,.54-3.53,.54-7.04-.34-10.53-2.39-9.46-8.5-16.22-18.69-20.03-2.7-1.1-5.39-2.19-8.09-3.29-.9-.51-1.81-1.02-2.71-1.53-6.55-3.74-8.62-8.84-6.21-15.92,1.11-3.27,2.57-6.45,3.9-9.66,1.3-3.13,1.98-6.37,2.31-9.68h0c-.25-4.31-.58-8.6-2.9-12.53-.37-.64-.64-1.33-1.12-1.9-.66-.78-1.3-1.74-2.72-1.4-2.81,.67-5.44,1.63-7.45,3.59,.32,.86,1.27,1.2,1.93,1.78,.41,.5,.82,1.01,1.24,1.51,.19,.26,.13,.71,.68,.71-.1,.54,.31,.95,.53,1.4,2.3,4.54,2.39,9.16,.79,13.88-1.46,4.3-4.21,7.98-6.98,11.66-2,2.65-4.16,5.22-5.41,8.25-1.98,4.8-.78,7.91,4.22,10.49,4.51,2.34,9.52,3.58,14.52,4.82v-.07c.26,.45,.73,.35,1.16,.35,.12,.37,.51,.23,.79,.3,.43,.48,1.11,.48,1.68,.7,9.27,3.62,15.98,9.27,18.35,18.24Zm139.51,41.13c-.1,.05-.29,.08,0,.19,0-.06,0-.13,0-.19Zm91.23-154.82c-.06-.62-.4-.72-.98-.7-3.9,.13-7.18,1.26-9.22,4.41-.49,.62-1.05,1.21-.98,2.13,1.53-.41,2.89-.85,4.39-.66,3.53,.43,5.38,2.51,6.65,5.18,1.24,2.62,1.94,5.45,3.81,7.84,.5,1.1,1.24,2.37,2.64,2.17,1.34-.19,1.23-1.63,1.32-2.68,.02-.16-.02-.33-.03-.5,.31-.35,.18-.68-.04-1-.02-.33-.05-.67-.07-1-.29-3.11-1.86-5.77-3.84-8.27-1.68-2.12-3.4-4.21-3.64-6.91Zm19.49,1.73c-3.42-5.41-8.08-9.8-14.31-12.72-6.24-2.92-12.6-3.35-18.84,.06-3.77,2.06-6.47,5.03-8.62,8.41-4.26,6.7-6.39,14.09-8.8,21.38-.27,.68-.55,1.37-.82,2.05-1.81,4.6-3.43,9.29-7,13.16-3.77,4.1-8.46,4.21-12.51,.31-2.43-2.35-4.07-5.14-5.37-8.08-3.87-8.69-5.59-17.8-6.48-27.04-.94-9.86-1.05-19.76-1.64-29.63-.44-7.34-1.19-14.66-2.97-21.87-2.95-11.93-10.96-19.78-24.03-23.75-6.06-1.84-12.27-2.86-18.66-3.12-17.5-.71-32.11,4.4-43.55,16.38-8.9,9.33-14.09,20.14-17.47,31.78-3.16,10.87-4.65,22.03-7.26,32.99-1.95,8.17-4.27,16.25-8.42,23.82-1.02,1.87-2.19,3.67-3.5,5.39-5.48,7.22-12.57,11.19-22.82,8.8-2.57-1.01-5.25-1.8-7.63-3.17,1.37,1.52,2.74,3.04,4.11,4.56,2.25,2.74,4.95,5.11,8.11,7.01,7.98,4.82,15.77,3.7,21.75-2.99,.77-.87,1.18-1.98,2.26-2.63-.04,.27-.02,.56-.14,.8-2.47,4.78-6.09,8.45-12.12,9.82-5.15,.61-9.49-1.05-13.41-3.78-4.2-2.92-7.34-6.69-10.47-10.45-4.6-5.53-9.04-11.18-14.98-15.69-6.49-4.92-14.11-6.69-22.44-5.09-12.56,2.41-20.48,9.82-26,19.59-1.55,2.3-2.33,4.85-2.99,7.47,3.53-4.53,7.38-8.75,12.3-12.13,2.33-.79,4.28-2.26,6.68-2.93l.43-.07c-.06,.11-.11,.22-.17,.32t0,0l-.9,1.62c-.17,.21-.35,.43-.52,.64-1.97,2.35-3.9,4.72-5.09,7.48-1.58,3.04-2.59,6.2-2.86,9.57,.77-1.14,1.79-2.13,2.12-3.46,.63-.26,.83-.83,1.18-1.28,3.64-4.62,7.88-8.7,13.77-11.14,7.87-3.26,16.32-2.3,19.47,7.46,1.38,4.28,1.69,8.71,2.59,13.06,2.16,10.48,6.37,20.14,14.27,28.36,5.45,5.67,11.98,9.99,20.18,12.14v-.06c.23,.43,.78,.28,1.15,.47,.58,.2,1.16,.41,1.75,.58,4.93,1.46,9.43,3.51,12.74,7.2,1.26,2.21,1.24,2.19,3.3,.47,5.57-4.66,10.6-9.72,14.91-15.32,15.19-19.77,19.96-41.79,18.08-65.25,.14-.24,.04-.63,.51-.68,.22,1.13,.44,2.26,.65,3.4,1.27,10.28,.85,20.49-1.38,30.66-3.66,16.62-11.4,31.51-23.85,44.44-12.57,13.07-28.56,21.32-47.14,25.89-.2,.06-.4,.12-.6,.18-.12-.02-.24,0-.34,.04-.84,.14-1.66,.3-2.5,.93,3.29-.18,6.17,.43,9,1.53,3.89,1.52,6.91,4.08,10.25,6.26l3.67,2.85c.08,.15,.15,.3,.23,.45h0c-.75,.21-1.19-.31-1.68-.61-2.81-1.74-5.57-3.54-8.37-5.28-4.97-3.09-10.45-4.28-16.44-3.23-7.48,1.31-12.68,5.42-16.74,10.83-1.19,1.59-2.37,3.2-3.26,5.28,11.99-7.69,26.11-7.27,37.21,.93,2.05,1.51,4.05,3.08,6.07,4.63,13.33,10.15,28.44,15.6,46.31,13.13,15.27-2.11,28.15-8.37,38.84-18.17,.23-.13,.47-.26,.7-.38,5.38-5.33,10.08-11.07,13.72-17.47,2.6-4.56,4.42-9.37,6.15-14.21,.78-3.58,1.96-7.09,2.41-10.72,.18,.01,.36,.03,.55,.04-.45,3-.9,6-1.35,8.99-.19,.58-.39,1.15-.58,1.73h0c-.58,1.98-1.12,3.97-1.74,5.93-1.74,5.46-4.41,10.58-7.3,15.62-2.46,3.21-4.52,6.68-7.58,9.52-1.68,1.56-3.06,3.37-5.01,4.71h0c-.37,.33-.74,.65-1.1,.98-.65,.57-1.31,1.14-1.96,1.72-2.24,2.35-5.11,4.05-7.76,5.99-5.61,3.16-11.36,6.08-18.17,7.97,1.41,.33,2.38,.56,3.35,.79,.13,.03,.26,.06,.39,.08,0,0,.13-.02,.13-.02,.12,.24,.33,.32,.61,.28,.21,.06,.41,.12,.62,.19l.05-.08c.19,.35,.58,.26,.9,.33,.36,.38,.88,.33,1.35,.4,12.97,3.46,25.05,1.52,36.11-5.08,13.27-7.91,20.48-19.4,24.1-32.89,1.01-3.76,1.25-7.61,1.93-11.41,.02-4.32,.28-8.64,.05-12.97-.41-7.91-1.45-15.77-2.23-23.66-1.18-11.93-1.63-23.88-.75-35.85,.82-11.09,2.32-22.11,4.42-33.07,1.3-6.79,2.86-13.54,4.64-20.25,.23-.05,.46-.11,.69-.16-1.62,7.19-2.94,14.42-3.87,21.7-1.01,4-1.28,8.1-1.74,12.16-1.39,12.02-1.9,24.09-1.57,36.17,.22,7.8,.9,15.58,1.7,23.35,1.11,10.79,2.27,21.59,1.66,32.45-.04,.72,.06,1.47-.32,2.15h0c-.01,.9,.08,1.81-.28,2.69-.04,.23-.08,.45-.12,.68-.04,.61-.02,1.23-.12,1.84-.85,5.09-2.14,10.09-4.23,14.91-.05,.13-.1,.26-.14,.39,.15-.03,.3-.06,.45-.09,2.98-1.57,6.23-2.5,9.56-3.27,9.86-2.3,15.55-8.17,18.2-16.62,1.2-3.83,1.11-7.76,1.19-11.68-.48-1.38-.75-2.78-.55-4.22,.25,1.41,.51,2.82,.76,4.23,1.17,9.89-.75,18.9-9.44,26.01-3.27,2.03-6.99,3.11-10.82,4.02-5.99,1.42-11.4,3.52-13.72,9.29-.63,1.56-1.92,2.92-3.13,4.68-.07,.05-.15,.11-.22,.16,.11-.02,.22-.03,.34-.05-.01-.03-.02-.06-.03-.1,2.16-.57,3.92-1.09,5.71-1.48,3.8-.83,7.71-.67,11.58-.78,1.4,.01,2.8,.05,4.2,.03,7.69-.12,14.54-2.01,19.79-7.28,2.8-2.8,4.92-5.98,6.55-9.41,3.57-7.54,4.98-15.47,5.41-23.57,0-.58,0-1.16,.01-1.74h0c0-.47,0-.95,0-1.42-.02-1.14-.03-2.27-.05-3.41-.23-.77-.38-1.56-.29-2.36-1.02-11.12-3.55-21.91-8.82-32.12-.1-.2-.09-.44-.13-.66,.77,.43,.8,1.28,1.34,1.83,3.67,6.8,6.55,13.83,8.08,21.26,.38,1.87,.99,3.71,.96,5.63,.13,.54,.29,1.08,.37,1.62,.53,3.65,.87,7.3,.8,10.99-.01,.85,.03,.85,.93,.59,.25-.03,.51-.02,.73-.1,9.72-3.7,15.26-10.44,17.81-19.26,1.81-6.24,.89-12.47-.56-18.65-1.51-6.47-1.19-12.83,1.23-19.11,1.46-3.79,3.37-7.44,4.25-11.4,.03-.22,.07-.44,.1-.66,.26-.18,.32-.42,.26-.69,.09-.43,.17-.87,.26-1.3,.05-.24,.09-.48,.14-.72,.13-1.1,.56-2.17,.39-3.3,.2-1.82,.21-3.64,0-5.47-.16-4.63-1.43-9.08-2.88-13.49-1.12-3.39-2.21-6.76-2.1-10.37,.14-4.42,2.43-7.49,6.97-9.17,5.28-1.96,10.54-1.56,15.7,.52,3.15,1.27,5.73,3.31,8.63,4.92,1.05,.58,2.3,1.61,3.42,.71,1.1-.89,.1-2.12-.49-3.06Zm-113.81,27.92c-.5,1.91-.93,3.83-1.51,5.72-7.65,24.73-21.16,46.4-42.93,63.74-.3,.24-.15,.34,.12,.44,.74-.1,1.22-.58,1.76-.96,6.24-4.33,11.8-9.26,16.76-14.72,15.43-17.01,23.68-36.67,27.31-57.99,.2-1.16,.86-2.38,.17-3.6-.23,2.52-1.27,4.89-1.68,7.37Zm72.82,11.83c-.36,3.02-1.98,5.65-3.4,8.32-4.99,9.45-8.95,19.07-7.43,29.77,.32,1.37,.58,2.75,.99,4.1,.4,1.31,.69,2.68,1.76,4.17-2.95-11.23-1.83-21.77,3.35-31.97,.14-.42,.24-.86,.42-1.26,2.44-5.56,5.14-11.04,6.47-16.93-.23,.02-.46,.04-.7,.06-.27,1.31-.67,2.58-1.46,3.74ZM209.59,31.67c4.27,6.51,4.64,13.37,1.64,20.37-.42,.98-1.08,1.91-1.78,2.77-3.82,4.71-9.89,5.06-14.26,.76-2.43-2.39-3.8-5.26-4.12-8.48-.97-.9-.49,.65-1.08,.46-.28-.87,.2-1.67,.39-2.5,.96-5.16,3.05-9.92,6.73-14.06,4.32-4.85,8.98-4.65,12.48,.69Zm-8.55,3.92c0-1.07-.32-2.07-1.48-2.54-1.2-.49-2.27,.04-3.09,.79-1.21,1.1-2.12,2.4-2.3,3.97-.13,1.16,.37,2.1,1.6,2.64,1.15,.5,2.13,.07,2.96-.59,1.42-1.13,2.31-2.52,2.31-4.26Zm-2.29,31.22c1.72,3.18,1.6,6.53,.97,9.89-1.09,5.76-3.76,11.01-6.84,16.12-3.31,5.5-6.76,10.94-11.41,15.67-6.63,6.74-17.59,8.19-25.49,3.33-4.86-2.99-7.45-7.42-9.29-12.21-3.03-7.9-3.55-16.13-3.91-24.38,0-3.04,.01-6.07,.82-9.05,.07-.27,.14-.54,.23-.81,.83-2.42,2.11-4.66,5.23-5.01,3-.33,4.73,1.59,6.06,3.66,2.41,3.75,5.73,6.41,10.68,7.16,3.75,.56,7.34,0,10.79-1.35,2.98-1.16,5.65-2.77,8.29-4.44,1.14-.72,2.29-1.4,3.58-1.92,4.3-1.72,8.22-.49,10.29,3.32Zm-42.03,12.61c1.71-2.5,2.67-4.81,3.67-7.09,.39-.9-.21-1.22-1.04-1.41-.27-.19-.54-.38-.8-.57-.13-.27-.38-.38-.7-.4-.58-.67-1.17-1.35-2-2.31-.68,4.15-.95,7.83,.88,11.79Zm14.85,23.64c-1.09-4.52-3.89-8.12-7.89-11.01-1.43-1.03-3.02-1.92-4.93-2.06-.54-.04-1.46-.51-1.6,.54,3.12,1.49,4.72,3.93,5.61,6.83-2.01-2.4-4.08-4.75-6.61-6.74h0c-1.22-.47-2.42-.96-3.76-1.17-2.7-.41-5.37,.82-6.37,2.99,3.5-1.29,5.4-.59,6.91,2.56,1.38,2.89,2.46,5.9,4.52,8.51,2.1,2.67,4.92,4.34,8.63,4.72,3.93,.41,6.31-1.79,5.49-5.17Zm9.09-33.11c-.62,.41-1.06,.7-1.5,.99-.12,.05-.23,.1-.35,.15-.79,.51-2.6,.04-2.23,1.64,.34,1.48,.97,2.89,1.86,4.19,.15,.23,.41,.52,.66,.55,.48,.06,.57-.4,.67-.69,.73-2.18,1.15-4.4,.9-6.84Zm42.73,93.78c-.94-5.7-1.84-11.4-2.03-17.17-.18-2.07-.38-4.14-.54-6.21-1.17-15.38-.42-30.75,.71-46.1-.19,.03-.38,.05-.57,.08-1.19,8.7-2.12,17.42-2.49,26.18-.51,12.12-.03,24.19,1.9,36.21,1.49,9.23,3.67,18.31,6.52,27.28,.57,1.67,1.14,3.34,1.7,5.02,.76-.25,.37-.77,.26-1.12-2.36-7.96-4.14-16.02-5.48-24.16Zm-23.61,73.72s-.02,.03-.03,.04c.04,0,.07-.02,.11-.03,0-.02-.01-.04-.02-.05-.02,.01-.04,.03-.06,.04Zm54.06-46.96c.03-.15,.04-.31,.04-.46,0,.15-.01,.31-.04,.46Zm-214.68-13.19s-.02,0-.02,0c0-.01,0-.02-.01-.03l.03,.03Zm118.67-107.36s0,0,0,0c0,0,0,.01,.01,.02l-.02-.02Zm-46,93.46l.02,.03s-.05,.03-.08,.04c.02-.02,.04-.05,.06-.07Zm0,0s.03,0,.04,.01c0,0-.01,.01-.02,.02,0,0-.02-.03-.02-.03Zm.8-.3s.03-.01,.04-.02c0,.02,0,.03,0,.05-.02,0-.03,0-.05,0,0,0,0-.01,.01-.02h.02s-.02,0-.02,0Z"/>
  </g>
</svg>