<?xml version="1.0" encoding="UTF-8"?>
<svg id="Layer_2" data-name="Layer 2" xmlns="http://www.w3.org/2000/svg" viewBox="0 0 308.5 266.67">
  <g id="Layer_1-2" data-name="Layer 1">
    <path d="M308.5,125.5c-1.58-1.47-2.8-2.75-4.21-3.87-.52-.41-1.45-.44-2.2-.65-.04,.61-.26,1.26-.1,1.83,1.04,3.66,1.08,7.21-1.33,10.55-.31,.43-.7,.82-1.39,1.61,.13-2.15,.36-3.83,.3-5.5-.05-1.15-.37-2.32-.82-3.41-.45-1.09-1.48-1.41-2.76-.83-.06,.03-.11,.05-.17,.07-4.08,1.58-5.5,.76-5.38-3.09,0-.27,.02-.54,.04-.8,.2-2.58-.62-3.15-3.59-2.37-4.33,1.14-7.26,5.49-3.46,9.66,4.21,4.62,3.35,9.65-2,13.38-.68,.48-1.44,.87-2.19,1.27-.64,.34-1.31,.66-2,.93-3.16,1.23-4.6,3.33-4.82,6.22-.14,1.81-.4,3.64-.94,5.38-1.88,6.02-6.87,9.54-13.62,11.56-1.85,.55-3.75,1.02-5.57,1.64-3.88,1.34-5.26,3.73-3.52,6.96,1.19,2.2,2.96,4.22,4.76,6.13,2.93,3.11,5.36,6.38,4.71,10.49-.38,2.39-1.29,4.79-2.41,7.03-1.15,2.3-2.84,4.41-4.29,6.61-.52,.79-1.05,1.59-1.5,2.41-2.59,4.77-.71,8.95,5.06,11.03,1.86,.67,3.87,1.04,5.76,1.65,1.17,.38,2.39,.81,3.34,1.48,3.33,2.35,2.76,6.79-1.37,7.79-7.39,1.8-12.8,6-18.6,9.78-4.6,2.99-9.27,5.88-15.15,6.79-2.42,.38-4.92,.49-7.39,.58-3.43,.13-6.87,.12-10.3,.17-6.24,.09-11.26,2.33-15.89,5.77-4.07,3.03-8.47,5.81-13.04,8.3-5.99,3.27-12.69,3.82-19.63,2.56-5.56-1.01-10.97-.83-16.56,.38-20.59,4.47-38.24-.18-53.15-12.74-1.17-.98-2.31-2.02-3.65-2.81-2.61-1.52-5.61-.85-6.19,1.69-1.53,6.61-7.06,8.85-14.02,9.64-6.33,.72-12.56,.29-18.54-1.77-4.23-1.46-7.33-3.81-8.57-7.62-.83-2.54-3.12-4.05-5.34-5.68-2.67-1.97-5.33-3.99-7.67-6.22-3.39-3.24-4.27-7.07-2.73-11.24,.39-1.07,.67-2.17,1.05-3.24,1.14-3.27,.59-6.27-1.58-9.2-1.32-1.79-2.61-3.76-3.1-5.78-1.36-5.57,2.98-10.79,10.09-11.97,4.21-.7,8.6-.59,12.88-1.07,2.87-.32,5.78-.81,8.49-1.64,4.82-1.48,7.36-4.66,7.79-8.89,.4-3.89,.39-7.8,.76-11.69,.37-3.95,2.29-7.4,5.37-10.41,1.74-1.7,3.57-3.37,5.02-5.24,1.12-1.45,1.98-3.13,2.46-4.81,.73-2.51-.6-3.85-3.64-4.19-1.13-.13-2.26-.28-3.38-.49-4.91-.96-7.78-3.6-8.84-7.7-1.24-4.8-3.54-6.37-9.34-5.72-4.52,.51-8.95,1.54-13.46,2.16-2.29,.31-4.72,.52-6.98,.22-4.66-.62-7.15-3.68-6.72-7.64,.09-.8,.32-1.64,.12-2.39-.38-1.43-.84-2.88-1.61-4.18-.65-1.1-2.04-2.18-3.47-1.54-.71,.32-.76,1.93-.81,2.97-.07,1.32,.33,2.68,.16,3.98-.08,.64-.86,1.54-1.54,1.72-.67,.17-1.72-.31-2.42-.72-.58-.35-.87-1.03-1.33-1.55-.97-1.09-1.91-1.09-2.22,.21-.5,2.11-.71,4.32-.63,6.47,.07,1.71,.76,3.41,1.24,5.4-5.38-4.4-5.97-9.58-4.59-15.42-3.43,.45-4.25,2.83-6.2,4.74,.44-3,1.59-5.32,3.72-7.19,1.1-.96,1.4-1.8,.96-3.09-1.26-3.67-.62-7.17,2.24-10.15,3.19-3.33,6.52-6.57,9.99-9.7,3.19-2.88,7.15-3.67,11.68-2.46,3.14,.84,6.29,1.66,9.48,2.34,3.12,.67,6.05,.06,8.76-1.35,.87-.45,1.73-.9,2.6-1.34,3.79-1.91,7.7-2.05,11.65-.42,2.22,.91,4.42,1.89,6.55,2.95,8.49,4.24,15.11,.53,19.1-3.72,3.52-3.75,4.82-8.3,6.24-12.8,2.12-6.76,4.86-13.28,10.12-18.85,.2-.21,.35-.46,.59-.63,5.43-4.02,6.93-9.46,8.03-15.16,1.87-9.67,4.35-19.24,10.34-27.82,7.53-10.81,18.26-18.15,33.16-20.54,19.37-3.1,37.75,4.12,47.77,18.58,4.5,6.5,6.62,13.59,7.62,20.99,.46,3.4,.76,6.83,1.55,10.17,.39,1.65,1.36,3.42,2.71,4.64,7.04,6.36,12.49,13.62,17.51,21.15,3.84,5.76,8.01,11.33,14,15.72,5,3.66,10.58,6.26,17.41,6.52,4.31,.16,8.27-.92,12.22-2.14,1.66-.51,3.38-.93,5.11-1.21,2.75-.45,5.33,.17,7.13,1.93,3.44,3.36,6.86,6.76,9.82,10.41,1.35,1.67,1.76,3.95,2.27,6.01,.24,.96,.49,1.64,1.44,2.24,3.07,1.94,5.38,4.38,6.37,7.58,.19,.63,.22,1.29,.38,2.21Zm-203.31,37.94c-.18,.2-.34,.43-.55,.6-6.87,5.88-13.57,11.91-20.68,17.56-3.32,2.64-5.9,5.37-7.54,9-2.96,6.59-8.47,10.96-17.05,12.1-4.71,.62-9.38,.36-14.04-.41-3.1-.51-6.22-1.38-9.33-1.37-7.85,.02-11.6,5.51-8,11.33,.73,1.18,1.55,2.33,2.33,3.5,1.78,2.68,2.4,5.5,1.5,8.51-.42,1.4-.9,2.78-1.39,4.16-1.43,3.95-.61,7.54,2.59,10.65,1.83,1.77,3.89,3.38,5.87,5.04,.33,.28,.82,.42,1.44,.73,1.4-3.2-.84-5.45-2.71-8.22,4.65,2.94,6.89,6.45,7.19,10.81,.3,4.39,2.76,7.44,7.61,9.16,5.09,1.8,10.41,2.65,15.85,1.96,2.75-.35,5.49-1.31,7.96-2.42,2.23-1,2.42-2.46,1.25-4.39-1.33-2.19-1.73-4.34,.64-6.7-3.72,.85-4.82,2.81-4.63,5.84-1.41-1.32-1.54-2.5-1.08-3.6,.44-1.04,1.28-1.97,1.97-2.98-2.14,.18-4.05,.79-5.46,2.24-2.18,2.24-1.7,4.61,1.3,6.02,1.24,.58,2.61,.96,3.92,1.44-.88,.21-1.74,.26-2.58,.21-6.72-.44-11.41-3.82-11.68-8.91-.12-2.23,.75-4.52,1.39-6.73,.97-3.33,1.1-6.57-.98-9.64-1.97-2.91-5.08-4.14-8.41-3.41-3.77,.82-6.38,3.54-6.27,6.79,.04,1.29,.53,2.57,.86,4.01-.37-.24-.7-.38-.9-.61-2.12-2.37-3.05-5-2.54-7.99,.65-3.8,3.68-6.08,7.14-8.13,2.47-1.47,2.46-1.48,1.34-3.8-.03-.07,.04-.18,.06-.27,1.35,.26,2.69,.52,4.04,.77,.06-.14,.12-.28,.18-.42-4.08-.41-7.08-2.53-10.31-4.31-3.56-1.96-7.27-3.34-11.73-1.82,.71-.64,1.45-1.18,2.31-1.49,2.96-1.06,5.74-.32,8.42,.79,2.51,1.04,4.86,2.39,7.45,3.22,5.27,1.67,10.65,2.99,16.16,.51,3.3-1.49,6.72-2.8,9.93-4.42,13.99-7.05,24.66-16.59,30.77-29.49,.09-.18,.26-.33,.4-.49,.12,.4,.04,.7-.08,1-5.43,13.96-15.64,24.81-30.74,32.12-6.46,3.13-13.54,5.35-20.34,8-2.61,1.02-5.21,2.08-7.81,3.11,10.47-1.43,16.25,4.22,15.67,11.3-.07,.83,0,1.67,0,2.78,.96-.38,1.62-.65,2.29-.91,5.99-2.38,12.2-3.56,18.87-2.83,5.75,.63,10.88,2.56,15.72,5.07,7.93,4.11,15.92,4.23,24.09,.59,1.99-.89,4-1.76,6-2.63,.04,.05,.08,.1,.13,.15-2.22,1.89-4.45,3.78-6.86,5.83,.53-.08,.78-.11,1.02-.16,9.65-2.1,17.35-6.81,23.82-12.98,9.65-9.21,15.33-20.21,19.52-31.82,.15-.41,.25-.83,.41-1.24,.15-.38,.35-.75,.52-1.12-3.02,13.41-8.45,25.99-17.71,37.25-4.82,5.86-10.51,11.03-17.79,14.79-6.63,3.43-13.77,4.94-21.53,3.67-5.69-.93-10.57-3.26-15.01-6.33-3.79-2.61-7.64-5.18-12.33-6.59-7.65-2.31-14.77-1.62-21.07,2.9-2.74,1.97-3.4,5.24-1.81,7.8,1.19-3.77,3.73-5.81,8.35-6.5,6.29-.94,11.87,.79,16.86,3.75,3.68,2.18,7.12,4.69,10.37,7.31,11.36,9.16,24.83,12.45,40.15,10.17,7.55-1.12,14.97-2.86,22.43-4.39,7.65-1.57,15-3.71,21.12-8.12,7.73-5.58,12.74-12.71,16.45-20.55,5.52-11.68,7.52-23.92,7.88-36.38,.41-14.54-1.81-28.93-3.86-43.33-.47-3.33-.94-6.66-1.41-9.99,.34,.11,.42,.25,.45,.39,1.53,8.18,3.18,16.35,4.53,24.55,1.12,6.83,2.12,13.68,2.72,20.55,.77,8.76,.49,17.54-1.05,26.26-1.45,8.18-3.85,16.13-8.52,23.48-1.15,1.81-2.3,3.63-3.52,5.56,4-1.09,7.31-3.63,10.73-7.58,6.24-7.21,10.36-15.3,14.21-23.52,1.34-2.87,2.61-5.75,3.91-8.63,.17,.05,.34,.09,.51,.14-2.89,9.96-5.28,20.03-9.79,29.66,5.13-3.06,8.24-7.62,12.4-11.38-2.67,5.63-6.58,10.63-10.85,15.47,4.24-1.02,6.04-4.22,8.73-6.65-2.76,4.59-5.35,9.26-11.05,12.17,2.67,.35,4.66-.36,6.45-1.59,3.26-2.23,5.13-5.27,6.84-8.39,1.13-2.06,2.18-4.15,3.26-6.23,.19,.06,.38,.12,.57,.18-1.57,3.7-2.9,7.49-4.77,11.08-2.49,4.79-6.87,7.38-13.36,7.19-2.85-.08-5.74,.03-8.57,.34-5.83,.66-10.47,3.46-14.97,6.36-7.13,4.61-14.38,9.02-22.93,11.62-.17,.05-.33,.13-.5,.2,3.88,.39,7.31-.43,10.65-1.68,4.85-1.8,8.79-4.67,12.74-7.55,4.6-3.35,9.71-5.96,15.78-6.74,4.45-.57,8.99-.75,13.49-.81,7.89-.1,14.84-2.1,20.83-6.45,1.92-1.4,3.94-2.72,5.96-4.01,3.74-2.39,7.34-5,12.2-5.72,1.27-.19,2.4-.64,2.5-1.85,.11-1.32-1.11-1.82-2.37-2.17-1.99-.55-4.07-.9-5.98-1.59-5.14-1.85-8.67-4.81-8.96-9.83-.16-2.92,1.3-5.39,2.98-7.82,1.69-2.45,3.47-4.86,4.97-7.39,1.46-2.48,2.47-5.24,1.31-7.9-.98-2.24-2.84-4.22-4.36-6.29-1.53-2.08-3.49-4-4.61-6.22-2.44-4.84-.49-8.75,5.14-10.99,2-.8,4.1-1.45,6.19-2.06,7.49-2.17,11.66-6.45,11.91-13.19,.17-4.68,2.57-8,7.7-10,1.51-.59,2.9-1.58,4.03-2.62,.9-.83,1.58-1.98,1.88-3.08,.68-2.46,.14-2.78-2.78-2.39-3.84,.51-7.71,.89-11.56,1.32-.04-.22-.08-.43-.12-.65,.71-.09,1.43-.14,2.12-.29,2.2-.46,4.51-.75,6.56-1.5,2.39-.88,2.81-2.62,1.58-4.64-4.92,4.08-11.08,4.05-16.48,2.65-4.08-1.07-7.74-2.89-11.19-5,.9,.11,1.72,.37,2.54,.62,4.31,1.29,8.61,2.63,13.31,2.45,5.67-.22,9.59-2.47,11.31-6.56,1.04-2.47,.54-4.94,.04-7.44-.45-2.25-.9-4.54-.9-6.81,0-2.18,2.15-3.93,4.47-4.2,2.21-.25,3.97,.73,5.12,2.89,.31,.58,.48,1.22,.83,1.79,1.11,1.79,2.03,3.7,3.46,5.3,2.55,2.86,3.85,5.87,2.96,9.43-.05,.22,.04,.46,.06,.69,2.57-3.67,2.44-7.55,1.58-11.54,.62,1.03,1.07,2.07,1.41,3.14,.34,1.07,.58,2.16,.89,3.38,.77-4.64-.45-8.62-4.11-12.04-1.44-1.35-2.66-2.86-3.96-4.32-4.2-4.68-6.19-5.16-12.38-2.39-9.97,4.46-19.44,3.54-28.59-1.61-6.98-3.93-12.09-9.3-16.2-15.35-6.38-9.38-12.82-18.72-21.5-26.8-1.27-1.19-1.88-3.02-2.34-4.64-.56-1.96-.71-4.01-.91-6.04-.65-6.63-1.81-13.16-4.96-19.33-9.33-18.3-31.6-26.71-53.21-19.9-12.99,4.1-21.33,12.25-26.61,22.81-3.88,7.75-5.74,15.93-7.27,24.18-.88,4.74-2.69,9.05-6.92,12.55-3.47,2.88-6.06,6.38-7.63,10.27-1.94,4.8-3.55,9.69-5.33,14.53-1.7,4.63-4.23,8.85-8.87,11.91-4.01,2.64-8.5,4.71-13.71,3.52-3.3-.75-6.49-2.2-9.38-3.79-5.23-2.88-10.09-3.26-15.27,.05-3.01,1.93-6.68,2.46-10.35,1.64-3.24-.72-6.39-1.72-9.53-2.71-3.33-1.05-6.41-.7-8.75,1.5-3.73,3.5-7.38,7.09-10.7,10.87-2.68,3.06-2.13,8.01,.69,10.99,.2,.21,.57,.31,1.09,.58-.1-.65-.15-1.06-.24-1.48-.67-3.22-.02-6.07,2.59-8.68,1.77-1.78,3-3.94,4.48-5.92,.4-.53,.86-1.04,1.29-1.56l.69,.23c-.21,1.06-.15,2.21-.67,3.15-1.29,2.31-2.78,4.55-4.31,6.75-1.81,2.62-1.53,8.42,.72,11.02,0-1.3-.11-2.53,.02-3.73,.4-3.61,3.49-5.96,7.8-6.26,4.28-.3,7.01,1.57,9.44,4.2,1.77,1.92,3.84,3.66,5.76,5.49,.04,.04-.03,.18-.13,.58-1.46-.57-2.85-1.11-4.17-1.63,1.94,3.23,6.65,4.5,10.52,2.73-6.05-2.28-8.65-6.26-8.28-11.7,.21-3.05-.57-5.78-3.53-7.88,2.71,.44,4.32,1.88,5.08,3.91,.59,1.57,.91,3.22,1.16,4.85,.75,4.9,4.07,7.42,9.92,7.51,3.3,.05,6.64-.02,9.9,.36,5.24,.61,9.83,2.37,12.18,6.73,.99,1.84,1.26,3.81,.15,6.26-.64-1.12-1.07-1.81-1.43-2.52-1.82-3.54-4.98-5.61-9.56-6.04-2.02-.19-4.06-.29-6.09-.27-3.56,.04-7.12,.28-10.68,.3-4.13,.02-8.02-.58-10.58-3.76-.1-.12-.3-.19-.45-.27-1.9,1.56-1.98,3.45-1.39,5.52-.6-.44-1.15-.87-1.29-1.39-.41-1.5-.74-3.02-.96-4.55-.28-1.94-1.07-3.66-2.88-4.9-.68-.47-1.66-.64-2.5-.95,.44,1.27,1.25,2.11,1.78,3.05,.56,1,1.04,2.08,1.24,3.17,.3,1.58,.25,3.2,.48,4.79,.38,2.61,2.28,4.06,5.37,4.01,1.89-.03,3.8-.22,5.67-.53,5.37-.87,10.7-2.03,16.23-1.65,6.77,.46,9.08,3.11,9.94,6.88,1.23,5.35,3.96,6.97,10.42,6.67,.89-.04,1.78-.11,2.65-.24,8.67-1.27,15.71-5.12,21.9-10.13,8.79-7.11,14.52-15.91,18.99-25.33,1.18-2.48,2.17-5.02,3.24-7.54-1.42,6.61-4.08,12.89-6.88,19.14-2.82,6.28-5.53,12.58-8.44,19.24,4-4.28,6.89-8.68,9.23-13.36-2.36,14.36-13.2,25.56-29.98,31.28-3.28,1.12-6.57,2.32-9.62,3.83-4.75,2.34-7.7,5.89-8.32,10.57-.34,2.6-.32,5.23-.54,7.84-.19,2.29-.17,4.64-.82,6.84-1.69,5.8-6.84,8.62-13.26,10.13-1.95,.46-3.96,.75-5.95,1.12,0,.17,.02,.33,.02,.5,2.46,0,4.93,.14,7.38-.02,8.82-.58,15.57-3.73,18.67-11.13,.91-2.16,1.84-4.33,2.51-6.55,1.82-6.02,5.87-10.49,12.2-13.74,6.08-3.12,11.91-6.57,17.85-9.88,.76-.42,1.54-.83,2.3-1.25-.48,.75-1.16,1.29-1.89,1.75-5.93,3.78-11.87,7.56-17.82,11.32-2.63,1.67-4.84,3.63-6.24,6.17-.28,.5-.43,1.05-.64,1.58,.16,.11,.32,.22,.48,.34,8.16-5.12,15.91-10.69,23.98-15.99Zm71.16-64.19c1.18-1.23,2.48-2.4,3.53-3.71,5.68-7.07,8.22-14.97,8.53-23.42,.15-4.15-.41-8.23-2.63-12.02-1.17-2-2.64-3.99-5.63-4.05-2.93-.07-4.43,1.84-5.73,3.72-1.02,1.48-1.8,3.07-2.86,4.52-2.45,3.36-5.83,3.33-8.25-.08-1.17-1.65-2.06-3.44-3.25-5.07-2.81-3.85-6.55-3.91-9.58-.18-2.4,2.96-3.28,6.35-3.67,9.83-.98,8.86,1.07,17.35,4.88,25.55,1.16,2.5,2.78,4.94,4.67,7.11,3.08,3.55,7.78,3.76,11.48,.63,1.73-1.47,3.09-3.25,4.61-4.89,.97-1.05,1.78-2.26,2.96-3.12,.95-.69,2.32-.97,3.8-1.54-1.37,2.41-2.48,4.39-3.6,6.36,.25,.12,.5,.24,.75,.36Zm-30.73-54.62c.85,2.67,2.33,5.2,6.04,5.5,3.75,.3,5.97-1.88,7.42-4.44,3.07-5.4,2.88-10.91-.22-16.21-2.68-4.6-8.08-4.68-11.29-.34-2.22,3-2.79,6.37-3,10.59,.23,1.14,.46,3.06,1.05,4.91Zm33.76,.18c2.08,4.01,6.51,4.18,9.37,.51,2.55-3.28,3.05-6.97,2.58-10.77-.34-2.72-1.07-5.38-3.05-7.64-2.06-2.35-4.79-2.4-6.94-.11-.7,.74-1.39,1.58-1.7,2.48-.94,2.69-1.68,5.42-2.52,8.19,.76,2.56,1.1,5.1,2.26,7.34Zm-28.06-26.44c-4.18,.45-7.42,3.43-7.8,7.34,6.39-7.29,9.86-7.6,18.38-1.64-.9-2.91-5.27-6.27-10.58-5.7Zm38.37,.67c-2.63-1-4.8-.25-5.71,1.96,2.73-1.62,5.09-1.39,7.09,.95,1.2,1.41,2.01,3.04,3.03,4.62,.26-3.3-1.58-6.46-4.41-7.53Z"/>
  </g>
</svg>