<?xml version="1.0" encoding="UTF-8"?>
<svg id="Layer_2" data-name="Layer 2" xmlns="http://www.w3.org/2000/svg" viewBox="0 0 270.08 258.52">
  <defs>
    <style>
      .cls-1 {
        fill: #2f2732;
      }
    </style>
  </defs>
  <g id="Layer_1-2" data-name="Layer 1">
    <path class="cls-1" d="M97.78,256.03c-1.73-1.05-3.35-2.29-4.65-3.92-4.34-5.46-9.99-7.16-16.23-7.21-5.47-.04-10.95,.42-16.34-1.13-5.88-1.7-10.79-5-14.18-10.74-.83-1.4-1.91-2.19-3.21-2.84-9.43-4.73-17.43-11.55-23.91-20.53-2.26-3.13-4.22-6.53-4.85-10.58-1.45-9.25,2.61-16.28,10.78-18.77,5.12-1.56,10.48-1.79,15.56-3.6,4.96-1.77,9.53-4.25,13.67-7.78,1.37-1.17,1.54-2.3,.83-4.01-1.49-3.54-3.8-5.99-7.2-6.87-4.17-1.07-8.29-1.21-12.41,.73-6.46,3.04-12.52,1.92-17.53-3.52-6.74-7.32-11.66-15.87-12.69-26.65-.2-2.14-1.29-3.89-2.12-5.76-2.78-6.26-4.11-12.88-2.76-19.76,2.57-13.14,13.92-19.96,25.94-15.85,2.55,.87,4.88,2.26,7.19,3.72,6.38,4.04,13.07,6.93,20.55,7.11,8.24,.2,14.63-3.66,19.57-10.78,5.07-7.3,7.13-15.93,8.74-24.77,2.14-11.73,4.72-23.31,11-33.31C103.61,13.13,117.58,4.07,134.84,.92c10.8-1.97,21.21-.9,31.05,4.52,13.61,7.49,21.4,20.02,24.72,36.35,1.66,8.14,3.49,16.25,7.53,23.46,1.33,2.37,2.8,4.61,4.76,6.42,4.5,4.15,9.29,4.25,13.82,.15,3.46-3.14,6.43-6.89,10.06-9.84,5.73-4.66,11.96-7.95,19.1-8.47,16.94-1.23,28.07,14.61,22.94,32.71-2.89,10.2-8.94,18.05-15.89,25.12-3.93,4-8.18,7.57-12.15,11.52-8.81,8.78-13.7,19.66-14.97,32.69-.29,2.94-.76,5.86-1.14,8.8-.76,5.95,.15,11.4,3.54,16.28,3.02,4.35,5.65,8.95,6.77,14.46,2.29,11.19-2.8,21.68-12.02,24.31-5.26,1.5-10.39,.65-15.36-1.58-1.52-.68-3.13-1.28-4.43-2.33-5.25-4.26-10.61-2.96-15.99-.62-5.63,2.45-9.89,6.86-13.47,12.16-2.21,3.27-4.16,6.79-6.87,9.6-7.29,7.57-15.75,9.43-25.16,6.09-1.49-.53-2.47-.43-3.76,.74-5.77,5.22-11.96,9.71-19.03,12.52-7.04,2.69-14.08,4-21.13,.04ZM9.18,131.13l-.07-.1c.57,4.95,2.54,9.22,5.19,13.15,1.82,3.84,4.35,7.01,7.43,9.63,2.73,2.32,5.78,3.21,9.25,2.47,4.35-.92,7.87-3.71,11.58-6.08,4.39-2.8,8.66-5.98,13.72-6.91,4.01-.74,8.21-1.19,11.17,3.15,.73,1.06,1.33,2.23,2.06,3.47,3.73-7,6.95-14.1,9.81-21.41,.41-.07,.72,.1,.93,.49-2.74,8.35-6.49,16.14-10.28,23.94-5.51,11.38-12.97,20.32-23.71,25.58-4.62,2.1-9.46,3.17-14.37,4.02-4.39,.77-8.84,1.5-12.13,5.39-.09,.21-.3,.53-.25,.6,.27,.35,.49,.11,.67-.18,10.22-4.85,19.36-.26,22.82,11.46,.73,2.48,1.14,5.05,1.5,7.63,.76,5.48,.52,11.13,2.25,16.44,1.75,7.79,5.84,13.21,12.81,15.66,4.38,1.54,8.91,1.69,13.45,1.6,4.69-.09,9.38,.03,13.86,1.75,5.96,2.29,11.99,3.05,18.21,1.78,.04,2.57-1.93,1.78-3.04,2.06-2.64,.67-5.38,.66-8.7,.71,1.88,1.77,2.9,3.45,4.64,4.18,.15,.18,.27,.41,.45,.53,5.9,3.81,12.01,3.11,18.07,.77,11.1-4.29,20.04-12.24,28.13-21.47,4.17-4.76,8.18-9.71,12.26-14.57,1.01-1.08,2.04-2.15,3.04-3.24,4.21-4.6,8.78-8.64,14.12-11.51,5.18-2.78,10.33-3.09,15.47,.06,2.66,1.63,5.32,3.28,7.94,5.01,4.29,2.82,8.38,6.13,13.18,7.84,3.54,1.26,7.17,2.5,10.86,.42,.19,.46,.39,.54,.59,0,0,0-.02,.04-.02,.04,2.6-.23,4.49-1.91,6.16-3.89,4.28-5.07,5.02-13.08,1.98-20.3-1.47-3.49-3.52-6.58-5.51-9.7-2.8-4.39-3.9-9.21-3.72-14.53,.2-5.69,1.31-11.22,2.26-16.78,1.42-8.3,3.84-16.29,5.9-24.39,2.9-9.3,6.28-18.37,10.21-27.19,3.47-7.79,7.04-15.51,12.83-21.58,5.21-5.46,10.12-5.08,14.38,1,.47-7.93-3.89-15.96-10.4-18.97-7.86-3.65-15.28-1.74-22.45,2.44-5.04,2.94-9.12,7.29-13.21,11.61-7.07,7.48-15.51,7.06-22-1.03-2.31-2.88-4.11-6.13-5.61-9.6-2.96-6.87-4.56-14.22-6.1-21.59-2.9-13.92-9.73-24.54-21.07-31.35-9.6-5.76-19.86-6.85-30.49-4.98-14.16,2.49-26.08,9.53-35.54,21.66-7.75,9.95-11.11,22-13.45,34.56-1.54,8.26-3.08,16.52-6.97,23.96-5.98,11.45-14.53,17.68-26.71,16.85-7.49-.51-14.25-3.47-20.72-7.49-2.04-1.27-4.07-2.54-6.32-3.31-11.76-4.03-22.43,4.4-21.92,17.33-.28,4,.55,7.78,2.09,11.33,1.08,2.49,2.4,4.84,3.61,7.26-.21,.33-.42,.66-.63,.99q-.44,.69,.14,2.2c-.02,.42-.25,.92,.33,1.11Zm133.16,108.03c10.65,3.33,18.41,.51,24.83-8.67,2.26-3.23,4.35-6.63,6.79-9.69,5.2-6.53,11.84-10.28,19.94-11.88-2.22-1.28-4.05-2.39-5.93-3.4-4.67-2.52-9.24-2.01-13.69,.71-3.85,2.35-7.46,5.1-10.56,8.6-6.37,7.2-12.12,15.07-18.89,21.84-.74,.74-1.47,1.48-2.49,2.5Zm90.33-113.36c.17,.07,.34,.14,.52,.21,2.15-2.37,4.25-4.8,6.46-7.09,5.54-5.75,11.99-10.35,16.85-16.97,3.69-5.03,7.09-10.21,8.44-16.68,.64-3.08-.86-5.5-2.67-7.35-1.77-1.81-3.98-1.01-5.87,.32-1.94,1.36-3.47,3.23-4.85,5.25-6.2,9.09-10.53,19.31-14.39,29.81-1.53,4.15-3,8.33-4.49,12.5ZM43.03,226.18c.03-.69,.13-1.05,.05-1.34-1.34-4.95-1.36-10.12-2.01-15.19-.55-4.28-.88-8.66-2.75-12.59-3.38-7.08-9.99-8.18-15.54-5.99-4.41,1.74-5.85,6.89-3.57,11.7,3.13,6.6,7.99,11.55,13.19,16.07,3.25,2.81,6.7,5.29,10.64,7.34Zm15.76-61.54c2.83-3.06,5.16-6.19,6.91-9.8,1.17-2.42,.63-5.15-1.26-6.74-1.54-1.3-3.41-1.95-5.28-1.71-5.67,.75-10.66,3.45-15.4,7.18,7.03,.25,12.22,3.49,15.02,11.08Zm105.95-85.31c-.19,6.94-.73,13.41-2.82,19.6-3.27,9.69-9.92,14.42-18.02,12.65-5.03-1.1-8.92-4.42-12.31-8.53-4.35-5.27-7.22-11.53-9.53-18.14-.56-1.61-.84-3.37-1.52-4.91-.9-2.02,.12-2.1,1.36-1.91,13.87,2.17,27.23-.08,40.19-5.74,1.52-.66,2.29-.42,2.3,1.62,.01,1.91,.24,3.83,.34,5.35Zm-33.57,13.95c-.69,.14-1.56-.33-1.98,.45-.43,.8,.26,1.48,.65,2.07,1.21,1.81,2.41,3.65,3.77,5.31,2.72,3.32,5.85,5.99,9.96,6.85,.42,.09,.92,.59,1.28,.05,.3-.45,.04-1-.17-1.47-1.76-4.12-3.93-7.9-7.31-10.65-1.86-1.51-3.88-2.57-6.2-2.61Zm-18.19-23.35c1.84,2.61,4.15,3.84,7.13,3.4,1.81-.99,3.24-2.44,3.97-4.57,2-5.79,1.79-11.41-1.41-16.62-3.14-5.11-7.61-4.97-10.44,.33-2.14,4.02-2.12,8.45-1.46,12.92,.72,1.52,1.22,3.15,2.2,4.53Zm46.27-2.94c2.86,.98,5.77-.8,7.38-4.3,.4-.87,.24-2.15,1.36-2.54-.42-.69-.33-1.38-.24-2.2,.43-4.19-.37-8.12-2.61-11.53-3.19-4.84-7.79-4.38-10.15,1.04-2.21,5.07-2.08,10.24,.02,15.36,1.14,1.73,2.3,3.49,4.25,4.15Zm-53.03,178.48v.12s.12-.04,.12-.04l-.12-.08Z"/>
  </g>
</svg>