<?xml version="1.0" encoding="UTF-8"?>
<svg id="Layer_2" data-name="Layer 2" xmlns="http://www.w3.org/2000/svg" viewBox="0 0 259.8 233.25">
  <defs>
    <style>
      .cls-1 {
        fill: #0e0c13;
      }
    </style>
  </defs>
  <g id="Layer_1-2" data-name="Layer 1">
    <path class="cls-1" d="M237.14,208.68c-6.97,.92-13.92,.66-20.87-.2-6.81-.84-11.55,3.41-11.76,7.5,.45,.94,1.64,.98,2.49,1.43,2.7,1.42,2.68,3.17,1.5,5.13-.37,.62-.94,1.18-1.52,1.68-4.53,3.85-10.46,5.54-16.36,6.99-3.47,.85-7.23,1.13-10.93,1.18-3.91-.15-7.8-.33-11.66-.95-6.19-.99-11.75-3.34-17.32-5.66-4.42-1.84-9.01-2.31-13.86-1.41-4.58,.85-9.05,2-13.48,3.25-4.74,1.34-9.39,2.99-14.22,3.97-5.06,1.02-10.29,1.49-15.53,1.63-13.13,.35-25.22-2.17-35.82-9-1.61-1.03-3.18-2.11-5-2.88-1.74-.44-3.01-1.82-4.98-1.8-1.62-.97-3.53-1-5.38-1.04-5.66-.11-11.33,.05-16.98-.45-2.55-.22-4.9-.73-6.19-2.89-.31-1.02-.36-2.05-.11-3.09,.85-1.54,2.37-2.17,4.26-2.52,5.2-.97,10.14-2.56,14.77-4.83,1.16-.57,1.27-.9,.45-1.81-2.35-2.62-5.62-3.69-9.26-3.94-10.25-.69-18.53,2.51-24.98,9.27-.7,.74-1.13,2.19-2.37,1.93-1.06-.22-1.13-1.62-1.43-2.58-1.37-4.36-.28-8.43,2.08-12.34,1.51-2.5,3.32-4.87,5.77-6.73,5.09-3.84,8.62-8.68,12.45-13.33,10.02-12.17,18.56-24.99,24.07-39.16,4.54-11.66,6.53-23.68,7.46-35.88,.93-12.32,.58-24.67,1.65-36.98,1.05-12.04,3.39-23.85,10.35-34.63C74.58,12.82,90.45,3.92,111.13,.99c12.67-1.8,25.31-1.12,37.59,1.87,27.67,6.74,46.17,21.8,55.35,44.97,4.22,10.66,6.21,21.69,7.57,32.84,1.74,14.19,3.68,28.34,9.23,41.93,4.43,10.84,12.01,19.36,24.27,24.72,11.73,5.13,15.24,15.91,14.6,24.57-.28,3.82-1.54,7.44-3.31,10.94-.36,.71-.35,1.27-.05,2,4.1,9.85-1,19.26-13.37,22.57-1.92,.51-3.91,.86-5.86,1.29ZM59.93,149.09c-.03,.41,.04,.84-.09,1.22-3.29,9.56-9.48,17.42-19.09,23.27-4.55,2.77-9.8,4.45-14.66,6.73-8.33,3.9-15.49,8.87-20.2,16.03-1.64,2.5-2.74,5.19-2.65,8.5,1.97-1.95,3.91-3.37,5.95-4.69,.54-.27,1.07-.55,1.62-.8,8.21-3.62,16.67-4.93,25.58-1.97,2.31,1.16,4.42,2.55,5.83,4.49,.78,1.08,1.21,.81,2.12,.15,9.22-6.65,15.13-15.07,18.58-24.81,.94,.31,.39,.94,.27,1.33-3.48,11.86-10.62,21.61-22.92,28.34-4.89,2.68-10.21,4.54-15.94,5.51-.73,.12-1.4,.27-1.62,.88-.22,.6,.19,1.01,.89,1.2,.21,.03,.42,.07,.63,.1,.35,.38,.87,.3,1.34,.37,4.16,.54,8.35,.36,12.54,.38,2.86,.02,5.71,.1,8.53,.53,4.16,.64,7.52,2.65,11.01,4.46,5.08,3.37,10.48,6.24,16.74,7.8,15.49,3.86,30.48,1.93,45.25-2.73,2.52-.69,5.08-1.3,7.56-2.07,10.3-3.21,20.25-3.41,29.98,1.69,4.48,2.35,9.62,3.48,14.87,4,10.37,1.02,20.21-.32,29.3-4.85,1.54-.77,2.99-1.64,4.22-3.16-6.37,.29-10.18-3.04-13.73-6.37-2.85-2.68-4.93-5.91-6.74-9.22-8.45-15.49-9.86-31.85-7.83-48.5,1.15-9.41,3.89-18.62,7.46-27.61,1.3-3.28,2.58-6.56,4.43-9.66-2.19,5.99-4.25,12-5.97,18.09-4.47,15.83-6.32,31.77-2.66,47.91,2.09,9.21,5.71,17.93,12.42,25.53,2.09,2.37,4.18,4.84,7.67,5.96,.08,.07,.23,.22,.25,.2,.22-.13,.14-.27,0-.42,.4-7.63,7.23-12.43,16.27-11.39,5.42,.62,10.84,1.07,16.3,.52,6.05-.61,11.77-1.89,16.47-5.49,3.75-2.87,5.7-9.64,3.38-13.66-4.52,4.25-10.11,6.9-16.68,8.09,1.86-.89,3.77-1.7,5.55-2.72,4.66-2.66,8.62-5.82,10.62-10.42,3.63-6.11,4.52-12.44,2.21-19.04-.11-.4-.19-.81-.34-1.2-2.16-5.78-6.75-9.68-12.98-12.49-8.91-4.02-15.7-9.84-20.15-17.63-4.19-7.34-6.86-15.06-8.82-23-1.5-5.47-2.35-11.04-3.18-16.6-1.4-9.39-2.12-18.86-4.27-28.17-2.46-10.65-6.06-20.99-12.96-30.28-5.29-7.13-11.92-13.17-20.31-17.85-3.52-1.96-7.04-3.88-10.8-5.43-9.39-3.87-19.42-5.81-29.76-6.69-5.92-.5-11.82-.35-17.73,.32-7.13,.81-14.05,2.26-20.34,5.2-2.47,1.16-4.92,2.66-7.32,3.86-3.12,1.56-5.55,3.66-8.36,5.43-2.32,1.46-3.73,3.68-5.55,5.54-3.4,3.49-5.97,7.47-7.92,11.66-4.1,8.85-5.83,18.17-6.74,27.58-.66,6.91-.84,13.85-.96,20.79-.17,9.72-.59,19.42-1.95,29.1-2.09,14.74-7.37,28.61-15.09,41.88-4.02,6.9-8.9,13.38-13.7,19.9-1.42,1.75-2.84,3.49-4.25,5.24,3.89-1.8,7.87-3.09,11.65-4.72,1.92-.83,3.9-1.62,5.65-2.67,9.39-5.63,16.13-13.02,20.19-22.15,.21-.47,.13-1.1,.9-1.29Zm68.08-27.08c-6.13,.1-10.5-2.28-13.66-6.66-3.6-5-5.7-10.4-6.06-16.2-.28-4.58,3.28-6.47,8.24-4.63,2.04,.76,4.04,1.6,6.09,2.34,3.75,1.37,7.45,1.3,11.1-.32,1.61-.71,3.25-1.36,4.87-2.06,4.5-1.94,7.91,.69,7.82,4.2-.09,3.71-1.21,7.27-2.83,10.72-.58,1.24-1.19,2.47-1.78,3.7-2.09,2.61-4.11,5.26-7.42,6.94-1.36,.69-2.77,1.23-4.26,1.66-.34-.03-.7-.11-.86,.27-.41,.01-.82,.02-1.24,.03Zm-.69-1.4c1.1-.22,2.34-.38,3.52-.71,5.03-1.39,7.68-4.85,10.14-8.47,.46-.68-.03-.9-.61-1.2-2.2-1.12-4.63-1.59-7.12-1.91-6.55-.85-12.75,1.69-15.37,6.19-.64,1.1-.54,1.86,.4,2.85,2.34,2.45,5.69,2.62,9.05,3.24Zm-29.7,22.93c2.76,8.95,4.93,18,5.87,27.22,.8,7.82,.88,15.64-1.52,23.32-4,12.84-15.16,23.21-33.54,23.88-1.94,.07-3.89-.49-5.81,.09,1.77,.28,3.54,.56,5.31,.84,.35-.01,.7-.05,1.04-.04,11.86,.4,21.14-3.71,28.03-11.73,6.09-7.09,8.32-15.27,8.71-23.88,.45-10.07-1.19-19.96-4.03-29.72-1.04-3.58-1.87-7.23-3.91-10.55-.33,.13-.23,.3-.15,.56Zm10-75.55c.01,1.14,.03,2.29,.04,3.43-.31,.22-.23,.5-.16,.77-.41,4.48-1.69,8.74-4.77,12.48-2.02,2.45-4.53,4.29-8.34,4.29-5.34-1.17-7.71-4.55-8.69-8.75-1.55-6.66-1-13.2,2.32-19.46,.93-1.75,2.17-3.31,3.9-4.57,3.4-2.46,7.12-2.36,10.28,.34,3.3,2.83,4.56,6.43,5.21,10.24,.07,.41,.14,.82,.2,1.23Zm-18.37-3.27c-.01,1.24,.16,2.56,1.88,2.74,1.6,.16,2.12-1.06,2.49-2.17,.43-1.27,.26-2.45-.84-3.44-.54-.48-1.25-.45-1.92-.15-1.45,.65-1.56,1.83-1.61,3.02Zm-16.37,114.07c-.03-1.96,.81-3.81,1.05-5.75,1.16-9.3,1.14-18.57-.08-27.86-1.57-12.03-4.78-23.75-9.32-35.21-.62-.06-.88,.02-.64,.67,1.96,5.43,3.35,10.98,4.73,16.53,4,16.02,6.09,32.15,3.97,48.54-.25,1.94-1.03,3.83-.87,5.81,.91-.75,.51-1.89,1.15-2.71Zm58.94,34.72c.81-1.17,1.69-2.31,2.44-3.51,6.26-10.16,8.04-21.03,7.05-32.32-.14-1.6-.15-3.29-1.11-4.78-.77,.68,0,1.4,0,2.09-.03,4.84,.21,9.69-.41,14.52-1.13,8.76-3.79,17.1-9.25,24.7,.7,.11,1-.29,1.29-.71Zm39.07-142.65c-.27,4.84-1.11,9.57-4.32,13.71-1.8,2.33-4.04,4.3-7.67,4.35-2.69,.04-4.77-1.08-6.34-2.84-5.42-6.1-5.29-12.95-3.8-20.03,.65-3.07,2.13-5.77,4.31-8.22,4.47-5.01,10.15-4.13,13.68,.3,3.07,3.87,3.91,8.2,4.13,12.72Zm-14.22-6.43c-.03-1.23-.2-2.59-1.93-2.74-1.88-.16-2.31,1.25-2.56,2.5-.31,1.58,.68,3.21,1.93,3.34,1.43,.14,2.57-1.23,2.56-3.1Z"/>
  </g>
</svg>