<?xml version="1.0" encoding="UTF-8"?>
<svg id="Layer_2" data-name="Layer 2" xmlns="http://www.w3.org/2000/svg" viewBox="0 0 310.81 276.68">
  <g id="Layer_1-2" data-name="Layer 1">
    <path d="M7.23,160c-1.47-1.33-2.78-2.26-3.73-3.42-5.22-6.38-4.54-14.65,1.62-21.15,2.33-2.46,5.15-4.24,8.69-4.82,3.53-.58,5.58-2.47,6.55-5.42,.91-2.77,1.66-5.59,2.49-8.39,.3-1.01,.56-2.03,.95-3.01,2.51-6.39,8.08-9.02,15.22-6.93,2.64,.77,5.35,1.84,7.51,3.38,5.53,3.94,11.36,4.07,17.59,1.99,10.59-3.53,18.96-9.78,26.17-17.48,6.09-6.51,9.44-14.29,12.73-22.11,7.04-16.75,14.05-33.5,21.21-50.2,2.81-6.55,6.98-12.35,13.54-16.35,14.58-8.87,36.31-9.2,51.49,6.77,5.9,6.21,8.99,13.54,10.81,21.45,3.28,14.31,6.39,28.65,10.12,42.86,2.61,9.94,6.25,19.68,12.43,28.36,2.51,3.53,5.58,6.84,8.92,9.75,7.1,6.19,15.53,7.7,24.89,4.71,4.28-1.37,8.53-2.89,12.91-3.96,11.16-2.72,27.46,3.09,31.33,17.71,1.57,5.93,1.81,11.65-2.27,16.87-1.14,1.45-2.76,2.6-4.37,3.75-.14-4.26-2.06-7.46-5.56-9.87-3.61-2.48-7.06-1.9-9.47,1.56-3.02,4.35-3.86,11.89,3.14,16.1,3.6,2.16,7.69,3.66,11.53,5.5,4.13,1.97,8.36,3.81,12.28,6.08,1.8,1.04,3.17,2.84,4.37,4.51,1,1.39,.44,2.39-1.27,2.74-8.87,1.85-16.71,5.78-24.48,9.84-7.52,3.93-15.44,6.53-24.28,6.09-2.18-.11-4.36-.26-6.51-.58-4.82-.72-8.37,.88-10.95,4.54-1.9,2.71-3.09,5.63-3.03,8.85,.06,3.92,1.55,7.34,5.2,9.64,6.16,3.89,12.86,6.23,20.57,5.13,.98-.14,1.94-.44,3.32-.77-.53,1.75-.86,3.27-1.45,4.71-4.95,12.02-17.76,21.05-32.53,20.52-6.65-.24-13.28-1.14-19.93-1.53-3.5-.2-7.05-.06-10.56,.14-3.97,.22-6.61,2.19-8.06,5.56-2.81,6.54-7.03,12.25-12.69,17.05-3.65,3.1-7.64,5.68-12.78,6.33-6.9,.87-12.73-1.28-17.89-5.25-1.17-.9-2.36-1.84-3.3-2.93-4.16-4.82-9.62-5.59-15.74-4.22-4.54,1.02-9.01,2.29-13.56,3.25-14.23,3.02-26.78-.34-37.42-9.04-4.76-3.89-9.59-5.69-16.06-5.41-9.45,.42-17.02-3.24-22.18-10.62-1.3-1.86-2.55-3.77-4.04-5.51-1.76-2.05-3.65-4.03-5.68-5.86-2.01-1.82-2.94-5.16-1.57-7.34,.28-.45,1.21-.73,1.87-.81,5.03-.57,9.74-1.84,14.03-4.4,5.77-3.45,7.91-8.72,9.36-14.46,1.32-5.22-.71-9.23-5.12-12.44-2.4-1.74-4.9-3.38-7.41-4.99-9.58-6.18-16.58-14.27-21.76-23.75-1.73-3.17-3.5-6.33-5.43-9.4-1.01-1.6-2.61-2.71-4.8-2.83-3.67-.2-6.97,2.73-7.13,6.38-.04,.86,.09,1.72,.18,3.13Zm93.09,99.97c.02,.21,.03,.42,.05,.63,2.95,.4,5.9,1.02,8.87,1.15,6,.26,11.6-1.51,17.23-3.16,3.7-1.09,7.51-1.96,11.33-2.6,1.39-.23,2.28-.55,3.1-1.57,6.63-8.19,11.33-17.25,14.86-26.83,7.48-20.28,10.66-41.33,13.47-62.44,.63-4.73,1.15-9.48,1.72-14.21,.16,.94,.22,1.86,.16,2.79-1.19,18.68-2.58,37.35-6.1,55.82-2.23,11.69-5.24,23.22-10.8,34.03-2.36,4.59-5.28,8.95-7.88,13.3,1.85,1.37,3.9,2.88,6,4.43,3.57-4.34,6.51-9.05,8.35-14.21,1.85-5.17,3.53-10.43,4.77-15.75,1.21-5.2,1.77-10.53,2.64-15.92,.26,9.96-.31,19.75-2.93,29.35-2,7.31-4.86,14.28-10.46,20.5,2.46,1.54,4.62,3.23,7.09,4.38,6.29,2.92,12.52,1.79,16.88-3.22,2.23-2.57,4.09-5.5,5.53-8.5,3.15-6.59,4.15-13.68,4.25-20.77,.18-12.67,.17-25.35-.31-38.01-.47-12.66-1.69-25.3-2.42-37.95-.68-11.72-1.2-23.46-1.67-35.19-.18-4.32-.03-8.66-.03-12.99,.25,0,.51,0,.76,0,0,1.16-.07,2.32,.01,3.48,.61,9.11,1.08,18.22,1.93,27.31,.76,8.16,2.03,16.28,2.95,24.43,1.17,10.4,2.5,20.8,3.24,31.24,.76,10.84,.93,21.71,1.26,32.58,.08,2.71-.23,5.43-.37,8.34,5.85-2.75,11.89-3.46,18.44-2.86-3.8-4.54-6.45-9.34-8.38-14.48-5.46-14.56-6.24-29.69-6.76-45.36,.28,1.5,.5,2.52,.67,3.54,1.18,7.29,2.13,14.62,3.59,21.86,1.66,8.24,4.2,16.26,8.78,23.65,8.19,13.19,27.07,18.31,41.92,11.28,3.54-1.67,6.14-4.2,8.12-7.5-.57-.04-.82-.07-1.07-.07-12.57,.15-22.52-4.6-30.43-13.25-5.41-5.91-9.41-12.59-13-19.48-6.99-13.42-11.73-27.37-11.9-42.36,0-.35-.04-.7-.01-1.05,.02-.28,.11-.56,.18-.83,1.48,14.22,6.27,27.46,13.24,40.56,.52-3.5,1.94-6.15,5.01-7.8,2.96-1.59,6.18-1.88,9.65-1.08-10.12-12.08-17.7-25.08-20.46-40.08,.54,1.09,.94,2.23,1.35,3.36,.42,1.16,.83,2.32,1.31,3.46,5.28,12.54,12.95,23.6,24.61,32.11,7.13,5.2,15.2,7.85,24.48,6.99,5.24-.49,10.08-2.13,14.84-4.07,6.54-2.67,13.11-5.29,19.71-7.84,1.83-.71,3.82-1.07,6.23-1.73-1.16-.3-1.8-.51-2.47-.63-7.87-1.48-15.79-1.53-23.76-.89-6.44,.52-12.84,1.61-19.37,.9-7.55-.83-16.25-5.96-19.67-11.81,.11,.06,.23,.1,.32,.18,8.47,7.88,18.63,10.52,30.56,8.58,8.08-1.31,16.28-1.98,24.52-.64-.65-.37-1.32-.64-2-.89-4.16-1.52-8.42-2.84-12.44-4.61-6.09-2.67-9.54-7.12-10.27-13.35-.85-7.2,1.02-13.84,4.67-20.13,2.41-4.16,5.88-7.47,10.73-9.39,.98-.39,2-.69,3.19-1.1-5.07-3.65-10.78-4.52-16.65-3.5-4.55,.79-8.93,2.41-13.34,3.76-11.7,3.59-22.73,2.99-32.68-4.24-5.43-3.94-9.19-9.06-11.97-14.76-4.61-9.45-7.21-19.46-9.69-29.49-.92-3.71-1.69-7.45-2.51-11.09-1.98,31.27-3.97,62.59-5.95,93.91-.19,0-.39,0-.58-.01,0-.86,0-1.72,0-2.58,.17-20.29,.45-40.59,.48-60.88,.03-18.25-.05-36.51-.4-54.76-.16-8.53-3.46-16.25-9.42-22.95-12.77-14.36-31.48-13.89-43.26-7.02-8.05,4.7-12.19,11.93-14.62,20.03-2.82,9.37-3.09,19.05-3.87,28.66-.57,6.97-1.06,13.94-1.59,20.91-.15,0-.3,0-.44-.01V41.08c-.35,.36-.5,.77-.66,1.18-2.97,7.96-5.76,15.98-8.95,23.87-4.63,11.45-9.72,22.74-16.94,33.1-4.81,6.91-10.9,12.63-19.21,16.13-6.72,2.83-13.8,4.51-21.07,2.61-3.97-1.04-7.54-3.32-11.3-5.03-1.97-.9-3.95-1.77-5.93-2.65-.09,.15-.17,.3-.26,.45,.15,.18,.29,.37,.45,.54,5.62,6.18,8.18,13.18,6.94,21.2-.92,5.94-5.11,9.56-11.03,9.27-2.15-.11-4.31-.59-6.38-1.16-2.87-.8-5.65-1.87-8.5-2.77-2.36-.75-4.71-.73-6.8,.64-3.28,2.15-4.93,5.21-5.95,8.89,1.18-.81,2.05-1.58,3.08-2.1,5.44-2.74,11.53-1.79,15.81,2.72,2.37,2.5,4.36,5.31,6.37,8.07,2.93,4.01,6.53,7.35,11.34,9.44,8.36,3.62,16.61,2.68,24.62-.94,8.8-3.98,14.9-10.5,19.99-17.91,.47-.69,.93-1.39,1.4-2.08-3.63,9.11-9.48,16.71-18.4,22.14-6.97,4.25-14.61,6.08-23.02,4.83-4.35-.64-8.26-2.25-12.12-4.49,.1,.37,.11,.54,.19,.67,3.97,5.95,9.12,10.79,16.19,13.73,4.26,1.77,8.72,2.7,13.46,2.05,7.9-1.08,13.95-5,19.21-10.17,.78-.77,1.5-1.59,2.25-2.39-4.6,9.5-12.28,15.58-23.65,17.27,1.36,2.22,2.62,4.27,3.92,6.4,4.9-1.9,9.39-4.45,13.4-7.67,9.47-7.61,15.8-17.18,20.76-27.57,7.6-15.92,10.99-32.81,13.88-49.81,1.11-6.54,2.03-13.11,3.03-19.66,.03,1.45-.12,2.89-.22,4.33-1.12,16.13-3.13,32.15-6.97,47.95-3.25,13.36-8.11,26.16-16.65,37.59-6.62,8.86-14.67,16.28-25.73,20.65-.54,.21-1,1.12-1.07,1.74-.41,3.74-1.41,7.33-3.33,10.66-1.27,2.19-2.82,4.24-4.42,6.62,21.25-7.32,33.38-22.55,43.71-39.44-4.9,10.65-11.17,20.5-20,28.89-8.75,8.31-19.04,14.24-31.54,16.76-3.18,.64-6.39,1.18-9.83,1.81,2.6,3.48,5.01,6.98,7.73,10.26,2.79,3.36,6.63,5.4,11.18,6.36,4.67,.98,9.31,.71,13.93-.2,12.6-2.48,22.33-9.11,30.6-17.69,11.85-12.29,19.61-26.62,25.01-42.05,6.7-19.14,8.74-38.87,8.53-58.84-.01-1.35,0-2.7,0-4.05,.3,.28,.33,.56,.36,.84,1.6,13.65,1.31,27.28-.31,40.91-1.94,16.25-6.45,31.84-14.68,46.44-6.83,12.13-15.37,23.08-27.32,31.58-1.74,1.24-3.58,2.37-5.01,3.31,2.8,1.48,5.61,3.05,8.51,4.46,2.07,1.01,4.21,1.98,6.43,2.64,1.01,.3,2.56,.15,3.43-.38,2.75-1.68,5.55-3.41,7.85-5.54,6.2-5.72,9.72-12.89,12.61-20.34,.29-.76,.58-1.52,.87-2.28-2.86,17.4-11.1,31.2-30.87,37.12ZM24.31,134.39c1.63,.68,3,1.3,4.41,1.83,1,.38,2.03,.73,3.08,.94,3.87,.79,6.2-.35,7.73-3.73,1.42-3.13,1.22-6.37,.6-9.6-.74-3.87-2.03-7.56-4.97-10.58-1.4-1.44-2.01-1.39-3.28,.14-.38,.46-.8,.96-.94,1.5-.67,2.7-1.48,5.39-1.81,8.12-.5,4.1-1.12,8.08-4.82,11.36Zm272.14,12.11c.27-.45,.54-.84,.74-1.26,2.16-4.64-.53-13.43-5.1-16.31-.94-.59-2.21-.89-3.37-1.02-4.98-.58-10.84,6.17-11.77,10.57,5.62-1.82,9.06-1.29,13.55,2.38,2.08,1.7,3.89,3.68,5.94,5.64ZM142.22,71.24c-1.58-1.01-3.17-2.79-5.24-1.85-1.93,.88-2.07,3.06-1.98,4.82,.22,4.1,.34,8.26,1.21,12.27,1.93,8.91,5.48,17.28,11.79,24.49,5.31,6.06,10.26,5.98,15.37-.24,5.91-7.19,9.41-15.38,11.66-24.04,1.11-4.3,2.05-8.65,1.2-13.1-.49-2.58-1.45-3.11-4.09-1.97-2.04,.88-3.9,2.09-5.67,3.06-.6-2.41-1.12-4.97-1.9-7.46-.92-2.92-2.3-5.67-4.74-7.86-2.27-2.04-4.14-2.28-6.23-.11-2.02,2.1-3.76,4.56-5.02,7.1-1.29,2.59-1.85,5.49-2.53,7.64-1.03-.75-2.37-1.82-3.82-2.75Zm23.97-22.9c1.42,2.93,4.56,3.47,7.28,1.44,1.35-1.01,2.54-2.32,3.41-3.7,2.2-3.52,3.03-7.44,2.55-11.41-.3-2.47-1.05-5.02-2.25-7.25-1.32-2.47-3.82-2.71-6.29-1.06-.81,.54-1.57,1.21-2.2,1.93-3.15,3.61-4.21,7.86-4.53,13.6,.42,1.4,.87,4.07,2.02,6.46Zm-24.29-.4c3.21,4.07,7.56,3.73,9.63-.89,.94-2.11,1.52-4.46,1.68-6.73,.31-4.71-.92-9.15-4.4-12.81-3.34-3.52-6.98-3.04-8.83,1.26-1.03,2.38-1.36,5.02-2,7.54,.4,4.23,1.21,8.19,3.92,11.63Z"/>
  </g>
</svg>