<?xml version="1.0" encoding="UTF-8"?>
<svg id="Layer_2" data-name="Layer 2" xmlns="http://www.w3.org/2000/svg" viewBox="0 0 255.13 266.89">
  <g id="Layer_1-2" data-name="Layer 1">
    <path d="M202.86,203.11c5.32,8.36-2.67,22.92-12.07,22.97-3.11,.02-5.84,1.2-8.44,2.87-4.01,2.58-8.12,2.78-12.41,.67-2.42-1.19-4.95-2.13-7.44-3.16-1.95-.8-3.92-.71-5.75,.29-3.97,2.19-7.89,4.48-11.67,6.65,26.41,.51,53.08-.52,79.73,.6,.03,.28,.05,.56,.08,.84-6.86,1.52-13.71,3.03-20.57,4.55,.03,.32,.06,.65,.08,.97,2.93,.25,5.86,.49,8.79,.75,4.39,.38,8.95,.11,13.11,1.31,6.42,1.86,12.89,.54,19.27,1.47,1.28,.19,2.57,.32,3.86,.47,0,.21,0,.43,0,.64-2.16,.35-4.31,.83-6.48,1.03-5.27,.51-10.56,.88-15.84,1.32-8.52,.72-17.05,1.35-25.56,2.22-5.45,.55-10.87,1.44-16.3,2.22-.64,.09-1.26,.41-1.89,.62,0,.17,0,.34,0,.51,.63,.2,1.27,.36,1.87,.62,1.4,.6,3.24-.1,4.25,1.84,.26,.5,1.66,.39,2.55,.5,3.03,.37,6.06,.71,9.16,1.47-.53,.2-1.06,.41-1.59,.61-.01,.14-.03,.27-.04,.41,4.28,.28,8.56,.56,12.84,.83,0,.17,0,.35,0,.52-1.92,.13-3.85,.4-5.77,.37-16.28-.24-32.56-.68-48.85-.73-5.27-.02-10.54,.9-15.8,1.42-1.59,.15-3.19,.28-4.75,.59-2.93,.58-5.92,1-8.72,2-5.34,1.92-10.82,2.57-16.38,2.73-11.11,.33-22.22,.53-33.33,.77-.8,.02-1.61-.12-2.97-.23,1.15-.62,1.8-.97,2.97-1.6-1.28-.39-2.06-.74-2.87-.84-4.43-.56-8.87-1.32-13.32-1.48-3.48-.12-6.99,.44-10.47,.86-12.02,1.47-24.07,1.65-36.15,1.28-.48-.01-.97-.17-1.2-.22,4.68-.78,9.57-1.58,14.44-2.41,.25-.04,.46-.38,1.09-.93-1.39-.45-2.41-.94-3.48-1.1-5.68-.86-11.38-1.61-17.06-2.45-1.23-.18-2.44-.56-3.66-.84-.02-.23-.04-.46-.05-.69,1.61-.37,3.21-.87,4.84-1.07,8.93-1.12,17.87-2.12,26.8-3.26,3.26-.42,6.47-1.32,9.74-1.62,4.77-.44,9.56-.52,14.34-.78,4.91-.27,9.81-.56,14.72-.86,.42-.03,.82-.23,1.29-.77-.67-.16-1.33-.43-2-.46-7.59-.31-15.18-.71-22.78-.83-14.05-.23-28.11-.26-42.16-.46-3.37-.05-6.74-.43-10.1-.65,0-.18-.01-.36-.02-.54,2.4-.21,4.79-.57,7.19-.57,2.8,0,5.37-.75,8.06-1.48,3.78-1.03,7.83-1,11.76-1.43,.88-.1,1.75-.23,2.67-.65-.88-.31-1.75-.62-2.63-.93,.02-.16,.03-.32,.05-.49,3.8-.22,7.59-.58,11.39-.64,7.6-.11,15.21,.03,22.81-.11,3.63-.06,7.26-.48,10.88-.81,.92-.08,1.81-.45,3.19-.81-1.02-.93-1.69-1.55-2.74-2.51,1.42-.37,2.47-.76,3.55-.9,1.9-.24,3.82-.44,5.73-.46,12.14-.12,24.27-.19,36.41-.28,.48,0,.96-.14,.95-.14-7.49-4.3-15.24-8.75-22.97-13.21-5.36-3.1-11.03-3.21-16.72-1.55-8.11,2.37-13.55-1.95-16.21-8.73-.7-1.78-1.31-3.62-2.12-5.34-1.58-3.34-3.93-4.5-7.5-4.22-3.03,.23-6.12,.52-9.12,.17-3.53-.41-6.4-2.6-8.81-5.25-2.68-2.94-2.51-6.64-.09-10.63,1.16-1.92,1.92-4.11,2.76-6.23,.43-1.1-.06-1.83-1.14-2.32-1.28-.58-2.53-1.29-3.68-2.11-6.34-4.48-8.15-12.37-4.38-19.33,.84-1.55,1.9-3.01,3.05-4.33,2.4-2.77,2.78-7.26,.61-10.31-1.8-2.52-4.16-4.25-7.1-5.12-1.65-.49-3.3-1.06-4.86-1.79-3.78-1.76-6.41-4.66-7.97-8.72-.77-2.02-1.84-3.94-2.99-5.76-.95-1.52-2.23-2.44-4.26-2.47-3.2-.04-6.35-3.73-6.48-7.07-.13-3.15,2.13-5.84,5.65-6.49,1.56-.29,3.2-.54,4.75-.35,2.86,.35,4.38-.89,5.68-3.48,1.37-2.73,3.13-5.37,5.19-7.58,2.9-3.1,6.59-4.51,10.84-3.47,2.47,.6,4.42,2.1,5.92,4.15,1.23,1.69,2.43,3.46,3.29,5.37,3.15,6.94,8.94,8.77,15.63,7.92,7.66-.97,13.02-5.72,17.46-11.87,5.41-7.5,8.14-16.09,9.09-25.31,.8-7.81,1.15-15.67,1.96-23.48C87.87,20.44,103.21,4.04,125.56,.6c10.55-1.62,20.51-.07,29.66,5.74,8.77,5.56,13.77,14.21,17.32,23.94,2.63,7.23,3.62,14.79,4.21,22.44,.87,11.06,.92,22.24,4.21,32.96,5.45,17.77,16.09,30.18,33.75,35.15,6.05,1.7,12.22,2.41,18.15-.67,2.28-1.18,4.32-2.86,6.61-4.02,6.12-3.09,13.12,.04,15.04,6.6,1.86,6.34-.47,13.08-5.97,16.46-2.79,1.71-5.82,3.01-8.81,4.32-1.28,.56-1.43,1.17-.93,2.4,1.08,2.64,2.93,4.49,5.25,5.89,1.49,.89,3.06,1.65,4.54,2.57,3.87,2.41,5.39,6.42,4.22,10.96-2.92,11.38-14.52,19.08-25.69,17.22-2.35-.39-4.9-.55-7.19-.02-4.56,1.05-7.38,4.48-8.01,9.16-.75,5.62-3.59,9.05-8.46,11.01-.17,.07-.31,.21-.58,.41Zm-29.76-21.93c.1-.1,.2-.2,.3-.29,4.46,3.08,8.96,6.11,13.38,9.26,4.73,3.38,9.38,6.87,14.08,10.3,.32,.23,.87,.53,1.12,.4,3.38-1.77,6.68-3.44,7.4-8.11,.41-2.66,1.41-5.48,2.9-7.66,3.52-5.16,8.77-6,14.4-5.04,10.3,1.77,19.89-3.93,23.58-14.08,1.59-4.38,.56-7.76-3.42-9.94-4.58-2.51-9.04-5.02-10.82-11.12-1.68,1.92-3.27,3.32-4.35,5.07-2.19,3.56-.89,6.33,3.09,7.11,1.14,.22,2.28,.41,3.42,.62,0,.16,0,.33-.01,.49-1.05,.08-2.1,.26-3.14,.21-5.55-.24-7.7-4.35-4.9-9.34,1.81-3.21,4.52-5.4,7.7-6.97,2.82-1.39,5.72-2.64,8.52-4.08,3.08-1.58,5.08-4.17,6.06-7.61,1.79-6.31-1.58-12.38-7.33-13.14-2.47-.33-4.6,.69-6.71,1.88-2.73,1.54-5.41,3.42-8.35,4.28-7.64,2.26-15.12,.63-22.22-2.51-15.71-6.93-24.89-19.77-29.52-36.51-2.9-10.45-3.06-21.28-3.85-32.02-.63-8.47-2.01-16.75-5.31-24.58-4.85-11.53-12.35-20.07-24.3-23.68-9.27-2.8-18.52-2.36-27.51,.88-17.57,6.34-27.02,19.78-29.46,38.68-1.02,7.91-1.2,15.93-2.02,23.88-1.02,9.91-4.15,19.04-10.09,26.98-.6,.8-1.2,1.58-1.81,2.37,.12,.12,.25,.23,.37,.35,1.98-1.92,4.09-3.73,5.93-5.79,9.76-11,15.92-24.16,20.87-38.07-.49,2.4-1.09,4.75-1.84,7.05-4.13,12.68-9.8,24.43-18.99,34.03-6.75,7.05-14.66,11.75-24.39,12.41-6.93,.47-12.52-1.95-16.01-8.59-.98-1.86-1.99-3.74-3.23-5.41-3.47-4.71-8.7-5.55-13.08-1.78-2.16,1.86-3.79,4.44-5.46,6.84-1.19,1.71-1.95,3.75-3.12,5.48-1.51,2.23-3.47,3.96-5.98,4.84l-.58-.64c1.91-1.55,3.81-3.09,5.72-4.64-.17-.2-.35-.41-.52-.61-1.87,.28-3.77,.45-5.61,.89-1.35,.32-2.71,.81-3.9,1.54-1.85,1.14-2.31,3.26-1.39,5.22,1.13,2.43,3.43,3.69,6,3.26,5.18-.85,9.96-2.79,14.35-5.77,.37-.25,.77-.45,1.16-.67-3.72,3.96-8.22,6.46-13.07,7.95,1.37,2.31,3.09,4.47,4.03,6.94,2.05,5.42,5.88,8.32,11.04,9.8,8.1,2.32,16.22,1.6,24.3,.09,4.36-.81,8.66-2.04,13.22-3.14-10.04,4.72-20.34,6.9-31.69,6.62,3.85,3.07,5,6.79,4.35,10.9,3.66-1.93,7.02-4.27,10.72-5.53,6.35-2.16,12.86-3.93,19.39-5.38,19.16-4.27,32.93-15.36,40.76-34.23,.17-.4,.39-.78,.79-1.58-.04,.72,0,.99-.08,1.22-3.66,11.07-9.71,20.31-18.97,27.13-7.51,5.53-16.02,8.32-24.89,10.24-6.93,1.5-13.85,3.07-20.28,6.32-4.92,2.49-9.22,5.74-11.94,10.84-2.94,5.51-1.99,11.5,2.66,15.48,1.79,1.54,4.05,2.48,6.04,3.77,1.34,.87,2.78,1.69,3.86,2.85,1.65,1.79,1.42,4.54-.33,6.12,.45-2.73-.06-4.96-2.13-6.12-1.44,3-2.85,5.92-4.25,8.84-.17,.36-.36,.71-.51,1.07-1.16,2.95-.58,5.28,1.88,7.23,3.26,2.59,6.89,4.01,11.06,3.59,1.78-.18,3.56-.37,5.34-.47,3.98-.24,6.71,1.76,8.4,5.38,.83,1.79,1.43,3.7,2.17,5.54,2.79,6.89,6.92,9.25,13.86,7.36,7.3-1.99,13.98-.9,20.39,3.11,4.65,2.9,9.37,5.71,14.18,8.31,8.14,4.42,16.77,6.21,25.94,4.74,6.81-1.09,11.91-6.03,18.32-8.53-2.57-1.54-4.81-3.61-7.61-.91-.32-2.14,1.12-3.61,3.2-3.2,1.4,.28,3,.73,4.01,1.69,4.12,3.88,9.46,5.11,14.26,7.48,2.08,1.03,4.22,.9,6.3-.11,1.21-.59,2.42-1.2,3.57-1.92,2.52-1.6,5.24-2.21,8.16-2.55,1.93-.23,3.99-1.07,5.57-2.24,3.23-2.39,5.08-5.87,5.9-9.95,.5-2.48,.35-4.9-1.15-6.85-1.86-2.42-3.83-4.85-6.14-6.77-3.69-3.06-7.74-5.64-11.55-8.56-3.47-2.66-6.81-5.49-10.2-8.25Zm-33.63-120.4c.98,3.75,2.35,7.05,6.4,7.72,2.33,.39,4.14-.92,6.6-4.54,2,1.81,2.74,4.2,3.15,6.76,1.04,6.49-.22,12.72-2.13,18.85-1.37,4.39-3.06,8.61-6.12,12.08-4.82,5.45-10.8,4.94-14.7-1.29-2.21-3.53-3.25-7.52-3.68-11.64-.78-7.54-.31-14.92,3.36-21.71,1.57-2.9,3.58-5.35,7.11-6.23Zm-1.98,15.04c.2,.08,.4,.16,.6,.24,1.37-2.01,2.73-4.01,3.82-5.6-1.59-2.77-2.96-5.16-4.46-7.77-1.57,4.48-1.38,8.8,.04,13.13Zm13.85-6.3c-2.05,.76-3.43,1.26-4.96,1.83,.38,1.59,.73,3.07,1.08,4.55,.24,.05,.49,.09,.73,.14,.97-2.02,1.95-4.04,3.14-6.51Zm-15.35-24.34c-.81,3.31-1.24,6.8-2.52,9.9-2.35,5.69-7.27,5.99-10.49,.76-2.95-4.8-3.52-10.23-2.75-15.73,.38-2.7,1.15-5.5,2.38-7.89,2.53-4.89,7.05-4.85,9.91-.18,1.93,3.16,2.98,7.76,2.97,13.01,.17,.05,.34,.09,.51,.14Zm-6.44,6.44c-.12-1.18-.32-2.7-2.16-2.86-1.65-.15-3.24,2.17-3.2,4.48,.04,1.87,1.1,3.15,2.55,3.07,1.55-.08,2.84-2.09,2.81-4.7Zm-.22-16.12c-.3-.3-.88-1.34-1.66-1.55-1.39-.37-2.75,1.45-2.76,3.31,0,1.37,.51,2.36,1.91,2.47,1.3,.1,2.44-1.54,2.51-4.24Zm34.75,14.01c-.51,2.58-.71,5.29-1.61,7.71-1.63,4.36-5.5,4.78-8.05,.94-1.1-1.66-1.97-3.61-2.46-5.56-1.04-4.09-1.09-8.29-.15-12.44,.26-1.15,.67-2.31,1.25-3.32,1.92-3.36,4.98-3.54,7.28-.46,2.29,3.07,2.95,6.72,3.3,10.46,.08,.86,.01,1.73,.01,2.59,.14,.03,.29,.05,.43,.08Zm-4.71,4.76c-.12-1.08-.38-2.25-1.89-2.31-1.49-.06-2.73,1.7-2.67,3.71,.04,1.44,.64,2.48,2.1,2.55,1.27,.06,2.48-1.92,2.46-3.95Zm-.17-14.86c-.32-.27-.89-1.09-1.62-1.29-1.06-.28-2.3,1.38-2.31,2.88,0,1.14,.31,2.14,1.64,2.22,1.22,.07,2.28-1.41,2.29-3.82Zm15.32,176.43c2.09-9.03-1.25-15.52-9.71-18.34-3.14-1.05-6.44-1.6-9.65-2.45-13.95-3.72-22.42-12.81-24.87-27.76-2.01-12.3-1.52-24.53,1.03-36.7,.25-1.17,.55-2.32,.83-3.48,.27-1.13,.54-2.26,.81-3.4-.32,.19-.45,.43-.52,.68-4.25,13.89-5.95,28.05-3.95,42.55,.99,7.23,3.29,13.95,8.12,19.47,5,5.73,11.42,8.79,18.48,10.63,3.46,.9,6.99,1.59,10.33,2.85,5.33,2.02,8.04,6.22,7.84,11.7-.07,2.04-.63,4.05-.95,6.08-.44,2.78,.42,4.92,2.59,6.01-2.17-2.56-.97-5.24-.37-7.85ZM105.97,127.92c-5.15,9.32-11.22,17.82-19.9,23.93-5.32,3.75-11.14,5.35-17.61,4.58-4.3-.51-8.64-.89-12.95,.26-7.68,2.06-11.58,10.16-11.5,15.79,.35-1.01,.57-1.69,.83-2.36,2.59-6.65,7.02-11.19,14.02-12.05,3.77-.46,7.65-.21,11.46,.1,4.92,.4,9.53-.26,13.85-2.83,4.57-2.72,8.2-6.54,11.55-10.67,4.75-5.86,8.87-12.14,11.65-19.36-.46,.87-.91,1.75-1.38,2.61Zm-65.06-6.87c-3.28-2.29-5.96-5.18-7.98-8.73-1.36-2.39-1.85-4.89-1.2-7.64,.29-1.21,.44-2.49,.48-3.74,.1-2.92-1.1-5.01-3.19-5.78-2.34-.86-4.98,.1-6.72,2.52,.25-.05,.43-.05,.58-.12,2.01-.95,4.11-1.88,6.14-.3,2.11,1.64,1.65,4.13,1.47,6.45-.02,.26-.12,.52-.14,.78-.08,1.71-.43,3.47-.17,5.13,.9,5.78,7.12,11.94,13.31,13.11-.86-.56-1.73-1.09-2.57-1.68Zm129.65-20.9c-2.07-11.15-2.08-22.44-2-33.74-2.13,23.1,.65,45.22,12.18,65.54-4.84-10.09-8.13-20.73-10.18-31.8Z"/>
  </g>
</svg>