<?xml version="1.0" encoding="UTF-8"?>
<svg id="Layer_2" data-name="Layer 2" xmlns="http://www.w3.org/2000/svg" viewBox="0 0 297.97 248.7">
  <g id="Layer_1-2" data-name="Layer 1">
    <path d="M296.99,199.39c-.23-.68-.38-1.42-.62-2.12-.88-1.06-1.79-2.08-2.7-3.11-1.15-.63-2.28-1.31-3.38-1.99-.26-.08-.52-.15-.78-.24-.88-.21-1.77-.36-2.66-.5h-7.42c-.15,0-.29-.01-.43-.03-2.21,.26-4.51,.1-6.85-.46-1.82-.43-3.63-1.2-3.71-3.44,1.06-.13,2-.28,2.96-.36,3.85-.32,7.59-.92,10.68-3.13,3.03-2.16,4.74-4.84,3.93-8.28-.76-3.22-3.7-4.42-7.09-5.14-6.61-1.4-12.76-3.7-18.49-6.84-7.42-4.07-12.4-9.55-13.87-17.15-1.41-7.28,2.27-11.02,10.81-10.98,2.69,.01,5.44,0,8.06-.44,5.8-.98,9.66-5.26,9.27-9.88-.39-4.72-4.51-7.95-10.67-8.46-2.24-.19-4.48-.44-6.67-.82-14.73-2.57-25.92-9.1-32.24-21.06-3.73-7.05-5.1-14.55-5.8-22.17-.76-8.17-1.21-16.37-2.32-24.5-1.41-10.36-5.38-20.04-12.17-28.81C191.26,2.02,167.49-4.69,145.57,3.41c-1.24,.46-2.77,.6-4.13,.51-19.2-1.23-35.8,3.51-48.87,15.83-14.53,13.69-19.84,30.15-18.56,48.26,.5,7.01,2.08,13.96,3,20.95,1.2,9.15,.2,18.02-5,26.31-6.32,10.07-15.45,17.88-26.52,24.14-3.69,2.09-7.52,4-11.08,6.25-4.11,2.59-5.46,7.41-3.45,11,1.89,3.37,6.71,5.12,11.75,4.16,2.63-.5,5.18-1.32,7.83-1.73,1.49-.23,3.1,.09,4.66,.17-.34,1.37-.2,3.04-1.09,4.04-2.87,3.18-5.86,6.36-9.29,9.1-9.62,7.67-21.14,12.75-33.18,17.06-2,.72-4.04,1.45-5.83,2.46-7.71,4.35-7.75,12.29-.11,16.65,1.6,.91,3.44,1.52,5.17,2.27-3.01,5.36-1.64,9.02,4.59,11.88,4.7,2.16,9.77,2.5,14.57,.74,3.65-1.34,6.81-3.64,10.29-5.36,1.82-.9,3.81-1.62,5.84-2.07,.56-.12,2.09,.95,2.17,1.56,.71,5.62,4.91,8.5,10.61,10.36,6.04,1.97,12.24,2.2,18.61,1.22-3.11,5.26-2.63,8.37,1.82,11.32,1.23,.82,2.63,1.51,4.06,2.03,6.69,2.42,13.72,3.13,20.72,1.67,5.12-1.07,9.98-3.02,14.96-4.57,1.9-.6,3.81-1.19,6.11-1.91-2.5,4.75,1.29,8.04,5.74,8.69,4.53,.66,8.66-.27,12.39-2.46,1.4-.83,2.69-1.06,4.4-.76,7.71,1.36,11.69-.24,15.07-6,.58,.57,1.12,1.08,1.64,1.61,10.77,11.12,33.05,13.31,46.31,4.42,1.85-1.24,3.63-3.03,4.42-4.88,1.98-4.64,4.69-6.65,10.52-6.2,3.85,.3,7.68,1.05,11.46,1.82,5.4,1.1,10.75,2.42,16.39,2.05,7.45-.49,15.47-5.97,9.66-13.84-.06-.08,.03-.22,.07-.48,2.14-.09,4.31-.14,6.47-.29,6.65-.44,13.14-1.5,18.78-4.71,6.34-3.61,10.07-8.35,9.35-14.85-.34-.79-.62-1.6-.9-2.43Zm-139.09,35.65c-.66,2.72-2.79,4.1-6.11,4.05-3.72-.06-8.01-2.93-8.97-6-.54-1.72,.2-2.82,2.29-2.97,4.72-.33,8.77,1.24,12.46,3.58,.33,.21,.44,.92,.34,1.34Zm133.59-27.71c-2.22,3.85-6.08,6.08-10.67,7.49-5.5,1.69-11.24,2.16-17.04,2.33-1.27,.04-2.58,.04-3.78,.34-2.32,.57-3.41,2.47-2.59,4.41,.5,1.2,1.27,2.31,1.86,3.49,1.04,2.08,.51,3.53-1.71,4.77-3.07,1.73-6.52,1.55-9.82,1.01-5.88-.96-11.64-2.49-17.54-3.33-3.25-.46-6.77-.42-10,.11-5.03,.83-8.06,3.85-9.85,7.92-.6,1.35-1.64,2.77-2.95,3.65-10.22,6.91-27.77,5.83-37.31-2.21-1.92-1.62-3.67-3.4-5.67-4.95-4.89-3.78-10.49-6.4-17.2-6.91-3.38-.26-6.51,.33-8.58,2.85-2.09,2.53-1.7,5.21-.09,7.81,.69,1.12,1.53,2.18,2.42,3.42-2.87,1.88-5.89,3.05-9.55,2.2-1.87-.43-2.23-1.34-1.13-2.72,.51-.63,1.19-1.15,1.76-1.75,1.65-1.73,1.04-3.88-1.5-4.3-1.91-.31-4.12-.3-5.95,.21-4.26,1.18-8.42,2.66-12.54,4.18-8.3,3.07-16.72,4.03-25.38,1.32-6.96-2.18-7.72-5.01-2.55-9.52,4.09-3.57,8.49-6.9,12.43-10.58,4.74-4.44,8.01-9.72,10.92-15.16,.06-.12,.1-.24,.16-.36,.65-1.41,.6-2.77-1.18-3.44-1.69-.63-2.75,.28-3.6,1.52-2.97,4.36-5.76,8.84-9.11,12.99-4.18,5.18-9.66,9.14-17.17,10.45-6.45,1.13-12.7,.68-18.55-2.1-2.24-1.07-3.75-2.41-3.92-4.93-.32-4.82-5.42-7.6-11.05-5.95-2.68,.79-5.14,2.32-7.46,3.8-3.05,1.93-6.08,3.75-9.93,4.27-3.25,.43-6.28,0-8.99-1.67-2.41-1.48-2.75-2.98-1.13-5.09,.7-.91,1.66-1.68,2.25-2.63,.48-.76,1.13-1.95,.76-2.49-.48-.69-1.83-1.06-2.89-1.33-2.05-.53-4.35-.56-6.19-1.38-5.24-2.35-5.34-6.84-.26-9.44,2.17-1.11,4.59-1.87,6.92-2.74,12.79-4.8,24.9-10.51,34.87-19.03,2.59-2.21,4.95-4.66,7.05-7.22,1.3-1.58,2.25-3.51,2.76-5.4,1-3.66-2.06-7.1-6.46-7.19-2.57-.05-5.17,.53-7.73,.97-1.9,.33-3.73,.98-5.64,1.29-1.91,.31-3.81,.2-4.95-1.47-.94-1.38-.41-3.9,1.16-5.13,.93-.73,2-1.35,3.08-1.92,7.66-4.07,15.28-8.16,21.71-13.65,9.17-7.82,16.55-16.57,19.51-27.57,.64-2.36,.87-4.8,1.27-7.2,.15-.93,.25-1.87,.37-2.8,4.17,23.34-6.62,40.4-30.5,51.92,.17,.2,.35,.41,.52,.61,.81-.19,1.7-.26,2.43-.59,11.99-5.31,20.66-13.33,26.03-23.83,5.83-11.41,5.48-23.08,1.85-34.97-1.75-5.73-2.58-11.67-3.56-17.55-1.76-10.52-.66-20.87,3.72-30.83,6.64-15.11,18.07-26.29,36.69-31.19,5.38-1.42,10.92-2.02,16.94-1.76-2.1,1.68-3.97,3.12-5.74,4.64-1,.86-1.9,1.81-2.71,2.81-.83,1.01-.8,2.11,.41,2.91,1.23,.81,2.37,.46,3.39-.42,1.79-1.55,3.55-3.13,5.43-4.6,19.11-14.97,45.98-10.17,59.91,5.7,7.8,8.88,11.63,19.03,13.78,29.86,1.3,6.54-.4,12.69-1.66,18.98-2.44,12.13-3.05,24.22,2.48,35.95,5.35,11.36,14.34,19.54,28.44,23.09,1.05,.26,2.18,.31,3.28,.45,.07-.24,.14-.48,.22-.71-.62-.24-1.21-.53-1.85-.7-17.06-4.42-26.45-14.72-30.68-29.02-2.82-9.54-1.87-19.07-.15-28.61,.26-1.45,.53-2.89,1.12-4.35,.31,3.24,.6,6.49,.93,9.73,.68,6.65,1.83,13.23,4.58,19.51,6.65,15.17,19.65,23.9,38.08,27.02,2.79,.47,5.62,.77,8.44,1.13,2.29,.29,3.66,1.48,4.11,3.33,.46,1.86-.32,3.56-2.2,4.49-1.49,.74-3.31,1.18-5.04,1.37-2.07,.23-4.2,.11-6.3,.03-8.98-.34-14.25,5-14.57,12.16-.42,9.31,4.49,16.55,12.8,22.21,7.08,4.83,15.2,7.91,23.96,9.8,3.27,.71,3.95,2.68,1.58,4.79-2.13,1.9-4.99,2.2-7.82,2.56-1.04,.13-2.09,.18-3.12,.36-5.43,.97-7.34,5.28-3.96,9.05,2.39,2.66,5.69,3.92,9.54,4.11,3.59,.18,7.23,0,10.79,.38,6.71,.71,9.74,5.75,6.75,10.93Zm-118.05-115.88c-.63,8.77-2.87,17.07-8.35,24.5-1.8,2.44-4.18,4.73-6.82,6.53-5.38,3.66-12.7,3.43-18.12-.21-5.68-3.82-8.97-9.06-11.41-14.69-2.78-6.42-4.2-13.08-3.64-19.95,.15-1.82,.63-3.68,1.38-5.39,.98-2.24,2.65-2.67,5.18-1.59,5.35,2.3,10.88,3.92,16.97,3.88,5.7-.04,10.92-1.46,15.89-3.7,4.04-1.82,6.09-1.24,7.33,2.53,.86,2.62,1.09,5.39,1.6,8.09Zm-21.63-4.67c2.33,1.26,3.93,3.61,7.22,2.77,2.02-.52,4.17-3.79,4.07-5.65-3.6,.92-7.25,1.85-11.29,2.88Zm-9.75-.51c-2.83-.83-5.53-1.62-8.49-2.49,.67,2.38,.82,5.06,3.73,5.81,2.47,.64,3.46-1.7,4.74-3.12,.04-.04,.01-.12,.02-.2Zm-27.93-31.02c-.01-3.89,.75-7.64,2.87-11.12,.68-1.12,1.55-2.2,2.55-3.13,3.65-3.41,8.36-3.51,12.23-.25,3.4,2.86,4.93,6.51,5.66,10.43,1.12,6.03,.63,11.88-3.38,17.17-4.28,5.64-10.94,5.78-15.55,.33-3.39-4-4.4-8.6-4.38-13.43Zm13.1,1.64c-.02-1.68-1.64-3.14-3.49-3.14-1.97,0-3.6,1.53-3.52,3.3,.07,1.63,1.83,3.14,3.6,3.09,1.8-.05,3.43-1.61,3.42-3.25Zm6.4,5.71c-1.07-.66-1.76-1.09-2.46-1.53-.52,.62-1.45,1.25-1.43,1.86,0,.53,1.09,1.04,1.7,1.56,.61-.53,1.23-1.06,2.19-1.9Zm47.12-8.36c-.14,4.61-1.03,9.04-4.32,12.88-4.31,5.03-10.3,5.11-14.7,.14-3.55-4.02-4.54-8.72-4.48-13.6,.05-3.87,.83-7.65,3.12-11.07,.63-.94,1.37-1.84,2.22-2.65,3.84-3.66,8.82-3.66,12.63,.04,4.2,4.07,5.36,9.03,5.53,14.26Zm-14.24,3.73c1.74,.03,3.44-1.56,3.45-3.2,0-1.73-1.52-3.09-3.49-3.09-1.87,0-3.37,1.25-3.44,2.9-.08,1.7,1.63,3.37,3.48,3.39Zm7.65,1.28c-.31,0-.61,0-.92,0-.4,.63-1.2,1.32-1.09,1.88,.12,.61,1.08,1.09,1.68,1.63,.5-.54,1.37-1.07,1.41-1.64,.05-.6-.69-1.25-1.08-1.88Zm13.5,173.71c-.86-.46-1.79-.86-2.58-1.39-9.22-6.26-14.47-14.59-16.78-24.28-3.01-12.66-3.07-25.32,1.47-37.76,1.08-2.95,3.08-5.65,4.75-8.43,.36-.59,1.13-1,1.72-1.5,.18,.1,.35,.21,.53,.31-.16,.42-.21,.91-.49,1.26-5.21,6.57-7.15,14.03-7.87,21.75-.94,10.08-.43,20.08,3.46,29.77,2.89,7.2,7.79,13.21,14.69,18.05,.66,.47,1.18,1.09,1.76,1.64-.22,.19-.44,.38-.66,.57Zm12.68-68.76c-.21,1.79-.42,3.58-.65,5.37-2.99,24.25,12.04,45.71,36.89,54.16,.93,.32,1.79,.8,2.69,1.2-.13,.27-.26,.54-.4,.81-1.07-.25-2.19-.4-3.22-.75-15.5-5.27-26.42-14.58-32.99-27.58-5.13-10.14-6.23-20.73-4.02-31.58,.13-.63,.6-1.22,.92-1.82,.26,.07,.52,.13,.78,.2ZM31.68,192.91c1.15-.49,2.27-1.02,3.44-1.47,10.02-3.86,19.11-8.89,26.68-15.74,10.19-9.23,15.92-20.04,15.57-32.93-.02-.8,.18-1.61,.28-2.42,.32-.02,.64-.03,.96-.05,.14,.8,.39,1.6,.41,2.4,.42,14.18-6.13,25.85-17.79,35.64-7.63,6.41-16.55,11.19-26.37,14.77-.88,.32-1.86,.45-2.79,.67-.13-.3-.26-.59-.4-.89Zm66.85-33.21c1.73,1.73,2.26,3.9,2.62,6.08,.68,4.12-.33,8.06-2.29,11.78-7.69,14.55-18.87,26.54-35.27,34.64-.95,.47-2.03,.77-3.05,1.14-.17-.24-.33-.48-.5-.72,.75-.49,1.45-1.07,2.26-1.47,15.32-7.58,26.11-18.68,33.87-32.05,3.36-5.79,5.02-11.8,1.7-18.11-.17-.32-.02-.77-.02-1.16,.23-.05,.46-.1,.69-.15Zm166.61,44.98c-1.16,0-2.33,.1-3.47-.02-11.08-1.17-20.84-5.05-29.62-10.79-10.25-6.71-17.98-15-21.48-25.81-.29-.91-.25-1.9,0-2.94,8.91,22.58,27.72,34.81,54.63,38.79-.02,.25-.05,.51-.07,.76Zm-2.65-23.82c-9.21,3.47-28.57-6.12-35.12-16.81-5.53-9-7.2-26.09-2.44-28.91-.05,.73-.02,1.25-.13,1.73-1.48,6.65-1.33,13.25,.99,19.74,4.62,12.9,15.05,20.37,30.27,23.26,2.12,.4,4.29,.66,6.43,.99Zm-227.65,25.98c.85-.42,1.67-.89,2.55-1.24,7.1-2.8,13.98-5.89,20.3-9.87,8.26-5.21,14.3-11.8,17.8-20.06,.31-.73,.78-1.4,1.17-2.1,.27,.06,.54,.11,.81,.17-.1,.71-.08,1.46-.33,2.14-2.62,6.99-7.22,12.89-13.61,17.8-7.74,5.95-16.71,10.15-26.31,13.45-.64,.22-1.37,.27-2.06,.39-.11-.23-.22-.45-.32-.68Zm236.25,3.64c-2.59,2.9-18.22,1.61-28.07-1.76-11.18-3.83-24.48-13.12-23.92-17.4,13.52,14.05,30.63,20.49,51.99,19.16Zm-158.33,9.76c.63-.66,1.21-1.36,1.9-1.98,5.21-4.71,9.42-9.93,11.56-16.22,1.51-4.45,1.76-8.92,.52-13.45-.2-.75-.21-1.53-.3-2.3l.7-.18c.37,.68,.86,1.34,1.09,2.05,2.09,6.52,.96,12.8-2.23,18.86-2.45,4.66-5.94,8.73-10.22,12.29-.72,.6-1.65,1-2.49,1.49-.18-.18-.35-.37-.53-.55Zm-9.98-34.08c1.35,5.14-17.67,28.35-22.52,27.77,2.39-2.28,4.69-4.32,6.8-6.5,2.1-2.17,4.1-4.43,5.95-6.76,1.89-2.38,3.61-4.87,5.29-7.36,1.58-2.34,3-4.76,4.49-7.15Zm60.02-61.74c-1.22,3.24-3.8,5.15-7.19,6.31-6.01,2.05-11.44,1.07-16.23-2.55-.56-.42-.81-1.14-.94-2.02,8.92,6.34,16.82,5.22,24.36-1.74Z"/>
  </g>
</svg>