<?xml version="1.0" encoding="UTF-8"?>
<svg id="Layer_2" data-name="Layer 2" xmlns="http://www.w3.org/2000/svg" viewBox="0 0 294.96 295.58">
  <g id="Layer_1-2" data-name="Layer 1">
    <path d="M286.85,161.96c-3.85-2.66-7.71-5.31-11.53-7.99-24.59-17.27-42.97-37.55-52.57-61.93-5.68-14.43-10.72-29-16.21-43.47-3.81-10.06-7.87-20.08-15.61-28.95C180.29,7.43,165.54,.45,145.81,0c-6.36-.06-12.45,.79-18.33,2.5-15.11,4.4-24.8,12.93-31.61,23.55-5.83,9.09-9.15,18.83-12.79,28.49-6.35,16.86-12.43,33.78-19.34,50.51-9,21.82-24.73,40.56-47.71,55.75-2.54,1.68-4.77,3.63-7.09,5.48C.09,173.37-2,181.54,1.83,190.75c3.22,7.75,9.19,14.31,15.35,20.85,5.76,6.11,11.7,12.2,16.5,18.73,7.17,9.75,7.58,19.74-.62,29.58-2.26,2.7-3.66,5.83-5.17,8.84-.86,1.71-1.44,3.56-1.65,5.38-.71,6.12,3.53,9.64,11.99,10.47,3.59,.35,7.09,1.19,10.68,1.55,4.5,.45,9.07,.94,13.58,.82,2.97-.08,5.84-.57,8.87,0,2.01,.37,4.25,.48,6.29,.24,3.71-.44,6.38,.01,9.24,2.29,4.67,3.72,11.27,4.95,17.9,5.65,7.77,.82,15.44,.85,22.23-2.71,1.86-.98,3.68-1.21,5.86-1.24,4.24-.07,7.94,.52,12.03,1.85,10.58,3.44,21.43,2.88,31.8-1.19,.97-.38,2.18-.48,3.3-.54,2.52-.14,5.06-.18,7.59-.24,1.15-.03,2.34-.16,3.44,0,5.91,.89,11.64,.95,17.08-1.41,.63-.27,1.57-.25,2.34-.19,5.91,.4,11.21-.78,16.17-3.19,1.14-.55,2.88-.8,4.24-.65,9.14,1.05,18.13,.81,26.85-1.6,4.7-1.3,8.43-3.46,8.83-7.62,.31-3.19-1.72-5.79-4.45-7.95-6-4.75-8.96-10.51-10.3-16.78-2.07-9.65,.37-18.93,6.52-27.35,6.67-9.15,14.54-17.81,21.72-26.76,4.39-5.47,9.05-10.88,12.54-16.66,4.62-7.65,2.5-13.26-5.7-18.93ZM31.76,270.52c2.54-3.64,5.08-7.28,7.7-11.03,0,0,.01,.01,.02,.02,0-.01,.02-.03,.03-.04,.03-.07,.06-.13,.11-.19,.01-.02,.04-.03,.06-.05,.23-.32,.48-.64,.78-.94,.05-.05,.09-.1,.14-.14,.01-.01,.02-.02,.04-.04,.02-.02,.04-.04,.05-.07,.54-1.38,1.1-2.76,1.68-4.14,.28-.72,.63-1.43,.95-2.19,.66-1.59,1.15-3.21,1.8-4.81,.03-.08,.07-.17,.11-.25v-2.58c-.08-.75-.18-1.51-.24-2.27-.56-1.74-1.09-3.49-1.76-5.2-2.66-6.75-7.5-12.65-12.74-18.41-6.29-6.93-12.61-13.86-18.45-21-3.42-4.19-4.97-8.99-5.24-13.97-.14-2.64,.61-3.29,4.08-2.84,.25,.03,.5,.07,.75,.11,.37-.04,.77-.04,1.2,.01,2.09,.25,4.29,1.07,6.29,1.62,2.14,.59,3.87,1.42,5.64,2.49,2.1,1.26,3.8,2.8,5.02,4.55,.69,.43,1.26,1.01,1.66,1.67,1.02,1.67,2.43,3.17,3.32,4.9,.5,.97,.91,1.98,1.31,2.98,.2,.19,.37,.43,.48,.71,.19,.49,.4,.97,.62,1.44,.1,.08,.21,.16,.3,.25,4.62,4.67,7.39,10.15,9.72,15.65,1.43,3.36,3.36,6.67,4.7,10.07,.61,1.04,1.02,2.12,1.33,3.25,.8,2.88,.96,5.52,.65,8.4,.21,.99,.1,2.02-.36,2.95,.03,2.11-.01,4.23-.65,6.28-.53,1.72-1.39,3.37-2.26,5.02-.31,1.41-1.13,2.71-1.72,4.1-.12,.29-.32,.56-.56,.79-.97,1.97-1.98,3.92-3.35,5.76-.4,.53-.96,.84-1.56,.97-3.27,2.03-7,4.35-10.73,6.67-.3-.16-.6-.32-.9-.48Zm226.06-.43c1.28,.88,2.49,1.85,3.46,2.92,2.86,3.14,1.8,5.8-3.03,6.92-9.79,2.26-19.12,1.32-27.45-3.22-6.14-3.35-10.15-8.1-13.69-13.04-7.02-9.83-11.29-20.43-15.43-31.06-.23-.59-.48-1.17-.82-1.98-.02,10.4,13.06,37.7,21.99,46.12l-.54,.43c-2.66-2.06-5.6-3.96-7.93-6.21-5.2-5-8.38-10.81-10.94-16.79-5.77-13.47-9.62-27.27-11.11-41.36-2.35-22.15-4.18-44.34-6.24-66.51-.12-1.29-.35-2.58-.53-3.87h-.77c0,12.22-.47,24.45,.12,36.64,.71,14.71,1.95,29.42,3.62,44.09,1.4,12.27,4.41,24.38,10.4,35.95,3.96,7.64,9.04,14.78,17.91,19.95,2.43,1.42,5.11,2.6,7.8,3.96-7.59,2.76-15.11,2.79-22.84,.38,.54,.91,1.55,2.11,1.3,2.28-.95,.65-2.39,1.43-3.51,1.33-3.38-.3-6.98-.55-9.97-1.63-6.55-2.37-11.13-6.42-14.5-11.24-.78-1.12-1.56-2.23-2.55-3.27,2.03,5.39,5.05,10.38,10.29,14.57-4.25,.46-6.66-.3-8.17-3.52-2.36-5.04-4.58-10.17-6-15.4-3.35-12.3-4.81-24.81-5.04-37.33-.52-28.77-.56-57.55-.79-86.33-.02-2.48,0-4.95-.33-7.44-.72,9.2-1.78,18.39-2.09,27.6-.78,23.67-1.66,47.35-1.62,71.03,.02,14.02,1.63,28.05,6.45,41.71,1.63,4.61,3.84,9.06,8.51,12.52-5.79,3.89-22.45,3.3-29.7,.2,7.36-5.68,7.91-12.86,7.93-20.15,.02-4.88,0-9.76,0-14.65-.25,0-.51,0-.76,0-.31,5.11-.41,10.23-1,15.32-.56,4.84-2.43,9.45-6.16,13.52-2.85,3.11-5,3.96-9.59,3.87,.93-1.39,2.16-2.63,2.62-4.01,1.61-4.85,4.04-9.73,4.21-14.64,.49-14.09,.4-28.21-.17-42.31-.41-10.31-1.93-20.59-2.96-30.88-.03-.33-.09-.66-.46-.98,0,1.91,0,3.82,0,5.73-.06,18.66,.1,37.32-.29,55.97-.18,8.59-1.19,17.19-5.31,25.36-.9,1.79-2.14,3.49-3.28,5.21-2.09,3.14-5.55,4.93-10.13,5.37-11.24,1.08-21.39-.95-30.57-6.15,11.84-6.99,15.23-16.91,16.81-27.07,1.53-9.82,2.25-19.77,2.06-29.65-.44-22.23-1.66-44.46-2.56-66.69-.01-.34-.05-.68-.45-1.03-.19,4.23-.49,8.46-.55,12.7-.26,18.93-.33,37.87-.7,56.81-.22,11.22-1.17,22.42-4.83,33.37-1.81,5.42-4.14,10.71-8.33,15.41-2.06,2.32-4.65,4.06-9.28,4.05,8.95-6.18,13.1-13.89,15.23-21.46-2.65,3.7-5.41,8.38-9.18,12.54-2.39,2.64-6.23,4.56-9.54,6.69-.76,.49-2.05,.73-3.07,.7-.99-.03-2.17-.41-2.83-.94-.27-.21,.5-1.3,1.03-1.88,.94-1.03,2.04-1.98,2.91-3.06-14.37,9.65-16.58,7.65-22.81,7.39,0-.12-.07-.31,0-.35,13.99-7.27,20.61-17.94,24.39-29.88,3.03-9.56,3.89-19.32,4.29-29.08,.31-7.77,.06-15.55-.34-23.33-.21,3.59-.36,7.18-.65,10.76-1.19,14.57-2.59,29.14-8.34,43.18-2.25,5.48-5.47,10.74-8.76,15.97,3.36-6.89,5.16-13.95,5.32-21.26-.65,2.46-1.18,4.95-1.99,7.39-.82,2.46-1.81,4.9-2.93,7.3-2.45,5.25-5.93,10.07-11.22,14.05-4.25,3.19-9.69,4.1-14.3,2.3-3.14-1.23-5.34-2.48-1.17-5.17,1.88-1.21,3.73-2.46,5.74-3.55,7.63-4.11,12.21-9.76,15.18-16.3,5.66-12.45,6.84-25.29,6.13-38.3-.54-9.98-2.84-19.69-8.92-28.69-1.89-2.8-4.32-5.4-6.57-8.17,9.61-1.2,13.91-7.01,18.01-12.75,7.41-10.38,11.77-21.6,15.51-32.97,5.79-17.62,8.73-35.56,10.54-53.62,.16-1.56,.31-3.13,.32-4.7-4.71,22.84-10.09,45.58-19.79,67.57-3.21,7.29-7.52,14.31-11.65,21.35-1.38,2.35-3.62,4.46-5.75,6.52-2.12,2.05-4.89,3.46-8.46,3.93-2.89,.38-5.39,.05-7.79-1.26-5-2.73-10.23-5.2-16.57-5.66-3.13-.23-6.32-.04-9.19-.04,1.91-1.33,4.22-3.1,6.73-4.67,25.91-16.18,42.18-37,51.69-60.93,6.75-16.98,12.86-34.11,19.28-51.17,3.59-9.53,7.25-19.05,14.01-27.68,6.38-8.15,15.04-14.39,27.32-17.31,17.81-4.23,37.49,.76,49.84,12.46,7.73,7.32,12.18,15.84,15.61,24.63,5.69,14.58,11.19,29.2,16.32,43.89,10.11,28.92,30.73,52.87,60.23,72.73,1.02,.69,2.02,1.4,3.38,2.34-2.13,.25-3.95,.42-5.75,.69-6.4,.99-12.24,2.98-17.29,6.06-15.32,9.35-26.88,20.94-30.73,35.49-6.24,23.61,2.94,44.01,26.57,60.54,2.41,1.69,5.06,3.19,7.5,4.86Zm18.86-77.43c-7.83,8.81-15.31,17.8-22.78,26.79-1.79,2.15-3,4.58-4.46,6.88-.01,.08-.06,.15-.12,.21-.09,.18-.19,.35-.3,.52-.92,1.85-1.75,3.75-2.67,5.6-.03,.36-.11,.7-.22,1.04-.06,.44-.23,.91-.37,1.39-1.66,5.63-1.65,11.31-.63,17.01,.11,.63,.09,1.27-.18,1.95-3.37-3-4.77-6.54-5.04-10.29-.42-5.76-.12-11.5,1.61-17.13,0-.1,.01-.19,.02-.29,0,0,0-.02,0-.03,0-.21,.03-.43,.08-.64,.02-.06,.05-.12,.07-.18,0-.17,.02-.34,.08-.52,.15-.44,.31-.9,.47-1.37,.16-.81,.27-1.63,.36-2.45,.08-.67,.23-1.36,.47-2.01,.02-.36,.08-.73,.21-1.07-.09-7.01,5.67-12.91,9.67-18.96,2.35-3.55,4.86-7.44,8.32-10.62,1.63-1.91,3.61-3.63,6.07-5.08,.09-.1,.17-.2,.27-.3,.15-.15,.32-.26,.52-.36,.01-.01,.02-.02,.03-.04,.09-.09,.21-.16,.33-.23,.13-.14,.28-.27,.45-.37,.01-.01,.02-.03,.04-.04,.24-.24,.51-.45,.79-.67,.15-.11,.27-.23,.42-.32,.57-.56,1.39-.52,3.04,.01,1.28,.41,2.7,1.12,3.35,1.98,2.35,3.12,3.14,6.16,.09,9.59Zm-126.34-123.42c.12,5.13-.7,10.17-3.3,14.94-.92,1.69-2.14,3.38-3.7,4.77-3.21,2.86-7.39,2.72-10.54-.17-2.98-2.74-4.37-6-5.25-9.41-1.71-6.62-2.25-13.25,.2-19.82,.65-1.74,1.82-3.49,3.31-4.9,3.75-3.56,9.72-3.65,13.88-.35,3.96,3.13,4.84,7.15,5.38,11.23,.16,1.23,.02,2.47,.02,3.71Zm33.35-13.76c.65,3.8,1.45,7.58,1.92,11.39,2.48,19.86,4.77,39.73,7.34,59.59,2.61,20.19,5.28,40.38,8.31,60.54,1.89,12.57,4.51,25.07,6.8,37.61,.07,.4,.07,.8-.15,1.23-7.23-28.03-14.78-56.07-18.24-84.5-3.47-28.49-4.86-57.12-7.16-85.68,.39-.06,.78-.12,1.18-.18Zm-5.92,185.39c-5.81-48.82-8.17-97.71-6.48-146.74,.53,4.01,1.34,8.01,1.53,12.02,1.12,22.76,2.26,45.51,3.07,68.28,.74,20.7,1.06,41.41,1.59,62.12,.04,1.44,.19,2.88,.29,4.32ZM135.25,32.46c-.21,3.47-1.29,6.72-3.71,9.63-1.09,1.31-2.55,2.56-4.22,3.44-3.79,2-8.35,.95-10.36-2.17-3.34-5.19-.6-14.17,5.42-17.78,4.74-2.84,10.11-1.69,11.9,2.64,.56,1.36,.66,2.82,.96,4.24Zm29.45,5.84c-.3,.98-.58,2.93-1.5,4.68-2.06,3.96-7.63,4.83-11.81,1.96-.93-.64-1.78-1.42-2.36-2.25-3.23-4.61-3.61-9.43-1.45-14.35,.95-2.15,2.87-3.83,5.97-4.07,2.76-.21,4.78,1.16,6.38,2.75,3.09,3.05,4.53,6.54,4.77,11.28Z"/>
  </g>
</svg>