<?xml version="1.0" encoding="UTF-8"?>
<svg id="Layer_2" data-name="Layer 2" xmlns="http://www.w3.org/2000/svg" viewBox="0 0 236.64 230.78">
  <g id="Layer_1-2" data-name="Layer 1">
    <path d="M231.05,204.27c-1.83-.78-3.93-1.11-5.94-1.52-1.43-.29-2.57-.54-2.49-2.25,.04-.75-.58-1.57-1.03-2.29-1.59-2.57-4.16-4.17-7.05-5.4-4.29-1.82-6.91-4.81-7.81-8.93-.62-2.8-1.1-5.63-1.5-8.47-1.17-8.37-3.86-16.21-9.8-22.97-2.52-2.87-4.89-5.85-7.36-8.76-2.9-3.41-4.99-7.17-5.62-11.43-.53-3.55-.95-7.14-1.06-10.72-.33-10.17-.75-20.36-3.52-30.25-2.42-8.63-5.41-17.14-8.44-25.63-2.75-7.72-5.08-15.45-5.85-23.58-.46-4.83-1.21-9.75-2.78-14.37C152.98,4.7,128.27-4.55,105.72,2.11c-13.2,3.9-21.35,12.47-26.13,23.82-2.49,5.91-3.6,12.11-4.71,18.32-1.81,10.05-5.21,19.73-8.74,29.37-3.26,8.91-6.19,17.89-7.58,27.2-1.11,7.45-1.97,14.93-3.22,22.35-1.3,7.76-4.46,14.8-10.98,20.4-1.99,1.71-3.71,3.67-5.5,5.56-4.77,5.01-9.04,10.33-10.12,17.01-.66,4.1-.76,8.27-.96,12.42-.31,6.29-2.75,11.34-9.65,14.04-1.14,.44-2.36,1.02-3.13,1.84-1.68,1.77-3.4,3.6-4.51,5.67-.63,1.16-1.18,1.92-2.49,2.39-1.28,.46-2.53,1.02-3.7,1.66-2.11,1.16-3.6,2.77-4.09,5.02-.84,3.88,1.2,6.97,3.46,9.99,.2,.27,.77,.32,1.18,.45,3.04,.94,5.92,.04,8.89-.44,2.23-.36,4.62-.52,6.83-.2,2.25,.32,4.43,1.22,6.52,2.09,3.46,1.45,6.93,2.65,10.85,2.29,.43-.04,1.04,.14,1.34,.42,2.37,2.21,5.48,2.59,8.64,2.83,1.31,.1,2.66,.38,3.91,.19,.84-.13,1.65-.36,2.47-.6,2.45-1.83,5.78-.54,8.69-.09,.9,.14,2.03,.32,3.13,.61,2.18-.04,4.37-.06,6.54,.14,2.79,.25,5.34,.98,8.17,.98,4.5,0,9.15-.27,13.67,.12,.96,.03,1.93,.05,2.86-.01,1.71-.3,3.47-.43,5.24-.49,6.5-.22,13.03-.29,19.54-.3,.3-.07,.6-.12,.92-.14,.08,0,.17,0,.25,0,.27-.1,.58-.16,.94-.16,3.28-.03,6.65-.28,9.55,.6,.05,0,.1,0,.15,.02,3.14,.5,6.26,1.13,9.36,1.78,10.91,2.28,21.66,2.17,32.34-1.18,2.03-.64,4.42-.49,6.64-.45,2.82,.06,5.64,.65,8.43,.53,5.8-.24,10.85-2.26,15.02-5.93,.4-.35,.8-.64,1.21-.83,.33-.3,.79-.51,1.38-.56,1.87-.5,4.18-.22,6.26-.32,4.02-.21,7.97-.88,12.01-.63,1.78-.49,3.68-.62,5.59-.7,1.24-.05,2-.44,2.64-1.25,3.52-4.42,1.69-11.31-3.78-13.65Zm-.59,9.6c-2.05,.21-4.11,.35-6.14,.66-2.05,.31-3.72,1.24-5,2.78-.34,.41-1.42,.72-1.98,.56-5.43-1.54-7.89-5.47-6.52-10.4,.51-1.83,1.3-3.59,1.97-5.38-.17-.08-.34-.16-.51-.24-1.41,2.08-2.81,4.16-4.28,6.33-5.74-2.79-10.14-6.45-10.03-13.06,.06-3.53-.2-7.07-.57-10.59-.38-3.58-2.34-6.65-5.53-8.71-4.32-2.78-8.94-5.19-13.55-7.58-2.55-1.32-5.28-2.39-8.01-3.41-10.26-3.8-16.04-10.86-18.77-20.2-2.89-9.87-3.66-19.93-3.21-30.06,.58-13.24,1.64-26.46,2-39.7,.2-7.32-.6-14.66-.94-21.98-.15,0-.31,.01-.46,.02,0,1.51-.05,3.02,0,4.53,.51,13.93,.18,27.85-1.15,41.74-1.06,11.02-2.2,22.07-1.16,33.13,.53,5.67,1.52,11.37,3.07,16.89,2.46,8.76,8.73,14.79,18.17,18.31,6.02,2.25,11.91,4.8,17.73,7.44,6.98,3.17,10.5,8.32,10.26,15.4-.06,1.79,.09,3.59,.12,5.39,.06,3.56,.84,6.9,3.59,9.93,.25,.2,.49,.41,.73,.63,.45,.3,.85,.66,1.22,1.05,.62,.5,1.25,1.01,1.83,1.53,.36,.16,.75,.36,1.05,.62,.69,.6,.99,1.25,1.03,2.01,.62,.19,1.25,.42,1.89,.7-3.92,1.51-5.06,4.64-7.22,7.03-2.23,2.47-5.72,3.16-9.14,3.51-1.71,.18-3.47,.03-5.21,.03-.06-.21-.13-.41-.19-.62,1.2-.6,2.38-1.25,3.61-1.8,1.11-.49,1.94-1.06,1.66-2.31-.3-1.31-1.4-1.65-2.69-1.64-2.52,0-4.66,.99-6.53,2.36-5.23,3.83-11.29,5.73-17.94,6.47-7.19,.8-14.18,.02-21.12-1.6-5.25-1.23-10.55-2.3-16.03-1.85-2.48,.21-4.93,.73-7.64,1.14,3.53-2.39,7-4.35,11.05-5.44,3.04-.82,5.82,.11,8.66,.87,4.62,1.24,9.19,2.86,13.93,3.5,6.06,.82,11.76-.99,17.05-3.73-2.81,.54-5.61,1.15-8.43,1.62-5.86,.97-11.35-.27-16.76-2.19-3.21-1.14-6.41-2.41-9.75-3.08-5.04-1.01-9.71,.46-14.09,2.67-3.82,1.93-7.46,4.22-11.45,5.81-5.11,2.04-10.42,1.32-16.05-.21,2.56-1.56,4.9-2.54,7.64-2.6,1.64-.04,3.28,.05,4.92-.02,1.64-.07,3.16-.47,4.41-2.04h-9.52c8.14-6.18,17.13-9.76,27.33-10.98-.04-.2-.09-.4-.13-.6-3.15,.32-6.33,.49-9.44,.99-8.19,1.3-14.88,5.3-21.27,9.75-1.49,1.04-3.02,2.03-4.49,3.09-3.93,2.85-8.36,3.77-13.29,2.76-3.22-.66-6.42-1.38-9.92-2.13,3.48-1.95,6.94-2.81,10.78-2.41,1.81,.19,3.63,.36,5.44,.52,3.07,.26,5.6-.75,7.55-2.79,2.39-2.5,4.63-5.12,6.93-7.69-.11-.11-.22-.22-.33-.33-1.76,1.3-3.73,2.42-5.22,3.92-3.36,3.37-7.29,4.72-12.41,4.32-5.61-.44-6.08-.05-14.25,3.76-.09-.12-.19-.23-.28-.35,2.86-1.73,5.6-3.66,8.6-5.16,6.1-3.04,11.01-7.07,14.42-12.52,.29-.47,.5-.97,.58-1.12-3.67,3.22-7.59,6.64-11.5,10.07-.18-.14-.36-.28-.54-.41,.22-.35,.41-.71,.66-1.04,8.61-11.58,13.64-24.26,14.22-38.17,.47-11.39,.48-22.79,.69-34.18,0-.44-.06-.88-.43-1.36-.05,.49-.13,.99-.15,1.48-.42,8.81-.62,17.63-1.29,26.42-1.16,15.27-5.76,29.59-15.88,42.21-4.72,5.89-10.26,10.96-18.21,13.4-4.46,1.37-8.99,2-13.65,1.02,1.14-1.31,2.51-2.41,3.2-3.78,3.74-7.45,10.85-12.83,15.54-19.68-.14-.1-.28-.19-.43-.29-4.85,5-9.69,10-14.55,14.99-1.2,1.23-2.32,2.54-3.69,3.6-3.99,3.08-8.47,3.74-13.34,1.76-3.47-1.41-6.94-2.83-10.79-4.4,1.28-1.39,2.71-2.94,4.14-4.49l-.09-.31c-2.19,1.02-4.52,1.86-6.54,3.09-2.86,1.75-5.87,2.98-9.27,3.56-1.34,.23-2.1-.13-2.66-1.24-1.69-3.4,.06-6,4.87-6.68-.7,.71-1.31,1.18-1.7,1.76-.33,.5-.76,1.44-.54,1.63,.59,.51,1.67,1.15,2.26,.97,1.39-.42,2.75-1.13,3.86-2,4.12-3.22,8.55-3.43,13.32-1.4,2,.85,3.27,2.18,3.79,4.14,.14,.51,.85,.9,1.29,1.34,.51-.51,1.49-1.08,1.43-1.53-.17-1.28-.45-2.71-1.24-3.75-3.82-5.04-12.92-6.02-18.39-2.11-.58-2.89,.54-5.81,3.14-7.5,1.77-1.15,3.75-2.04,5.59-3.13,1.35-.8,2.61-1.72,4-2.65,1.06,1.65,1.83,3.6,4.57,4.56-.52-.91-.81-1.43-1.11-1.94-1.45-2.43-1.62-4.72-.64-7.52,1.33-3.8,1.67-7.89,2.36-11.87,1.49-8.62,6.08-15.26,15.28-18.87,6.13-2.41,12.5-2.28,18.9-1.01,1.7,.34,3.38,.79,5.24,1.53-2.73,.9-5.46,1.8-8.1,2.67,7.51,.18,13.73-3.34,15.52-9.17,1.66-5.39,3.02-10.9,3.78-16.44,3.14-23.11,3.92-46.35,3.85-69.61,0-1.01,0-2.02-.32-3.04-.37,6.19-.76,12.39-1.12,18.58-1.11,19.01-2.71,37.98-6.57,56.73-.84,4.11-2.16,8.19-3.72,12.13-1.36,3.45-2.6,3.82-6.62,3.46-6.91-.61-13.73-.28-20.3,1.93-6.8,2.29-11.85,6.27-14.71,12.32-.14,.3-.32,.59-.48,.88-.2-.07-.4-.14-.61-.21,1.18-2.65,2.13-5.41,3.6-7.93,2.87-4.93,7.59-8.49,12.08-12.17,5.25-4.29,10.59-8.49,14.53-13.87,5.3-7.24,8-15.33,9.72-23.7,1.48-7.17,2.62-14.39,3.9-21.59,.07-.42,0-.85-.22-1.3-1.56,6.51-3.06,13.03-4.69,19.52-2.6,10.31-6.93,19.91-14.82,28.11,.82-2.58,1.9-5.05,2.35-7.6,1.24-7.03,2.38-14.08,3.24-21.15,1.17-9.58,3.55-18.9,7.03-28,5.24-13.72,9.16-27.71,11.75-42.04,1.28-7.1,4.34-13.71,9.57-19.33,9.66-10.38,25.15-14.42,39.62-10.3,14.28,4.06,22.24,13.26,25.59,25.81,1.27,4.77,1.58,9.75,2.14,14.65,.92,7.93,3.71,15.42,6.48,22.93,3.2,8.67,6.41,17.34,8.25,26.36,1.81,8.88,2.2,17.84,2.5,26.82,.21,6.3,.69,12.61,3.87,18.38,1.71,3.09,3.97,5.93,5.77,8.57-5.14-3.45-9.8-7.8-12.98-13.35-4.29-7.49-6.54-15.51-8-23.75-.32-1.82-.57-3.66-1.19-5.47,.16,2.89,.22,5.78,.52,8.66,.69,6.72,2.2,13.29,4.85,19.64,3.16,7.57,8.73,13.42,15.87,18.23,2.21,1.49,4.21,3.22,6.36,4.77,4.82,3.49,7.14,8.13,8.05,13.48,.77,4.54,1.51,9.09,2.59,13.58,1.25,5.21,4.5,9.19,10.09,11.47,.91,.37,1.78,.85,2.59,1.37,2.44,1.55,2.94,2.93,2.17,5.53-.38,1.29-.84,2.61-.91,3.93-.15,2.88,2.72,4.95,5.71,4-1.65-1.46-2.35-3.15-1.68-5.15,2.24,.44,4.5,.86,6.75,1.33,3.68,.77,4.83,2.46,3.99,5.81ZM118.76,80.8c-2.31,1.01-4.42,2.11-6.67,2.87-2.18,.74-3.73,.14-4.59-1.79-.72-1.64-1.28-3.44-1.36-5.18-.39-8.2,1.56-16.03,5.39-23.47,.8-1.54,2.03-2.99,3.37-4.21,2.24-2.04,5.13-1.99,7.35,.06,1.12,1.03,2.12,2.26,2.79,3.56,4.28,8.23,6.4,16.85,5.25,25.94-.69,5.43-3.58,6.67-8.85,3.91-1.02-.53-1.94-1.22-2.67-1.69Zm30.61,111.32c-3.07,2.85-6.86,4.24-11.19,4.35-12.5,.31-25.22-7.78-29.83-18.84-2.53-6.07-3.46-12.41-3.67-18.81-.21-6.51-.02-13.02,0-19.54,0-.25,.06-.5,.45-.76,.08,.92,.17,1.83,.24,2.75,.51,6.94,.75,13.91,1.57,20.82,1.01,8.51,3.85,16.48,10.71,22.87,3.46,3.23,7.38,5.94,11.92,7.9,5.93,2.56,11.88,2.61,17.83,.07,.66-.28,1.32-.54,1.98-.81ZM99.29,38.49c.13-3.33,1.6-6.09,3.75-8.57,1.75-2.01,4.17-1.78,5.4,.5,2.63,4.85,1.06,11.38-2.44,15.01-1.71,1.78-4.15,1.44-5.1-.79-.83-1.95-1.1-4.1-1.62-6.15Zm27.97-2.25c.51-1.83,.78-3.75,1.58-5.48,1.25-2.69,3.84-2.88,5.79-.56,3.73,4.45,3.71,9.27,1.43,14.16-1.3,2.78-3.98,2.87-5.89,.4-1.63-2.1-2.66-5.45-2.91-8.52Zm2.47,133.2c1.15,1.19,2.27,2.4,3.46,3.55,5.37,5.22,11.9,6.27,19.28,4.17,3.52-1.01,6.98-2.24,10.57-3.01,3.71-.79,7.48-.54,11.02,1.11-.54-.08-1.07-.18-1.61-.24-.62-.06-1.25-.09-1.88-.12-4.51-.26-8.53,1.1-12.38,3.01-3.45,1.71-7.1,2.79-11.09,2.98-4.01,.19-7.58-.65-10.68-2.99-3.03-2.29-5.22-5.1-6.68-8.47Z"/>
  </g>
</svg>