<?xml version="1.0" encoding="UTF-8"?>
<svg id="Layer_2" data-name="Layer 2" xmlns="http://www.w3.org/2000/svg" viewBox="0 0 269.04 262.15">
  <g id="Layer_1-2" data-name="Layer 1">
    <path d="M210.05,250.98c-2.97-.25-6.08-.56-9.19-.74-.65-.04-1.56,.19-1.97,.61-6.24,6.33-14.08,9.8-23.21,10.91-7.92,.97-15.7,.08-23.39-1.73-12.27-2.88-23.42-8.08-34.29-13.86-2.59-1.38-5.26-2.67-7.74-4.2-8.8-5.42-18.37-6.25-28.3-3.73-6.05,1.54-11.88,3.76-17.83,5.64-8.4,2.66-16.96,3.89-25.87,2.83-8.84-1.05-15.69-4.86-20.48-11.75-.84-1.2-1.73-2.4-2.35-3.7-2.39-4.99-5.62-9.25-10.07-13.04-6.88-5.85-6.96-13.36-1.17-20.13,3.3-3.87,7.51-6.79,11.79-9.65,2.77-1.84,5.65-3.6,8.12-5.74,4.91-4.25,7.35-9.47,6-15.77-.73-3.4-3.01-5.9-6.2-7.56-2.91-1.51-6.04-2.66-9.08-3.96-1.03-.44-2.1-.81-3.13-1.25-9.02-3.78-8.89-11.36-4.95-16.89,1.88-2.64,4.45-4.73,7.59-5.93,4.8-1.84,9.73-3.4,14.64-4.99,4.46-1.45,9.08-2.54,13.43-4.21,11-4.21,18.64-11.81,24.44-21.13,5.48-8.8,8.65-18.35,10.46-28.26,1.56-8.56,2.61-17.21,4.04-25.79,1.85-11.16,5.18-21.84,13.13-30.81C103.4,6.05,115,.65,129.19,.05c21.88-.93,39.55,11.32,47.39,29.43,3.32,7.67,5.01,15.71,6.13,23.85,1.93,13.96,3.61,27.96,8.32,41.46,4.63,13.25,11.74,25.12,23.68,34.03,4.43,3.31,9.54,5.88,14.4,8.7,3.69,2.15,7.63,3.96,11.19,6.28,3.34,2.17,5.73,5.13,6.44,9.02,.45,2.47-.18,4.73-1.43,6.83-1.3,2.17-2.91,4.18-4.18,6.36-.98,1.68-2,3.45-2.37,5.29-.78,3.96,2.32,7.4,7.13,8.23,2.71,.46,5.5,.57,8.18,1.14,8.86,1.88,14.45,8.38,14.93,17.08,.43,7.88-2.69,14.52-8.87,19.79-4.18,3.56-7.41,7.51-9.79,12.25-6.24,12.45-17.23,18.92-31.87,20.51-2.74,.3-5.5,.45-8.42,.68Zm1.86-113.81c.12-.15,.24-.3,.36-.45-.22-.16-.43-.34-.66-.48-7.48-4.68-13.35-10.75-17.95-17.82-9.9-15.22-14.13-32.09-16.66-49.4-1.24-8.45-2.04-16.95-3.34-25.4-1.29-8.42-4.13-16.4-9.69-23.35-9.84-12.28-23.19-17.36-39.51-15.11-13.65,1.88-22.93,9.51-28.98,20.58-4.33,7.91-5.51,16.55-6.59,25.2-.98,7.87-1.84,15.76-3.3,23.56-2.2,11.73-6.41,22.88-13.39,33.03-7.2,10.47-16.49,18.76-29.47,22.99-4.74,1.54-9.64,2.67-14.42,4.12-3.83,1.16-7.55,2.59-10.5,5.25-3.34,3.01-3.02,6.13,.84,8.54,.69,.43,1.45,.77,2.22,1.07,2.26,.89,4.58,1.66,6.79,2.63,5.03,2.2,8.57,5.67,9.87,10.72,1.81,7.02,.41,13.52-4.17,19.43-3.15,4.07-7.42,7.03-11.73,9.94-4.32,2.92-8.54,5.92-11.49,10.14-3,4.3-2.6,8.78,1.12,12.59,.68,.7,1.38,1.39,2.14,2.01,2.88,2.34,5,5.17,6.63,8.35,.97,1.89,2.1,3.71,3.32,5.48,3.65,5.26,8.81,8.39,15.62,9.29,9.06,1.2,17.83,0,26.46-2.52,2.34-.68,4.63-1.52,6.96-2.23,2.39-.73,4.79-1.45,7.22-2.06,2.37-.59,4.77-1.16,7.19-1.51,2.41-.35,4.86-.42,7.75-.64-10.7-1.67-20.12,.4-29.2,5.44,.54-.62,.86-1.02,1.22-1.39,.4-.41,.81-.81,1.26-1.18,7.32-5.98,15.87-8.25,25.53-6.85,11.27,1.64,21.6,5.46,30.88,11.57,1.18,.78,2.23,1.71,3.34,2.58-3.37-4.47-8.19-7.52-12.47-11.09-5.59-4.67-10.39-10.03-10.68-11.47,3.77,2.86,7.95,6.07,12.18,9.22,2.94,2.19,6.01,4.23,8.93,6.44,6.58,4.98,13.06,10.07,19.66,15.02,1.26,.94,2.85,1.67,4.42,2.08,8.27,2.14,16.65,3.43,25.25,1.78,4.79-.92,8.86-3.12,12.55-6-2.11-1.02-4.09-1.92-6.03-2.92-11.04-5.71-19.12-14.04-25.57-23.9-4.2-6.41-7.84-13.01-9.33-20.43-.48-2.4-.63-4.86-.94-7.29,.19-.02,.38-.05,.56-.07,.09,.31,.18,.62,.26,.93,2.75,10.3,8.04,19.47,15.41,27.54,14.54,15.92,32.69,24.61,55.95,22.25,11.47-1.17,20.74-5.72,26.48-15.26,2.89-4.81,6.35-9.11,10.77-12.9,5.53-4.74,8.05-10.82,7.58-17.86-.44-6.63-5.46-11.72-12.7-12.54-2.2-.25-4.44-.21-6.66-.28-5.32-.17-9.38-2.97-11.03-7.59-1.29-3.6-.63-7.08,.92-10.45,1.01-2.17,2.23-4.26,3.31-6.41,1.27-2.55,1.31-5.07-.86-7.23-1.04-1.04-2.28-2.05-3.64-2.64-3.41-1.47-6.86-2.97-10.46-3.94-12.47-3.38-21.57-10.51-28.29-20.49-8-11.89-12.77-24.91-16.16-38.42-.36-1.45-.7-2.9-1-4.36-.29-1.44-.52-2.89-.78-4.34,.34,.56,.52,1.13,.68,1.71,2.98,10.5,6.66,20.76,11.88,30.53,4.07,7.61,8.92,14.75,15.86,20.48,2.58,2.13,5.51,3.89,8.28,5.82Zm-96.58-16.67c.89,4.46,2.5,8.74,5.96,12.18,3.5,3.48,7.69,3.49,11.29,.11,2.45-2.3,3.98-5.1,5.03-8.11,3.93-11.24,4.1-22.59,.82-33.99-1.04-3.59-2.58-6.99-5.45-9.73-3.16-3.03-7.33-3.2-10.48-.19-1.59,1.52-2.97,3.35-3.96,5.25-3.59,6.95-4.46,14.43-4.69,23.84,.31,2.35,.65,6.53,1.47,10.63Zm7.81-73.27c-.59-4.25-1.76-8.32-4.95-11.64-3.03-3.14-6.91-3.39-10.03-.42-1.63,1.55-3.04,3.45-3.98,5.42-2.77,5.82-3.37,11.99-2.56,18.26,.45,3.46,1.43,6.82,3.78,9.66,3.78,4.57,8.88,4.54,12.68-.04,4.17-5.02,5.13-10.89,5.37-17.22-.08-1.17-.11-2.61-.31-4.02Zm32.09-.98c-.87-3.8-2.31-7.42-5.7-10.05-2.52-1.96-5.57-2.12-8.01-.09-1.56,1.3-2.89,2.95-3.91,4.65-2.17,3.63-2.92,7.67-3.1,11.75-.26,5.9,.44,11.68,4.26,16.71,3.73,4.9,9,4.89,12.81,.05,.77-.97,1.39-2.06,1.95-3.14,1.97-3.8,2.62-7.85,2.8-12.05-.35-2.61-.52-5.26-1.11-7.83Zm101.47,145.45c-2.54,.23-5.08,.6-7.63,.66-13.52,.31-25.13-4.24-35.32-12.06-12.59-9.66-21.97-21.65-29.51-34.9-2.26-3.97-4.27-8.07-6.39-12.11-.05,.28,.02,.53,.1,.78,3.75,11.37,9,22.12,15.8,32.24,5.35,7.97,11.4,15.42,19.57,21.2,11.04,7.81,23.35,10.49,36.96,7.23,2.3-.55,4.43-1.7,6.64-2.57-.07-.15-.14-.3-.21-.45Z"/>
  </g>
</svg>