<?xml version="1.0" encoding="UTF-8"?>
<svg id="Layer_2" data-name="Layer 2" xmlns="http://www.w3.org/2000/svg" viewBox="0 0 263.95 265.48">
  <defs>
    <style>
      .cls-1 {
        fill: #150713;
      }
    </style>
  </defs>
  <g id="Layer_1-2" data-name="Layer 1">
    <path class="cls-1" d="M65.28,151.19c-11.53,6.86-24.76,.05-29.05-9.93-3.46-8.05-1.34-18.09,6.23-24.3,14-11.48,22.16-26.32,27.51-43.04,3.56-11.1,6.74-22.33,11.47-33.05,4.79-10.86,11.16-20.65,20.53-28.26C119.61-1.71,141.49-3.96,161.77,6.5c14.94,7.7,24.76,19.91,31.24,34.94,3.84,8.89,5.89,18.25,7.34,27.76,1.46,9.61,1.92,19.38,4.63,28.79,1.32,4.6,3.02,9.04,5.67,13.1,2.51,3.84,6.09,6.22,10.53,7.29,4.49,1.08,8.67,2.66,11.75,6.24,9.01,10.51,3.11,26.79-10.71,29.65-5.42,1.12-10.52-.23-15.63-1.69q-3.48-.99-2.75,2.38c2.04,9.35,4.84,18.44,9.55,26.87,7.73,13.81,19.57,22.75,34.56,27.91,4.92,1.69,9.35,4.07,12.42,8.38,5.57,7.79,4.53,18.8-2.49,26.37-.77,.84-1.63,1.6-2.45,2.4-2.25,1.82-4.72,3.27-7.38,4.43-7.38,2.74-14.76,2.54-22.17,.1-2.91-.96-5.86-1.81-8.91-2.26-2.93-.43-4.44,.28-5.88,2.77-.63,1.09-1.25,2.19-1.88,3.28-7.7,13.33-28.66,13.45-36.47,1.83-1.19-1.78-2.48-1.86-4.16-.45-1.07,.9-2.02,1.93-3.05,2.87-9.41,8.64-26.46,7.94-33.98-4.05-.21-.34-.32-.81-.85-.94-6.56,8.87-15.67,10.87-26.06,9.23-5.55-.88-10.17-3.59-14.23-7.34-2.17-2.01-3.8-2.17-6.42-.76-.62,.33-1.2,.72-1.79,1.1-7.34,4.82-15.24,5.81-23.65,3.31-5.66-1.68-10.25-5.04-14.55-8.87-.98-.87-1.81-1.99-3.24-2.24-.6-.4-1.22-.17-1.84-.05-1.87,.35-3.72,.81-5.64,.93-6.74,.44-13-1.03-18.87-4.26-6.02-4.16-10.52-9.49-12.8-16.44-1.86-5.68-2.37-11.42-.18-17.16,3.87-10.12,16.13-14.58,24.91-10.11,4.25,2.17,8.18,1.08,11.94-1.24,8.85-5.45,14.96-13.2,19.32-22.38,4.05-8.52,6.45-17.53,7.94-26.79-.02-.17-.04-.33-.06-.5-.07,.1-.14,.19-.21,.29Zm-18.51,53.95c-.59-.02-.9,.33-1.15,.79-2.09,1.31-4.17,2.63-6.48,3.56-5.48,2.21-10.86,2.67-16.41-.1-5.49-2.74-12.67,.96-13.99,7-1.14,5.24,.39,9.99,3.08,14.48,.14,.25,.29,.49,.43,.74,3.95,5.86,9.42,9.19,16.65,9.53,.5,.02,1.37,.49,1.41-.64,.18-4.58,3-7.4,6.67-9.67,.03-.03,.09-.06,.09-.09,0-.07-.04-.14-.06-.21,.19-.02,.38-.04,.57-.06,3.09-1.37,6.15-2.77,8.94-4.69,8.72-5.99,14.51-14.23,18.78-23.63,5.14-11.32,7.63-23.26,8.41-35.57,.27-4.21,.32-8.45-.19-12.7-1.84,11.23-5.23,21.95-10.49,32.08-1.22,1.97-2.42,3.97-3.68,5.92-3.36,5.18-7.9,9.29-12.59,13.25h0Zm178.24-61.29c3.14-2.47,4.38-5.71,3.55-9.52-.87-4.02-3.7-6.4-7.71-7.21-3.49-.7-6.7-1.96-9.76-3.68-4.63-2.61-8.73-5.9-12.66-9.42-4.53-4.6-8.12-9.81-10.67-15.7-1.24-3.44-2.29-6.93-2.81-10.54-.18-1.26-1.19-2.47-.4-3.83,.7,.26,.77,.97,1.05,1.51,2.5,4.81,4.97,9.63,7.85,14.24,1.38,2.2,2.87,4.35,4.92,6.61,0-.76,.07-1.02,0-1.23-2.94-8.11-4-16.57-5-25.06-1.12-9.41-2.37-18.81-5.32-27.9-2.67-8.24-6.21-16.04-11.72-22.87-3.81-5.06-8.43-9.29-13.79-12.7-12.48-7.94-25.84-10.91-40.3-6.09-10.96,3.65-19.06,10.97-25.55,20.14-6.49,9.17-10.27,19.53-13.71,30.05-3.08,9.41-5.6,19-9.56,28.11-5.78,13.29-13.66,25.08-25.2,34.3-2.14,1.7-3.54,3.95-4.43,6.48-.95,2.68-1.15,5.37,.27,7.98-.11,.84,.47,1.38,.89,1.99,1.65,2.78,4.14,4.55,7.22,5.5,3.89,1.2,8.5-.15,10.37-3.74,2.81-5.37,9.33-5.55,13.07-.72,2.1,2.72,2.99,5.91,3.64,9.18,1.05,7.91,.54,15.8-.41,23.68-1.45,12.04-4.5,23.64-10.07,34.51-5.34,10.43-12.59,19.18-23.3,24.75-1.96,1.02-4.05,1.8-6.04,2.78-2.31,1.14-4.33,2.6-5.43,5.41,3.66-.91,7.11-1.28,10.51,.03,.51,.26,1.03,.51,1.54,.77,3.59,2.72,6.71,6.02,10.67,8.29,7.96,4.58,18.27,3.99,24.43-4.08,1.96-2.57,3.86-5.16,5.4-7.99,8.21-15.08,11.92-31.43,14.15-48.19,1.62-12.11,2.14-24.29,2.39-36.49,.07-3.2,.28-6.41,1.14-9.52,.43-1.55,.88-3.15,2.18-4.42,.27,5.7,.61,11.22,.79,16.75,.46,13.78,.06,27.52-2.26,41.17-2.05,12.04-4.79,23.88-9.65,35.17-2.03,4.72-4.47,9.22-7.34,13.59,1.54,.36,3.09,.22,4.22,1.06,1.4,1.05,1.96,.29,2.62-.76,2.59-4.13,4.71-8.48,6.32-13.06,3.77-10.76,5.81-21.95,8.48-32.99,1.2-4.98,2.01-10.07,3.77-14.92-.47,12.31-1.32,24.59-3.8,36.7-1.87,9.15-4.76,17.94-9.62,26.02-2.3,3.83-2.36,3.8,1.75,5.73,.28,.13,.6,.2,.9,.3,5.09,2.3,10.23,2.31,15.41,.33,2.32-.89,3.74-2.22,3.63-5.01-.21-5.29,1.83-9.52,6.88-12,1.79-.35,3.55-.84,5.43-.65,4.2,.43,7.23,2.68,9.78,5.76-.07,.68,.43,1.16,.67,1.72,1.17,2.76,1.18,5.51,.13,8.44-2.38-2.99-4.14-6.2-7.18-8.59-.45,4.73,1.56,7.99,5.24,10.41,3.27,2.16,6.88,2.52,10.67,1.92,3.69-.59,6.28-2.86,8.77-5.39,4.78-4.86,13.19-6.06,17.99,1.06,1.91,2.83,4.86,4.38,8.41,4.58,2.89,.67,5.61,.15,8.22-1.14,2.63-.9,4.26-2.85,5.67-5.08,.45-.71,.11-.92-.33-1.34-1.2-1.13-2.39-2.28-3.49-3.5-13-14.29-21.44-30.99-26.97-49.22-2.91-9.59-4.3-19.46-5.33-29.39-.1-.96-1.1-1.97-.07-2.97,.61,.39,.59,1.07,.78,1.64,1.31,3.99,2.61,7.99,3.9,11.99,4.18,13.37,8.31,26.76,14.64,39.36,4.95,9.86,10.86,19.08,18.82,26.92,.73,.72,1.1,1.09,2.04,.11,2.94-3.09,6.8-3.82,10.91-3.49,4.7,.37,9.05,2.15,13.56,3.31,7.52,1.94,14.47,1.11,20.31-4.45,.11-.07,.15-.16,.11-.28,.55-.17,.89-.54,1.1-1.05,5.93-7.27,3.78-15.98-4.87-19.61-1.29-.54-2.61-.99-3.93-1.48-18.38-6.72-31.81-18.72-40.01-36.24-3.74-8-6.12-16.43-8.01-25.01-.18-1.35-.34-2.71-.54-4.06-.13-.83-.57-1.23-1.52-1.28-2.47-.12-3.98,1.3-5.37,2.99,1.04-6.38,8.25-11.1,15.5-10.26,3.59,.41,6.91,1.77,10.37,2.63,3.46,.86,6.83,.94,9.97-1.06,.39-.27,.78-.54,1.17-.81ZM95.44,80.55c.17-5.53,.89-10.21,2.88-14.65,.86-1.92,1.97-3.66,3.46-5.15,4.17-4.17,9.59-4.13,13.65,.17,3.1,3.28,4.63,7.34,5.42,11.65,1.26,6.85,1.01,13.62-1.73,20.15-1.06,2.51-2.49,4.8-4.59,6.63-3.71,3.24-8.66,3.22-12.29-.11-3.74-3.43-5.23-7.94-6.11-12.68-.41-2.22-.53-4.48-.69-6.01Zm11.25-10.54c-.05-2-1.52-3.4-3.53-3.36-1.95,.03-3.61,1.62-3.57,3.41,.04,1.94,1.74,3.54,3.71,3.5,1.96-.04,3.43-1.58,3.38-3.55Zm68.29,9.91c-.02,5.34-.96,10.48-3.61,15.21-4.84,8.64-13.33,8.83-18.56,.42-2.74-4.41-3.68-9.34-3.88-14.39-.21-5.25,.59-10.38,2.81-15.23,.92-2.02,2.13-3.86,3.76-5.41,3.91-3.73,9.12-3.74,12.98,.05,3.79,3.73,5.25,8.5,6.07,13.52,.32,1.92,.5,3.86,.43,5.82Zm-18.59-6.44c1.98,.01,3.49-1.45,3.53-3.42,.05-2.03-1.38-3.46-3.43-3.45-2.01,.01-3.53,1.47-3.54,3.4-.01,2.01,1.42,3.46,3.44,3.47Zm-34.11,43.14c.2-5.44,1.45-10.53,5.54-14.58,4.44-4.4,10.51-4.44,15.02-.13,6.99,6.67,7.38,19.92,.79,27-6.21,6.67-16.26,4.66-19.85-3.97-1.1-2.66-1.39-5.45-1.5-8.32Zm12.8,12.77c1.87,.1,3.68-.73,5.26-2.14,1.96-1.75,2.96-4.02,3.84-6.42,.63-1.73,.05-2.63-1.57-3.13-.55-.17-1.1-.35-1.66-.44-5.45-.9-9.85,1.3-13.91,4.52-.44,.35-.57,.71-.42,1.3,.92,3.55,4.48,6.33,8.47,6.31Z"/>
  </g>
</svg>