<?xml version="1.0" encoding="UTF-8"?>
<svg id="Layer_2" data-name="Layer 2" xmlns="http://www.w3.org/2000/svg" viewBox="0 0 249.87 217.71">
  <g id="Layer_1-2" data-name="Layer 1">
    <path d="M162.83,210.36c-10.69,8.53-22.83,8.88-35.69,4.85-1.8-.57-3.19-.51-4.91,.06-8.66,2.87-17.46,3.23-26.12,.18-3.33-1.17-6.28-3.13-9.27-4.67-20.87,6.89-41.01,6.71-60.03-4.97-4.04-2.48-6.11-5.14-3.21-9.23-2.55-1.23-4.93-2.24-7.16-3.46-6.78-3.72-12.15-8.53-15.19-15.03-.56-1.2-1.01-2.49-1.16-3.77-.82-6.61,4.2-11.08,12-10.28,12.85,1.31,23.06-2.95,31.93-10.42,.42-.36,.76-.78,1.17-1.21-2.47-.76-4.86-1.37-7.13-2.22-6.6-2.49-10.62-6.64-11.11-13.02-.19-2.42,.59-4.35,2.95-5.8,13.71-8.44,21.65-20.01,24.9-34.06,.65-2.81,1.06-5.71,1.15-8.57,.24-7.6,.21-15.21,.37-22.81,.31-14.9,4.07-28.97,14.17-41.37C81.5,11.01,96.61,3.02,115.69,.61c32.95-4.16,63.28,13.17,73.77,40.71,3.03,7.95,4.58,16.14,4.61,24.53,.03,7.74-.09,15.47,.11,23.21,.36,13.9,5.59,26.17,17.06,36.24,1.65,1.45,3.49,2.75,5.34,4.01,6.17,4.21,6.83,10.31,1.52,15.37-4.22,4.03-9.8,6.13-15.63,7.81-.79,.23-1.62,.37-2.76,.62,.52,.52,.87,.99,1.34,1.33,9.37,6.68,19.91,10.59,32.35,9.88,1.98-.11,3.95-.41,5.93-.42,6.75-.04,11.11,4.12,10.47,9.91-1.22,11.13-12.79,23.38-25.25,26.7-1.19,.32-2.38,.47-2.2,1.95,.04,.32-.58,.73-.95,1.05-8.26,7.07-18.41,10.66-29.86,11.51-10.04,.75-19.83-.18-28.73-4.64Zm-37.87-8.67c5.33,4.96,11.87,6.72,19.39,5.86,5.96-.68,10.77-2.8,12.93-8.06,1.1-2.68,2.39-5.31,3.73-8.24,1.21,1.96,2.26,3.67,3.33,5.38,2.62,4.17,6.68,6.67,12,7.84,8.67,1.91,17.11,1.28,25.38-1.48,1.92-.64,3.74-1.49,5.89-2.36-12.02-5.45-21.22-12.35-22.56-16.29,4.75,2.02,9.8,4.69,15.26,6.38,16.56,5.14,30-.11,36.89-13.99,.43-.88,.75-1.79,1.29-3.08-13.68,1.63-25.92-.87-37.16-6.92-11.44-6.16-18.54-15.08-22.53-26.6,5.29,3.13,10.64,4.37,16.45,3.65,5.74-.71,10.95-2.42,14.9-6.37-15.83-10-26.28-27.3-27.01-44.99-.37-9.04-.37-18.09-.42-27.13-.03-6.13-.93-12.13-2.85-18.04-6.95-21.35-27.02-36.06-50.61-37.27-22.04-1.13-39.21,6.35-51.18,22.24-7.33,9.72-10.2,20.65-10.53,32.1-.27,9.11,.04,18.24-.61,27.32-.88,12.13-5.55,23.28-13.77,33.25-4.08,4.95-8.95,9.25-14.52,12.94,4.28,5.62,14.35,6.59,26.99,2.47-9.14,22.16-26.55,33.89-54.36,33.96,1.36,1.7,2.44,3.27,3.77,4.67,9.7,10.19,25.1,13.25,40.27,7.94,3.33-1.17,6.48-2.72,10.13-4.27-7.04,9.23-16.23,15.11-29.3,16.92,1.17,.61,1.85,.99,2.56,1.32,9.57,4.39,19.77,5.53,30.43,4.28,8.17-.96,14.28-4.33,17.64-10.98,.46-.91,1.1-1.75,1.83-2.91,1.28,2.91,2.52,5.37,3.46,7.92,1.54,4.18,5.07,6.49,9.71,7.58,8.67,2.03,16.47,.66,23.17-5.06Zm11.72-115.12c-1.02-3.6-2.89-6.92-6.5-9.23-3.48-2.22-7.18-2.3-10.13,.39-2.19,1.99-4.08,4.45-5.25,6.99-3.05,6.62-3.16,13.54-1.62,20.48,.91,4.1,2.52,7.96,6.01,11.04,3.62,3.19,7.96,3.28,11.71,.22,.82-.67,1.58-1.43,2.22-2.23,4.13-5.19,5.02-11.12,5.34-18.9-.36-1.83-.81-5.35-1.77-8.76Zm-46.35-20.67c4.63,4.86,10.99,5.04,15.92,.41,6.57-6.17,6.78-17.24,.44-23.56-4.75-4.74-11.33-4.85-16.29-.25-3.39,3.14-4.69,6.98-4.83,11.43,.05,4.25,1.34,8.39,4.75,11.96Zm69.8-23.77c-4.9-4.2-11.25-3.96-15.82,.51-6.76,6.62-5.9,18.75,1.75,24.65,3.89,2.99,8.38,3.16,12.39,.31,5.08-3.6,6.81-8.49,6.95-12.75-.03-5.61-1.57-9.56-5.28-12.73Zm-66.77,32.04c-1.07-1.62-3.13-1.63-4.59-.22-2.03,1.96-2.04,6.11-.02,8.04,1.39,1.33,3.29,1.38,4.45-.12,.84-1.09,1.22-2.45,1.82-3.72-.58-1.45-.89-2.83-1.66-3.98Zm69.46,.58c-.52-.74-1.68-1.61-2.52-1.59-.98,.02-2.48,.81-2.77,1.54-.62,1.6-.91,3.4-.75,5.08,.15,1.57,1.19,3.1,3.44,3.07,2.16-.02,2.76-1.58,3.3-3.03,.21-.55,.25-1.14,.44-2.05-.3-.84-.47-2.06-1.14-3.02Z"/>
  </g>
</svg>