<?xml version="1.0" encoding="UTF-8"?>
<svg id="Layer_2" data-name="Layer 2" xmlns="http://www.w3.org/2000/svg" viewBox="0 0 252.81 306.11">
  <g id="Layer_1-2" data-name="Layer 1">
    <path d="M124.65,0c16.89,.38,30.27,6.88,39.5,18.52,6.01,7.58,8.8,15.96,10.2,24.61,1.75,10.74,2.9,21.55,4.84,32.27,2.16,11.92,6.33,23.49,12.31,34.67,5.24,9.81,14.27,17.33,25.48,23.52,9.77,5.39,18.94,11.26,25.69,18.96,6.84,7.81,11.12,16.2,9.95,25.75-.67,5.5-3.09,10.66-6.63,15.42-3.44,4.62-7.51,8.98-11.34,13.44-1.52,1.76-3.28,3.41-4.69,5.21-2.23,2.85-2.32,5.9,.32,8.54,4.63,4.64,3.48,8.84-.77,13.12-1.97,1.99-3.87,4.08-5.33,6.29-3.32,5.06-1.16,10.16,5.34,13.03,2.33,1.03,4.87,1.78,7.2,2.8,6.44,2.82,8.74,7.22,6.71,12.59-2.68,7.06-9.18,11.09-18.9,11.94-2.38,.21-4.82,.7-7,1.45-2.88,.99-4.36,2.78-4.31,5.35,.15,8.34-6.88,13.87-18.03,14.43-5.61,.29-11-.46-16.19-1.91-7.24-2.01-14.5-2.64-22.11-1.3-8.18,1.44-16.37,.93-24.35-.93-6.59-1.54-12.8-1.06-18.68,1.52-14.01,6.16-29.22,7.56-45.04,6.5-5.99-.4-11.59-1.77-16.69-4.25-8.05-3.91-15.29-8.5-21.76-13.82-3.7-3.04-5.26-6.28-4.22-10.42,1.34-5.34-1.64-9.51-8.21-11.98-2.32-.87-4.84-1.47-7.33-2.07-8.3-2-11.59-6.21-10.33-12.65,1.53-7.77,6.64-14.1,13.11-20.03,4.26-3.9,8.28-7.96,12.17-12.08,1.21-1.29,1.75-2.97,2.38-4.52,1.12-2.74-.12-5.08-2.72-6.98-2.57-1.87-5.27-3.65-8.03-5.38-9.43-5.9-15.42-13.15-15.86-22.6-.3-6.58,1.47-12.9,4.23-19.1,4.98-11.19,13.74-20.7,23.09-30.01,6.73-6.7,13.42-13.46,19.37-20.55,9.15-10.91,13.78-23.17,16.56-35.79,2.35-10.67,4.01-21.42,6.43-32.08,2.49-10.93,7.38-21.18,17.56-29.59C97.86,4.2,109.35,.1,124.65,0ZM16.98,195.35c.19-.1,.37-.2,.56-.3-.87-.84-1.75-1.68-2.62-2.52-4.43-4.29-6.52-9.25-6.89-14.59-.21-3.03,2.55-4.76,6.47-3.97,2.88,.58,5.83,1.5,8.2,2.82,6.06,3.39,8.55,8.37,9.35,13.81,1.65,11.15,3.17,22.31,4.58,33.48,.77,6.09-1.65,11.21-9.95,13.99-1.67,.56-3.28,1.22-4.88,1.88-5.68,2.33-10.7,5.22-14.06,9.48-3.62,4.59-1,9.01,6,9.84,3.87,.46,7.85,.42,11.73,.84,4.64,.51,9.36,.96,13.79,2.02,4.68,1.13,6.81,3.77,5.86,7.38-.74,2.82-2.5,5.55-4.29,8.13-3.44,4.97-2.51,9.88,3.23,13.43,3.57,2.21,7.23,4.4,11.18,6.18,3.01,1.36,6.44,2.53,9.86,2.97,15.38,1.99,30.36,1.03,44.18-4.9,8.37-3.59,16.82-4.62,26.11-2.2,6.98,1.82,14.27,1.77,21.49,.57,6.72-1.11,13.32-1.11,19.85,.75,2.77,.79,5.6,1.48,8.46,2.06,5.65,1.14,11.2,1.23,16.46-1.17,1.85-.84,2.58-1.73,1.74-3.38-.87-1.7-1.56-3.49-1.99-5.28-1.38-5.84,3.67-14.06,15.95-12.37,1.37,.19,2.71,.48,4.08,.71,7.86,1.29,15.06-2.7,15.99-8.77,.35-2.29-.45-4.31-2.95-5.55-3.17-1.57-6.6-2.87-10.01-4.16-2.72-1.03-5.73-1.66-8.33-2.82-7.31-3.27-11.14-8.17-10.13-14.61,.46-2.94,1.87-5.86,3.36-8.63,2.54-4.74,5.44-9.37,8.28-14.01,3.17-5.17,4.73-10.42,2.06-16-.17-.36-.14-.78-.19-1.17-1.15-8.33,3.89-14.76,11.49-20.21,2.38-1.71,5.52-3.01,8.61-3.92,4.01-1.19,6.19-.03,7.24,3.16,.05,.16,.16,.31,.39,.75,.51-5.88-.93-11.15-3.68-16.28-1.34-2.5-3.9-3.67-7.18-3.98-2.05-.19-4.21-.1-6.25,.18-5.58,.77-10.44,2.7-14.89,6.03,3.85-6.61,13.93-9.44,24.68-7.24-.36-.44-.65-.82-.97-1.19-6.62-7.51-15.58-13.22-24.97-18.67-3.92-2.27-8-3-12.71-2.64-2.01,.15-4.04,.15-6.07,.22-.03-.19-.05-.37-.08-.56,3.61-.45,7.23-.9,10.96-1.36-.4-.27-.76-.53-1.13-.78-8-5.44-14.74-11.61-18.94-19.13-7.96-14.25-12.46-29.16-14.77-44.48-1.44-9.58-2.58-19.2-4.32-28.75-1.43-7.86-4.66-15.35-10.86-21.91-9.14-9.68-21.57-14.35-37.42-13.18-11.42,.84-20.34,5.24-27.36,11.89-8.82,8.35-12.35,18.26-14.51,28.51-2.25,10.68-3.88,21.44-6.46,32.07-3.7,15.26-10.95,29.51-23.41,42.08-.42,.42-.73,.91-1.3,1.64,5.12-1.8,9.82-1.77,14.24,.21,6.98,3.12,8.62,8.38,9.37,13.91-.56-.65-.84-1.42-1.39-2.06-2.59-3-4.76-6.34-8.01-8.87-5.94-4.61-13.19-4-18.44,1.07-5.05,4.87-10.15,9.71-15.03,14.68-7.57,7.71-13.52,16.07-17.14,25.3-2.59,6.62-4.22,13.29-1.25,20.11,1.7,3.89,4.68,7.05,9.02,9.46Zm74.4-43.39c-.14,1.83-.33,3.66-.42,5.49-.27,5.45-.35,10.9-.78,16.34-1.27,16.05-2.59,32.1-4.04,48.15-.88,9.76-2.83,19.39-6.8,28.75-3.94,9.28-9.58,17.82-20.16,23.85-4.44,2.53-9.58,4.39-13.98,6.36-.29-.01,.1,.02,.5,.02,10.87-.08,19.45-3.67,26.3-9.81,6.8-6.09,11.02-13.16,13.64-20.81,3.38-9.86,4.14-19.98,4.55-30.06,.92-22.78,1.33-45.56,1.94-68.35-.25,.02-.5,.04-.76,.07Zm32.33-24.73c-.27,1.45-.26,2.89-.27,4.33-.09,12.61-.19,25.23-.28,37.84-.12,17.3,1.41,34.51,4.59,51.64,3.63,19.5,10.67,38.42,17.81,57.33-15.8-49.71-19.1-100.39-21.85-151.14Zm-11.23,67.07c.2,2.55,.38,5.1,.62,7.65,1.38,15.08,2.28,30.17,.37,45.26-1.96,15.46-10.44,28.55-25.98,38.9-3.4,2.27-7.23,4.17-10.83,6.22-.01,0,.07,.06,.14,.05,.26-.02,.53-.03,.76-.11,20.82-7.05,34.57-18.59,39.55-35.54,2.74-9.31,1.38-18.71,.32-28.06-1.3-11.49-2.99-22.96-4.52-34.45-.14,.02-.29,.04-.43,.06Zm3.57-108.88c.68,1.96,1.99,4.13,5.14,4.18,3.31,.05,4.51-2.2,5.49-4.17,2.62-5.28,3.16-10.74,1.6-16.22-.65-2.3-1.95-4.6-3.58-6.62-1.62-2.01-4.58-1.91-6.55-.05-.91,.85-1.77,1.86-2.12,2.89-1.07,3.21-1.88,6.47-2.81,9.76,.95,3.5,1.68,6.91,2.84,10.24Zm-4.69-52.78c-.72-1.83-2.21-3.27-4.95-3.64-2.93-.39-4.97,.79-6.35,2.44-4.46,5.37-5.98,11.25-4.39,17.48,.56,2.2,2.18,4.06,5.47,4.48,3.38,.44,5.43-1.12,6.98-3.04,3.01-3.72,4.24-7.84,4.76-12.21-.49-1.85-.81-3.73-1.52-5.52Zm33.05-.08c-1.47-1.84-3.18-3.58-6.51-3.3-3.46,.29-5.23,2.2-5.82,4.45-.63,2.41-.87,4.95-.64,7.4,.36,3.81,1.58,7.53,4.89,10.6,3.45,3.2,8.77,2.68,10.8-1.14,.95-1.78,1.17-3.79,1.72-5.69-.37-4.12-2.06-9.34-4.44-12.31ZM33.44,153.82c6.86,4.19,11.98,9.33,14.94,15.62,2.49,5.3,3.72,10.77,3.87,16.37,.31,11.05,0,22.07-3.93,32.82-.95,2.61-2.51,5.1-3.8,7.64,2.89-3.45,5.54-7,7.51-10.75,5.19-9.86,6.22-20.14,4.62-30.59-1.28-8.35-4.25-16.34-10.38-23.5-3.71-4.33-8.39-7.91-14.72-10.07-2.76-.94-5.64-1.79-8.69-.62,4.15-.07,7.52,1.22,10.58,3.08Zm139.36,74.26c-.98-6.38-1.93-12.77-2.9-19.16-.16,.59-.2,1.18-.16,1.77,.54,7.47,.89,14.95,1.69,22.41,.6,5.61,1.47,11.22,2.75,16.77,2.35,10.15,10.05,17.97,20.2,24.61-13.38-13.86-19.05-29.72-21.6-46.4Zm-111.62-5.95c-.26,.61-.52,1.22-.78,1.84-2.84,6.75-5.75,13.48-11,19.46-4.41,5.03-10.47,8.38-18.21,9.96-2.37,.48-4.77,.88-7.15,1.31,2.68,.29,5.3,.25,7.92,.3,8.26,.13,14.69-2.49,18.72-7.79,2.57-3.38,4.53-7.08,6.13-10.79,2-4.64,3.34-9.44,4.96-14.17-.19-.04-.39-.08-.58-.12Zm151.24-15.69c-1.7-3.49-3.57-7.01-5.16-10.61-5.8-13.19-7.3-26.23,2.58-38.89-13.56,11.45-11.94,40.74,2.58,49.49ZM96.59,28.27c2.44-1.24,5.3-2.69,7.95-4.03-3.67-.36-7.34,1.58-7.95,4.03Zm50.17-.26c-1.7-2.31-4.11-3.17-7.7-2.71,2.55,.9,5.25,1.85,7.7,2.71Z"/>
  </g>
</svg>