<?xml version="1.0" encoding="UTF-8"?>
<svg id="Layer_2" data-name="Layer 2" xmlns="http://www.w3.org/2000/svg" viewBox="0 0 243.56 309.33">
  <g id="Layer_1-2" data-name="Layer 1">
    <path d="M235.48,291.59c.61,.31,1.2,.58,1.76,.9,2.66,1.5,2.88,3.46,.16,4.81-3.09,1.53-6.41,2.8-9.78,3.71-9.77,2.64-19.83,3.92-29.93,4.98-29.76,3.13-59.64,3.69-89.53,3.18-17.77-.3-35.55-1.16-53.29-2.23-12.84-.78-25.65-2.22-38.12-5.49-1.92-.5-3.82-1.11-5.66-1.84-4.52-1.8-4.99-3.1-2.81-7.11-2.23-1.97-4.48-3.91-6.66-5.92-2.27-2.09-2.14-3.86,.22-5.89,9.76-8.36,19.36-16.88,26.97-27.09,7.45-10,12.73-20.88,14.47-33.05,1.19-8.34,1.16-16.62-3.92-24.05-2-2.92-4.38-5.67-6.89-8.24-9.3-9.48-11.85-20.63-9.71-32.99,2.33-13.46,8.29-25.5,17.3-36.11,10.81-12.73,18.08-26.98,22.26-42.64,2.8-10.5,5.19-21.1,8.08-31.57,3-10.88,8.01-20.86,16.63-28.97C96.35,7.21,107.66,2.12,120.74,.54c20.31-2.46,37.41,3.51,51.22,17.52,8.73,8.85,13.73,19.54,16.3,31.19,2.01,9.08,3.45,18.26,5.28,27.37,3.33,16.6,9.13,32.31,18.83,46.72,5.5,8.17,10.6,16.6,13.46,25.99,3.48,11.42,4.71,23,2.19,34.74-1.15,5.4-4.08,9.7-9.66,12.11-3.52,1.52-6.19,4-8.06,7.07-1.02,1.67-1.69,3.72-1.8,5.63-1.72,28.75,7.78,53.1,32.52,71.38,3.22,2.38,3.39,4.24,.35,6.9-1.83,1.6-3.91,2.95-5.9,4.44Zm-16.29-101.45c2.17-1.45,3.38-3.48,4.02-5.77,2.19-7.81,1.74-15.7,.63-23.58-1.38-9.77-5.21-18.75-10.41-27.26-3.37-5.52-6.9-10.95-10.16-16.53-9.46-16.15-13.44-33.85-16.55-51.79-1.47-8.48-2.68-17.02-6.03-25.09-8.28-19.96-22.76-33.1-46.34-35.57-13.41-1.41-25.86,1.63-37.01,8.86-11.03,7.15-17.75,17.21-21.31,29.04-3.22,10.71-5.71,21.6-8.51,32.42-4.48,17.29-12.11,33.12-24.02,47.19-9.35,11.05-15.31,23.62-16.72,37.83-.81,8.17,1.03,15.76,6.31,22.42,3.95,4.98,8.98,9.2,11.85,14.97-.08-.83-.22-1.66-.68-2.28-2.13-2.85-4.13-5.83-6.59-8.42-4.68-4.93-8.04-10.33-8.9-16.99-1.08-8.42,5.75-14.89,14.7-13.65,4.5,.62,8.03,3,10.4,6.43,3.01,4.38,5.85,8.93,8.09,13.69,1.81,3.84,4.41,6.59,8.35,8.38,2.4,1.09,4.83,2.12,7.22,3.23,.9,.42,1.71,1,2.88,1.7-2.9-.39-5.35-.73-7.97-1.08,.16,.46,.16,.63,.24,.67,.53,.26,1.06,.52,1.61,.71,5,1.73,8.41,4.91,10.25,9.59,.5,1.28,1.18,2.51,1.87,3.71,1,1.72,2.43,2.86,4.61,3.25,2.88,.51,5.11,2.09,6.84,4.27,1.03,1.3,2.1,2.6,2.94,4.01,5.01,8.41,21.24,11.53,29.12,2.9,3.32-3.64,7.48-6.17,12.07-8.17,5.36-2.34,9.23-6.11,11.88-10.98,1.44-2.66,2.68-5.42,3.99-8.14,1.12-2.32,1.98-4.79,3.37-6.96,2.99-4.7,7.44-6.13,13.04-4.55,.7,.2,1.47,.54,2.13,.43,5.25-.88,10.61-1.46,14.32-5.78,1.96-2.28,4.08-4.47,6.33-6.51,4.68-4.25,10.79-4.54,16-.85,3.37,2.38,5.93,5.42,7.75,8.94,2.6,5.04,2.51,9.97-1.17,14.62-.17,.22-.29,.48-.43,.71Zm-35.2,101.89c20.85,5.86,42.95,1.67,54.04-8.18-.19-.17-.38-.33-.56-.5-4.86-4.54-10.06-8.82-14.49-13.69-9.26-10.19-14.62-22.2-17.37-35.24-1.98-9.41-2.8-18.9-1.49-28.45,1.63-11.87,4.13-23.58,8.25-34.95,.15-.42-.12-1.28-.49-1.5-1.34-.79-2.8-1.44-4.24-2.07-.93-.41-1.49-.11-1.69,.88-.33,1.65-.84,3.26-1.12,4.92-1.55,9.47-3.19,18.94-4.55,28.44-1.53,10.7-2.64,21.44-1.97,32.26,.19,3.03,.45,6.07,.68,9.1-4.84-25.49-.75-50.47,4.77-75.59-1.78,.95-3.53,1.95-4.93,3.26-2.07,1.94-3.81,4.19-5.84,6.17-4.95,4.83-14.01,7.02-20.82,5.04-2.59-.75-4.78-.28-6.55,1.55-1.02,1.05-1.97,2.24-2.62,3.51-1.17,2.3-2.14,4.69-3.11,7.08-3.23,7.89-7.65,14.87-16.35,18.53-4.53,1.9-8.22,4.71-11.65,8.05-7.42,7.21-21.01,7.81-29.14,1.23-2.57-2.07-4.48-4.89-6.49-7.51-1.63-2.12-3.2-4.28-6.16-4.71-3.65-.54-5.75-2.66-7.21-5.57-.62-1.24-1.21-2.5-1.74-3.78-1.73-4.21-4.94-6.82-9.56-8.09-1.19-.33-2.56-1.02-3.16-1.93-.38-.58,.53-1.88,.86-2.87-4.8-.84-8.31-3.43-10.33-7.76-.53-1.14-1-2.31-1.62-3.42-1.98-3.57-4-7.11-6.01-10.66-.44,.33-.51,.49-.49,.65,1.19,9.39,2.72,18.75,3.52,28.17,1.38,16.35-.16,32.49-5.31,48.25-2.03,6.22-4.58,12.23-8.55,17.63-.65,.89-1.49,1.66-2.24,2.49-.13-.11-.25-.22-.38-.34,1.04-1.88,2.21-3.7,3.11-5.63,7.73-16.64,11.21-34.14,11.51-52.18,.13-7.97-.51-15.95-.67-23.93-.11-5.35-1.81-9.99-6.18-13.54,.25,2.33,.46,4.74,.78,7.14,1.67,12.58,2.5,25.2,2.15,37.87-.23,8.34-1.7,16.47-4.9,24.3-5.28,12.9-13.54,23.96-23.72,33.89-4.71,4.59-9.27,9.32-13.9,13.98,.42,.51,1.47,1.66,2.71,2.59,2.02,1.52,4.08,3.04,6.28,4.32,14.41,8.42,32.23,7.66,45.84-1.8,9.82-6.83,17.32-15.54,23.47-25.29,2.42-3.84,4.43-7.91,6.63-11.88-5.2,16.16-15.01,29.54-28.52,40.91,6.78,1.78,13.4,2.27,20.19,1.38,2.6-.34,4.36-1.42,6-3.2,4.85-5.26,8.5-11.19,11.24-17.59,1.8-4.2,3.25-8.53,4.86-12.8-1.74,11.99-5.06,23.45-12.87,33.52,1.13,.81,2.25,1.49,3.22,2.33,8.62,7.41,18.32,7.78,28.46,3.47,13.23-5.63,21.49-15.47,26.24-28.07,.81-2.16,1.44-4.38,2.15-6.57-.53,6.27-2.29,12.21-5.11,17.9-2.86,5.76-6.79,10.79-11.95,15.08,2.78,.48,5.38,.77,7.87,1.4,8.52,2.15,16.32,.91,23.7-3.65,2.63-1.63,5.67-2.8,8.67-3.75,3.56-1.13,3.9-1.2,4.26-4.74,.07-.68,.12-1.38,.05-2.06-.98-8.86-1.93-17.71-3-26.56-.46-3.83-1.16-7.64-1.75-11.46,4.02,14.53,8.3,28.99,9.27,44.22Zm-21.4-231.63c-.16,4.13-1.43,8.57-4.7,12.37-4.3,5.01-9.9,5.11-14.43,.28-6.19-6.59-6.26-19.14-.14-25.84,4.58-5.01,10.52-4.94,14.96,.17,2.76,3.18,4.31,7.63,4.31,13.01Zm-13.73-10.26c-.21-.39-.38-1.18-.88-1.45-.41-.23-1.35-.03-1.8,.3-2.5,1.81-4.18,4.16-4.66,7.11-.09,.55,.3,1.47,.78,1.72,.45,.24,1.48,.03,1.94-.33,2.38-1.84,3.81-4.25,4.62-7.35Zm-52.98,9.18c.21-4.56,1.46-9.38,5.58-13.16,4.13-3.79,9.29-3.59,13.18,.43,6.73,6.96,6.5,20.23-.46,26.99-4.31,4.18-9.79,3.9-13.77-.77-3.2-3.76-4.45-8.15-4.53-13.5Zm9.59-8.98c-.23-.44-.4-1.16-.88-1.53-.31-.24-1.21-.15-1.61,.11-2.79,1.77-4.44,4.3-4.89,7.39-.22,1.5,1.13,2.26,2.46,1.39,2.62-1.72,4.07-4.21,4.92-7.35Zm29.85,34.15c-3.49-3.44-7.69-3.4-11.19,0-5.82,5.66-6.32,17.1-1,23.22,3.9,4.49,9.16,4.49,13.01-.07,2.71-3.21,3.79-6.94,3.9-11.33-.12-4.19-1.26-8.43-4.71-11.83Zm57.59,77.76c-2.98,2.27-6.07,2.51-9.14,.33-1.62-1.15-3.28-2.57-4.16-4.21-2.25-4.21-4.53-8.5-5.99-12.98-4.13-12.67-5.84-25.8-7.76-38.87-.23-1.54-.42-3.09-.62-4.64-.2-1.52-.41-3.04-.61-4.56,.56,17.37,2.53,34.57,6.93,51.46,1.56,6,3.65,11.88,8.13,16.67,1.87,2,4.05,3.71,7.11,2.82,3.47-1.01,5.58-3.52,6.97-6.63-.29,.2-.59,.4-.87,.61Zm-115.01,6.65c3.22-3.24,4.9-7.24,6.13-11.4,2.76-9.33,3.98-18.91,5.17-28.48,.31-2.5,.54-5.01,.81-7.52-.61,1.63-.86,3.29-1.24,4.92-2.06,8.86-3.95,17.77-6.33,26.56-1.24,4.57-3.32,8.96-7.13,12.34-3.67,3.26-8.55,3.8-12.98,1.25,3.53,6.26,10.72,7.22,15.58,2.33Z"/>
  </g>
</svg>