<?xml version="1.0" encoding="UTF-8"?>
<svg id="Layer_2" data-name="Layer 2" xmlns="http://www.w3.org/2000/svg" viewBox="0 0 253.61 217.89">
  <g id="Layer_1-2" data-name="Layer 1">
    <path d="M46.96,197.63c-2.36-1.95-4.29-3.92-6.67-5.36-1.29-.78-3.41-1.06-5.05-.89-7.32,.76-13.15-1.39-17.66-6.06-3.91-4.05-3.24-9.87,1.41-13.7,1.92-1.58,4.13-2.91,6.16-4.4,6.18-4.52,8.87-10.34,8.73-17.09-.1-4.93-1.16-9.77-3.51-14.3-.9-1.73-2.49-3.24-4-4.68-.42-.4-2.02-.53-2.49-.2-7.41,5.19-20.16,1.15-23.12-8.39-1.79-5.78-.38-11.24,3.41-16.23,1.43-1.88,2.07-3.74,2.08-5.98,.04-7.99,5.36-14.7,13.35-17.26,5.12-1.64,10.19-1.14,15.19,.34,2.97,.87,5.84,1.97,8.79,2.89,5.31,1.67,9.51,.63,12.87-3.18,3.67-4.17,5.19-9.06,5.94-14.06,1.13-7.54,1.75-15.12,2.8-22.67,1.83-13.18,7.39-24.96,19.26-34.17C94.07,4.79,105.62,1.01,118.61,.17c15.45-1,29.15,2.5,40.5,11.49,9.09,7.19,14.18,16.21,16.6,26.4,2.03,8.55,2.21,17.22,2.64,25.87,.22,4.49,.82,8.9,2.98,13.05,2.19,4.21,5.44,7.6,11.45,7.52,3-.04,6.13-.65,8.93-1.57,3.89-1.27,7.54-3.08,11.29-4.66,7.18-3.02,14.45-3.9,21.67-.24,6.04,3.06,9.26,7.84,10.3,13.54,.54,2.97,1.82,5.41,3.99,7.78,4.35,4.76,5.89,10.11,3.49,15.96-2.08,5.07-7.13,8.28-12.96,8-1.76-.08-3.69-.68-5.14-1.53-1.63-.96-2.76-.67-3.98,.2-3.27,2.35-4.61,5.52-5.13,8.96-.9,5.93-2,11.79-5.26,17.23-5.23,8.7-13.6,14.17-24.61,16.99-1.58,.4-3.16,.78-4.77,1.08-5.81,1.09-10.33,3.79-14.17,7.53-5.53,5.39-11.17,10.69-16.84,15.96-1.58,1.47-3.45,2.72-5.59,4.39,3.56,.45,6.67,.7,9.7,1.26,6.87,1.27,13.72,2.65,20.53,4.11,1.56,.33,3.08,1.05,4.41,1.83,2.43,1.42,2.52,3.66-.01,4.9-2.89,1.41-6,2.62-9.17,3.51-11.87,3.31-24.16,5.01-36.54,6.25-13.58,1.36-27.2,2.11-40.88,1.89-16.56-.27-32.71-2.5-48.25-7.42-3.2-1.01-6.35-2.33-9.2-3.91-5.15-2.85-4.82-5.74,.63-8.07,.39-.17,.76-.37,1.71-.82ZM10.62,106.03c-3.78,3.64-5.44,7.67-5.65,12.11-.22,4.58,3.02,8.8,7.69,10.4,4.22,1.45,10.06,.33,9.87-5.1-.07-1.91,.75-4,1.78-5.75,2.37-4.02,7.81-5.03,12.23-2.52,2.94,1.67,4.68,4.13,5.64,6.86,1.16,3.3,2.06,6.68,2.73,10.07,.9,4.56,3.59,8.23,7.34,11.71,4.4-6.69,4.27-13.71,3.82-20.82,.67,4.24,1.64,8.53,1.12,12.7-1.02,8.29-3.58,16.38-6.96,24.24-.99,2.3-2.55,4.44-3.85,6.65,.95-3.86,2.2-7.58,3.19-11.35,1.32-4.97,1.05-9.56-3.44-13.73-2.03-1.89-3.01-4.73-3.88-7.28-1.22-3.61-1.76-7.37-2.84-11.02-.65-2.22-2.03-4.19-4.44-5.49-2.97-1.59-6.13-1.12-7.79,1.31-1.8,2.62-2.44,6.6,1.14,7.99,2.47,.96,4.21,2.56,5.08,4.59,1.74,4.05,3.61,8.13,4.6,12.34,2.73,11.61-1.06,21.37-12.71,28.61-1.08,.67-2.1,1.44-3.01,2.26-2.51,2.26-2.82,5.3-.89,7.8,3.74,4.83,11.62,6.19,17.16,2.84,2.18-1.32,4.02-3.03,6.17-4.39,2.86-1.8,5.73-3.65,8.86-5.07,3.5-1.58,8.18-2.06,10.38-1.62-7.19,1.09-12.25,3.25-16.08,6.87-4.23,4-4.42,6.19-.62,10.41,3.84,4.26,8.55,7.76,14.09,10.41,17.51,8.37,36.01,9.16,55.07,4.71,17.28-4.03,31.5-12.31,43.37-23.32,12.57-11.66,24.73-23.64,36.91-35.59,7.28-7.16,12.6-15.28,15.69-24.37,1.21-3.56,2.2-7.21,3.9-10.6,1.18-2.36,3-4.72,5.23-6.43,4.6-3.53,10.23-1.99,12.15,2.99,.27,.71,.41,1.47,.57,2.21,.32,1.42,.52,2.86,.93,4.26,.84,2.93,3.73,4.26,7.03,3.09,1.39-.49,2.75-1.35,3.74-2.31,5.88-5.69,1.54-14.84-4.28-17.53-.25,.72-.47,1.44-.75,2.14-.28,.69-.63,1.37-.95,2.05,.61-4.88,1.09-9.67-.81-14.41-2.45-6.14-8.84-9.94-16.16-8.99-3.32,.43-6.51,1.77-9.67,2.88-4.61,1.63-8.99,3.82-13.74,5.06-8.98,2.35-15.64,.04-21.1-6.36-5.25-6.15-7.87-13.05-9.15-20.41-.19-1.12-.38-2.24-.54-3.36-.16-1.1-.28-2.2-.43-3.3,.07,0,.15,0,.22,0,1.32,3.91,2.64,7.83,3.95,11.74,.27-.04,.54-.08,.81-.12,0-.84,.03-1.68,0-2.53-.14-3.2-.07-6.43-.5-9.6-.87-6.29-1.44-12.66-3.18-18.79-3.07-10.78-9.93-19.79-21.6-25.4-17.76-8.54-35.74-7.49-53.01,1.02-13.26,6.53-20.57,16.97-23.39,29.36-1.92,8.42-2.49,17.05-3.7,25.59-1.33,9.35-3.48,18.42-13.18,24.87,3.81,2.17,7.86,3.94,10.31,6.9-4.12-1.4-8.34-2.91-12.63-4.27-5.25-1.67-10.55-3.22-15.84-4.81-1.76-.53-3.5-1.13-5.3-1.55-9.09-2.1-16.79,1.59-19.28,9.17-1.15,3.52-.8,6.97,.72,10.35,.58,1.3,1.28,2.56,1.93,3.84-.12,.05-.24,.11-.37,.16-1.15-1.37-2.3-2.73-3.68-4.36Zm173.95,56.91c.12,.11,.24,.23,.36,.34,.92-.22,1.84-.46,2.76-.67,.94-.22,1.88-.43,2.83-.61,11.35-2.2,20.22-7.16,25.41-16.14,2.58-4.47,3.65-9.27,4.31-14.16,.76-5.62,3.11-10.6,8.48-14.29,2.11-1.45,2.53-3.32,2.26-5.42-.24-1.89-.87-3.74-3.21-4.4-2.28-.65-4.45,.16-5.78,1.73-1.54,1.82-3.04,3.78-3.88,5.87-1.83,4.57-2.98,9.34-4.86,13.9-3.45,8.41-9.87,15.29-16.82,21.88-4.1,3.88-7.93,7.97-11.88,11.96Zm-47.39-61.93c8.84-6.68,11.2-15.53,10.96-24.93-.11-4.27-4.66-5.87-9.17-3.71-2.21,1.06-4.24,2.36-6.42,3.46-5.44,2.75-10.82,2.49-16.1-.35-1.76-.95-3.43-2.03-5.23-2.94-5.06-2.56-9.91-.35-9.91,4.61,0,6.11,1.49,12.01,5.02,17.38,3.97,6.06,9.63,10.23,18.46,10.27,4.73,.07,8.93-1.19,12.39-3.81Zm13.3-60.72c-3.03-4.96-8.86-4.99-11.92-.06-4.11,6.6-4.18,13.51-.51,20.31,1.2,2.22,3.32,3.8,6.45,3.8,3.06,0,4.88-1.68,6.26-3.74,2.28-3.41,2.57-7.16,2.66-12.62-.57-1.57-1.21-4.86-2.94-7.69Zm-40.48-1c-2.91-3.4-7.21-3.48-10.31-.21-.51,.54-1.01,1.12-1.33,1.74-3.29,6.49-3.41,13.04-.13,19.53,1.12,2.2,3.07,3.96,6.26,3.99,3.26,.03,5.16-1.75,6.59-3.93,1.99-3.07,2.41-6.43,2.42-9.85,0-4.01-.61-7.9-3.5-11.28Zm20.98,142.86c-14.63,9.18-31.21,12.4-49.23,11.25,39.98,7.55,73.79-16.5,74.59-48.16-2.92,14.99-10.62,27.66-25.37,36.91Zm39.7-28.33c-4.17,9.07-10.27,17.23-16.97,25.1,18.16-14.57,26.58-32.33,24.87-53.57-1.34,9.88-3.7,19.35-7.9,28.47Zm-104.15-61.86c4.44,6.09,8.07,12.19,8.27,19.55,1.97-5.98-2.31-16.09-8.27-19.55Z"/>
  </g>
</svg>