<?xml version="1.0" encoding="UTF-8"?>
<svg id="Layer_2" data-name="Layer 2" xmlns="http://www.w3.org/2000/svg" viewBox="0 0 286.97 277.56">
  <g id="Layer_1-2" data-name="Layer 1">
    <path d="M165.72,277.45c-15.6-.85-28.95-2.57-41.63-7.58-12.15-4.8-22.94-11.6-32.12-20.8-4.47-4.48-10.14-7.23-15.92-9.72-3.37-1.45-6.81-2.83-10.31-3.94-15.66-4.98-24.91-15.33-27.96-31.06-.52-2.67-1.33-5.32-2.29-7.87-3.35-8.86-9.71-14.14-19.51-15.25-4.61-.52-8.79-2.02-12.05-5.41-5.13-5.33-5.26-12.83-.33-18.32,.49-.55,1.04-1.09,1.38-1.73,4.85-9.19,12.48-15.71,21.58-20.56,6.17-3.29,12.54-6.38,19.13-8.72,14.38-5.11,22.38-15.13,24.99-29.43,1.44-7.87,2.34-15.83,3.34-23.77,2.03-16.02,5.79-31.54,14.54-45.47C97.07,14.3,108.87,4.72,125.1,1.29c19.04-4.02,35.23,1.47,48.6,14.95,9.69,9.77,14.88,21.86,17.15,35.06,1.27,7.41,1.41,15,2.22,22.49,.51,4.69,.72,9.53,2.13,13.99,3.2,10.09,9.95,16.97,21.09,18.71,3.7,.58,7.54,.26,11.28,.66,9.99,1.05,18.72,4.78,25.03,12.6,2.28,2.83,3.67,6.33,5.47,9.53,.39,.69,.65,1.51,1.2,2.04,4.56,4.33,5.11,9.59,3.51,15.18-1.89,6.61-6.41,11.2-12.55,14.37-4.7,2.43-9.73,3.95-14.97,4.73-1.91,.28-2.96,1.11-3.66,2.86-1.64,4.1-2.73,8.28-2.23,12.69,1.04,9.05,5.92,14.23,15.38,15.63,7.86,1.16,13.31,5.06,16.97,11.8,1.09,2.02,2.71,3.84,4.38,5.47,6.33,6.2,12.81,12.26,19.18,18.42,1.94,1.88,2.16,4,.89,5.57-1.29,1.59-3.52,1.85-5.72,.36-7.86-5.32-16.2-4.96-24.48-1.54-9.51,3.92-18.9,8.14-28.16,12.58-11.85,5.68-23.53,11.68-35.24,17.63-2.05,1.04-4,2.36-5.8,3.78-6.78,5.33-14.54,7.22-21.04,6.61Zm35.87-169.13c-.15-.26-.19-.4-.28-.47-9.73-7.21-14.1-17.07-14.92-28.67-.53-7.52-.7-15.09-1.69-22.55-1.55-11.66-5.49-22.55-12.95-32.01-11.98-15.19-30.72-21.26-49.03-15.64-13.22,4.06-22.66,12.72-29.33,24.3-7.78,13.5-10.95,28.32-12.82,43.52-1.01,8.2-2,16.44-3.79,24.5-3.22,14.52-11.88,24.96-26.24,30.61-2.73,1.07-5.47,2.11-8.17,3.25-13.72,5.8-26.35,12.88-32.92,26.71,2.68-.32,5.59-.9,8.51-.98,18.41-.54,34.77,5.11,49.29,15.95,7.59,5.66,12.93,13.2,17.9,21,2.16,3.39,4.19,6.86,6.33,10.39,.08-.25,.18-.39,.15-.49-2.32-7.41-5.61-14.28-11.15-20.04-4.25-4.42-8.21-9.11-12.28-13.69-.33-.38-.53-.87-.67-1.11,3.78,3.24,7.58,6.6,11.49,9.83,5.03,4.16,9.33,8.9,11.96,14.83,1.57,3.54,2.77,7.23,4.04,10.89,2.18,6.33,4.31,12.68,8.88,17.89,.54,.62,1.11,1.21,1.99,2.18-1.64-14.96-5-28.82-12.32-41.61,2.09,3.09,4.01,6.24,5.6,9.54,4.46,9.26,6.7,19.13,8.19,29.19,.48,3.28,1.09,6.54,1.73,9.8,.18,.91,.44,1.97,1.04,2.63,7.01,7.68,15.31,13.74,24.9,18.05,16.97,7.62,34.5,8.29,52.41,3.8,5.4-1.35,10.37-3.65,15.16-6.4-.44-.08-.85-.07-1.24,.01-11.1,2.41-21.65,.85-31.72-4.14-14.16-7.02-24.24-18.1-32.47-31-.09-.14-.06-.35-.09-.59,.19,.09,.33,.11,.38,.19,.44,.6,.86,1.2,1.29,1.8,6.28,8.84,13.4,16.89,22.42,23.24,12.52,8.82,26.23,12.23,41.53,9.15,6.55-1.32,12.18-4.71,18.26-7.09,1.08-.42,2.12-.96,3.17-1.44-7.44,.87-14.72,.45-21.98-.9-15.46-2.88-28.44-10.28-39.53-20.89-17.15-16.43-29.05-36.16-37.74-57.86-.09-.23-.06-.5-.13-1.25,.4,.84,.59,1.19,.75,1.55,6.36,14.14,14.46,27.26,24.31,39.35,8.97,11,18.9,21.11,31.75,27.82,20.48,10.7,41.45,13.03,62.95,2.48,7.3-3.58,14.9-6.45,23.29-6.78-.69-.33-1.38-.61-2.08-.65-4.03-.23-8.08-.7-12.1-.54-6.57,.27-13.12,.98-19.68,1.49-13.55,1.06-26.2-1.52-37.58-8.98-3.53-2.31-6.79-5.01-10.55-7.81,.8-.11,.95-.19,1.03-.14,.4,.26,.79,.53,1.16,.83,13.87,11.04,29.72,14.64,47.36,12.58,8.35-.97,16.81-1.01,25.23-1.39,1.55-.07,3.13,.26,4.69,.4,.07-.15,.14-.3,.22-.45-4.66-2.76-8.19-6.52-10.52-11.25-2.82-5.73-7.51-7.46-13.71-6.7-7.29,.88-14.51,.19-21.61-1.59-15.79-3.95-28.27-12.77-37.78-25.43-16.6-22.1-23.21-46.8-19.29-74.02,.24-1.65,.57-3.29,.93-4.92,.34-1.52,.77-3.03,1.17-4.54,.31,.47,.3,.87,.25,1.26-2.62,19.62-.88,38.77,6.74,57.22,7.14,17.29,17.9,31.79,34.88,41.23,2.55,1.42,5.3,2.49,7.95,3.73-17.54-17.59-11.35-36.82-1.91-45.17-.62,.92-1,1.45-1.35,2-7.61,12.06-8.04,24.23-.53,36.48,2.97,4.84,6.91,8.45,12.99,9.11,3.27,.36,6.53,.72,9.8,1.07,.33,.03,.67-.09,1-.14-2.11-1.05-4.25-1.84-6.07-3.08-8.52-5.81-12.26-14.22-12.69-23.99-.46-10.49,3.4-19.86,9.07-28.6,3-4.62,6.7-8.6,11.46-11.59,4.18-2.63,8.42-2.92,12.78-.47,1.15,.65,2.31,1.29,3.57,1.99-2.16-9.14-7.8-15.21-16.41-18.8-5.14-2.14-10.57-2.56-16.08-2.81-5.6-.25-11.29-.27-16.75-1.33-12.72-2.49-21.48-9.72-24.15-22.4-1.24-5.89-1.31-12.05-1.53-18.1-.33-9.14-.51-18.27-2.4-27.28-1.84-8.78-5.1-16.88-11.55-23.47-1.89-1.93-3.99-3.65-6.09-5.56,2.97,1.19,7.25,4.77,10.05,8.18,5.31,6.46,8.11,14.01,10.01,21.93,2.31,9.62,2.55,19.43,2.96,29.24,.21,4.98,.61,10.02,1.69,14.88,2.23,10.02,9.17,15.82,19.16,18.72ZM14.96,166.95c.01-.2,.02-.39,.03-.59,3.5,0,7.04-.33,10.49,.07,8.25,.94,14.31,5.16,16.91,12.94,1.4,4.19,1.85,8.71,2.36,13.13,.47,4.1,.06,8.32,.73,12.38,1.86,11.24,8.65,18.69,19.45,22.87,6.54,2.53,13.02,5.22,19.54,7.82,.13,.05,.32-.06,.41-.08-1.36-2.46-2.9-4.78-3.98-7.28-3.48-8.11-6.9-16.25-10.14-24.45-3.3-8.34-6.36-16.77-11.98-24.01-3.3-4.25-6.93-7.95-12.29-9.93-11.85-4.38-23.9-6.27-36.46-3.73-2.85,.58-3.33,1.7-1.57,4.04,.59,.79,1.35,1.61,2.23,2.02,1.64,.78,3.38,1.63,5.15,1.84,13.84,1.64,22.49,9.22,26.86,21.85,.12,.35,.32,.68,.48,1.01,.17-.04,.34-.08,.51-.11-.63-4.12-.96-8.32-1.97-12.35-1.34-5.39-3.72-10.34-8.85-13.48-4.01-2.46-8.47-3.32-13.1-3.62-1.6-.1-3.2-.22-4.81-.33Zm167.46,97.88c-9.55,1.99-19.18,2.49-28.8,.83-23.39-4.03-41.74-15.62-54.25-35.38-5.67-8.96-10.64-18.34-16.03-27.47-4.91-8.31-10.69-15.99-18.16-22.35-.66-.56-1.35-1.08-2.03-1.62,5.35,8.41,8.88,17.42,12.24,26.53,2.01,5.45,4.15,10.87,6.55,16.17,4.36,9.64,9.58,18.74,17.93,25.8,5.88,4.97,12.19,9.3,19.1,12.77,15.87,7.95,32.9,10.48,50.55,10.18,5.11-.09,9.18-2.22,12.89-5.46Zm40.62-79.26c-.05-.37-.09-.75-.15-1.12-.07-.46-.17-.92-.22-1.38-.95-7.86,.97-15.17,4.97-21.88,6.51-10.92,14.04-20.82,28.72-22.73-1.11-.98-1.91-2.07-3-2.57-2.27-1.06-4.66-1.91-7.07-2.66-2.67-.83-5.46-.66-7.71,.92-2.63,1.85-5.3,3.88-7.3,6.33-6.74,8.23-10.54,17.74-11.75,28.17-.69,5.95,.41,11.65,3.52,16.93Zm33.05-42.98c-7.14-.87-18.08,7.86-22.45,16.2,6.04-.94,11.71-2.57,16.57-6.19,3.34-2.49,5.56-5.65,5.89-10Zm-110.4-39.11c.01,6.7-.44,13.35-2.95,19.67-.9,2.26-2.14,4.5-3.69,6.39-3.13,3.81-7.52,3.83-10.98,.31-3.34-3.4-4.86-7.69-5.92-12.13-3.02-12.66-3.44-25.37,.11-37.99,.81-2.9,2.2-5.8,3.97-8.24,3.32-4.57,7.53-4.53,11.23-.25,3.4,3.94,5.14,8.68,6.06,13.62,1.15,6.14,1.83,12.37,2.71,18.56-.18,.02-.36,.05-.54,.07Zm-11.25,11.6c-.14-.02-.27-.03-.41-.05-.06-1.11,0-2.25-.21-3.33-.16-.83-.66-1.6-1-2.39-.71,.62-1.74,1.11-2.08,1.88-1.43,3.21-1.53,6.6-.7,9.98,.49,1.99,1.27,4.01,3.71,4.25,2.33,.23,3.55-1.52,4.48-3.26,2.62-4.92,2.92-10.2,2.29-15.58-.08-.66-.83-1.25-1.26-1.88-.66,.49-1.4,.91-1.96,1.49-.35,.36-.49,.95-.64,1.46-.75,2.47-1.47,4.95-2.2,7.43Zm8.39-62.87c-.15-4.98,.48-9.87,2.43-14.49,.72-1.7,1.72-3.36,2.92-4.78,2.58-3.05,5.69-3.03,8.42-.13,2.49,2.65,3.61,5.94,4.38,9.35,1.69,7.51,1.67,15.01-1.02,22.29-.86,2.32-2.25,4.6-3.91,6.47-2.51,2.83-5.85,2.57-8.3-.33-3.53-4.17-4.36-9.25-4.91-14.39-.14-1.32-.02-2.67-.02-4Zm10.37-9.04c-.63-.78-1.47-2.46-2.86-3.32-1.05-.65-4.99,2.6-5.05,3.82-.06,1.08,2.32,4.13,3.25,4.17,2.16,.09,4.57-1.86,4.66-4.67Zm-52.1,11.28c.14-5.13,.83-10.14,2.98-14.84,.85-1.86,1.98-3.68,3.37-5.2,2.27-2.49,5.18-2.4,7.52,.04,3.03,3.15,4.25,7.09,4.94,11.23,1.21,7.23,.94,14.38-1.82,21.27-.78,1.95-1.93,3.86-3.32,5.46-2.7,3.1-5.85,2.95-8.52-.16-2.78-3.24-3.86-7.17-4.52-11.21-.36-2.17-.42-4.38-.62-6.57Zm10.68-8.89c-.63-.78-1.42-2.53-2.78-3.21-1.32-.67-4.88,2.44-4.9,3.83-.02,1.33,2.16,4.11,3.23,4.14,2.1,.05,4.45-2.03,4.44-4.76Zm-32.42,68.44c-3.89,9.67-10.38,17.08-20.24,21.31-4.25,1.82-8.7,3.2-13.1,4.66-6.49,2.15-12.59,4.92-17.33,9.95-.28,.3-.46,.68-.68,1.03,.12,.13,.24,.26,.35,.38,.51-.31,1.07-.57,1.51-.95,4.08-3.59,8.79-6.09,14-7.75,3.19-1.02,6.37-2.03,9.54-3.08,8.7-2.89,16.24-7.4,21.51-14.96,3.02-4.34,5.09-9.07,5.87-14.3-.47,1.24-.93,2.49-1.42,3.72Z"/>
  </g>
</svg>