<?xml version="1.0" encoding="UTF-8"?>
<svg id="Layer_2" data-name="Layer 2" xmlns="http://www.w3.org/2000/svg" viewBox="0 0 297.13 230.71">
  <defs>
    <style>
      .cls-1 {
        fill: #1e141f;
      }
    </style>
  </defs>
  <g id="Layer_1-2" data-name="Layer 1">
    <path class="cls-1" d="M293.2,154.45c-2.26,.11-3.93-.6-5.48-1.73-1.47-1.08-2.43-2.43-3.23-3.87-2.84-5.14-3.16-10.29-.81-15.67,2.2-5.04,3.6-10.24,2.66-15.66-.96-5.57-3.71-10.44-8.84-14.36-2.64-2.01-4.88-1.62-6.46,.96-.86,1.4-1.7,2.83-2.81,4.1-6.71,7.63-17.67,9.73-26.94,5.14-5.37-2.66-8.57-6.68-10.61-11.35-4.73-10.83-5.65-22.14-6.57-33.45-.65-8.06-.64-16.16-2.37-24.16-2.52-11.6-8.15-22.02-18.41-30.64C194.21,6.09,183.18,1.19,169.94,.2c-17.01-1.26-31.45,3.34-43.11,13.31-10.6,9.06-15.51,20.23-18.21,32.15-1.92,8.49-2.9,17.1-5.19,25.54-2.53,9.3-5.67,18.43-11.74,26.72-4.2,5.74-9.39,10.77-16.45,14.47-4.55,2.38-9.34,3.37-14.73,2.17-3.09-.69-6.25-1.18-9.46-1.37-7.97-.48-15.33,.8-21.4,5.18-8.16,5.89-9.42,15.69-3.06,23.85,1.2,1.54,.74,1.95-1.11,2.55-6.53,2.12-13.21,2.65-20.02,1.28-2.58-.52-5.02,.54-5.29,3.12-1,9.42,2.97,17.19,11.91,23.35,6.41,4.42,13.99,6.18,22.31,6.35,11.04,.23,16.64,3.63,19.98,12.03,.31,.77,.63,1.54,.87,2.33,1.05,3.39,3.39,6.15,6.48,8.55,2.88,2.24,6.15,4.07,9.6,5.7,8.23,3.89,17.24,6.1,26.43,7.94l11.78,1.88c11.81,1.21,23.58,2.58,35.25,4.49,.52,.08,1.07,.26,1.48,.52,7.58,4.88,16.43,7.19,25.93,8,12.8,1.09,25.36,0,36.9-4.65,6.57-2.64,13.36-4.86,19.92-7.48,1.16-.77,2.55-1.26,4.05-1.83,.22-.08,.44-.17,.66-.26,.21-.11,.41-.23,.62-.34,.6-.6,1.2-1.19,1.83-1.77,3.75-4.05,7-8.26,9.21-13.11,.2-.43,.38-.87,.57-1.3,.06-.4,.12-.79,.21-1.18,.44-1.89,1.24-3.7,1.76-5.58,.56-2.02,.84-4.07,1.62-6.05,.76-1.92,.98-3.75,.99-5.76,0-.35,.08-.65,.22-.93,.02-.38,.05-.77,.11-1.17,.16-1.08,.46-1.33,1.84-.99,4.38,1.06,8.9,1.75,13.46,1.18,15.55-1.96,24.59-10.11,30.58-20.96,1.21-2.19-.45-3.84-3.53-3.69Zm-180.19,59.01c-7.71-1.02-15.47-1.88-22.93-3.77-9.08-2.3-17.82-5.22-24.94-10.51-2.22-1.65-3.86-3.59-4.65-5.97-1.34-4.02-3.16-7.84-6.43-11.18-3.74-3.82-8.63-5.88-14.56-6.53-4.41-.49-8.91-.47-13.24-1.45-11.8-2.68-19.03-8.81-21.64-18.38-.32-1.19-.86-2.82,.18-3.58,.86-.63,2.22,.77,3.38,1.22,5.83,2.25,12.13,3.34,18.26,4.85,9.53,2.35,19,4.77,27.42,9.21,6.77,3.57,11.87,8.05,13.46,14.7,2.11,8.86,9.5,13.53,19.97,15.74,4.78,1.01,9.86,.8,14.48,2.16,9.04,2.66,16.82,6.81,22.28,13.34,.42,.5,1.16,.86,1.25,1.7-4.14-.52-8.22-1.02-12.28-1.56Zm40.29,8.27c5.91-1.52,10.07,.13,13.52,3.43-4.7-.39-8.94-1.82-13.52-3.43Zm110.33-47.01c-4.32-.13-8.23-1.41-11.91-3.09-5.83-2.65-10.88-6.06-14.99-10.33-2.08-1.71-3.73-3.66-5.14-5.76,0,0,.02,.02,.02,.02-.19-.26-.38-.51-.57-.77-5.74-7.07-9.27-14.91-12.08-22.94-5.89-16.81-8.57-33.93-7.41-51.4,.14-2.12,.02-4.26,.02-5.5-1.17,8.09-2.19,17.08-1.62,26.11,.73,11.52,3.1,22.85,6.89,33.99,.12,.36,.14,.73,.21,1.1,.38,.24,.43,.58,.41,.93,.59,.8,.93,1.67,1.08,2.59,.97,2.13,1.94,4.25,2.91,6.38,5.03,9.39,11.16,18.18,21.17,24.87,1.19,.79,2.46,1.49,3.7,2.24,.24,.09,.48,.19,.72,.28-.07,.04-.14,.07-.2,.1,.29,.26,.51,.56,.65,.9,.05,.22,.09,.43,.14,.65,.03,.34-.04,.65-.22,.95-.07,.2-.18,.38-.33,.54-.01,.05-.03,.09-.05,.14,.03,.26,.01,.55-.08,.85-.15,.5-.31,1.01-.48,1.53-.04,.55-.09,1.1-.16,1.64-.02,2.26-.16,4.53-.92,6.68-.03,.18-.07,.36-.1,.55,.01,1.25,0,2.49-.29,3.75-.16,.71-.39,1.37-.69,2.01,.14,3.27-3.06,6.16-4.92,8.86-2.37,3.44-4.85,6.72-8.88,9.08-2.5,1.47-5.15,2.75-7.89,3.92-.32,.19-.64,.39-.96,.57-2.48,1.45-5.19,2.45-8.03,3.21-.62,.36-1.26,.72-1.91,1.06-.23,.2-.52,.39-.89,.54-.34,.14-.68,.27-1.03,.41,0,0-.01,0-.02,0-2.19,1.03-5.13,2.58-7.93,2.64-.46,.15-.92,.31-1.37,.48-.3,.11-.61,.15-.93,.15-.33,.09-.67,.17-1.03,.22-1.28,.46-2.6,.73-3.92,.66-1.04,.2-2.09,.35-3.12,.43-.21,.02-.41,.01-.6,0-6.38,.86-12.22-.36-17.31-4.56-2.09-1.73-4.76-2.8-7.52-3.72-4.72-.96-9.45-.54-14.22-.2-9.82,.7-18.29-1.3-24.25-8.1-1.85-2.1-4.22-3.85-6.52-5.64-7.16-4.6-15.23-7.59-24.7-8.77,16-4.22,27.63-12.56,38.2-22.29,10.6-9.76,18.18-20.55,20.81-33.7-1.02,.82-1.1,1.7-1.39,2.45-6.82,17.43-20.53,30.94-37.97,42.22-5.68,3.67-12.22,6.33-19.4,7.79-.82,.17-1.69,.2-2.54,.29-5.05,.79-9.93,.44-14.54-1.46-3.57-1.47-5.53-3.95-6.58-6.95-.69-1.98-1.34-3.96-2-5.94-1.95-3.65-5.06-6.61-8.63-9.3h0c-.59-.14-1.04-.43-1.37-.83-1.87-.98-3.74-1.95-5.61-2.93-3.67-1.53-7.33-3.06-11.49-4.8,3.26-.17,6-.31,8.74-.46,15.69-.89,28.91-6.05,40.07-14.77,.22-.17,.5-.29,.75-.43,7.4-6.33,13.88-13.18,18.68-20.98,3.38-5.49,6.22-11.16,8.44-17.02,.18-.47,.24-.97,.36-1.45-1.37,.28-1.35,1.3-1.76,2.1-.9,1.74-1.22,3.72-3.15,5.04l-.03,.03c.56,.44,0,.74-.23,1.08-4.65,8.35-10.7,16-18.11,22.95-6.82,6.4-14.39,12.08-24.05,15.71-9.29,3.49-19.2,4.59-29.33,4.49-7.38-.07-14.72-.7-21.99-1.77-.29-.04-.56-.18-.84-.28-4.41-.41-8.58-1.53-12.8-2.6,3.74-.06,7.45-.02,11.13-.59,8.41-1.31,15.27-4.59,20.45-10.07,.27-.29,.67-.5,1.02-.74,.92-2.38,1.84-4.76,2.76-7.14-.35-2.58-.76-5.15-2.91-7.27-2.19-2.16-4.94-3.38-8.54-3.05-.2,.02-.56,.1-.59,.05-.15-.24,.15-.23,.33-.27,3.5-3.05,7.97-4.48,13-4.89,5.52-.45,10.92,.19,16.26,1.29,5.06,1.05,9.67-.08,14.11-1.96,10.1-4.26,16.98-10.95,22.25-18.85,6.16-9.22,9.22-19.22,11.71-29.37,2.2-8.96,3.07-18.11,5.67-27.01,2.82-9.66,7.64-18.56,16.47-25.73,6.74-5.47,14.82-9.18,24.33-10.71,.68-.11,1.39-.11,2.09-.16,9.61-1.42,18.6,.14,27.19,3.59,5.07,2.04,9.6,4.65,13.33,8.11,6.46,4.69,10.58,10.58,13.71,16.99,3.69,7.54,4.99,15.45,5.6,23.46,.26,3.43,.36,6.87,.53,10.31,.09,.62,.17,1.25,.26,1.87,.22,2.77,.79,5.51,.68,8.29l.03,.4c0,.61,0,1.23,0,1.84,1.04,2.37,.87,4.88,1.33,7.32,1.44,7.67,2.93,15.36,8.11,22.1,5.74,7.47,13.92,11.84,25.34,10.87,8.99-.77,15.34-4.9,19.83-10.99,.4-.54,.72-1.1,1.19-1.82,2.95,2.94,4.68,6.17,5.35,9.8,1.41,4.82,.07,9.44-1.56,14.04-.68,1.92-1.74,3.8-2.05,5.76-1.38,8.52,1.46,15.8,10.32,21.17,1.11,.29,2.22,.58,3.33,.87-3.46,8.31-17.04,16.43-26.98,16.12Zm-202.71-7.49c.73-.01,1.51-.08,1.37,.83-.59-.14-1.04-.42-1.37-.83ZM133.16,61.8c5.55,2.57,11.25,4.87,17.62,5.86,11.36,1.76,22.46,1.55,32.95-2.94,2.98-1.27,5.56-3,8.17-4.76-.9,3.06-3.06,5.51-6.18,7.27-1.88,1.06-2.45,2.04-2.32,3.89,.55,7.85-1.86,15-8.84,20.83-1.77,1.48-4.19,2.26-6.67,2.74-4.9,.95-9.83,.97-14.01-1.52-3.69-2.2-6.29-5.25-8.09-8.68-2.31-4.41-3.15-9.03-2.86-13.76,.08-1.29-.5-1.84-1.81-2.36-3.58-1.42-6.26-3.61-8.17-6.41,.07-.06,.14-.12,.21-.18Zm28.8,30.08c4.56,.01,6.95-.57,8.76-1.91,2.08-1.54,2.67-3.98,1.32-5.4-1.99-2.09-5.3-2.61-7.82-1.03-1.03,.65-1.5,.56-2.47-.04-2-1.24-5.15-.86-6.85,.64-1.56,1.38-1.5,3.56,.15,5.17,2.02,1.96,4.77,2.5,6.91,2.56Zm9.34-46.42c.04-2.35,.86-5.74,3.66-8.66,3.23-3.39,7.6-3.5,11.11-.31,5.9,5.36,5.76,16.01-.27,20.79-3.15,2.5-7.12,2.47-10.11-.17-3.33-2.95-4.41-6.55-4.39-11.65Zm-17.01,1.25c-.24,3.72-1.05,7.18-4.03,10.08-3.2,3.12-7.78,3.13-11.04,.04-5.42-5.11-5.3-15.41,.22-20.44,3.14-2.86,7.34-2.91,10.53-.03,3.3,2.98,4.07,6.66,4.32,10.35Zm28.13,95.24c-2.47,8.71-5.2,17.34-9.64,25.58-2.19,4.06-4.42,8.12-5.85,12.43-1.89,5.71-2.18,11.47-1.39,17.31,.08,.55,.1,1.11,0,1.69-1.99-4.04-2.82-8.21-2.45-12.55,.55-6.47,3.31-12.45,6.48-18.31,7.66-14.18,12.04-29.02,14.39-44.29,.34-2.2,.04-4.46,.98-6.6,.89,7.71-.45,15.28-2.06,22.85-.15,.63-.3,1.26-.46,1.89Zm-105.42-10.94c-2.94,.91-5.39,2.73-8.7,2.99,5.03-2.63,9.72-5.59,14.31-8.66,9.31-6.21,16.35-13.96,23.49-21.66,.43-.46,.48-1.31,1.61-1.19-2.69,5.1-6.79,9.5-10.78,13.95-4.79,5.36-10.96,9.57-17.6,13.39-.78,.39-1.55,.79-2.33,1.18Zm30.7-28.52c-.52-.47-.05-.61,.39-.76,.06,.32,.15,.65-.39,.76Zm9.18-17.84s.09,.1,.08,.15c0,.05-.08,.09-.12,.13,.01-.09,.02-.19,.03-.28Zm16.07-22.68c-.07-.13-.14-.27-.22-.4,.29-.09,.38,.04,.43,.23-.07,.06-.14,.12-.21,.18Zm-17.04,49.58c-.1-.04-.2-.09-.31-.13,.11,.03,.22,.07,.33,.1,0,0-.03,.03-.03,.03Zm83.46,27.87c.91,4.69,.31,9.17-.06,13.65-.7,8.45-1.21,16.9,1.21,25.24,1.34,4.62,4.08,8.77,7.12,12.8,.43,.57,1.22,1.04,.71,2.02-5.01-3.94-8.44-8.51-10.15-13.88-2.14-6.72-1.71-13.57-1.2-20.38,.48-6.43,1.54-12.83,2.37-19.46Zm32.74-20.01c-.12-.14-.24-.28-.36-.42,.06-.03,.13-.06,.19-.1,.06,.17,.12,.34,.18,.51,0,0-.01,.01-.01,.01Z"/>
  </g>
</svg>