<?xml version="1.0" encoding="UTF-8"?>
<svg id="Layer_2" data-name="Layer 2" xmlns="http://www.w3.org/2000/svg" viewBox="0 0 251.98 237.13">
  <g id="Layer_1-2" data-name="Layer 1">
    <path d="M176.78,195.3c-1.29,2.47-2.34,4.81-3.72,7.04-7.19,11.62-19.55,17.65-36.92,18.17-3.28,.1-6.56,.14-9.84,.25-2.75,.09-4.24,1.16-5.06,3.13-2.29,5.45-6.49,9.85-14.05,11.92-10.67,2.92-20.07,.83-28.26-4.55-4.96-3.26-8.47-7.32-10.89-11.88-2.68-5.04-6.98-6.92-14.42-6.57-5.85,.28-11.75,.81-17.56,.51-12.57-.65-22.05-7.3-24.31-16.49-2.59-10.51,1.72-19.82,9.74-28.32,5.06-5.36,10.7-10.42,16.01-15.66,2.62-2.58,4.49-5.41,4.38-8.75-.12-3.57-3.03-5.3-7.81-4.62-3.72,.53-7.41,1.42-11.15,1.52-9.74,.28-17-5.67-15.95-12.77,.18-1.23-.02-2-1.6-2.82-7.23-3.73-7.09-12.16,.15-16.28,4.57-2.6,9.89-3,15.47-2.88,5.51,.13,11.18,.6,16.52-.12,9.66-1.31,16.15-6.28,21.51-11.99,7.51-8.01,11.94-17.01,14.4-26.44,2.88-11.05,4.97-22.22,7.38-33.34,2.05-9.47,6.32-18.18,16.19-24.87C107.98,2.02,121.31-.6,135.95,.11c11.52,.57,21.89,3.48,30.53,9.25,9.6,6.41,14.48,14.62,15.89,23.88,1.26,8.31,1.68,16.68,2.7,25.01,1.18,9.67,3.46,19.18,8.16,28.31,5.68,11.04,16.41,18.36,30.99,22.94,4.76,1.49,9.58,2.92,14.15,4.68,7.23,2.78,12.32,6.89,13.45,13.11,.97,5.36-2.61,8.43-9.97,8.34-2.93-.03-5.86-.27-8.79-.47-4.66-.32-8,1.7-7.46,5.09,.39,2.45,1.35,5.04,3.03,7.14,6.79,8.47,6.68,17.02,1.86,25.9-1.68,3.1-3,6.33-4.08,9.57-4.17,12.56-22.41,19.7-39.6,15.35-3.33-.84-6.55-1.9-10.04-2.92Zm-127.48-53.24c3.2-3.9,6.58-7.74,9.55-11.73,2.91-3.92,5.41-8,8.09-12.01,.17,.25,.16,.44,.09,.61-5.02,11.23-12.59,21.49-22.2,30.96-6.86,6.76-14,13.38-20.58,20.28-6.96,7.29-10.89,15.33-9.48,24.47,1.12,7.26,7.63,13.62,17.04,15.41,4.25,.81,8.88,.88,13.32,.75,6.93-.2,13.94-1.65,20.49,1.84-1.77-10.1-1.54-19.92,1.93-29.6,.13,.63,0,1.25-.09,1.87-1.55,10.6-1.56,21.14,2.92,31.42,2.78,6.39,7.49,11.83,15.45,15.44,12.36,5.62,26.41,2.21,31.73-7.69,.66-1.23,1.27-2.5,1.61-3.8,2.11-7.95,3.93-15.94,6.28-23.84,1.31-4.41,3.46-8.68,5.23-13.02,.33,.06,.66,.13,.99,.19-3.6,9.36-5.56,18.92-6.72,27.54,2.4-1.48,5.52-3.37,8.59-5.3,5.7-3.57,11.03-7.53,17.15-10.67,8.9-4.56,18.77-5.03,28.86-1.92,2.7,.83,5.38,1.73,8.16,2.41,14.36,3.57,29.48-1.34,34.28-11.24,2.6-5.35,4.96-10.78,7.05-16.25,4.15-10.88-.3-19.18-13.26-25.33-1.59-.76-3.22-1.47-4.86-2.18-16.98-7.33-27.79-17.83-30.84-32.3-.09-.41-.08-.84-.12-1.26,.76,1,1.13,2.03,1.55,3.05,3.09,7.54,7.47,14.55,14.95,20.39,7.44,5.81,17.25,9.02,26.32,13.57-.24-.97-.38-1.59-.55-2.21-1.58-5.67,3.38-9.77,11.25-9.31,2.84,.17,5.67,.39,8.52,.43,4.7,.07,6.45-.96,6.24-5.3-.06-1.17-.62-2.37-1.25-3.46-2.47-4.28-7.14-6.98-12.79-8.67-5.02-1.5-10.27-2.57-15.42-3.84-3.5-.86-6.99-1.72-10.49-2.59,.07-.14,.13-.29,.2-.43,2.89,.49,5.77,.99,8.84,1.51-.18-.24-.2-.32-.26-.35-.59-.26-1.18-.52-1.77-.77-10.48-4.44-18.5-10.57-23.6-18.64-6.37-10.08-8.71-20.9-10.19-31.81-1.13-8.38-1.45-16.83-2.7-25.2-1.17-7.83-4.96-15.05-12.71-20.75-11.28-8.3-25.23-11.2-40.82-9.82-17.59,1.56-30.01,8.38-36.82,20.46-3.84,6.81-4.58,14.12-6.18,21.3-1.98,8.86-3.66,17.78-6.33,26.53-2.95,9.69-7.89,18.89-16.41,26.81-5.82,5.41-12.77,9.78-22.39,10.77-4.91,.5-10,.23-14.99,.06-4.21-.15-8.29-.1-12.14,1.31-4.34,1.59-6.97,4.85-6.51,7.98,.51,3.39,3.65,5.95,8.55,6.78,3.67,.62,7-.23,10.15-1.56,.76-.32,1.5-.68,2.25-1.03-2.95,2.62-6.79,3.9-11.27,4.05-1.7,.06-2.44,.54-2.68,1.77-.64,3.35,.64,6.14,4.24,8.29,4.35,2.59,9.25,2.26,14.31,1.47,3.95-.62,7.95-1.25,11.97-1.4,5.45-.2,7.88,1.63,8.3,5.57-.42-.55-.81-1.1-1.27-1.63-1.51-1.77-3.53-2.87-7.38-2.7,4.38,1.85,4.46,4.72,4.85,8.06,1.59-1.59,2.68-2.67,3.78-3.76Zm123.97,52.61c-.74-.15-1.21-.28-1.69-.34-7.42-.96-14.06,.59-20.08,3.63-9.63,4.85-17.57,11.03-24.97,17.6-.96,.85-1.63,1.87-2.46,2.84,10.94-.31,21.76,.04,31.32-4.48,9.58-4.53,14.53-11.31,17.88-19.23ZM105.17,61.42c.08-.64,.07-1.22,.24-1.77,.63-2.06,2.65-2.52,5.02-1.3,2.73,1.4,5.38,3.08,8.43,3.94,8.01,2.25,15.56,1.4,22.39-2.61,1.12-.65,3.29-1.26,4.26-.88,1.06,.41,1.9,2.01,1.79,3.03-.83,7.78-4.66,14.66-12.66,19.97-5.18,3.44-11.81,3.35-17.21,.01-7.12-4.4-10.31-10.32-11.73-16.87-.26-1.19-.37-2.39-.53-3.52Zm11.35,17.78c5.92,5.08,15.83,4.68,19.17-.71-5.89-4.2-13.7-3.95-19.17,.71Zm.14-43.59c-.06,4.19-1.15,8.19-4.53,11.67-4.03,4.16-9.39,3.94-12.08-.73-3.87-6.71-3.23-13.41,2.02-19.63,3.26-3.87,9.17-3.74,11.95,.31,1.72,2.52,2.28,5.46,3.36,8.22-.24,.05-.48,.11-.72,.16Zm-6.8-4.79c0-2.13-1.71-3.56-4.22-3.52-3.01,.05-5.24,1.97-5.27,4.54-.02,1.94,1.49,3.12,4.05,3.14,2.96,.03,5.43-1.86,5.44-4.17Zm44.62,8.65c-.56,1.69-1.3,4.61-2.54,7.4-.62,1.38-1.94,2.7-3.34,3.77-2.86,2.2-6.93,2.11-9.04-.48-1.8-2.21-2.99-4.8-3.71-7.34-1.03-3.64-.29-7.34,1.53-10.8,.81-1.55,2.09-3.09,3.66-4.26,3.05-2.27,6.6-2.02,9.41,.43,3.33,2.9,3.63,6.46,4.03,11.28Zm-17.24-5.01c.02,2.27,1.87,3.88,4.46,3.87,2.9,0,5.48-2.34,5.46-4.94-.02-2.41-2.1-4.18-4.81-4.11-2.74,.07-5.13,2.48-5.11,5.18Z"/>
  </g>
</svg>