<?xml version="1.0" encoding="UTF-8"?>
<svg id="Layer_2" data-name="Layer 2" xmlns="http://www.w3.org/2000/svg" viewBox="0 0 271.04 239.19">
  <g id="Layer_1-2" data-name="Layer 1">
    <path d="M99.59,216.81c-4.13-1.15-7.93-2.6-12.14-1.02-1.1,.41-2.24,.77-3.35,1.16-2.21,.77-4.36,.84-6.66,.08-2.36-.78-4.84-1.3-7.28-1.9-8.78-2.14-11.08-5.24-9.68-12.97,.4-2.21,.7-4.43,.91-6.65,.16-1.79,.09-3.59-1.38-5.04-2.37,1.1-4.61,2.24-6.94,3.21-13.54,5.63-22.9-2.07-25.51-10.52-1.18-3.82-1.04-7.64,.63-11.4,.33-.74,.17-1.66,.13-2.5-.09-1.68-.42-3.36-.35-5.03,.09-2.01-.92-3.33-2.86-4.24-.89-.42-1.82-.77-2.73-1.17-2.91-1.28-3.59-2.33-3.3-5.09,.03-.32,.05-.64,.08-.92-6.02-2.98-7.35-5.3-6.09-11.18,.43-1.98-.17-3.51-1.73-4.91-1.58-1.42-3.11-2.88-4.67-4.32-1.09,.33-2.13,.78-3.22,.94-2.58,.36-4.02-1.15-3.23-3.28,.06-.16,.09-.33,.19-.46,3.18-4.43,4.46-9.45,6.27-14.32,1.57-4.24,4.19-7.93,8.62-10.5,3.92-2.27,10.01-2.95,13.51,.33,1.6,1.5,3.89,1.1,5.95,.59,5.21-1.29,9.46-3.98,13.33-7.1,11.49-9.27,18.91-20.69,23.73-33.43,3.32-8.76,4.85-17.79,5.38-26.97,.64-11.04,4.68-20.82,14.52-28.39,6.63-5.1,14.55-7.92,23.27-9.12,11.89-1.63,23.41-.57,34.08,4.41,14.59,6.81,23.02,17.5,25.09,31.53,1.02,6.95,.69,14.04,1.27,21.04,1.67,20.08,11.05,36.74,30.39,48.74,5.9,3.66,12.45,6.18,19.99,6.02,4.98-.11,9.43-1.3,13.25-4.27,6.55-5.09,15.06-4.08,19.72,2.32,1.74,2.39,3.07,5.01,4.43,7.58,1.52,2.88,3.41,5.46,6.46,7.35,.86,.53,1.85,1.17,1.11,2.29-.71,1.06-1.89,1.42-3.1,.84-2.7-1.3-5.31-2.74-7.97-4.1-.46-.24-.99-.59-1.47-.57-7.08,.35-11.49,3.96-11.6,9.72-.04,1.94,.35,3.91,.75,5.84,1.57,7.44-1.15,13.52-7.72,18.44-.14,.11-.29,.22-.43,.33-2.97,2.38-3.25,4.51-.99,7.36,.54,.67,1.09,1.34,1.55,2.06,1.27,2.01,1.41,4.08-.05,6.05-.57,.78-.38,1.2,.24,1.82,1.77,1.78,3.42,3.65,5.21,5.42,.37,.36,1.14,.5,1.76,.57,1.94,.22,4,.08,5.83,.59,7.7,2.13,8.77,8.41,5.28,14.01-1.83,2.94-5.03,4.54-8.57,5.67-1.01,.32-2.05,.58-3.1,.8-7.17,1.46-12.81,4.83-17.22,9.86-1.9,2.17-4.05,4.21-6.25,6.17-4.2,3.74-9.33,5.87-15.47,5.75-4.72-.09-8.42,1.45-11.22,4.61-6.63,7.49-15.92,9.88-26.32,10.2-14.03,.44-26.92-2.73-38.84-8.97-.75-.39-1.36-.86-2.36-.23-5.96,3.77-12.76,5.57-20.07,6.03-8.61,.54-17.19,.39-25.61-1.44-1.7-.37-3.42-.95-4.89-1.76-4.6-2.55-4.44-7.61,.45-9.78,2.12-.94,4.69-1.37,7.11-1.55,5.09-.39,9.65-1.69,13.88-4.64ZM77.04,61.71c-.15,.42-.27,.72-.37,1.01-.07,.21-.13,.42-.21,.63-4.53,13.02-11.58,24.86-22.49,34.86-4.91,4.5-10.36,8.42-17.36,10.35-3.93,1.09-7.71,1.24-11.02-1.52-1.9-1.59-4.24-1.27-6.43-.41-3.98,1.57-6.58,4.35-8.07,7.74-2.07,4.72-3.75,9.57-5.72,14.7,3.57-3.67,6.93-7.12,10.27-10.55,.17,.08,.26,.1,.27,.13,.05,.43,.09,.87,.12,1.3,.42,5.9,1.95,11.29,8.13,14.95,2.29,1.36,3.48,3.61,3.57,5.94,.15,3.78,2.18,6.59,5.14,9.17,2.48,2.15,4.38,4.66,5.46,7.59,2.08,5.61,.7,10.56-4.31,13.45-2.32,1.34-3.13,3.05-3.39,5.15-.41,3.38,.23,6.62,2.14,9.65,3.68,5.86,9.91,8.07,17.02,5.4,4.44-1.67,8.44-4.19,12.6-6.38,1.46-.77,2.73-1.81,4.22-2.51,2.27-1.08,3.84-.63,5.06,1.3,.54,.86,1.01,1.77,1.31,2.71,1.09,3.37,3.46,5.22,7.72,5.04,.88-.04,1.77,.16,2.66,.22,6.56,.42,8.87,2.14,10.18,7.63,.05,.21,.07,.43,.12,.65,.58,2.46,1.92,4.51,4.46,5.85,1.51,.8,3.05,1.59,4.66,2.23,4.95,1.97,9.45,4.49,13.47,7.65,2.25,1.77,4.51,3.53,6.82,5.25,13.63,10.12,29.25,15.6,47.51,14.95,9.28-.33,17.33-2.81,23.13-9.4,.27-.3,.6-.57,.88-.86,2.9-2.93,6.72-4.43,11.08-4.4,7.37,.05,12.93-2.68,17.48-7.39,3.88-4.01,7.36-8.35,12.96-11.08-5.32-.46-10.35-.9-15.39-1.33l.06-.52c2.02,.15,4.03,.33,6.05,.43,7.4,.37,14.62-.47,21.6-2.59,3.67-1.11,6.4-3.1,7.45-6.47,1.24-3.98-1.1-7.02-5.88-7.43-1.7-.15-3.43,.03-5.14-.03-.55-.02-1.37-.19-1.6-.52-3.16-4.52-7.7-7.95-12.15-11.46-5.13-4.06-8.23-9.06-9.3-15-1.37-7.54,1.54-12.55,9.43-15.99,.74-.32,1.48-.64,2.2-.97,4.67-2.15,7.54-5.47,8.5-9.91,.45-2.08,.52-4.22,.76-6.33,.29-2.67,1.18-5.12,3.41-7.11,3.35-2.99,6.65-3.07,10.12-.22,1.45,1.19,2.88,2.41,4.32,3.62,.14-.06,.28-.13,.42-.19-2.16-3.28-4.1-6.69-6.54-9.81-2.14-2.73-5.57-3.15-9.05-2.12-1.57,.46-3.07,1.32-4.33,2.27-4.34,3.27-9.49,4.55-15.1,4.7-7.89,.2-14.89-2.25-21.22-5.98-14.35-8.45-23.99-19.95-29.33-34.11-3-7.96-3.9-16.18-4.14-24.5-.16-5.38-.18-10.85-1.33-16.11-3.07-14-12.44-23.9-28.11-29.05-8.75-2.87-17.84-3.14-27.08-1.88-17.2,2.33-30.41,13.36-32.92,28.09-1.12,6.57-1.56,13.22-2.33,19.84-1.27,11.01-2.21,22.06-3.93,33.02-1.83,11.7-4.07,23.38-6.72,34.97-4.51,19.74-11.54,38.91-18.55,58.08-.36,.99-.76,1.96-1.15,2.94-.38,.95-.76,1.9-1.14,2.85-.2-.05-.4-.09-.6-.14,15.07-39.7,26.43-80.06,29.62-121.99Zm17.52,150.49c.07-.12,.14-.25,.21-.37-.7-.56-1.37-1.16-2.11-1.69-3.36-2.42-6.91-4.66-10.06-7.26-4.89-4.03-11.51-4.88-17.25-7.69-.44,3.12-.7,5.92-1.25,8.69-.83,4.22,.6,6.36,5.4,7.64,3.21,.86,6.4,1.79,9.65,2.49,1.19,.25,2.7,.22,3.81-.2,3.72-1.4,7.4-2.65,11.6-1.62ZM25.56,150.85c-.02,.15-.04,.3-.06,.45-.17,.05-.35,.14-.52,.14-1.75,.04-2.43,1.02-2.67,2.31-.23,1.26,.65,1.9,1.9,2.3,.36,.11,.7,.26,1.05,.39,4.91,1.95,6.67,4.62,6.25,9.21-.09,.93,.19,1.88,.34,3.18,3.84-2.59,4.02-5.6,3.35-8.78-.73-3.45-2.95-6.23-5.73-8.69-2.49-2.2-4.52-4.57-4.93-7.72-.04-.31-.16-.7-.4-.9-2.56-2.08-5.15-4.12-7.73-6.17-.16,.09-.31,.18-.47,.28,1.57,2.13,.9,4.34,.49,6.53-.73,3.9,1.84,6.68,6.47,7.02,.9,.07,1.78,.31,2.67,.47Zm217.7-8.65c-1.62-.26-2.25,.58-2.43,1.7-.64,4.13-3.42,7.11-6.75,9.94-1.75,1.49-3.34,3.39-4.16,5.36-.8,1.94-1.26,4.42-.54,6.29,.8,2.07,3.11,3.71,4.69,5.46,1.16-.63,1.92-1.05,2.77-1.51-.51-.63-1-1.25-1.52-1.87-3.38-4.02-3.01-7.91,1.08-11.43,.45-.39,.9-.77,1.36-1.14,4.84-3.9,7.22-8.53,5.85-14.42-.13,.58-.24,1.05-.37,1.62Zm-36.06,69.46c-5.96-.31-12.02-.15-17.85-1.06-22.85-3.57-41.39-13.26-54.8-29.67-11.94-14.61-16.87-31.18-17.91-48.74-.25-4.16-.04-8.34-.04-12.5-2.08,16.91,.18,33.37,7.07,49.32,5.07,11.74,13,21.83,24.49,29.66,18.22,12.42,39.11,15.93,61.88,13-.95,0-1.9,.04-2.84,0ZM136.74,40.44c-.13,3.78-.62,7.19-2.59,10.26-.9,1.39-2.13,2.72-3.53,3.76-1.84,1.37-4.04,1.14-5.83-.33-2.79-2.3-3.94-5.27-4.51-8.44-.78-4.38-.53-8.7,1.57-12.81,.67-1.32,1.64-2.61,2.79-3.65,2.49-2.23,5.33-2.12,7.8,.13,2.4,2.19,3.38,4.94,3.96,7.82,.23,1.18,.26,2.38,.35,3.25Zm-10.38-4.36c1.42,.02,2.85-1.06,2.76-2.2-.1-1.25-.95-1.96-2.47-1.96-1.5,0-2.87,1.02-2.79,2.14,.09,1.31,1.11,1.85,2.5,2.02Zm-18.47,4.08c-.68,2.64-1.25,5.3-2.09,7.9-.36,1.12-1.15,2.19-1.98,3.13-2.84,3.22-6.27,3.21-9.03-.09-3.08-3.68-3.75-7.94-3.28-12.3,.23-2.19,.96-4.37,1.75-6.48,.45-1.21,1.34-2.36,2.29-3.35,2.66-2.79,6.11-2.67,8.59,.26,2.07,2.45,2.85,5.31,3.26,8.25,.12,.86,.1,1.74,.15,2.61,.12,.03,.24,.05,.36,.08Zm-7.04-4.81c1.03-1.19,2.04-1.85,2.13-2.59,.13-1.09-1.01-1.73-2.28-1.69-1.32,.03-2.23,.82-1.99,1.9,.15,.7,1.1,1.27,2.14,2.38Zm72.93,51.03c-.86-1.61-1.78-3.21-2.57-4.85-3.52-7.35-4.62-15.12-5.33-22.96-.63-7-1.13-14.02-1.94-21-.82-7.07-3.22-13.75-7.69-19.81-.38-.51-.82-1-1.22-1.5-.19,.38-.12,.62,.02,.83,4.88,7.17,6.97,15.03,7.78,23.18,.72,7.22,1.17,14.45,1.9,21.67,.62,6.03,1.75,12,4.5,17.63,1.17,2.4,2.69,4.68,4.05,7.02,.16-.07,.32-.14,.48-.21Zm-12.41,38.55c8.57,22.27,25.05,38.66,49.74,48.92-23.37-11.26-40.26-27.33-49.74-48.92Zm65.14,5.58c-10.69,1.22-19.81-1.96-28.34-6.92,7.4,6.43,19.9,9.67,28.34,6.92Z"/>
  </g>
</svg>