<?xml version="1.0" encoding="UTF-8"?>
<svg id="Layer_2" data-name="Layer 2" xmlns="http://www.w3.org/2000/svg" viewBox="0 0 241.06 255.8">
  <g id="Layer_1-2" data-name="Layer 1">
    <path d="M167.07,230.89c-5.69,13.38-14.81,22.7-29.15,24.56-14.28,1.85-25.69-3.43-33.17-16.74-3.73,1.79-7.47,4.01-11.47,5.42-8.91,3.16-18.02,3.91-27.17,.96-3.85-1.24-7.25-3.32-10.11-6.36-7.19,3.76-14.78,5.7-22.81,4.78-10.31-1.17-19.07-5.48-24.78-14.9-4.92-8.12-4-18.04,1.99-25.97,4.06-5.38,9.46-8.51,15.66-10.33,8.24-2.42,15.19-6.91,20.5-13.96,2.98-3.95,4.91-8.35,4.72-13.51-.07-1.99-.18-4.48-2.07-5.11-1.25-.42-3.32,.62-4.56,1.62-4.49,3.62-8.68,7.64-13.18,11.26-4.37,3.51-9.09,6.5-14.83,6.86-5.16,.32-9.79-1.34-13.79-4.67-3.8-3.16-3.79-8.3-.03-11.51,1.45-1.24,3.17-2.13,4.79-3.14,1.26-.78,2.55-1.5,3.82-2.26,3.96-2.36,5.76-5.71,5.57-10.67-.63-17.16,6.11-30.41,20.23-39.43,5.09-3.25,10.8-4.61,16.61-5.61,8.25-1.41,12.31-7.37,11.23-16.11-1.03-8.35-1.56-16.73-.62-25.14,1.95-17.55,9.05-32.4,21.95-43.93C99.69,5.13,115.11-1.04,132.76,.14c18.52,1.24,32.3,10.57,41.13,27.59,4.67,9,6.55,18.82,7.34,28.91,.66,8.42,.59,16.92,2.56,25.2,1.43,6.04,3.43,11.83,7.14,16.79,6.23,8.35,14.73,11.36,24.57,10.91,5.78-.26,10.77-2.36,14.75-6.98,2.83-3.28,7.35-2.41,8.89,1.76,.95,2.57,1.6,5.38,1.79,8.13,.91,13.67-2.75,25.91-11.9,35.87-8.21,8.93-18.5,13.3-30.48,12.67-1.97-.1-2.8,.57-3.54,2.29-3.32,7.76-2.26,15.08,2.21,21.88,1.95,2.97,4.42,5.59,6.8,8.24,3.32,3.71,5.94,7.76,6.59,12.91,.67,5.3-1.03,9.9-3.99,14.08-8.89,12.57-24.21,17.02-38.07,11.1-.45-.19-.9-.38-1.47-.61Zm21.31-85.4c.44,.33,.88,.65,1.31,.99,5.06,4,10.72,5.03,16.82,3.59,13.06-3.09,20.55-12.02,23.86-25.11,.79-3.12,.96-6.41,1.41-9.63-.95,.08-1.36,.33-1.77,.58-.42,.25-.84,.53-1.28,.74-9.38,4.56-18.99,4.38-28.53,.9-12.04-4.39-19.44-13.65-23.69-25.85-3.2-9.2-4.11-18.8-4.47-28.5-.33-9-1.44-17.87-4.74-26.3-6.83-17.45-20.53-27-38.62-26.88-9.5,.07-18.36,2.77-26.51,7.72-17.77,10.81-27.45,26.92-28.14,48.43-.21,6.71,.57,13.46,.92,20.19,.41,7.74-1.51,14.58-6.99,20.12-3.8,3.84-8.57,5.22-13.58,5.98-11.01,1.67-19.41,7.24-24.55,17.7-2.73,5.55-3.2,11.54-3.1,17.64,.07,4.83,.13,9.66-3.4,13.6,2.18-2.18,4.33-4.37,5.91-6.93,2.89-4.7,5.48-9.61,8.12-14.47,2.89-5.31,7.01-9.04,12.53-11.16,5.48-2.1,11.12-2.96,16.92-2.55,9.71,.69,17.31,7.3,19.55,16.96,1.1,4.76,1.06,9.58,.36,14.42-1.39,9.64-4.54,18.7-8.4,27.52-1.13,2.59-2.37,5.13-3.56,7.7,1.29-4.99,2.89-9.84,4.19-14.77,2.57-9.74,4.14-19.64,2.79-29.78-.9-6.76-3.92-12.14-10.03-15.2-9.08-4.55-22.46,.35-26.71,9.84-2.85,6.36-5.88,12.62-10.25,17.99-3.09,3.8-6.58,7.24-9.89,10.84,.37-.4,1-.63,1.48-1.05,4.65-4.01,9.28-8.06,13.91-12.1,2.71-2.37,5.27-4.96,8.16-7.06,3.26-2.36,6.65-1.66,9.04,1.65,1.11,1.55,2.06,3.35,2.62,5.18,2.12,6.99,1.08,13.77-2.12,20.13-5.71,11.34-14.85,18.45-26.34,22.58-3.15,1.13-6.53,2.07-9.25,3.96-9.56,6.64-9.48,17.01-.54,23.63,3.5,2.59,7.47,3.99,11.73,4.5,7.43,.88,14.14-1.38,20.47-5.18,9.47-5.69,16.66-13.87,22.87-23.06,8.87-13.13,15.34-27.58,21.39-42.27,.37-.9,.77-1.78,1.16-2.67-.75,3.05-1.67,6.01-2.65,8.94-3.92,11.71-7.99,23.34-13.61,34.32-4.06,7.94-8.85,15.38-14.49,22.21-2.02,2.46-2.54,3.62-.08,7.08,2.25,3.16,5.49,4.53,9.2,4.79,5.99,.42,11.31-1.71,16.32-4.79,10.67-6.55,19.95-14.9,28.4-24.27,2.86-3.18,5.53-6.55,8.29-9.84-.1,.62-.32,1.18-.65,1.67-2.69,4.1-5.34,8.22-8.11,12.25-2.06,3-4.46,5.77-6.37,8.86-4.65,7.5-2.74,16.14,4.73,20.49,8.25,4.8,16.82,5,25.21,.31,6.98-3.9,10.94-10.55,13.92-17.89,5.3-13.09,6.7-27,7.71-40.97,.35-4.84,.43-9.71,.64-14.57,.47,2.62,.67,5.25,.85,7.88,.93,13.93,1.24,27.86,.32,41.8-.08,1.18,.3,1.81,1.27,2.41,9.82,6.12,22.96,2.59,28.95-7.84,2.41-4.18,2.32-6.39-.56-10.28-.93-1.26-2.04-2.36-3.04-3.56-2.12-2.55-4.44-4.95-6.29-7.69-6.66-9.89-8.14-20.47-3.48-31.77,1.18-2.85,2.11-5.81,3.1-8.74,.62-1.84,.58-3.63-.64-5.41Zm-48.24-66.44c-.14,5.02-.96,9.85-3.61,14.17-4.17,6.78-11.08,7.16-15.89,.89-3.54-4.61-4.89-10.03-5.36-15.74-.08-1.01,.5-2.52,1.26-3.02,.59-.39,2.1,.15,2.89,.73,2.17,1.59,4.32,3.16,7.03,3.45,3.26,.35,6.15-.61,8.64-2.85,.65-.58,1.24-1.24,1.94-1.75,1.34-.97,2.69-.39,3.07,1.26,.04,.18,.05,.38,.06,.57,0,.76,0,1.53,0,2.29Zm-9.22,2.25c.9,1.57,1.7,2.98,2.52,4.38,.54,.92,1.7,1.34,2.03,.45,.46-1.28,.45-2.91,.16-4.28-.29-1.37-1.45-1.71-2.77-1.1-.6,.28-1.27,.37-1.94,.55Zm-24.51-11.19c2.82,4.14,6.56,4.05,9.25-.21,3.32-5.26,3.25-15.37-.13-20.59-2.97-4.59-7.18-4.44-9.8,.38-1.64,3.02-2.08,6.34-2.08,9.75,.03,3.81,.57,7.47,2.75,10.68Zm42.46-21.89c-2.7-4.12-6.5-4.13-9.17-.02-3.44,5.29-3.36,15.71,.16,20.91,2.81,4.15,6.84,4.04,9.41-.3,1.75-2.96,2.32-6.25,2.26-10.37,0-3.96-.86-7.46-2.66-10.21Z"/>
  </g>
</svg>