<?xml version="1.0" encoding="UTF-8"?>
<svg id="Layer_2" data-name="Layer 2" xmlns="http://www.w3.org/2000/svg" viewBox="0 0 248.01 292.95">
  <g id="Layer_1-2" data-name="Layer 1">
    <path d="M29.87,274.3c4.2-4.09,8.4-8.18,12.6-12.27-14.47,7.54-28.58,6.97-42.47-1.48,.23-.03,.46-.1,.68-.08,12.53,1.25,23.89-2.26,34.54-7.83,5.24-2.74,9.92-6.41,14.81-9.7,.78-.53,1.5-1.25,1.98-2.02,.49-.78,1.18-2.08,.84-2.52-.6-.77-1.93-1.47-2.94-1.45-1.99,.05-3.96,.61-6,.96,1.7-1.38,3.5-2.68,5.09-4.16,4.9-4.54,8.53-9.74,9.5-16.27,1.12-7.51-2.37-14.27-9.67-17.64-5.16-2.38-10.63-4.16-15.93-6.27-5.47-2.19-10.53-5.02-15.06-8.64-1.55-1.24-3.17-2.41-4.98-3.77,2.36-1.16,3.98-1.75,5.37-2.67,7.76-5.14,10.55-14.96,6.56-23.59-1.24-2.68-3-5.18-4.65-7.68-2.98-4.53-5.08-9.29-5.41-14.68-.17-2.75,.93-4.78,3.38-6.07,2.45-1.3,3.76-3.23,4.55-5.63,.95-2.87,1.94-5.74,2.95-8.59,1.05-2.95,3.18-4.78,6.44-5.69,10.18-2.86,19.22-7.71,26.57-14.79,3.23-3.11,5.45-7.2,7.82-11.01,7.19-11.55,11.61-24.05,14.47-37.08,1.45-6.59,2.84-13.25,5.17-19.59,4.39-11.9,12.93-20.24,26.57-23,12.49-2.53,24.17-.92,34,7.36,6.03,5.08,9.17,11.72,10.85,18.94,1.88,8.11,3.23,16.34,5.18,24.44,2.42,10.1,5.47,20.04,10.99,29.15,3.15,5.19,7.29,9.74,13.1,12.22,9.93,4.24,14.94,11.72,17.27,21.03,3.49,13.89,13.87,20.09,27.97,22.33,3.17,.5,6.4,.61,9.81,.92-.51,.51-.96,.97-1.41,1.41-2.96,2.9-4.97,6.3-6.49,10.03-1.27,3.11-2.76,6.15-4.32,9.15-2.1,4.05-5.55,7.05-9.26,9.82-6.94,5.19-8.47,10.84-4.82,18.42,1.14,2.37,2.57,4.67,4.18,6.8,1.49,1.96,1.83,3.97,1.17,6.13-.81,2.64-1.73,5.25-2.77,7.81-4.24,10.4-.13,21.16,10.27,26.78,5.49,2.97,11.48,4.21,17.77,4.45,.55,.02,1.11,.08,1.85,.55-1.47,.65-2.87,1.59-4.41,1.89-4.2,.82-8.44,1.49-12.69,1.98-3.81,.44-5.77,2.61-5.33,6.13,.59,4.68,3.77,7.86,7.37,10.6,1.05,.8,3.25,.54,4.87,.38,1.57-.16,3.07-.83,4.67-1.13-5.36,4.98-12.03,7.53-19.44,8.84,.03,.43,.01,.75,.08,1.05,.07,.32,.22,.62,.38,1.06-.74,.3-1.46,.59-2.19,.89,.01,.14,.02,.28,.04,.41h7.43c-1.17,1.29-1.96,2.33-2.93,3.19-6.79,5.92-15.02,9.41-23.77,11.97-8.67,2.53-17.54,3.66-26.65,3.71-3.35,.02-6.69,1.3-10.03,2-4.92,1.03-9.91,1.51-14.92,.88-6.94-.87-12.42-4.06-16.47-9.9-5.08,2.66-10.1,5.29-15.12,7.92-.08-.1-.16-.21-.24-.31,2.5-1.83,5-3.66,7.51-5.5-.04-.11-.09-.21-.13-.32-4.79,1.12-9.57,2.29-14.38,3.34-12.15,2.66-24.32,3.8-36.54,.24-6.51-1.9-12.17-5.12-17.38-9.11-1.09-.83-2.22-1.62-3.3-2.47-6.19-4.93-12.99-5.89-20.47-2.82-1.18,.48-2.46,.75-3.7,1.12-.13-.19-.27-.38-.4-.57ZM133.56,99.76c.08,0,.15-.02,.23-.03,0,3.08,.05,6.15,0,9.23-.35,20.29-1.57,40.57-.11,60.88,.61,8.5,.65,17.03,.87,25.55,.4,15.92,.81,31.85,3.6,47.61,1.46,8.26,3.2,16.47,4.92,25.22,.68-.9,.95-1.26,1.03-1.37,3.73,5.14,7.43,10.23,11.12,15.32,.16-.1,.32-.2,.48-.3-3.91-10.73-6.82-21.71-9.28-32.78-2.48-11.15-3.54-22.46-4.29-33.84,.74,.08,1.22,.12,1.68,.17,3.21,17.64,7.04,35.15,16.9,50.93-4.63-10.63-7.07-21.78-8.62-33.08-2.48-18.14-3.11-31.4-1.85-34.01,.3,10.31,1.67,20.43,4.01,30.43,2.81,12.07,6.39,23.96,12.93,34.77,8.43,13.93,17.24,16.24,31.83,15.28,.56-.04,1.1-.27,2.11-.54-14.56-2.5-25.15-9.17-31.02-21.57,5.11,6.07,10.58,11.77,18.3,15.16-13.48-11.46-17.62-26.66-19.79-42.67,.75,.51,1.31,1.12,1.53,1.82,1.06,3.39,1.85,6.87,3.07,10.21,2.39,6.56,5.81,12.59,10.76,17.89,6.04,6.47,15.14,7.54,22.63,11.43,1.18,.62,2.86,.41,4.32,.58,1.69,.19,3.38,.37,5.07,.55,.04-.19,.08-.38,.12-.57-1.58-.38-3.19-.68-4.73-1.14-7.97-2.4-14.25-7.08-19.6-12.88-8.13-8.8-12.13-19.37-14.68-30.5-3.58-15.64-4.67-31.52-5.06-47.45-.44-17.63-.39-35.27,1.71-52.84,.48-4.06,1.25-8.09,1.89-12.13-.77,24.43,1.95,48.56,5.36,72.68,1.46-.5,2.77-.95,3.92-1.34,1.89,15.24,3.59,30.99,12.63,44.96,.22-.23,.3-.44,.23-.59-2.44-5.62-2.4-11.56-2.41-17.44-.02-11.56,3.17-22.66,6.05-33.81,1.87-7.23,3.94-14.5,4.77-21.86,.82-7.21,.18-14.56,.18-21.85,.87,3.87,1.68,7.79,2.06,11.74,1.01,10.35-.69,20.52-2.69,30.65-1.48,7.48-2.78,14.98-1.88,22.64v-5.73c.72,2.11,1.7,5.08,2.75,8.02,.97,2.7,2.24,5.33,2.97,8.09,1.44,5.43,2.87,10.85,6.34,15.52,1.43,1.93,3.36,3.55,5.06,5.31,.15-.13,.3-.26,.45-.39-.42-.43-.87-.84-1.25-1.31-5.72-7.06-8.41-14.61-4.44-23.29,1.07-2.34,1.98-4.76,2.9-7.16,.85-2.22,.64-4.25-.88-6.31-1.67-2.26-3.34-4.64-4.29-7.19-1.03-2.78-1.73-5.83-1.7-8.76,.06-4.66,3.22-8.06,6.95-10.78,5.44-3.97,9.05-9.07,11.73-14.89,2-4.35,4.26-8.6,6.38-12.85-12.58-.69-24.08-4.31-31.76-15.52,.15,1.76,.26,3.1,.38,4.44-1.13-3.14-1.75-6.32-2.49-9.48-2.42-10.3-6.8-19.17-18.18-23.74-3.03-1.21-5.35-3.97-7.97-6.04-.37-.3-.6-.75-.89-1.13l-.48,.38c1.4,2.61,2.8,5.22,4.21,7.83-.53-.1-.81-.31-1-.57-.64-.87-1.3-1.72-1.85-2.63-8.58-14.05-14.59-28.99-17.92-44.84-1.54-7.31-2.65-14.73-4.72-21.92-6.51-22.6-34.46-30.87-54.03-16.13-6.66,5.02-10.49,11.84-12.72,19.31-2.25,7.55-3.68,15.31-5.68,22.93-2.97,11.34-7.4,22.11-15.17,31.47-1.51,1.81-3.13,3.54-4.7,5.31,.14,.11,.27,.22,.41,.34,2.76-2.73,5.52-5.46,8.28-8.19-.44,1.16-1.1,2.19-1.86,3.16-9.17,11.59-20.91,19.87-35.84,24.12-1.58,.45-3.58,1.38-4.22,2.61-1.84,3.52-3.08,7.31-4.55,10.99,.22,.18,.45,.36,.67,.55,6.95-8.07,16.17-9.94,26.48-8.83-2.33,.4-4.72,.63-7.05,1.05-4.27,.77-8.68,1.17-12.29,3.83-4.59,3.38-9.27,6.64-13.76,10.12-1.01,.78-1.79,2.22-1.96,3.44-.53,3.79,.89,7.23,2.93,10.44,2.08,3.27,4.37,6.42,6.41,9.71,5.15,8.31,4.11,19.24-3.26,25.74-.19,.17-.3,.4-.45,.61,.19,.16,.38,.31,.57,.47,1.2-1.28,2.39-2.57,3.6-3.84,5.74-6.02,6.85-12.79,3.03-20-1.55-2.92-3.51-5.66-5.32-8.47-1.45-2.24-3.16-4.37-4.36-6.71-1.31-2.56-2.18-5.32-1.03-7.84,2.75,1.34,5.26,3,8.06,3.86,14.15,4.32,22.43,13.64,27.07,26.36,.83,2.28,2.2,4.56,3.89,6.38,5.25,5.66,9.64,11.78,12.66,18.7,6.81,15.65,7.3,31.7,3.49,48.03-2.54,10.88-8.07,19.9-18.39,26.03-.12,.07-.15,.26-.4,.75,10.09-4.1,18.71-9.31,23.12-18.72,2.83-6.05,5.37-12.27,7.29-18.61,5.43-17.96,7.22-36.44,8-54.99,1.14-27.01,.27-54.01-1.5-80.98-.16-2.47-.33-4.94-.49-7.4,6,37.92,8.6,76.05,8.56,114.36v-12.85c.78,.83,1,1.77,1.4,2.62,.43,.9,1.04,1.73,1.56,2.59,.21-.06,.42-.11,.63-.17,.07-1.22,.14-2.45,.21-3.67,.31,15.53,.69,31.05-2.06,46.46,4.71-12.52,7.02-25.48,8.16-38.66,.14,1.19,.18,2.37,.14,3.54-.33,8.89-.24,17.83-1.14,26.67-.71,7-2.03,14.06-4.15,20.8-5.35,17.02-17.74,27.08-36.66,29.97-3.42,.52-6.91,.66-10.82,1.02,1.07,.56,1.74,1.13,2.5,1.28,3.49,.69,7.06,1.97,10.51,1.76,17.44-1.06,27.9-7.77,33.93-22.1,2.02-4.8,3.63-9.79,4.94-14.8,4.17-15.87,5.58-32.09,5.85-48.33,.32-18.87,.19-37.76-.44-56.62-.44-13.15-2.05-26.26-3.17-39.39-.23-2.65-.61-5.28-.91-7.92,5.11,26.72,8.12,53.65,9.27,81.2,.97-.8,1.47-1.22,2.16-1.78,.14,.62,.3,1.03,.32,1.46,.28,7.14,.78,14.28,.75,21.42-.05,11.86-.27,23.73-.74,35.58-.41,10.22-1.59,20.4-4.17,30.37-2.47,9.55-5.83,18.76-12.81,26.45-.03,.03,.1,.18,.18,.33,8.23-3.68,10.91-11.24,14.89-17.99-.84,2.57-1.67,5.15-2.51,7.72,.9-.68,1.48-1.48,2.04-2.3,3.71-5.48,6.28-11.42,8.12-17.63,1.38-4.66,2.62-9.34,2.28-14.29-.6-8.76-1.3-17.52-1.35-26.29-.15-26.23,.7-52.43,2.64-78.61,.84-11.3,1.6-22.61,2.4-33.92Zm100.94,139.95c0-.07,0-.15,0-.22-3.57-1.8-7.14-3.6-10.75-5.42-.45,3.2-.5,3.36,2.51,4.16,2.68,.71,5.49,1,8.24,1.48ZM138.71,42.67c-2.89-4.1-6.08-3.91-8.54,.44-.61,1.09-1.05,2.29-1.4,3.48-1.12,3.86-1.37,7.83-.29,11.66,.81,2.85,2.24,5.61,3.79,8.19,1.07,1.77,2.93,3.15,5.41,2.81,2.58-.35,3.75-2.27,4.42-4.3,.67-2.04,.94-4.19,1.22-5.5-.43-6.46-1.22-11.96-4.63-16.78Zm-19.22-1.38c-2.13-3.11-4.79-3.38-7.03-.38-5.15,6.9-6.65,14.58-4.61,22.77,.52,2.07,1.73,3.98,4.24,4.46,2.67,.52,4.37-1.09,5.81-2.85,.8-.98,1.62-2.05,1.99-3.2,1.07-3.35,1.92-6.76,2.4-8.48-.2-5.49-.61-9.12-2.81-12.33Z"/>
  </g>
</svg>