<?xml version="1.0" encoding="UTF-8"?>
<svg id="Layer_2" data-name="Layer 2" xmlns="http://www.w3.org/2000/svg" viewBox="0 0 230.08 219.03">
  <g id="Layer_1-2" data-name="Layer 1">
    <path d="M149.93,211.64c-9.84,8.58-21.02,8.94-32.86,4.88-1.66-.57-2.93-.52-4.52,.06-7.97,2.88-16.08,3.25-24.05,.18-3.06-1.18-5.78-3.15-8.54-4.7-19.22,6.93-37.76,6.75-55.27-5-3.72-2.5-5.63-5.17-2.95-9.29-2.35-1.23-4.54-2.26-6.59-3.49-6.24-3.74-11.19-8.58-13.99-15.12-.52-1.21-.93-2.51-1.07-3.8-.75-6.65,3.87-11.15,11.05-10.35,11.83,1.32,21.23-2.97,29.4-10.48,.39-.36,.7-.79,1.08-1.22-2.27-.76-4.48-1.37-6.57-2.24-6.08-2.51-9.78-6.68-10.23-13.1-.17-2.43,.55-4.37,2.72-5.83,12.62-8.49,19.94-20.13,22.93-34.27,.6-2.83,.97-5.74,1.06-8.62,.22-7.65,.19-15.3,.34-22.95,.29-14.99,3.75-29.15,13.05-41.62C75.04,11.07,88.95,3.04,106.53,.62c30.34-4.19,58.27,13.25,67.92,40.95,2.79,8,4.22,16.24,4.25,24.68,.03,7.78-.08,15.57,.1,23.35,.33,13.98,5.14,26.33,15.71,36.46,1.52,1.46,3.22,2.76,4.92,4.03,5.68,4.23,6.29,10.37,1.4,15.46-3.89,4.05-9.02,6.16-14.39,7.86-.73,.23-1.49,.37-2.54,.63,.48,.52,.8,1,1.23,1.34,8.63,6.72,18.33,10.65,29.79,9.94,1.82-.11,3.64-.41,5.46-.43,6.22-.05,10.23,4.14,9.64,9.97-1.12,11.19-11.77,23.52-23.25,26.86-1.1,.32-2.19,.47-2.02,1.96,.04,.32-.53,.74-.88,1.06-7.6,7.11-16.95,10.72-27.49,11.58-9.24,.75-18.26-.18-26.46-4.67Zm-34.87-8.73c4.91,4.99,10.93,6.76,17.85,5.9,5.48-.69,9.91-2.82,11.91-8.11,1.01-2.7,2.2-5.34,3.43-8.29,1.12,1.97,2.08,3.69,3.07,5.41,2.41,4.19,6.15,6.71,11.05,7.89,7.98,1.92,15.75,1.29,23.37-1.49,1.77-.64,3.45-1.5,5.43-2.37-11.07-5.48-19.54-12.43-20.77-16.39,4.37,2.03,9.02,4.72,14.05,6.42,15.25,5.17,27.62-.11,33.97-14.08,.4-.88,.69-1.8,1.19-3.1-12.6,1.64-23.87-.88-34.21-6.96-10.53-6.19-17.07-15.18-20.74-26.76,4.87,3.15,9.8,4.39,15.14,3.68,5.28-.71,10.08-2.43,13.72-6.41-14.57-10.06-24.2-27.46-24.87-45.26-.34-9.09-.34-18.2-.38-27.3-.03-6.17-.85-12.21-2.62-18.15-6.4-21.48-24.88-36.28-46.6-37.5-20.29-1.13-36.1,6.39-47.13,22.38-6.75,9.78-9.39,20.78-9.7,32.3-.25,9.16,.04,18.35-.57,27.48-.81,12.21-5.11,23.42-12.68,33.46-3.75,4.98-8.24,9.31-13.37,13.02,3.94,5.65,13.21,6.63,24.86,2.49-8.42,22.29-24.45,34.09-50.06,34.17,1.25,1.71,2.25,3.29,3.47,4.69,8.94,10.25,23.12,13.33,37.08,7.98,3.07-1.17,5.97-2.73,9.33-4.29-6.48,9.28-14.95,15.2-26.98,17.02,1.08,.61,1.7,1,2.36,1.33,8.82,4.42,18.21,5.57,28.02,4.31,7.52-.96,13.15-4.36,16.24-11.05,.42-.91,1.01-1.76,1.69-2.93,1.18,2.93,2.32,5.41,3.19,7.96,1.42,4.21,4.67,6.53,8.94,7.63,7.98,2.04,15.17,.67,21.34-5.1Zm10.79-115.82c-.94-3.62-2.66-6.96-5.99-9.28-3.21-2.24-6.62-2.31-9.33,.39-2.01,2-3.75,4.48-4.83,7.03-2.81,6.66-2.91,13.63-1.49,20.61,.84,4.13,2.32,8.01,5.53,11.1,3.33,3.21,7.33,3.3,10.79,.22,.76-.67,1.45-1.44,2.04-2.25,3.8-5.22,4.63-11.19,4.92-19.01-.33-1.84-.74-5.38-1.63-8.82Zm-42.68-20.8c4.27,4.89,10.12,5.07,14.66,.41,6.05-6.2,6.24-17.35,.41-23.7-4.37-4.76-10.43-4.88-15-.25-3.12,3.16-4.32,7.02-4.44,11.5,.05,4.27,1.24,8.44,4.37,12.04Zm64.27-23.91c-4.52-4.22-10.36-3.98-14.56,.52-6.23,6.66-5.43,18.87,1.62,24.8,3.58,3.01,7.71,3.18,11.41,.32,4.67-3.62,6.27-8.54,6.39-12.83-.02-5.64-1.45-9.62-4.86-12.81Z"/>
  </g>
</svg>