<?xml version="1.0" encoding="UTF-8"?>
<svg id="Layer_2" data-name="Layer 2" xmlns="http://www.w3.org/2000/svg" viewBox="0 0 277.15 286.6">
  <defs>
    <style>
      .cls-1 {
        fill: #111112;
      }
    </style>
  </defs>
  <g id="Layer_1-2" data-name="Layer 1">
    <path class="cls-1" d="M277.03,143.04c-.69-5.05-3.65-9.11-7.58-12.72-6.08-5.57-13.73-9.09-21.63-12.29-7.52-3.05-15.4-5.45-22.6-9.06-19.9-10-31.54-25.27-37.56-44.1-2.78-8.7-3.22-17.7-4.72-26.57-1.3-7.71-3.61-15.12-8.43-21.84-9.49-13.23-26.72-19.35-43.67-15.17-11.92,2.93-19.94,9.9-25.39,19.24-4.56,7.83-6.39,16.35-8.2,24.87-2.22,10.38-3.88,20.85-6.84,31.11-5.85,20.27-18.47,36.25-39.78,46.72-5.13,2.52-10.39,4.85-15.52,7.37-9.87,4.86-18.89,10.65-25.46,18.8-8.23,10.19-11.87,21.39-8.26,33.68,2.61,8.87,8.53,15.45,19.38,17.86,4.25,.94,8.62,.9,12.95,1.2,2.64,.19,4.99,.96,7.04,2.38,4.31,2.97,6.17,7.02,6.37,11.61,.19,4.36-.04,8.74,.04,13.11,.07,3.65,.72,7.25,2.57,10.56,.83,1.49,.86,2.86,.64,4.42-.84,5.95-.12,11.67,3.83,16.81,3.66,4.76,8.88,6.37,15.2,4.69,1.69-.45,3.36-1.02,4.94-1.71,3.64-1.59,7-1.22,10.2,.84,1.25,.81,2.5,1.62,3.72,2.47,2.61,1.81,5.12,3.74,8.08,5.13,3.6,1.7,7.4,2.8,11.44,1.5,1.61-.52,2.07-.18,2.85,.95,9.78,14.26,30.59,15.71,43,3.09,3.49-3.55,6.04-7.55,7.99-11.93,4.17,3.8,8.92,6.25,15.09,5.02,6.02-1.2,9.13-5.29,11.82-9.84,1.57,1.69,3.31,2.94,5.06,4.18,12.34,8.77,28.21,5.08,33.74-7.85,1.32-3.09,1.53-6.35,1.93-9.7,4.2,1.44,8.58,1.49,11.92-.78,5.47-3.72,11.7-6.38,17.24-9.9,7.46-4.75,8.08-12.34,1.29-17.84-9.54-7.73-16.96-16.91-21.74-27.51-3.83-8.5-6.18-17.26-4.9-26.47,.43-3.12,1.09-6.21,3.76-8.63,6.78-6.17,21.34-8.19,30.02-4.16,3.71,1.72,7.25,.7,9.06-2.68,1.16-2.17,1.44-4.48,1.11-6.85ZM89.16,95.8c.17,0,.26-.09,.29-.2-.03,.11-.12,.19-.29,.2,0,0,0,0,0,0ZM56.16,228.46c0,1.86-1.11,3.34-2.33,5.33-1.05-5.23-.7-9.98-.52-14.72,.35-9.39-3.27-16.82-13.63-21.08-5.29-2.18-10.41-4.6-13.93-8.88-2.12-2.58-3.4-5.4-3.72-8.6,4.48,4.66,10.58,7.08,16.81,9.18,10.84,3.65,15.67,10.84,16.9,20.36,.79,6.13,.45,12.28,.42,18.42Zm203.4-90.18c-9.41-.81-16.99,2.38-23.19,8.23-6.26,5.91-9.3,13.05-9.69,20.96-.72,14.5,4.49,27.56,13.57,39.59,2.02,2.67,4.26,5.22,6.4,7.83,.12,.17,.59,.27,.29,.51-.2,.17-.53,.04-.63-.25-6.41-3.01-11.53-7.33-16.36-11.95-3.33-3.19-6.04-6.77-8.79-10.32,.07-.11,.05-.21-.09-.29-.08,.1-.15,.21-.23,.31,.09,0,.18,0,.27,0-.3,.55,.02,1.03,.28,1.51,3,5.49,7.01,10.47,11.77,14.84,4.97,4.56,10.89,8.25,17.51,11,2.07,.86,3.95,1.95,5.52,3.44,3.4,3.23,1.74,8.72-3.05,10.17-.78,.24-1.03-.1-1.3-.56-2.91-4.99-7.73-8.5-12.74-11.76-7.73-5.03-14.8-10.6-20.78-17.19-.26-.29-.61-.51-.91-.76-.43-.3-.66-.66-.5-1.14,.03,0,.05,.02,.09,.02,0,0,0,0,0,0,0,0,0,0,0,0,0,0,0,0,0,0-2.34-3.42-4.67-6.84-7.01-10.26-.08-.34,.05-.76-.46-.96,.14,.32-.06,.76,.45,.96,.3,2.56,1.61,4.8,3.02,7.01,1.67,3.95,4.46,7.36,7.22,10.76,4.37,5.39,9.94,9.79,15.81,13.93,2.38,1.68,4.54,3.56,6.6,5.51,.54,.51,1.26,.98,1.22,1.98-1.11-.22-1.66-.99-2.47-1.42-1.15-.61-2.24-1.35-3.46-1.82-4.19-1.6-7.58-.43-9.43,3.18-.49,.95-.85,1.96-1.35,2.9-.95,1.8-1.65,1.99-3.62,.89-2.36-1.32-4.23-3.1-5.98-4.98-6.62-7.12-10.62-15.39-13.93-23.92-5.73-14.74-9.77-29.86-12.92-45.16-.91-4.4-1.52-8.84-2.96-13.15,.26,7.74,1.36,15.41,2.55,23.07,1.87,12.12,4.36,24.14,8.55,35.85,3.37,9.43,7.76,18.44,14.92,26.29,2.31,2.53,4.96,4.75,7.75,6.87,.6,.45,1.2,.89,1.21,1.65,.1,4.92,.23,9.87-1.79,14.58-2.49,5.8-8.22,9.07-14.66,8.31-4.91-.58-8.55-3.11-11.64-6.31-2.55-1.46-4.14-3.66-5.82-5.75-6.77-8.46-10.72-17.99-13.97-27.77-3.46-10.42-5.33-21.1-6.51-31.87-1.73-15.73-3.01-31.48-3.53-47.29-.2-6.08,.07-12.18-.6-18.25-.05-.41,.08-.89-.45-1.16-.71,20.22-.11,40.44-.19,60.66-.07,17.7-.64,35.4-2.5,53.04-.64,6.05-1.49,12.08-3.01,18.03-2.06,6.79-5.03,13.2-11.17,18.08-4.69,3.73-10.1,5.93-16.72,4.88-.26-.04-.48-.2-.73-.31-3.74-.3-6.59-2.07-9.19-4.19-1.9-1.56-3.63-3.26-4.53-5.46-1.81-2.62-3.02-5.18-1.56-8.42,1.55-3.44,1.44-7.22,1.74-10.88-.89-8.12-3.68-15.53-10.65-21.39-.91-.76-1.82-1.55-3.07-1.92h0c-.16-.16-.33-.34-.56-.09-.02,.02,.2,.2,.31,.3,3.73,3.93,6.65,8.22,8,13.22,.74,2.74,1.31,5.49,1.12,8.84-2.31-5.1-5.78-8.77-10.98-11.06-5.35-2.36-10.73-1.72-16.47,.39,5.57-11.64,8.83-23.19,6.29-35.49-.14,15.27-7.18,28.45-16.54,40.93-1.52,2.63-3.01,5.27-4.57,7.89-.37,.61-.73,1.53-1.82,1.22-.94-.26-1.02-1.12-1.02-1.87,0-3.83,1.58-7.34,2.95-10.9,2.47-6.43,5.8-12.55,9.21-18.64,.33-.58,.89-1.12,.58-2.28-9.61,11.67-16.34,23.92-17.42,38.32-1.71-.85-2.33-2.15-2.95-3.4-2.35-4.75-2.04-9.61-.54-14.46,2.19-7.11,6.22-13.52,11.13-19.41,5.33-6.39,8.32-13.37,9.17-21.12,.18-7.59-.33-15.1-3.03-22.41-3.85-10.44-11.37-17.59-24.25-19.43-11.77-1.68-22.66,.42-32.1,7.05-.33,.23-.7,.41-1.05,.61-1.2,1.42-2.52,2.79-3.58,4.28-2.73,3.84-4.04,8.09-4.59,12.54-.06,.46,.15,.98-.55,1.54-1.64-2.38-2.23-4.93-2.43-7.52-1.06-13.24,5.45-23.68,16.35-32.45,7.81-6.28,17.23-10.4,26.51-14.74,11.18-5.23,21.35-11.59,29.33-20.28,3.59-3.91,6.78-8.05,9.43-12.49,.31-.52,.42-1.15,1.05-1.51-.05,2.67-1.28,5.1-2.12,7.6-2.48,7.35-5.79,14.4-11.33,20.5-4.82,5.31-10.95,9.09-18.32,11.39-1.34,.42-2.64,.93-3.9,1.49-.52,.23-1.25,.56-1.07,1.23,.16,.56,.84,.56,1.41,.63,.27,.03,.53,.14,.8,.21,6.35-.65,11.96-2.84,17.06-6.09,.35-.72,.93-1.2,1.85-1.31,.42-.14,.81-.3,.97-.7-.18-.36,.11-.57,.35-.79,7.58-6.89,11.47-15.46,14.73-24.3,5.1-13.86,7.84-28.18,10.7-42.46,2.15-10.77,3.85-21.62,7.31-32.17,2.75-8.39,7.46-15.69,15.98-20.78,6.54-3.91,13.79-5.4,21.69-4.4,13.91,1.61,22.32,8.98,27.49,19.63,3.28,6.77,4.33,13.98,5.1,21.2,1.51,14.14,5.18,27.71,13.49,40.16,9.97,14.94,24.37,25.35,42.81,31.9,8.52,3.03,17.12,6.04,24.7,10.73,5.1,3.16,9.57,6.8,11.74,12.09,.11,.28,.18,.58,.41,1.29-3.45-2.79-7.17-4.25-11.4-4.62Zm-106.68-69.55c2.14,4.59,3.62,12.34,3.28,19.04-.11,2.75-.98,7.08-3.1,11.18-.7,1.35-1.54,2.62-2.68,3.74-3.49,3.41-7.49,3.39-10.82-.17-3.28-3.5-4.71-7.69-5.32-12.05-1.02-7.36-.14-14.58,2.8-21.59,.66-1.56,1.5-3.05,2.66-4.39,3.37-3.89,7.2-3.87,10.58,.04,1.11,1.29,1.92,2.73,2.61,4.21Zm18.94,67.73c2.82,30.59,9.81,60.36,23.43,88.83,4.85,10.12,11.46,19.33,19.73,27.64,.28,.22,.8,.51,.39,.79-.31,.22-.58-.25-.78-.52-4.71-3.14-8.54-7-12.09-11.07-5.43-6.24-10.05-12.92-13.77-20.04,0-1.26-.87-2.26-1.39-3.37-6.31-13.55-10.69-27.56-13.86-41.89-4.24-19.2-5.77-38.59-6.12-58.09-.15-8.1-.15-16.23-1.03-24.32-.09-.86-1.17-1.81-.06-2.72,1.47,2.77,1.54,5.8,2.02,8.74,1.97,11.94,2.4,24,3.5,36.01ZM120.4,24.17l.02,.02s-.03,.01-.04,.02c0-.01,.01-.03,.02-.04Zm-.02,.04c-.92,2.13-1.71,4.31-2.83,6.36-.43,.78-.61,1.39-.33,2.16-3.18,9.91-4.2,20.03-4.29,30.28-.14,15.67-.66,31.34-2.01,46.98-1.3,15.01-3.24,29.95-5.98,44.82-.23,1.27-.26,2.53-.44,3.79-.93-2.79-.36-5.62-.19-8.42,.39-6.32,1.02-12.63,1.5-18.95,1.02-13.44,1.88-26.89,2.5-40.34,.21-4.55,.35-9.1,.5-13.65,.36-10.63,.48-21.29,2.61-31.8,1.42-6.98,3.57-13.79,7.83-19.96,.31-.45,.5-1,1.11-1.26Zm46.27,19.87c-.1,3.61-.65,6.81-2.52,9.73-2.65,4.14-7.1,4.33-9.64,.17-3.92-6.42-3.93-13.13-.22-19.61,2.31-4.03,6.65-4,9.44-.18,2.28,3.11,2.77,6.63,2.94,9.89Zm-39.43,11.15c-1.76-1.77-2.63-3.91-3.09-6.17-.95-4.61-.84-9.17,1.32-13.55,1.03-2.1,2.45-4.13,5.43-4.1,2.84,.02,4.26,1.97,5.38,3.96,1.59,2.82,1.96,5.86,2.11,8.56-.09,3.28-.53,6.13-1.88,8.82-.45,.9-1,1.77-1.76,2.51-2.33,2.25-5.23,2.27-7.5-.02Zm79.13,67.88c.74,.47,1.42,1,2.13,1.5-5.26-.78-9.41-3.34-13.3-6.26-3.51-2.64-6.46-5.71-8.97-9.09-.37-.49-.53-1.17-1.33-1.36-4.65-8.1-7.23-16.73-8.77-25.63-.04-.24-.03-.49,0-.74,.02-.16,.14-.31,.26-.57,.92,.48,.83,1.27,1.01,1.92,2.34,8.33,5.71,16.3,10.99,23.61,4.73,6.55,10.79,12.03,17.97,16.61ZM120.66,23.96c-.08,.06-.15,.12-.23,.18,.02-.09,.05-.17,.07-.26,.05,.03,.1,.06,.15,.08Zm-.26,.21s.03-.02,.04-.03c0,.02,0,.03-.01,.05,0,0-.02-.02-.02-.02Z"/>
  </g>
</svg>