<?xml version="1.0" encoding="UTF-8"?>
<svg id="Layer_2" data-name="Layer 2" xmlns="http://www.w3.org/2000/svg" viewBox="0 0 250.29 284.98">
  <g id="Layer_1-2" data-name="Layer 1">
    <path d="M49.23,187.27c-4.57,.21-8.62-.47-12.32-2.98-2.43-1.65-4.46-3.81-5.84-6.66-2.18-4.49-5.39-7.91-8.61-11.32-2.57-2.72-5.5-3.05-8.52-.98-1.61,1.11-3.15,2.36-4.72,3.55-.65,.49-1.27,1.03-1.96,1.43-3.78,2.24-7.1-.05-7.25-4.96-.36-11.51,7-22.91,16.81-26.06,.52-.17,1.03-.36,1.52-.53-.28-3.11-2.33-5.1-4.95-4.68-1.34,.22-2.64,.85-3.93,1.38-.88,.36-1.68,.98-2.57,1.31-3.01,1.14-5.63-.96-5.5-4.61,.32-9.15,4.7-18.04,13.59-22.11,5.86-2.69,11.88-3.1,18.08-1.89,11.02,2.15,20.98-.88,29.65-8.98,7.83-7.31,12.19-17.33,15.7-27.96,2.43-7.35,3.27-15.05,4.37-22.74,2.17-15.2,7.88-28.32,18.55-37.98,15.78-14.29,38.18-13.93,53.88,.76,10.54,9.86,16.58,22.94,19.71,37.9,1.35,6.44,1.85,13.11,3.07,19.59,2.02,10.7,5.62,20.61,12.31,28.64,6.75,8.09,14.84,12.47,24.72,10.68,3.95-.71,7.84-1.53,11.84-1.11,11.99,1.27,20.03,10.93,22.06,23.91,.33,2.1-.22,4-1.87,5.16-1.62,1.14-3.3,.96-4.83-.29-2.08-1.7-4.23-3.02-6.89-2.67-1.55,.2-2.7,.96-3.4,2.9,.48,.32,.93,.65,1.4,.92,8.91,5.21,14.68,13.11,16.03,24.86,.22,1.89,.76,3.75,.89,5.65,.21,3.14-.97,5.33-3.05,6.13-2.03,.78-3.86-.14-5.45-2.79-.82-1.36-1.53-2.83-2.43-4.11-2.73-3.89-6.52-4.16-9.66-.72-1,1.1-1.91,2.32-2.84,3.49-2.05,2.56-4.7,3.94-7.42,5.24-.85,.41-1.81,1.13-2.23,2.02-2.73,5.84-6.84,9.22-12.56,9.99-.43,.06-.84,.21-1.38,.35,1.82,4.77,3.93,9.24,7.5,12.34,1.75,1.52,3.96,2.45,6.08,3.24,3.87,1.43,5.37,3.99,4.25,8.53-.84,3.43-2.04,6.74-3.07,10.11-.15,.48-.23,.98-.39,1.63,2.73,.83,5.38,.7,8.03-.03,.86-.24,1.69-.6,2.55-.84,2.72-.75,5,.67,5.17,3.89,.16,3.05-.13,6.27-.83,9.23-2.68,11.33-9.08,19.41-17.48,25.53-5.84,4.26-12.12,7.02-19.15,7.04-6.11,.02-11.38-2.19-15.53-7.53-.15-.19-.3-.38-.48-.53-.13-.12-.29-.18-.64-.4-.42,.69-.87,1.38-1.27,2.11-4.75,8.75-10.97,15.36-19.87,17.89-6.02,1.72-11.92,1.14-17.73-1.44-2.61-1.16-5.29-2.33-8.02-2.81-3.71-.64-7.17,1.01-10.49,2.85-4.87,2.7-9.64,5.86-15.06,6.73-3.41,.55-6.94,.57-10.36,.17-1.97-.23-4.1-1.39-5.67-2.84-6.15-5.68-12.84-5.47-19.75-2.85-3.38,1.28-6.7,2.58-10.32,2.37-7.43-.43-13.54-4.34-18.92-9.94-2.37-2.47-4.46-5.32-6.69-7.98-.73-.87-1.51-1.68-2.28-2.5-5.87-6.28-8.93-14.05-8.86-23.3,.04-5.23,2.51-7.32,7-6.96,2.42,.2,4.9-.39,7.34-.73,1.56-.22,1.93-1.43,1.11-2.82-1.7-2.88-3.38-5.81-5.36-8.42-2.07-2.72-4.01-5.45-4.83-9.02-.84-3.69,.34-6.44,3.4-7.83,2.41-1.09,4.92-1.93,7.25-3.2,4.25-2.32,7.14-6.26,9.36-11.4Zm2.96-10.39c.55-.27,1.11-.52,1.65-.81,2.21-1.17,3.8-.12,4.04,2.7,.08,.95,.12,1.92,.05,2.87-.98,12.54-8.37,22.98-18.87,26.69-.71,.25-1.43,.5-2.26,.79,.32,.7,.51,1.23,.8,1.68,.67,1.02,1.35,2.03,2.09,2.97,2.13,2.72,4.52,3.39,7.47,1.99,1.11-.53,2.08-1.43,3.16-2.07,1.22-.72,2.44-1.5,3.74-1.95,1.66-.58,2.89,.24,3.2,2.23,.25,1.6,.31,3.35,.03,4.93-1.45,7.94-5.84,13.31-11.72,17.2-4.4,2.91-9.26,3.9-14.68,4.01,.75,3.03,1.44,5.81,2.13,8.6,.14-.05,.28-.09,.42-.14-.09-2.61,.64-4,2.53-4.38,2.72-.55,5.35-.16,7.51,1.96,1.38,1.35,2.53,3.02,3.79,4.54,3.19,3.89,6.18,8.03,9.62,11.6,5.23,5.41,11.44,7.68,18.54,6.64,2.04-.3,4.27-.19,6.25,.44,3.86,1.23,7.65,2.83,11.39,4.51,4.12,1.85,8.35,2.92,12.63,1.66,3.49-1.03,6.87-2.69,10.16-4.44,4.89-2.61,9.76-5.05,15.29-5.12,4.65-.05,8.87,1.76,13.11,3.61,6.81,2.97,13.46,2.74,19.25-2.72,3.08-2.91,5.57-6.69,8.22-10.18,1.49-1.96,2.64-4.29,4.18-6.18,4.9-6.02,11.65-6.98,17.78-2.72,2.22,1.54,4.36,3.3,6.72,4.51,3.83,1.96,7.85,3.06,11.71,.09,4.41-3.4,8.26-7.52,10.95-12.89,.91-1.82,1.52-3.84,2.34-5.95-.57-.04-.73-.08-.88-.06-6.58,.62-12.48-1.35-17.55-6.3-4.68-4.58-8.66-9.86-11.7-16.05-.32-.66-.73-1.29-1.19-1.82-9.44-10.74-15.12-23.65-16.6-38.9-.43-4.38,.09-8.69,2.16-12.56,1.93-3.6,5.09-5.37,8.63-4.43,2,.54,3.93,1.6,5.78,2.67,4.33,2.5,8.77,4.14,13.7,3.2,3.48-.67,6.41-2.68,9.31-4.8,3.23-2.36,6.7-3.9,10.55-4.11,4.66-.25,8.78,1.4,12.45,4.8-.13-.57-.27-1.14-.58-1.5-2.1-2.41-4.08-5.03-6.42-7.09-2.27-1.99-4.97-3.29-7.41-5.04-3.87-2.77-5.68-6.76-5.2-12.12,.52-5.68,3.93-10.35,8.61-11.12,1.71-.28,3.5,.15,5.3,.26-.24-.17-.46-.35-.7-.5-4.75-2.86-9.74-2.92-14.85-1.75-1.78,.41-3.58,.89-5.39,.97-10.73,.47-19.72-4.2-27.31-12.72-6.92-7.77-11.32-17.34-13.71-28.02-1.61-7.21-2.42-14.67-3.73-21.98-2.22-12.44-6.54-23.68-14.31-32.92-11.51-13.68-29.81-17.14-43.88-7.97-11.87,7.73-17.98,20.1-20.47,35.21-1.01,6.14-1.66,12.39-3.07,18.4-2.92,12.46-7.44,24.1-15.24,33.61-10.75,13.13-23.95,18.35-39.46,16.06-3.2-.47-6.5-.61-9.71-.3-3.42,.32-6.54,2-9.12,4.78,.46,0,.87-.11,1.26-.27,8.83-3.63,15.14,3.57,15.59,12.46,.24,4.73-1.48,8.37-4.99,10.69-1.9,1.25-4,2.14-6.07,2.99-4.54,1.86-7.96,5.14-10.13,10.13-.18,.41-.27,.87-.29,.96,2.54-1,5.08-2.31,7.73-2.99,5.25-1.33,10.44-.06,15.57,1.25,6.38,1.63,12.76,2.98,19.35,1.76,2.28-.42,4.12,1.12,4.7,3.78,1.08,4.92,.26,9.37-2.81,13.14-.4,.49-.75,1.05-1.12,1.57-4.16,2.15-7.77,.7-10.99-2.47-1.46-1.44-2.66-3.24-3.91-4.94-2-2.74-4.19-5.19-6.89-6.65,2.37,3.69,4.72,7.52,7.24,11.19,2.04,2.98,4.93,4.23,8.15,4.43,2.23,.14,4.54,.53,6.37-1.6Zm154.35,30.59c-.36-.45-.6-.79-.87-1.1-4.74-5.43-7.76-12.04-9.89-19.25-.82-2.78-.96-5.63-.12-8.47,.34-1.14,.93-1.62,2.02-1.26,1.16,.38,2.36,.69,3.55,.88,4.7,.74,8.43-1.64,9.89-6.24,.7-2.22,1.4-4.44,2.11-6.65-1.09,.79-2.12,1.78-2.9,2.99-1.35,2.1-2.48,4.38-3.82,6.49-1.52,2.39-3.71,3.1-6.06,2.22-2.72-1.02-5.07-2.71-6.14-6.13-.52-1.67-1.25-3.27-2-4.83-.6-1.25-1.46-2.66-2.81-2.13-1.02,.4-1.84,1.6-2.62,2.57-.34,.42-.51,1.18-.52,1.78-.05,3.24-.38,6.55,.06,9.71,1.23,8.94,3.77,17.35,8.93,24.41,.55,.75,1.45,1.15,2.19,1.71,.09-1,.34-2.03,.22-3-.24-1.91-.69-3.79-1.05-5.68,1.41,2.47,2.5,5.02,3.76,7.47,1.32,2.57,3.22,4.27,6.08,4.51ZM118.26,108.88c4.86,7.95,12.05,8.2,17.16,.48,1.29-1.96,2.39-4.17,3.21-6.44,2.08-5.82,3.25-11.87,1.77-18.13-.85-3.6-2.32-5.65-6.19-3.08-5.3,3.52-9.63,2.88-14.32-1.67-2.52-2.44-4.36-2.09-5.56,1.5-.84,2.51-1.08,5.29-1.59,7.95,.45,7.09,2.37,14.21,5.53,19.38Zm-11.55,49.96c-.07,.36-.15,.71-.21,1.07-1.04,5.5-1.83,11.07-3.15,16.48-5.1,20.8-12.48,40.48-22.5,58.76-1.16,2.11-2.74,3.97-4.35,5.66-1.71,1.8-3.66,3.3-5.55,4.86-1.66,1.36-3.38,2.61-5.15,3.96,.24,.1,.35,.21,.43,.18,.42-.14,.87-.24,1.25-.48,4.21-2.64,8.63-4.93,12.57-8.04,10.65-8.43,16.98-20.54,21.02-34.47,2.84-9.81,4.47-19.89,5.22-30.16,.43-5.91,.5-11.84,.73-17.77l-.3-.04Zm12.84-108.93c-.42-3.84-1.14-7.58-3.61-10.47-1.88-2.19-4.14-2.44-6.02-.27-1.33,1.54-2.49,3.46-3.25,5.45-2.07,5.37-2.61,11.13-1.92,16.9,.34,2.84,1.15,5.77,2.35,8.27,2.06,4.28,5.69,4.4,8.36,.56,.85-1.23,1.55-2.65,2.1-4.1,1.51-3.97,2.16-8.17,2.14-12.5-.05-1.28-.03-2.57-.17-3.83Zm29.72,5.04c-.69-3.59-1.18-7.25-2.13-10.74-.76-2.79-2.22-5.39-5.12-5.54-2.74-.14-4.3,2.22-5.36,4.73-3.41,8.1-3.84,16.45-.96,24.87,.88,2.58,2.21,5.06,4.98,5.26,2.89,.21,4.29-2.26,5.47-4.77,2-4.26,2.59-8.92,2.69-13.68,.14-.04,.28-.08,.43-.12Zm-37.62,205.68c1.23-1.69,2.48-3.35,3.67-5.07,8.1-11.57,12.36-25.1,14.87-39.48,3.8-21.85,5.14-43.95,4.77-66.22-.04-2.17,0-4.34,0-6.5-.37,.42-.42,.85-.45,1.28-.59,8.22-.99,16.47-1.81,24.66-1.13,11.28-2.49,22.53-3.88,33.77-2.22,17.92-6.74,34.99-14.37,50.87-1.03,2.15-2.03,4.32-3.05,6.48,.09,.07,.17,.14,.26,.21ZM63.53,129.46c7.38-6.8,12.38-15.73,16.64-25.27,1.65-3.69,3.05-7.52,4.56-11.28-.21-.18-.42-.36-.63-.54-8.73,22-22.93,37.68-41.32,48.57,7.68-2.1,14.62-5.84,20.74-11.48Z"/>
  </g>
</svg>