<?xml version="1.0" encoding="UTF-8"?>
<svg id="Layer_2" data-name="Layer 2" xmlns="http://www.w3.org/2000/svg" viewBox="0 0 262.11 243.98">
  <g id="Layer_1-2" data-name="Layer 1">
    <path d="M261.92,121.62c.47-7.7,.23-15.33-2.97-22.64-3.19-7.29-8.88-12.34-17.6-14.44-3.91-.94-7.81-.92-11.36,1.16-1.94,1.13-1.94,2.33,.08,3.26,2.46,1.13,4.09,2.87,5.28,5,2.58,4.63,2.31,9.48,1.48,14.62-1.03-.75-1.8-1.36-2.63-1.9-3.21-2.09-6.83-3.18-10.82-3.17-.79,0-1.96,.44-2.26,.98-.31,.54,.18,1.48,.45,2.2,.12,.33,.52,.6,.84,.84,7.05,5.21,7.45,14.55,4.7,20.23-2.21,4.55-6.94,6.38-12.22,4.89-5.12-1.44-8-4.9-10.17-8.85-4.8-8.75-7.84-18.04-9.79-27.53-2.43-11.82-4.27-23.74-6.35-35.62-1.81-10.28-3.46-20.57-7.85-30.35-3.83-8.53-9.65-15.77-17.83-21.44C151.86,1.21,139.22-1.55,125.43,.83c-20.04,3.47-34.49,13.13-42.22,30.09-4.44,9.75-6.57,19.95-8.66,30.19-2.94,14.43-5.95,28.85-9.04,43.25-1.99,9.32-5.67,18.06-12.04,25.83-2.74,3.35-5.66,6.54-9.69,8.77-4.42,2.46-9.22,3.52-14.44,2.65-4.88-.81-8.92-4.97-9.97-10.55-.98-5.23,0-9.92,5.67-12.98,.26-.14,.5-.32,.71-.51,1.15-1.02,.91-2.24-.67-2.59-1.16-.25-2.46-.29-3.64-.12-6.03,.89-10.58,3.88-14.18,8.06-4.65,5.4-6.38,11.67-7.01,18.29-1.16,12.33,1.23,24.02,8.68,34.61,4.94,7.03,11.95,11.94,21.43,13.72,.45,.08,1.03,.41,1.19,.76,.45,.97,.72,2.01,1.14,3.25-1.41,.29-2.75,.61-4.12,.83-3.56,.56-7.2,.85-10.69,1.64-4.92,1.12-8.27,4.78-8.38,8.64-.11,4.13,2.64,6.84,6.4,8.59,3.82,1.79,7.96,3.07,12,4.46,1.22,.42,2.44,.84,3.66,1.26,1.39,.06,2.74,.27,3.86,.79,.16,.03,.31,.07,.46,.11,.34,.04,.69,.09,1.03,.16,1.56,.29,3.09,.77,4.64,1.13,.93,.21,1.96,.36,2.9,.63,2.64,.59,4.97,1.62,6.29,3.98,.95,1.69,1.85,3.4,2.62,5.16,1.23,2.82,2.95,5.33,5.52,7.35,6.88,5.42,15.22,6.27,23.87,5.39,8.9-.91,16.49-4.54,23-9.84,.32-.26,.65-.5,.98-.73,.37-.5,.8-.95,1.29-1.34,.73-.57,1.39-.87,1.95-1.58,.34-.43,.67-.77,1.06-1.05,1.42-1.56,2.66-2.93,4.1-4.52,1.76,1.78,3.5,3.37,5.01,5.11,6.37,7.33,17.54,11.39,28.43,4.82,2.21-1.33,4.2-2.96,6.36-4.5,.73,.82,1.48,1.67,2.23,2.51,3.25,3.68,7.55,6.1,12.78,6.36,12.01,.6,22.11-2.98,29.35-11.7,4.56-5.48,6.17-11.89,7.05-18.5,.32-2.4,.83-4.79,1.33-7.57,1.73,2.12,3.04,3.8,4.43,5.43,4.02,4.73,11.56,6.66,17.11,4.23,7.95-3.47,13.74-11.22,10.07-20.4-.36-.89-.64-1.8-.95-2.66,2.59-.54,5.01-.92,7.35-1.55,10.62-2.86,16.83-10.42,16.13-19.55-.45-5.84-3.17-10.91-6.93-15.63-.69-.87-.82-1.59-.39-2.66,3.49-8.7,6.85-17.43,7.42-26.76Zm-16.99,48.93c1.15-5.5,2.3-10.94,5.17-16.02,.19,.05,.42,.06,.5,.15,4.02,4.72,6.2,9.93,5.08,15.88-.78,4.14-3.58,7.15-7.59,9.3-4.42,2.37-9.33,3.36-14.44,3.41-5.77,.05-11.55-.17-17.32-.27-.42,0-.83,0-1.47,0,1.74,1.88,4.03,2.67,6.36,3.17,2.79,.59,5.67,.92,8.53,1.22,1.2,.13,1.93,.26,2.3,1.49,.63,2.11,1.94,4.1,2.37,6.23,.94,4.61-4.18,10.71-9.43,11.44-2.84,.4-5.42-.38-7.41-2.19-1.35-1.23-2.42-2.7-3.62-4.07-1.23-1.41-2.46-2.81-3.76-4.31-.21-.16-.44-.31-.68-.44-1.16-.61-2.28-.9-3.58-.89-.03,.01-.07,.02-.1,.04-.12,.06-.25,.12-.37,.18-2.33,2.75-3.54,6-4.29,9.42-.92,4.23-1.25,8.6-2.65,12.7-3.21,9.38-10.84,14.59-21.73,16.22-4.19,.63-8.49,1-11.92-1.77-2.18-1.76-4-3.9-5.79-6-.39-.46-.21-1.49,.05-2.15,1.42-3.55,2.95-7.07,4.43-10.6,.12-.3,.24-.6,.36-.93,.01-.25,.04-.51,.08-.76,0-.05,.04-.12,.07-.2,0-.12,.02-.24,.04-.36,0-.08,0-.15,.01-.23,.01-.13,.04-.25,.06-.37,0-.08,.01-.16,.02-.23,.05-.33,.14-.64,.25-.94,.02-.13,.05-.26,.1-.38,.03-.09,.11-.41,.16-.46,.02-.06,.04-.13,.05-.19,.01-.13,.04-.27,.07-.39,0,0,0,0,0,0,.77-2.79,1.54-5.58,2.31-8.37-.19-.1-.37-.2-.56-.3-.9,1.14-2.01,2.19-2.65,3.43-1.74,3.39-3.24,6.87-4.89,10.3-1.36,2.83-2.7,5.67-4.24,8.43-2.66,4.79-6.84,8.28-12.48,10.29-5.09,1.81-9.9,1.13-14.2-1.86-1.24-.86-2.22-2.01-3.34-3-2.3-2.05-4.62-4.09-7.1-6.28,2.28-4.31,5.57-8.56,9.97-12.16-.15-.17-.31-.34-.46-.52-.67,.22-1.48,.29-1.99,.67-1.78,1.32-3.55,2.67-5.15,4.14-2.16,1.99-4.13,4.14-6.28,6.14-.27,.25-.59,.47-.93,.68-.09,.14-.25,.31-.36,.43-.07,.08-.15,.14-.23,.21-.03,.03-.06,.05-.1,.08-.21,.27-.43,.54-.63,.82-.23,.31-.45,.63-.76,.89-.02,.01-.03,.02-.05,.04-.12,.19-.28,.36-.48,.5-3.85,4.3-7.84,8.51-13.16,11.51-8.92,5.02-18.49,6.56-28.72,3.73-3.56-.99-6.54-2.85-8.25-5.85-.91-1.6-1.74-3.25-2.57-4.93-.17-.24-.32-.48-.46-.72-.32-.32-.64-.66-.93-1-.88-1.03-1.57-2.16-2.57-3.1-1.8-1.7-4.04-3.05-6.26-4.36-2.73-.73-5.48-1.41-8.21-2.15-5.99-1.62-11.95-3.32-17.87-5.11-1.47-.45-2.86-1.27-4.08-2.14-2.82-2-2.56-4.86,.75-6.18,2.19-.87,4.7-1.13,7.08-1.63,2.98-.63,6.04-1.02,8.92-1.88,3.57-1.06,4.42-2.96,3.28-6.1-.18-.5-.26-1.03-.4-1.63,16.06-.25,28.5-6.38,38.33-16.94-.12-.17-.24-.35-.36-.52-.43,.31-.87,.61-1.28,.94-7.21,5.83-15.48,9.9-25.23,11.38-11.54,1.75-21.94-.18-30.39-7.71-4.82-4.29-7.54-9.66-9.4-15.37-2.94-9.04-3.2-18.18-1.09-27.37,1.1-4.79,3.89-8.74,8.19-11.95-.19,.49-.38,.97-.58,1.46-3.18,7.76,2.07,18.65,10.53,21.81,3.44,1.28,7.04,1.5,10.69,.98,7.3-1.04,13.2-4.26,17.97-9.11,8.57-8.73,14.02-18.87,16.64-30.07,3.1-13.24,5.74-26.57,8.51-39.87,2.2-10.6,3.82-21.31,7.72-31.58,2.9-7.63,6.94-14.65,14.14-19.9,10.08-7.35,21.47-11.65,34.84-11.14,10.37,.4,19.06,4.14,26.57,10.25,9.69,7.89,14.25,18.14,16.7,29.13,2.4,10.78,4.11,21.68,6.06,32.54,2.11,11.77,3.92,23.58,8.14,34.97,2.19,5.9,4.42,11.8,8.31,17.04,4.07,5.49,9.4,9.29,17.36,8.99,6.67-.26,11.09-3.44,13.52-8.75,3.01-6.56,2.03-12.88-1.85-18.95-.29-.45-.57-.89-1.07-1.69,6.28,1.96,9.59,5.8,11.6,10.85,.74-1.85,.29-4.74-1.37-7.28-.81-1.25-.79-2.13-.12-3.48,3.04-6.06,3.02-12.12-.66-18.04-.12-.19-.23-.38-.33-.58-.05-.1-.06-.21-.14-.51,3.49,.6,6.35,2.05,8.89,4.04,4.98,3.9,6.87,9.1,7.78,14.63,1.63,9.82,.37,19.46-2.67,28.96-2.34,7.32-4.98,14.56-7.01,21.94-.99,3.6-.88,7.43-.83,11.22ZM110.47,71.43c-1.53,.65-2.79,1.34-4.16,1.73-1.65,.46-3.01-.19-3.46-1.39-.49-1.31,.18-1.88,1.87-2.77,2.02-1.06,3.74-2.55,5.66-3.77,.82-.52,1.88-1.22,2.73-1.13,1.26,.14,1.6,1.26,1.59,2.4,0,.46,.41,1.14,.86,1.34,12.07,5.42,24.17,6.09,36.23,0,1.25-.63,2.64-1.28,2.72-2.97,.03-.58,1.03-1.49,1.71-1.58,.62-.09,1.61,.59,2.07,1.16,1.68,2.06,3.61,3.85,6.31,4.8,1.01,.36,1.78,.81,1.43,1.7-.28,.71-.99,1.53-1.75,1.8-1.61,.57-3.11-.08-4.43-.97-.37-.25-.78-.45-.97-.55-1.07,3.51-1.89,7.05-3.24,10.41-1.82,4.56-4.93,8.44-9.5,11.27-9.08,5.61-20.88,3.87-28.07-4.11-4.14-4.6-6.37-9.91-7.33-15.67-.1-.57-.2-1.15-.29-1.71Zm24.91,16.47c-1.82,.41-3.44,.68-4.98,1.17-.57,.18-1.35,.9-1.3,1.3,.07,.47,.84,1.05,1.45,1.25,3.03,.99,6.06,.67,9-.35,1.29-.45,1.44-1.5,.22-2.06-1.37-.62-2.95-.89-4.39-1.3Zm29.79-42.45c-.18,3.31-1.27,6.79-3.97,9.78-3.49,3.85-8.42,3.78-11.75-.14-4.81-5.65-4.2-15.62,1.27-20.74,3.2-3,7.73-2.88,10.72,.28,2.52,2.66,4.01,6.79,3.74,10.82Zm-44.07,.2c-.13,4.25-1.33,8.03-4.84,10.96-3.35,2.8-7.6,2.57-10.4-.69-3.95-4.58-4.26-9.74-2.47-15.07,.97-2.9,2.52-5.53,5.76-7.01,2.68-1.23,5.44-.82,7.59,1.09,3.37,3.01,4.16,6.84,4.37,10.73Zm-35.73,78.59c-1.04,3.13-1.95,6.29-3.14,9.38-2.69,7.01-6.35,13.63-12.55,18.78-10.3,8.55-22.25,12.6-36.44,8.91-7.23-1.88-12.78-5.84-16.52-11.65-.32-.5-.54-1.05-.55-1.75,.79,.75,1.56,1.52,2.38,2.25,8.56,7.56,18.99,9.14,30.31,6.78,13.43-2.79,22.93-10.2,29.42-20.66,1.84-2.97,3.16-6.19,4.71-9.29,.5-1.01,1-2.01,1.5-3.02,.29,.09,.58,.18,.87,.27Zm149.47,13.79c1.52,2.52,1.16,4.7,.17,6.84-3.59,7.79-14.32,12.7-23.75,10.76-8.2-1.69-15.14-5.3-20.42-11.13-1.08-1.19-1.74-2.68-2.59-4.03,.12-.1,.24-.2,.36-.29,.41,.32,.86,.61,1.22,.96,6.09,5.97,13.54,9.73,22.68,10.72,6.66,.72,12.12-1.58,16.49-5.7,2.08-1.96,3.35-4.58,4.99-6.9,.21-.3,.42-.61,.85-1.24Z"/>
  </g>
</svg>