<?xml version="1.0" encoding="UTF-8"?>
<svg id="Layer_2" data-name="Layer 2" xmlns="http://www.w3.org/2000/svg" viewBox="0 0 274.6 262.09">
  <g id="Layer_1-2" data-name="Layer 1">
    <path d="M235.47,197.25c5.27,5.76,11.34,10.29,19.06,13.18,2.61,.98,5.26,2,8.02,2.56,8.6,1.75,9.89,7.17,8.44,12.34-2.54,9.06-9.83,14.85-19.83,18.57-6.49,2.41-13.45,2.92-20.47,3.11-.85,.02-1.92,.32-2.48,.81-7.44,6.49-16.73,8.14-27.06,7.1-1.76-.18-3.5-.51-5.26-.74-4.16-.56-7.7,.7-10.91,2.66-9.5,5.8-19.77,6.55-30.76,3.48-6.27-1.75-12.6-3.39-18.94-4.96-2.96-.73-5.61-.19-8.29,1.34-10.12,5.77-20.7,6.4-31.73,1.59-4.7-2.05-9.64-3.72-14.49-5.54-1.52-.57-2.96-.4-4.53,.12-13.12,4.38-28.66,1.85-37.94-6.26-2.04-1.79-3.49-4.02-5.34-5.96-.8-.83-1.8-1.7-2.94-2.12-10.13-3.78-18.6-9.15-23.89-17.34-1.62-2.52-2.73-5.45-3.11-8.29-.73-5.45,3.51-8.85,10.19-9.19,4.69-.24,9.44-.58,14-1.45,6.74-1.3,11.94-4.83,16.78-9.08-4.25-1.46-7.69-3.58-10.14-6.67-2.52-3.17-3.03-6.68-2.31-10.37-2.1-.38-4.05-.64-5.94-1.1-14.02-3.36-24.45-14.16-25.47-26.18-.57-6.73,.75-13.14,4.57-19.13,.95-1.48,2.11-2.92,3.47-4.16,5.46-5,13.37-5.49,19.61-1.14,2.55,1.78,4.88,3.8,7.11,5.85,1.33,1.23,2.66,1.3,4.37,.84,4.82-1.27,8.51-3.78,11.6-6.98,5.5-5.69,8.86-12.26,11.57-19.09,4.1-10.32,6.48-20.93,7.66-31.73,.76-6.96,.95-13.98,2.12-20.88,3-17.78,11.99-32.96,30.17-43.64,23.25-13.65,54.47-11.16,74.51,5.6,11.46,9.58,18.19,21.21,21.85,34.07,3.11,10.95,5.51,22.04,8.32,33.05,2.86,11.2,6.35,22.26,12.81,32.49,1.88,2.98,4.1,5.9,6.75,8.44,2.03,1.94,4.9,3.33,7.57,4.76,1.52,.82,3.11,.53,4.28-.84,.86-1.01,1.87-1.95,2.87-2.87,4.39-4.01,10.29-4.93,16.2-2.53,3.71,1.51,6.69,3.75,8.98,6.55,7.58,9.23,10.15,19.23,6.29,30.05-1.76,4.93-5.46,8.81-10.85,11.47-1.21,.6-1.5,1.22-1.46,2.27,.29,6.97-1.93,13.27-7.62,18.57-4.23,3.94-9.48,6.4-15.88,7.09-.4,.04-.78,.14-1.54,.27Zm18.78-33.02c4.89-1.69,8.73-4.37,10.32-8.6,3.56-9.49,.82-18-6.65-25.58-1-1.02-2.43-1.83-3.84-2.48-2.6-1.22-4.62-.88-6.6,.95-1.18,1.09-2.22,2.29-3.4,3.39-2.66,2.46-5.98,3.73-9.92,2.75-2.83-.7-5.73-1.62-8.16-2.98-5.97-3.36-9.83-8.26-13.15-13.43-6.78-10.55-10.56-21.95-13.58-33.53-2.76-10.62-5.07-21.32-7.92-31.93-2.86-10.66-7.73-20.63-16.1-29.29C158.65,6.31,131.45,2.12,109.27,13.59c-13.45,6.95-21.35,17.36-26.03,29.61-3.14,8.22-3.28,16.76-4.09,25.23-1.13,11.64-3.11,23.17-7.02,34.43-3,8.65-6.75,17.04-13.25,24.38-4.92,5.56-10.97,9.9-19.52,11.26-3.79,.6-7.05-.09-9.72-2.45-2.05-1.82-4.06-3.68-6.24-5.38-3.9-3.05-7.27-2.77-10.14,1-7.01,9.24-7.24,22.99,4.84,31.95,4.86,3.6,10.59,5.22,17.16,4.96,6.26-.25,12.11-1.73,17.85-3.64,.65-.22,1.32-.41,1.98-.62,.09,.13,.19,.26,.28,.39-1.91,1.34-3.86,2.66-5.73,4.04-2.73,2.03-5.71,3.91-8.03,6.22-2.63,2.62-2.41,6.24,.43,8.49,1.85,1.46,4.43,2.3,6.7,3.39,1.05,.5,1.8,.09,2.4-.66,1.5-1.89,3.09-3.73,4.5-5.66,13.14-18.06,20.72-37.81,25.5-58.32,2.06-8.83,3.13-17.82,4.66-26.74,.27-1.56,.63-3.1,.94-4.65,.63,.69,.89,1.33,.97,1.98,.31,2.75,.74,5.5,.81,8.25,.55,21.32-3.92,41.94-13.17,61.85-5.63,12.11-12.67,23.6-23.14,33.45-5.7,5.37-12.25,9.82-20.53,12.31-5.81,1.75-11.86,2.19-17.98,2.31-2.47,.05-2.92,.38-2.06,2.19,1.26,2.65,2.59,5.37,4.57,7.66,4.56,5.26,10.86,8.84,18.12,11.25,2.63,.87,4.62,2.16,5.89,4.39,4.61,8.15,14.39,11.66,24.5,11.03,9.14-.57,16.77-3.86,23.06-9.3,.41-.36,.68-.83,1.2-1.48,1.33,2.91,2.22,5.39,3.54,7.7,5.65,9.81,17.47,12.57,28.63,6.77,6.83-3.54,11.34-8.73,15.15-14.42,.36-.54,.74-1.08,1.28-1.85,.28,.68,.41,1,.54,1.32,3.12,7.85,8.91,13.77,18.34,16.97,6.13,2.08,12.49,2.57,18.51,.06,3.48-1.45,6.54-3.65,9.6-5.71,2.42-1.63,4.9-2.33,7.97-1.69,5.58,1.16,11.19,2.22,17.03,1.78,4.81-.36,9.21-1.61,12.16-4.9,2.2-2.45,4.93-3.3,8.48-3.26,5.29,.06,10.58-.21,15.61-1.71,8.5-2.52,14.66-6.97,16.8-14.47,.71-2.48,.42-2.72-2.56-3.46-8.78-2.19-16.66-5.68-23.35-10.9-9.9-7.73-17.41-16.92-23.92-26.7-12.86-19.34-20.65-40.02-24.33-61.82-2.66-15.76-2.92-31.56-1.93-47.41,.04-.66,.25-1.31,.37-1.96,.47,.93,.65,1.82,.76,2.72,1.24,9.75,2.2,19.52,3.77,29.23,2.55,15.7,6.81,31.11,13,46.14,5.65,13.71,12.87,26.8,22.58,38.91,.55,.69,1.49,1.5,2.38,1.63,6.67,.99,12.52-.36,17.08-4.65,4.29-4.04,5.82-8.85,5.39-14.12-.2-2.51,.12-4.84,2.4-6.73l-.02,.02Zm-104.88-79.11c-.95-4.32-2.78-8.37-6.74-11.53-3.53-2.82-7.81-2.92-11.28-.06-1.52,1.25-2.93,2.75-3.79,4.36-4.61,8.6-4.96,17.36-.42,26.04,1.05,2,2.87,3.85,4.81,5.37,2.96,2.32,6.96,2.3,10.08,.12,1.58-1.11,2.97-2.51,4.08-3.96,2.94-3.89,3.72-8.29,4.12-13.99-.17-1.32-.3-3.87-.85-6.35ZM33.12,229.3c5.3,2.76,11,3.66,17.09,2.25,9.56-2.22,16.85-7.19,22.8-13.47,15.89-16.77,22.11-36.05,21.24-57.07-.06-1.4-.46-2.79-.7-4.19-.57,.42-.76,.83-.87,1.26-1.37,5.28-2.54,10.6-4.13,15.83-4.21,13.85-10.96,26.73-22.13,37.86-9.03,9-20.16,14.96-35.08,16.37,.87,.57,1.29,.91,1.79,1.16ZM123.61,49.44c-.2,6.24-1.17,11.31-5.21,15.62-1.41,1.5-3.12,2.69-5.52,2.97-3.08,.35-5.25-.91-7.07-2.73-2.91-2.91-4.41-6.33-5.02-10.01-1-6.01-.59-11.93,2.65-17.49,.89-1.54,2.18-3.02,3.67-4.21,2.81-2.24,6.27-2.17,9.22-.04,3.66,2.66,5.34,6.22,6.32,10.01,.58,2.24,.76,4.56,.97,5.88Zm-12.06-12.32c-2.44-.01-4.07,1.25-4.11,3.18-.04,1.98,1.7,3.44,4.09,3.43,2.25,0,4.09-1.49,4.08-3.31,0-1.83-1.79-3.28-4.07-3.3Zm38.37,12.84c.25-4.41,1.09-8.68,3.69-12.56,.97-1.45,2.25-2.86,3.73-3.97,2.81-2.12,6-2.02,8.84,.1,1,.75,1.99,1.61,2.62,2.57,5.84,9.02,6.11,18.16,.44,27.3-.7,1.12-1.78,2.15-2.93,3-3.07,2.28-6.54,2.23-9.55-.1-3.48-2.7-5.09-6.23-5.96-9.98-.49-2.09-.6-4.24-.88-6.36Zm16.45-9.58c-.01-1.85-1.77-3.38-3.93-3.4-2.44-.03-4.36,1.53-4.29,3.47,.06,1.79,1.91,3.27,4.1,3.29,2.39,.02,4.13-1.4,4.12-3.36Zm87.87,123.84c-9.11-1.17-17.01-4.54-24.18-9.13-7.23-4.63-13.31-10.21-18.94-16.13-.48-.51-1.5-.67-2.27-.99-.08,.7-.46,1.5-.18,2.09,3,6.34,6.89,12.24,12.39,17.39,9.52,8.91,22.79,10.74,33.21,6.75,0,0-.02,.02-.04,.03ZM19.8,146.1c-.49-.38-1.03-.74-1.61-1.04-2.64-1.37-5.78-.06-5.57,2.49,.11,1.37,.81,2.9,1.81,4.01,4.95,5.46,11.72,7.77,19.9,7.01,3.55-.33,6.76-1.54,9.72-3.94-9.68-.49-17.59-3.35-24.25-8.53Z"/>
  </g>
</svg>