<?xml version="1.0" encoding="UTF-8"?>
<svg id="Layer_2" data-name="Layer 2" xmlns="http://www.w3.org/2000/svg" viewBox="0 0 254.35 255.63">
  <g id="Layer_1-2" data-name="Layer 1">
    <path d="M200.12,245.13c-17.34,14.02-34.84,11.8-52.71,1.04-3.53,4.01-7.88,7.22-13.46,8.45-8.73,1.93-17.13,1.29-24.77-3.68-4.42-2.88-7.17-7.03-8.87-11.87-.17-.48-.31-.96-.48-1.49-1.57,2.13-2.97,4.28-4.62,6.22-7.52,8.81-17.35,11.81-28.77,10.6-6.66-.7-12.5-3.19-17.18-7.97-3.12-3.19-5.08-6.98-6.03-11.34-5.09,1.99-9.86,.75-14.53-1.16-4.67-1.91-8.55-4.88-11.6-8.8-8.29-10.63-8.45-25-.48-36.56,3.94-5.72,9.23-10.12,14.55-14.53,3.89-3.23,7.65-6.62,11.23-10.16,2.45-2.43,4.1-5.47,5-8.82,.13-.49,.2-.99,.25-1.23-2.78-.29-5.48-.27-8.01-.91-6.09-1.55-10.35-6.74-10.63-12.85-.13-2.78,.18-5.6,.45-8.39,.19-1.91-.23-3.19-2.12-3.71-1.46-.4-3.14-.49-4.64-.25-3.46,.56-6.35,2.41-9.12,4.43-.61,.45-1.21,.91-1.85,1.31-4.75,2.9-9.48,1.11-10.87-4.16-1.07-4.08-1.11-8.25-.24-12.32,3.1-14.41,11.32-24.74,26.04-29.34,3.36-1.05,7.05-1.13,10.61-1.48,3.03-.3,6.14-.04,9.11-.57,7.93-1.42,13.34-6.34,17.55-12.73,2.64-4.01,4.18-8.48,5.63-12.98,3.42-10.6,7.66-20.84,14-30.15,7.86-11.55,17.88-20.62,31.28-25.8C123.83,.44,133.22-.68,142.75,.39c25.51,2.85,41.41,17.09,49.41,40.32,2.68,7.79,3.78,15.88,4.31,24.05,.67,10.21,1.3,20.42,4.27,30.33,1.31,4.37,3.26,8.42,6.23,11.97,4.88,5.81,11.22,8.74,18.89,9,5.39,.18,10.64,.94,15.44,3.5,7.26,3.87,11.98,9.56,12.95,17.79,.33,2.76-.17,5.4-1.47,7.86-2.36,4.44-6.81,5.91-11.46,3.73-1.96-.92-3.79-2.08-5.75-3.01-1.01-.48-2.13-.88-3.24-.99-2.55-.25-4.4,1.78-3.91,4.24,.42,2.07,1.16,4.09,1.46,6.18,1.22,8.33-3.98,15.11-12.5,16.46-.42,.07-.83,.18-1.7,.37,.85,2.27,1.48,4.51,2.49,6.57,2.22,4.55,5.69,8.25,8.99,12.07,3.25,3.77,6.63,7.49,9.47,11.55,5.72,8.17,7.49,17.14,4.01,26.62-5.06,13.82-22.21,22.23-36.12,17.91-1.59-.49-3.1-1.24-4.41-1.77Zm33.68-110.42c.05-.21,.11-.41,.16-.62,.63,.13,1.34,.13,1.88,.42,1.71,.92,3.31,2.05,5.05,2.89,.78,.38,2.26,.65,2.65,.25,.57-.59,.71-1.85,.56-2.75-.57-3.37-2.35-6.15-5.05-8.3-3.75-2.98-8.11-4.49-12.96-4.55-10.14-.11-18.1-4.35-24.3-12-4.14-5.1-6.46-10.99-7.93-17.26-2.35-10.03-2.65-20.28-3.6-30.46-.77-8.31-2.26-16.47-5.26-24.34C173.16,6.94,142.01-.3,118.44,7.89c-11.17,3.88-19.69,11.31-26.78,20.39-7.78,9.96-12.8,21.26-16.84,33-2.56,7.44-5.54,14.64-11.03,20.54-6.18,6.63-13.57,10.66-23.19,9.78-4.62-.42-9.24-.31-13.77,1.03-12.29,3.63-22.18,16.74-21.94,29.26,.03,1.61,.35,3.28,.91,4.8,.81,2.21,2.51,2.67,4.58,1.48,.84-.48,1.61-1.08,2.41-1.63,2.87-1.97,5.88-3.68,9.39-4.29,4.45-.76,8.56-.28,11.89,3.16,1.34,1.38,1.78,2.76,1.04,4.59-1.13,2.8-1.5,5.73-1.25,8.74,.4,4.93,3.78,8.2,8.83,8.58,3.53,.27,6.7-.51,9.59-3.22,.37,1.08,.8,1.87,.9,2.7,.8,6.71-1.01,12.79-4.86,18.35-3.63,5.24-8.65,9.07-13.68,12.89-5.43,4.12-10.72,8.36-14.57,14.04-11.19,16.49,.22,34.18,14.35,37.49,4.48,1.05,8.54,.53,11.92-2.82,.26-.26,.66-.4,1.22-.72,0,.87,.02,1.44,0,2-.34,7.73,2.99,13.67,9.54,17.87,10.55,6.77,25.97,4.7,34.88-4.5,3.76-3.88,6.33-8.46,8.61-13.23,.29-.61,.71-1.17,1.07-1.75l.57,.11c.23,1.05,.49,2.09,.67,3.15,1.9,11.41,8.71,19.94,21.42,20.83,9.7,.68,18.01-1.92,23.16-10.75,.64-1.1,1.44-1.14,2.37-.3,1.32,1.19,2.56,2.49,4.02,3.48,8.32,5.68,17.68,7.67,27.63,6.41,7.33-.93,13.83-3.78,18.16-10.06,.71-1.02,1.25-.46,2,0,1.63,1.02,3.24,2.24,5.05,2.78,4.48,1.35,9.04,1.01,13.52-.24,13-3.61,20.2-15.52,16.79-27.83-1.4-5.03-4.46-9.15-7.83-13.08-3.87-4.52-7.93-8.9-11.6-13.56-3.73-4.73-6.28-10.04-6.33-16.2-.02-2.58,.4-3.01,3.07-3.09,.38-.01,.76-.03,1.14-.06,6.88-.37,10.94-5.41,9.52-11.94-.45-2.06-1.27-4.04-1.83-6.09-1.18-4.33,.38-7.69,4.16-9.21,3.07-1.23,5.92-.93,8.68,.88,1.93,1.27,3.87,2.63,5.99,3.51,3.62,1.5,7.03-.62,7.1-4.45,.04-2.22-.29-4.57-1.02-6.67-1.26-3.59-3.98-6.15-7.33-8.04,.41,.74,.98,1.35,1.5,1.99,2.03,2.52,3.44,5.28,3.39,8.57-.04,2.83-2.03,4.18-4.74,3.11-2.76-1.09-5.07-2.84-7.1-4.93Zm-98.59-64.04c.13-6.63,1.74-12.81,6.07-18.08,2.88-3.52,6.42-5.88,11.37-5.35,3.09,.33,5.33,2.01,7.14,4.32,2.38,3.05,3.47,6.6,3.8,10.34,.7,7.99-.85,15.46-6.21,21.78-2.94,3.48-6.72,5.59-11.61,4.68-3.2-.6-5.43-2.57-7.19-5.11-2.62-3.81-3.37-8.09-3.36-12.58Zm10.49-7.68c-.23-.97-.33-2-.71-2.91-.98-2.32-3.14-2.66-4.92-.86-2.01,2.04-2.69,6.32-1.4,8.8,1.06,2.03,2.76,2.37,4.5,.86,1.79-1.56,2.41-3.59,2.53-5.89Zm-52.79,5.99c.12-6.39,1.55-12.41,5.58-17.6,1.1-1.41,2.47-2.71,3.96-3.74,4.46-3.08,9.87-2.46,13.59,1.44,3.3,3.46,4.7,7.71,5.04,12.3,.58,7.98-1.33,15.31-6.98,21.32-6.06,6.45-14.67,5.15-18.77-2.64-1.83-3.49-2.35-7.24-2.42-11.08Zm26.45-5.24c-.54-1.45-.87-3.03-1.66-4.34-1.04-1.71-2.8-1.7-4.22-.24-2.17,2.25-2.32,7.36-.29,9.76,1.16,1.37,2.64,1.45,3.91,.17,1.43-1.46,1.95-3.25,2.26-5.36Zm-5.92,36.98c-2.12,6.38-2.76,12.96-2.26,19.63,.3,4.01,1.31,7.85,3.95,11.1,2.22,2.74,5.07,4.16,8.7,3.68,2.92-.39,5.11-2.01,6.89-4.2,3.14-3.87,4.75-8.42,5.99-13.11,1.4-5.25,2.41-10.57,1.91-16.02-.24-2.57-1.75-4.12-4.24-4.6-1.01,3.6-2.86,6.56-7.15,6.73-5.63,.22-9.35-2.53-11.47-8.15-.92,1.93-1.8,3.38-2.33,4.95Zm-60.83,115.62c-1,.62-1.98,1.27-3,1.86-4.23,2.48-8.73,3.78-13.72,2.89-9.59-1.71-16.17-11.5-10.66-21.06,2.11-3.67,5-6.67,8.25-9.37,4.23-3.5,8.67-6.79,12.74-10.46,7.27-6.57,12.71-14.25,13.67-24.23,.48-5.02-.03-9.86-3.29-14.06-.35-.46-.9-.77-1.36-1.15-.12,.12-.24,.24-.36,.36,.63,1.55,1.4,3.06,1.86,4.66,1.54,5.35,.1,10.4-2.02,15.29-3.04,7-8.18,12.45-13.99,17.37-3.78,3.2-7.7,6.27-11.27,9.68-5.03,4.82-9.06,10.27-10.17,17.36-1.32,8.43,3.9,16.87,12.2,19.25,7.93,2.27,15.64-.83,21.34-6.78,.28-.29,.16-.93,.23-1.41-.15-.06-.3-.13-.45-.19Zm154.09-54.25c-.68,.98-1.48,1.91-2.02,2.96-1.62,3.17-1.96,6.58-1.8,10.06,.32,6.9,2.94,13.04,7.15,18.45,3.41,4.39,7.28,8.43,10.94,12.64,3.08,3.53,5.91,7.22,7.36,11.71,2.08,6.44,.02,11.08-6.21,14.02-.73,.35-1.48,.68-2.25,.94-5.84,1.95-11.55,1.75-17.08-1.05-.84-.42-1.71-1.05-2.54,.28,.71,.55,1.34,1.13,2.05,1.59,4.75,3.09,10.04,4.09,15.6,3.26,11.21-1.68,18.69-10.2,13.97-22.48-1.78-4.64-4.74-8.55-7.89-12.37-4.22-5.12-8.72-10.06-12.52-15.47-4.88-6.96-7.03-14.66-4.17-23.08,.13-.38,.05-.82,.07-1.24l-.67-.22Zm-101.13,62.48c-.06,.43-.23,.88-.16,1.29,1.02,5.87,3.33,11.12,8.27,14.87,6.32,4.8,13.5,5.21,20.95,3.33,4.85-1.22,8.11-4.27,9.42-9.02,.65-2.35,2.25-3.33,4.49-3.79,4.16-.84,7.65,.63,11.05,2.77,2.82,1.78,5.7,3.54,8.75,4.9,6.01,2.68,12.35,3.82,18.93,2.5,4.81-.96,8.84-3.25,11.57-7.36,.26-.4,.32-.93,.58-1.72-.64,.25-.76,.27-.84,.34-.16,.14-.3,.31-.43,.47-4.8,5.93-11.19,7.92-18.7,7.13-6.47-.68-12.02-3.51-17.35-6.91-1.82-1.16-3.53-2.58-5.5-3.4-5.56-2.34-13.92-2.47-17.19,5.25-.87,2.06-2.77,3.23-4.87,3.99-3.72,1.36-7.55,1.57-11.42,.8-7.35-1.47-12.26-5.85-15.32-12.38-.51-1.08-1.09-2.13-1.63-3.19-.21,.04-.41,.07-.62,.11ZM37.81,119.91c-4.17-4.49-13.38-8.51-21.37-2.54-1.38,1.03-2.62,2.23-3.92,3.35-.47,.4-.95,.78-1.85,1.5-.4-1.59-.88-2.76-.96-3.96-.25-3.96,1.57-7.33,3.72-10.47,4.69-6.84,10.27-12.65,19.07-14.37,.25-.05,.45-.32,.68-.49-.02-.14-.04-.28-.05-.42-.81-.09-1.69-.41-2.42-.22-2.24,.58-4.6,1.05-6.6,2.12-7.42,3.98-12.62,9.96-15.71,17.63-1.31,3.25-1.54,6.62-.33,9.94,.32,.89,1.09,2.01,1.91,2.28,1.33,.44,2.66-.05,3.79-1.19,1.68-1.71,3.48-3.38,5.45-4.75,3.48-2.42,7.33-2.54,10.86-.27,2.31,1.49,4.21,3.6,6.26,5.47,.42,.38,.69,.91,1.04,1.38,1.93-1.63,2.08-3.24,.44-5Zm42.95,118.81c-6.61,2.97-13.34,3.44-20.04,.45-7.38-3.29-10.86-10.7-6.16-18.13,.2-.32,.29-.7,.43-1.05-.1-.09-.21-.18-.31-.26-.46,.29-1.09,.48-1.37,.9-1.3,1.93-2.91,3.79-3.66,5.92-2.2,6.25,1.52,13.46,8.26,16.45,5.84,2.6,11.78,2.24,17.64,.16,2.61-.93,5.05-2.3,7.59-3.49-.74-1.75-1.54-1.31-2.37-.94Zm-18.04-111.65c-.43,.34-.86,.68-1.3,1.01-3.17,2.3-6.21,4.79-9.54,6.84-2.26,1.39-4.96,1.83-7.71,1.2-2.3-.53-3.69-1.9-3.34-4.16,.4-2.52,1.18-5.03,2.16-7.4,.84-2.04,2.21-3.87,3.48-6.02-.31-.3-.68-.65-1.12-1.06-4.3,3.75-7.36,8.01-8.45,13.33-1.2,5.87,2.3,9.67,8.45,9.17,2.1-.17,4.26-.89,6.16-1.81,3.79-1.85,6.85-4.66,9.56-7.81,.77-.9,1.45-1.87,2.18-2.81-.17-.15-.34-.31-.51-.46Zm137.7,26.47c.19,.49,.27,1.05,.59,1.45,1.4,1.75,2.72,3.6,4.35,5.12,2.37,2.22,5.29,3.54,8.64,3.67,5.32,.2,7.82-3.2,5.75-7.96-.84-1.93-2.11-3.69-3.24-5.5-1.21-1.96-2.45-3.88-2.41-6.3,0-.39-.55-.79-.84-1.18-.53,.79-.81,1.39-.69,1.91,.41,1.83,.82,3.69,1.5,5.44,.77,1.97,1.99,3.77,2.76,5.74,1.01,2.62-.24,4.52-3.07,4.92-.74,.11-1.53,.05-2.27-.06-2.94-.44-5.15-2.13-7.21-4.08-1.16-1.1-2.34-2.16-3.52-3.24-.11,.03-.22,.05-.34,.08Z"/>
  </g>
</svg>