<?xml version="1.0" encoding="UTF-8"?>
<svg id="Layer_2" data-name="Layer 2" xmlns="http://www.w3.org/2000/svg" viewBox="0 0 289.58 277.34">
  <g id="Layer_1-2" data-name="Layer 1">
    <path d="M280.82,140.6c-2.72,.2-5.21,.14-7.57,.61-5.05,1.01-7.78,4.21-8.79,8.7-1.02,4.53,.58,8.19,4.85,10.69,2.13,1.25,4.46,2.21,6.69,3.31,19.32,9.5,15.72,31.42,3.51,39.87-2.59,1.79-5.72,2.92-8.6,4.36-.13-.19-.26-.38-.4-.56,1.22-1.34,2.6-2.59,3.61-4.06,1.3-1.88,2.6-3.85,3.35-5.94,1.67-4.61-1.22-8.83-6.41-9.82-7.82-1.49-15.15,2.62-17.22,9.64-.06,.21-.18,.41-.21,.62-1.38,9.03-7.46,14.32-19.07,15.41-1.57,.15-3.14,.42-4.68,.76-4.55,.98-7.63,3.61-8.2,7.79-1.54,11.31-9.03,18.34-19.68,22.8-9.2,3.85-18.73,7.07-28.2,10.37-4.43,1.54-8.1,3.54-10.79,7.33-4.29,6.05-10.18,10.69-17.21,14.07-.56,.27-1.12,.53-1.7,.77-.11,.05-.29-.03-.65-.08,.41-.58,.77-1.09,1.14-1.59,2.65-3.6,2.03-7.01-2.25-8.9-3.38-1.49-7.1-2.45-10.78-3.2-7.25-1.49-14.55-.32-21.83,.14-7.89,.5-15.39-.49-21.9-4.99-7.62-5.27-10.81-12.58-11.67-21.04-.37-3.66-.9-7.38-2.01-10.9-2.22-7.03-8.31-11.15-15.36-10.66-2.1,.15-4.2,.74-6.21,1.38-9.53,3.04-18.4,2.17-26.03-4.09-7.85-6.44-10.54-14.59-8.28-24.04,.59-2.46,1.19-4.92,1.9-7.86-4.83,1.93-8.26,4.54-10.17,8.55-1.9,3.99-1.39,8.04,.59,12.35C.03,194.38-2.41,185.51,2.28,177.01c2.04-3.7,4.87-7.12,7.82-10.3,1.9-2.04,2.72-3.91,2.57-6.58-.43-7.91-.28-15.81,2.44-23.47,.2-.55,.37-1.11,.59-1.65,4.48-11.03,12.45-15.33,25.23-13.65,8.51,1.12,17.01,1.92,25.54,0,13.25-2.97,23.68-9.89,32.44-19.16,11.27-11.92,17.71-25.97,21.61-41.13,2.72-10.57,5.26-21.19,10.04-31.21,3.13-6.55,6.98-12.68,12.27-18.01,13.49-13.6,33.02-15.68,49.67-5.33,10.92,6.79,17.09,16.52,20.91,27.73,3.36,9.88,4.67,20.11,5.77,30.35,1.11,10.24,1.7,20.54,4.81,30.5,1,3.18,2.27,6.36,3.93,9.29,3.92,6.95,10.24,10.91,18.87,11.56,8.09,.61,15.88,2.03,22.57,6.61,6.26,4.28,11.02,9.41,11.46,16.96,.02,.36,0,.72,0,1.05Zm-98.23-28.11c.09-.02,.17-.05,.26-.07,0,1.09,.03,2.17,0,3.26-.52,14.16-2.37,28.18-5.67,42.02-3.49,14.65-8.62,28.77-17.33,41.6-8.13,11.99-18.51,22.27-29.77,31.83-3.17,2.69-6.51,5.21-10.03,8,.64-.07,.95-.07,1.24-.14,12.1-2.94,17.71-.9,24.09,8.78,.16,.25,.28,.54,.49,.74,1.89,1.83,3.6,3.88,5.74,5.41,2.97,2.12,6.64,3.63,5.52,8.38,5.32-5.02,5.42-8.59,3.1-12.74-2.06-3.69-1.96-7.75-1.32-11.72,1.47-9.15,6-17.11,12.44-24.07,6.58-7.1,10.64-15.24,13.02-24.13,2.54-9.47,4.77-19.01,7.13-28.52-.59,5.22-1.36,10.44-2.26,15.63-.9,5.13-1.94,10.24-2.91,15.36,.56-.61,.8-1.29,1.02-1.97,5.95-18.46,8.38-37.44,9.86-56.53,1.08-13.96,1.74-27.94,2.6-41.92,.04-.58,.09-1.16,.16-1.73,.06-.48,.17-.96,.26-1.44,2.34,31.22,2.15,62.33-3.4,93.28-2.82,15.72-8.34,30.27-20.62,42.17-2.42,2.35-3.98,5.43-5.94,8.18,.26,.18,.52,.37,.78,.55,.7-.77,1.33-1.6,2.11-2.29,6.05-5.31,13.57-7.55,21.65-8.62,1.65-.22,3.28-.52,4.9-.88,7.54-1.68,12.6-7.28,12.79-14.37,.14-5.36-.24-10.74,.09-16.08,.36-5.85,2.09-11.42,6.12-16.18,3.12-3.68,7.26-5.6,12.28-4.73,3.45,.6,6.82,1.85,10.03,3.2,5.94,2.51,11.98,4.65,18.52,5.3,4.18,.42,8.4,.53,12.56,1.04,6.65,.81,11.84,3.72,12.15,10.88,.01,.33,.18,.65,.34,1.23,2.21-7.94-.79-15.91-8.03-20.57-3.2-2.06-6.84-3.65-10.46-5.06-14.8-5.73-26.3-14.98-35.11-27.11-2.33-3.21-4.28-6.64-6.41-9.97,3.64,12.76,6.35,25.82,14.46,37.14-9.81-9.05-13.5-20.71-16.81-32.87,1.38,11.05,2.72,21.77,4.06,32.5-.29,.04-.57,.08-.86,.12-.19-.52-.44-1.03-.56-1.57-1.73-7.43-3.72-14.82-5.1-22.3-4.8-26.04-7.47-52.31-10.16-78.58-.94-9.24-2.21-18.44-5.19-27.37-2.97-8.89-7.56-16.88-15.39-23.06-10.48-8.27-23-8.54-33.87-.71-5.87,4.23-9.86,9.79-13.13,15.81-4.72,8.68-7.51,17.97-10.08,27.32-2.93,10.67-5.41,21.45-10.46,31.54-7.83,15.65-19.08,28.58-35.77,37-13.23,6.67-26.96,9.16-41.44,2.97-4.24-1.82-8.87-2.08-13.53-1.34-4.37,.69-8.13,3.29-9.3,6.62,.38-.19,.63-.3,.88-.44,8.7-4.92,17.05-3.28,22.51,4.62,4.28,6.21,10.45,9.87,18.09,11.42,21.69,4.42,41.02-.14,58.01-13.15,1.4-1.07,2.73-2.2,4.1-3.31-.05,.63-.33,1.05-.66,1.43-9.18,10.49-20.92,17.62-34.74,21.97-12.3,3.88-25.06,4.85-37.97,5.31-6.38,.23-12.91,.74-19.05,2.21-11.22,2.68-20.28,8.48-25.83,18.13-2.6,4.52-2.96,9.28-1.39,14.11,.81-2.49,1.29-5.08,2.48-7.38,4.12-7.99,11.61-12.59,20.38-15.35,17.05-5.37,34.2-5.75,51.26,.21,7.94,2.77,16.13,3.78,24.55,2.75,9.71-1.18,16.56-6.61,22.44-13.22,7.5-8.43,12.38-18.18,16.39-28.3,2-5.05,3.73-10.18,5.58-15.27,.1,.81,.06,1.59-.07,2.37-1.81,11.44-4.99,22.54-9.64,33.29-1,2.32-1.14,4.42-.31,6.89,3.2,9.48,3.72,19.14,.58,28.7-5.05,15.38-15.18,26.4-32.76,30.69-3.98,.97-8.06,1.64-11.96,2.81-5.72,1.72-10.56,4.72-13.94,9.48,7.26-5.92,16.13-7.94,25.42-8.53,10.15-.65,18.84-4.19,26.65-9.92,9.32-6.84,16.23-15.46,21.93-24.94,8.53-14.17,13.74-29.54,19.03-44.87,.45-1.31,.85-2.64,1.28-3.95,.42-1.28,.84-2.55,1.26-3.82,.19,.07,.39,.14,.58,.21-6.68,26.78-14.07,53.27-35.82,74.09,1.23-.75,2.27-1.61,3.26-2.52,8.07-7.36,14.22-15.94,19-25.35,7.33-14.42,11.51-29.71,14.74-45.25,1.68-8.1,3.24-16.22,4.86-24.33Zm42.5-1.43c6.53,12.46,13.87,24.12,30.89,26.38-13.43,.47-21.27-7.33-28.83-16.61,3.66,8.57,14.17,16.65,23.12,18.12,3.81,.63,7.81,1.01,11-1.3,4.03-2.91,8.14-5.19,13.95-4.66-2.04-2.09-4.31-1.78-6.44-2.01-1.51-.17-3.39-.26-4.39-1.09-4.34-3.61-9.45-4.49-15.02-4.22-.76,.04-1.52,0-2.28,0,1.31-.56,2.56-.79,3.82-.9,4.83-.4,9.51-.26,13.47,2.89,2.5,1.99,3.83,2.25,7.44,1.89-5.44-5.04-14.37-8.62-22.62-8.82-9.5-.23-18.17-2-24.1-9.67Zm-33.91-34.92c-.15-6.25-1.25-12.27-5.7-17.34-3.95-4.51-9.23-6.14-14.05-4-2.37,1.05-4.66,2.59-6.41,4.37-5.84,5.93-9.06,13.04-10.09,20.93-.8,6.16,1.4,11.32,6.95,15.04,8.32,5.59,21.21,6.14,26.67-6.5,1.69-3.9,2.17-8.23,3.21-12.37-.19-.05-.39-.1-.58-.14Zm-25.76-41.67c-1.61-3.43-5.3-4.1-8.31-1.58-1.2,1.01-2.29,2.26-3,3.59-2.83,5.26-4.24,10.78-2.07,16.54,1.33,3.55,4.89,4.41,8.19,2.17,.93-.63,1.75-1.48,2.43-2.35,2.92-3.73,3.78-8.04,4.19-13.41-.3-1.1-.56-3.14-1.41-4.96Zm26.83,4.77c-.09-1.08-.09-2.18-.28-3.24-.61-3.46-1.64-6.8-4.43-9.39-2.7-2.51-6.19-2.12-8.12,.92-.55,.86-.96,1.84-1.19,2.81-1.05,4.34-.77,8.65,.97,12.78,.69,1.64,1.82,3.24,3.14,4.52,2.75,2.65,6.5,2.22,8.17-1.08,1.13-2.23,1.48-4.79,2.18-7.2-.15-.04-.29-.07-.44-.11Z"/>
  </g>
</svg>