<?xml version="1.0" encoding="UTF-8"?>
<svg id="Layer_2" data-name="Layer 2" xmlns="http://www.w3.org/2000/svg" viewBox="0 0 245.2 260.69">
  <defs>
    <style>
      .cls-1 {
        fill: #0d090d;
      }
    </style>
  </defs>
  <g id="Layer_1-2" data-name="Layer 1">
    <path class="cls-1" d="M52.5,257.23c-10.91-3.56-18.97-10.83-24.29-21.72-1.39-2.85-.58-4.89,2.23-5.28,11.31-1.57,19.67-10.1,21.91-22.29,.98-5.33,1.04-10.61-.34-15.88-.32-1.21-.67-1.37-1.74-.88-6.11,2.84-12.48,3.18-18.97,2.15-1.48-.23-2.66-.92-2.98-2.61-.32-1.7,.54-2.81,1.83-3.65,2.91-1.9,5.58-4.15,7.77-6.97,2.19-2.82,3.43-6.04,2.57-9.76-1.21-5.19-5.94-7.95-11.23-6.7-5.65,1.33-9.68,5.15-12.98,10.01-1.93,2.84-3.45,5.94-4.28,9.4-.11,.46-.28,.9-.45,1.33-.49,1.22-1.34,1.97-2.57,2.07-1.25,.1-2.16-.55-2.73-1.74-4.4-9.34-6.01-18.93-1.87-28.86,1.25-3.01,1.11-5.51-.35-8.41-6.91-13.77-5.63-35.69,9.52-46.81,3.02-2.22,6.3-3.84,9.83-4.86,1.68-.48,2.87,.13,3.56,1.71,.71,1.62,.05,2.89-1.27,3.78-2.22,1.5-4.52,2.89-6.41,4.9-3.95,4.18-5.71,9.19-4.48,15.12,1.22,5.84,6.28,8.68,10.63,7.71,13.38-2.97,23.05-11.21,30.01-23.6,6.13-10.91,9.64-22.8,11.22-35.38,1.21-9.64,2.08-19.34,5.58-28.47,6.09-15.87,15.44-28.65,30.02-36.1,22.41-11.45,48.93-4.3,63.18,16.77,5.72,8.46,8.54,18.09,9.56,28.43,1.03,10.43-.11,20.88,.38,31.31,.32,6.88,1.51,13.6,4.6,19.71,2.84,5.59,6.76,10.01,12.88,11.11,9.07,1.63,16.67-5.78,14.94-15.78-.29-1.65-.17-3.13,1.45-3.97,1.64-.85,2.78,.16,3.78,1.34,4.24,5.01,6.48,11.02,7.27,17.69,1.02,8.57,.87,17.04-2.09,25.22-2.21,6.1-5.86,11.14-10.02,15.79-1.4,1.56-2.68,3.23-3.69,5.11-2.28,4.26-1.7,8.5,1.8,11.65,5.5,4.94,14.31,7.15,20.9-2.18,3.27-4.63,4.86-10,5.71-15.67,.49-3.26,1.44-4.33,3.61-4.02,1.55,.22,2.11,1.55,2.74,2.79,4.45,8.77,6.24,18.25,5.94,28.16-.52,17.27-5.93,32.57-16.83,45.27-6,7-13.55,11.23-22.53,11.97-5.08,.42-9.97-.52-14.62-2.78-1.72-.83-3.47-1.5-5.34-1.81-4.13-.68-8.99,3.21-7.96,8.08,1.32,6.21-3.4,13.16-9.63,16.21-1.36,.66-2.8,1.13-4.2,1.69-.37,.04-.73,.1-1.1,.13-5.24,.55-10.43,.76-15.09-2.63-.95-1.16-1.92-2.31-2.84-3.5-1.58-2.06-3.6-2.99-6.07-3.05-4.73-.11-8.16,2.44-11.08,6.12-2.11,1.93-4.39,3.57-7.07,4.37-9.5,2.83-18.63,2.6-26.95-3.98-.17-.16-.33-.31-.5-.47l.07,.05c-.59-.69-1.22-1.34-1.75-2.08-2.45-3.39-5.61-4.08-9.35-3.21-3.09,.72-5.01,3.07-7.03,5.34-2.08,1.67-4.33,2.82-6.93,3.32-5.01,.97-9.96,.78-14.91-.38-.11-.07-.22-.09-.34-.05l-.62-.27Zm145.07-87.71l-.03,.28c.06,0,.11,0,.17,0-.06-.08-.12-.17-.19-.25-.38-1.22-.76-2.45-1.14-3.67-.73-6.7,1.72-12.11,5.88-16.81,.95-1.07,1.87-2.19,2.82-3.26,5.02-5.62,8.17-12.21,8.8-20.07,.45-5.57,.3-11.1-1.08-16.94-1.32,2.85-2.91,4.98-4.86,6.81-.22,.13-.44,.25-.65,.41-8.54,6.3-18.67,5.65-26.49-1.65-5.16-4.82-8.14-11.06-10.02-18-2.55-9.45-2.45-19.14-2.09-28.84,.25-6.72,.11-13.42-.9-20.07-1.25-8.27-3.94-15.89-8.96-22.41-.75-.99-1.43-2.05-2.25-2.97-13.22-14.84-34.11-19.27-51.23-10.22-17.54,9.27-26.99,25.36-30.38,45.7-1.84,11.03-2.49,22.29-5.86,33-2.14,5.97-4.34,11.9-7.41,17.42-7.05,12.69-16.37,22.43-29.84,26.69-3.88,1.23-7.76,2.61-11.93,1.54-3.07-.79-5.48-2.76-7.85-4.83-2.06-3.13-3.69-6.48-4.21-10.72-1.15,4.11-1.3,7.91-.99,11.69,.27,3.41,.82,6.8,2.53,9.81-.13,1.08,.5,1.91,.92,2.75,1.34,2.67,2,5.44,1.83,8.5-.15,2.78-1.31,5.14-2.2,7.62-1.52,3.48-1.52,7.07-.92,10.8,6.87-10.24,14.75-17.9,27.51-15.29,1.39,.73,2.96,1.24,4.14,2.26,1.47,1.27,2.73,1.08,4.29,.39,14.34-6.25,23.03-17.83,27.3-33.65,.31-1.14,.35-2.4,1.29-3.91-.52,6.53-1.88,12.28-3.94,17.81-4.07,10.92-10.65,19.49-20.52,24.84-.89,.48-2.15,.59-2.67,1.34-.57,.82,.47,1.93,.6,2.98,.09,.73,.26,1.46,.4,2.18,.18,5.65-1.47,10.61-5.24,15.15,7.25-1.56,13-5.09,18.01-10.04,10.89-10.74,16.8-24.45,19.95-39.76,1.77-8.6,2.66-17.34,3.1-26.13,.03-.5-.37-1.31,.57-1.43,.04,1.69,.08,3.39,.13,5.08,.47,15.44-1.1,30.55-6.35,45.04-4.13,11.39-10.14,21.26-19.79,28.09-.84,.59-.53,1.17-.34,1.89,.97,3.75,1.32,7.55,1.07,11.45-.47,7.32-2.68,13.97-6.22,20.17-4.41,6.54-10.33,10.71-17.52,12.85,4.57,9.45,11.78,15.12,21.06,17.2,6.4,1.43,13.18,2.24,17.92-4.75,8.39-6.18,15.74-5.62,23.18,1.75,.92,1.5,2.18,2.61,3.61,3.46,7.35,4.37,18.27,2.82,24.27-3.53,7.77-8.21,20.6-8.9,26.56,.91,.78,1.29,2.11,1.64,3.4,1.91,1.91,.39,3.85,.57,5.79,.36,4.53-.49,8.31-2.31,10.27-7.15,.75-1.25,.44-2.63,.23-3.91-.31-1.88-.37-3.76-.29-5.65,.22-5.22,3.19-9.52,7.72-11.37,2.94-1.2,5.87-.88,8.84-.25,.99,.56,2.04,1.03,2.96,1.7,1.33,.97,2.45,2.43,3.89,3.06,4.61,2.04,9.44,2.56,14.34,1.44,7.7-1.76,13.74-6.43,18.28-13.2,8.75-13.07,12.8-27.66,11.24-43.87-.22-2.33-.49-4.69-1.36-7.4-1.75,4.93-4.27,8.75-7.33,12.17-1.94,1.33-3.69,3-5.93,3.79-12.32,4.34-23.42,1.65-33.47-6.87-2.99-2.54-5.42-5.63-6.96-9.44-3.26-8.04,.6-15.67,8.52-16.9,.55,.05,1.13,0,1.66,.16,1.83,.53,3.85,.66,5,2.67-1.42,.2-2.85,.35-4.27,.59-5.71,.96-8.81,5.52-7.32,10.73,1.11,3.86,7.09,8.64,10.97,8.76ZM99.31,100c0-3.98,.61-7.82,2.3-11.38,1.04-2.18,1.86-2.34,3.62-.88,8.8,7.32,18.81,6.95,27.16-1,2.04-1.94,2.91-1.87,4.14,.66,5.9,12.14,1.9,29.58-9.14,36.45-7.84,4.88-17.04,2.39-22.83-6.03-3.64-5.29-5.26-11.27-5.25-17.82Zm25.96,10.47c-4.42,.13-7.76,2.19-9.74,6.56-1.19,2.63-.66,3.65,2.05,4.07,.31,.05,.62,.04,.93,.05,3.66,.09,6.64-1.6,9.21-4.25,1.29-1.33,3.42-3.02,2.79-4.6-.69-1.73-3.23-1.91-5.24-1.83Zm34.13-34.69c-.86,10.67-.4,21.25,2.8,31.47,3.28,10.46,8.86,19.05,18.17,24.22,7.49,4.16,16.73,3.38,21.87-5.57,.33-1.51,1.56-2.71,1.26-4.43l.03,.04c-.2,.24-.45,.45-.6,.72-4.63,8.84-14.01,9.73-21.01,4.27-4.42-3.45-7.66-7.94-10.31-12.98-5.95-11.3-8.19-23.72-9.05-36.5-.39-5.8-.55-11.62-.81-17.43-.06,0-.12-.02-.18-.02-.53,3.02-1.06,6.04-1.6,9.06-.59,2.34-.39,4.77-.58,7.15Zm-16.09-16.58c-.2,3.79-.93,8.07-3.33,11.83-3.01,4.71-7.01,4.79-10.2,.2-4.44-6.4-4.25-18.82,.38-25.03,2.96-3.96,7.11-3.85,9.91,.28,2.03,3,3.25,7.53,3.24,12.72Zm-2.95-4.51c-.1-2.02-.6-4.29-2.09-6.15-1.39-1.72-3.03-1.33-3.6,.88-.7,2.68,.07,5.06,1.55,7.19,.66,.96,1.45,2.12,2.72,1.67,1.34-.47,1.42-1.88,1.42-3.59Zm-30.16,5.99c-.18,4.58-1.02,9.37-4.17,13.35-2.78,3.51-6.04,3.56-8.69-.04-3.11-4.21-3.81-9.2-3.46-14.38,.25-3.66,1.03-7.22,3.02-10.32,3.29-5.13,7.97-4.95,10.89,.43,1.48,2.71,2.43,6.85,2.42,10.96Zm-2.79-3.59c-.03-2.5-.61-4.66-1.97-6.52-.62-.84-1.45-1.43-2.44-1.01-.85,.35-1.31,1.19-1.4,2.22-.22,2.43,.14,4.72,1.54,6.69,.71,1,1.48,2.17,2.87,1.7,1.43-.49,1.3-1.95,1.41-3.08Zm8.47,186.76c2.92-.88,5.55-2.4,7.78-4.65,6.31-6.4,7.73-14.4,6.4-23.26-1.2-8.01-3.92-15.47-7.18-22.73-.17,.02-.39-.52-.48,0-.05,.31,.1,.66,.16,.98,1.58,8.47,2.21,17.01,1.74,25.65-.52,9.58-2.95,18.12-10.79,23.79,.73,.89,1.62,.43,2.38,.2Zm-37.06-32.23c-2.41,6.56-5.18,12.94-8.28,19.15,.1,.1,.2,.19,.29,.29,.19-.25,.42-.48,.58-.75,5.7-10.02,10.45-20.56,14.44-31.5,4.41-12.1,6.69-24.58,5.63-37.65-.47-5.8-1.52-11.49-2.54-17.2-.35-.65-.14-1.59-.94-2.16,.28,3.24,.67,6.33,.8,9.44,.53,12.65-.74,25.13-3.37,37.45-1.6,7.49-3.54,14.87-6.35,21.96-.08,.32-.15,.65-.26,.96Zm-8.28,19.15c-.27,.46-.55,.91-.92,1.54,.99-.08,1.09-.67,1.21-1.25-.1-.1-.2-.19-.29-.29Zm94.39-97.83c-1.45,3.49-1.9,7.19-2.21,10.92-.04,10.55,2.95,20.16,7.63,29.27,5.01,9.73,14.31,22.95,17.05,24.14,.05-.55-.36-.83-.61-1.17-5.2-7.14-9.59-14.82-13.11-23.08-2-4.69-3.95-9.42-5.1-14.47-2.69-8.28-3.75-16.84-3.65-25.62Zm50.43,60.4c-.01-.08-.03-.15-.04-.23,0,.03-.03,.06-.02,.08,.02,.05,.05,.09,.07,.13,0,0-.01,.02-.01,.02Zm-11.84-71.87c.09,0,.17,0,.26,0-.02-.08-.04-.15-.06-.23-.06,.09-.11,.18-.17,.27,0,0-.03-.04-.03-.04Z"/>
  </g>
</svg>