<?xml version="1.0" encoding="UTF-8"?>
<svg id="Layer_2" data-name="Layer 2" xmlns="http://www.w3.org/2000/svg" viewBox="0 0 257.33 232.11">
  <g id="Layer_1-2" data-name="Layer 1">
    <path d="M196.59,230.3c-7.6-.17-16.57-1.16-25.12-4.32-3.63-1.34-7.36-1.55-11.09-1.57-16-.1-31.99-.07-47.99,0-1.54,0-3.14,.5-4.59,1.07-12.67,4.98-25.77,7.47-39.45,6.39-10.74-.85-20.98-3.29-29.76-9.86-7.06-5.28-11.38-12.48-15.05-20.14-2.54-5.3-4.91-10.67-7.45-15.96-.89-1.84-1.95-3.62-3.15-5.28-1.52-2.1-3.6-3.23-6.37-2.64-.21,.04-.43,.04-.65,.06-1.95,.22-4.01,.63-5.29-1.37-1.31-2.06-.31-3.96,.76-5.75,3.39-5.66,8.89-7.91,15.19-8.47,4.16-.37,8.37-.17,12.56-.17,4.63,0,9.27,.12,13.9,.08,3.7-.02,3.76-.08,4.95-3.45,.63-1.79,1.23-3.62,1.59-5.47,1.21-6.22-1.09-10.69-6.89-13.57-4.27-2.12-8.82-3.08-13.61-2.93-2.07,.06-3.55-.77-4.08-2.75-.54-2.02,.53-3.39,2.32-4.26,.77-.38,1.57-.72,2.4-.98,2.82-.89,5.6-1.93,8.48-2.55,11.74-2.55,18.2-9.83,20.01-21.17,1.59-9.95,3.09-19.93,4.34-29.92,1.52-12.1,2.47-24.3,7.39-35.72C79.9,16.47,97.75,3.39,123.22,.48c18.76-2.14,35.36,2.84,49.34,15.45,8.08,7.29,13.1,16.56,17.78,26.09,9.15,18.64,15.68,38.14,20.91,58.12,1.22,4.68,3.07,9.27,5.21,13.63,6.95,14.16,19.54,20.12,35.35,17.07,3.6-.69,5.96,.95,5.43,3.89-.15,.84-.7,1.69-1.27,2.38-4.94,6.09-11.77,9.4-18.98,12.12-3.23,1.21-6.54,2.21-9.78,3.4-3.96,1.45-6.39,4.21-7.17,8.32-.71,3.77,.37,6.09,4.1,7.27,3.56,1.12,7.32,1.62,10.9,2.67,4.26,1.25,8.72,2.29,12.59,4.32,9.26,4.85,11.86,13.69,7.27,22.92-2.04,4.11-4.65,7.91-8.32,10.73-6.25,4.78-12.55,9.54-19.18,13.8-8.83,5.67-18.85,7.68-30.83,7.65ZM80.34,102.96c.1,.55,.28,1.09,.3,1.64,.62,13.5-.3,26.79-5.68,39.48-7.14,16.83-19.49,24.92-38.08,24.82-5.58-.03-11.15-.19-16.73-.11-3.35,.05-6.66,.53-9.83,2.22,5.7,2.45,7.68,4.25,10.55,9.5,.44,.81,.89,1.61,1.28,2.45,3.06,6.46,6.07,12.95,9.16,19.4,4.67,9.75,12.05,16.62,22.61,20.04,5.87,1.9,11.91,2.91,18.09,3.1,11.4,.36,22.3-1.9,32.79-6.11,6.68-2.68,13.23-5.69,19.91-8.37,11.62-4.68,22.95-4.1,34.02,1.91,4.09,2.22,8.41,4.07,12.68,5.95,1.9,.84,3.93,1.41,5.94,1.96,2.08,.58,4.2,1.04,6.32,1.45,1.96,.38,3.95,.64,5.93,.96-8.77-5.54-14.1-13.41-17.3-22.76-3.58-10.47-4.3-21.28-3.42-32.2,.32-4.01,1.19-7.98,1.81-11.97,.27,.02,.53,.04,.8,.06,0,1.25-.09,2.51,.02,3.76,.75,8.56,1.2,17.17,2.42,25.68,1.24,8.66,4.24,16.83,9.59,24.01,7.19,9.67,22.7,17.84,38.36,8.27,7.21-4.41,13.97-9.53,20.74-14.57,3.44-2.56,5.67-6.18,7.03-10.24,1.57-4.69,.52-8.54-3.65-11.36-2.21-1.49-4.8-2.63-7.38-3.39-3.93-1.16-8.02-1.8-12.02-2.76-12.2-2.9-20.52-10.57-26.61-20.86-7.76-13.11-10.52-27.6-11.27-42.4-.81-16-1.03-32.04-1.04-48.07,0-8.47-1.69-16.31-5.59-23.85-3.81-7.35-8.04-14.35-14.26-20.05C147.24,1.64,115.97,3.07,95.72,17.17c-12.64,8.8-20.13,21.06-23.01,35.66-2.33,11.81-3.14,23.91-4.98,35.82-1.25,8.06-2.73,16.13-4.82,24.02-2.47,9.33-8.99,15.38-18.27,18.61-.75,.26-1.5,.53-2.58,.91,12.23,5.18,17.29,13.55,13.49,26.15,.32-.06,.48-.05,.57-.11,.53-.37,1.06-.74,1.56-1.15,5.42-4.31,9.58-9.59,12.64-15.69,6.07-12.11,8.45-25.12,10.01-38.44Zm163.9,35.39c-.05-.12-.1-.24-.15-.35-.84-.04-1.67-.07-2.51-.11-10.77-.47-19.69-4.73-26.02-13.19-3.2-4.28-5.92-9.12-7.74-14.09-3.1-8.47-5.27-17.26-7.93-25.89-1.61-5.21-3.43-10.36-5.32-16.02-.25,.72-.33,.84-.32,.97,.12,18.56-.15,37.15,2.69,55.59,1.5,9.76,4.34,19.15,9.67,27.65,1.81,2.89,4.06,5.53,6.12,8.28,1.65-8.83,7.15-13.43,15.18-15.93,4.12-1.28,8.1-2.99,12.1-4.61,1.48-.6,2.82-1.51,4.23-2.28Zm-92.76-48.67c-.33,6.72-1.82,13.11-5.48,18.9-8.91,14.12-23.32,12.34-32.37,2.36-5.24-5.78-7.82-12.74-8.85-20.3-.24-1.74-.44-3.51-.44-5.26,0-2.84,2.5-4.33,5.1-3.01,1.4,.71,2.6,1.77,3.94,2.61,6.24,3.92,12.94,6.29,20.31,3.97,3.27-1.03,6.14-3.26,9.21-4.92,1.42-.77,2.8-1.83,4.32-2.11,2.23-.41,3.65,.91,4.07,3.13,.1,.55,.17,1.12,.18,1.68,.03,.99,0,1.97,0,2.96Zm-21.2,16.37s-.43-.42-.9-.75c-2.71-1.92-6.42-1.52-8.38,.9-1.81,2.24-1.2,5.51,1.4,7.7,6,5.06,14.59,2.11,17.96-3.06,1.84-2.82,.13-5.92-3.33-5.92-2.07,0-4.14,.66-6.75,1.12Zm-18.03-46.23c-.15,4.67-1.32,9.47-5.23,13.23-3.95,3.79-8.72,3.81-12.72,.1-3.42-3.18-4.86-7.24-5.35-11.71-.56-5.07,.33-9.86,3.04-14.23,4.12-6.63,11.06-7.02,15.98-.92,3.08,3.82,4.18,8.29,4.27,13.53Zm-14.2-3.79c2.58,.03,4.52-1.83,4.53-4.34,0-2.56-1.85-4.5-4.37-4.56-2.55-.06-4.73,2-4.72,4.5,0,2.42,2.04,4.38,4.56,4.41Zm68.84,4.31c-.11,3.56-1.08,7.9-4.13,11.6-4.21,5.1-10.03,5.28-14.51,.46-6.33-6.8-6.19-20.72,.26-27.41,3.68-3.82,8.55-4,12.5-.47,3.66,3.26,5.85,8.77,5.88,15.83Zm-9.48-8.43c.12-2.74-1.66-4.73-4.28-4.79-2.47-.06-4.53,1.72-4.67,4.02-.17,2.65,1.66,4.75,4.22,4.87,2.64,.13,4.62-1.59,4.73-4.1ZM46.61,205.76c8.57,9.96,19.63,13.56,32.47,11.64,13.04-1.96,23.02-8.62,29.48-20.04-18.65,16.96-39.21,20.02-61.95,8.4Z"/>
  </g>
</svg>