<?xml version="1.0" encoding="UTF-8"?>
<svg id="Layer_2" data-name="Layer 2" xmlns="http://www.w3.org/2000/svg" viewBox="0 0 259.03 262.53">
  <g id="Layer_1-2" data-name="Layer 1">
    <path d="M254.28,152.14c-2.86-1.81-6.35-2.89-9.69-3.95-4.52-1.44-9.32-2.22-13.73-3.88-9-3.38-15.19-9.79-20.35-17.09-6.38-9.03-10.84-18.91-14.99-28.91-6.68-16.09-13.06-32.28-19.96-48.28-4.43-10.28-9.68-20.25-17.42-28.91C138.16-1.26,103.78-6.57,76.97,8.64c-15.95,9.05-25.19,22.44-29.6,38.87-3.57,13.28-4.14,26.91-5.52,40.44-.85,8.39-1.5,16.85-3.2,25.1-2.39,11.54-8.52,21.11-20.33,26.89-.68,.33-1.29,.8-1.89,1.25-2.84,2.13-4.68,4.8-4.93,8.19-.39,5.3,3.81,10.16,10.1,11.14,3.16,.49,6.5,.09,9.77,.09,.03,.07,.09,.18,.1,.29,.02,.24,.04,.48,.01,.71-.62,6.37-4.8,10.2-10.92,12.47-2.63,.97-5.45,1.51-8.19,2.25-3.66,.99-7.08,2.36-9.68,5.04-3.57,3.68-3.65,8.41,.19,11.83,1.76,1.57,4,2.88,6.27,3.75,5.35,2.07,11.03,2.14,16.67,1.27,3.81-.59,7.55-1.6,11.51-2.47-.11,.7-.14,1.51-.38,2.27-1.11,3.5-3.26,6.49-6.66,8.29-3.67,1.95-7.64,3.45-11.6,4.89-4.46,1.62-8.76,3.37-11.63,7.1-2.99,3.89-2.79,8.17,.5,11.83,2.88,3.21,6.75,4.97,10.99,6.09,11.78,3.1,23.47,2.04,34.86-1.42,6.56-1.99,13.24-2.79,20.02-3.37,.18-.02,.37,0,.55,.01,2.88,.02,5.19,1.36,7.13,3.17,1.06,.5,1.97,1.32,2.88,1.95,.58,.4,1.2,.75,1.79,1.12,1.82,1.1,3.76,2.18,5.83,2.78,9.56,2.75,18.12,.25,26.26-4.42,4.47-2.56,9.07-4.92,13.95-7.56-.43,.78-.66,1.3-.99,1.78-3.1,4.47-7.26,7.58-12.89,9.22-3.47,1.01-7.02,2.32-9.96,4.22-5.27,3.42-5.38,9.33-.63,13.34,1.27,1.07,2.76,2.01,4.32,2.68,7.07,3.03,14.56,3.13,22.14,2.39,9.55-.93,17.31-5.53,24.78-10.5,3.53-2.35,7.08-3.62,11.39-3.02,7.26,1.01,14.49,.94,21.72-.25,3.95-.65,7.91-1.21,11.89-1.72,4.36-.56,8.81-.73,13.1-1.57,6.07-1.19,11.84-3.22,16.41-7.32,5.81-5.2,5.32-11.73-1.5-15.83-2.87-1.72-6.29-2.72-9.55-3.83-2.9-.99-5.98-1.56-8.88-2.56-1.94-.66-3.63-1.8-4.34-3.98,1.28-.11,2.43-.19,3.58-.3,5.27-.52,10.16-1.99,14.26-5.17,6.45-5,6.13-11.95-1.05-15.99-3.13-1.76-6.81-2.98-10.42-3.72-9.75-2-17.25-6.87-23.17-14.05-4.99-6.06-8.07-12.97-10.88-20.02-.53-1.33-1.2-2.63-1.98-3.86-.31-.48-1.24-1.07-1.64-.95-.57,.18-1.19,.93-1.3,1.51-.22,1.16-.21,2.37-.11,3.55,.98,10.57,4.59,20.32,11.29,29.01,4.92,6.38,11.28,10.93,19.88,12.48,2.41,.44,4.81,.99,7.17,1.6,1.49,.39,2.82,1.13,2.86,2.77,.04,1.68-1.17,2.75-2.75,3.06-2.64,.52-5.37,1.05-8.03,.96-6.39-.23-11.63-3.01-16.27-6.87-.91-.76-1.84-1.52-2.87-2.13-1.46-.87-3.05-1.01-4.59-.12-1.54,.89-1.94,2.39-1.45,3.77,1.12,3.13,2.53,6.18,3.86,9.25,.24,.56,.65,1.05,.98,1.58-.8-.2-1.29-.58-1.76-.98-5.29-4.46-9.15-9.84-12.3-15.7-6.88-12.8-9.56-26.59-10.84-40.6-1.08-11.84-1.43-23.74-2.15-35.61-.16-2.67-.39-5.34-.84-7.97-.13-.77-1.12-1.42-1.72-2.12-.64,.66-1.67,1.25-1.85,2.01-.61,2.48-1.23,5.02-1.28,7.54-.14,7.78-.29,15.58,.06,23.36,.61,13.66,1.83,27.29,5.36,40.64,2.85,10.77,7.03,21,14.66,29.8,6.91,7.97,15.66,13.07,26.88,14.23,1.99,.2,4.03,.12,5.96,.53,3.27,.7,6.53,1.56,9.69,2.6,2.34,.77,4.69,1.72,6.72,3.01,1.8,1.15,1.75,3.12,.12,4.48-1.17,.98-2.59,1.82-4.07,2.34-8.59,3.04-17.46,3.36-26.46,1.97-6.74-1.04-12.67-3.73-18.07-7.52-1.9-1.34-3.79-2.72-5.83-3.86-3.77-2.11-6.93-1.18-8.75,2.47-.78,1.56-1.28,3.24-2.07,4.8-1.54,3.06-2.89,6.26-4.86,9.09-8.06,11.55-23.5,13.08-33.2,10.51-1.45-.38-3.2-.81-3.22-2.63-.02-1.84,1.75-2.14,3.19-2.63,2-.69,4.09-1.19,5.98-2.08,12.13-5.71,19.14-18.12,17.14-30.48-.44-2.73-1.21-5.5-2.44-8-1.57-3.2-5.22-3.27-7.44-.38-.67,.87-1.17,1.85-1.69,2.8-2.5,4.59-5.32,8.99-9.2,12.74-5.05,4.87-10.78,8.77-18.13,10.19-3.43,.66-6.87,.69-10.03-1-2.74-1.46-3.24-3.95-1.21-6.16,.99-1.08,2.19-2.03,3.42-2.89,3.3-2.32,6-5.07,7.75-8.56,3.08-6.13,3.62-12.73,3.96-19.31,.15-2.91-3.02-4.4-5.81-2.87-1.31,.72-2.38,1.81-3.48,2.82-5.5,5.06-10.76,10.34-16.48,15.17-9.4,7.93-19.95,14.25-32.42,17.47-7.95,2.05-16.01,3.3-24.2,1.54-2.25-.48-4.47-1.59-6.34-2.86-1.96-1.33-1.79-3.5,.16-4.88,1.26-.89,2.74-1.61,4.24-2.11,7.25-2.39,13.82-5.73,19.12-10.95,.39-.38,.93-.62,1.39-.94,1.39-.95,2.99-1.72,4.12-2.88,6.78-6.97,11.58-15.02,14.95-23.79,5.67-14.73,7.16-30,6.7-45.49-.09-3.19-.62-6.38-1.22-9.53-.18-.94-1.19-2.38-1.96-2.45-1.62-.16-1.84,1.46-1.96,2.58-.46,4.19-.94,8.4-1.12,12.6-.39,8.8-1.11,17.57-3.24,26.17-1.24,5-2.97,9.9-4.53,15-2.77-1.91-4.76-1.85-7.61,0-2.39,1.54-4.68,3.21-7.13,4.66-6.34,3.76-13.26,6.02-20.89,5.91-2.14-.03-4.39-.52-6.35-1.3-1.93-.76-1.77-2.49,.11-3.36,.91-.43,1.95-.62,2.92-.95,3.4-1.14,7-1.94,10.16-3.49,12.75-6.3,19.53-16.67,22.8-29.2,.56-2.14,.62-4.48,.39-6.68-.21-2.06-2.01-3.16-4.22-2.68-1.41,.3-2.84,1.14-3.92,2.06-3.35,2.85-6.71,5.69-11.16,6.96-1.85,.53-3.93,.68-5.87,.55-.88-.06-2.02-1.07-2.44-1.9-.6-1.19,.2-2.3,1.38-3.02,1.35-.82,2.79-1.52,4.1-2.38,10.37-6.76,16.03-16.31,19.06-27.33,3.06-11.13,3.13-22.6,4.33-33.94,1.08-10.16,2.13-20.35,3.96-30.42,2.43-13.38,9.14-24.81,20.86-33.43,13.13-9.66,28.07-13.14,44.57-10.02,16.44,3.11,28.42,12.02,36.82,25.07,8.87,13.78,12.7,29,14.64,44.7,1.46,11.81,2.67,23.64,4.37,35.42,1.56,10.75,4.57,21.19,9.67,31.04,4.66,9.01,10.83,16.93,20.08,22.49,10.76,6.47,22.57,7.23,34.81,4.89,5.33-1.02,10.36-2.8,14.32-6.4,5.17-4.71,4.89-10.5-1.1-14.28Zm-10.56,10.43c-2.78,1.28-5.9,2.28-8.97,2.62-17.78,2.01-30.41-5.26-39.27-18.87-5.81-8.93-9.28-18.71-11.18-28.88-1.57-8.36-2.44-16.82-3.61-25.24-.47-3.41-.9-6.83-1.35-10.25,.09-.03,.17-.06,.26-.08,1.8,4.62,3.59,9.25,5.4,13.87,4.73,12.13,9.63,24.2,16.77,35.37,4.82,7.54,10.51,14.45,18.34,19.65,5.51,3.65,11.67,5.57,18.46,5.94,1.59,.09,3.27,.32,4.72,.89,2.85,1.11,3.17,3.72,.43,4.98ZM107.13,111.62c.09-5.63,.65-11.22,3.06-16.41,1.29-2.78,3.08-5.53,5.3-7.75,3.82-3.81,8.97-3.42,12.68,.54,2.93,3.13,4.26,6.95,4.85,10.91,1.37,9.13,.68,18.17-2.72,26.87-1.09,2.78-2.86,5.5-4.98,7.73-3.45,3.62-8.39,3.32-11.84-.29-3.67-3.84-4.82-8.6-5.61-13.44-.44-2.69-.51-5.44-.74-8.16Zm7.45,2.76c.48,5.27,.55,10.63,4.84,15.08,2.67-2.21,3.57-4.88,4.47-7.54,.21-.61,.44-1.3,.33-1.9-.63-3.54-5.48-6.43-9.64-5.64Zm-33.72-51.33c.07-3.59,1.07-8.2,4.06-12.29,4.83-6.58,12.74-6.69,17.82-.27,5.99,7.58,5.49,21.27-1.05,28.46-5.12,5.63-11.95,5.37-16.6-.63-2.74-3.54-4.18-8.32-4.23-15.27Zm15.27-8.87c.01-.27,.02-.54,.04-.81-.69-.44-1.42-1.26-2.06-1.2-.69,.06-1.28,.95-1.92,1.48,.59,.57,1.11,1.5,1.79,1.61,.63,.1,1.43-.68,2.15-1.07Zm58.25,6.59c-.09,5.12-.91,9.77-4.04,13.82-2.88,3.74-7.31,5.45-11.29,3.79-2.24-.94-4.39-2.63-5.83-4.47-4.25-5.45-4.92-11.75-4.16-18.22,.42-3.58,1.52-6.99,3.8-9.99,4.32-5.7,11.22-6,15.98-.62,4.11,4.64,5.39,10.16,5.54,15.69Zm-11.06-11.44c-1.29-.83-2.09-1.74-2.68-1.63-.76,.14-1.35,1.07-2.01,1.66,.61,.56,1.21,1.56,1.84,1.58,.74,.02,1.51-.8,2.85-1.61Zm-74.89,63.83c-2.59-3.73-4.44-8.33-5.89-13.08-4.13-13.58-5.63-27.42-4.6-41.47,.4-5.57,1.34-11.09,3.46-16.38,.47-1.18,1.26-2.26,1.9-3.38,.26,.02,.51,.05,.77,.07,.16,.78,.49,1.57,.45,2.35-.25,4.69-.6,9.37-.9,14.06-.84,13.33-.38,26.63,1.59,39.86,.91,6.15,2.2,12.26,3.23,17.97Z"/>
  </g>
</svg>