<?xml version="1.0" encoding="UTF-8"?>
<svg id="Layer_2" data-name="Layer 2" xmlns="http://www.w3.org/2000/svg" viewBox="0 0 281.42 244.51">
  <g id="Layer_1-2" data-name="Layer 1">
    <path d="M205.73,230.16c1.98,2.62,2.03,5.19,.67,7.92,3.38,.37,6.73,.72,10.07,1.11,.67,.08,1.4,.17,1.95,.44,.5,.25,1.11,.77,1.08,1.13-.03,.39-.71,.96-1.22,1.06-1.54,.3-3.13,.45-4.71,.57-1.36,.1-2.74,.14-4.1,.09-5.59-.23-10.98,.69-16.44,1.46-6.95,.97-13.91,.63-20.82-.53-1.84-.31-3.73-.54-5.6-.54-19.61-.04-39.21-.04-58.82-.02-1.2,0-2.41,.2-3.58,.41-9.19,1.65-18.31,1.66-27.48-.28-2.66-.56-5.58-.35-8.38-.52-2.04-.13-4.1-.21-6.1-.53-.81-.13-1.47-.83-2.21-1.28,.7-.46,1.32-1.18,2.12-1.33,2.34-.47,4.75-.71,7.3-1.06-.29-.79-.69-1.61-.87-2.45-.98-4.55,3.22-8.78,9.74-9.68,2.08-.29,4.23-.29,6.35-.38,2.52-.1,3.11-.53,3.11-2.43,0-2.01,0-4.01,0-6.05-7.43-1.18-14.37-.72-21.28,.8-3.86,.85-7.73,1.86-11.68,2.27-13.05,1.33-22.69-3.12-29.5-11.53-2.66-3.28-5.05-6.68-7.79-9.94-4.89-5.84-4.22-12.04,.75-17.7,2.55-2.9,5.8-5.49,9.09-7.93,7.78-5.77,15.65-11.44,21.3-18.68,3.85-4.93,6.66-10.21,9.08-15.91-7.09,3.38-13.42,6.99-17.22,12.72-.9,1.36-1.9,2.72-3.12,3.92-2.45,2.4-5.72,3.55-9.66,2.99-4.98-.72-7.28-3.89-6.21-8.65-2.3,1.59-4.88,2.18-7.48,1.52-1.63-.41-3.35-1.31-4.34-2.37-2.25-2.42-2.97-5.6,4.52-10.62-1.49,.09-2.69,.22-3.9,.24-4.99,.06-9.05-2.22-10.09-5.64-1.08-3.55,1.17-7.13,5.73-8.77,1.84-.66,3.84-1.13,5.82-1.47,13.21-2.3,23.24-8.06,30.7-16.8,8.51-9.98,14.08-20.95,18.29-32.39,3.75-10.19,7.09-20.47,11.02-30.61,3.4-8.79,8.5-16.99,15.85-24.25C97.84,8.39,111.28,2.84,127.31,.94c10.35-1.22,20.76-1.43,31.02,.39,3.79,.67,7.31,2.22,11.03,3.19,2.34,.61,4.8,.99,7.24,1.34,15.04,2.15,23.71,8.67,27.19,20.34,.38,1.27,1.34,2.48,2.26,3.6,4.35,5.29,6.92,11.15,7.93,17.28,1.79,11,2.9,22.06,4.61,33.06,.44,2.82,1.84,5.61,3.2,8.28,3.86,7.62,8.44,14.95,14.26,21.81,8.16,9.62,18.99,15.98,33.82,17.89,2.41,.31,4.87,1.02,6.97,2,3.95,1.84,5.44,5.34,4.14,8.65-1.24,3.16-4.71,5.02-9.44,5-1.35,0-2.71-.12-4.09-.19,1.55,1.35,3.31,2.58,4.61,4.06,3.09,3.52,.15,8.64-5.17,8.9-2.17,.11-4.39-.51-6.54-.8,.4,1.73,.28,3.9-1.87,5.34-1.52,1.02-3.61,1.85-5.58,2.07-3.85,.43-6.87-1.09-9.17-3.46-.69-.71-1.34-1.46-1.81-2.26-3.05-5.17-8.26-8.69-14.72-11.77,.36,1.15,.65,2.06,.94,2.98,4.91,15.3,13.93,28.89,27.52,40.61,3.62,3.12,7.04,6.38,10.46,9.64,14.34,13.65,5.53,29.74-13.29,35.1-10.75,3.06-21.51,2.42-32.22,.06-4.93-1.09-9.72-2.54-14.87-3.9ZM75.15,53.22c2.4,.58,2.83,1.91,2.57,3.54-.17,1.06-.34,2.12-.43,3.18-1.24,13.85-2.36,27.71-3.72,41.56-1.1,11.13-3.06,22.17-6.83,32.96-3.37,9.66-7.92,18.92-15.59,27.08-5.57,5.93-12.51,10.81-19.26,15.86-2.99,2.24-5.93,4.66-8.16,7.36-4.23,5.15-2.42,11.16,3.98,14.73,5.31,2.96,11.37,3.79,17.58,2.79,4.71-.76,9.3-2.11,13.82-3.45,7.46-2.2,14.98-3.75,23.08-3.12,14.7,1.15,26.32,8.73,30.2,19.89,1.25,3.6,2.04,7.33,3.73,10.8,4.77,9.78,17.39,12.98,28.62,7.28,3.92-1.99,7.35-4.58,10.98-6.91,13.02-8.37,27.12-10.81,42.98-5.18,9.03,3.21,18.2,6.23,27.97,7.88,9.03,1.52,17.93,1.69,26.48-1.58,10.98-4.2,18.66-14.26,8.02-24.95-3.35-3.37-6.94-6.61-10.57-9.8-9.87-8.66-17.97-18.17-23.45-29.01-6.19-12.24-9.51-25-11.09-38.02-2.01-16.53-3.35-33.12-5.17-49.67-1.02-9.27-2.16-18.54-3.7-27.77-1.04-6.2-3.38-12.18-8.39-17.26-.83-.84-2.06-1.67-3.32-1.98-10.55-2.58-18.74-7.36-24.09-15.02-2.91-4.17-7.59-6.47-13.48-7.46-9.02-1.51-18.11-1.45-27.2-.67-16.95,1.45-30.47,7.44-40.17,18.55-7.52,8.61-11.75,18.27-15.35,28.39Zm-6.17,19.41c-.1-.02-.2-.04-.3-.06-.33,.77-.68,1.53-.99,2.3-4.46,11.36-9.63,22.48-18.05,32.49-5.19,6.16-11.24,11.66-19.56,15.39-6.38,2.86-13.23,4.69-20.46,5.7-2.91,.41-4.07,1.52-3.67,3.29,.38,1.67,2.24,2.58,4.9,2.28,1.42-.16,2.83-.44,4.19-.78,2.91-.73,4.11-.2,6.45,2.9,1.25,1.67,.21,2.78-1.36,3.83-1.96,1.31-3.98,2.58-5.75,4.04-.55,.45-.83,1.69-.44,2.12,.53,.58,1.84,.96,2.81,.97,.86,0,1.81-.55,2.58-1,1.21-.71,2.24-1.61,3.46-2.32,1.66-.96,2.98-2.89,5.61-1.61,1.77,.86,1.64,2.19,.1,4.98-.8,1.45-1.5,2.98-1.8,4.53-.3,1.54,.94,2.28,2.93,2.1,2.08-.19,3.16-1.31,3.83-2.71,2.88-6.08,8.13-10.63,14.89-14.23,2.63-1.4,5.33-2.75,7.83-4.29,2.77-1.71,5.18-3.8,5.92-6.58,1-3.77,1.85-7.58,2.38-11.4,1.17-8.37,2.17-16.76,3.09-25.15,.61-5.59,.97-11.2,1.44-16.8Zm151.04,27.17c0,.44-.03,.68,0,.91,1.24,9.91,2.43,19.83,3.78,29.73,.39,2.83,.36,5.88,3.7,7.93,2.74,1.69,5.35,3.5,8.14,5.13,5.59,3.26,10.2,7.07,12.37,12.41,.29,.71,.9,1.38,1.54,1.94,1.11,.97,2.61,1.3,4.13,.72,1.67-.65,1.77-1.9,1.21-3.09-.68-1.43-1.62-2.8-2.46-4.18-.8-1.31-.83-2.58,.61-3.58,1.54-1.07,2.93-.38,4.24,.47,2.05,1.32,4.09,2.64,6.22,3.88,1.29,.75,2.74,.84,3.88-.21,1.19-1.09,.33-2.02-.7-2.78-1.83-1.34-3.76-2.58-5.61-3.9-1.98-1.41-2.02-2.72-.23-4.3,.55-.49,1.11-.97,1.65-1.47,1.12-1.02,2.35-1.23,4.06-.78,1.76,.47,3.68,.76,5.54,.78,2,.02,3.22-1.08,3.39-2.6,.16-1.43-.94-2.32-2.7-2.67-.73-.15-1.48-.23-2.23-.33-8.92-1.3-17.56-3.15-25-7.52-6.72-3.94-12.05-8.85-16.47-14.36-3.13-3.89-5.95-7.93-9.07-12.13ZM32.45,207.27c3.68,4.03,8.9,6.59,14.44,7.47,5.12,.81,9.93-.15,14.72-1.37,8.87-2.26,17.88-3.15,27.11-1.56,6.41,1.11,11.97,3.58,17.15,6.8,.03-.29,.11-.46,.06-.62-2.77-9.64-13.65-16.57-26.31-16.86-6.77-.15-13.02,1.34-19.15,3.33-8.87,2.89-17.87,4.98-28.02,2.81Zm62.49,12.24c0,1.46,.07,2.64-.01,3.81-.36,5.5-4.93,8.47-11.98,7.91-1.55-.12-3.2-.02-4.72,.26-1.82,.34-3.44,1.14-3.65,2.8-.2,1.56,1.33,2.29,2.81,2.93,.65,.28,1.39,.47,2.11,.64,5.78,1.37,11.71,1.39,17.6,.81,3.05-.3,6.12-.94,8.96-1.86,4.39-1.42,5.27-4.04,2.88-7.21-3.3-4.37-8.27-7.32-14-10.09Zm85,4.58c-.76,.08-1.36,.13-1.95,.21-5.04,.7-9.05,2.65-11.8,6.05-1.92,2.37-1.35,4.46,1.71,5.91,1.4,.67,2.98,1.18,4.56,1.54,5.91,1.36,12,1.49,18.05,.97,2.94-.25,5.88-1.06,8.62-1.99,1.03-.35,2.08-1.79,2-2.66-.09-.86-1.41-2.04-2.53-2.36-1.85-.52-4-.76-5.96-.61-7.67,.61-10.97-1.12-12.68-7.07Zm-2.18-212.17c3.8,5.59,9.43,9.45,17.4,11.42-2.02-5.7-8.64-10.34-17.4-11.42Zm-19.46,220.57c-2.62,1.73-5.19,3.43-7.93,5.24h8.98c-.36-1.77-.69-3.44-1.05-5.24ZM99.43,50.98c.12-4.28,1.07-9.24,5.4-13.36,3.73-3.54,9.29-3.6,13.17-.16,1.23,1.09,2.25,2.4,3.01,3.74,2.27,3.98,2.92,8.2,2.53,12.52-.31,3.47-1.27,6.81-3.58,9.83-4.39,5.75-12.2,5.85-16.77,.21-2.95-3.65-3.7-7.72-3.77-12.78Zm15.38-3.77c0-1.76-1.63-3.11-3.75-3.11-2.19,0-3.91,1.33-3.89,3.02,.02,1.69,1.72,2.98,3.92,2.97,2.2-.01,3.72-1.18,3.72-2.87Zm41.33,2.74c.03-1.9,.68-5.53,2.78-8.9,.82-1.32,1.86-2.6,3.11-3.69,3.75-3.27,9.18-3.16,12.85,.18,3.57,3.26,4.75,7.24,5.29,11.35,.58,4.37-.12,8.65-2.31,12.72-.47,.87-1.03,1.73-1.72,2.5-4.57,5.14-11.47,5.07-15.94-.14-2.64-3.07-4.07-7.39-4.06-14.02Zm16-2.73c.05-1.73-1.62-3.11-3.76-3.14-2.19-.03-4.02,1.29-4.07,2.93-.05,1.68,1.64,3.04,3.83,3.08,2.33,.04,3.96-1.12,4-2.88Zm-46.32,30.23c0-.47-.15-.99,.04-1.41,.23-.5,.64-1.11,1.2-1.32,.42-.16,1.34,.1,1.77,.4,6.14,4.26,13.35,5.16,20.3,2.34,1.44-.58,2.56-1.62,3.89-2.37,.55-.31,1.47-.75,1.86-.59,.59,.24,1.23,.96,1.22,1.46-.1,5.8-1.63,11.34-6.13,16.06-4.68,4.91-12.42,4.98-17.51,.3-4.26-3.91-5.53-8.73-6.41-13.64-.07-.41-.09-.83-.13-1.24-.04,0-.07,0-.11,0Zm7.33,8.86c.97,2.2,2.5,3.86,5.13,4.82,2.11,.77,4.27,.88,6.29-.1,.47-.22,.92-1.15,.7-1.44-2.08-2.78-7.8-4.36-12.12-3.28Zm65.9,68.72c2.05,11.97,5.45,23.67,11.74,34.75,3.27,5.76,7.02,11.31,12.78,15.85,.88,.69,2.01,1.31,3.17,1.62,1.85,.49,3.36-.78,2.73-2.23-.26-.59-.89-1.09-1.33-1.64-3.62-4.51-7.72-8.84-10.78-13.57-9.65-14.92-14.19-31.04-17.43-47.43-.78-3.97-1.51-7.94-2.26-11.91-.79,8.27-.02,16.43,1.37,24.55Zm-115.81-34.64c-.16,.36-.38,.7-.47,1.07-.78,3.26-1.53,6.52-2.31,9.78-3.13,12.97-7.54,25.62-15.7,37.31-.82,1.17-2.27,2.52-.17,3.78,1.27,.76,3.07,.18,4.51-1.79,2.09-2.88,4.13-5.81,5.71-8.87,4.67-9.08,7.11-18.61,8.29-28.32,.52-4.28,.51-8.59,.74-12.89-.2-.02-.39-.04-.59-.06Zm100.86-46.55c.86-.29,1.85-1.24,1.88-1.92,.03-.68-.98-1.95-1.65-2.01-3.1-.24-6.26-.28-9.36-.07-.7,.05-1.71,1.4-1.72,2.15,0,.64,1.07,1.58,1.95,1.86,1.35,.43,2.94,.42,4.51,.6,1.46-.18,3.05-.17,4.39-.62Zm-79.75,.09c1-.34,2.19-1.25,2.31-2,.11-.65-1.1-2.01-1.84-2.06-3-.22-6.07-.19-9.07,.07-.67,.06-1.61,1.42-1.59,2.17,.02,.63,1.11,1.49,1.98,1.79,1.19,.41,2.63,.39,3.88,.54,1.53-.15,3.07-.08,4.32-.51Z"/>
  </g>
</svg>