<?xml version="1.0" encoding="UTF-8"?>
<svg id="Layer_2" data-name="Layer 2" xmlns="http://www.w3.org/2000/svg" viewBox="0 0 269 241.99">
  <g id="Layer_1-2" data-name="Layer 1">
    <path d="M73.64,95.75c-2.89,1.81-5.7,3.7-8.68,5.42-4.44,2.57-9.04,4.99-13.51,7.53-7.49,4.25-12.67,9.65-15.9,16.08-1.46,2.91-3.21,5.79-5.36,8.47-3.22,3.99-6.93,4.47-12.41,2.03-1.91-.85-3.75-1.8-5.74-2.54-3.56-1.32-6.02-.35-6.12,2.48-.12,3.49,1.67,6.42,5.96,8.34,3.95,1.76,7.99,1.39,11.76-.22,3.09-1.31,5.91-2.95,8.87-4.42,1.23-.61,2.48-1.22,3.8-1.72,4.4-1.68,8.06-1.13,11.16,1.66,3.45,3.1,5.09,6.8,6.37,10.55,3.29,9.68,4.83,19.45,1.85,29.32-3.23,10.69-10.82,19.67-21.6,27.35-2.5,1.78-5.19,3.43-7.66,5.24-6.84,5.01-5.52,10.91,3.24,14.07,8.21,2.97,16.03,2.02,23.41-1.6,4.79-2.35,8.3-5.57,11.79-8.82,2.01-1.87,4.03-3.78,6.44-5.37,5.63-3.69,12.08-2.67,15.07,2.35,1.16,1.95,1.68,4.1,2.47,6.17,.38,.98,.62,1.99,1.06,2.96,1.83,4.02,6.43,5.12,11.33,2.66,3.88-1.94,6.44-4.72,8.26-7.72,3.15-5.21,5.86-10.55,8.84-15.81,1.22-2.16,2.63-4.26,3.95-6.39,.32,.07,.64,.15,.96,.22-1.43,4.19-2.64,8.42-4.34,12.56-3.74,9.07-9.48,17.46-17.38,25.09-1.29,1.25-2.55,2.54-3.51,3.92-1.28,1.83-.12,3.03,2.61,2.51,3.14-.6,6.32-1.44,9.09-2.63,6.71-2.88,11.54-7.18,15.88-11.72,3.89-4.08,7.39-8.34,11.33-12.4,2.3-2.37,4.86-4.67,7.76-6.66,4.01-2.75,8.28-2.55,12.07,.37,2.29,1.77,4.19,3.79,6.4,5.62,1.71,1.42,3.51,2.81,5.5,4.03,3.65,2.23,7.91,2.95,12.4,1.57,4.55-1.4,6.2-4.33,6.24-7.6,.04-2.72-.65-5.44-.95-8.16-.09-.84-.09-1.72,.13-2.55,.48-1.82,2.14-2.96,4.71-2.8,2.41,.15,4.95,.54,7.1,1.29,4.31,1.5,8.49,3.23,12.57,5.04,7.57,3.38,14.74,2.92,21.44-1.07,4.21-2.51,8.16-5.24,12.15-7.93,4.02-2.71,8.05-5.36,13.75-6.14,.52-.07,1.04-.11,1.56-.18,.5-.07,1-.15,1.49-.23,.06-.17,.12-.34,.18-.52-1.82-.39-3.6-.98-5.46-1.13-6.2-.51-12.43-.89-18.64-1.29-14.55-.94-24.76-6.24-30.41-15.76-7.37-12.42-8.47-25.13-2.24-37.97,1.06-2.18,2.98-4.18,4.8-6.13,1.04-1.12,2.7-1.92,4.86-1.41,2.17,.51,2.64,1.84,2.73,3.21,.15,2.46,.06,4.94,.21,7.4,.06,.99,.48,1.96,.73,2.95,.2,.02,.39,.05,.59,.07,.47-.62,1.11-1.21,1.39-1.87,2.14-4.96,4.1-9.95,6.34-14.89,1.29-2.84,2.72-5.69,4.56-8.36,2.44-3.55,6.2-6.03,12.84-5.8-3.64-1.5-7.14-1.67-10.61-1.99-4.54-.42-9.15-.68-13.58-1.45-13.75-2.41-22.25-8.78-25.18-18.54-2.2-7.32-3.69-14.77-5.06-22.2-1.99-10.79-3.43-21.65-8.69-31.96-1.58-3.11-3.5-6.18-5.82-9.03C161.57,3.04,135.67,1.97,118.26,9.94c-11.25,5.15-18.09,12.69-22.55,21.48-3.68,7.25-5.37,14.81-6.82,22.41-1.37,7.18-3.36,14.26-6.97,21.06-5.95,11.22-16.63,19.48-31.21,25.29-2.82,1.12-5.62,2.29-8.56,3.23-7.56,2.43-12.48,6.59-15.71,11.88-1.74,2.85-3.26,5.76-4.88,8.64-.29,.52-.63,1.02-1.16,1.88-.14-9.52,2.3-17.75,14.22-23.07,6.11-2.73,12.21-5.53,17.89-8.69,13.64-7.6,22.06-17.83,26.79-29.49,2.85-7.02,4.5-14.3,6.41-21.5,2.63-9.94,6.6-19.49,15.23-27.72C109.33,7.33,120.11,1.84,134.22,.39c16.37-1.69,30.08,2.19,41.17,10.81,8.38,6.51,13.04,14.44,15.51,22.92,2.37,8.12,3.88,16.37,5.53,24.59,1.72,8.54,3.25,17.08,7.5,25.26,4.27,8.24,12.53,12.54,24.46,13.68,4.02,.38,8.05,.77,12.05,1.26,10,1.25,15.08,4.85,16.72,11.99,.98,4.26,.39,8.46-2.02,12.46-1.27,2.11-2.94,4.03-6.62,4.32-3.93,.31-6.57-1.15-8.7-3.27-.7-.7-1.28-1.45-1.93-2.17-1.35-1.49-3.41-1.62-4.59-.08-1.28,1.67-2.06,3.54-2.95,5.35-1.71,3.47-2.94,7.1-5.12,10.41-1.8,2.74-6.09,3.1-9.37,1.12-1.32-.8-2.41-1.94-3.11-3.08-.85-1.39-1.18-2.94-1.9-4.87-.67,1.42-1.33,2.51-1.69,3.65-1.41,4.44-.58,8.87,.47,13.26,1.32,5.46,3.58,10.72,6.88,15.76,5.13,7.84,13.46,12.48,25.6,13.83,5.76,.64,11.48,1.69,17.03,2.98,2.81,.66,5.56,1.99,7.68,3.49,3.84,2.71,2.45,5.91-2.71,6.99-1.72,.36-3.52,.56-5.3,.75-7.86,.84-13.49,4.17-18.53,8.24-3.55,2.86-7.39,5.51-12.24,7.27-9.4,3.42-20.03,2.51-28-2.42-1.35-.83-2.61-1.74-4.01-2.67-.13,1.93-.11,3.78-.41,5.6-1.02,6.24-7.59,11.05-16.83,12.43-8.44,1.26-15.81-1.13-20.46-6.66-.73-.87-1.35-1.79-2.1-2.66-1.5-1.75-3.44-2.02-5.52-.53-1.69,1.2-3.16,2.59-4.43,4.03-5.65,6.41-11.39,12.77-19.03,18.11-6.45,4.51-13.68,8.14-22.8,9.2-3.05,.35-6.36,.35-9.36-.11-4.43-.67-6.15-3.08-4.25-5.99,1.75-2.68,4.31-5.09,6.42-7.51-.75,0-2.11,0-3.46,0-6.47-.04-10.73-2.86-11.21-7.5-.15-1.44-.05-2.9-.19-4.34-.16-1.73-1.07-2.13-3.21-1.3-1.29,.5-2.48,1.23-3.49,2-2.72,2.08-5.36,4.21-7.96,6.37-12.53,10.39-33.72,8.53-44.35,3.49-9.56-4.53-10.71-12.39-2.74-18.52,3.32-2.55,7.13-4.82,10.13-7.55,9.57-8.68,14.74-18.72,17.01-29.55,1.59-7.59,1.92-15.18-.9-22.68-.56-1.49-1.35-2.96-2.34-4.33-1.37-1.9-2.96-2.18-5.56-1.11-2.41,.99-4.73,2.09-7.07,3.16-4.57,2.1-9.42,3.21-14.96,2.63-10.24-1.06-18.69-9.41-16.62-16.56,1.29-4.46,6.52-6.21,12.06-3.98,1.5,.6,2.87,1.37,4.3,2.06,2.52,1.21,4.18,1.17,6.07-.54,1.75-1.59,3.39-3.31,4.62-5.12,6.09-8.92,15.44-15.6,27.24-20.72,6.1-2.65,11.97-5.57,17.94-8.37,.22-.1,.47-.19,.7-.28,.13,.12,.27,.23,.4,.35Zm165.27,13.66c.91,1.82,1.98,3.6,2.66,5.45,.68,1.86,.92,3.8,1.42,5.69,.18,.67,.47,1.36,.91,1.97,1.13,1.57,2.95,1.6,4.32,.13,2.92-3.16,2.1-9.83-1.55-12.57-2.31-1.73-5.08-1.95-7.75-.66Zm-88.11-40.2c-.67-3.67-2.1-7.14-5.82-9.9-3.97-2.95-9-3.05-12.84-.07-1.64,1.27-3,2.84-3.92,4.44-2.46,4.27-2.72,8.73-1.52,13.26,.79,2.96,2.25,5.67,5.18,7.89,3.81,2.9,8.77,2.95,12.65,.11,1.04-.76,1.97-1.63,2.74-2.54,2.69-3.21,3.73-6.74,3.72-10.74-.04-.62-.02-1.54-.19-2.44ZM68.67,197.86c2.9-3.06,5.93-6.06,8.66-9.19,12.59-14.4,18.87-30.35,22.34-46.95,3.51-16.76,2.71-33.57,1.25-50.41-.66-7.58-.38-15.22-.29-22.82,.03-2.72,.77-5.44,1.19-8.17-.91,1.82-1.58,3.68-2.08,5.56-1.98,7.42-1.91,14.94-1.9,22.45,0,18.3-.42,36.58-4.39,54.72-3.09,14.13-7.96,27.91-16.02,41.04-2.82,4.59-6.04,9.06-9.08,13.59,.11,.06,.21,.13,.32,.19ZM127.38,29.28c-3.1-3.31-7.36-3.32-10.47-.03-4.08,4.32-3.96,12.39,.25,16.67,2.98,3.03,7.06,3.05,10.05,0,2.42-2.46,3.13-5.29,3.27-8.15-.11-3.05-.71-5.95-3.1-8.5Zm20.76,14.14c.37,.89,1.19,1.74,2.02,2.48,2.59,2.33,5.77,2.4,8.62,.25,.61-.46,1.22-.98,1.59-1.54,3.43-5.16,3.6-10.38-.18-15.43-2.98-3.98-8.35-3.94-11.14,.13-1.61,2.34-2.22,5.04-3.2,7.38,.84,2.51,1.43,4.65,2.3,6.74Zm10.2,104.56c-4.6,7.26-8.02,14.78-9.7,22.66-1.43,6.73-1.14,13.37,2.69,19.74,3.23,5.37,8.07,9.9,14.26,13.72-.24-.5-.66-.92-1.01-1.36-2.05-2.56-4.4-5.02-6.07-7.69-6.15-9.86-6.08-20.24-4.21-30.65,1.05-5.82,2.96-11.56,4.37-16.86,.09-.12-.14,.15-.33,.44Z"/>
  </g>
</svg>