<?xml version="1.0" encoding="UTF-8"?>
<svg id="Layer_2" data-name="Layer 2" xmlns="http://www.w3.org/2000/svg" viewBox="0 0 257.16 262.8">
  <g id="Layer_1-2" data-name="Layer 1">
    <path d="M44.37,229.69c-3.14,2.2-6.71,3.53-10.78,3.63-4.09,.11-7.85-.88-11.14-3.09-7.55-5.08-12.82-11.77-15.25-20.31-.74-2.61-.57-5.29,.53-7.84,1.93-4.46,6.39-5.94,10.85-3.63,3,1.55,4.03,1.3,4.78-1.89,.7-3.01,1.09-6.15,1.08-9.23-.02-8.81-1.56-17.34-6.01-25.22-1.72-3.05-3.94-5.68-7.34-7.19-.68-.3-1.47-.51-2.21-.51-6.1,.01-10-4.64-8.61-10.37,.66-2.75,2.24-4.98,4.45-6.81,1.12-.93,2.35-1.74,3.5-2.58-.66-1.73-1.54-3.4-1.95-5.18-.99-4.26,.1-8.03,3.78-10.82,3.7-2.81,7.91-3.3,12.31-1.71,1.6,.58,3.21,1.3,4.58,2.27,8.42,5.93,16.8,3.61,23.29-2.27,4.73-4.29,7.67-9.64,9.83-15.39,5.32-14.18,9.2-28.74,12.53-43.43,2.52-11.13,5.55-22.1,11.45-32.15,6.71-11.44,16.2-19.82,29.57-23.74,15.89-4.66,30.72-1.71,44.53,6.4,11.93,7.01,18.65,17.62,21.66,30.38,1.82,7.72,2.94,15.58,4.76,23.3,3.88,16.47,9.59,32.31,19.01,46.77,1.31,2,2.9,3.9,4.66,5.57,4.57,4.33,9.99,5.27,15.95,2.89,2.47-.99,4.8-2.28,7.28-3.25,3.78-1.48,7.64-2.09,11.67-.66,7.15,2.54,9.77,9.66,5.75,15.81-.22,.34-.46,.66-.79,1.11,.71,.3,1.38,.57,2.05,.87,7.91,3.49,9.48,12.98,2.93,17.81-2.04,1.5-4.42,2.12-6.98,2.36-.97,.09-2.09,.51-2.8,1.13-3.35,2.89-4.68,6.76-5.4,10.83-1.61,8.99-1.94,18-.27,27.03,.06,.33,.16,.66,.25,.99,.94,3.31,1.54,3.56,4.82,2.06,4.06-1.86,7.82-.94,10.26,2.67,2.52,3.73,2.71,7.78,1.37,11.91-.54,1.66-1.28,3.3-2.19,4.81-3.12,5.18-7.3,9.51-12.33,13.08-6.52,4.63-13.62,6.69-21.89,4.15,0,1.84,.07,3.56-.01,5.27-.36,7.71-6.1,14.22-14.01,15.85-5.93,1.22-11.49,.02-16.8-2.53-5.52-2.65-10-6.53-14.33-10.98-.44,.91-.8,1.7-1.19,2.49-3.01,6.04-7.3,10.91-14.05,13.35-8.57,3.1-18.24,.27-24.51-7.06-1.12-1.31-2.11-2.73-3.28-4.24-.42,.85-.78,1.61-1.17,2.35-3.2,6.18-7.64,11.35-14,14.84-13.07,7.18-27.62,2.06-32.67-11.45-.32-.85-.59-1.71-.94-2.75-.32,.37-.6,.69-.87,1-4.75,5.34-10.55,8.85-18.16,8.13-8.79-.83-15.52-7.28-16.89-15.84-.47-2.93-.44-5.93-.65-8.96Zm12.41-34.07c.17,0,.34-.01,.52-.02,.19,.52,.53,1.03,.54,1.55,.03,1.36-.06,2.72-.15,4.07-.51,7.6-2.38,14.97-4.29,22.33-1.19,4.62-2.32,9.26-1.25,14.08,1.36,6.14,6.25,9.93,12.29,9.23,4.16-.48,7.2-2.85,9.71-5.87,2.97-3.57,4.77-7.71,5.94-12.06,1.4-5.2,2.49-10.47,3.77-15.69,.13-.53,.61-.99,.93-1.49,.28,.55,.64,1.07,.81,1.65,.13,.48,.02,1.01,.03,1.52,.08,5.1,0,10.2,.29,15.28,.31,5.6,1.1,11.17,3.51,16.37,4,8.64,13.34,11.08,21.51,5.66,3.67-2.43,6.24-5.73,8.28-9.44,4.15-7.54,5.36-15.76,6.11-24.07,.52-5.75,.95-11.51,1.5-17.26,.14-1.5,.58-2.98,.89-4.47,.2,.02,.4,.05,.59,.07,.08,1.69,.16,3.37,.24,5.06,.37,7.7,1.12,15.35,2.9,22.89,1.3,5.49,3.13,10.8,6.81,15.35,6.06,7.48,15.23,7.46,21.3-.02,2.37-2.92,3.83-6.24,4.87-9.75,2.02-6.86,1.95-13.87,1.62-20.9-.13-2.94-.2-5.89-.18-8.83,0-.44,.63-.88,.96-1.32,.38,.37,.97,.68,1.1,1.12,.27,.92,.32,1.9,.41,2.85,.88,9.25,3.66,17.98,8.38,26.1,3.61,6.22,8.77,11.03,15.75,13.81,6.78,2.7,13.57,.07,15.59-6.14,.7-2.15,.88-4.6,.62-6.84-.7-6.03-3.27-11.54-6-16.97-1.02-2.04-2.17-4.03-3.18-6.07-.17-.34,.09-.87,.16-1.31,.39,.19,.89,.29,1.14,.59,.88,1.07,1.66,2.22,2.52,3.3,3.66,4.63,7.37,9.23,12.74,12.26,6.24,3.52,13.03,3.11,18.67-1.21,4.42-3.38,7.99-7.48,10.58-12.28,.77-1.43,1.37-3.05,1.57-4.64,.45-3.56-.37-4.1-3.92-3-4.64,1.44-7.68,.34-10.04-3.73-.6-1.03-1.1-2.14-1.46-3.27-2.52-7.97-2.17-16.13-1.5-24.26,.28-3.46,1.13-6.93,2.11-10.29,1.27-4.37,3.86-8.09,7.38-11.21-.4-.41-.76-.65-.94-.99-.34-.61-.57-1.27-.84-1.91,.65,.1,1.34,.09,1.95,.31,2.95,1.07,5.93,1.3,8.92,.23,3.78-1.35,5.14-5.17,2.62-8.09-1.29-1.49-3.22-2.69-5.12-3.46-3.67-1.49-7.66-1.63-11.62-1.55-.47,0-.94,0-1.42,0-.05-.2-.1-.4-.15-.6,.76-.32,1.48-.78,2.28-.94,1.22-.24,2.49-.26,3.73-.4,4.44-.49,7.67-4.49,7.04-8.69-.52-3.45-4.29-5.49-8.26-4.75,.53,1.44,1.13,2.92,1.58,4.43,.08,.27-.44,.7-.69,1.05-.31-.23-.7-.41-.9-.7-2.03-2.88-4.32-3.63-7.82-2.52-3.51,1.12-5.66,3.67-7.55,6.47-1.17,1.74-2.22,3.55-3.32,5.33-.4-3.06,.93-5.62,2.29-8.35-3.48,.58-6.63,1.96-10.61,2.01,.74-.94,1.12-1.42,1.51-1.91-10.71-5.15-14.42-8.58-19.83-18.92-2.19-4.19-4.17-8.51-5.94-12.88-5.87-14.49-9-29.62-11.55-44.89-1.13-6.77-2.83-13.44-6.62-19.41-8.05-12.66-20.09-19.45-35.46-20.63-15.17-1.17-28.15,3.46-37.97,14.8-6.91,7.98-11.08,17.3-13.52,27.25-2.87,11.72-5.25,23.56-7.96,35.32-2.21,9.56-4.66,19.06-8.89,28.04-2.71,5.76-6.19,10.99-11.99,14.47-.64,.38-1.37,.62-2.06,.93-.14-.17-.28-.35-.43-.52,1.45-1.72,2.89-3.44,4.34-5.16-4.22,2.7-8.61,4.94-13.82,5.94,1.06,1.05,1.89,1.87,3.05,3.02-3.16-.38-5.76-.69-8.51-1.02,1.58,3.6,3.03,6.99,2.83,10.78-.62-.45-.97-1-1.27-1.56-1.59-3.03-2.96-6.19-4.82-9.06-1.28-1.98-3.01-3.84-4.94-5.27-2.8-2.07-5.75-1.44-7.81,1.17-.19,.23-.51,.37-.78,.55l-.52-.12c.08-.94-.06-1.96,.3-2.79,.4-.92,1.25-1.67,1.9-2.48-3.42-1.23-6.93-.05-8.41,2.83-1.5,2.91-.18,7.04,2.8,8.82,2.01,1.19,2.06,1.62,.15,2.96-1.97,1.38-4.19,2.48-5.95,4.05-1.51,1.35-2.9,3.04-3.69,4.84-1.14,2.58,.72,4.86,3.71,5.03,3.65,.21,6.3-1.36,8.2-4.22,.35-.53,.74-1.03,1.11-1.55,.85,3.5-1.22,5.64-3.69,7.59,5.92,3.28,9.05,6.52,11.9,12.44,4.23,8.78,5.73,18.07,5.19,27.63-.17,3.05-.85,6.23-2.08,9.04-2.25,5.19-5.87,7.11-11.71,5.07-2.41-.84-2.99-.37-2.87,2.09,.02,.39,.07,.79,.18,1.17,1.75,6.29,5.5,11.41,10.67,15.54,4.66,3.72,10,3.73,15.03,.42,3.21-2.11,5.55-4.95,7.55-8.08,3.8-5.96,6.23-12.44,8.12-19.12,.17-.62,.47-1.2,.71-1.8ZM109.85,66.85c-2.73,6.3-3.71,12.86-3.07,19.6,.57,6.12,2.56,11.83,6.51,16.81,5.03,6.35,12.58,9.04,20,6.98,6.28-1.74,10.55-5.87,13.52-11.19,5.97-10.69,5.38-21.63,.91-32.62-.14-.35-.69-.54-1.04-.81-.08,.46-.26,.93-.23,1.38,.05,.95,.64,2.15,.23,2.81-7.33,11.78-23.84,13.4-33.58,3.42-2.1-2.15-3.76-4.18-1.23-7.06-1.42-.89-1.67-.14-2.02,.66Zm-62.95,113.76c-.21,7.56-1.12,15.01-3.01,22.35-.23,.9-.2,2.43-1.67,2.13-1.5-.3-.55-1.66-.42-2.46,2.02-12.63-.42-24.8-4.53-36.72-2.77-8.04-5.84-16-9.18-23.84-.89-2.1-3.24-3.65-4.94-5.43-.28-.29-.73-.44-.96-.75-.3-.4-.46-.9-.68-1.35,.58-.01,1.36-.26,1.71,0,2.98,2.24,6.26,4.25,8.74,6.92,8.56,9.24,13.22,20.16,14.48,32.38,.23,2.25,.31,4.51,.47,6.77Zm-3.4-5.61c-.81-10.04-4.57-19.67-10.7-27.87,3.49,9.1,7.19,18.73,10.7,27.87Zm175.73,22.32c-.86-3.67-1.74-7.33-2.59-11-1.22-5.26-2.27-10.54-1.53-15.97,1.59-11.8,5.96-22.64,12.76-32.61,.26-.37,.45-.79,.67-1.18-.14-.07-.28-.13-.42-.2-8.16,7.14-12.25,16.35-14.75,26.4,.42-7.71,2.28-15.01,6.59-21.67,2.72-4.2,6.42-7.57,10.09-10.97,.45-.42,.48-1.24,.7-1.88-.7,.04-1.62-.17-2.06,.17-2.73,2.09-5.74,3.99-7.95,6.52-7.53,8.61-10.45,18.82-10.11,29.83,.27,8.86,2.31,17.48,5.27,25.87,.82,2.32,1.88,4.56,2.83,6.84,.17-.05,.33-.11,.5-.16ZM138.69,55.85c2.73,3.76,6.99,3.86,9.94,.22,3.73-4.61,3.65-14.37-.15-18.9-2.88-3.42-7.1-3.31-9.71,.28-2.06,2.82-2.42,6.07-2.65,9.34,.22,3.2,.59,6.32,2.58,9.05Zm-19.48-18.33c-2.69-3.73-7.17-3.77-9.92-.1-3.5,4.66-3.5,13.91,0,18.55,2.77,3.68,7.19,3.66,9.93-.06,2.03-2.76,2.55-5.92,2.58-8.6-.02-3.88-.59-7.02-2.59-9.79Zm33.64-18.99c-4.02-2.85-8.52-4.58-13.64-4.5,3.6,2.08,7.57,3.58,10.93,5.87,3.48,2.36,6.38,5.49,9.67,8.4-.31-4.5-3.46-7.29-6.96-9.77Z"/>
  </g>
</svg>