<?xml version="1.0" encoding="UTF-8"?>
<svg id="Layer_2" data-name="Layer 2" xmlns="http://www.w3.org/2000/svg" viewBox="0 0 231.14 259.64">
  <g id="Layer_1-2" data-name="Layer 1">
    <path d="M200.19,214.38c-1.92,1.72-2.2,3.63-.55,5.38,1.09,1.16,2.41,2.21,3.83,3.06,9.76,5.85,9.52,15.8,2.12,22.67-10.32,9.58-23.25,12.56-37.76,9.16-6.65-1.56-12.48-1.17-18.68,1.24-16.79,6.55-32.59,4.26-47.07-5.06-6.46-4.16-13.13-5.43-20.7-3.16-.95,.28-2.02,.77-2.56,1.45-4.48,5.52-10.88,7.33-18.3,7.16-6.05-.14-11.8-1.33-17.07-3.96-9.36-4.67-13.1-12.35-10.08-21.26,1.49-4.38,3.6-8.61,5.32-12.94,.58-1.47,1.06-3.02,1.21-4.56,.3-3.08-1.42-4.56-5.01-4.73-4.19-.2-8.41-.29-12.56-.78-3.45-.4-6.54-1.77-9-3.99-4.6-4.14-4.94-10.01-.38-14.17,2.16-1.97,5.01-3.44,7.69-4.94,2.16-1.21,4.65-1.99,6.82-3.2,4.75-2.66,4.77-6.38-.16-8.8-2.55-1.25-5.6-1.78-8.46-2.5-3.62-.92-7.37-1.49-10.91-2.59-6.63-2.07-9.06-6.12-7.42-11.99,2.18-7.78,7.02-14.41,12.41-20.77,6.25-7.38,14.13-13.36,22.08-19.34,14.99-11.26,23.57-25.6,26.36-42.46,1.63-9.85,3.02-19.73,4.21-29.62C68.37,20.45,86.98,3.78,114.1,.46c24.16-2.95,48.87,8.51,58.66,27.18,3.46,6.6,4.82,13.59,5.3,20.72,.8,11.81,1.2,23.64,2.22,35.43,1.3,15.05,8.15,28.2,19.62,39.57,6.4,6.35,12.63,12.79,17.33,20.21,6.42,10.14,9.93,21.07,11.84,32.42,2.03,12.11,2.52,24.28,1.71,36.49-.1,1.56-.31,3.14-.75,4.65-.96,3.35-3.85,5.44-7.86,5.49-8.68,.12-16.26-2.08-21.97-8.23Zm-104.56-79.9c-.09-.02-.17-.03-.26-.05,.17,.57,.41,1.13,.51,1.7,2.22,12.87,4.65,25.72,6.55,38.63,1.64,11.12,1.08,22.3-.44,33.42-.93,6.83-2.08,13.64-2.98,20.47-.88,6.71,1.52,12.53,7.64,16.78,15.87,11.02,31.64,9.53,46.9,1.32,2.16-1.16,2.99-3.07,2.26-5.22-.76-2.25-1.63-4.48-2.69-6.64-7.24-14.72-11.35-30-11.1-46.05,.04-2.28,0-4.56,0-6.84,.21,0,.42,0,.63,0,.48,3.71,.84,7.43,1.45,11.12,2.24,13.53,7.25,26.34,13.8,38.74,1.91,3.62,4.48,7.11,5.52,10.91,.91,3.32,3.36,4.01,6.24,4.78,7.87,2.1,15.52,1.72,22.75-1.83,3.3-1.62,5.99-3.79,7.25-7.01,1.28-3.29-.21-6.66-3.7-8.35-3.7-1.79-6.22-4.48-7.85-7.78-1.92-3.88-1.78-7.8,.54-11.52,2.02-3.23,5.01-5.31,9.33-4.82,5.47-25.36-4.37-46.99-21.36-66.93,.31,.05,.5,.13,.64,.24,10.16,8.32,18.64,17.73,24.37,28.8,4.58,8.86,7.38,18.07,6.39,27.91-.25,2.46-.49,4.95-.37,7.41,.27,5.74,3.44,9.98,9.56,12.41,4.36,1.73,6.96,.25,6.88-3.83-.24-12.61-2.84-24.95-5.9-37.22-2.79-11.17-7.14-21.86-14.99-31.18-4.81-5.71-10.31-10.98-15.47-16.46-10.91-11.59-17.6-24.77-19.29-39.61-1-8.76-1.07-17.59-1.78-26.38-.57-7.16-.76-14.41-2.35-21.42-4.61-20.28-27.83-33.11-51.43-28.91-18.06,3.22-31.53,14.65-34.7,30.24-1.67,8.24-2.16,16.66-3.36,24.97-1.31,9.1-3.26,18.09-6.97,26.75-5.97,13.9-16.69,24.68-29.74,34.01-6.04,4.32-12.07,8.67-17.75,13.33-5.53,4.54-9.68,10-12.22,16.27-1.04,2.58-.3,4.62,2.59,5.52,2.96,.92,6.18,1.45,9.33,1.65,2.63,.17,3.76-1.07,4.62-3.23,.84-2.1,1.67-4.25,2.96-6.15,6.77-10.03,16.09-18.05,26.95-24.82,.32-.2,.73-.3,1.14-.46-3.14,3.15-6.34,6.12-9.22,9.31-6.03,6.67-10.93,13.86-13.14,22.22-.89,3.34-.03,6.15,2.8,8.62,1.61,1.41,3.16,2.94,4.36,4.62,2.71,3.77,2.13,8.69-1.47,11.87-1.68,1.49-3.76,2.69-5.82,3.8-3.2,1.72-6.6,3.17-9.8,4.89-1.9,1.03-3.91,2.33-3.24,4.62,.63,2.16,3.04,2.6,5.16,2.82,3.82,.4,7.69,.5,11.53,.75,9.05,.59,14.22,6.37,12.37,13.99-.58,2.41-1.45,4.78-2.39,7.1-1.58,3.92-3.45,7.76-4.95,11.71-1.26,3.31-.24,6.29,2.6,8.81,3.43,3.04,7.73,4.56,12.49,5.07,8.74,.94,13.3-1.43,16.57-8.44,2.6-5.56,3.56-11.39,3.79-17.32,.14-3.53,.02-7.07,.02-10.6,3.04,9.18,5.12,18.44,3.41,27.88,4.03-.36,7.82-.7,11.44-1.03-1.15-2.66-2.54-5.3-3.42-8.06-2.08-6.55-1.01-13.09,1.07-19.47,3.01-9.21,5.23-18.54,5.52-28.1,.34-11.52,.19-23.06,.24-34.59,.02-5.06,0-10.11,0-15.17Zm-28.87,74.17c.77-6.95,.95-13.97,.98-20.96,.04-9.62,.66-19.18,2.62-28.65,3.75-18.12,9.94-35.53,21.01-51.56-.23,.1-.42,.14-.54,.24-.92,.83-1.91,1.61-2.73,2.5-8.09,8.76-13.98,18.6-18.88,28.9-9.6,20.19-14.5,41.11-12.89,63,.84,11.4,.88,22.78-.86,34.18,6.22-8.48,10.18-17.7,11.29-27.66Zm112.28,25.35c-6.23-16.92-9.47-34.35-10.97-51.98-1.09-12.87-1.21-25.8-1.83-38.7-.3-6.32-.77-12.64-1.18-19.33-.28,.47-.36,.55-.37,.64-2.1,14.77-4.3,29.54-6.24,44.33-1.07,8.16-1.39,16.37-.48,24.58,1.91,17.34,9.71,32.5,23.2,45.53-.71-1.69-1.49-3.36-2.12-5.07Zm-47-146.77c-.83-3.75-2.14-7.38-5.23-10.31-2.9-2.76-6.58-2.89-9.47-.12-1.37,1.32-2.49,2.93-3.3,4.57-2.93,5.88-3.29,12.09-2.26,18.29,.53,3.22,1.81,6.43,3.32,9.43,1.28,2.54,3.38,4.9,7.2,4.79,3.82-.1,5.72-2.49,7.29-5.06,2.65-4.34,3.1-9.08,3.37-14.74-.22-1.71-.37-4.32-.93-6.86Zm-22.38-44.23c-3.82-4.88-9.17-4.92-13.03-.08-.51,.64-1.06,1.32-1.3,2.05-.81,2.54-1.85,5.08-2.14,7.68-.57,5.02,.32,9.91,3.85,14.12,3.64,4.34,8.81,4.24,12.47-.1,3.12-3.69,3.77-7.96,3.89-11.38-.22-5-1.07-8.87-3.74-12.29Zm36.85-.13c-3.91-4.87-9.78-4.84-13.05,.35-1.66,2.63-2.68,5.72-3.14,8.7-.83,5.31,.02,10.51,3.92,14.97,3.54,4.05,8.62,4,12.09-.04,3.1-3.61,3.92-7.79,4.03-11.9-.09-4.48-.99-8.53-3.85-12.08Z"/>
  </g>
</svg>