<?xml version="1.0" encoding="UTF-8"?>
<svg id="Layer_2" data-name="Layer 2" xmlns="http://www.w3.org/2000/svg" viewBox="0 0 254.28 227.46">
  <g id="Layer_1-2" data-name="Layer 1">
    <path d="M228.72,206.59c1.12,.67,2.17,1.45,3.39,1.97,2.59,1.12,5.31,2.04,7.88,3.19,1.11,.5,2.18,1.24,2.94,2.07,1.89,2.1,.93,4.62-2.24,5.72-7.85,2.73-15.93,2.8-23.51-.17-10.45-4.1-20.2-3.07-29.93,1.28-6.77,3.03-13.82,5.37-21.5,6.36-10.56,1.35-20.28-.28-29.01-5.39-4.59-2.69-9.59-3.96-15.18-3.21-1.63,.22-3.44,.67-4.7,1.5-12.35,8.13-26.01,8.71-40.19,4.38-10.12-3.09-19.92-3.42-30.36-1.02-7.76,1.78-15.88,1.37-23.47-1.43-2.05-.76-4.02-1.79-5.76-2.96-3.36-2.27-3.07-6,.54-8.02,1.27-.71,2.8-1.08,4.12-1.75,1.33-.67,2.53-1.51,3.79-2.27l-.34-.91c-1.82,.15-3.75,.02-5.43,.5-4.33,1.25-8.61,2.57-13.3,2.22-1.44-.11-2.95-.29-4.26-.75-2.61-.92-2.99-3.63-.55-4.8,11.16-5.34,15.13-13.93,15.66-23.8,.88-16.5,7.26-31.56,16.59-45.98,5.94-9.18,10.96-18.69,13.59-28.93,2.47-9.6,3.33-19.34,3.68-29.12,.47-12.97,1.97-25.82,8.3-37.9C70.09,17.09,88.52,4.54,115.21,.94c20.9-2.82,40.27,.62,57.22,11.46,11.77,7.52,19.35,17.49,24.14,28.93,3.62,8.66,6.79,17.45,10.32,26.14,2.84,6.98,6.02,13.86,8.85,20.84,4.87,12.02,7.13,24.46,8.23,37.03,.88,9.95,1.35,19.92,1.91,29.89,.85,14.88,7.26,27.86,19.31,39.01,2.7,2.5,5.26,5.12,7.7,7.8,2.5,2.76,1.54,4.83-2.56,5.54-6.14,1.07-12.16,.33-18.11-1.09-1.03-.24-2.1-.35-3.15-.53-.12,.21-.24,.42-.37,.62Zm-101.47,5.82c-1.31-2.17-2.6-4.02-3.58-5.97-5.6-11.05-5.75-22.7-5.49-34.38,.03-1.42,1.11-2.2,2.78-2.33,1.73-.13,2.47,.82,2.85,2.02,.14,.45,.11,.93,.13,1.4,.21,4.75,.26,9.51,.66,14.25,.57,6.79,2.16,13.42,6.2,19.46,6.04,9.02,15.1,14.21,27.91,14.44,7.1,.12,13.62-1.61,19.99-4.03,5.6-2.13,11.27-4.19,17.09-5.88,2.81-.82,6.02-.7,8.91-.99-2.75-3.27-5.84-6.4-8.22-9.86-11.53-16.72-17.69-34.87-20.74-53.81-.44-2.74,.48-4.18,2.49-4.34,2.05-.16,3.01,.96,3.61,3.76,1.26,5.86,2.33,11.76,4.02,17.54,3.53,12.08,8.49,23.75,16.13,34.56,4.37,6.18,9.95,11.42,17.51,15.12,3.87,1.89,8.04,2.12,12.74,1.79-7.44-3.64-9.23-5.03-12.93-10.21-5.69-7.97-9.32-16.64-12.4-25.46-4.39-12.57-7.8-25.32-9.31-38.35-1.28-10.99-2.03-22.03-2.93-33.05-.2-2.46,.89-3.73,2.78-3.85,1.98-.12,3.24,1.17,3.47,3.66,.21,2.34,.4,4.68,.5,7.02,.55,12.79,1.8,25.53,4.57,38.14,3.22,14.64,7.42,29.07,14.65,42.8,.95,1.8,2.12,3.53,3.17,5.28,6.71-2.51,12.83,1.07,19.45,.55-.57-.5-.83-.75-1.11-.99-14.48-12.64-22.46-27.56-23.44-44.95-.54-9.63-1.02-19.27-1.87-28.88-1.02-11.56-2.85-23.06-7.1-34.17-2.98-7.78-6.56-15.4-9.73-23.13-3.96-9.69-7.46-19.52-11.74-29.12-4.14-9.28-11.05-17.11-20.61-23.26-11.05-7.11-23.73-10.49-37.65-10.87-16.24-.45-30.96,3.21-43.77,11.52-12.52,8.12-19.84,18.98-23.86,31.45-3,9.31-3.68,18.87-4.01,28.45-.45,13.17-1.81,26.31-7.49,38.7-4.41,9.61-10.08,18.84-15.44,28.15-5.8,10.09-9.66,20.55-10.38,31.76-.57,8.96-2.22,17.7-10.09,25.34,5.06-1.58,9.5-1.86,14.01-.13,1.85-4.46,2.67-8.87,2.71-13.36,.05-5.29-.31-10.59,0-15.87,.22-3.71,1.13-7.4,1.98-11.06,.34-1.44,1.6-2.61,3.76-2.07,2.14,.54,2.27,2.03,1.78,3.46-2.04,5.97-1.51,12.07-1.63,18.16-.12,5.87-.45,11.77-1.3,17.6-.7,4.82-2.86,9.38-6.91,13.07-1.64,1.49-3.82,2.57-5.81,3.88,.43,.22,.83,.46,1.26,.63,7.12,2.8,14.51,2.61,22,1.32,4.3-.74,8.62-1.42,12.92-2.16,.59-.1,1.25-.3,1.68-.63,4.32-3.26,7.56-7.18,8.28-11.99,.6-4.02,.36-8.12,.37-12.19,0-2.34,.74-3.59,2.58-3.73,1.96-.15,3.02,.85,3.38,3.22,.04,.27,.04,.54,.07,.8,1.27,9.19,.14,17.88-7.98,25.34,6.47,1.55,12.57,3.29,18.83,4.42,7.89,1.43,15.53,.36,22.16-3.55,5.42-3.19,10.97-5.53,18.16-4.42ZM92.3,72.08c1.18,3.23,1.83,6.67,3.65,9.63,3.35,5.45,10.33,5.55,14.36,.41,3.55-4.54,3.98-9.63,2.61-14.71-.68-2.53-2.05-5.13-3.92-7.2-3.22-3.54-8.21-3.37-11.67,.03-3.43,3.37-4.25,7.43-4.32,11.66-.23,.06-.46,.12-.7,.17Zm69.35-.13c-.16-4.06-.91-7.98-4.06-11.32-3.84-4.07-9.64-4.02-12.89,.39-4.92,6.68-4.96,13.69-.71,20.62,1.46,2.38,3.8,4.24,7.49,4.1,3.56-.14,6.04-1.9,7.31-4.37,1.52-2.96,2.36-6.16,3.5-9.25-.21-.06-.42-.11-.64-.17ZM50.65,179.23c.33,2.24,1.91,3.21,4.04,2.85,1.83-.31,2.46-1.59,2.14-3.7-.37-2.38-.79-4.78-.77-7.18,.1-12.58,2.61-24.89,6.92-36.94,1.35-3.78,3.14-7.44,4.65-11.18,.58-1.43,.93-2.97-1.21-3.83-1.7-.69-3.27,.07-4.31,1.96-.23,.43-.46,.86-.67,1.29-7.31,15.07-10.77,30.77-11.69,47.97,.22,2.23,.43,5.5,.9,8.75Zm81.5-76.33c5.09-1.1,9.16-3.43,11.84-7.2,1.05-1.48,.53-3.25-1.1-4.06-1.84-.92-3.42-.52-4.68,.86-.24,.27-.49,.53-.74,.8-3.71,3.83-9.07,5.16-14.84,3.82-3.16-.74-5.34-2.46-7.26-4.5-1.13-1.2-2.55-1.71-4.27-.93-1.67,.75-2.04,2.04-1.6,3.46,.19,.62,.67,1.22,1.15,1.75,4.03,4.44,9.48,6.55,16.99,6.59,.99-.12,2.8-.21,4.52-.58Z"/>
  </g>
</svg>