<?xml version="1.0" encoding="UTF-8"?>
<svg id="Layer_2" data-name="Layer 2" xmlns="http://www.w3.org/2000/svg" viewBox="0 0 241.48 252.61">
  <g id="Layer_1-2" data-name="Layer 1">
    <path d="M234.35,167.01c-3.45-5.55-3.05-10.43,2.3-15.02,3.59-3.08,5.07-6.85,4.79-11.28-.24-3.75-1.39-7.02-4.63-9.58-3.23-2.55-6.5-5.13-10.09-7.29-15.3-9.22-26.82-21.16-36.41-34.56-9.95-13.92-16.3-29.01-20.99-44.67-2.12-7.08-4-14.24-7.75-20.92C152.16,6.91,132.76-2.25,111.23,.47c-18.91,2.39-32.31,11.33-39.6,25.98-3.42,6.85-5.37,14.26-7.5,21.51-4.16,14.18-9.87,27.82-18.89,40.39-5.48,7.64-11.47,15.01-20,20.52-4.08,2.64-8.95,4.41-13.24,6.86-3.42,1.95-6.64,4.2-9.62,6.6-1.2,.97-1.82,2.67-2.13,4.12-.97,4.67,.94,8.8,4.04,12.59,3.09,3.77,6.42,7.42,9.31,11.3,3.96,5.31,3.89,10.64-.51,15.9-1.55,1.86-2.92,3.91-3.86,6.02-2.73,6.18,.62,11.33,8.2,13.12,4.51,1.06,9.01,.77,13.38-.27,4.24-1.01,8.33-2.44,12.69-3.74,.34,11.78-.6,23.53-4.83,34.89-4.03,10.82-12.14,18.82-24.92,23.21-1.07,.37-2.12,.81-3.12,1.31-1.55,.78-2.92,1.99-2.39,3.45,.32,.87,2.02,1.41,3.12,2.06,.27,.16,.64,.21,.97,.26,6.46,.95,12.92,1.92,19.39,2.84,5.83,.83,11.7,1.42,17.58,.56,4.85-.71,9.64-1.67,14.46-2.54,3.92-.7,7.84-1.45,11.77-2.1,.5-.08,1.14,.23,1.65,.46,2.11,.95,4.18,1.96,6.28,2.92,9.26,4.23,18.88,5.12,28.95,2.27,.81-.23,1.91-.18,2.72,.08,4.54,1.45,9.22,1.9,13.93,1.03,5.27-.98,10.49-1.37,15.88-.68,7.65,.99,15.09-.1,22.04-2.77,2.82-1.08,4.83-.82,7.49,.19,9.11,3.47,18.49,4.61,27.96,.88,2.48-.98,4.96-1.46,7.71-1.44,5.31,.04,10.53-.57,15.44-2.38,1.94-.72,4.14-1.46,4.15-3.6,0-2.13-2.12-2.94-4.1-3.63-5.84-2.03-10.96-4.92-15.4-8.68-10.1-8.55-17.28-18.3-18.04-30.68-.38-6.21,1.38-11.99,4.91-17.37,.3,0,.46-.04,.57,0,.8,.33,1.58,.68,2.38,1,7.06,2.82,14.4,4.75,22.32,4.45,10.08-.38,15.78-6.8,14.43-13.69-.45-2.28-1.19-4.63-2.46-6.67Zm-196.17,11.1c-4.66,2.02-9.64,3.21-16.18,3.49-1.21-.32-3.64-.73-5.79-1.62-2.31-.95-3.23-2.76-2.42-4.78,.85-2.14,2.09-4.2,3.44-6.16,2.03-2.93,4.11-5.81,4.5-9.28,.45-3.96-.65-7.67-3.07-11.01-2.29-3.17-5.04-6.12-7.45-9.24-1.92-2.49-3.88-5-5.34-7.68-1.75-3.19-.42-5.22,3.65-6.27,4.47-1.15,8.84-.52,13.03,.87,6.06,2.01,10.58,5.59,14.09,10.13,.8,1.04,.72,1.71-.4,2.62-1.7,1.39-3.24,2.95-4.65,4.56-2.33,2.66-2.4,5.56-.54,8.4,.98,1.49,2.16,2.96,3.57,4.17,4.99,4.27,7.11,9.56,7.93,15.29,.78,5.45,1.63,3.9-4.39,6.51Zm104.05,68.35h-1.65c-.34,.05-.69,.08-1.05,.1-1.05,.03-2.11,0-3.16,0-1.92,0-3.77,.22-5.65,.4-1.08,.32-2.18,.59-3.32,.64-1.15,.23-2.43,.33-3.86,.27-7.39-.31-11.94-3.66-15.23-8.74-.31-.47-.57-.96-.86-1.44-.26,.08-.53,.15-.79,.23,.38,1.16,.64,2.36,1.16,3.48,.54,1.15,1.33,2.22,2.22,3.66-4.05-1.57-6.19-4.24-8.4-6.89,.2,3.67,2.8,6.21,5.63,8.65-5.06,2.03-14.82,.92-20-2.24,4.77-2.04,8.32-5.17,11.53-8.63,2.65-2.85,6.46-3.98,9.74-2.72,1.37,.53,2.54,1.52,3.66,2.42,3.39,2.71,7.12,4.83,11.97,5.17,3.8,.27,7.34-.53,10.79-1.83,1.42-.96,3.15-1.61,4.9-2.14,.36-.11,.72-.21,1.08-.3,1.03-.61,2.18-1.11,3.07-1.53,1.17-.55,2.35-.82,3.54-.9,.44-.16,.93-.23,1.4-.19,1.26-.31,2.64-.36,3.95-.18,.06,0,.11,.02,.17,.03,1.2,.02,2.49,.22,3.84,.66,.34,.11,.62,.43,.83,.71,1.2,1.53,2.26,3.14,3.57,4.59,1.3,1.45,2.84,2.74,4.27,4.11-5.11,2.59-11.84,3.41-23.35,2.62Zm56.04-86.36c.31,1.97,.94,3.9,1.42,5.85,.66,2.68-.07,5.14-1.98,7.31-3.55,4.03-6.66,8.25-8.57,13.02-4.25,10.59-2.65,20.83,3.17,30.63,6.33,10.66,15.4,19.28,28.27,24.82,.24,.1,.46,.23,1.03,.53-1.43,.28-2.55,.55-3.68,.71-1.21,.17-2.46,.39-3.67,.33-5.39-.26-10.78-.56-16.16-1.02-.75-.06-1.61-1.01-2.03-1.71-3.31-5.52-6.87-10.96-9.71-16.64-7.04-14.04-11.24-28.78-14.47-43.72-1.37-6.34-2.63-12.71-4.09-19.04,.69,14.98,3.64,29.68,8.16,44.16,4.53,14.51,10.89,28.41,20.85,41.27-4.35,.92-8.45,.89-12.54,.13-10.43-1.93-17.74-7.09-22.22-15.14-.95-1.71-1.77-3.48-2.86-5.13-3.03-4.61-8.01-6.3-13.9-4.43-3.36,1.06-6.38,2.86-9.66,4.11-3.28,1.25-6.61,2.56-10.08,3.27-5.24,1.07-10.62-1.08-13.45-4.86-3.5-4.67-8.41-5.92-14.3-3.22-2.7,1.24-5.12,3.05-7.31,4.9-4.96,4.19-9.71,8.56-14.54,12.86-2.11,1.88-4.68,2.65-7.77,3.04-5.33,.67-10.56,1.91-15.85,2.81-4.84,.82-9.72,1.28-14.94,.41,16.6-22.13,25.68-46.48,32.01-71.69-1.42,3.72-2.86,7.43-4.25,11.15-5.39,14.37-11.27,28.59-19.21,42.14-3.22,5.49-6.92,10.79-10.46,16.15-.28,.43-.98,.98-1.46,.97-5.01-.17-10.02-.44-15.03-.68,0-.18,0-.36-.01-.54,2.13-1.11,4.32-2.14,6.37-3.35,10.81-6.36,16.86-15.35,19.75-25.88,3.87-14.13,4.89-28.42,2.47-42.82-.63-3.75-1.79-7.46-4.39-10.61-1.72-2.08-4.02-3.84-6.11-5.71-.93-.83-2.14-1.46-2.99-2.34-2.4-2.48-2.19-5.22,.34-7.61,5.58-5.28,11.34-10.43,16.63-15.91,10.06-10.42,17.81-21.95,22.65-34.77,.18-.49,.36-.98,.52-1.47,.01-.04-.06-.1-.19-.29-5.7,11.77-12.88,22.74-22.3,32.6-4.05,4.25-8.4,8.3-12.91,12.72-2.3-5.52-6.45-9.27-12.2-11.81-5.8-2.56-11.91-3.14-18.3-1.92-.09-.13-.18-.26-.27-.38,2.8-1.59,5.41-3.54,8.45-4.72,15.1-5.84,24.75-16.15,33-27.63,9.57-13.31,15.64-27.76,19.93-42.8,1.7-5.94,3.37-11.93,5.84-17.66,5.28-12.24,15.26-20.85,30.36-24.59,22.53-5.58,44.15,3.71,52.57,22.68,3.1,6.99,5.23,14.3,7.44,21.55,5.17,16.92,13.13,32.79,24.59,47.43,9.48,12.13,21.14,22.46,35.23,30.92,2.76,1.66,5.27,3.68,7.58,5.77,1.42,1.28,2.26,3.01,3.36,4.54-.17,.1-.33,.2-.5,.3-1.72-.4-3.42-1.03-5.18-1.17-13-1.02-22.79,3.62-30.1,12.3-2.48,2.94-2.89,6.4-2.34,9.89Zm30.01,6.39c.94,2.02,2.11,3.98,2.84,6.05,1.95,5.54-1.7,9.93-8.58,10.3-7.93,.43-15-1.94-22.17-4.97,3.44-3.9,5.21-7.98,4.84-12.55-.15-1.81-.52-3.64-1.08-5.39-1.12-3.56-.32-6.7,2.59-9.42,6.13-5.74,13.37-9.6,23.01-9.12,1.54,.08,3.12,.41,4.55,.89,2.08,.71,2.42,1.64,1.24,3.22-1.04,1.4-2.4,2.65-3.45,4.05-1.69,2.26-3.58,4.48-4.79,6.93-1.66,3.36-.54,6.75,.98,10ZM127.01,74.29c.05,4.08-.92,7.97-3.78,11.36-3.82,4.54-8.75,4.55-12.62,.01-3.4-3.98-4.16-8.57-3.56-13.26,.34-2.63,1.33-5.23,2.32-7.76,.47-1.2,1.51-2.31,2.54-3.28,3.2-3.01,7.27-2.95,10.41,.1,3.13,3.04,4.21,6.73,4.67,10.6,.09,.74,.01,1.49,.01,2.23Zm-21.95-32.64c-.13,5.17-.71,9.07-3.46,12.47-2.49,3.08-5.55,2.99-7.44-.38-3.33-5.96-3.3-12.06,0-18.07,.81-1.48,2.12-2.75,4.33-2.78,2.32-.03,3.73,1.3,4.46,2.84,1.07,2.25,1.68,4.65,2.12,5.92Zm-7.98-5.91c-.07,.23-.14,.47-.21,.7,1.38,.87,2.77,1.74,4.58,2.88-.06-2.06-1.11-2.99-2.45-3.65-.46-.23-1.27,.03-1.92,.06Zm15.08,78.74c-1.17,36.04-8.59,72.85-22.77,108.69,4.5-18.27,9.52-36.46,13.36-54.83,3.84-18.4,6.51-36.97,9.42-53.86Zm17.24-70.85c.84-2.62,1.52-5.3,2.59-7.85,.65-1.53,2.11-2.72,4.31-2.76,2.15-.03,3.54,1.16,4.21,2.6,1,2.16,2.05,4.45,2.15,6.71,.13,3.1-.57,6.22-1.01,9.32-.09,.65-.56,1.29-.94,1.89-2.26,3.57-5.27,3.67-7.79,.24-2.25-3.07-2.87-6.51-3.02-10.03-.17-.04-.34-.08-.5-.12Zm3.9-4.08c1.57-1.17,2.81-2.09,4.01-2.99-.78-1.23-1.74-1.21-2.64-.56-1.1,.79-2.2,1.68-1.37,3.55Zm18.48,13.72c.91,4.14,1.94,8.27,2.71,12.43,2.27,12.31,3.01,24.71,2.46,37.15-.61,13.91-1.78,27.78-6.49,41.23-1.86,5.32-3.87,10.6-7.41,15.36-.1,.14-.25,.25-.74,.71,1.33-3.14,2.54-5.85,3.64-8.59,3.73-9.32,5.76-18.93,6.97-28.67,1.71-13.69,2.35-27.43,1.54-41.16-.53-8.96-2-17.87-3.05-26.81-.06-.51-.13-1.01-.19-1.51,.18-.05,.37-.09,.55-.14Zm-67.38,88.46c-8.61,29.04-14.52,58.49-18.32,88.24,.19-30.26,6.88-59.59,18.32-88.24Zm81.53-59.06c0,30.07,13.7,56.31,32.8,81.18-5.96-3.13-20-23.87-26.01-37.92-5.89-13.76-8.59-31.14-6.79-43.25Zm-76.81,19.57c-9.85,26.96-20.48,53.73-28.37,81.16,1.05-15.13,19.94-69.16,28.37-81.16Zm52.52-39.34c.6,4.94,1.39,9.87,1.77,14.82,1.11,14.37-.85,28.6-3.44,42.76-1.24,6.78-2.84,13.52-4.29,20.28-.15,.7-.35,1.39-.75,2.06,4.74-26.48,8.54-53,6.11-79.85,.2-.03,.4-.05,.6-.08Zm-27.97,156.04c-2.09-19.71-.18-39.27,2.67-58.8-.89,19.6-1.78,39.2-2.67,58.8Z"/>
  </g>
</svg>