<?xml version="1.0" encoding="UTF-8"?>
<svg id="Layer_2" data-name="Layer 2" xmlns="http://www.w3.org/2000/svg" viewBox="0 0 243.69 222.33">
  <g id="Layer_1-2" data-name="Layer 1">
    <path d="M210.31,139.41c2.16,9.53,8.13,16.02,18.85,19.36,2.18,.68,4.3,1.61,6.23,2.69,10.64,5.95,11.12,17.52,1.09,24.21-4.77,3.18-10.2,5.17-16.2,6.05-1.95,.29-2.97,.89-3.52,2.62-2.17,6.86-6.02,12.93-13.31,17.07-11.23,6.37-26.31,5.37-37.2-2.41-1.53-1.09-2.98-2.27-4.6-3.52-1.12,1.53-2.16,3.02-3.28,4.46-9.56,12.26-27.99,16.03-43.09,8.55-4.83-2.39-9.12-5.53-13.49-8.23-4.03,2.11-8.2,4.85-12.9,6.66-18.85,7.26-39.34,2.92-52.15-10.64-.61-.64-1.98-1.07-3.01-1.1-8-.22-15.58-1.49-22.37-5.29-13.3-7.44-15.24-19.43-4.19-29.09,3.98-3.48,9.06-6.07,13.52-9.18,3.65-2.54,7.18-5.21,10.65-7.92,.99-.78,1.58-1.91,2.32-2.83-3.66,.31-7.09,.86-10.52,.86-15.35-.03-24.47-12-18.09-23.61,2.2-4,5.63-7.24,9.58-10.07,13.22-9.48,20.28-21.73,23.86-35.65,2.8-10.89,5.41-21.83,8.84-32.59,3.89-12.21,11.09-23.05,22.19-31.93C81.99,7.88,96.94,2.35,114.07,.59c16.35-1.68,32.02,.19,46.88,6.13,18.61,7.44,30.55,19.82,37.94,35.51,5.13,10.89,7.59,22.35,10.22,33.76,1.76,7.66,3.65,15.28,7.3,22.53,3.44,6.83,8.52,12.51,16.23,16.41,6.43,3.25,10.22,7.8,10.09,14.22-.15,7.22-7.03,13.14-15.72,13.76-5.45,.39-10.46-.6-15.14-2.87-.4-.2-.84-.34-1.56-.63ZM123.58,6.17c-1.92,.12-5.18,.19-8.39,.53-27.24,2.92-46.35,14.87-57.16,35.77-5.47,10.57-7.63,21.9-10.32,33.09-1.9,7.9-3.9,15.79-7.59,23.3-4.81,9.8-12.34,17.91-21.97,24.79-3.29,2.35-5.94,5.15-7.17,8.7-2.16,6.26,2.15,11.85,9.89,13,3.91,.58,7.6,0,11.21-1.08,2.21-.66,4.29-1.6,6.49-2.25,2.61-.77,5.1,.73,4.51,2.92-.87,3.25-1.81,6.59-3.56,9.55-3.24,5.46-9.12,8.95-14.91,12.49-4.54,2.78-9.29,5.52-13.05,8.95-6.67,6.1-5.2,13.49,2.95,18.21,6.16,3.57,13.16,4.86,20.52,4.63,3.41-.11,5.48,.89,7.44,3.18,8.42,9.88,22.49,14.09,36.67,11.23,7.74-1.56,14.12-4.93,19.46-9.78,2.46-2.24,4-2.2,6.5-.03,1.12,.97,2.08,2.12,3.35,2.93,4.1,2.61,7.98,5.63,12.54,7.52,11.17,4.63,23.09,1.98,30.39-6.41,2.26-2.6,4.07-5.49,5.82-8.36,2.3-3.77,4.09-3.96,7.44-.73,2.26,2.19,4.52,4.45,7.17,6.29,11.83,8.2,28.23,5.43,35.14-5.96,1.73-2.85,2.72-6.01,3.88-9.08,1.06-2.81,1.49-3.12,4.97-3.5,6.37-.71,12.42-2.17,17.06-6.13,5.17-4.42,4.19-10.51-2.15-13.71-1.37-.69-2.87-1.25-4.37-1.72-20.23-6.41-24.06-20.78-24.57-33.88-.08-2,2.45-3.03,4.55-1.99,.89,.44,1.63,1.1,2.36,1.72,3.67,3.09,7.93,5.31,13.09,6.24,5.4,.97,10.52-.79,12.53-4.25,2.15-3.71,.79-8.05-3.52-11-1-.68-2.05-1.33-3.15-1.89-6.71-3.37-11.65-8.08-15.35-13.75-5.48-8.39-7.66-17.61-10.03-26.82-2.59-10.03-5.04-20.12-8.4-29.98-3.66-10.75-10.18-20.35-20.3-27.98-13.78-10.39-30.36-14.51-49.98-14.74Zm-21.24,58.87c-.21,4.37-1.41,8.55-5.41,11.83-4.23,3.47-9.84,3.45-14.04-.06-3.36-2.8-4.84-6.28-5.1-10.17-.3-4.46,.41-8.73,3.76-12.42,4.58-5.04,12.04-5.05,16.68-.06,2.95,3.17,3.94,6.86,4.11,10.88Zm-15.75-3.99c.21,.92,.3,1.87,.65,2.75,.71,1.73,1.86,3.32,4.34,3.31,2.47-.01,3.62-1.59,4.32-3.33,.33-.82,.48-1.71,.52-2.57,.13-3.11-2.23-5.88-4.91-5.85-2.75,.03-4.74,2.4-4.92,5.7Zm83.86,4.5c-.22,3.94-1.36,8.02-5.15,11.24-4.25,3.61-9.94,3.55-14.17-.06-6.63-5.65-6.92-17.3-.59-23.24,4.35-4.09,10.89-4.06,15.24,.07,3.5,3.33,4.51,7.35,4.68,11.98Zm-15.8-4.24c.65,1.41,1.04,2.97,2,4.21,1.69,2.17,4.71,2.21,6.38,.04,.95-1.23,1.5-2.84,1.63-4.31,.28-3.22-2.06-5.88-4.74-5.85-2.87,.04-4.93,2.47-5.27,5.9Zm-12.54,29.01c-1.24,4.7-2.23,9.45-3.8,14.07-1.09,3.21-3.55,5.88-7.09,7.67-6.28,3.18-13.72,1.35-18.12-4.43-2.76-3.62-3.69-7.71-4.32-11.84-.42-2.73-.52-5.49-.61-8.24-.02-.63,.58-1.27,.9-1.9,.73,.31,1.65,.47,2.16,.94,7.8,7.27,19.33,7.21,27.08-.13,.53-.5,1.56-.63,2.36-.94,.34,.69,.87,1.36,.98,2.08,.12,.85-.12,1.74-.2,2.61,.22,.04,.44,.08,.67,.12Zm-16.22,20.19c3.22-.12,6.08-2.05,8.23-5,.88-1.22,.76-2.18-.21-3.29-4.46-5.14-13.56-5.55-18.58-.76-.47,.45-.88,1.2-.78,1.74,.69,3.85,5.66,7.34,11.34,7.31ZM83.38,42.31c-.36,.44,0,1.28,.01,1.94,.73-.03,1.75,.18,2.14-.13,2.71-2.2,5.63-3.26,9.41-1.91,.46,.16,1.7-.32,1.88-.72,.2-.45-.2-1.43-.69-1.67-1.29-.62-2.77-.96-3.63-1.23-4.14,.25-7.13,1.27-9.12,3.72Zm79.88-.74c-2.44-2.7-8.08-3.85-11.63-2.22-.77,.35-1.1,1.37-1.63,2.09,.96,.18,2.05,.7,2.84,.48,2.41-.67,4.59-.63,6.66,.63,.65,.4,1.26,1.04,1.96,1.13,.82,.1,1.73-.29,2.88-.53-.61-.9-.8-1.27-1.08-1.58Z"/>
  </g>
</svg>