<?xml version="1.0" encoding="UTF-8"?>
<svg id="Layer_2" data-name="Layer 2" xmlns="http://www.w3.org/2000/svg" viewBox="0 0 302.04 250.81">
  <defs>
    <style>
      .cls-1 {
        fill: #2d171c;
      }
    </style>
  </defs>
  <g id="Layer_1-2" data-name="Layer 1">
    <path class="cls-1" d="M301.86,92.84c-.51-3.79-2.19-6.7-5.68-8.12-.67-.27-1.24-.61-1.1,.81,.24,2.31-1.26,4.64-3.2,5.57-2.15,1.03-3.36-.35-4.61-1.88-2.88-3.5-6.27-6.19-10.6-7.33-6.9-1.81-13.22-.04-19.23,3.58-2.45,1.47-4.8,3.13-7.28,4.51-4.63,2.57-9.49,3.97-14.73,2.61-6.14-1.59-10.36-5.85-13.57-11.42-3.73-6.48-5.57-13.73-7.39-20.98-2.45-9.77-4.63-19.62-8.04-29.1C198.86,10.07,181.29-2.63,159.58,.46c-13.93,1.98-24.27,9.51-30.8,22.95-3.14,6.47-4.36,13.54-5.97,20.51-2.02,8.73-5.42,16.71-11.99,22.66-6.81,6.18-14.55,8.71-23.35,5.86-4.57-1.48-7.96-4.92-11.34-8.33-2.95-2.98-5.98-5.9-9.81-7.5-10.84-4.52-21.34-3.24-31.51,2.41-2.44,1.35-4.72,3.02-7.25,4.19-5.33,2.47-10.72,3.04-16.12,.25-2.75-1.42-4.78-3.57-5.33-6.97-.12,.31-.24,.61-.36,.92,.44,5.9,3.68,9.33,8.65,11.24,.36,.14,1-.14,1.02,.64l.07,.06c.24-.42,.63-.29,.95-.23,6.1,1.05,11.52-.99,16.71-4.14,4.06-2.46,8.09-5.01,12.78-5.86,6.54-1.19,13.05-1.48,19.25,1.73,2.92,1.51,5.36,3.78,7.68,6.18,1.77,1.83,3.58,3.62,5.29,5.51,4.7,5.19,10.65,7.2,17.16,7.82,0-.23,.01-.46,.02-.69-1.69-.38-3.37-.81-4.82-1.56-.13-.36-.07-.43,.09-.42,15.1,1.31,25.18-6.54,31.99-20.21,3.05-6.12,4.52-12.82,5.88-19.54,2.31-11.36,7.27-20.94,16.4-27.68,2.22-1.63,4.57-2.99,7.15-3.86,1.24-.69,2.55-1.13,3.92-1.34,1.14-.4,2.29-.75,3.5-.76,.23-.03,.46-.06,.69-.09,7.31-1.43,14.32-.36,21.04,2.95,10.78,5.3,17.51,14.41,21.62,26.09,3.46,9.85,5.51,20.12,8.1,30.23,2.63,10.26,5.95,20.23,10.73,29.6t0,0c.14,.23,.28,.46,.42,.69,.14,.18,.04,.73,.42,.49,.24-.15,.05-.52-.24-.68,.01-.32-.02-.62-.3-.81-.71-1.94-1.43-3.88-2.15-5.84,.76-.25,.92,.38,1.18,.71,8.96,11.37,20.71,12.82,32.57,5.53,2.13-1.31,4.19-2.73,6.31-4.05,9.84-6.1,19.5-4.94,27.56,4.49l.38,.36c1.89,1.58,4.12,2.46,6.3,3.44,.55-.37,1.15,.02,1.87-.16-1.47-1.09-3.26-1.45-4.51-3.07,3.33-1.42,5.6-3.64,5.22-7.84,2.59,2.77,3.57,7.78,2.24,11.17-.86,2.21-3.75,3.63-6.4,3.14-1.87-.35-3.62-1.1-5.16-2.23-6.93-5.09-15.88-3.6-21.73,4.86-3.23,4.67-5.32,9.97-7.52,15.21-.69,2.22-1.57,4.35-2.54,6.44-.63,1.58-1.25,3.15-2.21,4.54-.15,.26-.31,.52-.46,.77l.02-.02c-.11,.48-.32,.88-.69,1.19l.02-.02c-4.63,7.44-10.78,12.02-19.45,11.93-.47,0-.94,0-1.42,0-4.75-.51-8.92-2.52-12.92-5.26-2.52-1.73-3.72-3.99-4.45-6.94-.96-3.85-2.19-7.62-3.01-11.51-.02-.24-.16-.55,.26-.57-.07,0-.11-.05-.11-.13-1.28-1.96-1.25-4.32-1.72-6.51-1.17-5.46-2.08-10.98-2.65-16.55-.53-5.01-1.15-10.01-1.06-15.07-.25-.59,.27-1.37-.4-1.85-.11,1.01-.23,2.01-.34,3.02,0,3.76,0,7.53,0,11.29,.44,4.92,.73,9.86,1.28,14.78,1.33,11.95,4.1,23.55,7.26,35.06,2.27,8.25,5.22,16.27,6.98,24.69,1.67,8.02,2.41,16.07,.93,24.23-1.12,7.26-3.83,13.67-8.87,18.81-.58,.49-.91,1.36-1.8,1.37l-.13,.05c.1,.36-.06,.5-.37,.51-3.43,3.23-7.57,4.6-11.99,5.24-1.28,.23-2.57,.2-3.86,.05-3.34,.15-6.44-.93-9.53-2.11-.93-.35-1.01-.66-.44-1.54,4.02-6.14,6.86-12.93,9.45-19.86,1.45-3.89,2.36-7.95,3.64-11.9,.78-4.08,1.56-8.16,2.33-12.23,1.35-9.17,1.97-18.42,2.34-27.69-.03-1.77-.06-3.55-.09-5.32,.02-1.47,.2-2.95-.15-4.38-.22,0-.43,0-.65,0v4.33c-.43,5.17-.78,10.34-1.3,15.5-.58,5.84-1.53,11.63-2.86,17.33-4.68,22.36-12.8,42.72-29.81,57.75-10.71,9.46-23.08,15.09-36.81,17.35-3.37,.55-6.75,.88-10.15,.96-11.88,.41-22.41-3.2-31.22-11.96-2.67-2.65-5.35-5.29-8.11-7.82-4.76-4.36-10.45-6.69-16.51-7.86-11.87-2.3-18.8-10.17-22.41-22.02-1.09-3.57-2-7.22-3.49-10.63-2.74-6.28-7.05-9.94-13.79-10.55-10.49-.94-16.48-8.05-20.01-18.03-.47-1.33-.68-2.77-1.01-4.17-.81-5.05-1-10.07,.58-15.02,.07-.36-.05-.79,.37-1.01,0,0-.04-.13-.04-.13,2.81-11.27,14.35-17.53,25.29-13.68,5.44,1.91,10.46,4.9,15.79,7.1,9.34,3.87,18.94,5.95,28.99,5.43,4.58-.24,9.03-1.37,13.5-2.31,7.34-2.49,14.55-5.36,21.59-8.71,2.08-1.39,4.48-2.21,6.3-4.06-.69-.09-1.22,.35-1.79,.64-9.38,4.79-19.17,8.12-29.5,9.62-1.68,.24-3.37,.18-5.04,.42-2.29,.59-4.66,.53-6.96,.51-10.48-.11-20.49-2.71-30.08-7.2-1.23-.58-2.45-1.19-3.71-1.69-.99-.39-1.24-.65-.52-1.76,2.36-3.68,4.46-7.49,4.77-12.13,.18-2.69-.53-5.2-1.04-7.76-2.77-6.57-7.37-11.43-12.69-15.62-.47-.37-.91-.76-1.37-1.14-3.73-2.55-7.48-5.06-10.96-7.99-1.98-1.21-3.71-2.74-5.21-4.58,.52-.57,.85-.15,1.18,0,7.17,3.48,14.27,3.39,21.29-.47,2.56-1.41,5.18-2.51,8.08-2.96,6.56-1.01,11.85,1.58,16.21,6.54,3.37,3.83,5.66,8.4,6.89,13.53,1.02,3.34,1.93,6.71,2.39,10.2,1.62,7.61,5.35,13.43,12.22,16.67,5.06,2.39,10.34,2.59,15.7,1.95,2.14-.25,4.25-.83,6.38-1.25,4.1-1.18,8.09-2.66,11.94-4.59,.39-.2,.92-.21,1.11-.76-3.28,.84-6.34,2.43-9.65,3.22-6.17,1.47-12.35,2.2-18.66,1.28-9.46-1.39-15.7-8.09-17.52-18.94-.93-5.55-1.94-11.06-4.62-16.04-3.4-6.31-8-11.11-14.75-13.02-5.15-1.46-10.13-.52-14.87,1.82-4.59,2.27-9.27,3.84-14.41,3.14-5.4-.56-10.02-2.78-13.47-7.36-1.67-2.21-2.38-4.8-2.13-7.66,.07-.63,.13-1.26,.2-1.88-1.39,1.02-1.35,2.69-1.47,4.16-.36,4.34,1.51,7.9,3.88,11.16,3.9,5.37,9.02,9.27,14.17,13.13,4.74,3.56,9.75,6.78,13.36,11.81,2.96,4.12,5.03,8.6,4.51,14-.4,4.18-2.75,7.52-4.27,11.22-.32,.78-.75,.3-1.14,.17-2.9-1.01-5.83-1.84-8.88-2.13-9.9-.94-19.87,3.31-24.03,15.02-2.82,7.96-1.93,15.88,.96,23.63,3.88,10.44,10.15,18.27,21,20.21,5.92,1.06,9.32,4.61,11.48,10.21,1.67,4.34,2.46,8.98,4.13,13.32,4.36,11.3,11.65,18.83,23.14,21.26,5.65,1.2,11.12,2.98,15.64,7.05,2.15,1.94,4.25,3.95,6.28,6.04,6.44,6.63,13.67,11.72,22.56,13.72,9.47,2.13,18.91,1.56,28.29-.54,17.16-3.85,31.86-12.41,43.51-26.62,.81-.99,1.44-2.61,2.41-2.86,1.02-.27,2.32,.76,3.51,1.2,.66,.24,1.33,.46,2.01,.64,10.85,2.88,20.74,1.17,29-7.36,7.62-7.87,10.35-17.95,10.78-28.93,.37-9.39-1.35-18.45-4.1-27.32-1.54-4.96-3.12-9.9-4.75-15.08,.44,.32,.68,.49,.91,.65,9.4,6.41,20.68,6,29.56-1.16,4.97-4,8.14-9.44,10.47-15.51,.26-.67,.37-1.28,1.35-1.33,5.35-.32,10.55-1.53,15.61-3.39,7.64-2.81,14.75-6.71,20.58-12.82,4.2-4.41,6.68-9.66,5.81-16.2Zm-212.08-15.09c-.1,0-.2-.08-.31-.12,.06-.07,.12-.19,.18-.19,.1,0,.2,.07,.35,.13-.09,.08-.16,.18-.23,.18Zm-78.13-6.21s-.1-.08-.1-.11c.02-.09,.07-.18,.11-.27,.06,.07,.12,.15,.18,.22-.07,.06-.12,.12-.19,.16Zm285.76,30.88c-.42,.75-.78,1.54-1.43,2.11-3.75,5.14-8.88,8.23-14.27,10.9-2.01,1-4.09,1.86-6.25,2.44-1.01,.56-2.1,.82-3.2,1.03-3.79,1.55-7.78,2.03-12.06,2.51,2.2-5.99,4.21-11.84,7.66-16.94,1.28-1.89,2.72-3.62,4.59-4.88,4.29-2.89,8.65-3.16,13.08-.32,1,.64,2.02,1.27,3.05,1.87,2.72,1.61,5.54,2.33,8.56,.99,.13-.04,.26-.09,.39-.13-.04,.14-.07,.28-.11,.42Zm-123.69-41.52c-1.01-.75-1.93-1.64-2.94-2.39-2.3-1.7-4.32-1.26-5.82,1.25-1.12,1.88-1.67,4-1.96,6.18-1.29,9.83,0,19.36,3.07,28.66,1.22,3.7,2.94,7.11,5.85,9.64,2.92,2.54,6.27,2.69,9.42,.47,1.48-1.05,2.8-2.32,3.85-3.83,7.07-10.17,10.65-21.71,11.79-34.2,0-2.58-.27-5.04-1.53-7.28-1.57-2.79-3.94-3.33-6.39-1.41-.9,.7-1.71,1.53-2.56,2.29-4.36,3.91-8.08,4.1-12.77,.63Zm10.67,32.86c.55,.88,.57,1.65-.05,2.57-1.21,1.81-2.54,3.45-4.39,4.53-2.93,1.72-5.87,1.23-8.13-1.44-1.35-1.6-2.23-3.51-2.92-5.54-.29-.87-.1-1.36,.58-1.89,2.16-1.7,4.45-2.6,6.64-2.6,3.75-.09,6.38,1.37,8.27,4.37ZM9.3,149.74c-.36,1.81-.42,3.6-.02,5.4,.28,1.27,.54,2.55,.81,3.83-2.73-4.05-3.14-8.53-1.9-13.2,1.21-4.54,3.76-8.13,7.26-10.97,9.93-6.67,22.39-3.53,29.51,4.04l.3,.26s-.1,.12-.1,.11c-.12-.08-.22-.17-.34-.25,0,0,0,0,0,0-2.84-1.9-5.77-3.62-9.04-4.54-8.56-2.96-17.87,.48-23.02,8.49-.17,.27-.71,.35-.42,.83,.31,.52,.77,.47,1.24,.21,7.02-.69,13.08,2.05,18.72,6.15,4.4,3.2,8.02,7.31,11.44,11.63,6.11,7.71,12.29,15.34,19.74,21.66,12.55,10.66,26.86,16.51,42.79,17.96,.93,.08,1.87,.03,2.81,.04,4.3,.28,8.52-.33,12.72-1.21v.53c-13.37,3.52-26.48,1.58-39.76-2.45,.36,.42,.48,.63,.65,.76,4.2,3.2,7.55,7.28,10.66,11.66,3.1,4.37,7.01,7.77,11.79,9.84,11.94,5.15,24.35,6.53,37.08,4.86,3.19-.42,6.35-1.12,9.52-1.7-.75,.65-1.75,.52-2.56,.99-5.8,1.58-11.69,2.65-17.67,2.97-11.71,.62-23.07-.6-33.24-7.69-2.84-1.98-5.04-4.67-7.09-7.51-1.04-1.44-2.13-2.83-3.19-4.24-.26-.8-.84-1.34-1.34-1.96-3.17-3.95-7.01-7.03-11.26-9.46-12.64-7.21-23.1-17.03-31.76-29.21-4.18-5.89-8.55-11.66-14.01-16.33-4.66-3.98-9.78-6.37-15.91-5.65-2.81,.33-3.82,1.23-4.41,4.15ZM164.76,26.06c4.36,5.23,5.53,15.61,2.47,21.79-2.46,4.96-6.44,5.47-9.78,1.15-2.87-3.7-3.64-8.16-3.71-11.34-.04-4.65,.4-7.73,1.86-10.54,2.26-4.33,6.07-4.75,9.15-1.05Zm21.71,20.65c-2.64-3.76-3.46-8.14-3.51-12.02,.03-3.5,.26-6.23,1.5-8.75,2.11-4.29,5.99-4.92,8.74-1.12,4.48,6.19,5.54,13.22,3.09,20.57-1.83,5.48-6.53,6.01-9.82,1.32Zm35.07,59.68c.69-.07,.92,.61,1.33,.98,6.03,5.43,12.77,9.01,20.81,9.29,0,.12,.01,.25,.03,.37-9.01,.59-16.15-3.44-22.15-10.28-.06-.06-.04-.2-.05-.31-.26,.03-.37-.11-.36-.38-.12,0-.23,0-.35,0,.07-.14,.14-.29,.21-.43,.05,.13,.1,.27,.15,.4,.31-.07,.45,.03,.37,.38Zm-95.86,80.18c11.19-5.77,21.02-13.47,29.76-22.76,2.16-2.3,4.19-4.74,6.28-7.12,.15-.15,.3-.3,.46-.44,.18,.32,.09,.55-.21,.71-4.58,7.09-10.3,12.98-16.66,18.21-5.46,4.48-11.39,8.12-17.68,11.07-.57,.27-1.13,.72-1.95,.33Zm26.03,37.13c.22-.55,.69-.22,1.03-.34-.26,.4-.69,.23-1.03,.34Zm-16.89-92.98c.09,.7-.49,.76-.86,.99-11.34,6.77-23.13,12.31-35.98,14.86-2.58,.51-5.22,.73-7.83,1.08-.4,.04-.8,.07-1.2,.11-1.38-.01-2.76-.03-4.15-.04-.36-.04-.73-.07-1.09-.11-.12,0-.23-.01-.35-.02-3.3-.41-6.64-.5-9.59-1.43,22.25-.08,37.72-3.97,61.05-15.43Z"/>
  </g>
</svg>